<svg id="Masdar" xmlns="http://www.w3.org/2000/svg" width="244.542" height="66.241" viewBox="0 0 244.542 66.241">
  <g id="Group-48" transform="translate(0 0)">
    <path id="Fill-1" d="M74.45,94.9a2.877,2.877,0,0,1-3.056-2.6V86.65h1.223v5.5a1.694,1.694,0,0,0,1.528,1.834h.306a1.571,1.571,0,0,0,1.681-1.528V86.65h1.223v5.5a2.873,2.873,0,0,1-2.751,2.9c0-.153,0-.153-.153-.153" transform="translate(-46.026 -28.814)" fill="#007bb6"/>
    <path id="Fill-3" d="M85.134,87.72v2.292h1.987c.917,0,1.375-.458,1.375-1.223s-.458-1.223-1.375-1.223Zm0,3.515v2.6h1.987a1.232,1.232,0,1,0,.306-2.445H85.134ZM87.274,94.9H83.912V86.65h3.209a2.339,2.339,0,0,1,2.6,2.292,1.72,1.72,0,0,1-1.07,1.681,2.048,2.048,0,0,1,1.223,1.987A2.22,2.22,0,0,1,87.732,94.9Z" transform="translate(-48.764 -28.814)" fill="#007bb6"/>
    <path id="Fill-5" d="M98.337,88.484l-1.375,3.668h2.6ZM96.045,94.9H94.67l3.056-8.252H98.8l3.056,8.252h-1.375l-.611-1.681H96.5L96.045,94.9Z" transform="translate(-51.117 -28.814)" fill="#007bb6"/>
    <path id="Fill-7" d="M108.606,87.72v5.96h1.528a1.49,1.49,0,0,0,1.375-.611c.458-.458.458-1.375.458-2.445,0-1.223,0-1.987-.458-2.445a1.659,1.659,0,0,0-1.375-.611Zm1.681,7.182h-2.9V86.65h2.9a3.651,3.651,0,0,1,2.139.764,3.851,3.851,0,0,1,.917,3.056v.306c0,1.223,0,2.292-.917,3.209A2.564,2.564,0,0,1,110.287,94.9Z" transform="translate(-53.897 -28.814)" fill="#007bb6"/>
    <path id="Fill-9" d="M121.614,88.484l-1.375,3.668h2.6ZM119.321,94.9h-1.375L121,86.65h1.07l3.056,8.252h-1.375l-.611-1.681H119.78l-.458,1.681Z" transform="translate(-56.208 -28.814)" fill="#007bb6"/>
    <path id="Fill-11" d="M130.855,94.86v-8.4h1.223v7.182H136.2V94.86Z" transform="translate(-59.031 -28.772)" fill="#007bb6"/>
    <path id="Fill-13" d="M143.912,88.484l-1.375,3.668h2.6ZM141.619,94.9h-1.375L143.3,86.65h1.07l3.056,8.252h-1.375l-.611-1.681h-3.362l-.458,1.681Z" transform="translate(-61.085 -28.814)" fill="#007bb6"/>
    <path id="Fill-15" d="M161.338,94.817A2.775,2.775,0,0,1,159.2,93.9c-.764-.764-.764-1.681-.764-3.362,0-1.528,0-2.445.764-3.362a3.049,3.049,0,0,1,5.2,1.681h-1.375a1.791,1.791,0,0,0-1.681-1.375,1.735,1.735,0,0,0-1.223.458c-.458.458-.458.917-.458,2.6s.153,2.139.458,2.6a1.735,1.735,0,0,0,1.223.458,1.663,1.663,0,0,0,1.681-1.375h1.223a2.955,2.955,0,0,1-2.9,2.6" transform="translate(-65.063 -28.729)" fill="#007bb6"/>
    <path id="Fill-17" d="M172.683,87.524a1.735,1.735,0,0,0-1.223.458c-.458.458-.458.917-.458,2.6s.153,2.139.458,2.6a1.859,1.859,0,0,0,2.445,0c.458-.458.458-.917.458-2.6s-.153-2.139-.458-2.6a2.918,2.918,0,0,0-1.223-.458Zm0,7.335a2.775,2.775,0,0,1-2.139-.917c-.764-.764-.764-1.681-.764-3.209v-.153c0-1.528,0-2.445.764-3.209a3.017,3.017,0,0,1,2.139-.917,3.369,3.369,0,0,1,2.292.917c.764.764.764,1.681.764,3.209v.153c0,1.528,0,2.445-.764,3.209A3.11,3.11,0,0,1,172.683,94.86Z" transform="translate(-67.544 -28.772)" fill="#007bb6"/>
    <path id="Fill-19" d="M188.019,94.86V89.205l-1.987,4.126h-.917l-1.987-4.126V94.86h-1.223v-8.4h1.223l2.445,5.2,2.445-5.2h1.223v8.4Z" transform="translate(-70.197 -28.772)" fill="#007bb6"/>
    <path id="Fill-21" d="M197.408,87.716v2.751h1.834a1.368,1.368,0,0,0,1.528-1.223v-.153a1.347,1.347,0,0,0-1.223-1.375h-2.139Zm0,7.182h-1.223V86.646h3.209a2.551,2.551,0,0,1,2.751,2.292v.153a2.414,2.414,0,0,1-2.445,2.445h-2.139V94.9Z" transform="translate(-73.32 -28.81)" fill="#007bb6"/>
    <path id="Fill-23" d="M209.242,88.484l-1.375,3.668h2.6ZM206.949,94.9h-1.375l3.056-8.252h1.07l3.056,8.252h-1.223l-.611-1.681h-3.362l-.611,1.681Z" transform="translate(-75.373 -28.814)" fill="#007bb6"/>
    <path id="Fill-25" d="M223.527,94.86l-3.82-5.807V94.86h-1.223v-8.4h1.07l3.973,5.807V86.455h1.223v8.4Z" transform="translate(-78.197 -28.772)" fill="#007bb6"/>
    <path id="Fill-27" d="M233.844,91.345V94.86h-1.375V91.345l-2.445-4.89H231.4l1.834,3.668,1.681-3.668h1.375Z" transform="translate(-80.721 -28.772)" fill="#007bb6"/>
    <path id="Fill-29" d="M241.76,41.62a10.116,10.116,0,0,0-9.78,9.475V68.363h4.585V51.094a5.034,5.034,0,0,1,4.737-5.043h4.432V41.467H241.76Z" transform="translate(-81.149 -18.932)" fill="#007bb6"/>
    <path id="Fill-31" d="M168.411,44.45a4.8,4.8,0,0,0-5.043,4.585v8.1a5.057,5.057,0,0,0,5.043,4.89h3.973a6.848,6.848,0,0,0,6.877-6.877V48.576c0-2.445-2.292-4.279-5.043-4.279ZM184,66.609h-4.585V64.317a11.4,11.4,0,0,1-7.03,2.292h-3.973a9.722,9.722,0,0,1-6.877-2.9,9.118,9.118,0,0,1-2.9-6.724V49.188a9.79,9.79,0,0,1,9.78-9.475h5.807a8.529,8.529,0,0,1,5.043,1.528V33.447h4.585V66.609Z" transform="translate(-65.106 -17.178)" fill="#007bb6"/>
    <path id="Fill-33" d="M205.183,56.29c-2.9,0-5.043,1.528-5.043,3.515,0,1.834,2.139,3.973,5.043,3.973H209a7.137,7.137,0,0,0,7.03-6.571V56.29Zm15.435,12.073h-4.585V66.071A11.4,11.4,0,0,1,209,68.363h-3.82c-5.349,0-9.78-3.973-9.78-8.558s4.279-8.252,9.78-8.252h10.7v-.458a5.034,5.034,0,0,0-4.737-5.043h-4.737a5.065,5.065,0,0,0-4.279,2.445h-5.043a10.157,10.157,0,0,1,9.322-7.03h4.432a10,10,0,0,1,9.78,9.475V68.363Z" transform="translate(-73.149 -18.932)" fill="#007bb6"/>
    <path id="Fill-35" d="M94.67,56.29c-2.9,0-5.043,1.528-5.043,3.515,0,1.834,2.139,3.973,5.043,3.973h3.82a7.137,7.137,0,0,0,7.03-6.571V56.29ZM110.1,68.363H105.52V66.071a11.4,11.4,0,0,1-7.03,2.292H94.67c-5.349,0-9.78-3.973-9.78-8.558s4.279-8.252,9.78-8.252h10.7v-.458a5.034,5.034,0,0,0-4.737-5.043H95.893A5.065,5.065,0,0,0,91.614,48.5H86.571a10.157,10.157,0,0,1,9.322-7.03h4.432a10,10,0,0,1,9.78,9.475V68.363Z" transform="translate(-48.978 -18.932)" fill="#007bb6"/>
    <path id="Fill-37" d="M137.445,51.747h-7.794A2.942,2.942,0,0,1,126.442,49a3.166,3.166,0,0,1,3.209-2.751H137.6a5.065,5.065,0,0,1,4.279,2.445h5.043a10.157,10.157,0,0,0-9.322-7.03h-7.947A7.532,7.532,0,0,0,121.858,49a7.634,7.634,0,0,0,7.794,7.335h7.794c2.9,0,5.043,1.528,5.043,3.515,0,1.834-2.139,3.973-5.043,3.973H131.18a5.065,5.065,0,0,1-4.279-2.445h-5.043a10.157,10.157,0,0,0,9.322,7.03h6.266c5.349,0,9.78-3.973,9.78-8.558-.153-4.585-4.432-8.1-9.78-8.1" transform="translate(-57.063 -18.973)" fill="#007bb6"/>
    <path id="Fill-39" d="M65.514,33.643,54.97,60.233,44.578,33.643H38.924V66.652h4.585V44.34l8.558,22.311h5.96l8.4-22.311V66.652h4.737V33.643Z" transform="translate(-38.924 -17.221)" fill="#007bb6"/>
    <g id="Group-43" transform="translate(177.548 0)">
      <path id="Fill-41" d="M-118.8,12.518a18.79,18.79,0,0,0-12.99,5.349l-1.375,1.375a18.118,18.118,0,0,0-.764,22.006h0a13.737,13.737,0,0,1-3.668-1.834,10.452,10.452,0,0,1-3.82-7.03v-1.07a10.418,10.418,0,0,1,6.724-9.628h0l-2.9-7.335h0a18.35,18.35,0,0,0-11.767,16.963,9.4,9.4,0,0,0,.153,1.987,18.48,18.48,0,0,0,15.282,16.046h0A12.014,12.014,0,0,1-137.9,50.57a10.489,10.489,0,0,1-7.794-2.292c-.306-.306-.611-.458-.764-.764A10.04,10.04,0,0,1-148.6,36.052h0l-7.335-3.209h0a18,18,0,0,0,3.82,20.172,5.984,5.984,0,0,0,1.528,1.223A18.58,18.58,0,0,0-128.277,55h0a10.671,10.671,0,0,1-1.987,3.668,10.8,10.8,0,0,1-7.03,3.82h-1.07a10.639,10.639,0,0,1-9.78-6.571h0l-7.488,2.9h0a18.619,18.619,0,0,0,17.268,11.614,8.714,8.714,0,0,0,1.987-.153,18.335,18.335,0,0,0,16.352-14.976h0a12.014,12.014,0,0,1,1.223,3.973,9.951,9.951,0,0,1-2.292,7.641c-.306.306-.458.611-.764.764a10.539,10.539,0,0,1-11.614,2.139h0l-3.209,7.182h0a18.756,18.756,0,0,0,20.478-3.82l1.375-1.375a18.118,18.118,0,0,0,.764-22.006h0A13.737,13.737,0,0,1-110.4,51.64a10.453,10.453,0,0,1,3.82,7.03v1.07a10.418,10.418,0,0,1-6.724,9.628h0l2.9,7.335h0A18.35,18.35,0,0,0-98.63,59.739a9.4,9.4,0,0,0-.153-1.987,18.48,18.48,0,0,0-15.282-16.046h0a12.014,12.014,0,0,1,3.973-1.223,10.489,10.489,0,0,1,7.794,2.292c.306.306.611.458.764.764A10.04,10.04,0,0,1-99.394,55h0l7.335,3.209h0a18,18,0,0,0-3.82-20.172,5.984,5.984,0,0,0-1.528-1.223,18.58,18.58,0,0,0-22.311-.764h0a10.672,10.672,0,0,1,1.987-3.668,10.8,10.8,0,0,1,7.03-3.82h1.07a10.483,10.483,0,0,1,9.78,6.571h0l7.488-2.9h0a18.619,18.619,0,0,0-17.268-11.614,8.714,8.714,0,0,0-1.987.153,18.335,18.335,0,0,0-16.352,14.976h0a12.014,12.014,0,0,1-1.223-3.973,9.951,9.951,0,0,1,2.292-7.641c.306-.306.458-.611.764-.764a10.539,10.539,0,0,1,11.614-2.139h0l3.209-7.182h0a19.529,19.529,0,0,0-7.182-1.528h-.306Z" transform="translate(157.495 -12.518)" fill="#1686bc"/>
    </g>
    <path id="Fill-44" d="M42.592,88.484l-1.375,3.668h2.6ZM40.3,94.9H38.924L41.98,86.65h1.07L46.107,94.9H44.731l-.611-1.681H40.758L40.3,94.9Z" transform="translate(-38.924 -28.814)" fill="#007bb6"/>
    <path id="Fill-46" d="M63.576,94.86V89.205l-1.987,4.126h-.917l-1.987-4.126V94.86H57.31v-8.4h1.375l2.445,5.2,2.445-5.2H64.8v8.4Z" transform="translate(-42.945 -28.772)" fill="#007bb6"/>
  </g>
</svg>
