<svg id="Layer_1" data-name="Layer 1" xmlns="http://www.w3.org/2000/svg" xmlns:xlink="http://www.w3.org/1999/xlink" viewBox="0 0 106.67 124.36"><defs><style>.cls-1{fill:url(#linear-gradient);}.cls-2{fill:#54c9ff;}.cls-3{fill:#2069c7;}.cls-4{fill:#064280;}.cls-5{fill:#529dfa;}.cls-6{fill:#0182aa;}.cls-7,.cls-8{fill:none;}.cls-7{stroke:#01ffff;stroke-miterlimit:10;stroke-width:0.26px;}.cls-8{stroke:#15ff5f;stroke-linecap:round;stroke-linejoin:round;stroke-width:1.04px;}.cls-9{fill:#889fff;}.cls-10{fill:#239bd5;}.cls-11{fill:#5796ff;}.cls-12{fill:#89d1ff;}</style><linearGradient id="linear-gradient" x1="365.96" y1="782.06" x2="364.69" y2="782.06" gradientTransform="matrix(94.26, 0, 0, -59.48, -33606.31, 46964.38)" gradientUnits="userSpaceOnUse"><stop offset="0" stop-color="#7659ff"/><stop offset="1" stop-color="#748bff"/></linearGradient></defs><g id="Group_4671" data-name="Group 4671"><path id="Path_2178" data-name="Path 2178" class="cls-1" d="M757.14,425.53l93.22,54.07,1-5.42-93.22-54.06Z" transform="translate(-744.73 -420.12)"/><path id="Path_2179" data-name="Path 2179" class="cls-2" d="M781.55,481.39l61.55,35.7,6.48-33.49L788,447.9Z" transform="translate(-744.73 -420.12)"/><path id="Path_2180" data-name="Path 2180" class="cls-3" d="M776.13,478.25,749.89,463l6.48-33.49,26.25,15.22Z" transform="translate(-744.73 -420.12)"/><path id="Path_2181" data-name="Path 2181" class="cls-4" d="M797.07,520.86l40.73,23.62,4.05-20.93-40.72-23.62Z" transform="translate(-744.73 -420.12)"/><path id="Path_2182" data-name="Path 2182" class="cls-5" d="M744.73,490.61l47.9,27.78,4.06-20.93-47.9-27.78Z" transform="translate(-744.73 -420.12)"/><path id="Path_2183" data-name="Path 2183" class="cls-6" d="M823.6,517.63l14.92,8.66-.2,1-14.91-8.65Z" transform="translate(-744.73 -420.12)"/><path id="Path_2184" data-name="Path 2184" class="cls-6" d="M825.38,522l12.56,7.29-.2,1L825.18,523Z" transform="translate(-744.73 -420.12)"/><path id="Path_2185" data-name="Path 2185" class="cls-6" d="M821.87,523.3l15.5,9-.2,1-15.5-9Z" transform="translate(-744.73 -420.12)"/><path id="Path_2186" data-name="Path 2186" class="cls-6" d="M823.3,527.47l13.48,7.82-.2,1-13.48-7.82Z" transform="translate(-744.73 -420.12)"/><path id="Path_2187" data-name="Path 2187" class="cls-6" d="M827.11,533l9.09,5.28-.2,1L826.91,534Z" transform="translate(-744.73 -420.12)"/><path id="Path_2188" data-name="Path 2188" class="cls-6" d="M802.46,505.37l17.44,10.12-.2,1-17.44-10.11Z" transform="translate(-744.73 -420.12)"/><path id="Path_2189" data-name="Path 2189" class="cls-6" d="M805,510.19l14.31,8.3-.2,1-14.31-8.3Z" transform="translate(-744.73 -420.12)"/><path id="Path_2190" data-name="Path 2190" class="cls-6" d="M809.69,516.25l9,5.25-.2,1-9-5.25Z" transform="translate(-744.73 -420.12)"/><path id="Path_2191" data-name="Path 2191" class="cls-6" d="M800.72,514.38l17.44,10.11-.2,1-17.43-10.11Z" transform="translate(-744.73 -420.12)"/><path id="Path_2192" data-name="Path 2192" class="cls-6" d="M803.58,519.38l14,8.12-.2,1-14-8.11Z" transform="translate(-744.73 -420.12)"/><path id="Path_2193" data-name="Path 2193" class="cls-7" d="M746.67,489.93l44.65,25.9,3.43-17.69-44.66-25.9Z" transform="translate(-744.73 -420.12)"/><line id="Line_210" data-name="Line 210" class="cls-7" x1="47.69" y1="90.01" x2="3.04" y2="64.11"/><line id="Line_211" data-name="Line 211" class="cls-7" x1="48.85" y1="84" x2="4.2" y2="58.1"/><path id="Path_2194" data-name="Path 2194" class="cls-8" d="M791.26,512.79l-3-7.86-5.37,2.45-5.21-17.87-6.94,6-3-7-7,7.76-2.07-15.25-4,8.36L752.9,480l-2.49-1.45" transform="translate(-744.73 -420.12)"/><path id="Path_2195" data-name="Path 2195" class="cls-9" d="M839.94,472.32l8.65,5,.61-3.14-8.65-5Z" transform="translate(-744.73 -420.12)"/><path id="Path_2196" data-name="Path 2196" class="cls-10" d="M822.48,502.16l17.89,10.37,5.35-27.62-17.89-10.38Z" transform="translate(-744.73 -420.12)"/><path id="Path_2197" data-name="Path 2197" class="cls-10" d="M790.46,457.59,821,475.31l.82-4.26-30.54-17.71Z" transform="translate(-744.73 -420.12)"/><path id="Path_2198" data-name="Path 2198" class="cls-10" d="M794.51,467.46l25.19,14.61.82-4.25-25.19-14.61Z" transform="translate(-744.73 -420.12)"/><path id="Path_2199" data-name="Path 2199" class="cls-10" d="M787.84,471.12l30.55,17.72.82-4.26-30.54-17.71Z" transform="translate(-744.73 -420.12)"/><path id="Path_2200" data-name="Path 2200" class="cls-10" d="M795.61,483.15l21.47,12.45.82-4.25L796.43,478.9Z" transform="translate(-744.73 -420.12)"/><path id="Path_2201" data-name="Path 2201" class="cls-2" d="M774.12,449.92l4.61,2.67,1.14-5.88L775.26,444Z" transform="translate(-744.73 -420.12)"/><path id="Path_2202" data-name="Path 2202" class="cls-2" d="M772.3,459.33l4.6,2.67,1.14-5.87-4.6-2.68Z" transform="translate(-744.73 -420.12)"/><path id="Path_2203" data-name="Path 2203" class="cls-2" d="M770.48,468.74l4.6,2.67,1.14-5.87-4.6-2.67Z" transform="translate(-744.73 -420.12)"/><path id="Path_2204" data-name="Path 2204" class="cls-11" d="M757.13,435.89l15.27,8.86.41-2.13-15.27-8.86Z" transform="translate(-744.73 -420.12)"/><path id="Path_2205" data-name="Path 2205" class="cls-11" d="M756.19,440.7l15.28,8.86.41-2.12-15.28-8.86Z" transform="translate(-744.73 -420.12)"/><path id="Path_2206" data-name="Path 2206" class="cls-11" d="M755.26,445.52l15.28,8.85.41-2.12-15.28-8.86Z" transform="translate(-744.73 -420.12)"/><path id="Path_2207" data-name="Path 2207" class="cls-11" d="M754.33,450.33l15.27,8.86.42-2.13-15.28-8.86Z" transform="translate(-744.73 -420.12)"/><path id="Path_2208" data-name="Path 2208" class="cls-11" d="M753.4,455.14,768.67,464l.41-2.12L753.81,453Z" transform="translate(-744.73 -420.12)"/><path id="Path_2209" data-name="Path 2209" class="cls-11" d="M752.47,460l15.27,8.85.41-2.12-15.27-8.85Z" transform="translate(-744.73 -420.12)"/><path id="Path_2210" data-name="Path 2210" class="cls-12" d="M759.38,424.27l28.19,16.36.15-.77-28.2-16.35Z" transform="translate(-744.73 -420.12)"/></g></svg>