<svg id="Layer_1" data-name="Layer 1" xmlns="http://www.w3.org/2000/svg" viewBox="0 0 66.29 106.32"><defs><style>.cls-1{opacity:0.6;}.cls-2{fill:#00edf9;}.cls-3{fill:#a5ffff;}.cls-4{fill:#fdf7fb;}</style></defs><g id="Group_4796" data-name="Group 4796" class="cls-1"><path id="Path_2436" data-name="Path 2436" class="cls-2" d="M984.26,412.8l0-8.57,5.83-3.36,0,8.57-5.83,3.36m22.2-12.81,0-12.9,5.83-3.37,0,12.9-5.83,3.37m-22.22,4.24v-5.3l5.83-3.37v5.3l-5.83,3.37m11.13,2.16,0-15,5.82-3.36,0,15-5.82,3.36m22.17-12.81,0-20.32,5.83-3.37,0,20.33-5.83,3.36m-11.12-6.5,0-8,5.83-3.36,0,8-5.82,3.36m-11.1,4.28,0-9.3,5.82-3.36,0,9.3-5.82,3.36m22.16-18.11,0-12.58,5.83-3.36,0,12.58-5.83,3.36m-37.54,47.57c-.26.15-.46,0-.47-.26l-.11-40.5a1,1,0,0,1,.47-.81c.25-.15.46,0,.46.27l.11,40,51-29.44c.26-.15.47,0,.47.27a1,1,0,0,1-.46.8l-51.47,29.71m10-52.95c-.51.3-.93.06-.93-.53a2,2,0,0,1,.93-1.61l14.88-8.59c.51-.3.93-.06.93.53a2.06,2.06,0,0,1-.92,1.61L990,367.87m18-10.41c-.51.3-.93.06-.93-.53a2.06,2.06,0,0,1,.93-1.61l3.43-2c.51-.3.93-.06.93.53a2,2,0,0,1-.92,1.61l-3.44,2m-28.19,16.46v-2.51l5.58-3.22v2.51l-5.59,3.22m20.1-17.15a.7.7,0,0,1-.67.07.67.67,0,0,1-.27-.6l0-.23,0-.22.09-.24.11-.23a2,2,0,0,1,.66-.68.71.71,0,0,1,.66-.08l.12.1.08.14.06.16v.2a2,2,0,0,1-.26.91,2.1,2.1,0,0,1-.66.7M990,362.51c-.51.3-.93.06-.93-.53a2,2,0,0,1,.92-1.61l7.21-4.16c.51-.3.93-.06.93.53a2,2,0,0,1-.92,1.61L990,362.51m12.83-7.4c-.52.3-.93.06-.94-.53a2.06,2.06,0,0,1,.93-1.61l8.64-5c.51-.3.93-.05.93.54a2,2,0,0,1-.93,1.6l-8.63,5m-23,13.46v-2.52l5.59-3.22v2.52l-5.58,3.22m55.59-42.17-60.51,34.94a6.14,6.14,0,0,0-2.79,4.83l.18,64.18c0,1.77,1.26,2.49,2.81,1.6L1035.59,397a6.15,6.15,0,0,0,2.79-4.82L1038.2,328c0-1.77-1.26-2.49-2.81-1.6" transform="translate(-972.09 -326.01)"/><path id="Path_2437" data-name="Path 2437" class="cls-3" d="M979.83,379.25a1,1,0,0,0-.47.81l.12,40.5c0,.29.21.41.47.26l51.45-29.71a1,1,0,0,0,.47-.8c0-.3-.21-.42-.47-.27l-51,29.45-.11-40c0-.3-.21-.42-.47-.27" transform="translate(-972.09 -326.01)"/><path id="Path_2438" data-name="Path 2438" class="cls-4" d="M990.07,400.86l-5.82,3.36,0,8.57,5.83-3.36,0-8.57" transform="translate(-972.09 -326.01)"/><path id="Path_2439" data-name="Path 2439" class="cls-4" d="M1001.14,388l-5.82,3.36,0,15,5.82-3.36-.05-15" transform="translate(-972.09 -326.01)"/><path id="Path_2440" data-name="Path 2440" class="cls-4" d="M1012.25,383.72l-5.83,3.36,0,12.9,5.83-3.36,0-12.9" transform="translate(-972.09 -326.01)"/><path id="Path_2441" data-name="Path 2441" class="cls-4" d="M1023.32,369.89l-5.83,3.37.06,20.32,5.83-3.36-.06-20.33" transform="translate(-972.09 -326.01)"/><path id="Path_2442" data-name="Path 2442" class="cls-3" d="M990.05,395.56l-5.82,3.36v5.3l5.83-3.36,0-5.3" transform="translate(-972.09 -326.01)"/><path id="Path_2443" data-name="Path 2443" class="cls-3" d="M1001.12,378.7l-5.82,3.36,0,9.31,5.82-3.36,0-9.31" transform="translate(-972.09 -326.01)"/><path id="Path_2444" data-name="Path 2444" class="cls-3" d="M1012.23,375.73l-5.83,3.37,0,8,5.83-3.37,0-8" transform="translate(-972.09 -326.01)"/><path id="Path_2445" data-name="Path 2445" class="cls-3" d="M1023.29,357.31l-5.83,3.36,0,12.59,5.83-3.37,0-12.58" transform="translate(-972.09 -326.01)"/><path id="Path_2446" data-name="Path 2446" class="cls-4" d="M985.38,362.83l-5.59,3.22v2.52l5.58-3.23v-2.51" transform="translate(-972.09 -326.01)"/><path id="Path_2447" data-name="Path 2447" class="cls-4" d="M985.39,368.18l-5.58,3.22v2.52l5.59-3.22v-2.52" transform="translate(-972.09 -326.01)"/><path id="Path_2448" data-name="Path 2448" class="cls-3" d="M997.16,356.21,990,360.37A2.07,2.07,0,0,0,989,362c0,.59.42.83.94.53l7.2-4.16a2,2,0,0,0,.93-1.6c0-.59-.42-.83-.93-.54" transform="translate(-972.09 -326.01)"/><path id="Path_2449" data-name="Path 2449" class="cls-3" d="M999.9,354.65a1.84,1.84,0,0,0-.66.67l-.11.23-.09.24,0,.22,0,.23a.67.67,0,0,0,.27.6.7.7,0,0,0,.67-.07,1.93,1.93,0,0,0,.66-.7,1.88,1.88,0,0,0,.26-.9V355l-.06-.17-.08-.14-.12-.1a.71.71,0,0,0-.66.09" transform="translate(-972.09 -326.01)"/><path id="Path_2450" data-name="Path 2450" class="cls-3" d="M1011.42,348l-8.64,5a2.06,2.06,0,0,0-.93,1.61c0,.59.42.82.94.53l8.63-5a2,2,0,0,0,.93-1.61c0-.59-.42-.82-.93-.53" transform="translate(-972.09 -326.01)"/><path id="Path_2451" data-name="Path 2451" class="cls-3" d="M1004.85,357.14,990,365.73a2.06,2.06,0,0,0-.93,1.61c0,.59.42.82.94.53l14.88-8.59a2.07,2.07,0,0,0,.93-1.61c0-.59-.43-.83-.94-.53" transform="translate(-972.09 -326.01)"/><path id="Path_2452" data-name="Path 2452" class="cls-3" d="M1011.43,353.34l-3.43,2a2.06,2.06,0,0,0-.93,1.61c0,.59.42.83.94.53l3.43-2a2.07,2.07,0,0,0,.93-1.61c0-.59-.42-.83-.94-.53" transform="translate(-972.09 -326.01)"/></g></svg>