<svg id="Layer_1" data-name="Layer 1" xmlns="http://www.w3.org/2000/svg" viewBox="0 0 58.14 111.02"><defs><style>.cls-1{fill:#00edf9;opacity:0.6;isolation:isolate;}.cls-2{fill:#a5ffff;}</style></defs><g id="Group_4780" data-name="Group 4780"><g id="Group_4779" data-name="Group 4779"><g id="Group_4778" data-name="Group 4778"><path id="Path_2393" data-name="Path 2393" class="cls-1" d="M1006.93,411.09c-.5.29-.92.06-.92-.52a2,2,0,0,1,.91-1.57l4.44-2.57c.51-.29.92-.06.92.52a2,2,0,0,1-.91,1.57l-4.44,2.57m-22.39,8.52c-.5.29-.91.06-.91-.52a2,2,0,0,1,.9-1.56l7.41-4.28c.5-.28.9-.05.9.52a2,2,0,0,1-.9,1.56l-7.41,4.28m0-4.39c-.5.29-.91.06-.91-.52a2,2,0,0,1,.91-1.57l17.81-10.28c.49-.29.9-.06.9.52a2,2,0,0,1-.9,1.57l-17.81,10.28m21.35-12.32c-.5.29-.91.06-.91-.52a2,2,0,0,1,.9-1.57l5.48-3.16c.5-.29.91-.06.91.52a2,2,0,0,1-.9,1.57l-5.48,3.16m10,3,0-15.24,10.73-6.2.05,15.24-10.73,6.2m-31.39,4.92c-.5.29-.92.06-.92-.51a2,2,0,0,1,.91-1.57l5.48-3.16c.5-.3.91-.06.91.52a2,2,0,0,1-.91,1.55l-5.47,3.17m9-5.2c-.5.29-.92.06-.92-.51a2,2,0,0,1,.91-1.57l17.81-10.28c.51-.3.91-.07.92.52a2,2,0,0,1-.91,1.55l-17.81,10.29m-9-3.59c-.51.29-.91.06-.91-.51a2,2,0,0,1,.9-1.57l8.5-4.9c.51-.29.91-.06.92.52a2,2,0,0,1-.91,1.55l-8.5,4.91m0-4.38c-.5.29-.92.06-.92-.52a2,2,0,0,1,.91-1.56l33.2-19.17c.51-.29.91-.06.91.51a2,2,0,0,1-.9,1.57l-33.2,19.17m36.72-21.21c-.49.29-.91.06-.91-.52a2,2,0,0,1,.91-1.56l4.44-2.56c.51-.29.91-.06.92.5a2,2,0,0,1-.91,1.57l-4.45,2.57m-36.74,16.82c-.5.29-.91.05-.91-.52a2,2,0,0,1,.91-1.57l26-15c.5-.29.91-.06.92.52a2.05,2.05,0,0,1-.91,1.58l-26,15m30-17.31c-.49.28-.9,0-.9-.53a2,2,0,0,1,.9-1.56l11.19-6.46c.5-.3.91-.07.92.52a2,2,0,0,1-.91,1.56L1014.46,376m-30,12.91c-.51.29-.91.06-.91-.52a2,2,0,0,1,.9-1.56L1025.63,363c.5-.29.91-.06.91.51a2,2,0,0,1-.91,1.57l-41.17,23.77m-.56-6.39-.06-22.6,42.62-24.6.06,22.6L983.9,382.49M1031.51,324l-52.77,30.46a5.7,5.7,0,0,0-2.58,4.46l.21,73.91c0,1.64,1.17,2.3,2.59,1.48l52.77-30.47a5.64,5.64,0,0,0,2.57-4.46l-.21-73.91c0-1.64-1.16-2.3-2.59-1.48" transform="translate(-976.16 -323.66)"/><path id="Path_2394" data-name="Path 2394" class="cls-2" d="M1026.45,335.28l-42.62,24.61.07,22.6,42.62-24.61-.07-22.6" transform="translate(-976.16 -323.66)"/><path id="Path_2395" data-name="Path 2395" class="cls-2" d="M1025.62,363l-41.17,23.77a2,2,0,0,0-.91,1.56c0,.58.41.81.91.52l41.18-23.77a2,2,0,0,0,.9-1.57c0-.57-.4-.8-.91-.51" transform="translate(-976.16 -323.66)"/><path id="Path_2396" data-name="Path 2396" class="cls-2" d="M1010.48,376.15l-26,15a2,2,0,0,0-.91,1.57c0,.57.41.81.92.52l26-15a2,2,0,0,0,.9-1.58c0-.58-.4-.81-.91-.52" transform="translate(-976.16 -323.66)"/><path id="Path_2397" data-name="Path 2397" class="cls-2" d="M1025.64,367.41l-11.2,6.46a2,2,0,0,0-.9,1.56c0,.57.41.82.9.53l11.2-6.46a2,2,0,0,0,.9-1.57c0-.58-.41-.81-.91-.52" transform="translate(-976.16 -323.66)"/><path id="Path_2398" data-name="Path 2398" class="cls-2" d="M1017.68,376.4l-33.2,19.18a2,2,0,0,0-.91,1.55c0,.58.41.81.91.52l33.2-19.17a2,2,0,0,0,.91-1.57c0-.57-.41-.8-.91-.5" transform="translate(-976.16 -323.66)"/><path id="Path_2399" data-name="Path 2399" class="cls-2" d="M1025.65,371.8l-4.45,2.57a2,2,0,0,0-.9,1.56c0,.58.41.8.91.52l4.44-2.57a2,2,0,0,0,.91-1.57c0-.57-.41-.8-.91-.51" transform="translate(-976.16 -323.66)"/><path id="Path_2400" data-name="Path 2400" class="cls-2" d="M993,395.06l-8.5,4.9a2,2,0,0,0-.9,1.57c0,.57.4.8.91.51l8.5-4.91a2,2,0,0,0,.91-1.55c0-.59-.41-.82-.92-.52" transform="translate(-976.16 -323.66)"/><path id="Path_2401" data-name="Path 2401" class="cls-2" d="M1011.34,397.65l-5.48,3.16a2,2,0,0,0-.9,1.57c0,.58.4.81.91.52l5.48-3.16a2,2,0,0,0,.9-1.57c0-.58-.4-.81-.91-.52" transform="translate(-976.16 -323.66)"/><path id="Path_2402" data-name="Path 2402" class="cls-2" d="M1002.34,402.85l-17.82,10.28a2,2,0,0,0-.9,1.57c0,.58.4.81.91.52l17.81-10.28a2,2,0,0,0,.9-1.57c0-.58-.4-.81-.9-.52" transform="translate(-976.16 -323.66)"/><path id="Path_2403" data-name="Path 2403" class="cls-2" d="M1011.36,406.43l-4.44,2.57a2,2,0,0,0-.91,1.57c0,.58.41.81.92.52l4.44-2.57a2,2,0,0,0,.91-1.57c0-.58-.41-.81-.92-.52" transform="translate(-976.16 -323.66)"/><path id="Path_2404" data-name="Path 2404" class="cls-2" d="M992,413.25l-7.41,4.28a2,2,0,0,0-.91,1.56c0,.58.41.81.91.52l7.41-4.28a2,2,0,0,0,.9-1.56c0-.57-.4-.8-.9-.52" transform="translate(-976.16 -323.66)"/><path id="Path_2405" data-name="Path 2405" class="cls-2" d="M990,405.58l-5.48,3.16a2,2,0,0,0-.91,1.58c0,.56.41.8.92.5l5.47-3.16a2,2,0,0,0,.91-1.56c0-.58-.41-.81-.91-.52" transform="translate(-976.16 -323.66)"/><path id="Path_2406" data-name="Path 2406" class="cls-2" d="M1011.32,393.26l-17.81,10.29a2,2,0,0,0-.91,1.57c0,.57.41.8.92.5l17.81-10.28a2,2,0,0,0,.91-1.56c0-.58-.41-.81-.92-.52" transform="translate(-976.16 -323.66)"/><path id="Path_2407" data-name="Path 2407" class="cls-2" d="M1026.59,384.47l-10.73,6.2,0,15.24,10.73-6.2-.05-15.24" transform="translate(-976.16 -323.66)"/></g></g></g></svg>