<svg id="Layer_1" data-name="Layer 1" xmlns="http://www.w3.org/2000/svg" viewBox="0 0 65.13 82.96"><defs><style>.cls-1{fill:#00edf9;opacity:0.6;isolation:isolate;}.cls-2{fill:#a5ffff;}</style></defs><g id="Group_4726" data-name="Group 4726"><g id="Group_4725" data-name="Group 4725"><g id="Group_4724" data-name="Group 4724"><path id="Path_2304" data-name="Path 2304" class="cls-1" d="M1018.77,363.22l5.64-6.43a3.88,3.88,0,0,1,0-.48,7.17,7.17,0,0,1,3.26-5.65c1.8-1,3.28-.2,3.28,1.87a7.19,7.19,0,0,1-3.26,5.65,2.32,2.32,0,0,1-2.34.21l-5.63,6.43a3.87,3.87,0,0,1,0,.48,7.19,7.19,0,0,1-3.26,5.64,3,3,0,0,1-1,.4l-7.48,15.93a2.58,2.58,0,0,1,.6,1.81,7.19,7.19,0,0,1-3.26,5.64c-1.8,1-3.28.2-3.28-1.87a5.73,5.73,0,0,1,.37-2l-6.94-4.24a6.19,6.19,0,0,1-1.41,1.19,3.11,3.11,0,0,1-1.42.44l-6.89,12.23a2.81,2.81,0,0,1,.38,1.53,7.17,7.17,0,0,1-3.26,5.64c-1.8,1.05-3.27.2-3.28-1.87a7.19,7.19,0,0,1,3.26-5.64,2.89,2.89,0,0,1,1.42-.44l6.89-12.23a2.85,2.85,0,0,1-.38-1.53,7.19,7.19,0,0,1,3.26-5.65c1.8-1,3.27-.2,3.28,1.87a5.79,5.79,0,0,1-.38,2l6.94,4.24a5.84,5.84,0,0,1,1.42-1.2,3.5,3.5,0,0,1,1-.4l7.48-15.92a2.53,2.53,0,0,1-.6-1.81,7.17,7.17,0,0,1,3.26-5.64,2.29,2.29,0,0,1,2.34-.22m17.37-25.32-62,35.78a3.35,3.35,0,0,0-1.52,2.63l.12,43.27c0,1,.69,1.36,1.53.87l62-35.77a3.37,3.37,0,0,0,1.52-2.63l-.12-43.27c0-1-.69-1.36-1.54-.87" transform="translate(-972.67 -337.69)"/><path id="Path_2305" data-name="Path 2305" class="cls-2" d="M1027.63,350.66a7.19,7.19,0,0,0-3.26,5.65,3.88,3.88,0,0,0,0,.48l-5.64,6.43a2.29,2.29,0,0,0-2.34.21,7.17,7.17,0,0,0-3.26,5.64,2.57,2.57,0,0,0,.6,1.82l-7.48,15.92a3.24,3.24,0,0,0-1,.4,5.54,5.54,0,0,0-1.41,1.19l-7-4.25a5.74,5.74,0,0,0,.38-2c0-2.08-1.48-2.92-3.28-1.87a7.17,7.17,0,0,0-3.26,5.64,2.81,2.81,0,0,0,.38,1.53l-6.89,12.23a3.11,3.11,0,0,0-1.42.44,7.26,7.26,0,0,0-3.26,5.65c0,2.07,1.48,2.91,3.29,1.87a7.19,7.19,0,0,0,3.25-5.65,2.85,2.85,0,0,0-.38-1.53l6.89-12.22a3.07,3.07,0,0,0,1.41-.44,5.75,5.75,0,0,0,1.41-1.19l7,4.24a5.75,5.75,0,0,0-.38,2c0,2.07,1.48,2.91,3.28,1.87a7.2,7.2,0,0,0,3.26-5.65,2.53,2.53,0,0,0-.6-1.81l7.48-15.92a3.4,3.4,0,0,0,1-.4,7.2,7.2,0,0,0,3.26-5.65,3.87,3.87,0,0,0,0-.48l5.64-6.43a2.29,2.29,0,0,0,2.34-.21,7.22,7.22,0,0,0,3.26-5.65c0-2.07-1.48-2.91-3.28-1.87" transform="translate(-972.67 -337.69)"/></g></g></g></svg>