<svg id="Layer_1" data-name="Layer 1" xmlns="http://www.w3.org/2000/svg" viewBox="0 0 38.88 41.8"><defs><style>.cls-1{fill:#00edf9;opacity:0.6;isolation:isolate;}.cls-2{fill:#a5ffff;}</style></defs><g id="Group_4729" data-name="Group 4729"><g id="Group_4728" data-name="Group 4728"><g id="Group_4727" data-name="Group 4727"><path id="Path_2306" data-name="Path 2306" class="cls-1" d="M996.84,390.44c-.27.16-.49,0-.49-.28a1.08,1.08,0,0,1,.49-.84l2.06-1.19c.27-.16.49,0,.49.28a1.08,1.08,0,0,1-.49.84l-2.06,1.19m4.14-2.38c-.27.15-.49,0-.49-.28a1,1,0,0,1,.48-.85l2.07-1.19c.27-.16.49,0,.49.28a1.06,1.06,0,0,1-.49.84l-2.06,1.2m-4.15-1.55c-.27.16-.49,0-.49-.28a1.08,1.08,0,0,1,.49-.84l17.91-10.34c.27-.16.49,0,.49.28a1.08,1.08,0,0,1-.49.84l-17.91,10.34m0-3.93c-.27.16-.49,0-.49-.28a1.08,1.08,0,0,1,.48-.84l10.06-5.81c.27-.16.49,0,.49.28a1.1,1.1,0,0,1-.49.85l-10,5.8m12.15-7c-.27.15-.49,0-.49-.28a1.07,1.07,0,0,1,.48-.85l1.26-.72c.27-.16.49,0,.49.28a1.08,1.08,0,0,1-.49.84l-1.25.73m3.45-2c-.27.16-.49,0-.49-.27a1,1,0,0,1,.48-.85l8.2-4.74c.27-.15.49,0,.49.28a1.1,1.1,0,0,1-.48.85l-8.2,4.73m-15.61,5.08c-.27.16-.49,0-.49-.28a1.05,1.05,0,0,1,.48-.84l17.09-9.87c.27-.15.49,0,.49.28a1.08,1.08,0,0,1-.49.85l-17.08,9.86m19.22-11.1c-.27.16-.49,0-.49-.28a1,1,0,0,1,.48-.84l4.59-2.65c.27-.16.49,0,.49.28a1.06,1.06,0,0,1-.49.84l-4.58,2.65M990.48,383.8c-.79.46-1.44.09-1.44-.82a3.13,3.13,0,0,1,1.43-2.47c.79-.46,1.43-.09,1.44.82a3.18,3.18,0,0,1-1.43,2.47m33-25.37-36.6,21.13a2.42,2.42,0,0,0-1.11,1.92l.05,17.8c0,.7.5,1,1.11.64l36.6-21.13a2.44,2.44,0,0,0,1.11-1.92l-.05-17.81c0-.71-.5-1-1.11-.64" transform="translate(-985.8 -358.27)"/><path id="Path_2307" data-name="Path 2307" class="cls-2" d="M1013.89,367.66l-17.09,9.87a1.07,1.07,0,0,0-.48.84c0,.31.22.44.49.28l17.08-9.86a1.08,1.08,0,0,0,.49-.84c0-.32-.22-.44-.49-.28" transform="translate(-985.8 -358.27)"/><path id="Path_2308" data-name="Path 2308" class="cls-2" d="M1006.87,375.65l-10,5.81a1.06,1.06,0,0,0-.49.84c0,.31.22.44.49.28l10-5.81a1,1,0,0,0,.49-.84c0-.31-.22-.44-.49-.28" transform="translate(-985.8 -358.27)"/><path id="Path_2309" data-name="Path 2309" class="cls-2" d="M1014.74,375.05l-17.91,10.34a1.08,1.08,0,0,0-.49.84c0,.31.22.44.49.28l17.91-10.34a1.06,1.06,0,0,0,.49-.84c0-.32-.22-.44-.49-.28" transform="translate(-985.8 -358.27)"/><path id="Path_2310" data-name="Path 2310" class="cls-2" d="M998.9,388.13l-2.06,1.19a1.08,1.08,0,0,0-.49.84c0,.31.22.44.49.28l2.06-1.19a1.08,1.08,0,0,0,.49-.84c0-.31-.22-.44-.49-.28" transform="translate(-985.8 -358.27)"/><path id="Path_2311" data-name="Path 2311" class="cls-2" d="M1010.22,373.72l-1.26.72a1.1,1.1,0,0,0-.48.85c0,.31.22.43.49.28l1.25-.73a1.08,1.08,0,0,0,.49-.84c0-.31-.22-.44-.49-.28" transform="translate(-985.8 -358.27)"/><path id="Path_2312" data-name="Path 2312" class="cls-2" d="M1020.62,367.71l-8.2,4.74a1.08,1.08,0,0,0-.49.85c0,.31.22.43.49.27l8.2-4.73a1.08,1.08,0,0,0,.49-.85c0-.31-.22-.43-.49-.28" transform="translate(-985.8 -358.27)"/><path id="Path_2313" data-name="Path 2313" class="cls-2" d="M1020.61,363.78l-4.59,2.65a1,1,0,0,0-.48.85c0,.31.22.43.49.28l4.58-2.65a1.08,1.08,0,0,0,.49-.85c0-.31-.22-.43-.49-.28" transform="translate(-985.8 -358.27)"/><path id="Path_2314" data-name="Path 2314" class="cls-2" d="M990.47,380.5A3.13,3.13,0,0,0,989,383c0,.9.65,1.27,1.44.82a3.18,3.18,0,0,0,1.43-2.47c0-.92-.65-1.28-1.44-.83" transform="translate(-985.8 -358.27)"/><path id="Path_2315" data-name="Path 2315" class="cls-2" d="M1003,385.74l-2.07,1.19a1,1,0,0,0-.48.85c0,.31.22.43.49.28l2.06-1.2a1.06,1.06,0,0,0,.49-.84c0-.31-.22-.44-.49-.28" transform="translate(-985.8 -358.27)"/></g></g></g></svg>