<svg id="Layer_1" data-name="Layer 1" xmlns="http://www.w3.org/2000/svg" viewBox="0 0 79.13 55.22"><defs><style>.cls-1{fill:#102465;}.cls-2{fill:#00edf9;}.cls-3{fill:#1a6cbe;}.cls-4{fill:#fdf7fb;}</style></defs><g id="Group_4745" data-name="Group 4745"><path id="Path_2339" data-name="Path 2339" class="cls-1" d="M990.89,382.41l-.67.4-1.56.9-.73.42-1.81,1-.46.25c-.77.4-1.55.79-2.34,1.18l-.61.3-1.81.85-.81.37c-.59.26-1.19.53-1.8.78l-.72.31-2.54,1-.28.1-2.32.86-.83.29-1.89.63-.84.28c-1,.31-2,.61-3,.9l-.31.09c-.92.26-1.84.51-2.77.74l-.82.21-3,.69-.17,0c-1,.22-2.1.43-3.15.62l-.78.14c-1.21.22-2.42.42-3.65.59l-.28,0c-1.18.17-2.36.3-3.54.43l-.72.07c-1,.1-2,.18-3,.25h-.09c-1,.07-1.94.12-2.92.15l-1.06,0c-.57,0-1.14,0-1.72,0h-2.84l-1.18,0-1.48-.06-1.24-.06-1.49-.1-1.23-.1c-.5,0-1-.09-1.49-.15l-1.23-.12-1.53-.2-1.2-.16c-.6-.08-1.2-.18-1.8-.28l-1-.16-2.3-.44-.54-.1a21.37,21.37,0,0,1-3.48-11.48l0,9.42a21.32,21.32,0,0,0,3.49,11.48h.07l.46.09,2.3.44,1,.16c.6.1,1.2.2,1.8.28l.26,0,.94.11,1.52.2,1.23.13,1.49.14.4,0,.83.06,1.5.1,1.23.06,1.49.06.53,0h.65l1.7,0h1.13l1.73,0,.74,0h.31q1.49-.06,2.94-.15h.07c1-.07,2-.16,3-.25l.29,0,.42-.05c1.18-.12,2.37-.26,3.54-.42l.28,0c1.23-.17,2.44-.37,3.65-.58l.4-.06.38-.08c1.06-.2,2.11-.4,3.15-.62l.17,0c1-.22,2-.45,3-.69l.82-.21,2.76-.74.32-.09c1-.29,2-.59,3-.91l.33-.1.51-.17,1.89-.64.83-.29c.78-.28,1.55-.56,2.32-.86l.28-.1,2.54-1,.72-.31c.61-.25,1.21-.52,1.8-.78l.81-.37,1.81-.85.61-.3c.79-.38,1.57-.78,2.34-1.18l.47-.25,1.81-1,.73-.41,1.55-.91.44-.26.23-.14c.73-.44,1.44-.89,2.14-1.34l0-9.42C992.33,381.52,991.61,382,990.89,382.41Z" transform="translate(-913.9 -351.56)"/><g id="Group_4742" data-name="Group 4742"><path id="Path_2340" data-name="Path 2340" class="cls-2" d="M993,381.07c-18.85,12.22-47.19,20.23-75.6,14.33-10.29-16.44,3.45-32.88,24.5-43.84l32.4,10.78Z" transform="translate(-913.9 -351.56)"/></g><g id="Group_4743" data-name="Group 4743"><path id="Path_2341" data-name="Path 2341" class="cls-3" d="M987.32,380.69a98.27,98.27,0,0,1-30.13,11.83,92.14,92.14,0,0,1-36.13.77c-3.72-6.77-3.32-13.8,1.2-20.93,4-6.26,11-12.28,20.32-17.49l28.36,9.43Z" transform="translate(-913.9 -351.56)"/></g><g id="Group_4744" data-name="Group 4744"><path id="Path_2342" data-name="Path 2342" class="cls-4" d="M964.66,377.53l0,4H936.43l-.06-10.75h6.93l0,6.74Z" transform="translate(-913.9 -351.56)"/></g></g></svg>