<svg id="Layer_1" data-name="Layer 1" xmlns="http://www.w3.org/2000/svg" viewBox="0 0 36.5 47.53"><defs><style>.cls-1{fill:#a5ffff;opacity:0.56;isolation:isolate;}.cls-2{fill:#b4ffff;}</style></defs><path id="Path_2329" data-name="Path 2329" class="cls-1" d="M870,457a7.19,7.19,0,0,1-3.25-5.63c0-2.08,1.48-2.91,3.27-1.87a7.15,7.15,0,0,1,3.26,5.64c0,2.06-1.47,2.9-3.28,1.86M892.72,455l-36.43-21-.07,26.5,36.42,21-36.42-21v-4.07L863,452.5l6.84,11.85,13.83-7.87,9,15.61.05-17.14" transform="translate(-856.22 -433.92)"/><path id="Path_2330" data-name="Path 2330" class="cls-2" d="M883.66,456.48l-13.82,7.87L863,452.5l-6.76,3.84v4.07l36.42,21,0-9.35-9-15.61" transform="translate(-856.22 -433.92)"/><path id="Path_2331" data-name="Path 2331" class="cls-2" d="M870,449.51c-1.8-1-3.26-.2-3.27,1.88A7.19,7.19,0,0,0,870,457c1.8,1.05,3.28.21,3.28-1.86a7.17,7.17,0,0,0-3.26-5.64" transform="translate(-856.22 -433.92)"/></svg>