<svg id="Layer_1" data-name="Layer 1" xmlns="http://www.w3.org/2000/svg" viewBox="0 0 41.86 29.21"><defs><style>.cls-1{fill:#102465;}.cls-2{fill:#00edf9;}.cls-3{fill:#1a6cbe;}.cls-4{fill:#fdf7fb;}</style></defs><g id="Group_4755" data-name="Group 4755"><path id="Path_2353" data-name="Path 2353" class="cls-1" d="M1026.82,380.88l-.36.22-.82.48-.39.22-1,.52-.24.13-1.24.63-.32.15-1,.46-.43.19-1,.41-.38.17-1.34.54-.15.05-1.23.46-.44.15-1,.34-.44.14c-.52.17-1,.33-1.58.48l-.17.05-1.46.39-.43.11-1.58.37h-.08l-1.67.34-.41.07c-.64.11-1.29.22-1.93.31l-.16,0c-.61.08-1.24.16-1.87.22l-.38,0c-.52.05-1.05.1-1.58.13h0c-.51,0-1,.06-1.54.08l-.56,0-.91,0h-1.5l-.63,0-.78,0-.65,0-.79,0-.66-.05-.78-.08-.65-.07-.81-.1-.63-.08-1-.15-.52-.09-1.22-.23-.28-.05a11.33,11.33,0,0,1-1.85-6.07v5a11.25,11.25,0,0,0,1.85,6.07h0l.25.05,1.21.23.53.09.95.15.14,0,.5.06.8.1.65.07.78.08.22,0,.44,0,.79.05.65,0,.79,0h3.59c.52,0,1,0,1.56-.08h0c.53,0,1.06-.08,1.59-.13h.15l.22,0,1.88-.22.15,0c.65-.09,1.29-.2,1.93-.31l.21,0,.2,0c.56-.1,1.12-.21,1.67-.33l.09,0c.52-.11,1-.23,1.57-.36l.43-.11,1.47-.4.16,0c.53-.15,1.06-.32,1.58-.48l.17-.05.27-.09,1-.34.44-.15,1.23-.46.15-.06c.45-.17.9-.35,1.34-.54l.38-.16,1-.41.43-.2,1-.45.32-.16c.42-.2.83-.41,1.24-.62l.25-.14,1-.52.38-.22c.28-.15.55-.31.82-.48l.24-.13.12-.08,1.13-.71v-5C1027.58,380.41,1027.2,380.65,1026.82,380.88Z" transform="translate(-986.09 -364.57)"/><g id="Group_4752" data-name="Group 4752"><path id="Path_2354" data-name="Path 2354" class="cls-2" d="M1028,380.18a55.08,55.08,0,0,1-40,7.58c-5.44-8.7,1.82-17.4,12.95-23.19l17.14,5.7Z" transform="translate(-986.09 -364.57)"/></g><g id="Group_4753" data-name="Group 4753"><path id="Path_2355" data-name="Path 2355" class="cls-3" d="M1024.93,380a52.32,52.32,0,0,1-15.94,6.26,48.79,48.79,0,0,1-19.11.4c-2-3.58-1.76-7.3.63-11.07,2.1-3.31,5.8-6.5,10.75-9.25l15,5Z" transform="translate(-986.09 -364.57)"/></g><g id="Group_4754" data-name="Group 4754"><path id="Path_2356" data-name="Path 2356" class="cls-4" d="M1012.94,378.3v2.13H998l0-5.69h3.66l0,3.56Z" transform="translate(-986.09 -364.57)"/></g></g></svg>