<svg id="Layer_1" data-name="Layer 1" xmlns="http://www.w3.org/2000/svg" viewBox="0 0 64.04 75.03"><defs><style>.cls-1{fill:#a5ffff;opacity:0.56;isolation:isolate;}.cls-2{fill:#b4ffff;}</style></defs><path id="Path_2325" data-name="Path 2325" class="cls-1" d="M846.5,452.75s4.2-16.07,10.2-12.6,7.2,17.14,11.93,19.87,5-5.37,7.9-3.69,2.93,10.56,6,12.33,5.21-5.5,10.17-2.65c6.13,3.54,9.68,19,9.68,19L846.5,452.75m60,4.33-63.93-36.91-.11,38.11,63.93,36.91.11-38.11" transform="translate(-842.45 -420.17)"/><path id="Path_2326" data-name="Path 2326" class="cls-2" d="M856.71,440.15c-6-3.47-10.2,12.6-10.2,12.6L902.38,485s-3.55-15.46-9.68-19c-5-2.87-7.13,4.4-10.17,2.64s-3.07-10.64-6-12.32-3.18,6.41-7.9,3.68-5.91-16.4-11.92-19.87" transform="translate(-842.45 -420.17)"/></svg>