<svg xmlns="http://www.w3.org/2000/svg" xmlns:xlink="http://www.w3.org/1999/xlink" width="145.659" height="107.527" viewBox="0 0 145.659 107.527">
  <defs>
    <linearGradient id="linear-gradient" x1="0.5" x2="0.5" y2="1" gradientUnits="objectBoundingBox">
      <stop offset="0" stop-color="#007ee6"/>
      <stop offset="1" stop-color="#06d3fe"/>
    </linearGradient>
    <clipPath id="clip-path">
      <rect id="Rectangle_1687" data-name="Rectangle 1687" width="123.062" height="85.459" fill="none"/>
    </clipPath>
    <linearGradient id="linear-gradient-2" x1="0.5" x2="0.5" y2="1" gradientUnits="objectBoundingBox">
      <stop offset="0" stop-color="#dffeff"/>
      <stop offset="1" stop-color="#01b0f9"/>
    </linearGradient>
    <clipPath id="clip-path-2">
      <rect id="Rectangle_1688" data-name="Rectangle 1688" width="126.601" height="75.342" fill="none"/>
    </clipPath>
  </defs>
  <g id="Group_9969" data-name="Group 9969" transform="translate(-4170.036 -4905.212)">
    <path id="Path_8150" data-name="Path 8150" d="M20.685,79.232C18.84,49.029,56.7-10.406,121.528,12.286c37.092,12.98,45.756,33.9,6.354,62.707,0,0,.418,16.1-30.509,13.559,0,0-19.909-.848-33.358,9.323-14.239,10.76-42.5-5.011-43.329-18.642" transform="translate(4149.416 4897.974)" fill="url(#linear-gradient)"/>
    <path id="Path_8151" data-name="Path 8151" d="M108.559,24.03c-.1-.1-10.32-10.447-24.243-11.055a132.272,132.272,0,0,0-14.967.586c-11.51.866-25.465,1.332-36.9-3.472l3.035-1.376c10.87,4.567,22.452,3.155,33.671,2.314a133.349,133.349,0,0,1,15.265-.59c14.96.648,25.516,11.368,25.957,11.823Z" transform="translate(4180.645 4901.866)" fill="#007ee1"/>
    <path id="Path_8152" data-name="Path 8152" d="M55,15.707l-2.18-.357a5.185,5.185,0,0,0-.135-1.386c-.517-.877-4.8-3.97-15.924-5.742l4.1-.815c9.549,1.517,12.958,2.817,14.221,5.662A2.82,2.82,0,0,1,55,15.707" transform="translate(4192.011 4898.417)" fill="#007ee1"/>
    <path id="Path_8153" data-name="Path 8153" d="M34.392,29l-2.518-1.819c3.956-5.8,14.774-14.057,21.084-16.8,1.3-.564.462-.171,1.8-.786l3.22,1.339c-1.35.622-2.693,1.208-4.007,1.776C47.747,15.414,37.937,23.8,34.392,29" transform="translate(4179.114 4904.183)" fill="#007ee1"/>
    <path id="Path_8154" data-name="Path 8154" d="M22.545,32.13l1.394-2.7a58.65,58.65,0,0,0,10.218-2.958c2.729-1,4.381-3.013,6.124-5.153,2.078-2.544,4.436-5.433,8.894-6.637a11.512,11.512,0,0,1,12.853,4.691L59.859,20.71a8.968,8.968,0,0,0-10.014-3.573c-3.672.99-5.575,3.326-7.595,5.8-1.885,2.307-3.835,4.694-7.22,5.928A70.469,70.469,0,0,1,22.545,32.13" transform="translate(4154.496 4916.409)" fill="#007ee1"/>
    <path id="Path_8155" data-name="Path 8155" d="M27.3,34.3C20.829,21.825,39.209,11.789,40,11.367l1.2,2.242c-.164.095-16.965,9.265-11.641,19.523Z" transform="translate(4163.406 4908.868)" fill="#007ee1"/>
    <path id="Path_8156" data-name="Path 8156" d="M29.45,66.267c-.528-.477-11.681-9.8-6.7-19.858a35.521,35.521,0,0,1,7.835-9.971c2.7-2.616,4.654-4.512,4.581-7.158C35.058,25.049,39,21,42.943,19.179c3.825-1.765,7.438-1.5,9.913.731L51.149,21.8c-2.38-2.151-5.786-.932-7.143-.309-3.6,1.659-6.365,5.055-6.292,7.726.1,3.766-2.427,6.215-5.357,9.054a32.84,32.84,0,0,0-7.325,9.276c-4.134,8.33,8.621,20.942,8.737,21.051Z" transform="translate(4151.666 4926.43)" fill="#007ee1"/>
    <path id="Path_8157" data-name="Path 8157" d="M21.127,27.561l1.063-3.577C28.5,18.766,36.9,22.2,37.368,22.383l-.917,2.373c-.095-.036-10.866-3.584-15.324,2.806" transform="translate(4150.753 4934.568)" fill="#007ee1"/>
    <path id="Path_8158" data-name="Path 8158" d="M33.41,45.163C22.657,35.174,22.97,24.861,23,24.774l2.656-.535-.284,1.445c-.1.277,3.224,11.055,9.279,16.408Z" transform="translate(4155.683 4942.836)" fill="#007ee1"/>
    <g id="Group_8363" data-name="Group 8363" transform="translate(4179.996 4913.95)" opacity="0.1">
      <g id="Group_8362" data-name="Group 8362">
        <g id="Group_8361" data-name="Group 8361" clip-path="url(#clip-path)">
          <path id="Path_8159" data-name="Path 8159" d="M56.791,91.538c13.446-10.171,33.358-9.327,33.358-9.327,30.928,2.547,30.509-13.555,30.509-13.555,25.207-18.435,30.713-33.62,21.725-45.578a89.506,89.506,0,0,0-18.122-8.391C59.44-8,21.577,51.429,23.422,81.629a15.232,15.232,0,0,0,3.2,7.86c9.527,5.72,22.1,8.148,30.167,2.049" transform="translate(-23.357 -9.639)"/>
        </g>
      </g>
    </g>
    <path id="Path_8160" data-name="Path 8160" d="M25.936,82.238C24.091,52.039,54.319-4.62,126.775,15.3c15.193,4.174,45.756,33.9,6.354,62.707,0,0,.418,16.1-30.505,13.559,0,0-19.909-.852-33.362,9.323-14.243,10.764-42.492-5.011-43.325-18.646" transform="translate(4163.233 4908.29)" fill="url(#linear-gradient-2)"/>
    <path id="Path_8161" data-name="Path 8161" d="M132.936,72.16l-2.245,1.7c.04-.073,2.638-7.565.178-11.481-1.292-2.056-4.178-3.009-8.548-2.86l-1.852.073c-10.306.393-17.1.659-20.466-3.337-2.216-2.631-2.595-6.7-1.215-13.2,2.5-11.812,1.907-19.927-1.761-24.112-2.46-2.809-6.488-4.014-11.965-3.6-11.143.844-15.244,8.224-16.867,30.378-.338,4.574-4.436,9.48-10.429,12.5C53.079,60.573,42.912,66.428,26.78,56.2l.855-2.434c15.04,9.534,24.683,4.338,28.984,2.176,5.935-2.984,8.81-7.376,9.036-10.411C67.162,25.141,70.662,13.882,84.869,12.8c6.31-.469,11.055,1.026,14.068,4.465,4.283,4.891,5.047,13.5,2.336,26.313-1.183,5.586-.968,9.094.67,11.041,2.565,3.042,9.221,2.791,18.428,2.434l1.856-.069c5.331-.189,8.985,1.164,10.8,4.05,3.235,5.156.087,10.79-.091,11.124" transform="translate(4165.671 4912.43)" fill="#53d5ea"/>
    <path id="Path_8162" data-name="Path 8162" d="M46.539,41.67l-2.525-.24C45.7,23.806,68.69,24.949,68.915,24.971l-.153,2.54C67.929,27.467,48,26.485,46.539,41.67" transform="translate(4211.151 4944.71)" fill="#53d5ea"/>
    <path id="Path_8163" data-name="Path 8163" d="M49.318,34.922l-2.489-.5c.04-.211,4.523-21.368,24.767-20.411l-.12,2.536c-18.144-.91-22,17.587-22.158,18.373" transform="translate(4218.58 4915.767)" fill="#53d5ea"/>
    <path id="Path_8164" data-name="Path 8164" d="M64.762,27.448c-2.878-9.785-14.625-9.978-14.745-9.978l.022-2.544c.135,0,13.759.226,17.161,11.8Z" transform="translate(4226.993 4918.259)" fill="#53d5ea"/>
    <path id="Path_8165" data-name="Path 8165" d="M33.9,56.924l-.928-2.365c24.618-9.607,16.907-31.586,16.568-32.514l2.384-.877c.095.251,8.879,25.254-18.024,35.756" transform="translate(4182.004 4934.732)" fill="#53d5ea"/>
    <path id="Path_8166" data-name="Path 8166" d="M38.248,47.95l-1.721-1.874C43.678,39.5,38.194,28.51,38.139,28.4L40.4,27.244c.266.52,6.4,12.835-2.154,20.706" transform="translate(4191.394 4950.766)" fill="#53d5ea"/>
    <path id="Path_8167" data-name="Path 8167" d="M40,25.657l-2.063-1.47c.08-.12,8.6-11.888,19.8-7.434L56.8,19.111C47.439,15.4,40.081,25.555,40,25.657" transform="translate(4195.125 4920.425)" fill="#53d5ea"/>
    <path id="Path_8168" data-name="Path 8168" d="M56.256,62.327C44.7,61.275,44.28,52.341,41.769,44.216c-.9-2.911-1.47-5.833-2.875-7.766-4.494-6.186-8.5-6.572-12.875-6.787l.429-2.522c.59-.033,9.913-.844,14.683,8.108A48.572,48.572,0,0,1,44.2,43.462c2.525,8.169,7.26,17.6,17.132,18.5Z" transform="translate(4163.666 4950.41)" fill="#53d5ea"/>
    <path id="Path_8169" data-name="Path 8169" d="M48.486,35.541l-2.529-.222C46.8,25.6,30.687,23.485,30.52,23.466l.313-2.525c.768.1,18.719,2.456,17.653,14.6" transform="translate(4175.541 4934.133)" fill="#53d5ea"/>
    <path id="Path_8170" data-name="Path 8170" d="M37.548,37.2l-2.165-1.336c4.632-7.525-2.744-17.249-2.817-17.347l2.009-1.55c.353.451,8.519,11.223,2.973,20.233" transform="translate(4180.94 4923.648)" fill="#53d5ea"/>
    <path id="Path_8171" data-name="Path 8171" d="M56.151,44.815l-2.3-1.1c2.351-4.934,3.715-5.884,8.228-9.025.9-.622,1.929-1.339,3.13-2.205C71.493,28,67.155,19.357,67.119,19.27l2.253-1.161c1.892,3.675,3.755,11.838-2.675,16.448-1.215.866-2.256,1.594-3.166,2.223-4.4,3.064-5.324,3.7-7.38,8.035" transform="translate(4237.121 4926.659)" fill="#53d5ea"/>
    <path id="Path_8172" data-name="Path 8172" d="M63.837,29.023A13.435,13.435,0,0,1,56.981,26.8L58.433,24.7c.033.025,3.5,2.38,6.721,1.638,1.6-.368,4.141-3.486,5.167-5.287l-.233,3.985c-1.4,2.449-2.056,3.257-4.385,3.785a8.643,8.643,0,0,1-1.867.2" transform="translate(4245.371 4934.431)" fill="#53d5ea"/>
    <path id="Path_8173" data-name="Path 8173" d="M45.585,50.772c-.28,0-.462-.193-.713-.459-.877-.924.051-1.823.448-2.209l.044.047c.553-.488,2.038-1.819,6.019-5.477,2-1.838,2.937-3.8,2.769-5.811-.36-4.538-5.862-8.22-5.913-8.253l1.4-2.125c.273.178,6.59,4.418,7.052,10.175.226,2.835-.979,5.491-3.588,7.886-3.17,2.918-4.96,4.567-6.055,5.426-.073.073-.2.2-.262.266l-.047-.033a2.257,2.257,0,0,1-1.15.568" transform="translate(4212.452 4948.766)" fill="#53d5ea"/>
    <path id="Path_8174" data-name="Path 8174" d="M59.111,35.611a7.89,7.89,0,0,0-4.9-3.872,8.044,8.044,0,0,0-5.528,1.048l-1.394-2.129a10.625,10.625,0,0,1,7.456-1.4,10.357,10.357,0,0,1,6.517,5Z" transform="translate(4219.802 4955.54)" fill="#53d5ea"/>
    <path id="Path_8175" data-name="Path 8175" d="M60.3,29.061c-.058-.069-6.055-6.39-11.808-6.39h-.066A7.047,7.047,0,0,0,43.1,25.2L41.222,23.49a9.527,9.527,0,0,1,7.2-3.359c6.794.015,13.468,6.889,13.744,7.187Z" transform="translate(4203.783 4931.995)" fill="#53d5ea"/>
    <path id="Path_8176" data-name="Path 8176" d="M54.849,34.6c-6.972-6.645-.509-18.188-.226-18.675l2.209,1.259c-.066.1-5.76,10.3-.229,15.578Z" transform="translate(4231.236 4920.885)" fill="#53d5ea"/>
    <path id="Path_8177" data-name="Path 8177" d="M33.422,38.412l-1.79-1.8a11.559,11.559,0,0,1,13.26-1.576L43.753,37.3a8.952,8.952,0,0,0-10.331,1.114" transform="translate(4178.476 4967.655)" fill="#53d5ea"/>
    <path id="Path_8178" data-name="Path 8178" d="M47.311,35.288c-2.256-4.247-9.137-3.563-9.207-3.552l-.28-2.525c.349-.04,8.668-.892,11.728,4.887Z" transform="translate(4194.816 4955.782)" fill="#53d5ea"/>
    <g id="Group_8366" data-name="Group 8366" transform="translate(4189.09 4937.396)" opacity="0.5">
      <g id="Group_8365" data-name="Group 8365">
        <g id="Group_8364" data-name="Group 8364" clip-path="url(#clip-path-2)">
          <path id="Path_8179" data-name="Path 8179" d="M25.934,69.215c.833,13.635,29.083,29.41,43.325,18.646,13.453-10.175,33.362-9.323,33.362-9.323,30.924,2.544,30.505-13.559,30.505-13.559,24.81-18.14,21.874-36.633,12.511-48.9,6.277,19.683-14.374,36.659-20.8,43.711-7.052,7.722-15.633,6.048-26.448,4.811s-9.534,4.662-35.378,12.8c-21.426,6.747-33.515-8.748-37.03-14.257a47.143,47.143,0,0,0-.044,6.07" transform="translate(-25.856 -16.084)" fill="#d4fcf4"/>
        </g>
      </g>
    </g>
  </g>
</svg>
