<svg xmlns="http://www.w3.org/2000/svg" xmlns:xlink="http://www.w3.org/1999/xlink" width="126.006" height="87.59" viewBox="0 0 126.006 87.59">
  <defs>
    <linearGradient id="linear-gradient" x1="0.5" x2="1.084" y2="-0.262" gradientUnits="objectBoundingBox">
      <stop offset="0" stop-color="#72e3f5"/>
      <stop offset="1" stop-color="#dcfaff"/>
    </linearGradient>
    <linearGradient id="linear-gradient-2" x1="0.5" x2="0.5" y2="1" gradientUnits="objectBoundingBox">
      <stop offset="0" stop-color="#72e3f5"/>
      <stop offset="1" stop-color="#cdf6fc"/>
    </linearGradient>
    <linearGradient id="linear-gradient-3" x1="0.5" x2="0.5" y2="1" gradientUnits="objectBoundingBox">
      <stop offset="0" stop-color="#c1f3fe"/>
      <stop offset="1" stop-color="#72e3f5"/>
    </linearGradient>
    <linearGradient id="linear-gradient-4" x1="0.5" x2="0.5" y2="1" gradientUnits="objectBoundingBox">
      <stop offset="0" stop-color="#adeffb"/>
      <stop offset="1" stop-color="#c9f8ff"/>
    </linearGradient>
    <linearGradient id="linear-gradient-5" x1="0.396" y1="0.5" x2="0.5" y2="1" gradientUnits="objectBoundingBox">
      <stop offset="0" stop-color="#72e3f5"/>
      <stop offset="1" stop-color="#addde5"/>
    </linearGradient>
    <linearGradient id="linear-gradient-6" x1="1.334" y1="0.458" x2="0.5" y2="1" gradientUnits="objectBoundingBox">
      <stop offset="0" stop-color="#72e3f5"/>
      <stop offset="1" stop-color="#f5feff"/>
    </linearGradient>
    <linearGradient id="linear-gradient-7" x1="0.926" y1="0.336" x2="0.5" y2="1" gradientUnits="objectBoundingBox">
      <stop offset="0" stop-color="#d5f9ff"/>
      <stop offset="1" stop-color="#72e3f5"/>
    </linearGradient>
    <linearGradient id="linear-gradient-8" x1="0.4" y1="0.213" x2="0.5" y2="1" gradientUnits="objectBoundingBox">
      <stop offset="0" stop-color="#b7eff8"/>
      <stop offset="1" stop-color="#72e3f5"/>
    </linearGradient>
    <linearGradient id="linear-gradient-9" x1="0.5" x2="0.5" y2="1" gradientUnits="objectBoundingBox">
      <stop offset="0" stop-color="#effdff"/>
      <stop offset="1" stop-color="#a2ebf7"/>
    </linearGradient>
    <linearGradient id="linear-gradient-10" x1="0.5" x2="0.5" y2="1" gradientUnits="objectBoundingBox">
      <stop offset="0" stop-color="#c4f6fe"/>
      <stop offset="1" stop-color="#72e3f5"/>
    </linearGradient>
    <linearGradient id="linear-gradient-11" x1="0.5" x2="0.5" y2="1" gradientUnits="objectBoundingBox">
      <stop offset="0" stop-color="#b8f3fc"/>
      <stop offset="1" stop-color="#93eaf8"/>
    </linearGradient>
    <linearGradient id="linear-gradient-12" x1="0.5" x2="0.5" y2="1" gradientUnits="objectBoundingBox">
      <stop offset="0" stop-color="#95eaf7"/>
      <stop offset="1" stop-color="#d4f0f5"/>
    </linearGradient>
    <linearGradient id="linear-gradient-13" x1="0.612" y1="1.365" x2="1.133" y2="1.279" gradientUnits="objectBoundingBox">
      <stop offset="0" stop-color="#c2f0f8"/>
      <stop offset="1" stop-color="#6ae3f6"/>
    </linearGradient>
    <linearGradient id="linear-gradient-14" x1="0.5" x2="0.5" y2="1" gradientUnits="objectBoundingBox">
      <stop offset="0" stop-color="#b6f2fc"/>
      <stop offset="1" stop-color="#c5f6fe"/>
    </linearGradient>
    <linearGradient id="linear-gradient-15" x1="0.5" y1="0" x2="1.453" y2="0.294" xlink:href="#linear-gradient-6"/>
  </defs>
  <g id="neuron1" transform="translate(-5428.649 -5311.276)">
    <path id="Path_8177" data-name="Path 8177" d="M33.422,38.412l-1.79-1.8a11.559,11.559,0,0,1,13.26-1.576L43.753,37.3a8.952,8.952,0,0,0-10.331,1.114" transform="translate(5417.438 5353.785)" fill="url(#linear-gradient)"/>
    <g id="Group_9963" data-name="Group 9963">
      <path id="Path_8161" data-name="Path 8161" d="M132.936,72.16l-2.245,1.7c.04-.073,2.638-7.565.178-11.481-1.292-2.056-4.178-3.009-8.548-2.86l-1.852.073c-10.306.393-17.1.659-20.466-3.337-2.216-2.631-2.595-6.7-1.215-13.2,2.5-11.812,1.907-19.927-1.761-24.112-2.46-2.809-6.488-4.014-11.965-3.6-11.143.844-15.244,8.224-16.867,30.378-.338,4.574-4.436,9.48-10.429,12.5C53.079,60.573,42.912,66.428,26.78,56.2l.855-2.434c15.04,9.534,24.683,4.338,28.984,2.176,5.935-2.984,8.81-7.376,9.036-10.411C67.162,25.141,70.662,13.882,84.869,12.8c6.31-.469,11.055,1.026,14.068,4.465,4.283,4.891,5.047,13.5,2.336,26.313-1.183,5.586-.968,9.094.67,11.041,2.565,3.042,9.221,2.791,18.428,2.434l1.856-.069c5.331-.189,8.985,1.164,10.8,4.05,3.235,5.156.087,10.79-.091,11.124" transform="translate(5404.634 5298.56)" fill="#72e3f5"/>
      <path id="Path_8162" data-name="Path 8162" d="M46.539,41.67l-2.525-.24C45.7,23.806,68.69,24.949,68.915,24.971l-.153,2.54C67.929,27.467,48,26.485,46.539,41.67" transform="translate(5450.114 5330.84)" fill="url(#linear-gradient-2)"/>
      <path id="Path_8163" data-name="Path 8163" d="M49.318,34.922,46.94,33.9c.04-.211,4.5-21.1,24.747-20.142v2.784c-18.144-.91-22.209,17.593-22.369,18.379" transform="translate(5457.543 5301.896)" fill="url(#linear-gradient-3)"/>
      <path id="Path_8164" data-name="Path 8164" d="M64.762,27.448c-2.878-9.785-14.625-9.978-14.745-9.978l.5-2.675c.135,0,13.3.238,16.7,11.817Z" transform="translate(5465.956 5304.389)" fill="url(#linear-gradient-4)"/>
      <path id="Path_8165" data-name="Path 8165" d="M33.9,56.924l-.928-2.365c24.618-9.607,16.907-31.586,16.568-32.514l2.384-.877c.095.251,8.879,25.254-18.024,35.756" transform="translate(5420.967 5320.862)" fill="url(#linear-gradient-5)"/>
      <path id="Path_8166" data-name="Path 8166" d="M38.248,47.95l-1.721-1.874C43.678,39.5,38.194,28.51,38.139,28.4L40.4,27.244c.266.52,6.4,12.835-2.154,20.706" transform="translate(5430.356 5336.896)" fill="url(#linear-gradient-6)"/>
      <path id="Path_8167" data-name="Path 8167" d="M40,25.657l-2.063-1.47c.08-.12,8.6-11.888,19.8-7.434L56.8,19.111C47.439,15.4,40.081,25.555,40,25.657" transform="translate(5434.088 5306.555)" fill="url(#linear-gradient-7)"/>
      <path id="Path_8168" data-name="Path 8168" d="M56.256,62.327C44.7,61.275,44.28,52.341,41.769,44.216c-.9-2.911-1.47-5.833-2.875-7.766-4.494-6.186-8.5-6.572-12.875-6.787l.429-2.522c.59-.033,9.913-.844,14.683,8.108A48.572,48.572,0,0,1,44.2,43.462c2.525,8.169,7.26,17.6,17.132,18.5Z" transform="translate(5402.629 5336.54)" fill="#72e3f5"/>
      <path id="Path_8169" data-name="Path 8169" d="M48.486,35.541l-2.529-.222C46.8,25.6,30.687,23.485,30.52,23.466l.313-2.525c.768.1,18.719,2.456,17.653,14.6" transform="translate(5414.504 5320.263)" fill="url(#linear-gradient-8)"/>
      <path id="Path_8170" data-name="Path 8170" d="M37.548,37.2l-2.165-1.336c4.632-7.525-2.744-17.249-2.817-17.347l2.009-1.55c.353.451,8.519,11.223,2.973,20.233" transform="translate(5419.903 5309.778)" fill="url(#linear-gradient-9)"/>
      <path id="Path_8171" data-name="Path 8171" d="M56.151,44.815l-2.3-1.1c2.351-4.934,3.715-5.884,8.228-9.025.9-.622,1.929-1.339,3.13-2.205C71.493,28,67.155,19.357,67.119,19.27l2.253-1.161c1.892,3.675,3.755,11.838-2.675,16.448-1.215.866-2.256,1.594-3.166,2.223-4.4,3.064-5.324,3.7-7.38,8.035" transform="translate(5476.084 5312.789)" fill="url(#linear-gradient-10)"/>
      <path id="Path_8172" data-name="Path 8172" d="M63.837,29.023A13.435,13.435,0,0,1,56.981,26.8L58.433,24.7c.033.025,3.5,2.38,6.721,1.638,1.6-.368,4.141-3.486,5.167-5.287l-.233,3.985c-1.4,2.449-2.056,3.257-4.385,3.785a8.643,8.643,0,0,1-1.867.2" transform="translate(5484.333 5320.561)" fill="url(#linear-gradient-11)"/>
      <path id="Path_8173" data-name="Path 8173" d="M45.585,50.772c-.28,0-.462-.193-.713-.459-.877-.924.051-1.823.448-2.209l.044.047c.553-.488,2.038-1.819,6.019-5.477,2-1.838,2.937-3.8,2.769-5.811-.36-4.538-5.862-8.22-5.913-8.253l1.4-2.125c.273.178,6.59,4.418,7.052,10.175.226,2.835-.979,5.491-3.588,7.886-3.17,2.918-4.96,4.567-6.055,5.426-.073.073-.2.2-.262.266l-.047-.033a2.257,2.257,0,0,1-1.15.568" transform="translate(5451.414 5334.896)" fill="url(#linear-gradient-12)"/>
      <path id="Path_8174" data-name="Path 8174" d="M59.111,35.611a7.89,7.89,0,0,0-4.9-3.872,8.044,8.044,0,0,0-5.528,1.048l-1.394-2.129a10.625,10.625,0,0,1,7.456-1.4,10.357,10.357,0,0,1,6.517,5Z" transform="translate(5458.765 5341.67)" fill="#c0eef5"/>
      <path id="Path_8175" data-name="Path 8175" d="M60.3,29.061c-.058-.069-6.055-6.39-11.808-6.39h-.066A7.047,7.047,0,0,0,43.1,25.2L41.222,23.49a9.527,9.527,0,0,1,7.2-3.359c6.794.015,13.468,6.889,13.744,7.187Z" transform="translate(5442.746 5318.125)" fill="url(#linear-gradient-13)"/>
      <path id="Path_8176" data-name="Path 8176" d="M54.849,34.6c-6.972-6.645-.509-18.188-.226-18.675l2.209,1.259c-.066.1-5.76,10.3-.229,15.578Z" transform="translate(5470.199 5307.015)" fill="url(#linear-gradient-14)"/>
      <path id="Path_8178" data-name="Path 8178" d="M47.311,35.288c-2.256-4.247-9.137-3.563-9.207-3.552l-.28-2.525c.349-.04,8.668-.892,11.728,4.887Z" transform="translate(5433.779 5341.912)" fill="url(#linear-gradient-15)"/>
    </g>
  </g>
</svg>
