<svg xmlns="http://www.w3.org/2000/svg" width="119.147" height="89.198" viewBox="0 0 119.147 89.198">
  <g id="neuron2" transform="translate(-5410.843 -5291.954)">
    <path id="Path_8151" data-name="Path 8151" d="M108.559,24.03c-.1-.1-10.32-10.447-24.243-11.055a132.272,132.272,0,0,0-14.967.586c-11.51.866-25.465,1.332-36.9-3.472l3.035-1.376c10.87,4.567,22.452,3.155,33.671,2.314a133.349,133.349,0,0,1,15.265-.59c14.96.648,25.516,11.368,25.957,11.823Z" transform="translate(5419.608 5287.996)" fill="#64bbff"/>
    <path id="Path_8152" data-name="Path 8152" d="M55,15.707l-2.18-.357a5.185,5.185,0,0,0-.135-1.386c-.517-.877-4.8-3.97-15.924-5.742l4.1-.815c9.549,1.517,12.958,2.817,14.221,5.662A2.82,2.82,0,0,1,55,15.707" transform="translate(5430.974 5284.547)" fill="#64bbff"/>
    <path id="Path_8153" data-name="Path 8153" d="M34.392,29l-2.518-1.819c3.956-5.8,14.774-14.057,21.084-16.8,1.3-.564.462-.171,1.8-.786l3.22,1.339c-1.35.622-2.693,1.208-4.007,1.776C47.747,15.414,37.937,23.8,34.392,29" transform="translate(5418.077 5290.313)" fill="#64bbff"/>
    <path id="Path_8154" data-name="Path 8154" d="M22.545,32.13l1.394-2.7a58.65,58.65,0,0,0,10.218-2.958c2.729-1,4.381-3.013,6.124-5.153,2.078-2.544,4.436-5.433,8.894-6.637a11.512,11.512,0,0,1,12.853,4.691L59.859,20.71a8.968,8.968,0,0,0-10.014-3.573c-3.672.99-5.575,3.326-7.595,5.8-1.885,2.307-3.835,4.694-7.22,5.928A70.469,70.469,0,0,1,22.545,32.13" transform="translate(5393.458 5302.539)" fill="#64bbff"/>
    <path id="Path_8155" data-name="Path 8155" d="M27.3,34.3C20.829,21.825,39.209,11.789,40,11.367l1.2,2.242c-.164.095-16.965,9.265-11.641,19.523Z" transform="translate(5402.369 5294.998)" fill="#64bbff"/>
    <path id="Path_8156" data-name="Path 8156" d="M29.45,66.267c-.528-.477-11.681-9.8-6.7-19.858a35.521,35.521,0,0,1,7.835-9.971c2.7-2.616,4.654-4.512,4.581-7.158C35.058,25.049,39,21,42.943,19.179c3.825-1.765,7.438-1.5,9.913.731L51.149,21.8c-2.38-2.151-5.786-.932-7.143-.309-3.6,1.659-6.365,5.055-6.292,7.726.1,3.766-2.427,6.215-5.357,9.054a32.84,32.84,0,0,0-7.325,9.276c-4.134,8.33,8.621,20.942,8.737,21.051Z" transform="translate(5390.629 5312.56)" fill="#64bbff"/>
    <path id="Path_8157" data-name="Path 8157" d="M21.127,27.561l1.063-3.577C28.5,18.766,36.9,22.2,37.368,22.383l-.917,2.373c-.095-.036-10.866-3.584-15.324,2.806" transform="translate(5389.716 5320.698)" fill="#64bbff"/>
    <path id="Path_8158" data-name="Path 8158" d="M33.41,45.163C22.657,35.174,22.97,24.861,23,24.774l2.656-.535-.284,1.445c-.1.277,3.224,11.055,9.279,16.408Z" transform="translate(5394.646 5328.966)" fill="#64bbff"/>
  </g>
</svg>
