<svg id="Layer_1" data-name="Layer 1" xmlns="http://www.w3.org/2000/svg" xmlns:xlink="http://www.w3.org/1999/xlink" viewBox="0 0 255.9 284.61"><defs><style>.cls-1{fill:none;}.cls-2{fill:url(#linear-gradient);}.cls-3{clip-path:url(#clip-path);}.cls-4{opacity:0;}.cls-5{fill:url(#linear-gradient-2);}.cls-6{opacity:0.17;}.cls-7{clip-path:url(#clip-path-3);}.cls-8{fill:url(#linear-gradient-3);}.cls-9{opacity:0.33;}.cls-10{clip-path:url(#clip-path-4);}.cls-11{fill:url(#linear-gradient-4);}.cls-12{opacity:0.5;}.cls-13{clip-path:url(#clip-path-5);}.cls-14{fill:url(#linear-gradient-5);}.cls-15{opacity:0.67;}.cls-16{clip-path:url(#clip-path-6);}.cls-17{fill:url(#linear-gradient-6);}.cls-18{opacity:0.83;}.cls-19{clip-path:url(#clip-path-7);}.cls-20{fill:url(#linear-gradient-7);}.cls-21{clip-path:url(#clip-path-8);}.cls-22{fill:url(#linear-gradient-8);}.cls-23{fill:url(#linear-gradient-9);}.cls-24{fill:url(#linear-gradient-10);}.cls-25{clip-path:url(#clip-path-9);}.cls-26{fill:#007ee1;}.cls-27{clip-path:url(#clip-path-10);}.cls-28{clip-path:url(#clip-path-11);}.cls-29{fill:url(#linear-gradient-11);}.cls-30{clip-path:url(#clip-path-12);}.cls-31{fill:url(#linear-gradient-12);}.cls-32{clip-path:url(#clip-path-14);}.cls-33{fill:url(#linear-gradient-13);}.cls-34{clip-path:url(#clip-path-16);}.cls-35{fill:url(#linear-gradient-14);}.cls-36{clip-path:url(#clip-path-18);}.cls-37{fill:url(#linear-gradient-15);}.cls-38{clip-path:url(#clip-path-20);}.cls-39{fill:url(#linear-gradient-16);}.cls-40{clip-path:url(#clip-path-22);}.cls-41{fill:url(#linear-gradient-17);}</style><linearGradient id="linear-gradient" x1="-774.84" y1="637.14" x2="-774.84" y2="636.14" gradientTransform="matrix(14.93, 0, 0, -8.66, 11694.84, 5678.13)" gradientUnits="userSpaceOnUse"><stop offset="0" stop-color="#007ee6"/><stop offset="1" stop-color="#06d3fe"/></linearGradient><clipPath id="clip-path" transform="translate(0 0)"><rect class="cls-1" x="112.37" y="151.11" width="29.48" height="29.49"/></clipPath><linearGradient id="linear-gradient-2" x1="-802.31" y1="669.53" x2="-802.31" y2="668.53" gradientTransform="matrix(29.48, 0, 0, -29.48, 23780.92, 19890.32)" xlink:href="#linear-gradient"/><clipPath id="clip-path-3" transform="translate(0 0)"><rect class="cls-1" x="114.17" y="153.01" width="25.98" height="25.99"/></clipPath><linearGradient id="linear-gradient-3" x1="-798.51" y1="667.72" x2="-798.51" y2="666.72" gradientTransform="matrix(25.98, 0, 0, -25.98, 20870.89, 17498.98)" xlink:href="#linear-gradient"/><clipPath id="clip-path-4" transform="translate(0 0)"><rect class="cls-1" x="115.96" y="154.9" width="22.48" height="22.48"/></clipPath><linearGradient id="linear-gradient-4" x1="-793.53" y1="665.34" x2="-793.53" y2="664.34" gradientTransform="matrix(22.48, 0, 0, -22.48, 17964.18, 15110.38)" xlink:href="#linear-gradient"/><clipPath id="clip-path-5" transform="translate(0 0)"><rect class="cls-1" x="117.76" y="156.8" width="18.98" height="18.98"/></clipPath><linearGradient id="linear-gradient-5" x1="-786.71" y1="662.08" x2="-786.71" y2="661.08" gradientTransform="matrix(18.98, 0, 0, -18.98, 15057.48, 12721.77)" xlink:href="#linear-gradient"/><clipPath id="clip-path-6" transform="translate(0 0)"><rect class="cls-1" x="119.55" y="158.7" width="15.48" height="15.48"/></clipPath><linearGradient id="linear-gradient-6" x1="-776.79" y1="657.34" x2="-776.79" y2="656.34" gradientTransform="matrix(15.47, 0, 0, -15.47, 12145.79, 10329.07)" xlink:href="#linear-gradient"/><clipPath id="clip-path-7" transform="translate(0 0)"><rect class="cls-1" x="121.35" y="160.59" width="11.97" height="11.97"/></clipPath><linearGradient id="linear-gradient-7" x1="-761.09" y1="649.84" x2="-761.09" y2="648.84" gradientTransform="matrix(11.97, 0, 0, -11.97, 9239.08, 7940.47)" xlink:href="#linear-gradient"/><clipPath id="clip-path-8" transform="translate(0 0)"><rect class="cls-1" x="123.14" y="162.49" width="8.47" height="8.47"/></clipPath><linearGradient id="linear-gradient-8" x1="-732.41" y1="636.14" x2="-732.41" y2="635.14" gradientTransform="matrix(8.47, 0, 0, -8.47, 6332.39, 5551.87)" xlink:href="#linear-gradient"/><linearGradient id="linear-gradient-9" x1="-825.59" y1="678.46" x2="-825.59" y2="677.46" gradientTransform="matrix(169.37, 0, 0, -87.53, 139957.62, 59581.69)" xlink:href="#linear-gradient"/><linearGradient id="linear-gradient-10" x1="-825.59" y1="678.95" x2="-825.59" y2="677.95" gradientTransform="matrix(169.28, 0, 0, -98.05, 139882.88, 66718.34)" xlink:href="#linear-gradient"/><clipPath id="clip-path-9" transform="translate(0 0)"><path class="cls-1" d="M83.71,171.73c-24.1,14-24,36.71.29,50.72s63.45,14,87.55,0,24-36.7-.29-50.71c-12.14-7-28-10.51-43.85-10.51s-31.66,3.5-43.7,10.5"/></clipPath><clipPath id="clip-path-10" transform="translate(0 0)"><rect class="cls-1" width="255.89" height="217.27"/></clipPath><clipPath id="clip-path-11" transform="translate(0 0)"><rect class="cls-1" x="78.28" y="166.67" width="99.32" height="50.6"/></clipPath><linearGradient id="linear-gradient-11" x1="-822.13" y1="675.15" x2="-822.13" y2="674.15" gradientTransform="matrix(99.32, 0, 0, -50.6, 81783.17, 34331.78)" xlink:href="#linear-gradient"/><clipPath id="clip-path-12" transform="translate(0 0)"><rect class="cls-1" x="65.24" y="138.89" width="125.42" height="59.91"/></clipPath><linearGradient id="linear-gradient-12" x1="-823.87" y1="676.37" x2="-823.87" y2="675.37" gradientTransform="matrix(125.42, 0, 0, -59.91, 103457.76, 40660.51)" xlink:href="#linear-gradient"/><clipPath id="clip-path-14" transform="translate(0 0)"><rect class="cls-1" x="52.19" y="111.11" width="151.51" height="69.21"/></clipPath><linearGradient id="linear-gradient-13" x1="-825.02" y1="677.26" x2="-825.02" y2="676.26" gradientTransform="matrix(151.52, 0, 0, -69.21, 125131.54, 46985.23)" xlink:href="#linear-gradient"/><clipPath id="clip-path-16" transform="translate(0 0)"><rect class="cls-1" x="39.14" y="83.33" width="177.61" height="78.52"/></clipPath><linearGradient id="linear-gradient-14" x1="-825.82" y1="677.94" x2="-825.82" y2="676.94" gradientTransform="matrix(177.61, 0, 0, -78.52, 146802.3, 53314.38)" xlink:href="#linear-gradient"/><clipPath id="clip-path-18" transform="translate(0 0)"><rect class="cls-1" x="26.09" y="55.56" width="203.7" height="87.82"/></clipPath><linearGradient id="linear-gradient-15" x1="-826.42" y1="678.48" x2="-826.42" y2="677.48" gradientTransform="matrix(203.7, 0, 0, -87.82, 168473.09, 59640.2)" xlink:href="#linear-gradient"/><clipPath id="clip-path-20" transform="translate(0 0)"><rect class="cls-1" x="13.05" y="27.78" width="229.8" height="97.12"/></clipPath><linearGradient id="linear-gradient-16" x1="-826.88" y1="678.91" x2="-826.88" y2="677.91" gradientTransform="matrix(229.8, 0, 0, -97.13, 190146.75, 65968.68)" xlink:href="#linear-gradient"/><clipPath id="clip-path-22" transform="translate(0 0)"><rect class="cls-1" width="255.89" height="106.43"/></clipPath><linearGradient id="linear-gradient-17" x1="-827.25" y1="679.27" x2="-827.25" y2="678.27" gradientTransform="matrix(255.9, 0, 0, -106.43, 211818.76, 72294.35)" xlink:href="#linear-gradient"/></defs><g id="postolje"><g id="postolje-2"><g id="Group_8358" data-name="Group 8358"><g id="Group_8857" data-name="Group 8857"><path id="Path_8139" data-name="Path 8139" class="cls-2" d="M132.37,163.38c2.93,1.69,2.95,4.43,0,6.12a11.59,11.59,0,0,1-10.54,0c-2.6-1.49-2.9-3.81-.94-5.49a6.65,6.65,0,0,1,.88-.62,8.57,8.57,0,0,1,1.1-.53,11.86,11.86,0,0,1,9.48.53" transform="translate(0 0)"/><g id="Group_8356" data-name="Group 8356"><g id="Group_8355" data-name="Group 8355"><g class="cls-3"><g id="Group_8354" data-name="Group 8354"><g id="Group_8335" data-name="Group 8335" class="cls-4"><g id="Group_8334" data-name="Group 8334"><g class="cls-3"><g id="Group_8333" data-name="Group 8333"><path id="Path_8140" data-name="Path 8140" class="cls-5" d="M112.37,165.86a14.75,14.75,0,1,0,14.74-14.75,14.75,14.75,0,0,0-14.74,14.75" transform="translate(0 0)"/></g></g></g></g><g id="Group_8338" data-name="Group 8338" class="cls-6"><g id="Group_8337" data-name="Group 8337"><g class="cls-7"><g id="Group_8336" data-name="Group 8336"><path id="Path_8141" data-name="Path 8141" class="cls-8" d="M114.17,166a13,13,0,1,0,13-13,13,13,0,0,0-13,13h0" transform="translate(0 0)"/></g></g></g></g><g id="Group_8341" data-name="Group 8341" class="cls-9"><g id="Group_8340" data-name="Group 8340"><g class="cls-10"><g id="Group_8339" data-name="Group 8339"><path id="Path_8142" data-name="Path 8142" class="cls-11" d="M116,166.15A11.24,11.24,0,1,0,127.2,154.9,11.24,11.24,0,0,0,116,166.15h0" transform="translate(0 0)"/></g></g></g></g><g id="Group_8344" data-name="Group 8344" class="cls-12"><g id="Group_8343" data-name="Group 8343"><g class="cls-13"><g id="Group_8342" data-name="Group 8342"><path id="Path_8143" data-name="Path 8143" class="cls-14" d="M117.76,166.29a9.49,9.49,0,1,0,9.48-9.49h0a9.48,9.48,0,0,0-9.48,9.49h0" transform="translate(0 0)"/></g></g></g></g><g id="Group_8347" data-name="Group 8347" class="cls-15"><g id="Group_8346" data-name="Group 8346"><g class="cls-16"><g id="Group_8345" data-name="Group 8345"><path id="Path_8144" data-name="Path 8144" class="cls-17" d="M119.55,166.44a7.74,7.74,0,1,0,7.73-7.74,7.75,7.75,0,0,0-7.73,7.74h0" transform="translate(0 0)"/></g></g></g></g><g id="Group_8350" data-name="Group 8350" class="cls-18"><g id="Group_8349" data-name="Group 8349"><g class="cls-19"><g id="Group_8348" data-name="Group 8348"><path id="Path_8145" data-name="Path 8145" class="cls-20" d="M121.35,166.58a6,6,0,1,0,6-6h0a6,6,0,0,0-6,6h0" transform="translate(0 0)"/></g></g></g></g><g id="Group_8353" data-name="Group 8353"><g id="Group_8352" data-name="Group 8352"><g class="cls-21"><g id="Group_8351" data-name="Group 8351"><path id="Path_8146" data-name="Path 8146" class="cls-22" d="M123.14,166.73a4.24,4.24,0,1,0,4.23-4.24h0a4.23,4.23,0,0,0-4.23,4.23h0" transform="translate(0 0)"/></g></g></g></g></g></g></g></g><path id="Path_8147" data-name="Path 8147" class="cls-23" d="M213,199.09q0,.63-.09,1.26c0,.37-.09.75-.13,1.12s-.13.85-.2,1.27-.16.73-.23,1.1-.2.84-.32,1.27-.2.72-.31,1.08-.27.84-.42,1.26-.26.71-.4,1.06-.36.87-.55,1.31-.32.7-.49,1.05-.42.86-.66,1.28-.37.68-.57,1c-.29.52-.62,1-.95,1.53-.18.29-.36.58-.56.87-.39.56-.79,1.11-1.22,1.67-.18.22-.33.45-.52.68-.68.87-1.41,1.73-2.2,2.58l-.6.62c-.62.65-1.26,1.3-1.93,1.93l-.91.84c-.4.36-.82.73-1.24,1.08s-.75.64-1.14,1L196,227c-.41.31-.82.63-1.24.93s-1,.67-1.43,1l-1.36.93-1.53,1c-.64.4-1.3.82-2,1.2-1.83,1.06-3.75,2.05-5.7,3l-1.57.74c-1.76.81-3.54,1.58-5.38,2.3-.26.1-.5.22-.77.31-2,.75-4,1.43-6,2.08-1.45.45-2.93.86-4.42,1.26-1.08.29-2.16.61-3.27.88-1.55.38-3.14.69-4.73,1-1.13.22-2.22.47-3.37.67-.48.09-1,.16-1.46.24-1.92.31-3.86.58-5.8.82l-1.78.21c-2.27.24-4.53.44-6.82.57l-1.32.07c-1.53.07-3.06.1-4.59.12s-3.15.05-4.71,0c-1.27,0-2.52-.06-3.79-.11-1.46,0-2.92-.13-4.37-.23-1.29-.09-2.57-.2-3.85-.32s-2.87-.3-4.29-.48c-1.24-.16-2.48-.34-3.72-.52-1.53-.25-3-.51-4.54-.8s-3.09-.59-4.61-.93l-1.13-.25c-2.15-.52-4.27-1.1-6.36-1.71l-1.81-.57c-1.74-.54-3.44-1.13-5.11-1.75l-1.5-.54c-1.51-.59-3-1.24-4.44-1.9-.75-.33-1.51-.62-2.24-1-2.13-1-4.21-2.08-6.2-3.23-16.69-9.64-25-22.29-25-34.92q0,19.15-.11,38.3c0,12.63,8.3,25.28,25,34.91q3,1.74,6.23,3.25c.65.32,1.36.59,2,.89,1.31.58,2.6,1.18,4,1.72l.7.26,1.38.5q2.58.94,5.23,1.79l1.75.54,1.21.38c1.71.48,3.45.92,5.2,1.34.34.08.7.15,1,.24.86.2,1.72.4,2.59.58.71.15,1.44.24,2.15.38,1.46.28,2.93.54,4.41.76.62.1,1.22.23,1.83.32s1.36.14,2,.23c1.37.17,2.75.32,4.13.46.7.07,1.38.17,2.07.23s1.29.06,1.94.11c1.4.09,2.81.17,4.21.22.74,0,1.46.1,2.19.12.57,0,1.15,0,1.73,0q2.33,0,4.65,0c.76,0,1.53,0,2.29,0s1.56-.08,2.33-.12l1.27-.06c1.93-.12,3.86-.26,5.79-.45.37,0,.73-.09,1.1-.14.57-.05,1.13-.12,1.69-.2q3-.35,5.92-.83l1.37-.22.7-.11c.95-.17,1.86-.4,2.8-.6,1.54-.32,3.1-.63,4.61-1,1.13-.28,2.22-.59,3.32-.9,1.47-.4,2.93-.79,4.36-1.24.31-.1.63-.17.94-.27,1.74-.57,3.46-1.17,5.15-1.82l.71-.29c1.85-.72,3.66-1.5,5.42-2.31.53-.25,1.05-.48,1.56-.73,2-1,3.87-1.94,5.71-3l1-.61c.3-.17.57-.36.87-.54l1.63-1,1.25-.85c.52-.35,1-.71,1.53-1.07s.79-.59,1.18-.89.94-.72,1.39-1.08l1.12-.93,1.26-1.11.49-.42c.15-.14.26-.27.4-.41.68-.63,1.32-1.28,1.94-1.93.2-.21.41-.42.6-.63.78-.84,1.52-1.7,2.2-2.56l.09-.11c.16-.2.29-.4.44-.6.41-.54.82-1.09,1.2-1.64.2-.3.39-.6.58-.91.33-.5.64-1,.94-1.51.07-.13.17-.27.24-.4s.21-.4.31-.6c.23-.43.46-.86.67-1.29l.5-1.06q.28-.65.54-1.29c.08-.19.17-.38.24-.57s.11-.35.17-.52c.15-.4.28-.82.4-1.23s.23-.75.33-1.12.21-.81.3-1.22c0-.22.12-.45.16-.68s.05-.31.07-.45c.08-.42.15-.84.2-1.26s.11-.75.15-1.12.07-.84.09-1.26c0-.26,0-.5.05-.76s0-.49,0-.75q0-19.14.1-38.3c0,.5,0,1-.06,1.5" transform="translate(0 0)"/><path id="Path_8148" data-name="Path 8148" class="cls-24" d="M188.11,162.67c33.16,19.15,33.34,50.19.4,69.34S102,251.15,68.81,232s-33.34-50.19-.39-69.34,86.53-19.14,119.69,0" transform="translate(0 0)"/></g></g><g id="Group_8360" data-name="Group 8360"><g class="cls-25"><g id="Group_8359" data-name="Group 8359"><rect id="Rectangle_1686" data-name="Rectangle 1686" class="cls-26" x="59.61" y="161.23" width="136.03" height="75.22"/></g></g></g></g><g id="Group_8408" data-name="Group 8408"><g id="Group_8407" data-name="Group 8407"><g class="cls-27"><g id="Group_8406" data-name="Group 8406"><g id="Group_8369" data-name="Group 8369"><g id="Group_8368" data-name="Group 8368"><g class="cls-28"><g id="Group_8367" data-name="Group 8367"><path id="Path_8180" data-name="Path 8180" class="cls-29" d="M162.94,174.08c19.47,9.88,19.57,25.9.24,35.79s-50.78,9.87-70.23,0S73.39,184,92.72,174.08s50.77-9.88,70.22,0" transform="translate(0 0)"/></g></g></g></g><g id="Group_8375" data-name="Group 8375" class="cls-18"><g id="Group_8374" data-name="Group 8374"><g class="cls-30"><g id="Group_8373" data-name="Group 8373"><g id="Group_8372" data-name="Group 8372"><g id="Group_8371" data-name="Group 8371"><g class="cls-30"><g id="Group_8370" data-name="Group 8370"><path id="Path_8181" data-name="Path 8181" class="cls-31" d="M172.14,147.67c24.57,11.7,24.7,30.66.29,42.36s-64.12,11.69-88.69,0-24.7-30.67-.28-42.36,64.11-11.7,88.68,0" transform="translate(0 0)"/></g></g></g></g></g></g></g></g><g id="Group_8381" data-name="Group 8381" class="cls-15"><g id="Group_8380" data-name="Group 8380"><g class="cls-32"><g id="Group_8379" data-name="Group 8379"><g id="Group_8378" data-name="Group 8378"><g id="Group_8377" data-name="Group 8377"><g class="cls-32"><g id="Group_8376" data-name="Group 8376"><path id="Path_8182" data-name="Path 8182" class="cls-33" d="M181.34,121.25c29.68,13.51,29.84,35.42.35,48.94s-77.45,13.51-107.14,0-29.84-35.43-.35-48.94,77.46-13.52,107.14,0" transform="translate(0 0)"/></g></g></g></g></g></g></g></g><g id="Group_8387" data-name="Group 8387" class="cls-12"><g id="Group_8386" data-name="Group 8386"><g class="cls-34"><g id="Group_8385" data-name="Group 8385"><g id="Group_8384" data-name="Group 8384"><g id="Group_8383" data-name="Group 8383"><g class="cls-34"><g id="Group_8382" data-name="Group 8382"><path id="Path_8183" data-name="Path 8183" class="cls-35" d="M190.53,94.83c34.8,15.33,35,40.19.4,55.53s-90.78,15.32-125.58,0-35-40.2-.4-55.53,90.8-15.33,125.58,0" transform="translate(0 0)"/></g></g></g></g></g></g></g></g><g id="Group_8393" data-name="Group 8393" class="cls-9"><g id="Group_8392" data-name="Group 8392"><g class="cls-36"><g id="Group_8391" data-name="Group 8391"><g id="Group_8390" data-name="Group 8390"><g id="Group_8389" data-name="Group 8389"><g class="cls-36"><g id="Group_8388" data-name="Group 8388"><path id="Path_8184" data-name="Path 8184" class="cls-37" d="M199.73,68.42c39.9,17.14,40.12,45,.47,62.1s-104.13,17.14-144,0-40.12-45-.47-62.1,104.14-17.15,144,0" transform="translate(0 0)"/></g></g></g></g></g></g></g></g><g id="Group_8399" data-name="Group 8399" class="cls-6"><g id="Group_8398" data-name="Group 8398"><g class="cls-38"><g id="Group_8397" data-name="Group 8397"><g id="Group_8396" data-name="Group 8396"><g id="Group_8395" data-name="Group 8395"><g class="cls-38"><g id="Group_8394" data-name="Group 8394"><path id="Path_8185" data-name="Path 8185" class="cls-39" d="M208.93,42c45,19,45.26,49.72.52,68.68S92,129.64,47,110.68,1.71,61,46.43,42s117.48-19,162.5,0" transform="translate(0 0)"/></g></g></g></g></g></g></g></g><g id="Group_8405" data-name="Group 8405" class="cls-4"><g id="Group_8404" data-name="Group 8404"><g class="cls-40"><g id="Group_8403" data-name="Group 8403"><g id="Group_8402" data-name="Group 8402"><g id="Group_8401" data-name="Group 8401"><g class="cls-40"><g id="Group_8400" data-name="Group 8400"><path id="Path_8186" data-name="Path 8186" class="cls-41" d="M218.13,15.58c50.12,20.79,50.4,54.48.58,75.27s-130.81,20.77-180.94,0-50.39-54.48-.59-75.27,130.82-20.77,181,0" transform="translate(0 0)"/></g></g></g></g></g></g></g></g></g></g></g></g></g></svg>