<svg id="strelice1" xmlns="http://www.w3.org/2000/svg" xmlns:xlink="http://www.w3.org/1999/xlink" width="8.704" height="30.254" viewBox="0 0 8.704 30.254">
  <defs>
    <linearGradient id="linear-gradient" x1="0.5" x2="0.5" y2="1" gradientUnits="objectBoundingBox">
      <stop offset="0" stop-color="#007ee6"/>
      <stop offset="1" stop-color="#06d3fe"/>
    </linearGradient>
    <clipPath id="clip-path">
      <rect id="Rectangle_1850" data-name="Rectangle 1850" width="8.704" height="30.254" fill="url(#linear-gradient)"/>
    </clipPath>
    <clipPath id="clip-path-2">
      <rect id="Rectangle_1814" data-name="Rectangle 1814" width="8.704" height="8.104" fill="url(#linear-gradient)"/>
    </clipPath>
    <clipPath id="clip-path-9">
      <rect id="Rectangle_1822" data-name="Rectangle 1822" width="8.704" height="8.105" fill="url(#linear-gradient)"/>
    </clipPath>
  </defs>
  <g id="Group_8851" data-name="Group 8851">
    <g id="Group_8850" data-name="Group 8850" clip-path="url(#clip-path)">
      <g id="Group_8744" data-name="Group 8744">
        <g id="Group_8743" data-name="Group 8743">
          <g id="Group_8742" data-name="Group 8742" clip-path="url(#clip-path-2)">
            <path id="Path_8244" data-name="Path 8244" d="M41.194,47.453l-3.6,3a.552.552,0,0,1-.739,0l-3.628-3.006a1.3,1.3,0,0,1,0-1.816l3.6-3a.542.542,0,0,1,.731,0l3.632,3a1.307,1.307,0,0,1,0,1.819" transform="translate(-32.854 -42.488)" fill="url(#linear-gradient)"/>
          </g>
        </g>
      </g>
      <g id="Group_8750" data-name="Group 8750" transform="translate(0 3.692)" opacity="0.833">
        <g id="Group_8749" data-name="Group 8749">
          <g id="Group_8748" data-name="Group 8748" clip-path="url(#clip-path-2)">
            <g id="Group_8747" data-name="Group 8747">
              <g id="Group_8746" data-name="Group 8746">
                <g id="Group_8745" data-name="Group 8745" clip-path="url(#clip-path-2)">
                  <path id="Path_8245" data-name="Path 8245" d="M41.194,48.467l-3.6,3a.552.552,0,0,1-.739,0l-3.628-3.006a1.3,1.3,0,0,1,0-1.816l3.6-3a.542.542,0,0,1,.731,0l3.632,3.006a1.3,1.3,0,0,1,0,1.816" transform="translate(-32.854 -43.504)" fill="url(#linear-gradient)"/>
                </g>
              </g>
            </g>
          </g>
        </g>
      </g>
      <g id="Group_8756" data-name="Group 8756" transform="translate(0 7.383)" opacity="0.667">
        <g id="Group_8755" data-name="Group 8755">
          <g id="Group_8754" data-name="Group 8754" clip-path="url(#clip-path-2)">
            <g id="Group_8753" data-name="Group 8753">
              <g id="Group_8752" data-name="Group 8752">
                <g id="Group_8751" data-name="Group 8751" clip-path="url(#clip-path-2)">
                  <path id="Path_8246" data-name="Path 8246" d="M41.194,49.482l-3.6,3a.552.552,0,0,1-.739,0l-3.628-3.006a1.3,1.3,0,0,1,0-1.816l3.6-3a.542.542,0,0,1,.731,0l3.632,3.006a1.3,1.3,0,0,1,0,1.816" transform="translate(-32.854 -44.517)" fill="url(#linear-gradient)"/>
                </g>
              </g>
            </g>
          </g>
        </g>
      </g>
      <g id="Group_8762" data-name="Group 8762" transform="translate(0 11.075)" opacity="0.5">
        <g id="Group_8761" data-name="Group 8761">
          <g id="Group_8760" data-name="Group 8760" clip-path="url(#clip-path-2)">
            <g id="Group_8759" data-name="Group 8759">
              <g id="Group_8758" data-name="Group 8758">
                <g id="Group_8757" data-name="Group 8757" clip-path="url(#clip-path-2)">
                  <path id="Path_8247" data-name="Path 8247" d="M41.194,50.5l-3.6,3a.552.552,0,0,1-.739,0l-3.628-3.006a1.3,1.3,0,0,1,0-1.816l3.6-3a.542.542,0,0,1,.731,0l3.632,3.006a1.3,1.3,0,0,1,0,1.816" transform="translate(-32.854 -45.532)" fill="url(#linear-gradient)"/>
                </g>
              </g>
            </g>
          </g>
        </g>
      </g>
      <g id="Group_8768" data-name="Group 8768" transform="translate(0 14.766)" opacity="0.333">
        <g id="Group_8767" data-name="Group 8767">
          <g id="Group_8766" data-name="Group 8766" clip-path="url(#clip-path-9)">
            <g id="Group_8765" data-name="Group 8765">
              <g id="Group_8764" data-name="Group 8764">
                <g id="Group_8763" data-name="Group 8763" clip-path="url(#clip-path-9)">
                  <path id="Path_8248" data-name="Path 8248" d="M41.194,51.508l-3.6,3a.548.548,0,0,1-.739,0L33.229,51.5a1.3,1.3,0,0,1,0-1.816l3.6-3a.55.55,0,0,1,.731,0L41.191,49.7a1.3,1.3,0,0,1,0,1.812" transform="translate(-32.854 -46.546)" fill="url(#linear-gradient)"/>
                </g>
              </g>
            </g>
          </g>
        </g>
      </g>
      <g id="Group_8774" data-name="Group 8774" transform="translate(0 18.458)" opacity="0.167">
        <g id="Group_8773" data-name="Group 8773">
          <g id="Group_8772" data-name="Group 8772" clip-path="url(#clip-path-2)">
            <g id="Group_8771" data-name="Group 8771">
              <g id="Group_8770" data-name="Group 8770">
                <g id="Group_8769" data-name="Group 8769" clip-path="url(#clip-path-2)">
                  <path id="Path_8249" data-name="Path 8249" d="M41.194,52.522l-3.6,3a.548.548,0,0,1-.739,0l-3.628-3.006a1.3,1.3,0,0,1,0-1.816l3.6-3a.55.55,0,0,1,.731,0l3.632,3.009a1.3,1.3,0,0,1,0,1.812" transform="translate(-32.854 -47.562)" fill="url(#linear-gradient)"/>
                </g>
              </g>
            </g>
          </g>
        </g>
      </g>
      <g id="Group_8780" data-name="Group 8780" transform="translate(0 22.149)" opacity="0">
        <g id="Group_8779" data-name="Group 8779">
          <g id="Group_8778" data-name="Group 8778" clip-path="url(#clip-path-9)">
            <g id="Group_8777" data-name="Group 8777">
              <g id="Group_8776" data-name="Group 8776">
                <g id="Group_8775" data-name="Group 8775" clip-path="url(#clip-path-9)">
                  <path id="Path_8250" data-name="Path 8250" d="M41.194,53.537l-3.6,3a.548.548,0,0,1-.739,0l-3.628-3.006a1.3,1.3,0,0,1,0-1.816l3.6-3a.55.55,0,0,1,.731,0l3.632,3.009a1.3,1.3,0,0,1,0,1.812" transform="translate(-32.854 -48.575)" fill="url(#linear-gradient)"/>
                </g>
              </g>
            </g>
          </g>
        </g>
      </g>
      <g id="Group_8786" data-name="Group 8786" transform="translate(0 18.458)" opacity="0.167">
        <g id="Group_8785" data-name="Group 8785">
          <g id="Group_8784" data-name="Group 8784" clip-path="url(#clip-path-2)">
            <g id="Group_8783" data-name="Group 8783">
              <g id="Group_8782" data-name="Group 8782">
                <g id="Group_8781" data-name="Group 8781" clip-path="url(#clip-path-2)">
                  <path id="Path_8251" data-name="Path 8251" d="M41.194,52.522l-3.6,3a.548.548,0,0,1-.739,0l-3.628-3.006a1.3,1.3,0,0,1,0-1.816l3.6-3a.55.55,0,0,1,.731,0l3.632,3.009a1.3,1.3,0,0,1,0,1.812" transform="translate(-32.854 -47.562)" fill="url(#linear-gradient)"/>
                </g>
              </g>
            </g>
          </g>
        </g>
      </g>
      <g id="Group_8792" data-name="Group 8792" transform="translate(0 14.766)" opacity="0.333">
        <g id="Group_8791" data-name="Group 8791">
          <g id="Group_8790" data-name="Group 8790" clip-path="url(#clip-path-9)">
            <g id="Group_8789" data-name="Group 8789">
              <g id="Group_8788" data-name="Group 8788">
                <g id="Group_8787" data-name="Group 8787" clip-path="url(#clip-path-9)">
                  <path id="Path_8252" data-name="Path 8252" d="M41.194,51.508l-3.6,3a.548.548,0,0,1-.739,0L33.229,51.5a1.3,1.3,0,0,1,0-1.816l3.6-3a.55.55,0,0,1,.731,0L41.191,49.7a1.3,1.3,0,0,1,0,1.812" transform="translate(-32.854 -46.546)" fill="url(#linear-gradient)"/>
                </g>
              </g>
            </g>
          </g>
        </g>
      </g>
      <g id="Group_8798" data-name="Group 8798" transform="translate(0 11.075)" opacity="0.5">
        <g id="Group_8797" data-name="Group 8797">
          <g id="Group_8796" data-name="Group 8796" clip-path="url(#clip-path-2)">
            <g id="Group_8795" data-name="Group 8795">
              <g id="Group_8794" data-name="Group 8794">
                <g id="Group_8793" data-name="Group 8793" clip-path="url(#clip-path-2)">
                  <path id="Path_8253" data-name="Path 8253" d="M41.194,50.5l-3.6,3a.552.552,0,0,1-.739,0l-3.628-3.006a1.3,1.3,0,0,1,0-1.816l3.6-3a.542.542,0,0,1,.731,0l3.632,3.006a1.3,1.3,0,0,1,0,1.816" transform="translate(-32.854 -45.532)" fill="url(#linear-gradient)"/>
                </g>
              </g>
            </g>
          </g>
        </g>
      </g>
      <g id="Group_8804" data-name="Group 8804" transform="translate(0 7.383)" opacity="0.667">
        <g id="Group_8803" data-name="Group 8803">
          <g id="Group_8802" data-name="Group 8802" clip-path="url(#clip-path-2)">
            <g id="Group_8801" data-name="Group 8801">
              <g id="Group_8800" data-name="Group 8800">
                <g id="Group_8799" data-name="Group 8799" clip-path="url(#clip-path-2)">
                  <path id="Path_8254" data-name="Path 8254" d="M41.194,49.482l-3.6,3a.552.552,0,0,1-.739,0l-3.628-3.006a1.3,1.3,0,0,1,0-1.816l3.6-3a.542.542,0,0,1,.731,0l3.632,3.006a1.3,1.3,0,0,1,0,1.816" transform="translate(-32.854 -44.517)" fill="url(#linear-gradient)"/>
                </g>
              </g>
            </g>
          </g>
        </g>
      </g>
      <g id="Group_8810" data-name="Group 8810" transform="translate(0 3.692)" opacity="0.833">
        <g id="Group_8809" data-name="Group 8809">
          <g id="Group_8808" data-name="Group 8808" clip-path="url(#clip-path-2)">
            <g id="Group_8807" data-name="Group 8807">
              <g id="Group_8806" data-name="Group 8806">
                <g id="Group_8805" data-name="Group 8805" clip-path="url(#clip-path-2)">
                  <path id="Path_8255" data-name="Path 8255" d="M41.194,48.467l-3.6,3a.552.552,0,0,1-.739,0l-3.628-3.006a1.3,1.3,0,0,1,0-1.816l3.6-3a.542.542,0,0,1,.731,0l3.632,3.006a1.3,1.3,0,0,1,0,1.816" transform="translate(-32.854 -43.504)" fill="url(#linear-gradient)"/>
                </g>
              </g>
            </g>
          </g>
        </g>
      </g>
      <g id="Group_8813" data-name="Group 8813">
        <g id="Group_8812" data-name="Group 8812">
          <g id="Group_8811" data-name="Group 8811" clip-path="url(#clip-path-2)">
            <path id="Path_8256" data-name="Path 8256" d="M41.194,47.453l-3.6,3a.552.552,0,0,1-.739,0l-3.628-3.006a1.3,1.3,0,0,1,0-1.816l3.6-3a.542.542,0,0,1,.731,0l3.632,3a1.307,1.307,0,0,1,0,1.819" transform="translate(-32.854 -42.488)" fill="url(#linear-gradient)"/>
          </g>
        </g>
      </g>
      <g id="Group_8819" data-name="Group 8819" transform="translate(0 3.639)" opacity="0.85">
        <g id="Group_8818" data-name="Group 8818">
          <g id="Group_8817" data-name="Group 8817" clip-path="url(#clip-path-2)">
            <g id="Group_8816" data-name="Group 8816" opacity="0.849">
              <g id="Group_8815" data-name="Group 8815">
                <g id="Group_8814" data-name="Group 8814" clip-path="url(#clip-path-2)">
                  <path id="Path_8257" data-name="Path 8257" d="M41.194,48.453l-3.6,3a.552.552,0,0,1-.739,0l-3.628-3.006a1.3,1.3,0,0,1,0-1.816l3.6-3a.542.542,0,0,1,.731,0l3.632,3a1.307,1.307,0,0,1,0,1.819" transform="translate(-32.854 -43.488)" fill="url(#linear-gradient)"/>
                </g>
              </g>
            </g>
          </g>
        </g>
      </g>
      <g id="Group_8825" data-name="Group 8825" transform="translate(0 7.278)" opacity="0.7">
        <g id="Group_8824" data-name="Group 8824">
          <g id="Group_8823" data-name="Group 8823" clip-path="url(#clip-path-2)">
            <g id="Group_8822" data-name="Group 8822" opacity="0.698">
              <g id="Group_8821" data-name="Group 8821">
                <g id="Group_8820" data-name="Group 8820" clip-path="url(#clip-path-2)">
                  <path id="Path_8258" data-name="Path 8258" d="M41.194,49.453l-3.6,3a.552.552,0,0,1-.739,0l-3.628-3.006a1.3,1.3,0,0,1,0-1.816l3.6-3a.542.542,0,0,1,.731,0l3.632,3a1.307,1.307,0,0,1,0,1.819" transform="translate(-32.854 -44.488)" fill="url(#linear-gradient)"/>
                </g>
              </g>
            </g>
          </g>
        </g>
      </g>
      <g id="Group_8831" data-name="Group 8831" transform="translate(0 10.917)" opacity="0.55">
        <g id="Group_8830" data-name="Group 8830">
          <g id="Group_8829" data-name="Group 8829" clip-path="url(#clip-path-2)">
            <g id="Group_8828" data-name="Group 8828" opacity="0.548">
              <g id="Group_8827" data-name="Group 8827">
                <g id="Group_8826" data-name="Group 8826" clip-path="url(#clip-path-2)">
                  <path id="Path_8259" data-name="Path 8259" d="M41.194,50.453l-3.6,3a.552.552,0,0,1-.739,0l-3.628-3a1.3,1.3,0,0,1,0-1.816l3.6-3a.547.547,0,0,1,.735,0l3.632,3a1.307,1.307,0,0,1,0,1.819" transform="translate(-32.854 -45.488)" fill="url(#linear-gradient)"/>
                </g>
              </g>
            </g>
          </g>
        </g>
      </g>
      <g id="Group_8837" data-name="Group 8837" transform="translate(0 14.556)" opacity="0.4">
        <g id="Group_8836" data-name="Group 8836">
          <g id="Group_8835" data-name="Group 8835" clip-path="url(#clip-path-2)">
            <g id="Group_8834" data-name="Group 8834" opacity="0.397">
              <g id="Group_8833" data-name="Group 8833">
                <g id="Group_8832" data-name="Group 8832" clip-path="url(#clip-path-2)">
                  <path id="Path_8260" data-name="Path 8260" d="M41.194,51.453l-3.6,3a.552.552,0,0,1-.739,0l-3.628-3a1.3,1.3,0,0,1,0-1.816l3.6-3a.547.547,0,0,1,.735,0l3.632,3a1.307,1.307,0,0,1,0,1.819" transform="translate(-32.854 -46.488)" fill="url(#linear-gradient)"/>
                </g>
              </g>
            </g>
          </g>
        </g>
      </g>
      <g id="Group_8843" data-name="Group 8843" transform="translate(0 18.196)" opacity="0.25">
        <g id="Group_8842" data-name="Group 8842">
          <g id="Group_8841" data-name="Group 8841" clip-path="url(#clip-path-2)">
            <g id="Group_8840" data-name="Group 8840" opacity="0.246">
              <g id="Group_8839" data-name="Group 8839">
                <g id="Group_8838" data-name="Group 8838" clip-path="url(#clip-path-2)">
                  <path id="Path_8261" data-name="Path 8261" d="M41.194,52.453l-3.6,3a.552.552,0,0,1-.739,0l-3.628-3a1.3,1.3,0,0,1,0-1.816l3.6-3a.547.547,0,0,1,.735,0l3.632,3a1.307,1.307,0,0,1,0,1.819" transform="translate(-32.854 -47.489)" fill="url(#linear-gradient)"/>
                </g>
              </g>
            </g>
          </g>
        </g>
      </g>
      <g id="Group_8849" data-name="Group 8849" transform="translate(0 21.834)" opacity="0.1">
        <g id="Group_8848" data-name="Group 8848">
          <g id="Group_8847" data-name="Group 8847" clip-path="url(#clip-path-2)">
            <g id="Group_8846" data-name="Group 8846" opacity="0.095">
              <g id="Group_8845" data-name="Group 8845">
                <g id="Group_8844" data-name="Group 8844" clip-path="url(#clip-path-2)">
                  <path id="Path_8262" data-name="Path 8262" d="M41.194,53.452l-3.6,3a.56.56,0,0,1-.739,0l-3.628-3a1.3,1.3,0,0,1,0-1.816l3.6-3a.543.543,0,0,1,.735,0l3.632,3.006a1.3,1.3,0,0,1,0,1.816" transform="translate(-32.854 -48.488)" fill="url(#linear-gradient)"/>
                </g>
              </g>
            </g>
          </g>
        </g>
      </g>
    </g>
  </g>
</svg>
