<svg xmlns="http://www.w3.org/2000/svg" width="15.135" height="21.999" viewBox="0 0 15.135 21.999">
  <g id="up" transform="translate(13.635 20.499) rotate(180)" fill="none" stroke-linejoin="round">
    <path d="M8.188,12.595V.541A.541.541,0,0,0,7.646,0H4.489a.541.541,0,0,0-.542.541V12.595H0L6.067,19l6.068-6.4Z" stroke="#fff" stroke-width="2" />
    <path d="M 6.067491054534912 18.99893569946289 L 12.13500118255615 12.59451580047607 L 8.187861442565918 12.59451580047607 L 8.187861442565918 0.5414759516716003 C 8.187861442565918 0.2422259449958801 7.945761203765869 -4.057617388752988e-06 7.646271228790283 -4.057617388752988e-06 L 4.48875093460083 -4.057617388752988e-06 C 4.189791202545166 -4.057617388752988e-06 3.947160959243774 0.2422259449958801 3.947160959243774 0.5414759516716003 L 3.947160959243774 12.59451580047607 L 1.068115238922474e-06 12.59451580047607 L 6.067491054534912 18.99893569946289 M 6.067491054534912 20.49893569946289 C 5.655611038208008 20.49893569946289 5.261850833892822 20.32956504821777 4.978570938110352 20.03056526184082 L -1.088918924331665 13.62614631652832 C -1.501108884811401 13.19106578826904 -1.614748954772949 12.55238628387451 -1.377938985824585 12.00182628631592 C -1.141128897666931 11.45126628875732 -0.5993289351463318 11.09451580047607 1.068115238922474e-06 11.09451580047607 L 2.447160959243774 11.09451580047607 L 2.447160959243774 0.5414759516716003 C 2.447160959243774 -0.5842040777206421 3.363011121749878 -1.500004053115845 4.48875093460083 -1.500004053115845 L 7.646271228790283 -1.500004053115845 C 8.772010803222656 -1.500004053115845 9.687861442565918 -0.5842040777206421 9.687861442565918 0.5414759516716003 L 9.687861442565918 11.09451580047607 L 12.13500118255615 11.09451580047607 C 12.73433113098145 11.09451580047607 13.27613067626953 11.45127582550049 13.51294136047363 12.00182628631592 C 13.74975109100342 12.55238628387451 13.63611125946045 13.19106578826904 13.22392082214355 13.62614631652832 L 7.156411170959473 20.03056526184082 C 6.873131275177002 20.32956504821777 6.479371070861816 20.49893569946289 6.067491054534912 20.49893569946289 Z" stroke="none"/>
  </g>
</svg>
