<svg xmlns="http://www.w3.org/2000/svg" width="39.794" height="39.795" viewBox="0 0 39.794 39.795">
  <g id="benefits_health" transform="translate(-384.75 -1536.75)">
    <g id="Group_3189" data-name="Group 3189" transform="translate(406.388 1555.777)">
      <path id="Path_3994" data-name="Path 3994" d="M406.21,1548H406.2c-1.828,2.334-4.82,3.006-8.7.292v12.762s1.339,4.9,8.7,6.963c7.365-2.063,8.7-6.963,8.7-6.963v-12.762C411.079,1550.975,408.059,1550.36,406.21,1548Z" transform="translate(-397.5 -1548)" fill="none" stroke="#707070" stroke-linecap="round" stroke-linejoin="round" stroke-width="1.5"/>
      <line id="Line_2581" data-name="Line 2581" y1="8.703" transform="translate(8.703 5.222)" fill="none" stroke="#707070" stroke-linecap="round" stroke-linejoin="round" stroke-width="1.5"/>
      <line id="Line_2582" data-name="Line 2582" x2="8.703" transform="translate(4.352 9.574)" fill="none" stroke="#707070" stroke-linecap="round" stroke-linejoin="round" stroke-width="1.5"/>
    </g>
    <g id="Group_3190" data-name="Group 3190" transform="translate(385.5 1537.5)">
      <path id="Path_3995" data-name="Path 3995" d="M408.463,1552.555V1539.5h-6.621" transform="translate(-373.65 -1536.019)" fill="none" stroke="#707070" stroke-linecap="round" stroke-linejoin="round" stroke-width="1.5"/>
      <path id="Path_3996" data-name="Path 3996" d="M392.463,1539.5H385.5v27.85h16.536" transform="translate(-385.5 -1536.019)" fill="none" stroke="#707070" stroke-linecap="round" stroke-linejoin="round" stroke-width="1.5"/>
      <rect id="Rectangle_670" data-name="Rectangle 670" width="5" height="7" transform="translate(7 0)" fill="none" stroke="#707070" stroke-linecap="round" stroke-linejoin="round" stroke-width="1.5"/>
      <rect id="Rectangle_671" data-name="Rectangle 671" width="5" height="7" transform="translate(23 0)" fill="none" stroke="#707070" stroke-linecap="round" stroke-linejoin="round" stroke-width="1.5"/>
      <line id="Line_2583" data-name="Line 2583" x2="11" transform="translate(12 3)" fill="none" stroke="#707070" stroke-linecap="round" stroke-linejoin="round" stroke-width="1.5"/>
      <line id="Line_2584" data-name="Line 2584" x2="34" transform="translate(0 12)" fill="none" stroke="#707070" stroke-linecap="round" stroke-linejoin="round" stroke-width="1.5"/>
    </g>
  </g>
</svg>
