<svg xmlns="http://www.w3.org/2000/svg" xmlns:xlink="http://www.w3.org/1999/xlink" width="58.294" height="54.813" viewBox="0 0 58.294 54.813">
  <defs>
    <filter id="Path_3994" x="20.888" y="14.795" width="37.406" height="40.018" filterUnits="userSpaceOnUse">
      <feOffset dy="3" input="SourceAlpha"/>
      <feGaussianBlur stdDeviation="3" result="blur"/>
      <feFlood flood-opacity="0.161"/>
      <feComposite operator="in" in2="blur"/>
      <feComposite in="SourceGraphic"/>
    </filter>
    <filter id="Path_3995" x="27.85" y="0" width="26.963" height="33.055" filterUnits="userSpaceOnUse">
      <feOffset dy="3" input="SourceAlpha"/>
      <feGaussianBlur stdDeviation="3" result="blur-2"/>
      <feFlood flood-opacity="0.161"/>
      <feComposite operator="in" in2="blur-2"/>
      <feComposite in="SourceGraphic"/>
    </filter>
    <filter id="Path_3996" x="0" y="0" width="36.536" height="47.85" filterUnits="userSpaceOnUse">
      <feOffset dy="3" input="SourceAlpha"/>
      <feGaussianBlur stdDeviation="3" result="blur-3"/>
      <feFlood flood-opacity="0.161"/>
      <feComposite operator="in" in2="blur-3"/>
      <feComposite in="SourceGraphic"/>
    </filter>
    <filter id="Line_2584" x="0" y="8.518" width="54" height="20" filterUnits="userSpaceOnUse">
      <feOffset dy="3" input="SourceAlpha"/>
      <feGaussianBlur stdDeviation="3" result="blur-4"/>
      <feFlood flood-opacity="0.161"/>
      <feComposite operator="in" in2="blur-4"/>
      <feComposite in="SourceGraphic"/>
    </filter>
  </defs>
  <g id="benefits_health" transform="translate(-375.5 -1533.981)">
    <g id="Group_3189" data-name="Group 3189" transform="translate(406.388 1555.777)">
      <g transform="matrix(1, 0, 0, 1, -30.89, -21.8)" filter="url(#Path_3994)">
        <path id="Path_3994-2" data-name="Path 3994" d="M406.21,1548H406.2c-1.828,2.334-4.82,3.006-8.7.292v12.762s1.339,4.9,8.7,6.963c7.365-2.063,8.7-6.963,8.7-6.963v-12.762C411.079,1550.975,408.059,1550.36,406.21,1548Z" transform="translate(-366.61 -1526.2)" fill="none" stroke="#007ee1" stroke-linecap="round" stroke-linejoin="round" stroke-width="2"/>
      </g>
      <line id="Line_2581" data-name="Line 2581" y1="8.703" transform="translate(8.703 5.222)" fill="none" stroke="#007ee1" stroke-linecap="round" stroke-linejoin="round" stroke-width="2"/>
      <line id="Line_2582" data-name="Line 2582" x2="8.703" transform="translate(4.352 9.574)" fill="none" stroke="#007ee1" stroke-linecap="round" stroke-linejoin="round" stroke-width="2"/>
    </g>
    <g id="Group_3190" data-name="Group 3190" transform="translate(385.5 1537.5)">
      <g transform="matrix(1, 0, 0, 1, -10, -3.52)" filter="url(#Path_3995)">
        <path id="Path_3995-2" data-name="Path 3995" d="M408.463,1552.555V1539.5H401.5" transform="translate(-363.65 -1532.5)" fill="none" stroke="#007ee1" stroke-linecap="round" stroke-linejoin="round" stroke-width="2"/>
      </g>
      <g transform="matrix(1, 0, 0, 1, -10, -3.52)" filter="url(#Path_3996)">
        <path id="Path_3996-2" data-name="Path 3996" d="M392.463,1539.5H385.5v27.85h16.536" transform="translate(-375.5 -1532.5)" fill="none" stroke="#007ee1" stroke-linecap="round" stroke-linejoin="round" stroke-width="2"/>
      </g>
      <rect id="Rectangle_670" data-name="Rectangle 670" width="5" height="7" transform="translate(7 0)" fill="none" stroke="#007ee1" stroke-linecap="round" stroke-linejoin="round" stroke-width="2"/>
      <rect id="Rectangle_671" data-name="Rectangle 671" width="5" height="7" transform="translate(23 0)" fill="none" stroke="#007ee1" stroke-linecap="round" stroke-linejoin="round" stroke-width="2"/>
      <line id="Line_2583" data-name="Line 2583" x2="11" transform="translate(12 3)" fill="none" stroke="#007ee1" stroke-linecap="round" stroke-linejoin="round" stroke-width="2"/>
      <g transform="matrix(1, 0, 0, 1, -10, -3.52)" filter="url(#Line_2584)">
        <line id="Line_2584-2" data-name="Line 2584" x2="34" transform="translate(10 15.52)" fill="none" stroke="#007ee1" stroke-linecap="round" stroke-linejoin="round" stroke-width="2"/>
      </g>
    </g>
  </g>
</svg>
