<svg xmlns="http://www.w3.org/2000/svg" width="40.256" height="40.256" viewBox="0 0 40.256 40.256">
  <g id="benefits_mentoring" transform="translate(-336.75 -3504.75)">
    <path id="Path_2835" data-name="Path 2835" d="M346.768,3521.3v3.65l-6.641,2.378a3.973,3.973,0,0,0-2.627,3.761v2.507h25.276v-2.507a3.972,3.972,0,0,0-2.627-3.761l-6.641-2.378v-3.885" transform="translate(0 10.661)" fill="none" stroke="#707070" stroke-linejoin="round" stroke-width="1.5"/>
    <path id="Path_2836" data-name="Path 2836" d="M354.257,3520.3c0,4.408-2.977,7.982-6.653,7.982s-6.651-3.574-6.651-7.982,2.977-7.98,6.651-7.98S354.257,3515.89,354.257,3520.3Z" transform="translate(2.366 4.669)" fill="none" stroke="#707070" stroke-linejoin="round" stroke-width="1.5"/>
    <path id="Path_2837" data-name="Path 2837" d="M354.171,3517.646c-.224.029-.379.013-.6.055-2.266.437-3.721-.385-4.967-2.566-.75,1.432-3.087,2.566-5.01,2.566a5.4,5.4,0,0,1-2.6-.6" transform="translate(2.392 6.6)" fill="none" stroke="#707070" stroke-linejoin="round" stroke-width="1.5"/>
    <path id="Path_2838" data-name="Path 2838" d="M347.5,3515.611c0-5.586,4.9-10.11,10.953-10.11s10.953,4.525,10.953,10.11a10.135,10.135,0,0,1-6.74,9.333c-.843.776-5.9,4.99-6.747,5.832,0-.842,0-4.212.007-5.173a11.493,11.493,0,0,1-2.563-.667" transform="translate(6.85 0)" fill="none" stroke="#707070" stroke-linejoin="round" stroke-width="1.5"/>
    <g id="Group_2184" data-name="Group 2184" transform="translate(368.673 3515.61)">
      <g id="Group_2183" data-name="Group 2183">
        <g id="Path_2839" data-name="Path 2839" transform="translate(-356 -3511.5)" fill="none" stroke-miterlimit="10">
          <path d="M357.685,3511.5H356v1.685h1.685V3511.5Z" stroke="none"/>
          <path d="M 356 3511.50048828125 L 357.6851196289063 3511.50048828125 L 357.6851196289063 3513.185302734375 L 356 3513.185302734375 L 356 3511.50048828125 Z" stroke="none" fill="#707070"/>
        </g>
      </g>
    </g>
    <g id="Group_2186" data-name="Group 2186" transform="translate(364.461 3515.61)">
      <g id="Group_2185" data-name="Group 2185">
        <g id="Path_2840" data-name="Path 2840" transform="translate(-353.5 -3511.5)" fill="none" stroke-miterlimit="10">
          <path d="M355.185,3511.5H353.5v1.685h1.685V3511.5Z" stroke="none"/>
          <path d="M 353.5000610351563 3511.50048828125 L 355.18505859375 3511.50048828125 L 355.18505859375 3513.185302734375 L 353.5000610351563 3513.185302734375 L 353.5000610351563 3511.50048828125 Z" stroke="none" fill="#707070"/>
        </g>
      </g>
    </g>
    <g id="Group_2188" data-name="Group 2188" transform="translate(360.248 3515.61)">
      <g id="Group_2187" data-name="Group 2187">
        <g id="Path_2841" data-name="Path 2841" transform="translate(-351 -3511.5)" fill="none" stroke-miterlimit="10">
          <path d="M352.685,3511.5H351v1.685h1.685V3511.5Z" stroke="none"/>
          <path d="M 351.0000305175781 3511.50048828125 L 352.6850280761719 3511.50048828125 L 352.6850280761719 3513.185302734375 L 351.0000305175781 3513.185302734375 L 351.0000305175781 3511.50048828125 Z" stroke="none" fill="#707070"/>
        </g>
      </g>
    </g>
  </g>
</svg>
