<svg xmlns="http://www.w3.org/2000/svg" width="38.555" height="37.715" viewBox="0 0 38.555 37.715">
  <g id="benefits_skill" transform="translate(-4879.157 -1507.166)">
    <g id="Group_10020" data-name="Group 10020" transform="translate(4497 -356)">
      <path id="Path_1495" data-name="Path 1495" d="M364.833,877.536a6.265,6.265,0,0,0,6.877-1.337,6.082,6.082,0,0,0,1.34-6.762l-3,3.115h-3.557V869l3.116-3a6.174,6.174,0,0,0-6.819,1.338,6.26,6.26,0,0,0-1.312,6.878l-15.266,15.3a6.262,6.262,0,0,0-6.877,1.338,6.079,6.079,0,0,0-1.34,6.761l3-3.116h3.559v3.556l-3.117,3a6.174,6.174,0,0,0,6.819-1.338,6.257,6.257,0,0,0,1.312-6.877Z" transform="translate(-482.5 2237.546) rotate(-90)" fill="none" stroke="#707070" stroke-linejoin="round" stroke-width="1.5"/>
      <g id="Group_30" data-name="Group 30" transform="translate(285.929 1622.461)">
        <path id="Path_42" data-name="Path 42" d="M105.387,274.741l-7.174,2.016,2.207-6.777,27.408-27.413a3.518,3.518,0,0,1,4.97,0h0a3.276,3.276,0,0,1,0,4.766Z" transform="translate(0 0)" fill="none" stroke="#707070" stroke-linecap="round" stroke-linejoin="round" stroke-width="1.5"/>
        <path id="Path_10149" data-name="Path 10149" d="M4.984,4.7.125-.05" transform="translate(126.586 243.81)" fill="none" stroke="#707070" stroke-linecap="round" stroke-width="1.5"/>
        <path id="Path_10148" data-name="Path 10148" d="M4.907,4.806.075.052" transform="translate(124.102 246.295)" fill="none" stroke="#707070" stroke-linecap="round" stroke-width="1.5"/>
        <path id="Path_12185" data-name="Path 12185" d="M3.157,3.1.767.713" transform="translate(115.102 256.295)" fill="none" stroke="#fff" stroke-linecap="square" stroke-width="2"/>
        <path id="Path_12186" data-name="Path 12186" d="M2.751,2.51.329.15" transform="translate(112.102 260.295)" fill="none" stroke="#fff" stroke-linecap="square" stroke-width="2"/>
        <path id="Path_10147" data-name="Path 10147" d="M4.671,5.013-.187.26" transform="translate(100.862 269.536)" fill="none" stroke="#707070" stroke-linecap="round" stroke-width="1.5"/>
      </g>
      <path id="Path_10151" data-name="Path 10151" d="M3.031,4.422" transform="translate(398.5 1881.5)" fill="#dce3e9" stroke="#dce3e9" stroke-width="1.8"/>
    </g>
  </g>
</svg>
