<svg xmlns="http://www.w3.org/2000/svg" xmlns:xlink="http://www.w3.org/1999/xlink" width="55.84" height="55.841" viewBox="0 0 55.84 55.841">
  <defs>
    <filter id="Path_33" x="0" y="0" width="55.84" height="55.841" filterUnits="userSpaceOnUse">
      <feOffset dy="3" input="SourceAlpha"/>
      <feGaussianBlur stdDeviation="3" result="blur"/>
      <feFlood flood-opacity="0.161"/>
      <feComposite operator="in" in2="blur"/>
      <feComposite in="SourceGraphic"/>
    </filter>
    <filter id="Path_34" x="9.43" y="9.433" width="36.978" height="36.978" filterUnits="userSpaceOnUse">
      <feOffset dy="3" input="SourceAlpha"/>
      <feGaussianBlur stdDeviation="3" result="blur-2"/>
      <feFlood flood-opacity="0.161"/>
      <feComposite operator="in" in2="blur-2"/>
      <feComposite in="SourceGraphic"/>
    </filter>
  </defs>
  <g id="benefits_challenging" transform="translate(-883.273 -382.271)">
    <g transform="matrix(1, 0, 0, 1, 883.27, 382.27)" filter="url(#Path_33)">
      <path id="Path_33-2" data-name="Path 33" d="M927.253,405.334a17.92,17.92,0,1,1-17.92-17.922A17.919,17.919,0,0,1,927.253,405.334Z" transform="translate(-881.41 -380.41)" fill="none" stroke="#008ae9" stroke-linecap="round" stroke-linejoin="round" stroke-width="2"/>
    </g>
    <g transform="matrix(1, 0, 0, 1, 883.27, 382.27)" filter="url(#Path_34)">
      <path id="Path_34-2" data-name="Path 34" d="M913.173,400.685a8.489,8.489,0,1,1-8.488-8.49A8.487,8.487,0,0,1,913.173,400.685Z" transform="translate(-876.76 -375.76)" fill="none" stroke="#008ae9" stroke-linecap="round" stroke-linejoin="round" stroke-width="2"/>
    </g>
    <line id="Line_41" data-name="Line 41" y2="43" transform="translate(911.5 385.5)" fill="none" stroke="#008ae9" stroke-linecap="round" stroke-linejoin="round" stroke-width="2"/>
    <line id="Line_42" data-name="Line 42" x1="43" transform="translate(889.5 407.5)" fill="none" stroke="#008ae9" stroke-linecap="round" stroke-linejoin="round" stroke-width="2"/>
  </g>
</svg>
