<svg xmlns="http://www.w3.org/2000/svg" xmlns:xlink="http://www.w3.org/1999/xlink" width="56.555" height="55.715" viewBox="0 0 56.555 55.715">
  <defs>
    <filter id="Path_1495" x="0" y="0" width="55.732" height="55.715" filterUnits="userSpaceOnUse">
      <feOffset dy="3" input="SourceAlpha"/>
      <feGaussianBlur stdDeviation="3" result="blur"/>
      <feFlood flood-opacity="0.161"/>
      <feComposite operator="in" in2="blur"/>
      <feComposite in="SourceGraphic"/>
    </filter>
    <filter id="Path_42" x="1.235" y="0.084" width="55.32" height="54.718" filterUnits="userSpaceOnUse">
      <feOffset dy="3" input="SourceAlpha"/>
      <feGaussianBlur stdDeviation="3" result="blur-2"/>
      <feFlood flood-opacity="0.161"/>
      <feComposite operator="in" in2="blur-2"/>
      <feComposite in="SourceGraphic"/>
    </filter>
  </defs>
  <g id="benefits_skill" transform="translate(-373.157 -1857.166)">
    <g transform="matrix(1, 0, 0, 1, 373.16, 1857.17)" filter="url(#Path_1495)">
      <path id="Path_1495-2" data-name="Path 1495" d="M364.833,877.536a6.265,6.265,0,0,0,6.877-1.337,6.082,6.082,0,0,0,1.34-6.762l-3,3.115h-3.557V869l3.116-3a6.174,6.174,0,0,0-6.819,1.338,6.26,6.26,0,0,0-1.312,6.878l-15.266,15.3a6.262,6.262,0,0,0-6.877,1.338,6.079,6.079,0,0,0-1.34,6.761l3-3.116h3.559v3.556l-3.117,3a6.174,6.174,0,0,0,6.819-1.338,6.257,6.257,0,0,0,1.312-6.877Z" transform="translate(-855.66 380.38) rotate(-90)" fill="none" stroke="#008ae9" stroke-linejoin="round" stroke-width="1.5"/>
    </g>
    <g id="Group_30" data-name="Group 30" transform="translate(285.929 1622.461)">
      <g transform="matrix(1, 0, 0, 1, 87.23, 234.7)" filter="url(#Path_42)">
        <path id="Path_42-2" data-name="Path 42" d="M105.387,274.741l-7.174,2.016,2.207-6.777,27.408-27.413a3.518,3.518,0,0,1,4.97,0h0a3.276,3.276,0,0,1,0,4.766Z" transform="translate(-87.23 -234.7)" fill="none" stroke="#008ae9" stroke-linecap="round" stroke-linejoin="round" stroke-width="1.5"/>
      </g>
      <path id="Path_10149" data-name="Path 10149" d="M4.889,4.719,0,0" transform="translate(126.586 243.81)" fill="none" stroke="#008ae9" stroke-linecap="round" stroke-width="1.5"/>
      <path id="Path_10148" data-name="Path 10148" d="M4.831,4.722,0,0" transform="translate(124.102 246.295)" fill="none" stroke="#008ae9" stroke-linecap="round" stroke-width="1.5"/>
      <path id="Path_10147" data-name="Path 10147" d="M4.767,5,0,0" transform="translate(100.862 269.536)" fill="none" stroke="#008ae9" stroke-linecap="round" stroke-width="1.5"/>
    </g>
    <path id="Path_10150" data-name="Path 10150" d="M-.453.313l3.844,3.75" transform="translate(401.5 1878.5)" fill="none" stroke="#e5ecf3" stroke-width="1.8"/>
    <path id="Path_10151" data-name="Path 10151" d="M-.781.625l3.813,3.8" transform="translate(398.5 1881.5)" fill="#dce3e9" stroke="#dce3e9" stroke-width="1.8"/>
  </g>
</svg>
