<svg xmlns="http://www.w3.org/2000/svg" xmlns:xlink="http://www.w3.org/1999/xlink" width="44.416" height="39.838" viewBox="0 0 44.416 39.838">
  <defs>
    <filter id="Path_5934" x="15.451" y="0" width="28.965" height="27.388" filterUnits="userSpaceOnUse">
      <feOffset dy="3" input="SourceAlpha"/>
      <feGaussianBlur stdDeviation="3" result="blur"/>
      <feFlood flood-opacity="0.161"/>
      <feComposite operator="in" in2="blur"/>
      <feComposite in="SourceGraphic"/>
    </filter>
  </defs>
  <g id="benefits_english" transform="translate(-1128.75 -3358.694)">
    <line id="Line_4104" data-name="Line 4104" x2="12.571" transform="translate(1132.704 3367.81)" fill="none" stroke="#707070" stroke-linecap="round" stroke-linejoin="round" stroke-width="1.5"/>
    <line id="Line_4105" data-name="Line 4105" y2="3.155" transform="translate(1138.965 3364.655)" fill="none" stroke="#707070" stroke-linecap="round" stroke-linejoin="round" stroke-width="1.5"/>
    <path id="Path_5927" data-name="Path 5927" d="M1141.465,3365.5a13.587,13.587,0,0,1-9.465,9.465" transform="translate(1.444 2.31)" fill="none" stroke="#707070" stroke-linecap="round" stroke-linejoin="round" stroke-width="1.5"/>
    <path id="Path_5928" data-name="Path 5928" d="M1133,3365.5a13.587,13.587,0,0,0,9.465,9.465" transform="translate(2.021 2.31)" fill="none" stroke="#707070" stroke-linecap="round" stroke-linejoin="round" stroke-width="1.5"/>
    <path id="Path_5929" data-name="Path 5929" d="M1143.5,3387.121l4.732-12.62,4.733,12.62" transform="translate(8.085 7.507)" fill="none" stroke="#707070" stroke-linecap="round" stroke-linejoin="round" stroke-width="1.5"/>
    <line id="Line_4106" data-name="Line 4106" x2="7.117" transform="translate(1152.768 3391.472)" fill="none" stroke="#707070" stroke-linejoin="round" stroke-width="1.5"/>
    <rect id="Rectangle_1095" data-name="Rectangle 1095" width="18.93" height="18.93" transform="translate(1129.5 3361.5)" fill="none" stroke="#707070" stroke-linecap="round" stroke-linejoin="round" stroke-width="1.5"/>
    <path id="Path_5930" data-name="Path 5930" d="M1146.021,3372.5h13.409v18.929H1140.5v-13.408" transform="translate(6.352 6.352)" fill="none" stroke="#707070" stroke-linecap="round" stroke-linejoin="round" stroke-width="1.5"/>
    <path id="Path_5931" data-name="Path 5931" d="M1135,3386.311l3.155-3.155L1135,3380" transform="translate(3.176 10.683)" fill="none" stroke="#707070" stroke-linecap="round" stroke-linejoin="round" stroke-width="1.5"/>
    <path id="Path_5932" data-name="Path 5932" d="M1131,3377a7.886,7.886,0,0,0,7.887,7.887h1.577" transform="translate(0.866 8.951)" fill="none" stroke="#707070" stroke-linecap="round" stroke-linejoin="round" stroke-width="1.5"/>
    <path id="Path_5933" data-name="Path 5933" d="M1148.155,3362l-3.155,3.155,3.155,3.155" transform="translate(8.951 0.288)" fill="none" stroke="#707070" stroke-linecap="round" stroke-linejoin="round" stroke-width="1.5"/>
    <g transform="matrix(1, 0, 0, 1, 1128.75, 3358.69)" filter="url(#Path_5934)">
      <path id="Path_5934-2" data-name="Path 5934" d="M1154.465,3371.888a7.887,7.887,0,0,0-7.887-7.888H1145" transform="translate(-1119.8 -3357.25)" fill="none" stroke="#707070" stroke-linecap="round" stroke-linejoin="round" stroke-width="1.5"/>
    </g>
  </g>
</svg>
