<svg xmlns="http://www.w3.org/2000/svg" width="37.371" height="37.372" viewBox="0 0 37.371 37.372">
  <g id="business_solution" transform="translate(-1461.158 -1511.111)">
    <g id="Group_8169" data-name="Group 8169" transform="translate(1124.5 646.454)">
      <path id="Path_1495" data-name="Path 1495" d="M364.562,877.417a6.2,6.2,0,0,0,6.808-1.323,6.022,6.022,0,0,0,1.327-6.7l-2.97,3.085H366.2V868.96l3.085-2.97a6.112,6.112,0,0,0-6.751,1.325,6.2,6.2,0,0,0-1.3,6.81l-15.114,15.145a6.2,6.2,0,0,0-6.808,1.325,6.019,6.019,0,0,0-1.327,6.694l2.97-3.085h3.524v3.521L341.4,900.7a6.112,6.112,0,0,0,6.751-1.325,6.2,6.2,0,0,0,1.3-6.808Z" transform="translate(0)" fill="none" stroke="#707070" stroke-linejoin="round" stroke-width="1.5"/>
      <path id="Path_1496" data-name="Path 1496" d="M349,880.3l5.927,5.918a6.2,6.2,0,0,0,1.325,6.807,6.019,6.019,0,0,0,6.694,1.327l-3.085-2.971v-3.522h3.522l2.97,3.086a6.112,6.112,0,0,0-1.325-6.751,6.2,6.2,0,0,0-6.81-1.3l-5.91-5.9" transform="translate(6.344 6.342)" fill="none" stroke="#707070" stroke-linejoin="round" stroke-width="1.5"/>
      <path id="Path_1497" data-name="Path 1497" d="M355.342,880.04l-5.926-5.915a6.2,6.2,0,0,0-1.325-6.808,6.019,6.019,0,0,0-6.694-1.327l3.085,2.97v3.522H340.96l-2.97-3.085a6.112,6.112,0,0,0,1.325,6.751,6.2,6.2,0,0,0,6.81,1.3l5.91,5.9" transform="translate(0 0)" fill="none" stroke="#707070" stroke-linejoin="round" stroke-width="1.5"/>
    </g>
  </g>
</svg>
