<svg xmlns="http://www.w3.org/2000/svg" width="41.387" height="36.185" viewBox="0 0 41.387 36.185">
  <g id="business_mobility" transform="translate(-1128.75 -2208.75)">
    <path id="Path_8100" data-name="Path 8100" d="M1136.437,2238.982h-3.469a3.478,3.478,0,0,1-3.469-3.468v-22.545a3.479,3.479,0,0,1,3.469-3.469h13.874a3.479,3.479,0,0,1,3.469,3.469v6.937" transform="translate(0)" fill="none" stroke="#707070" stroke-linecap="round" stroke-linejoin="round" stroke-width="1.5"/>
    <line id="Line_6011" data-name="Line 6011" x2="6.937" transform="translate(1129.5 2232.045)" fill="none" stroke="#707070" stroke-linecap="round" stroke-linejoin="round" stroke-width="1.5"/>
    <path id="Path_8101" data-name="Path 8101" d="M1153.968,2229.64v-8.671a3.479,3.479,0,0,0-3.469-3.469" transform="translate(15.419 5.874)" fill="none" stroke="#707070" stroke-linecap="round" stroke-linejoin="round" stroke-width="1.5"/>
    <path id="Path_8102" data-name="Path 8102" d="M1145.906,2217.5h-6.937a3.479,3.479,0,0,0-3.469,3.469v13.874a3.478,3.478,0,0,0,3.469,3.469h22.792" transform="translate(4.405 5.874)" fill="none" stroke="#707070" stroke-linecap="round" stroke-linejoin="round" stroke-width="1.5"/>
    <line id="Line_6012" data-name="Line 6012" y2="20.811" transform="translate(1146.842 2223.374)" fill="none" stroke="#707070" stroke-linecap="round" stroke-linejoin="round" stroke-width="1.5"/>
    <rect id="Rectangle_1609" data-name="Rectangle 1609" width="8.671" height="15.608" rx="1" transform="translate(1153.779 2209.5)" fill="none" stroke="#707070" stroke-linecap="round" stroke-linejoin="round" stroke-width="1.5"/>
    <line id="Line_6013" data-name="Line 6013" x2="8.671" transform="translate(1153.779 2221.639)" fill="none" stroke="#707070" stroke-linecap="round" stroke-linejoin="round" stroke-width="1.5"/>
    <line id="Line_6015" data-name="Line 6015" x2="8.671" transform="translate(1153.779 2212.968)" fill="none" stroke="#707070" stroke-linecap="round" stroke-linejoin="round" stroke-width="1.5"/>
    <line id="Line_6016" data-name="Line 6016" x2="20.811" transform="translate(1129.5 2214.703)" fill="none" stroke="#707070" stroke-linecap="round" stroke-linejoin="round" stroke-width="1.5"/>
    <line id="Line_6017" data-name="Line 6017" y2="16.878" transform="translate(1164.183 2227.084)" fill="none" stroke="#707070" stroke-linecap="round" stroke-linejoin="round" stroke-width="1.5"/>
    <path id="Path_8103" data-name="Path 8103" d="M1153.971,2220.486v5.071a3.658,3.658,0,0,1-3.483,3.658" transform="translate(15.416 14.927)" fill="none" stroke="#707070" stroke-linecap="round" stroke-linejoin="round" stroke-width="1.5"/>
  </g>
</svg>
