<svg xmlns="http://www.w3.org/2000/svg" width="39.496" height="40.005" viewBox="0 0 39.496 40.005">
  <g id="business_outsourcing" transform="translate(-1120.262 -1826.02)">
    <g id="Group_5606" data-name="Group 5606" transform="translate(-8.488 -1342.463)">
      <g id="Group_5604" data-name="Group 5604" transform="translate(1152.385 3190.957)">
        <g id="Group_5603" data-name="Group 5603">
          <path id="Path_7706" data-name="Path 7706" d="M1155.367,3188.5c0,3.313-6,10.5-6,10.5s-6-7.188-6-10.5a6,6,0,1,1,12,0Z" transform="translate(-1143.364 -3182.499)" fill="none" stroke="#707070" stroke-linecap="round" stroke-linejoin="round" stroke-width="1.5"/>
          <path id="Path_7707" data-name="Path 7707" d="M1150.137,3187.023a2.25,2.25,0,1,1-2.25-2.252A2.249,2.249,0,0,1,1150.137,3187.023Z" transform="translate(-1141.885 -3181.021)" fill="none" stroke="#707070" stroke-linecap="round" stroke-linejoin="round" stroke-width="1.5"/>
        </g>
      </g>
      <g id="Group_5605" data-name="Group 5605" transform="translate(1129.5 3169.5)">
        <line id="Line_5703" data-name="Line 5703" x2="16.698" transform="translate(2.308 28.061)" fill="none" stroke="#707070" stroke-linecap="round" stroke-linejoin="round" stroke-width="1.5"/>
        <line id="Line_5704" data-name="Line 5704" x2="31.337" transform="translate(3.321 8.253)" fill="none" stroke="#707070" stroke-linejoin="round" stroke-width="1.5"/>
        <line id="Line_5705" data-name="Line 5705" x1="37.947" transform="translate(0.018 18.157)" fill="none" stroke="#707070" stroke-linecap="round" stroke-linejoin="round" stroke-width="1.5"/>
        <path id="Path_7708" data-name="Path 7708" d="M1147.456,3207.438a18.983,18.983,0,1,1,20.009-19.781" transform="translate(-1129.5 -3169.5)" fill="none" stroke="#707070" stroke-linecap="round" stroke-linejoin="round" stroke-width="1.5"/>
        <path id="Path_7709" data-name="Path 7709" d="M1143.163,3169.526c-9.9,10.729-9.726,24.69.178,37.9" transform="translate(-1125.385 -3169.483)" fill="none" stroke="#707070" stroke-linecap="round" stroke-linejoin="round" stroke-width="1.5"/>
        <path id="Path_7710" data-name="Path 7710" d="M1141.73,3169.526a25.908,25.908,0,0,1,7.339,18.114" transform="translate(-1121.543 -3169.483)" fill="none" stroke="#707070" stroke-linecap="round" stroke-linejoin="round" stroke-width="1.5"/>
      </g>
    </g>
  </g>
</svg>
