<svg xmlns="http://www.w3.org/2000/svg" width="62" height="58.999" viewBox="0 0 62 58.999">
  <g id="Group_1593" data-name="Group 1593" transform="translate(-192.5 -3073.5)">
    <g id="Group_1591" data-name="Group 1591" transform="translate(227.101 3105.376)">
      <circle id="Ellipse_467" data-name="Ellipse 467" cx="13" cy="13" r="13" transform="translate(0.399 0.123)" fill="none" stroke="#fff" stroke-linejoin="round" stroke-width="2"/>
      <path id="Path_1974" data-name="Path 1974" d="M216.657,3098.026H211.5V3089" transform="translate(-198.686 -3082.486)" fill="none" stroke="#fff" stroke-linecap="round" stroke-linejoin="round" stroke-width="2"/>
    </g>
    <g id="Group_1592" data-name="Group 1592" transform="translate(193.5 3074.5)">
      <path id="Path_1975" data-name="Path 1975" d="M210.73,3091.365,203,3088.6v-5.273" transform="translate(-178.503 -3060.573)" fill="none" stroke="#fff" stroke-linecap="round" stroke-linejoin="round" stroke-width="2"/>
      <path id="Path_1976" data-name="Path 1976" d="M207.683,3083.322v5.273l-10.162,3.642a6.085,6.085,0,0,0-4.02,5.758v3.837h27.076" transform="translate(-193.5 -3060.574)" fill="none" stroke="#fff" stroke-linecap="round" stroke-linejoin="round" stroke-width="2"/>
      <path id="Path_1977" data-name="Path 1977" d="M217.409,3086.713c0,6.748-4.556,12.226-10.178,12.226s-10.178-5.478-10.178-12.226,4.554-12.212,10.178-12.212S217.409,3079.97,217.409,3086.713Z" transform="translate(-187.891 -3074.5)" fill="none" stroke="#fff" stroke-linecap="round" stroke-linejoin="round" stroke-width="2"/>
      <path id="Path_1978" data-name="Path 1978" d="M217.266,3081.165c-.34.046-.621.015-.964.088-3.468.665-5.694-.591-7.6-3.935-1.145,2.2-4.721,3.935-7.664,3.935a8.166,8.166,0,0,1-3.94-.952" transform="translate(-187.828 -3070.051)" fill="none" stroke="#fff" stroke-linecap="round" stroke-linejoin="round" stroke-width="2"/>
      <path id="Path_1979" data-name="Path 1979" d="M207.5,3074.5c5.621,0,10.178,5.469,10.178,12.212s-4.557,12.226-10.178,12.226" transform="translate(-171.399 -3074.5)" fill="none" stroke="#fff" stroke-linecap="round" stroke-linejoin="round" stroke-width="2"/>
      <path id="Path_1980" data-name="Path 1980" d="M216.662,3081.165c-.34.046-.621.015-.964.088-3.468.665-5.694-.591-7.6-3.935" transform="translate(-170.463 -3070.051)" fill="none" stroke="#fff" stroke-linecap="round" stroke-linejoin="round" stroke-width="2"/>
      <line id="Line_1408" data-name="Line 1408" y1="4.326" transform="translate(41.258 22.749)" fill="none" stroke="#fff" stroke-linecap="round" stroke-linejoin="round" stroke-width="2"/>
    </g>
  </g>
</svg>
