<svg xmlns="http://www.w3.org/2000/svg" width="61.692" height="57.815" viewBox="0 0 61.692 57.815">
  <g id="Group_1617" data-name="Group 1617" transform="translate(-336.5 -3025.5)">
    <path id="Path_2027" data-name="Path 2027" d="M363.491,3038l3.876,9.086h9.086l-7.788,6.485,3.894,10.389-9.086-6.485-9.086,6.485,3.894-10.389-7.788-6.485h9.086Z" transform="translate(20.738 18.355)" fill="none" stroke="#fff" stroke-linejoin="round" stroke-width="2"/>
    <g id="Group_1616" data-name="Group 1616" transform="translate(337.5 3026.5)">
      <path id="Path_2028" data-name="Path 2028" d="M357.232,3044.3,347,3040.631v-5.309" transform="translate(-322.337 -3012.419)" fill="none" stroke="#fff" stroke-linecap="round" stroke-linejoin="round" stroke-width="2"/>
      <path id="Path_2029" data-name="Path 2029" d="M351.778,3035.321v5.309l-10.231,3.666a6.126,6.126,0,0,0-4.047,5.8v3.864h27.259" transform="translate(-337.5 -3012.419)" fill="none" stroke="#fff" stroke-linecap="round" stroke-linejoin="round" stroke-width="2"/>
      <path id="Path_2030" data-name="Path 2030" d="M361.546,3038.795c0,6.794-4.587,12.308-10.247,12.308s-10.247-5.514-10.247-12.308,4.585-12.3,10.247-12.3S361.546,3032.006,361.546,3038.795Z" transform="translate(-331.829 -3026.5)" fill="none" stroke="#fff" stroke-linecap="round" stroke-linejoin="round" stroke-width="2"/>
      <path id="Path_2031" data-name="Path 2031" d="M361.4,3033.191c-.343.046-.626.015-.971.088-3.492.67-5.732-.594-7.656-3.961-1.153,2.211-4.753,3.961-7.715,3.961a8.226,8.226,0,0,1-3.967-.957" transform="translate(-331.765 -3022.002)" fill="none" stroke="#fff" stroke-linecap="round" stroke-linejoin="round" stroke-width="2"/>
      <path id="Path_2032" data-name="Path 2032" d="M351.5,3026.5c5.659,0,10.247,5.506,10.247,12.3S357.159,3051.1,351.5,3051.1" transform="translate(-315.155 -3026.5)" fill="none" stroke="#fff" stroke-linecap="round" stroke-linejoin="round" stroke-width="2"/>
      <path id="Path_2033" data-name="Path 2033" d="M360.72,3033.191c-.343.046-.626.015-.971.088-3.492.67-5.732-.594-7.656-3.961" transform="translate(-314.209 -3022.002)" fill="none" stroke="#fff" stroke-linecap="round" stroke-linejoin="round" stroke-width="2"/>
      <line id="Line_1423" data-name="Line 1423" y1="4.355" transform="translate(41.537 22.903)" fill="none" stroke="#fff" stroke-linecap="round" stroke-linejoin="round" stroke-width="2"/>
    </g>
  </g>
</svg>
