<svg xmlns="http://www.w3.org/2000/svg" width="61.587" height="58.999" viewBox="0 0 61.587 58.999">
  <g id="Group_1612" data-name="Group 1612" transform="translate(-432.5 -3025.5)">
    <path id="Path_2013" data-name="Path 2013" d="M459.16,3061.516c4.329-3.146,11.656-9.791,11.656-14.76,0-4.028-2.935-6.438-5.772-6.438-3.153,0-4.327,2.176-5.887,4.749-1.557-2.573-2.733-4.749-5.886-4.749-2.837,0-5.772,2.41-5.772,6.438,0,4.969,7.327,11.615,11.659,14.76Z" transform="translate(22.271 21.983)" fill="none" stroke="#fff" stroke-linecap="round" stroke-linejoin="round" stroke-width="2"/>
    <g id="Group_1611" data-name="Group 1611" transform="translate(433.5 3026.5)">
      <path id="Path_2014" data-name="Path 2014" d="M453.212,3044.279,443,3040.62v-5.3" transform="translate(-418.387 -3012.465)" fill="none" stroke="#fff" stroke-linecap="round" stroke-linejoin="round" stroke-width="2"/>
      <path id="Path_2015" data-name="Path 2015" d="M447.75,3035.322v5.3l-10.211,3.658a6.116,6.116,0,0,0-4.039,5.785v3.855h27.2" transform="translate(-433.5 -3012.466)" fill="none" stroke="#fff" stroke-linecap="round" stroke-linejoin="round" stroke-width="2"/>
      <path id="Path_2016" data-name="Path 2016" d="M457.505,3038.771c0,6.781-4.578,12.284-10.226,12.284s-10.226-5.5-10.226-12.284,4.575-12.27,10.226-12.27S457.505,3032,457.505,3038.771Z" transform="translate(-427.848 -3026.501)" fill="none" stroke="#fff" stroke-linecap="round" stroke-linejoin="round" stroke-width="2"/>
      <path id="Path_2017" data-name="Path 2017" d="M457.361,3033.184c-.342.046-.624.015-.969.088-3.485.669-5.721-.594-7.64-3.953-1.15,2.207-4.744,3.953-7.7,3.953a8.209,8.209,0,0,1-3.959-.956" transform="translate(-427.784 -3022.017)" fill="none" stroke="#fff" stroke-linecap="round" stroke-linejoin="round" stroke-width="2"/>
      <path id="Path_2018" data-name="Path 2018" d="M447.5,3026.5c5.648,0,10.226,5.495,10.226,12.27s-4.578,12.284-10.226,12.284" transform="translate(-411.228 -3026.501)" fill="none" stroke="#fff" stroke-linecap="round" stroke-linejoin="round" stroke-width="2"/>
      <path id="Path_2019" data-name="Path 2019" d="M456.7,3033.184c-.342.046-.624.015-.969.088-3.485.669-5.721-.594-7.641-3.953" transform="translate(-410.285 -3022.017)" fill="none" stroke="#fff" stroke-linecap="round" stroke-linejoin="round" stroke-width="2"/>
      <line id="Line_1421" data-name="Line 1421" y1="4.347" transform="translate(41.454 22.857)" fill="none" stroke="#fff" stroke-linecap="round" stroke-linejoin="round" stroke-width="2"/>
    </g>
  </g>
</svg>
