<svg xmlns="http://www.w3.org/2000/svg" width="65.671" height="62.903" viewBox="0 0 65.671 62.903">
  <g id="Group_2974" data-name="Group 2974" transform="translate(-432.5 -3073.5)">
    <g id="Group_2972" data-name="Group 2972" transform="translate(433.5 3074.5)">
      <g id="Group_2971" data-name="Group 2971">
        <path id="Path_3706" data-name="Path 3706" d="M451.3,3091.957l-8.3-2.973v-5.662" transform="translate(-416.701 -3058.899)" fill="none" stroke="#fff" stroke-linecap="round" stroke-linejoin="round" stroke-width="2"/>
        <path id="Path_3707" data-name="Path 3707" d="M448.726,3083.321v5.662l-10.91,3.909a6.533,6.533,0,0,0-4.316,6.181v4.12h33.22" transform="translate(-433.5 -3058.899)" fill="none" stroke="#fff" stroke-linecap="round" stroke-linejoin="round" stroke-width="2"/>
        <path id="Path_3708" data-name="Path 3708" d="M458.906,3087.61c0,7.245-4.892,13.125-10.926,13.125s-10.926-5.88-10.926-13.125,4.889-13.111,10.926-13.111S458.906,3080.372,458.906,3087.61Z" transform="translate(-427.217 -3074.5)" fill="none" stroke="#fff" stroke-linecap="round" stroke-linejoin="round" stroke-width="2"/>
        <path id="Path_3709" data-name="Path 3709" d="M458.749,3081.448c-.365.048-.667.016-1.035.093-3.723.715-6.112-.634-8.164-4.224-1.229,2.359-5.069,4.224-8.227,4.224a8.767,8.767,0,0,1-4.23-1.021" transform="translate(-427.146 -3069.516)" fill="none" stroke="#fff" stroke-linecap="round" stroke-linejoin="round" stroke-width="2"/>
        <path id="Path_3710" data-name="Path 3710" d="M447.5,3074.5c6.035,0,10.926,5.872,10.926,13.111s-4.892,13.125-10.926,13.125" transform="translate(-408.744 -3074.5)" fill="none" stroke="#fff" stroke-linecap="round" stroke-linejoin="round" stroke-width="2"/>
        <path id="Path_3711" data-name="Path 3711" d="M457.292,3081.448c-.365.048-.667.016-1.035.093-3.723.715-6.112-.634-8.164-4.224" transform="translate(-407.695 -3069.516)" fill="none" stroke="#fff" stroke-linecap="round" stroke-linejoin="round" stroke-width="2"/>
        <line id="Line_2389" data-name="Line 2389" y1="3.26" transform="translate(44.293 24.423)" fill="none" stroke="#fff" stroke-linecap="round" stroke-linejoin="round" stroke-width="2"/>
      </g>
    </g>
    <g id="Group_2973" data-name="Group 2973" transform="translate(475.024 3106.379)">
      <line id="Line_2390" data-name="Line 2390" y2="25.334" transform="translate(0 3.689)" fill="none" stroke="#fff" stroke-linecap="round" stroke-linejoin="round" stroke-width="2"/>
      <path id="Path_3712" data-name="Path 3712" d="M470.646,3091.09s-9.689,6.921-9.689-1.385-12.457,0-12.457,0v15.222s12.457-8.3,12.457,0,9.689,2.768,9.689,2.768Z" transform="translate(-448.5 -3086.015)" fill="none" stroke="#fff" stroke-linecap="round" stroke-linejoin="round" stroke-width="2"/>
    </g>
  </g>
</svg>
