<svg xmlns="http://www.w3.org/2000/svg" width="52.973" height="61.238" viewBox="0 0 52.973 61.238">
  <g id="Group_10843" data-name="Group 10843" transform="translate(-802 -1232.346)">
    <g id="Group_5772" data-name="Group 5772" transform="translate(-301.487 258.282)">
      <g id="Group_5770" data-name="Group 5770" transform="translate(1131.349 1017.392)">
        <path id="Path_8051" data-name="Path 8051" d="M1135.156,1032.137V1026.5H1130.5v5.637" transform="translate(-1130.5 -1015.226)" fill="none" stroke="#fff" stroke-linecap="round" stroke-linejoin="round" stroke-width="2"/>
        <path id="Path_8052" data-name="Path 8052" d="M1141.371,1032.774V1021.5H1136.5v11.274" transform="translate(-1126.735 -1015.863)" fill="none" stroke="#fff" stroke-linecap="round" stroke-linejoin="round" stroke-width="2"/>
        <path id="Path_8054" data-name="Path 8054" d="M1153.212,1033.411V1016.5H1148.5v16.911" transform="translate(-1129.537 -1016.5)" fill="none" stroke="#fff" stroke-linecap="round" stroke-linejoin="round" stroke-width="2"/>
      </g>
      <g id="Group_5771" data-name="Group 5771" transform="translate(1132.04 1008.5)">
        <path id="Path_8055" data-name="Path 8055" d="M1155.007,1007.356l-9.478,10.036-6.764-2.255-6.764,5.637" transform="translate(-1132 -1009.5)" fill="none" stroke="#fff" stroke-linecap="round" stroke-linejoin="round" stroke-width="2"/>
        <path id="Path_8056" data-name="Path 8056" d="M1147.7,1008.55l5.458-1.194-.6,5.118" transform="translate(-1130.153 -1009.5)" fill="none" stroke="#fff" stroke-linecap="round" stroke-linejoin="round" stroke-width="2"/>
      </g>
    </g>
    <g id="Group_411" data-name="Group 411" transform="translate(465.5 -1504.154)">
      <g id="Group_410" data-name="Group 410" transform="translate(337.5 2737.5)">
        <line id="Line_321" data-name="Line 321" y1="6.499" transform="translate(27.813 25.949)" fill="none" stroke="#fff" stroke-linecap="round" stroke-linejoin="round" stroke-width="2"/>
        <path id="Path_479" data-name="Path 479" d="M353.724,2748.7v6.5l-11.61,4.146a6.955,6.955,0,0,0-4.615,6.548v5.53h20.19" transform="translate(-337.5 -2722.747)" fill="none" stroke="#fff" stroke-linecap="round" stroke-linejoin="round" stroke-width="2"/>
        <ellipse id="Ellipse_119" data-name="Ellipse 119" cx="11.589" cy="13.906" rx="11.589" ry="13.906" transform="translate(10.43)" fill="none" stroke="#fff" stroke-linejoin="round" stroke-width="2"/>
        <path id="Path_480" data-name="Path 480" d="M364.983,2745.434c-.389.049-.658.032-1.05.109-3.947.76-6.483-.67-8.654-4.473-1.3,2.5-5.382,4.473-8.729,4.473a9.3,9.3,0,0,1-4.485-1.081" transform="translate(-331.485 -2732.796)" fill="none" stroke="#fff" stroke-linejoin="round" stroke-width="2"/>
      </g>
    </g>
  </g>
</svg>
