<svg xmlns="http://www.w3.org/2000/svg" width="60.845" height="59.799" viewBox="0 0 60.845 59.799">
  <g id="Group_1615" data-name="Group 1615" transform="translate(-384.5 -3025.5)">
    <g id="Group_1613" data-name="Group 1613" transform="translate(421.236 3060.654)">
      <path id="Path_2020" data-name="Path 2020" d="M419.584,3059.512l2.627-4.55-2.627-1.519a8.522,8.522,0,0,0,0-4.24l2.622-1.514-2.627-4.55-2.622,1.513a9.165,9.165,0,0,0-3.673-2.1V3039.5h-5.255v3.053a9.166,9.166,0,0,0-3.673,2.1l-2.622-1.513-2.627,4.55,2.622,1.514a8.519,8.519,0,0,0,0,4.24l-2.627,1.519,2.627,4.55,2.63-1.518a9.182,9.182,0,0,0,3.67,2.1v3.053h5.255v-3.053a9.183,9.183,0,0,0,3.67-2.1Z" transform="translate(-399.102 -3039.5)" fill="none" stroke="#fff" stroke-linejoin="round" stroke-width="2"/>
      <circle id="Ellipse_472" data-name="Ellipse 472" cx="3.941" cy="3.941" r="3.941" transform="translate(7.614 7.882)" fill="none" stroke="#fff" stroke-linejoin="round" stroke-width="2"/>
    </g>
    <g id="Group_1614" data-name="Group 1614" transform="translate(385.5 3026.5)">
      <path id="Path_2021" data-name="Path 2021" d="M405.355,3044.4,395,3040.695v-5.373" transform="translate(-370.041 -3012.144)" fill="none" stroke="#fff" stroke-linecap="round" stroke-linejoin="round" stroke-width="2"/>
      <path id="Path_2022" data-name="Path 2022" d="M399.95,3035.322v5.373L389.6,3044.4a6.2,6.2,0,0,0-4.1,5.867v3.909h27.586" transform="translate(-385.5 -3012.145)" fill="none" stroke="#fff" stroke-linecap="round" stroke-linejoin="round" stroke-width="2"/>
      <path id="Path_2023" data-name="Path 2023" d="M409.792,3038.943c0,6.875-4.642,12.456-10.37,12.456s-10.37-5.58-10.37-12.456,4.64-12.443,10.37-12.443S409.792,3032.073,409.792,3038.943Z" transform="translate(-379.718 -3026.5)" fill="none" stroke="#fff" stroke-linecap="round" stroke-linejoin="round" stroke-width="2"/>
      <path id="Path_2024" data-name="Path 2024" d="M409.646,3033.238c-.347.047-.633.015-.983.089-3.534.678-5.8-.6-7.748-4.009-1.167,2.238-4.81,4.009-7.808,4.009a8.32,8.32,0,0,1-4.014-.969" transform="translate(-379.653 -3021.915)" fill="none" stroke="#fff" stroke-linecap="round" stroke-linejoin="round" stroke-width="2"/>
      <path id="Path_2025" data-name="Path 2025" d="M399.5,3026.5c5.727,0,10.37,5.573,10.37,12.443s-4.642,12.456-10.37,12.456" transform="translate(-362.719 -3026.5)" fill="none" stroke="#fff" stroke-linecap="round" stroke-linejoin="round" stroke-width="2"/>
      <path id="Path_2026" data-name="Path 2026" d="M408.823,3033.238c-.347.047-.633.015-.983.089-3.534.678-5.8-.6-7.748-4.009" transform="translate(-361.754 -3021.915)" fill="none" stroke="#fff" stroke-linecap="round" stroke-linejoin="round" stroke-width="2"/>
      <line id="Line_1422" data-name="Line 1422" y1="4.408" transform="translate(42.036 23.178)" fill="none" stroke="#fff" stroke-linecap="round" stroke-linejoin="round" stroke-width="2"/>
    </g>
  </g>
</svg>
