<svg width="63" height="63" viewBox="0 0 63 63" fill="none" xmlns="http://www.w3.org/2000/svg">
<circle cx="31.5" cy="31.5" r="31" fill="#9EE79D" stroke="#F1F1F1"/>
<path d="M27.8453 40.8889H36.1529H27.8453ZM32 16V17.7778V16ZM43.3138 20.6862L42.0569 21.9431L43.3138 20.6862ZM48 32H46.2222H48ZM17.7778 32H16H17.7778ZM21.9431 21.9431L20.6862 20.6862L21.9431 21.9431ZM25.7138 38.2862C24.4709 37.043 23.6245 35.4591 23.2817 33.7349C22.9389 32.0107 23.1151 30.2236 23.788 28.5995C24.4608 26.9754 25.6001 25.5873 27.0618 24.6107C28.5236 23.634 30.242 23.1128 32 23.1128C33.758 23.1128 35.4764 23.634 36.9382 24.6107C38.3999 25.5873 39.5392 26.9754 40.212 28.5995C40.8849 30.2236 41.0611 32.0107 40.7183 33.7349C40.3755 35.4591 39.5291 37.043 38.2862 38.2862L37.312 39.2587C36.755 39.8157 36.3133 40.4771 36.0119 41.2049C35.7105 41.9327 35.5555 42.7127 35.5556 43.5004V44.4444C35.5556 45.3874 35.181 46.2918 34.5142 46.9586C33.8474 47.6254 32.943 48 32 48C31.057 48 30.1526 47.6254 29.4858 46.9586C28.819 46.2918 28.4444 45.3874 28.4444 44.4444V43.5004C28.4444 41.9093 27.8116 40.3822 26.688 39.2587L25.7138 38.2862Z" stroke="white" stroke-width="2" stroke-linecap="round" stroke-linejoin="round"/>
</svg>
