<svg xmlns="http://www.w3.org/2000/svg" width="43.044" height="41.228" viewBox="0 0 43.044 41.228">
  <g id="consulting_outsourcing" transform="translate(-284.25 -3677.271)">
    <g id="Group_2172" data-name="Group 2172" transform="translate(285 3678.021)">
      <g id="Group_2170" data-name="Group 2170" transform="translate(28.277 26.217)">
        <g id="Group_2168" data-name="Group 2168">
          <path id="Path_2809" data-name="Path 2809" d="M409.627,2992v3.628H406" transform="translate(-396.569 -2991.275)" fill="none" stroke="#707070" stroke-linecap="round" stroke-linejoin="round" stroke-width="1.5"/>
          <path id="Path_2810" data-name="Path 2810" d="M399.5,2995.853a7.074,7.074,0,0,1,13.059,0" transform="translate(-399.5 -2991.5)" fill="none" stroke="#707070" stroke-linecap="round" stroke-linejoin="round" stroke-width="1.5"/>
        </g>
        <g id="Group_2169" data-name="Group 2169" transform="translate(0 9.158)">
          <path id="Path_2811" data-name="Path 2811" d="M399.5,3001.127V2997.5h3.628" transform="translate(-399.5 -2997.5)" fill="none" stroke="#707070" stroke-linecap="round" stroke-linejoin="round" stroke-width="1.5"/>
          <path id="Path_2812" data-name="Path 2812" d="M412.559,2997.5a7.074,7.074,0,0,1-13.059,0" transform="translate(-399.5 -2997.5)" fill="none" stroke="#707070" stroke-linecap="round" stroke-linejoin="round" stroke-width="1.5"/>
        </g>
      </g>
      <g id="Group_2171" data-name="Group 2171">
        <path id="Path_2813" data-name="Path 2813" d="M402.961,2994.323,395,2991.471v-4.129" transform="translate(-375.812 -2969.523)" fill="none" stroke="#707070" stroke-linecap="round" stroke-linejoin="round" stroke-width="1.5"/>
        <path id="Path_2814" data-name="Path 2814" d="M396.609,2987.343v4.128l-7.96,2.852a4.765,4.765,0,0,0-3.149,4.508v3.008h21.208" transform="translate(-385.5 -2969.522)" fill="none" stroke="#707070" stroke-linecap="round" stroke-linejoin="round" stroke-width="1.5"/>
        <path id="Path_2815" data-name="Path 2815" d="M405,2988.086c0,5.286-3.569,9.574-7.972,9.574s-7.972-4.288-7.972-9.574,3.567-9.566,7.972-9.566S405,2982.8,405,2988.086Z" transform="translate(-381.877 -2978.52)" fill="none" stroke="#707070" stroke-linecap="round" stroke-linejoin="round" stroke-width="1.5"/>
        <path id="Path_2816" data-name="Path 2816" d="M404.894,2984.352c-.267.036-.487.011-.755.066-2.717.521-4.46-.461-5.956-3.081-.9,1.721-3.7,3.081-6,3.081a6.372,6.372,0,0,1-3.086-.745" transform="translate(-381.836 -2975.646)" fill="none" stroke="#707070" stroke-linecap="round" stroke-linejoin="round" stroke-width="1.5"/>
        <path id="Path_2817" data-name="Path 2817" d="M399.5,2978.52c4.4,0,7.972,4.284,7.972,9.566s-3.569,9.574-7.972,9.574" transform="translate(-371.223 -2978.52)" fill="none" stroke="#707070" stroke-linecap="round" stroke-linejoin="round" stroke-width="1.5"/>
        <path id="Path_2818" data-name="Path 2818" d="M406.8,2984.352c-.267.036-.487.011-.755.066-2.717.521-4.46-.461-5.956-3.081" transform="translate(-370.618 -2975.646)" fill="none" stroke="#707070" stroke-linecap="round" stroke-linejoin="round" stroke-width="1.5"/>
        <line id="Line_1916" data-name="Line 1916" y1="3.387" transform="translate(32.317 17.82)" fill="none" stroke="#707070" stroke-linecap="round" stroke-linejoin="round" stroke-width="1.5"/>
      </g>
    </g>
  </g>
</svg>
