<svg xmlns="http://www.w3.org/2000/svg" width="39.457" height="43.711" viewBox="0 0 39.457 43.711">
  <g id="consultancy_solution" transform="translate(-674.051 -1567.25)">
    <g id="Group_9384" data-name="Group 9384" transform="translate(674.801 1568)">
      <g id="Group_1792" data-name="Group 1792" transform="translate(0)">
        <path id="Path_2281" data-name="Path 2281" d="M411.772,896.443l3.792,3.789,4.667-4.667-3.789-3.79a19.514,19.514,0,0,0,1.657-4.821h5.357V882H418.1a19.475,19.475,0,0,0-1.655-4.822l3.789-3.787-4.669-4.669-3.79,3.789a19.36,19.36,0,0,0-4.819-1.653V865.5H402v5.36a19.366,19.366,0,0,0-4.82,1.653l-3.79-3.789-4.669,4.669,3.79,3.789A19.518,19.518,0,0,0,390.857,882H385.5v4.951h5.357a19.51,19.51,0,0,0,1.657,4.82l-3.79,3.791,4.669,4.667,3.789-3.792" transform="translate(-385.5 -865.5)" fill="none" stroke="#707070" stroke-linecap="round" stroke-linejoin="round" stroke-width="1.5"/>
        <line id="Line_1508" data-name="Line 1508" x2="4.769" transform="translate(16.691 37.356)" fill="none" stroke="#707070" stroke-linecap="round" stroke-linejoin="round" stroke-width="1.5"/>
        <line id="Line_1509" data-name="Line 1509" x2="4.769" transform="translate(16.691 39.74)" fill="none" stroke="#707070" stroke-linecap="round" stroke-linejoin="round" stroke-width="1.5"/>
        <path id="Path_10069" data-name="Path 10069" d="M-.127,0V1.887" transform="translate(19.202 40.325)" fill="none" stroke="#707070" stroke-linecap="round" stroke-width="1.5"/>
        <path id="Path_2282" data-name="Path 2282" d="M410.5,880.649a9.7,9.7,0,0,0-19.371,0c0,4.167,3.172,7.682,7.21,8.784v6.8h4.951v-6.8C407.329,888.332,410.5,884.816,410.5,880.649Z" transform="translate(-381.838 -861.597)" fill="none" stroke="#707070" stroke-linecap="round" stroke-linejoin="round" stroke-width="1.5"/>
      </g>
    </g>
  </g>
</svg>
