<svg xmlns="http://www.w3.org/2000/svg" width="41.854" height="41.564" viewBox="0 0 41.854 41.564">
  <g id="consultancy_processes" transform="translate(-1319.398 -1122.121)">
    <g id="Group_9381" data-name="Group 9381" transform="translate(1320.148 1122.871)">
      <g id="Group_7154" data-name="Group 7154" transform="translate(0 0)">
        <rect id="Rectangle_1973" data-name="Rectangle 1973" width="11.549" height="9.805" transform="translate(14.436)" fill="none" stroke="#707070" stroke-linecap="round" stroke-linejoin="round" stroke-width="1.5"/>
        <rect id="Rectangle_1974" data-name="Rectangle 1974" width="8.662" height="8.662" transform="translate(15.88 31.402)" fill="none" stroke="#707070" stroke-linecap="round" stroke-linejoin="round" stroke-width="1.5"/>
        <rect id="Rectangle_1976" data-name="Rectangle 1976" width="8.662" height="8.662" transform="translate(0 18.466)" fill="none" stroke="#707070" stroke-linecap="round" stroke-linejoin="round" stroke-width="1.5"/>
        <path id="Path_10065" data-name="Path 10065" d="M808.685,968.6a9.91,9.91,0,0,0-6.941,4.075,11.826,11.826,0,0,0-2.247,7.4" transform="translate(-794.866 -961.609)" fill="none" stroke="#707070" stroke-linecap="round" stroke-linejoin="round" stroke-width="1.5"/>
        <path id="Path_12021" data-name="Path 12021" d="M0,0V21.6" transform="translate(20.211 9.805)" fill="none" stroke="#707070" stroke-width="1.5"/>
        <rect id="Rectangle_3993" data-name="Rectangle 3993" width="8.662" height="8.662" transform="translate(31.691 18.466)" fill="none" stroke="#707070" stroke-linecap="round" stroke-linejoin="round" stroke-width="1.5"/>
        <path id="Path_12022" data-name="Path 12022" d="M799.472,968.6a9.91,9.91,0,0,1,6.941,4.075,11.826,11.826,0,0,1,2.247,7.4" transform="translate(-772.938 -961.609)" fill="none" stroke="#707070" stroke-linecap="round" stroke-linejoin="round" stroke-width="1.5"/>
      </g>
    </g>
  </g>
</svg>
