<svg xmlns="http://www.w3.org/2000/svg" width="39.89" height="39.89" viewBox="0 0 39.89 39.89">
  <g id="consulting_social" transform="translate(-282.027 -3209.25)">
    <g id="Group_10772" data-name="Group 10772" transform="translate(282.777 3210)">
      <g id="Group_10771" data-name="Group 10771" transform="translate(0 0)">
        <path id="Path_35666" data-name="Path 35666" d="M950.142,2172.693a6.677,6.677,0,1,0,0,5.966" transform="translate(-937.5 -2156.481)" fill="none" stroke="#707070" stroke-linejoin="round" stroke-width="1.5"/>
        <path id="Path_35667" data-name="Path 35667" d="M959.177,2174.853h0a6.692,6.692,0,1,0-5.967-3.693" transform="translate(-927.463 -2161.5)" fill="none" stroke="#707070" stroke-linejoin="round" stroke-width="1.5"/>
        <path id="Path_35668" data-name="Path 35668" d="M953.211,2180.194a6.673,6.673,0,1,0,5.967-3.694" transform="translate(-927.464 -2151.463)" fill="none" stroke="#707070" stroke-linejoin="round" stroke-width="1.5"/>
        <path id="Path_35669" data-name="Path 35669" d="M964.146,2170.981h.109a6.845,6.845,0,0,1-6.076-3.694l-13.1,6.552a6.614,6.614,0,0,1,0,5.966l13.1,6.552a6.672,6.672,0,0,1,5.967-3.694" transform="translate(-932.432 -2157.628)" fill="none" stroke="#707070" stroke-linejoin="round" stroke-width="1.5"/>
      </g>
    </g>
  </g>
</svg>
