<svg xmlns="http://www.w3.org/2000/svg" width="41.624" height="38.157" viewBox="0 0 41.624 38.157">
  <g id="consulting_engineering" transform="translate(-439.25 -3557.25)">
    <g id="Group_3445" data-name="Group 3445" transform="translate(440 3558)">
      <path id="Path_4458" data-name="Path 4458" d="M329.624,945.131a2.7,2.7,0,0,1-2.617,2.77H292.117a2.7,2.7,0,0,1-2.617-2.77V919.27a2.7,2.7,0,0,1,2.617-2.77h34.891a2.7,2.7,0,0,1,2.617,2.77Z" transform="translate(-289.5 -916.5)" fill="none" stroke="#707070" stroke-linecap="round" stroke-linejoin="round" stroke-width="1.5"/>
      <line id="Line_2841" data-name="Line 2841" x2="24.423" transform="translate(7.85 36.657)" fill="none" stroke="#707070" stroke-linecap="round" stroke-linejoin="round" stroke-width="1.5"/>
      <path id="Path_10152" data-name="Path 10152" d="M0,0V4.54" transform="translate(20.062 31.402)" fill="none" stroke="#707070" stroke-linecap="round" stroke-width="1.5"/>
      <circle id="Ellipse_1120" data-name="Ellipse 1120" cx="1.713" cy="1.713" r="1.713" transform="translate(18.349 26.199)" fill="#fff" stroke="#707070" stroke-linejoin="round" stroke-width="1.5"/>
      <line id="Line_2843" data-name="Line 2843" x2="40.023" transform="translate(0 24.45)" fill="none" stroke="#707070" stroke-linejoin="round" stroke-width="1.5"/>
      <circle id="Ellipse_1121" data-name="Ellipse 1121" cx="3.489" cy="3.489" r="3.489" transform="translate(16.573 8.723)" fill="none" stroke="#707070" stroke-linejoin="round" stroke-width="1.5"/>
      <path id="Path_4459" data-name="Path 4459" d="M311.689,926.256l1.956-1.129-2.617-4.532-1.956,1.13a6.966,6.966,0,0,0-1.673-.94V918.5h-5.234v2.278a6.914,6.914,0,0,0-1.65.96l-1.978-1.143-2.617,4.532,1.984,1.146a6.933,6.933,0,0,0-.028,1.917l-1.956,1.127,2.617,4.532,1.957-1.131a6.981,6.981,0,0,0,1.671.939v2.287H307.4v-2.278a6.972,6.972,0,0,0,1.65-.959l1.978,1.143,2.617-4.532-1.984-1.146A6.925,6.925,0,0,0,311.689,926.256Z" transform="translate(-284.72 -915.011)" fill="none" stroke="#707070" stroke-linejoin="round" stroke-width="1.5"/>
    </g>
  </g>
</svg>
