<svg xmlns="http://www.w3.org/2000/svg" xmlns:xlink="http://www.w3.org/1999/xlink" width="89" height="89" viewBox="0 0 89 89">
  <defs>
    <clipPath id="clip-path">
      <circle id="Ellipse_2597" data-name="Ellipse 2597" cx="44.5" cy="44.5" r="44.5" transform="translate(266 3189)" fill="none" stroke="#707070" stroke-width="1"/>
    </clipPath>
    <filter id="Subtraction_4" x="11.159" y="-23.874" width="102.368" height="115.855" filterUnits="userSpaceOnUse">
      <feOffset dy="3" input="SourceAlpha"/>
      <feGaussianBlur stdDeviation="3" result="blur"/>
      <feFlood flood-opacity="0.071"/>
      <feComposite operator="in" in2="blur"/>
      <feComposite in="SourceGraphic"/>
    </filter>
    <filter id="Rectangle_1978" x="14.65" y="23.415" width="59.016" height="50.346" filterUnits="userSpaceOnUse">
      <feOffset dy="3" input="SourceAlpha"/>
      <feGaussianBlur stdDeviation="3" result="blur-2"/>
      <feFlood flood-opacity="0.161"/>
      <feComposite operator="in" in2="blur-2"/>
      <feComposite in="SourceGraphic"/>
    </filter>
  </defs>
  <g id="consultancy_strategy" transform="translate(-432 -1102)">
    <g id="Group_9725" data-name="Group 9725" transform="translate(-222 -448)">
      <g id="Group_9721" data-name="Group 9721" transform="translate(-523 -472)">
        <g id="Group_9718" data-name="Group 9718" transform="translate(525 -7)">
          <g id="Group_9716" data-name="Group 9716" transform="translate(387 -1057)">
            <g id="Mask_Group_9466" data-name="Mask Group 9466" transform="translate(-1 -103)" clip-path="url(#clip-path)">
              <g id="Group_9673" data-name="Group 9673" transform="translate(0 -63)">
                <g id="Group_9671" data-name="Group 9671" transform="translate(-278.998 1224)">
                  <g id="Group_9670" data-name="Group 9670" transform="translate(0 479)">
                    <g id="Group_9669" data-name="Group 9669" transform="translate(0 448)">
                      <g id="Group_9668" data-name="Group 9668" transform="translate(205 199)">
                        <circle id="Ellipse_2594" data-name="Ellipse 2594" cx="45.5" cy="45.5" r="45.5" transform="translate(339 901)" fill="#0194ec"/>
                        <path id="Subtraction_3" data-name="Subtraction 3" d="M17302.957,6657.464h0a45.509,45.509,0,0,1-24.957-40.609,45.467,45.467,0,0,1,45.332-45.5c4.553,16.961-3.193,31.9-10.684,46.337l0,.011c-7.021,13.544-13.654,26.337-9.687,39.76Z" transform="translate(-16939 -5670.354)" fill="#008ae9"/>
                        <g transform="matrix(1, 0, 0, 1, 340, 902)" filter="url(#Subtraction_4)">
                          <path id="Subtraction_4-2" data-name="Subtraction 4" d="M45.332,86.111h0A45.506,45.506,0,0,1,24.957,0c-3.971,13.427,2.666,26.224,9.692,39.771C42.138,54.216,49.883,69.15,45.332,86.11Z" transform="translate(104.53 55.94) rotate(149)" fill="#109aed" opacity="0.67"/>
                        </g>
                      </g>
                    </g>
                  </g>
                </g>
              </g>
            </g>
          </g>
        </g>
      </g>
    </g>
    <g id="Group_9380" data-name="Group 9380" transform="translate(-114 1)">
      <g id="Group_9378" data-name="Group 9378" transform="translate(205 199)">
        <g id="Group_7155" data-name="Group 7155" transform="translate(361.314 925.913)">
          <rect id="Rectangle_1977" data-name="Rectangle 1977" width="47.686" height="6.503" transform="translate(0 0)" fill="none" stroke="#fff" stroke-linejoin="round" stroke-width="2"/>
          <line id="Line_7555" data-name="Line 7555" x2="47.598" transform="translate(0.044 36.849)" fill="none" stroke="#fff" stroke-linecap="round" stroke-linejoin="round" stroke-width="2"/>
          <g transform="matrix(1, 0, 0, 1, -20.31, -23.91)" filter="url(#Rectangle_1978)">
            <rect id="Rectangle_1978-2" data-name="Rectangle 1978" width="39.016" height="30.346" transform="translate(24.65 30.42)" fill="none" stroke="#fff" stroke-linejoin="round" stroke-width="2"/>
          </g>
          <line id="Line_7556" data-name="Line 7556" y2="6.503" transform="translate(23.843 36.849)" fill="none" stroke="#fff" stroke-linejoin="round" stroke-width="2"/>
          <circle id="Ellipse_2464" data-name="Ellipse 2464" cx="3.251" cy="3.251" r="3.251" transform="translate(20.592 43.351)" fill="none" stroke="#fff" stroke-linejoin="round" stroke-width="2"/>
          <rect id="Rectangle_1979" data-name="Rectangle 1979" width="4.335" height="8.67" transform="translate(23.843 23.843)" fill="none" stroke="#fff" stroke-linecap="round" stroke-linejoin="round" stroke-width="2"/>
          <rect id="Rectangle_1980" data-name="Rectangle 1980" width="4.335" height="19.508" transform="translate(32.513 13.005)" fill="none" stroke="#fff" stroke-linecap="round" stroke-linejoin="round" stroke-width="2"/>
          <path id="Path_10066" data-name="Path 10066" d="M845.813,978.6a3.658,3.658,0,1,0,3.657-3.656,3.658,3.658,0,1,1,3.659-3.659" transform="translate(-836.464 -954.35)" fill="none" stroke="#fff" stroke-linecap="round" stroke-linejoin="round" stroke-width="2"/>
          <line id="Line_7557" data-name="Line 7557" y2="2.439" transform="translate(13.005 27.905)" fill="none" stroke="#fff" stroke-linecap="round" stroke-linejoin="round" stroke-width="2"/>
          <line id="Line_7558" data-name="Line 7558" y2="2.436" transform="translate(13.005 10.838)" fill="none" stroke="#fff" stroke-linecap="round" stroke-linejoin="round" stroke-width="2"/>
        </g>
      </g>
    </g>
  </g>
</svg>
