<svg xmlns="http://www.w3.org/2000/svg" width="40.5" height="40.5" viewBox="0 0 40.5 40.5">
  <g id="consulting_solutions" transform="translate(-979.25 -3088.882)">
    <g id="Group_9666" data-name="Group 9666" transform="translate(980 3089.851)">
      <g id="Group_402" data-name="Group 402" transform="translate(0 0)">
        <g id="Group_400" data-name="Group 400" transform="translate(22.701 22.702)">
          <path id="Path_471" data-name="Path 471" d="M265.427,2754l-5.056,5.057-2.843-2.671" transform="translate(-252.577 -2747.752)" fill="none" stroke="#707070" stroke-linecap="round" stroke-linejoin="round" stroke-width="1.5"/>
          <circle id="Ellipse_113" data-name="Ellipse 113" cx="8" cy="8" r="8" transform="translate(0.299 0.079)" fill="none" stroke="#707070" stroke-linejoin="round" stroke-width="1.5"/>
        </g>
        <g id="Group_401" data-name="Group 401" transform="translate(0 0)">
          <path id="Path_10153" data-name="Path 10153" d="M0,4.921V.811" transform="translate(20.226 18.814)" fill="none" stroke="#707070" stroke-linecap="round" stroke-width="1.5"/>
          <path id="Path_472" data-name="Path 472" d="M253.3,2749.794v3.891l-8.442,3.015a5.058,5.058,0,0,0-3.356,4.761v4.022h18.54" transform="translate(-241.5 -2729.95)" fill="none" stroke="#707070" stroke-linecap="round" stroke-linejoin="round" stroke-width="1.5"/>
          <ellipse id="Ellipse_114" data-name="Ellipse 114" cx="8" cy="10.5" rx="8" ry="10.5" transform="translate(8 -0.219)" fill="none" stroke="#707070" stroke-linejoin="round" stroke-width="1.5"/>
          <path id="Path_473" data-name="Path 473" d="M262.731,2744.243c-.283.035-.479.024-.764.079-2.87.552-4.714-.488-6.294-3.253-.949,1.817-3.914,3.253-6.347,3.253a6.758,6.758,0,0,1-3.261-.786" transform="translate(-238.371 -2734.913)" fill="none" stroke="#707070" stroke-linejoin="round" stroke-width="1.5"/>
        </g>
      </g>
    </g>
  </g>
</svg>
