<svg xmlns="http://www.w3.org/2000/svg" xmlns:xlink="http://www.w3.org/1999/xlink" width="89" height="89" viewBox="0 0 89 89">
  <defs>
    <clipPath id="clip-path">
      <circle id="Ellipse_2597" data-name="Ellipse 2597" cx="44.5" cy="44.5" r="44.5" transform="translate(266 3189)" fill="none" stroke="#707070" stroke-width="1"/>
    </clipPath>
    <filter id="Subtraction_4" x="11.159" y="-23.874" width="102.368" height="115.855" filterUnits="userSpaceOnUse">
      <feOffset dy="3" input="SourceAlpha"/>
      <feGaussianBlur stdDeviation="3" result="blur"/>
      <feFlood flood-opacity="0.071"/>
      <feComposite operator="in" in2="blur"/>
      <feComposite in="SourceGraphic"/>
    </filter>
    <filter id="Path_2282" x="22.493" y="23.458" width="44.372" height="51.115" filterUnits="userSpaceOnUse">
      <feOffset dy="3" input="SourceAlpha"/>
      <feGaussianBlur stdDeviation="3" result="blur-2"/>
      <feFlood flood-opacity="0.161"/>
      <feComposite operator="in" in2="blur-2"/>
      <feComposite in="SourceGraphic"/>
    </filter>
  </defs>
  <g id="consultancy_solution" transform="translate(-654 -1550)">
    <g id="Group_9721" data-name="Group 9721" transform="translate(-523 -472)">
      <g id="Group_9718" data-name="Group 9718" transform="translate(525 -7)">
        <g id="Group_9716" data-name="Group 9716" transform="translate(387 -1057)">
          <g id="Mask_Group_9466" data-name="Mask Group 9466" transform="translate(-1 -103)" clip-path="url(#clip-path)">
            <g id="Group_9673" data-name="Group 9673" transform="translate(0 -63)">
              <g id="Group_9671" data-name="Group 9671" transform="translate(-278.998 1224)">
                <g id="Group_9670" data-name="Group 9670" transform="translate(0 479)">
                  <g id="Group_9669" data-name="Group 9669" transform="translate(0 448)">
                    <g id="Group_9668" data-name="Group 9668" transform="translate(205 199)">
                      <circle id="Ellipse_2594" data-name="Ellipse 2594" cx="45.5" cy="45.5" r="45.5" transform="translate(339 901)" fill="#0194ec"/>
                      <path id="Subtraction_3" data-name="Subtraction 3" d="M17302.957,6657.464h0a45.509,45.509,0,0,1-24.957-40.609,45.467,45.467,0,0,1,45.332-45.5c4.553,16.961-3.193,31.9-10.684,46.337l0,.011c-7.021,13.544-13.654,26.337-9.687,39.76Z" transform="translate(-16939 -5670.354)" fill="#008ae9"/>
                      <g transform="matrix(1, 0, 0, 1, 340, 902)" filter="url(#Subtraction_4)">
                        <path id="Subtraction_4-2" data-name="Subtraction 4" d="M45.332,86.111h0A45.506,45.506,0,0,1,24.957,0c-3.971,13.427,2.666,26.224,9.692,39.771C42.138,54.216,49.883,69.15,45.332,86.11Z" transform="translate(104.53 55.94) rotate(149)" fill="#109aed" opacity="0.67"/>
                      </g>
                    </g>
                  </g>
                </g>
              </g>
            </g>
          </g>
        </g>
      </g>
    </g>
    <g id="Group_9384" data-name="Group 9384" transform="translate(108.801 -1)">
      <g id="Group_1792" data-name="Group 1792" transform="translate(180.5 703.5)">
        <path id="Path_2281" data-name="Path 2281" d="M418.555,904.431l4.771,4.767,5.872-5.872-4.767-4.769a24.547,24.547,0,0,0,2.085-6.065h6.74v-6.229h-6.742a24.5,24.5,0,0,0-2.082-6.067l4.767-4.765-5.874-5.874-4.769,4.767a24.355,24.355,0,0,0-6.063-2.08V865.5h-6.229v6.744a24.369,24.369,0,0,0-6.065,2.08l-4.769-4.767-5.874,5.874,4.769,4.767a24.551,24.551,0,0,0-2.085,6.065H385.5v6.229h6.74a24.547,24.547,0,0,0,2.085,6.065l-4.769,4.769,5.874,5.872,4.767-4.771" transform="translate(0 0)" fill="none" stroke="#fff" stroke-linecap="round" stroke-linejoin="round" stroke-width="2"/>
        <line id="Line_1508" data-name="Line 1508" x2="6" transform="translate(406.5 912.5)" fill="none" stroke="#fff" stroke-linecap="round" stroke-linejoin="round" stroke-width="2"/>
        <line id="Line_1509" data-name="Line 1509" x2="6" transform="translate(406.5 915.5)" fill="none" stroke="#fff" stroke-linecap="round" stroke-linejoin="round" stroke-width="2"/>
        <path id="Path_10069" data-name="Path 10069" d="M-.127,0V2.374" transform="translate(409.627 916.235)" fill="none" stroke="#fff" stroke-linecap="round" stroke-width="2"/>
        <g transform="matrix(1, 0, 0, 1, 364.7, 847.5)" filter="url(#Path_2282)">
          <path id="Path_2282-2" data-name="Path 2282" d="M415.5,883.011c0-6.358-5.457-11.511-12.186-11.511s-12.186,5.153-12.186,11.511c0,5.243,3.991,9.665,9.072,11.052v8.551h6.229v-8.551C411.512,892.677,415.5,888.254,415.5,883.011Z" transform="translate(-358.64 -841.04)" fill="none" stroke="#fff" stroke-linecap="round" stroke-linejoin="round" stroke-width="2"/>
        </g>
      </g>
    </g>
  </g>
</svg>
