<svg xmlns="http://www.w3.org/2000/svg" xmlns:xlink="http://www.w3.org/1999/xlink" width="89" height="89" viewBox="0 0 89 89">
  <defs>
    <clipPath id="clip-path">
      <circle id="Ellipse_2597" data-name="Ellipse 2597" cx="44.5" cy="44.5" r="44.5" transform="translate(266 3189)" fill="none" stroke="#707070" stroke-width="1"/>
    </clipPath>
    <filter id="Subtraction_4" x="11.159" y="-23.874" width="102.368" height="115.855" filterUnits="userSpaceOnUse">
      <feOffset dy="3" input="SourceAlpha"/>
      <feGaussianBlur stdDeviation="3" result="blur"/>
      <feFlood flood-opacity="0.071"/>
      <feComposite operator="in" in2="blur"/>
      <feComposite in="SourceGraphic"/>
    </filter>
    <filter id="Path_3690" x="12.301" y="14.002" width="64.382" height="64.382" filterUnits="userSpaceOnUse">
      <feOffset dy="3" input="SourceAlpha"/>
      <feGaussianBlur stdDeviation="3" result="blur-2"/>
      <feFlood flood-opacity="0.161"/>
      <feComposite operator="in" in2="blur-2"/>
      <feComposite in="SourceGraphic"/>
    </filter>
  </defs>
  <g id="consultancy_application" transform="translate(-1392 -1550)">
    <g id="Group_9723" data-name="Group 9723" transform="translate(738)">
      <g id="Group_9721" data-name="Group 9721" transform="translate(-523 -472)">
        <g id="Group_9718" data-name="Group 9718" transform="translate(525 -7)">
          <g id="Group_9716" data-name="Group 9716" transform="translate(387 -1057)">
            <g id="Mask_Group_9466" data-name="Mask Group 9466" transform="translate(-1 -103)" clip-path="url(#clip-path)">
              <g id="Group_9673" data-name="Group 9673" transform="translate(0 -63)">
                <g id="Group_9671" data-name="Group 9671" transform="translate(-278.998 1224)">
                  <g id="Group_9670" data-name="Group 9670" transform="translate(0 479)">
                    <g id="Group_9669" data-name="Group 9669" transform="translate(0 448)">
                      <g id="Group_9668" data-name="Group 9668" transform="translate(205 199)">
                        <circle id="Ellipse_2594" data-name="Ellipse 2594" cx="45.5" cy="45.5" r="45.5" transform="translate(339 901)" fill="#0194ec"/>
                        <path id="Subtraction_3" data-name="Subtraction 3" d="M17302.957,6657.464h0a45.509,45.509,0,0,1-24.957-40.609,45.467,45.467,0,0,1,45.332-45.5c4.553,16.961-3.193,31.9-10.684,46.337l0,.011c-7.021,13.544-13.654,26.337-9.687,39.76Z" transform="translate(-16939 -5670.354)" fill="#008ae9"/>
                        <g transform="matrix(1, 0, 0, 1, 340, 902)" filter="url(#Subtraction_4)">
                          <path id="Subtraction_4-2" data-name="Subtraction 4" d="M45.332,86.111h0A45.506,45.506,0,0,1,24.957,0c-3.971,13.427,2.666,26.224,9.692,39.771C42.138,54.216,49.883,69.15,45.332,86.11Z" transform="translate(104.53 55.94) rotate(149)" fill="#109aed" opacity="0.67"/>
                        </g>
                      </g>
                    </g>
                  </g>
                </g>
              </g>
            </g>
          </g>
        </g>
      </g>
    </g>
    <g id="Group_9385" data-name="Group 9385" transform="translate(104.305)">
      <g transform="matrix(1, 0, 0, 1, 1287.7, 1550)" filter="url(#Path_3690)">
        <path id="Path_3690-2" data-name="Path 3690" d="M228.717,3987.5l6.628,14.792h15.535l-13.313,11.818,6.657,17.772-15.535-11.09-15.535,11.09,6.657-17.772L206.5,4002.292h15.535Z" transform="translate(-184.2 -3966.5)" fill="none" stroke="#f3f9ff" stroke-linejoin="round" stroke-width="2"/>
      </g>
    </g>
  </g>
</svg>
