<svg xmlns="http://www.w3.org/2000/svg" width="40.079" height="41.909" viewBox="0 0 40.079 41.909">
  <g id="consultancy_mobile" transform="translate(-1193.25 -2036.75)">
    <g id="Group_9719" data-name="Group 9719" transform="translate(1194 2037.5)">
      <g id="Group_9388" data-name="Group 9388" transform="translate(10.653 11.896)">
        <line id="Line_1508" data-name="Line 1508" x2="4.209" transform="translate(6.532 23.814)" fill="none" stroke="#707070" stroke-linecap="round" stroke-linejoin="round" stroke-width="1.5"/>
        <line id="Line_1509" data-name="Line 1509" x2="4.209" transform="translate(6.532 26.332)" fill="none" stroke="#707070" stroke-linecap="round" stroke-linejoin="round" stroke-width="1.5"/>
        <path id="Path_10069" data-name="Path 10069" d="M-.127,0V1.665" transform="translate(8.763 26.847)" fill="none" stroke="#707070" stroke-linecap="round" stroke-width="1.5"/>
        <path id="Path_2282" data-name="Path 2282" d="M408.223,879.574a8.564,8.564,0,1,0-10.732,7.752v5h4.369v-5A8.334,8.334,0,0,0,408.223,879.574Z" transform="translate(-391.128 -871.5)" fill="none" stroke="#707070" stroke-linecap="round" stroke-linejoin="round" stroke-width="1.5"/>
      </g>
      <line id="Line_7560" data-name="Line 7560" y1="7.716" transform="translate(19.64)" fill="none" stroke="#707070" stroke-linecap="round" stroke-width="1.5"/>
      <line id="Line_7561" data-name="Line 7561" x1="6.313" transform="translate(32.266 21.744)" fill="none" stroke="#707070" stroke-linecap="round" stroke-width="1.5"/>
      <line id="Line_7562" data-name="Line 7562" x1="6.313" transform="translate(0 21.744)" fill="none" stroke="#707070" stroke-linecap="round" stroke-width="1.5"/>
      <line id="Line_7563" data-name="Line 7563" x1="4.91" y1="3.507" transform="translate(2.104 11.924)" fill="none" stroke="#707070" stroke-linecap="round" stroke-width="1.5"/>
      <line id="Line_7564" data-name="Line 7564" y1="3.507" x2="4.91" transform="translate(31.564 11.924)" fill="none" stroke="#707070" stroke-linecap="round" stroke-width="1.5"/>
      <line id="Line_7565" data-name="Line 7565" x1="2.104" y1="2.806" transform="translate(9.82 7.014)" fill="none" stroke="#707070" stroke-linecap="round" stroke-width="1.5"/>
      <line id="Line_7566" data-name="Line 7566" y1="2.806" x2="2.104" transform="translate(27.356 7.014)" fill="none" stroke="#707070" stroke-linecap="round" stroke-width="1.5"/>
    </g>
  </g>
</svg>
