<svg xmlns="http://www.w3.org/2000/svg" xmlns:xlink="http://www.w3.org/1999/xlink" width="89" height="89" viewBox="0 0 89 89">
  <defs>
    <clipPath id="clip-path">
      <circle id="Ellipse_2597" data-name="Ellipse 2597" cx="44.5" cy="44.5" r="44.5" transform="translate(266 3189)" fill="none" stroke="#707070" stroke-width="1"/>
    </clipPath>
    <filter id="Subtraction_4" x="11.159" y="-23.874" width="102.368" height="115.855" filterUnits="userSpaceOnUse">
      <feOffset dy="3" input="SourceAlpha"/>
      <feGaussianBlur stdDeviation="3" result="blur"/>
      <feFlood flood-opacity="0.071"/>
      <feComposite operator="in" in2="blur"/>
      <feComposite in="SourceGraphic"/>
    </filter>
  </defs>
  <g id="consultancy_processes" transform="translate(-1303 -1103)">
    <g id="Group_9727" data-name="Group 9727" transform="translate(871 1)">
      <g id="Group_9725" data-name="Group 9725" transform="translate(-222 -448)">
        <g id="Group_9721" data-name="Group 9721" transform="translate(-523 -472)">
          <g id="Group_9718" data-name="Group 9718" transform="translate(525 -7)">
            <g id="Group_9716" data-name="Group 9716" transform="translate(387 -1057)">
              <g id="Mask_Group_9466" data-name="Mask Group 9466" transform="translate(-1 -103)" clip-path="url(#clip-path)">
                <g id="Group_9673" data-name="Group 9673" transform="translate(0 -63)">
                  <g id="Group_9671" data-name="Group 9671" transform="translate(-278.998 1224)">
                    <g id="Group_9670" data-name="Group 9670" transform="translate(0 479)">
                      <g id="Group_9669" data-name="Group 9669" transform="translate(0 448)">
                        <g id="Group_9668" data-name="Group 9668" transform="translate(205 199)">
                          <circle id="Ellipse_2594" data-name="Ellipse 2594" cx="45.5" cy="45.5" r="45.5" transform="translate(339 901)" fill="#0194ec"/>
                          <path id="Subtraction_3" data-name="Subtraction 3" d="M17302.957,6657.464h0a45.509,45.509,0,0,1-24.957-40.609,45.467,45.467,0,0,1,45.332-45.5c4.553,16.961-3.193,31.9-10.684,46.337l0,.011c-7.021,13.544-13.654,26.337-9.687,39.76Z" transform="translate(-16939 -5670.354)" fill="#008ae9"/>
                          <g transform="matrix(1, 0, 0, 1, 340, 902)" filter="url(#Subtraction_4)">
                            <path id="Subtraction_4-2" data-name="Subtraction 4" d="M45.332,86.111h0A45.506,45.506,0,0,1,24.957,0c-3.971,13.427,2.666,26.224,9.692,39.771C42.138,54.216,49.883,69.15,45.332,86.11Z" transform="translate(104.53 55.94) rotate(149)" fill="#109aed" opacity="0.67"/>
                          </g>
                        </g>
                      </g>
                    </g>
                  </g>
                </g>
              </g>
            </g>
          </g>
        </g>
      </g>
    </g>
    <g id="Group_9381" data-name="Group 9381" transform="translate(3 -13)">
      <g id="Group_7154" data-name="Group 7154" transform="translate(1317.148 1135.871)">
        <rect id="Rectangle_1973" data-name="Rectangle 1973" width="15.669" height="13.303" transform="translate(19.586 0)" fill="none" stroke="#fff" stroke-linecap="round" stroke-linejoin="round" stroke-width="2"/>
        <rect id="Rectangle_1974" data-name="Rectangle 1974" width="11.752" height="11.752" transform="translate(21.545 42.605)" fill="none" stroke="#fff" stroke-linecap="round" stroke-linejoin="round" stroke-width="2"/>
        <rect id="Rectangle_1976" data-name="Rectangle 1976" width="11.752" height="11.752" transform="translate(0 25.054)" fill="none" stroke="#fff" stroke-linecap="round" stroke-linejoin="round" stroke-width="2"/>
        <path id="Path_10065" data-name="Path 10065" d="M811.966,968.6a13.445,13.445,0,0,0-9.417,5.528,16.044,16.044,0,0,0-3.049,10.037" transform="translate(-793.217 -959.115)" fill="none" stroke="#fff" stroke-linecap="round" stroke-linejoin="round" stroke-width="2"/>
        <path id="Path_12021" data-name="Path 12021" d="M0,0V29.3" transform="translate(27.421 13.303)" fill="none" stroke="#fff" stroke-width="2"/>
        <rect id="Rectangle_3993" data-name="Rectangle 3993" width="11.752" height="11.752" transform="translate(42.997 25.054)" fill="none" stroke="#fff" stroke-linecap="round" stroke-linejoin="round" stroke-width="2"/>
        <path id="Path_12022" data-name="Path 12022" d="M799.472,968.6a13.445,13.445,0,0,1,9.417,5.528,16.044,16.044,0,0,1,3.049,10.037" transform="translate(-763.472 -959.115)" fill="none" stroke="#fff" stroke-linecap="round" stroke-linejoin="round" stroke-width="2"/>
      </g>
    </g>
  </g>
</svg>
