<svg xmlns="http://www.w3.org/2000/svg" xmlns:xlink="http://www.w3.org/1999/xlink" width="89" height="89" viewBox="0 0 89 89">
  <defs>
    <clipPath id="clip-path">
      <circle id="Ellipse_2597" data-name="Ellipse 2597" cx="44.5" cy="44.5" r="44.5" transform="translate(266 3189)" fill="none" stroke="#707070" stroke-width="1"/>
    </clipPath>
    <filter id="Subtraction_4" x="11.159" y="-23.874" width="102.368" height="115.855" filterUnits="userSpaceOnUse">
      <feOffset dy="3" input="SourceAlpha"/>
      <feGaussianBlur stdDeviation="3" result="blur"/>
      <feFlood flood-opacity="0.071"/>
      <feComposite operator="in" in2="blur"/>
      <feComposite in="SourceGraphic"/>
    </filter>
    <filter id="Rectangle_912" x="10" y="16" width="70" height="53" filterUnits="userSpaceOnUse">
      <feOffset dy="3" input="SourceAlpha"/>
      <feGaussianBlur stdDeviation="3" result="blur-2"/>
      <feFlood flood-opacity="0.161"/>
      <feComposite operator="in" in2="blur-2"/>
      <feComposite in="SourceGraphic"/>
    </filter>
    <filter id="Path_10070" x="34" y="49" width="20" height="26" filterUnits="userSpaceOnUse">
      <feOffset dy="3" input="SourceAlpha"/>
      <feGaussianBlur stdDeviation="3" result="blur-3"/>
      <feFlood flood-opacity="0.161"/>
      <feComposite operator="in" in2="blur-3"/>
      <feComposite in="SourceGraphic"/>
    </filter>
    <filter id="Path_4871" x="22.624" y="55.115" width="42.559" height="31.279" filterUnits="userSpaceOnUse">
      <feOffset dy="3" input="SourceAlpha"/>
      <feGaussianBlur stdDeviation="3" result="blur-4"/>
      <feFlood flood-opacity="0.161"/>
      <feComposite operator="in" in2="blur-4"/>
      <feComposite in="SourceGraphic"/>
    </filter>
  </defs>
  <g id="consultancy_analytics" transform="translate(-652 -2029)">
    <g id="Group_9716" data-name="Group 9716" transform="translate(387 -1057)">
      <g id="Mask_Group_9466" data-name="Mask Group 9466" transform="translate(-1 -103)" clip-path="url(#clip-path)">
        <g id="Group_9673" data-name="Group 9673" transform="translate(0 -63)">
          <g id="Group_9671" data-name="Group 9671" transform="translate(-278.998 1224)">
            <g id="Group_9670" data-name="Group 9670" transform="translate(0 479)">
              <g id="Group_9669" data-name="Group 9669" transform="translate(0 448)">
                <g id="Group_9668" data-name="Group 9668" transform="translate(205 199)">
                  <circle id="Ellipse_2594" data-name="Ellipse 2594" cx="45.5" cy="45.5" r="45.5" transform="translate(339 901)" fill="#0194ec"/>
                  <path id="Subtraction_3" data-name="Subtraction 3" d="M17302.957,6657.464h0a45.509,45.509,0,0,1-24.957-40.609,45.467,45.467,0,0,1,45.332-45.5c4.553,16.961-3.193,31.9-10.684,46.337l0,.011c-7.021,13.544-13.654,26.337-9.687,39.76Z" transform="translate(-16939 -5670.354)" fill="#008ae9"/>
                  <g transform="matrix(1, 0, 0, 1, 340, 902)" filter="url(#Subtraction_4)">
                    <path id="Subtraction_4-2" data-name="Subtraction 4" d="M45.332,86.111h0A45.506,45.506,0,0,1,24.957,0c-3.971,13.427,2.666,26.224,9.692,39.771C42.138,54.216,49.883,69.15,45.332,86.11Z" transform="translate(104.53 55.94) rotate(149)" fill="#109aed" opacity="0.67"/>
                  </g>
                </g>
              </g>
            </g>
          </g>
        </g>
      </g>
    </g>
    <g id="Group_9389" data-name="Group 9389" transform="translate(106)">
      <g id="Group_3786" data-name="Group 3786" transform="translate(-515.5 1138.5)">
        <g transform="matrix(1, 0, 0, 1, 1061.5, 890.5)" filter="url(#Rectangle_912)">
          <rect id="Rectangle_912-2" data-name="Rectangle 912" width="50" height="33" transform="translate(20 23)" fill="none" stroke="#fff" stroke-linejoin="round" stroke-width="2"/>
        </g>
        <g transform="matrix(1, 0, 0, 1, 1061.5, 890.5)" filter="url(#Path_10070)">
          <path id="Path_10070-2" data-name="Path 10070" d="M0,0V6" transform="translate(44 56)" fill="none" stroke="#fff" stroke-linecap="round" stroke-width="2"/>
        </g>
        <g transform="matrix(1, 0, 0, 1, 1061.5, 890.5)" filter="url(#Path_4871)">
          <path id="Path_4871-2" data-name="Path 4871" d="M1087.5,942.365l10.865-10.865,10.865,10.865" transform="translate(-1054.46 -869.38)" fill="none" stroke="#fff" stroke-linecap="round" stroke-linejoin="round" stroke-width="2"/>
        </g>
        <path id="Path_4872" data-name="Path 4872" d="M1083.5,926.192h8.692l4.346-5.433,4.346,9.779,5.433-6.519,4.346,4.346,7.606-10.865" transform="translate(2.346 4.692)" fill="none" stroke="#fff" stroke-linecap="round" stroke-linejoin="round" stroke-width="2"/>
      </g>
    </g>
  </g>
</svg>
