<svg xmlns="http://www.w3.org/2000/svg" width="30.844" height="39.231" viewBox="0 0 30.844 39.231">
  <g id="consulting_mobile" transform="translate(-292.75 -3361.25)">
    <g id="Group_9688" data-name="Group 9688" transform="translate(293.5 3362)">
      <g id="Group_3229" data-name="Group 3229" transform="translate(0 0.94)">
        <g id="Group_3228" data-name="Group 3228" transform="translate(0 0)">
          <path id="Path_4146" data-name="Path 4146" d="M120.8,4968.863v13.554a3.874,3.874,0,0,1-3.873,3.873H103.373a3.874,3.874,0,0,1-3.873-3.873v-29.045a3.873,3.873,0,0,1,3.873-3.874h5.809" transform="translate(-99.5 -4949.499)" fill="none" stroke="#707070" stroke-linecap="round" stroke-linejoin="round" stroke-width="1.5"/>
          <line id="Line_2676" data-name="Line 2676" x1="9.682" transform="translate(0 7.746)" fill="none" stroke="#707070" stroke-linecap="round" stroke-linejoin="round" stroke-width="1.5"/>
          <line id="Line_2677" data-name="Line 2677" x1="21.3" transform="translate(0 29.046)" fill="none" stroke="#707070" stroke-linecap="round" stroke-linejoin="round" stroke-width="1.5"/>
          <line id="Line_2678" data-name="Line 2678" x2="1.936" transform="translate(7.746 3.873)" fill="none" stroke="#707070" stroke-linecap="round" stroke-linejoin="round" stroke-width="1.5"/>
          <path id="Path_4147" data-name="Path 4147" d="M106.436,4966.968a.97.97,0,0,1-.968.968h0a.97.97,0,0,1-.968-.968h0a.967.967,0,0,1,.968-.968h0a.967.967,0,0,1,.968.968Z" transform="translate(-94.818 -4934.05)" fill="#fff" stroke="#707070" stroke-linejoin="round" stroke-width="1.5"/>
        </g>
      </g>
      <g id="Group_9439" data-name="Group 9439" transform="translate(13.001)">
        <path id="Path_471" data-name="Path 471" d="M265.235,2754l-4.941,4.941L257,2755.647" transform="translate(-253.015 -2748.368)" fill="none" stroke="#707070" stroke-linecap="round" stroke-linejoin="round" stroke-width="1.5"/>
        <circle id="Ellipse_113" data-name="Ellipse 113" cx="8.172" cy="8.172" r="8.172" transform="translate(0 0)" fill="none" stroke="#707070" stroke-linejoin="round" stroke-width="1.5"/>
      </g>
    </g>
  </g>
</svg>
