<svg xmlns="http://www.w3.org/2000/svg" xmlns:xlink="http://www.w3.org/1999/xlink" width="89" height="89" viewBox="0 0 89 89">
  <defs>
    <clipPath id="clip-path">
      <circle id="Ellipse_2617" data-name="Ellipse 2617" cx="44.5" cy="44.5" r="44.5" transform="translate(266 3189)" fill="none" stroke="#707070" stroke-width="1"/>
    </clipPath>
    <filter id="Subtraction_14" x="11.159" y="-23.874" width="102.368" height="115.855" filterUnits="userSpaceOnUse">
      <feOffset dy="3" input="SourceAlpha"/>
      <feGaussianBlur stdDeviation="3" result="blur"/>
      <feFlood flood-opacity="0.071"/>
      <feComposite operator="in" in2="blur"/>
      <feComposite in="SourceGraphic"/>
    </filter>
    <filter id="Path_471" x="26.808" y="33.271" width="38.654" height="32.428" filterUnits="userSpaceOnUse">
      <feOffset dy="3" input="SourceAlpha"/>
      <feGaussianBlur stdDeviation="3" result="blur-2"/>
      <feFlood flood-opacity="0.161"/>
      <feComposite operator="in" in2="blur-2"/>
      <feComposite in="SourceGraphic"/>
    </filter>
    <filter id="Path_3994" x="15.9" y="17.4" width="57.405" height="62.986" filterUnits="userSpaceOnUse">
      <feOffset dy="3" input="SourceAlpha"/>
      <feGaussianBlur stdDeviation="3" result="blur-3"/>
      <feFlood flood-opacity="0.161"/>
      <feComposite operator="in" in2="blur-3"/>
      <feComposite in="SourceGraphic"/>
    </filter>
  </defs>
  <g id="development_proof" transform="translate(-425 -4092)">
    <g id="Mask_Group_9471" data-name="Mask Group 9471" transform="translate(159 903)" clip-path="url(#clip-path)">
      <g id="Group_9709" data-name="Group 9709" transform="translate(0 -63)">
        <g id="Group_9708" data-name="Group 9708" transform="translate(-278.998 1224)">
          <g id="Group_9707" data-name="Group 9707" transform="translate(0 479)">
            <g id="Group_9706" data-name="Group 9706" transform="translate(0 448)">
              <g id="Group_9705" data-name="Group 9705" transform="translate(205 199)">
                <circle id="Ellipse_2614" data-name="Ellipse 2614" cx="45.5" cy="45.5" r="45.5" transform="translate(339 901)" fill="#0194ec"/>
                <path id="Subtraction_13" data-name="Subtraction 13" d="M17302.957,6657.464h0a45.509,45.509,0,0,1-24.957-40.609,45.467,45.467,0,0,1,45.332-45.5c4.553,16.961-3.193,31.9-10.684,46.337l0,.011c-7.021,13.544-13.654,26.337-9.687,39.76Z" transform="translate(-16939 -5670.354)" fill="#008ae9"/>
                <g transform="matrix(1, 0, 0, 1, 340, 902)" filter="url(#Subtraction_14)">
                  <path id="Subtraction_14-2" data-name="Subtraction 14" d="M45.332,86.111h0A45.506,45.506,0,0,1,24.957,0c-3.971,13.427,2.666,26.224,9.692,39.771C42.138,54.216,49.883,69.15,45.332,86.11Z" transform="translate(104.53 55.94) rotate(149)" fill="#109aed" opacity="0.67"/>
                </g>
              </g>
            </g>
          </g>
        </g>
      </g>
    </g>
    <g id="Group_9710" data-name="Group 9710" transform="translate(69 32)">
      <g id="Group_9440" data-name="Group 9440" transform="translate(387.832 4095.831)">
        <g transform="matrix(1, 0, 0, 1, -31.83, -35.83)" filter="url(#Path_471)">
          <path id="Path_471-2" data-name="Path 471" d="M274.543,2751.246l-11.531,11.772L257,2757.006" transform="translate(-219.64 -2710.42)" fill="none" stroke="#fff" stroke-linecap="round" stroke-linejoin="round" stroke-width="2.2"/>
        </g>
      </g>
      <g id="Group_3191" data-name="Group 3191" transform="translate(-15.5 2536.5)">
        <g id="Group_3189" data-name="Group 3189" transform="translate(397.5 1548)">
          <g transform="matrix(1, 0, 0, 1, -26, -24.5)" filter="url(#Path_3994)">
            <path id="Path_3994-2" data-name="Path 3994" d="M416.117,1548h-.03c-3.906,4.989-10.3,6.425-18.588.625V1575.9s2.861,10.473,18.6,14.882c15.741-4.409,18.6-14.882,18.6-14.882v-27.279C426.524,1554.358,420.069,1553.045,416.117,1548Z" transform="translate(-371.5 -1523.5)" fill="none" stroke="#fff" stroke-linecap="round" stroke-linejoin="round" stroke-width="2.2"/>
          </g>
        </g>
      </g>
    </g>
  </g>
</svg>
