<svg xmlns="http://www.w3.org/2000/svg" width="39.662" height="39.858" viewBox="0 0 39.662 39.858">
  <g id="development_solution" transform="translate(-349.449 -4563.05)">
    <g id="Group_9441" data-name="Group 9441" transform="translate(350.199 4563.8)">
      <line id="Line_7577" data-name="Line 7577" x2="15.844" transform="translate(0 0)" fill="none" stroke="#707070" stroke-linecap="round" stroke-width="1.5"/>
      <line id="Line_7579" data-name="Line 7579" x2="15.844" transform="translate(15.257 7.632)" fill="none" stroke="#707070" stroke-linecap="round" stroke-width="1.5"/>
      <path id="Path_10165" data-name="Path 10165" d="M0,0H15.518" transform="translate(15.257 30.511)" fill="none" stroke="#707070" stroke-linecap="round" stroke-width="1.5"/>
      <path id="Path_10155" data-name="Path 10155" d="M-.594.469H15.832" transform="translate(0.704 37.889)" fill="none" stroke="#707070" stroke-linecap="round" stroke-width="1.5"/>
      <path id="Path_10156" data-name="Path 10156" d="M-.594.469H15.832" transform="translate(22.243 37.889)" fill="none" stroke="#707070" stroke-linecap="round" stroke-width="1.5"/>
      <path id="Path_10161" data-name="Path 10161" d="M.383,0H15.477" transform="translate(7.329 22.888)" fill="none" stroke="#707070" stroke-linecap="round" stroke-width="1.5"/>
      <path id="Path_10164" data-name="Path 10164" d="M0,0H7.889" transform="translate(22.89 15.256)" fill="none" stroke="#707070" stroke-linecap="round" stroke-width="1.5"/>
      <path id="Path_10160" data-name="Path 10160" d="M.324,0H15.848" transform="translate(22.296 0)" fill="none" stroke="#707070" stroke-linecap="round" stroke-width="1.5"/>
      <path id="Path_10154" data-name="Path 10154" d="M.313-.7V37.643" transform="translate(-0.3 0.7)" fill="none" stroke="#707070" stroke-linecap="round" stroke-width="1.5"/>
      <path id="Path_10157" data-name="Path 10157" d="M.017.443,0,38.446" transform="translate(38.144 -0.3)" fill="none" stroke="#707070" stroke-linecap="round" stroke-width="1.5"/>
      <line id="Line_7587" data-name="Line 7587" y2="30.807" transform="translate(7.633 0)" fill="none" stroke="#707070" stroke-linecap="round" stroke-width="1.5"/>
      <path id="Path_10158" data-name="Path 10158" d="M0,.364V7.929" transform="translate(22.593 -0.301)" fill="none" stroke="#707070" stroke-linecap="round" stroke-width="1.5"/>
      <path id="Path_10159" data-name="Path 10159" d="M0,.5V7.932" transform="translate(15.257 7.32)" fill="none" stroke="#707070" stroke-linecap="round" stroke-width="1.5"/>
      <path id="Path_10162" data-name="Path 10162" d="M0,.4V7.93" transform="translate(22.89 14.959)" fill="none" stroke="#707070" stroke-linecap="round" stroke-width="1.5"/>
      <path id="Path_10163" data-name="Path 10163" d="M0,.361V15.49" transform="translate(30.811 14.952)" fill="none" stroke="#707070" stroke-linecap="round" stroke-width="1.5"/>
    </g>
  </g>
</svg>
