<svg xmlns="http://www.w3.org/2000/svg" xmlns:xlink="http://www.w3.org/1999/xlink" width="89" height="89" viewBox="0 0 89 89">
  <defs>
    <clipPath id="clip-path">
      <circle id="Ellipse_2617" data-name="Ellipse 2617" cx="44.5" cy="44.5" r="44.5" transform="translate(266 3189)" fill="none" stroke="#707070" stroke-width="1"/>
    </clipPath>
    <filter id="Subtraction_14" x="11.159" y="-23.874" width="102.368" height="115.855" filterUnits="userSpaceOnUse">
      <feOffset dy="3" input="SourceAlpha"/>
      <feGaussianBlur stdDeviation="3" result="blur"/>
      <feFlood flood-opacity="0.071"/>
      <feComposite operator="in" in2="blur"/>
      <feComposite in="SourceGraphic"/>
    </filter>
    <filter id="Ellipse_944" x="37.001" y="40" width="40" height="40" filterUnits="userSpaceOnUse">
      <feOffset dy="3" input="SourceAlpha"/>
      <feGaussianBlur stdDeviation="3" result="blur-2"/>
      <feFlood flood-opacity="0.161"/>
      <feComposite operator="in" in2="blur-2"/>
      <feComposite in="SourceGraphic"/>
    </filter>
    <filter id="Path_3523" x="17" y="21.234" width="33.768" height="56.142" filterUnits="userSpaceOnUse">
      <feOffset dy="3" input="SourceAlpha"/>
      <feGaussianBlur stdDeviation="3" result="blur-3"/>
      <feFlood flood-opacity="0.161"/>
      <feComposite operator="in" in2="blur-3"/>
      <feComposite in="SourceGraphic"/>
    </filter>
    <filter id="Path_3524" x="17" y="17.792" width="52.7" height="34.629" filterUnits="userSpaceOnUse">
      <feOffset dy="3" input="SourceAlpha"/>
      <feGaussianBlur stdDeviation="3" result="blur-4"/>
      <feFlood flood-opacity="0.161"/>
      <feComposite operator="in" in2="blur-4"/>
      <feComposite in="SourceGraphic"/>
    </filter>
  </defs>
  <g id="development_tehnology" transform="translate(-466 -4301)">
    <g id="Group_9712" data-name="Group 9712" transform="translate(41 209)">
      <g id="Mask_Group_9471" data-name="Mask Group 9471" transform="translate(159 903)" clip-path="url(#clip-path)">
        <g id="Group_9709" data-name="Group 9709" transform="translate(0 -63)">
          <g id="Group_9708" data-name="Group 9708" transform="translate(-278.998 1224)">
            <g id="Group_9707" data-name="Group 9707" transform="translate(0 479)">
              <g id="Group_9706" data-name="Group 9706" transform="translate(0 448)">
                <g id="Group_9705" data-name="Group 9705" transform="translate(205 199)">
                  <circle id="Ellipse_2614" data-name="Ellipse 2614" cx="45.5" cy="45.5" r="45.5" transform="translate(339 901)" fill="#0194ec"/>
                  <path id="Subtraction_13" data-name="Subtraction 13" d="M17302.957,6657.464h0a45.509,45.509,0,0,1-24.957-40.609,45.467,45.467,0,0,1,45.332-45.5c4.553,16.961-3.193,31.9-10.684,46.337l0,.011c-7.021,13.544-13.654,26.337-9.687,39.76Z" transform="translate(-16939 -5670.354)" fill="#008ae9"/>
                  <g transform="matrix(1, 0, 0, 1, 340, 902)" filter="url(#Subtraction_14)">
                    <path id="Subtraction_14-2" data-name="Subtraction 14" d="M45.332,86.111h0A45.506,45.506,0,0,1,24.957,0c-3.971,13.427,2.666,26.224,9.692,39.771C42.138,54.216,49.883,69.15,45.332,86.11Z" transform="translate(104.53 55.94) rotate(149)" fill="#109aed" opacity="0.67"/>
                  </g>
                </g>
              </g>
            </g>
          </g>
        </g>
      </g>
    </g>
    <g id="Group_2778" data-name="Group 2778" transform="translate(-446.5 3365.5)">
      <g id="Group_2776" data-name="Group 2776" transform="translate(959.501 982.5)">
        <g transform="matrix(1, 0, 0, 1, -47, -47)" filter="url(#Ellipse_944)">
          <circle id="Ellipse_944-2" data-name="Ellipse 944" cx="10" cy="10" r="10" transform="translate(47 47)" fill="none" stroke="#fff" stroke-linejoin="round" stroke-width="2"/>
        </g>
        <line id="Line_2264" data-name="Line 2264" y1="10" transform="translate(10 5.001)" fill="none" stroke="#fff" stroke-linecap="round" stroke-linejoin="round" stroke-width="2"/>
        <line id="Line_7576" data-name="Line 7576" x2="10" transform="translate(5 10.001)" fill="none" stroke="#fff" stroke-linecap="round" stroke-linejoin="round" stroke-width="2"/>
      </g>
      <g id="Group_2777" data-name="Group 2777" transform="translate(939.5 960.292)">
        <g transform="matrix(1, 0, 0, 1, -27, -24.79)" filter="url(#Path_3523)">
          <path id="Path_3523-2" data-name="Path 3523" d="M953.268,999.642H942.942A3.443,3.443,0,0,1,939.5,996.2V963.5" transform="translate(-912.5 -935.27)" fill="none" stroke="#fff" stroke-linecap="round" stroke-linejoin="round" stroke-width="2"/>
        </g>
        <g transform="matrix(1, 0, 0, 1, -27, -24.79)" filter="url(#Path_3524)">
          <path id="Path_3524-2" data-name="Path 3524" d="M972.2,961.5H942.942a3.442,3.442,0,1,0,0,6.884H972.2v7.745" transform="translate(-912.5 -936.71)" fill="none" stroke="#fff" stroke-linecap="round" stroke-linejoin="round" stroke-width="2"/>
        </g>
        <line id="Line_2265" data-name="Line 2265" x2="28" transform="translate(4 3.208)" fill="none" stroke="#fff" stroke-linecap="round" stroke-linejoin="round" stroke-width="1.5"/>
      </g>
    </g>
  </g>
</svg>
