<svg width="63" height="63" viewBox="0 0 63 63" fill="none" xmlns="http://www.w3.org/2000/svg">
<circle cx="31.5" cy="31.5" r="31" fill="#FF6868" stroke="#F1F1F1"/>
<path d="M30.1251 18.0056C30.5589 16.6648 32.4428 16.6648 32.8752 18.0056L35.0714 24.8104C35.166 25.1023 35.3497 25.3567 35.5964 25.5371C35.8431 25.7175 36.1401 25.8148 36.445 25.815H43.5515C44.9525 25.815 45.5338 27.6203 44.4017 28.4501L38.6529 32.6547C38.4059 32.8355 38.2221 33.0903 38.1279 33.3827C38.0336 33.6751 38.0336 33.99 38.128 34.2824L40.3229 41.0872C40.7566 42.4295 39.2312 43.5447 38.0991 42.7149L32.3503 38.5103C32.1032 38.3294 31.8056 38.232 31.5001 38.232C31.1947 38.232 30.897 38.3294 30.65 38.5103L24.9012 42.7149C23.769 43.5447 22.2437 42.428 22.6774 41.0872L24.8723 34.2824C24.9666 33.99 24.9667 33.6751 24.8724 33.3827C24.7781 33.0903 24.5943 32.8355 24.3474 32.6547L18.5986 28.4501C17.465 27.6203 18.0492 25.815 19.4488 25.815H26.5538C26.859 25.8151 27.1563 25.7179 27.4033 25.5375C27.6503 25.3571 27.8342 25.1026 27.9288 24.8104L30.1251 18.0056V18.0056Z" stroke="white" stroke-width="2" stroke-linecap="round" stroke-linejoin="round"/>
</svg>
