<?xml version="1.0" encoding="utf-8"?>
<!-- Generator: Adobe Illustrator 24.3.0, SVG Export Plug-In . SVG Version: 6.00 Build 0)  -->
<svg version="1.1" id="Layer_1" xmlns="http://www.w3.org/2000/svg" xmlns:xlink="http://www.w3.org/1999/xlink" x="0px" y="0px"
	 viewBox="0 0 86 87" style="enable-background:new 0 0 86 87;" xml:space="preserve">
<style type="text/css">
	.st0{fill:#E4EDFF;}
	.st1{fill:#70A2FF;}
	.st2{fill:#E4EDFF;filter:url(#Adobe_OpacityMaskFilter);}
	.st3{mask:url(#mask0_1_);}
	.st4{fill:#474CA8;}
	.st5{fill:#C5C3E6;}
	.st6{fill:#235ECC;}
	.st7{fill:#272DA1;}
	.st8{fill:#42F9FF;}
	.st9{fill:#3A3687;}
</style>
<path class="st0" d="M43,84.6C66,84.6,84.6,66,84.6,43C84.6,20.1,66,1.5,43,1.5C20.1,1.5,1.5,20.1,1.5,43C1.5,66,20.1,84.6,43,84.6z
	"/>
<path class="st1" d="M43,86.7c-8.5,0-16.8-2.5-23.9-7.3S6.5,67.9,3.3,60C0,52-0.8,43.3,0.8,34.9s5.8-16.1,11.8-22.2
	c6-6.1,13.7-10.2,22-11.9C43-0.8,51.6,0,59.5,3.3c7.9,3.3,14.6,8.8,19.3,16c4.7,7.1,7.2,15.5,7.2,24.1c0,11.5-4.5,22.5-12.6,30.7
	C65.3,82.2,54.4,86.7,43,86.7L43,86.7z M43,2.9c-7.9,0-15.7,2.4-22.3,6.8C14.1,14.2,9,20.5,5.9,27.9S2.1,43.4,3.7,51.3
	S9,66.3,14.6,72c5.6,5.7,12.8,9.5,20.5,11.1c7.8,1.6,15.8,0.8,23.2-2.3s13.6-8.2,18-14.9c4.4-6.7,6.8-14.5,6.8-22.5
	c0-10.7-4.2-21-11.8-28.6C63.8,7.2,53.6,2.9,43,2.9L43,2.9z"/>
<defs>
	<filter id="Adobe_OpacityMaskFilter" filterUnits="userSpaceOnUse" x="12.1" y="19" width="63" height="98">
		<feColorMatrix  type="matrix" values="1 0 0 0 0  0 1 0 0 0  0 0 1 0 0  0 0 0 1 0"/>
	</filter>
</defs>
<mask maskUnits="userSpaceOnUse" x="12.1" y="19" width="63" height="98" id="mask0_1_">
	<path class="st2" d="M43,83.9c22.9,0,41.6-18.6,41.6-41.6C84.6,19.4,66,0.7,43,0.7C20.1,0.7,1.5,19.4,1.5,42.3
		C1.5,65.2,20.1,83.9,43,83.9z"/>
</mask>
<g class="st3">
	<path class="st4" d="M47.3,72.4c0-1.9,0.6-3.8,1.6-5.4c1.1-1.6,2.6-2.8,4.4-3.6c1.8-0.7,3.7-0.9,5.6-0.6c1.9,0.4,3.6,1.3,5,2.7
		s2.3,3.1,2.7,5c0.4,1.9,0.2,3.8-0.6,5.6c-0.7,1.8-2,3.3-3.6,4.4c-1.6,1.1-3.5,1.6-5.4,1.6c-1.3,0-2.5-0.3-3.7-0.7
		c-1.2-0.5-2.3-1.2-3.2-2.1c-0.9-0.9-1.6-2-2.1-3.2S47.3,73.7,47.3,72.4L47.3,72.4z"/>
	<path class="st4" d="M30.5,82.1c5.4,0,9.7-4.4,9.7-9.7c0-5.4-4.4-9.7-9.7-9.7s-9.7,4.4-9.7,9.7C20.8,77.8,25.1,82.1,30.5,82.1z"/>
	<g>
		<path class="st5" d="M20.9,71c0.4,2.4,1.6,4.6,3.5,6.1c0.2,0.2,0.5,0.3,0.8,0.4c0.3,0.1,0.6,0.1,0.9,0c0.3-0.1,0.6-0.2,0.8-0.3
			s0.5-0.4,0.6-0.7c0.7-1.1,1.6-2.6,2.5-4.1c1.3-2.1,2.8-4,4.5-5.7L28.4,79c1.3,0.3,2.7,0.3,4,0.1c1.3-0.3,2.6-0.8,3.7-1.5
			c1.1-0.8,2-1.7,2.7-2.9c0.7-1.1,1.2-2.4,1.4-3.7c0.2,1.4,0.1,2.8-0.2,4.2c-0.4,1.4-1.1,2.6-2,3.7c-0.9,1.1-2,1.9-3.3,2.5
			s-2.7,0.9-4.1,0.9c-1.4,0-2.8-0.3-4.1-0.9s-2.4-1.4-3.3-2.5c-0.9-1.1-1.6-2.3-2-3.7C20.8,73.8,20.7,72.3,20.9,71L20.9,71z"/>
	</g>
	<g>
		<path class="st5" d="M66.7,71c-0.4,2.4-1.6,4.6-3.5,6.1c-0.2,0.2-0.5,0.3-0.8,0.4c-0.3,0.1-0.6,0.1-0.9,0
			c-0.3-0.1-0.6-0.2-0.8-0.3c-0.3-0.2-0.5-0.4-0.6-0.7c-0.7-1.1-1.6-2.6-2.5-4.1c-1.3-2.1-2.8-4-4.5-5.7L59.2,79
			c-1.3,0.3-2.6,0.3-4,0.1c-1.3-0.3-2.5-0.8-3.6-1.5c-1.1-0.8-2-1.7-2.7-2.9c-0.7-1.1-1.2-2.4-1.3-3.7c-0.2,1.3-0.1,2.7,0.2,4
			c0.3,1.3,0.9,2.5,1.8,3.6c0.8,1.1,1.9,1.9,3.1,2.5c1.2,0.6,2.5,1,3.8,1.1c1.3,0.1,2.7-0.1,3.9-0.5c1.3-0.4,2.4-1.1,3.4-2.1
			c1-0.9,1.8-2,2.3-3.3c0.5-1.2,0.8-2.6,0.8-3.9C66.8,71.9,66.7,71.4,66.7,71L66.7,71z"/>
	</g>
	<path class="st1" d="M60.3,80.8c-4-11-9.9-20.8-16.3-20.8c-6.7,0-12.6,10.4-16.7,21.7C35,85.1,47,87.7,60.3,80.8z"/>
	<path class="st4" d="M43.9,66.5c-2.8,0-5.5-0.5-8.1-1.5c2.5-3,5.2-5,8.1-5c2.8,0,5.6,1.9,8.1,5C49.4,66,46.7,66.5,43.9,66.5z"/>
	<g>
		<path class="st6" d="M43.9,72.4c-3.1,0-6.1-0.2-9.1-0.7c-0.1,0-0.3-0.1-0.4-0.2c-0.1-0.1-0.2-0.2-0.3-0.3C34,71.1,34,70.9,34,70.8
			c0-0.1,0.1-0.3,0.1-0.4c0.6-1,1.3-2,2-2.9c0.1-0.1,0.3-0.2,0.4-0.3c0.2-0.1,0.3-0.1,0.5,0c4.5,1.2,9.3,1.2,13.8,0
			c0.2,0,0.3,0,0.5,0c0.2,0.1,0.3,0.2,0.4,0.3c0.7,0.9,1.4,1.9,2,2.9c0.1,0.1,0.1,0.3,0.1,0.4c0,0.1,0,0.3-0.1,0.4
			c-0.1,0.1-0.2,0.2-0.3,0.3c-0.1,0.1-0.3,0.1-0.4,0.2C50,72.2,47,72.4,43.9,72.4L43.9,72.4z"/>
	</g>
	<g>
		<path class="st7" d="M23,67.3c1.3-1.4,2.9-2.4,4.8-3c1.8-0.6,3.8-0.6,5.6-0.2c0.1,0,0.2,0.1,0.2,0.1s0.1,0.1,0.2,0.2
			c0,0.1,0,0.2,0,0.3c0,0.1,0,0.2-0.1,0.2l-1.3,2.3c-0.1,0.1-0.1,0.2-0.2,0.2c-0.1,0-0.2,0.1-0.3,0.1c-0.3,0-0.6,0-0.9,0
			c-2.4,0-4.8,0.4-7,1.2c-0.2,0.1-0.4,0.1-0.6,0c-0.2-0.1-0.3-0.2-0.5-0.3c-0.1-0.2-0.2-0.4-0.1-0.5C22.8,67.6,22.9,67.4,23,67.3
			L23,67.3z"/>
	</g>
	<g>
		<path class="st7" d="M64.4,67.3c-1.3-1.4-2.9-2.4-4.8-3c-1.8-0.6-3.8-0.6-5.6-0.2c-0.1,0-0.2,0.1-0.2,0.1
			c-0.1,0.1-0.1,0.1-0.2,0.2c0,0.1,0,0.2,0,0.3c0,0.1,0,0.2,0.1,0.2l1.3,2.3c0.1,0.1,0.1,0.2,0.2,0.2c0.1,0,0.2,0.1,0.3,0.1
			c0.3,0,0.6,0,0.9,0c2.4,0,4.8,0.4,7,1.2c0.2,0.1,0.4,0.1,0.6,0c0.2-0.1,0.3-0.2,0.5-0.3c0.1-0.2,0.2-0.4,0.1-0.5
			C64.6,67.6,64.5,67.4,64.4,67.3L64.4,67.3z"/>
	</g>
	<path class="st4" d="M43.7,117c-1,0-2.1-0.4-2.8-1.2c-0.7-0.7-1.2-1.7-1.2-2.8V78.7c0-1,0.4-2,1.2-2.8c0.7-0.7,1.7-1.1,2.8-1.1
		c1,0,2,0.4,2.8,1.1c0.7,0.7,1.2,1.7,1.2,2.8V113c0,1-0.4,2.1-1.2,2.8S44.8,117,43.7,117L43.7,117z"/>
	<path class="st8" d="M43.7,114.7c-0.5,0-0.9-0.2-1.2-0.5c-0.3-0.3-0.5-0.8-0.5-1.2V79.2c0-0.5,0.2-0.9,0.5-1.2
		c0.3-0.3,0.8-0.5,1.2-0.5s0.9,0.2,1.2,0.5c0.3,0.3,0.5,0.8,0.5,1.2V113c0,0.5-0.2,0.9-0.5,1.2C44.6,114.5,44.2,114.7,43.7,114.7
		L43.7,114.7z"/>
	<path class="st9" d="M72.3,24.3h-1.3v13.6h1.3V24.3z"/>
	<path class="st1" d="M68.7,21.9c0-0.6,0.2-1.1,0.5-1.6c0.3-0.5,0.8-0.8,1.3-1.1c0.5-0.2,1.1-0.3,1.7-0.2c0.6,0.1,1.1,0.4,1.5,0.8
		c0.4,0.4,0.7,0.9,0.8,1.5c0.1,0.6,0.1,1.1-0.2,1.7c-0.2,0.5-0.6,1-1.1,1.3c-0.5,0.3-1,0.5-1.6,0.5c-0.8,0-1.5-0.3-2-0.8
		C69,23.3,68.7,22.6,68.7,21.9L68.7,21.9z"/>
	<g>
		<path class="st5" d="M71.6,23.9c-0.7,0-1.4-0.2-1.9-0.7c-0.5-0.4-0.9-1.1-1-1.7c0,0.1,0,0.3,0,0.4c0,0.8,0.3,1.5,0.8,2
			c0.5,0.5,1.3,0.8,2,0.8c0.8,0,1.5-0.3,2-0.8c0.5-0.5,0.8-1.3,0.8-2c0-0.1,0-0.3,0-0.4c-0.1,0.7-0.4,1.3-1,1.7
			C72.9,23.6,72.3,23.9,71.6,23.9L71.6,23.9z"/>
	</g>
	<g>
		<path class="st7" d="M71.6,20.4c0.6,0,1.1,0.1,1.7,0.3c0,0,0.1,0,0.1,0c0,0,0.1,0,0.1-0.1c0,0,0-0.1,0-0.1s0-0.1-0.1-0.1
			c-0.2-0.3-0.5-0.5-0.9-0.6c-0.3-0.1-0.7-0.2-1-0.2c-0.4,0-0.7,0.1-1,0.2c-0.3,0.1-0.6,0.4-0.9,0.6c0,0-0.1,0.1-0.1,0.1
			c0,0,0,0.1,0,0.1s0.1,0.1,0.1,0.1c0,0,0.1,0,0.1,0C70.4,20.5,71,20.4,71.6,20.4L71.6,20.4z"/>
	</g>
	<path class="st9" d="M16.7,24.3h-1.3v13.6h1.3V24.3z"/>
	<path class="st1" d="M13.2,21.9c0-0.6,0.2-1.1,0.5-1.6c0.3-0.5,0.8-0.8,1.3-1.1c0.5-0.2,1.1-0.3,1.7-0.2c0.6,0.1,1.1,0.4,1.5,0.8
		c0.4,0.4,0.7,0.9,0.8,1.5c0.1,0.6,0.1,1.1-0.2,1.7c-0.2,0.5-0.6,1-1.1,1.3c-0.5,0.3-1,0.5-1.6,0.5c-0.4,0-0.7-0.1-1.1-0.2
		c-0.3-0.1-0.7-0.4-0.9-0.6c-0.3-0.3-0.5-0.6-0.6-0.9C13.2,22.6,13.2,22.2,13.2,21.9z"/>
	<g>
		<path class="st5" d="M16,23.9c-0.7,0-1.4-0.2-1.9-0.7c-0.5-0.4-0.9-1.1-1-1.7c0,0.1,0,0.3,0,0.4c0,0.8,0.3,1.5,0.8,2
			c0.5,0.5,1.3,0.8,2,0.8c0.8,0,1.5-0.3,2-0.8c0.5-0.5,0.8-1.3,0.8-2c0-0.1,0-0.3,0-0.4c-0.1,0.7-0.4,1.3-1,1.7
			C17.4,23.6,16.7,23.9,16,23.9z"/>
	</g>
	<g>
		<path class="st7" d="M16,20.4c0.6,0,1.1,0.1,1.7,0.3c0,0,0.1,0,0.1,0c0,0,0.1,0,0.1-0.1c0,0,0-0.1,0-0.1c0,0,0-0.1-0.1-0.1
			c-0.2-0.3-0.5-0.5-0.9-0.6c-0.3-0.1-0.7-0.2-1-0.2c-0.4,0-0.7,0.1-1,0.2c-0.3,0.1-0.6,0.4-0.9,0.6c0,0-0.1,0.1-0.1,0.1
			c0,0,0,0.1,0,0.1c0,0,0.1,0.1,0.1,0.1c0,0,0.1,0,0.1,0C14.9,20.5,15.5,20.4,16,20.4L16,20.4z"/>
	</g>
	<path class="st4" d="M49.9,57.9H37.7V63h12.1V57.9z"/>
	<path class="st1" d="M57,23.1H30.4c-6.4,0-11.7,5.2-11.7,11.7v11.6c0,6.4,5.2,11.7,11.7,11.7H57c6.4,0,11.7-5.2,11.7-11.7V34.7
		C68.7,28.3,63.4,23.1,57,23.1z"/>
	<g>
		<path class="st5" d="M60.8,55.2H26.6c-1.6,0-3.2-0.3-4.6-0.9c1.1,1.2,2.4,2.1,3.9,2.7c1.5,0.6,3,1,4.6,1H57c1.6,0,3.2-0.3,4.6-1
			c1.5-0.6,2.8-1.6,3.9-2.7C64,54.9,62.4,55.2,60.8,55.2L60.8,55.2z"/>
	</g>
	<path class="st4" d="M64.2,35.1v10.8c0,2.2-0.9,4.2-2.4,5.8c-1.5,1.5-3.6,2.4-5.8,2.4H31.2c-1.1,0-2.1-0.2-3.1-0.6
		c-1-0.4-1.9-1-2.6-1.8c-0.8-0.8-1.4-1.7-1.8-2.6c-0.4-1-0.6-2.1-0.6-3.1V35.1c0-2.2,0.9-4.2,2.4-5.8c1.5-1.5,3.6-2.4,5.8-2.4H56
		c2.2,0,4.2,0.9,5.8,2.4C63.3,30.9,64.2,33,64.2,35.1L64.2,35.1z"/>
	<g>
		<path class="st7" d="M31,31.7h25.4c1.2,0,2.4,0.2,3.4,0.7c1.1,0.5,2.1,1.2,2.9,2.1c-0.4-1.7-1.4-3.3-2.8-4.4
			c-1.4-1.1-3.1-1.7-4.9-1.6H32.4c-1.8,0-3.5,0.5-4.9,1.6c-1.4,1.1-2.4,2.6-2.8,4.4c0.8-0.9,1.8-1.6,2.9-2.1
			C28.6,31.9,29.8,31.7,31,31.7L31,31.7z"/>
	</g>
	<g>
		<path class="st5" d="M56.6,49.9H30.8c-1.2,0-2.4-0.2-3.5-0.7s-2.1-1.2-2.9-2.1c0.4,1.7,1.4,3.3,2.9,4.4c1.4,1.1,3.2,1.7,5,1.6h23
			c1.8,0,3.6-0.5,5-1.6c1.4-1.1,2.4-2.6,2.9-4.4c-0.8,0.9-1.8,1.6-2.9,2.1C59,49.7,57.8,50,56.6,49.9z"/>
	</g>
	<path class="st8" d="M43.6,47.2c-4.3,0-8.5-0.9-12.5-2.6c-0.3-0.1-0.5-0.4-0.7-0.7c-0.1-0.3-0.1-0.7,0-1c0.1-0.3,0.4-0.6,0.7-0.7
		c0.3-0.1,0.7-0.2,1-0.1c8.1,3.2,15,3.2,23,0c0.2-0.1,0.3-0.1,0.5-0.1c0.2,0,0.4,0,0.5,0.1c0.2,0.1,0.3,0.2,0.5,0.3
		c0.1,0.1,0.2,0.3,0.3,0.5c0.1,0.2,0.1,0.4,0.1,0.5c0,0.2-0.1,0.4-0.1,0.5c-0.1,0.2-0.2,0.3-0.3,0.4c-0.1,0.1-0.3,0.2-0.5,0.3
		C52.2,46.2,47.9,47.1,43.6,47.2L43.6,47.2z"/>
	<path class="st8" d="M34.9,36.3c0-1.6,0.9-2.9,2-2.9s2,1.3,2,2.9c0,1.6-0.9,2.9-2,2.9S34.9,37.9,34.9,36.3z"/>
	<path class="st8" d="M48.3,36.3c0-1.6,0.9-2.9,2-2.9s2,1.3,2,2.9c0,1.6-0.9,2.9-2,2.9S48.3,37.9,48.3,36.3z"/>
	<g>
		<path class="st5" d="M49.9,57.9H37.7v2.6h12.1V57.9z"/>
	</g>
	<path class="st4" d="M69,47.2h-0.4V34.7H69c1.6,0,3.2,0.7,4.4,1.8c1.2,1.2,1.8,2.7,1.8,4.4s-0.7,3.2-1.8,4.4
		C72.2,46.5,70.6,47.2,69,47.2z"/>
	<g>
		<path class="st7" d="M69.7,38.2v-2.2c0-0.1,0-0.2,0-0.2c0-0.1,0.1-0.1,0.1-0.2c0.1,0,0.1-0.1,0.2-0.1s0.2,0,0.2,0
			c0.9,0.3,1.6,0.7,2.3,1.3c0.6,0.6,1.1,1.4,1.5,2.2c0,0.1,0,0.2,0,0.3c0,0.1-0.1,0.2-0.1,0.2c-0.1,0.1-0.2,0.1-0.3,0.1
			c-0.1,0-0.2,0-0.3,0c-1.1-0.4-2.2-0.8-3.3-1c-0.1,0-0.2-0.1-0.3-0.2C69.7,38.4,69.7,38.3,69.7,38.2L69.7,38.2z"/>
	</g>
	<g>
		<path class="st5" d="M71.2,45.1c-0.2,0-0.3,0.1-0.5,0c-0.2,0-0.3-0.1-0.5-0.2c-0.1-0.1-0.3-0.2-0.3-0.4c-0.1-0.1-0.1-0.3-0.2-0.5
			L68.6,36v11.2H69c1.2,0,2.3-0.3,3.3-1c1-0.6,1.8-1.5,2.3-2.6C73.9,44.3,72.3,44.8,71.2,45.1z"/>
	</g>
	<path class="st4" d="M18.4,47.2h0.4V34.7h-0.4c-1.6,0-3.2,0.7-4.4,1.8c-1.2,1.2-1.8,2.7-1.8,4.4s0.7,3.2,1.8,4.4
		C15.1,46.5,16.7,47.2,18.4,47.2L18.4,47.2z"/>
	<g>
		<path class="st7" d="M17.6,38.2v-2.2c0-0.1,0-0.2,0-0.2c0-0.1-0.1-0.1-0.1-0.2c-0.1,0-0.1-0.1-0.2-0.1s-0.2,0-0.2,0
			c-0.9,0.3-1.6,0.7-2.3,1.3c-0.6,0.6-1.1,1.4-1.5,2.2c0,0.1,0,0.2,0,0.3c0,0.1,0.1,0.2,0.1,0.2c0.1,0.1,0.2,0.1,0.3,0.1
			c0.1,0,0.2,0,0.3,0c1.1-0.4,2.2-0.8,3.3-1c0.1,0,0.2-0.1,0.3-0.2C17.6,38.4,17.6,38.3,17.6,38.2L17.6,38.2z"/>
	</g>
	<g>
		<path class="st5" d="M16.1,45.1c0.2,0,0.3,0.1,0.5,0c0.2,0,0.3-0.1,0.5-0.2c0.1-0.1,0.3-0.2,0.3-0.4c0.1-0.1,0.1-0.3,0.2-0.5
			l1.1-8.1v11.2h-0.4c-1.2,0-2.3-0.3-3.3-1c-1-0.6-1.8-1.5-2.3-2.6C13.4,44.3,15,44.8,16.1,45.1z"/>
	</g>
</g>
</svg>
