<?xml version="1.0" encoding="utf-8"?>
<!-- Generator: Adobe Illustrator 24.3.0, SVG Export Plug-In . SVG Version: 6.00 Build 0)  -->
<svg version="1.1" id="Layer_1" xmlns="http://www.w3.org/2000/svg" xmlns:xlink="http://www.w3.org/1999/xlink" x="0px" y="0px"
	 viewBox="0 0 86 87" style="enable-background:new 0 0 86 87;" xml:space="preserve">
<style type="text/css">
	.st0{fill:#E4EDFF;}
	.st1{fill:#70A2FF;}
</style>
<path class="st0" d="M43,84.6C66,84.6,84.6,66,84.6,43C84.6,20.1,66,1.5,43,1.5C20.1,1.5,1.5,20.1,1.5,43C1.5,66,20.1,84.6,43,84.6z
	"/>
<path class="st1" d="M43,86.7c-8.5,0-16.8-2.5-23.9-7.3S6.5,67.9,3.3,60C0,52-0.8,43.3,0.8,34.9s5.8-16.1,11.8-22.2
	s13.7-10.2,22-11.9C43-0.8,51.6,0,59.5,3.3s14.6,8.8,19.3,16c4.7,7.1,7.2,15.5,7.2,24.1c0,11.5-4.5,22.5-12.6,30.7
	C65.3,82.2,54.4,86.7,43,86.7L43,86.7z M43,2.9c-7.9,0-15.7,2.4-22.3,6.8C14.1,14.2,9,20.5,5.9,27.9S2.1,43.4,3.7,51.3
	S9,66.3,14.6,72s12.8,9.5,20.5,11.1c7.8,1.6,15.8,0.8,23.2-2.3s13.6-8.2,18-14.9s6.8-14.5,6.8-22.5c0-10.7-4.2-21-11.8-28.6
	C63.8,7.2,53.6,2.9,43,2.9L43,2.9z"/>
</svg>
