<svg width="62" height="62" viewBox="0 0 62 62" fill="none" xmlns="http://www.w3.org/2000/svg">
<g filter="url(#filter0_d)">
<circle cx="31" cy="31" r="23" fill="#FF6868"/>
</g>
<path d="M37 30.65C37 32.228 36.3679 33.7414 35.2426 34.8573C34.1174 35.9731 32.5913 36.6 31 36.6M31 36.6C29.4087 36.6 27.8826 35.9731 26.7574 34.8573C25.6321 33.7414 25 32.228 25 30.65M31 36.6V40M31 40H27.5714M31 40H34.4286M31 33.2C30.318 33.2 29.664 32.9313 29.1817 32.4531C28.6995 31.9749 28.4286 31.3263 28.4286 30.65V25.55C28.4286 24.8737 28.6995 24.2251 29.1817 23.7469C29.664 23.2687 30.318 23 31 23C31.682 23 32.336 23.2687 32.8183 23.7469C33.3005 24.2251 33.5714 24.8737 33.5714 25.55V30.65C33.5714 31.3263 33.3005 31.9749 32.8183 32.4531C32.336 32.9313 31.682 33.2 31 33.2Z" stroke="white" stroke-width="1.5" stroke-linecap="round" stroke-linejoin="round"/>
<defs>
<filter id="filter0_d" x="0" y="0" width="62" height="62" filterUnits="userSpaceOnUse" color-interpolation-filters="sRGB">
<feFlood flood-opacity="0" result="BackgroundImageFix"/>
<feColorMatrix in="SourceAlpha" type="matrix" values="0 0 0 0 0 0 0 0 0 0 0 0 0 0 0 0 0 0 127 0"/>
<feOffset/>
<feGaussianBlur stdDeviation="4"/>
<feColorMatrix type="matrix" values="0 0 0 0 0 0 0 0 0 0 0 0 0 0 0 0 0 0 0.1 0"/>
<feBlend mode="normal" in2="BackgroundImageFix" result="effect1_dropShadow"/>
<feBlend mode="normal" in="SourceGraphic" in2="effect1_dropShadow" result="shape"/>
</filter>
</defs>
</svg>
