<svg xmlns="http://www.w3.org/2000/svg" xmlns:xlink="http://www.w3.org/1999/xlink" width="221.853" height="213.489" viewBox="0 0 221.853 213.489">
  <defs>
    <linearGradient id="linear-gradient" y1="0.5" x2="1" y2="0.5" gradientUnits="objectBoundingBox">
      <stop offset="0" stop-color="#dffeff"/>
      <stop offset="1" stop-color="#01b0f9"/>
    </linearGradient>
    <linearGradient id="linear-gradient-2" x1="0.001" y1="0.045" x2="1.261" y2="1.194" xlink:href="#linear-gradient"/>
    <linearGradient id="linear-gradient-3" x1="1.049" y1="-0.631" x2="0.369" y2="0.822" xlink:href="#linear-gradient"/>
    <linearGradient id="linear-gradient-4" x1="0.006" y1="-0.262" x2="0.825" y2="1.2" xlink:href="#linear-gradient"/>
    <linearGradient id="linear-gradient-5" x1="0.102" y1="0.024" x2="1.001" y2="1.099" xlink:href="#linear-gradient"/>
    <linearGradient id="linear-gradient-6" x1="0.5" y1="-0.2" x2="0.5" y2="0.798" xlink:href="#linear-gradient"/>
    <linearGradient id="linear-gradient-8" y1="0.5" x2="1" y2="0.5" gradientUnits="objectBoundingBox">
      <stop offset="0" stop-color="#01b3f9"/>
      <stop offset="1" stop-color="#015bea"/>
    </linearGradient>
    <linearGradient id="linear-gradient-9" x1="0.5" y1="0.112" x2="0.5" y2="0.905" xlink:href="#linear-gradient-8"/>
    <radialGradient id="radial-gradient" cx="-0.495" cy="1.288" r="1.805" gradientTransform="translate(-0.697) scale(2.394 1)" gradientUnits="objectBoundingBox">
      <stop offset="0" stop-color="#419dff"/>
      <stop offset="0.526" stop-color="#1d4cd4"/>
      <stop offset="1" stop-color="#08137a"/>
    </radialGradient>
    <linearGradient id="linear-gradient-12" x1="0.5" y1="-0.013" x2="0.5" y2="1.112" xlink:href="#linear-gradient"/>
    <linearGradient id="linear-gradient-13" x1="0.061" y1="0.422" x2="1.377" y2="0.658" xlink:href="#linear-gradient"/>
    <linearGradient id="linear-gradient-14" x1="0.211" y1="-0.099" x2="0.803" y2="1.278" xlink:href="#linear-gradient"/>
    <linearGradient id="linear-gradient-15" x1="0.296" y1="-0.297" x2="0.705" y2="1.126" xlink:href="#linear-gradient"/>
    <linearGradient id="linear-gradient-16" x1="0.11" y1="0.074" x2="0.849" y2="0.81" xlink:href="#linear-gradient-8"/>
    <linearGradient id="linear-gradient-17" x1="0.547" y1="1.129" x2="0.456" y2="-0.087" gradientUnits="objectBoundingBox">
      <stop offset="0" stop-color="#f6fbff"/>
      <stop offset="1" stop-color="#3d6dff"/>
    </linearGradient>
    <linearGradient id="linear-gradient-18" x1="0.597" y1="1.055" x2="-0.021" y2="-2.494" xlink:href="#linear-gradient-8"/>
    <linearGradient id="linear-gradient-19" x1="0.685" y1="1.563" x2="0.066" y2="-1.987" xlink:href="#linear-gradient-8"/>
    <linearGradient id="linear-gradient-20" x1="0.774" y1="2.07" x2="0.155" y2="-1.479" xlink:href="#linear-gradient-8"/>
    <linearGradient id="linear-gradient-21" x1="0.862" y1="2.576" x2="0.243" y2="-0.972" xlink:href="#linear-gradient-8"/>
    <linearGradient id="linear-gradient-22" x1="0.951" y1="3.084" x2="0.332" y2="-0.465" xlink:href="#linear-gradient-8"/>
    <linearGradient id="linear-gradient-23" x1="1.039" y1="3.592" x2="0.42" y2="0.042" xlink:href="#linear-gradient-8"/>
  </defs>
  <g id="latestResearch_security" transform="translate(-486.016 -2364.271)">
    <g id="Group_8252" data-name="Group 8252" transform="translate(554.793 2364.271)">
      <g id="Group_1379" data-name="Group 1379">
        <path id="Path_1400" data-name="Path 1400" d="M453.7,178.424,468.36,169.9a15.6,15.6,0,0,1-1.494.753c-.159.07-.323.131-.487.2-.321.13-.648.247-.979.355-.474.156-.96.284-1.455.4-.216.05-.425.112-.645.153-.277.052-.566.084-.85.123-.353.049-.7.1-1.064.128-.208.017-.418.021-.627.031-.425.018-.854.028-1.292.018-.188,0-.376-.008-.566-.018-.576-.028-1.157-.072-1.75-.149-.035,0-.068-.006-.1-.011-.636-.085-1.284-.208-1.938-.348-.137-.029-.273-.059-.41-.091-.676-.159-1.359-.339-2.055-.558h0L437.979,179.4l.351.109q.663.2,1.315.362c.132.033.262.057.393.088s.27.061.406.091c.183.039.367.086.548.121q.69.134,1.365.224l.026,0c.036.006.07.007.106.011.44.057.88.1,1.31.135.148.01.291.007.438.014.19.01.378.015.566.018s.354.018.527.018c.259,0,.51-.025.767-.036.208-.01.418-.014.625-.029.084-.007.171-.006.254-.013.277-.025.541-.079.811-.117s.573-.071.85-.123c.061-.011.125-.015.185-.026.159-.032.3-.091.46-.127.495-.113.981-.241,1.454-.4.1-.033.215-.05.316-.086.227-.079.443-.18.666-.269.16-.066.323-.125.482-.2A15.461,15.461,0,0,0,453.7,178.424Z" transform="translate(-437.979 -140.82)" fill="url(#linear-gradient)"/>
        <path id="Path_1401" data-name="Path 1401" d="M470.107,149.04l-14.664,8.522,45.047,5.984,14.664-8.522Z" transform="translate(-431.098 -149.04)" fill="url(#linear-gradient-2)"/>
        <path id="Path_1402" data-name="Path 1402" d="M562.783,236.426c.234-1.177.456-2.377.672-3.59.036-.211.079-.411.116-.623l.008-.052q.36-2.081.683-4.231L549.6,236.452q-.322,2.152-.683,4.231c-.04.231-.085.452-.127.682-.213,1.211-.435,2.409-.669,3.583-.1.493-.2.97-.305,1.457-.185.894-.372,1.784-.569,2.657-.11.489-.227.967-.34,1.45-.219.927-.44,1.847-.671,2.75q-.194.763-.4,1.515c-.23.864-.464,1.715-.705,2.557-.131.46-.262.921-.4,1.374-.395,1.331-.8,2.64-1.218,3.914-.019.063-.039.127-.059.188-.443,1.335-.9,2.63-1.37,3.906q-.36.979-.728,1.933c-.1.247-.188.5-.286.743q-.55,1.4-1.119,2.745c-.081.191-.164.375-.247.565q-.456,1.062-.924,2.1c-.134.294-.269.583-.4.871-.244.526-.492,1.043-.74,1.556-.24.495-.481.981-.725,1.465q-.324.646-.655,1.281-.368.709-.746,1.4c-.223.413-.446.824-.673,1.228-.254.453-.51.9-.768,1.342-.229.395-.457.788-.69,1.172-.261.436-.526.862-.789,1.287-.234.376-.468.753-.7,1.121-.261.4-.523.8-.785,1.193-.241.362-.482.728-.726,1.083-.266.387-.534.764-.8,1.142-.244.346-.489.693-.736,1.03-.272.371-.545.732-.82,1.094-.248.328-.5.658-.746.977-.276.354-.553.7-.831,1.041-.252.312-.5.627-.757.933-.28.337-.563.666-.846,1-.252.294-.5.591-.758.878-.286.323-.574.637-.862.952-.255.279-.509.56-.762.832-.29.307-.581.6-.871.9-.255.262-.509.528-.764.785-.294.294-.588.577-.884.863-.255.247-.51.5-.765.739-.3.28-.594.548-.891.82-.254.231-.507.468-.763.694-.3.268-.6.524-.906.782-.251.216-.5.438-.753.648-.3.252-.606.493-.909.739-.252.2-.5.411-.754.609-.305.24-.611.47-.916.7-.247.188-.495.383-.743.567-.314.231-.627.453-.94.678-.238.17-.477.346-.715.512-.332.233-.664.453-.994.675-.217.146-.435.3-.652.441-.382.252-.764.491-1.143.73-.164.1-.329.212-.492.312q-.818.506-1.627.976l14.665-8.521q.809-.47,1.625-.976c.163-.1.328-.209.492-.312.381-.24.761-.478,1.143-.73.217-.142.435-.294.652-.441.332-.223.662-.442,1-.675.237-.166.475-.342.714-.512.314-.224.626-.446.94-.679.248-.183.5-.378.744-.566.305-.233.609-.461.914-.7.251-.2.5-.406.754-.609.3-.245.6-.486.909-.74.252-.211.506-.434.758-.651.3-.257.6-.512.9-.776.256-.229.513-.467.771-.7.294-.27.59-.535.884-.814.255-.241.51-.492.767-.739.294-.286.588-.569.882-.863.256-.257.512-.524.767-.788.29-.3.578-.594.867-.9.256-.273.513-.558.77-.839.286-.312.57-.622.854-.944.257-.289.51-.588.764-.885.282-.328.562-.652.841-.988.255-.307.507-.623.761-.937.276-.343.553-.686.828-1.037.251-.322.5-.652.747-.981.273-.36.546-.721.817-1.09.248-.34.495-.689.742-1.036.266-.375.534-.751.8-1.136.245-.357.488-.723.73-1.089.262-.393.523-.786.781-1.188.082-.128.167-.25.25-.379.153-.243.3-.5.457-.744.263-.425.527-.85.789-1.285.231-.386.46-.779.689-1.174.258-.442.514-.887.768-1.34.227-.406.452-.818.676-1.232q.374-.69.743-1.4.33-.636.657-1.285c.244-.482.484-.967.723-1.46.1-.216.212-.421.315-.638.144-.3.284-.616.427-.923.134-.287.268-.574.4-.866.314-.687.62-1.387.926-2.1.081-.191.166-.376.247-.57q.571-1.344,1.119-2.741c.1-.245.191-.5.287-.747.2-.5.392-1.005.583-1.521.05-.132.095-.276.145-.41.467-1.276.927-2.571,1.369-3.906.019-.061.039-.127.06-.188.418-1.274.823-2.583,1.217-3.913.049-.167.1-.323.153-.492.084-.289.16-.592.244-.884q.36-1.263.705-2.562c.134-.5.265-1,.395-1.506.23-.906.453-1.828.672-2.757.079-.34.167-.666.245-1.009.032-.142.061-.294.093-.436.2-.874.383-1.766.57-2.66C562.58,237.395,562.686,236.918,562.783,236.426Z" transform="translate(-411.187 -117.957)" fill="url(#linear-gradient-3)"/>
        <path id="Path_1403" data-name="Path 1403" d="M556.512,242.138c-.095-.089-.19-.176-.284-.266q-1.156-1.1-2.269-2.271c-.1-.106-.2-.212-.3-.319q-1.1-1.165-2.147-2.4l-.3-.35q-1.02-1.209-1.995-2.473c-.142-.184-.283-.371-.424-.556-.467-.616-.919-1.248-1.367-1.88-.286-.4-.574-.8-.852-1.209-.268-.392-.521-.793-.782-1.192q-.864-1.313-1.676-2.664c-.3-.5-.6-1-.889-1.508-.223-.392-.445-.786-.661-1.182-.5-.9-.984-1.812-1.443-2.732l-.007-.015q-.816-1.639-1.546-3.307c-.025-.057-.049-.114-.074-.171q-.686-1.572-1.294-3.163l-.125-.332q-.575-1.529-1.075-3.064c-.043-.132-.085-.265-.128-.4q-.483-1.518-.888-3.038c-.038-.139-.074-.279-.11-.418q-.393-1.516-.705-3.026c-.027-.134-.054-.266-.081-.4q-.3-1.52-.516-3.025l-.05-.351q-.207-1.537-.319-3.05c-.007-.088-.015-.176-.021-.263-.074-1.08-.113-2.152-.11-3.21,0-.618.021-1.224.05-1.822.008-.176.021-.349.032-.523q.04-.636.1-1.257c.019-.2.039-.4.061-.592.046-.4.1-.8.16-1.195.028-.184.052-.372.082-.553.095-.565.2-1.119.321-1.663l-14.663,8.521c-.11.489-.208.986-.3,1.492-.01.056-.015.114-.025.171-.031.183-.054.369-.082.553-.042.275-.088.545-.123.824-.015.121-.024.248-.038.371-.024.2-.043.394-.061.594-.018.183-.042.361-.057.546-.018.234-.029.474-.043.711-.011.173-.024.344-.032.519,0,.088-.013.171-.015.259q-.031.73-.035,1.479v.086c0,.475,0,.953.02,1.434q.023.765.071,1.539c.006.078.014.158.02.237s.014.176.021.263c.025.348.05.7.084,1.048q.073.784.174,1.571c.018.144.042.287.061.431l.05.351c.038.27.073.539.116.81q.128.816.282,1.634c.036.194.079.388.118.581.027.132.053.265.081.4.046.226.088.45.137.676q.186.847.4,1.7c.054.217.116.436.171.654.036.141.074.28.112.421.054.208.106.417.163.626.157.567.325,1.136.5,1.7.073.236.152.471.227.707.042.132.084.265.127.4.061.187.117.374.18.559q.276.822.572,1.642c.1.287.216.574.325.861.042.112.082.223.125.335.049.128.095.257.145.385q.3.78.627,1.558c.167.406.343.811.52,1.216.026.059.05.118.077.177s.039.093.06.141q.351.795.722,1.585t.76,1.572l.011.022,0,.01q.491.987,1.012,1.963c.137.255.286.5.424.758q.326.594.662,1.182c.159.28.309.566.473.845.132.226.283.439.417.664q.811,1.353,1.677,2.668c.163.25.309.509.475.756.1.146.2.286.3.431.28.41.569.81.856,1.214.266.375.521.757.793,1.125.188.255.382.5.573.751.141.185.28.371.422.555s.262.35.4.521q.621.788,1.259,1.556c.113.134.227.263.34.4.1.117.2.234.3.351.194.226.385.456.581.679q.621.709,1.259,1.394c.1.109.2.213.3.321l.308.322c.229.241.456.484.687.719q.675.69,1.369,1.354c.07.067.141.13.211.2.095.091.192.178.289.268.3.283.6.569.906.843q.711.64,1.436,1.252l.116.1,14.663-8.521C558.139,243.632,557.321,242.895,556.512,242.138Z" transform="translate(-405.897 -134.358)" fill="url(#linear-gradient-4)"/>
        <path id="Path_1404" data-name="Path 1404" d="M487.759,161.854l14.664-8.522,44.925,45.961-14.664,8.522Z" transform="translate(-418.366 -147.348)" fill="url(#linear-gradient-5)"/>
      </g>
      <path id="Path_1405" data-name="Path 1405" d="M507.372,161.137,552.3,207.1a35.233,35.233,0,0,0-.807,7.606c-.05,17.423,10.543,38.371,24.9,50.423-11.325,75.652-58.918,84.062-69.556,85a315.321,315.321,0,0,1-29.773-45.454c-14.534-26.677-32.842-68.7-39.083-119.456,14.38,4.54,25.058-4.126,25.107-21.551a49.259,49.259,0,0,0-.761-8.51Z" transform="translate(-437.979 -146.631)" fill="url(#linear-gradient-6)"/>
      <path id="Path_1406" data-name="Path 1406" d="M505.423,341.083A315.4,315.4,0,0,1,479.644,301c-13.175-24.176-30.258-62.8-36.969-109.668,14.562,2.044,24.353-8.485,24.4-26.316,0-1.348-.053-2.75-.162-4.162l39.011,5.179,38.912,39.81c-.117,1.282-.181,2.615-.184,3.963-.052,17.831,9.649,39.613,24.174,54.363-11.387,63.97-51.048,75.023-63.408,76.912m.509-176.256-40.063-5.321.033.456c.134,1.526.2,3.033.194,4.49-.049,17.522-9.755,27.793-24.141,25.573l-.389-.056.067.506c6.7,47.38,23.972,86.45,37.285,110.883a315.876,315.876,0,0,0,26.245,40.714l.258.339.268-.035c12.161-1.775,52.746-12.652,64.188-77.861l.078-.421-.388-.392c-14.361-14.378-23.976-35.8-23.926-53.326a42.475,42.475,0,0,1,.219-4.252l.036-.417-39.782-40.7-.181-.184" transform="translate(-436.566 -144.916)" fill="url(#linear-gradient)"/>
    </g>
    <g id="Group_8253" data-name="Group 8253" transform="translate(574.935 2404.048)">
      <path id="Path_1407" data-name="Path 1407" d="M531.786,241.136q0-.13-.013-.259c-.006-.086-.013-.173-.021-.261s-.018-.174-.029-.262-.024-.18-.038-.269v-.014c-.014-.085-.028-.171-.045-.257s-.036-.187-.056-.28-.043-.187-.065-.28-.049-.19-.075-.284c-.021-.074-.042-.148-.064-.222l-.006-.017-.013-.045c-.029-.092-.059-.184-.089-.277s-.063-.181-.095-.272-.064-.176-.1-.263-.068-.173-.1-.259c-.028-.067-.056-.132-.085-.2l-.006-.015-.018-.042c-.039-.086-.078-.173-.119-.259s-.089-.188-.137-.283-.109-.215-.166-.321-.125-.227-.191-.34l-.033-.06c-.013-.022-.025-.047-.039-.071q-.19-.322-.4-.633c-.11-.163-.223-.325-.339-.482h0c-.077-.106-.156-.21-.237-.312-.068-.086-.137-.171-.206-.257s-.138-.162-.208-.241-.138-.155-.208-.231l-.042-.043-.017-.017c-.053-.057-.106-.114-.16-.169-.075-.077-.151-.151-.226-.224s-.156-.146-.236-.219-.159-.139-.238-.208l-.121-.1-.026-.021c-.031-.025-.06-.05-.091-.074-.078-.063-.156-.121-.236-.18s-.155-.112-.233-.166-.152-.1-.227-.151-.151-.093-.227-.138l-.053-.031-54.331-31.369q-.086-.05-.171-.1c-.074-.039-.148-.078-.22-.114s-.146-.07-.219-.1-.144-.064-.215-.092-.146-.056-.217-.082l-.042-.013-.014-.006c-.053-.017-.107-.036-.16-.052-.074-.022-.148-.043-.222-.061s-.148-.035-.22-.049-.157-.028-.234-.039c-.053-.007-.1-.011-.157-.015l-.024,0-.059-.006c-.085-.007-.169-.008-.251-.008s-.188,0-.279.013c-.106.01-.208.025-.309.045H469.1l-.01,0a3.016,3.016,0,0,0-.358.1,2.608,2.608,0,0,0-.434.2l-14.663,8.521a2.645,2.645,0,0,1,.792-.3h.008a3.12,3.12,0,0,1,.9-.046l.024,0a4.39,4.39,0,0,1,.992.216l.017.006a6.283,6.283,0,0,1,1.083.5l54.331,31.369a8.255,8.255,0,0,1,1.066.739l.026.022a10.4,10.4,0,0,1,.981.916l.017.018a12.535,12.535,0,0,1,1.677,2.272l.034.057a13.339,13.339,0,0,1,.629,1.245l.007.018a11.806,11.806,0,0,1,.485,1.312l.006.02a10.228,10.228,0,0,1,.305,1.323v0a8.165,8.165,0,0,1,.1,1.3l-.12,42.351a6.066,6.066,0,0,1-.11,1.154l-.006.032a4.267,4.267,0,0,1-.3.945l-.006.015a3.171,3.171,0,0,1-.4.623c-.05.061-.1.127-.149.184a2.619,2.619,0,0,1-.584.481h0l14.663-8.521a2.641,2.641,0,0,0,.585-.482c.053-.057.1-.123.149-.184a2.964,2.964,0,0,0,.194-.24,3.393,3.393,0,0,0,.2-.367l.007-.017.007-.015c.04-.088.079-.178.114-.272s.065-.185.093-.283.05-.18.071-.273c.008-.038.015-.078.024-.117l.007-.032c.007-.038.015-.074.022-.113.014-.084.028-.169.038-.256s.019-.17.028-.258.011-.167.015-.252.006-.171.006-.259v-.015l.12-42.351C531.789,241.3,531.789,241.216,531.786,241.136Z" transform="translate(-451.952 -168.73)" fill="url(#linear-gradient-8)"/>
      <path id="Path_1408" data-name="Path 1408" d="M512.262,238.244a11.766,11.766,0,0,1,5.339,9.246l-.12,42.351c-.01,3.4-2.416,4.77-5.374,3.063l-54.332-31.368a11.771,11.771,0,0,1-5.347-9.253l.12-42.351c.01-3.4,2.416-4.77,5.384-3.057Z" transform="translate(-452.428 -166.322)" fill="url(#linear-gradient-9)"/>
      <path id="Path_1409" data-name="Path 1409" d="M477.109,225.588a15.827,15.827,0,0,1,7.179,12.423c-.008,2.537-1.023,4.195-2.589,4.811l-.038,12.974c-.008,2.933-2.084,4.116-4.646,2.637a10.154,10.154,0,0,1-4.609-7.982l.036-12.974a14.94,14.94,0,0,1-2.552-7.777C469.9,225.141,473.14,223.3,477.109,225.588Z" transform="translate(-445.548 -159.046)" fill="url(#radial-gradient)"/>
      <g id="Group_1381" data-name="Group 1381" transform="translate(13.318)">
        <path id="Path_1410" data-name="Path 1410" d="M474.846,192.379c.013-.06.024-.121.036-.181q.138-.657.328-1.262c.024-.075.049-.149.074-.224a11.126,11.126,0,0,1,.428-1.093c.015-.035.028-.072.045-.107a9.666,9.666,0,0,1,.612-1.107c.032-.049.068-.092.1-.141a8.127,8.127,0,0,1,.583-.769c.077-.089.156-.174.234-.258a7.336,7.336,0,0,1,.572-.552c.082-.073.162-.146.247-.213a7.3,7.3,0,0,1,.88-.613l-6.306,3.666a7.154,7.154,0,0,0-.881.612c-.084.068-.165.142-.247.213a7.853,7.853,0,0,0-.57.552c-.079.085-.159.169-.234.258a8.327,8.327,0,0,0-.584.77c-.032.049-.07.092-.1.141l-.024.033a9.3,9.3,0,0,0-.574,1.041l-.014.032c-.017.035-.031.074-.046.11-.107.234-.212.471-.305.721-.045.12-.081.248-.123.371-.024.074-.05.148-.074.223s-.047.135-.068.206c-.074.251-.141.51-.2.775-.021.092-.036.188-.056.28-.013.061-.025.121-.036.181-.018.095-.04.185-.057.282-.04.237-.077.478-.107.725-.018.134-.029.273-.043.41,0,.049-.011.1-.015.145s-.013.116-.018.176c-.018.234-.033.471-.043.714s-.017.484-.018.732v.045l-.05,17.9a4.666,4.666,0,0,1-.084.88l-.006.025a3.265,3.265,0,0,1-.23.721l-.006.013a2.526,2.526,0,0,1-.307.475c-.038.046-.074.1-.114.139a2,2,0,0,1-.446.368l6.306-3.665a2,2,0,0,0,.447-.368c.04-.043.075-.093.113-.141a2.106,2.106,0,0,0,.148-.183,2.417,2.417,0,0,0,.153-.279l.007-.014,0-.011c.031-.067.06-.135.088-.208s.049-.141.071-.215.038-.138.054-.209c.007-.029.013-.06.018-.091l0-.024c.006-.029.013-.057.018-.086.011-.063.021-.128.029-.2s.014-.13.02-.2.01-.128.013-.192,0-.131,0-.2v-.013l.052-17.9c0-.576.029-1.131.079-1.664,0-.049.01-.1.014-.145Q474.714,193.059,474.846,192.379Z" transform="translate(-460.007 -174.312)" fill="url(#linear-gradient-8)"/>
        <path id="Path_1411" data-name="Path 1411" d="M513.157,220.1q-.017-.56-.053-1.128c-.011-.173-.028-.348-.042-.523-.006-.074-.011-.148-.018-.222-.01-.13-.018-.259-.031-.389q-.054-.569-.127-1.142t-.167-1.172l-.007-.045-.01-.053c-.057-.361-.118-.721-.187-1.083-.075-.4-.159-.811-.247-1.218-.033-.148-.071-.3-.1-.446-.02-.086-.039-.171-.06-.257-.04-.174-.078-.347-.121-.521-.1-.413-.211-.827-.326-1.239-.085-.308-.177-.618-.27-.926-.015-.054-.031-.109-.047-.163s-.028-.1-.043-.148c-.123-.4-.252-.807-.388-1.21s-.272-.8-.417-1.195c-.026-.077-.057-.153-.086-.23s-.046-.124-.07-.187c-.091-.243-.18-.485-.273-.728-.148-.381-.3-.76-.457-1.137-.116-.279-.237-.555-.357-.832l-.059-.137c-.022-.05-.043-.1-.066-.151q-.251-.569-.516-1.133c-.194-.414-.395-.827-.6-1.236-.032-.064-.067-.127-.1-.191-.04-.081-.084-.16-.124-.241-.166-.326-.332-.651-.5-.973-.217-.407-.45-.806-.677-1.207-.114-.2-.224-.407-.342-.609-.046-.079-.088-.162-.135-.241-.2-.347-.431-.68-.641-1.023-.312-.5-.619-1.012-.947-1.507-.052-.078-.1-.16-.149-.238q-.7-1.05-1.446-2.059c-.014-.018-.025-.036-.038-.054l-.006-.007q-.512-.694-1.043-1.369-.42-.533-.852-1.052l-.031-.038-.019-.024q-.445-.535-.9-1.057t-.91-1.008L499,188.2c-.052-.056-.1-.109-.156-.163-.217-.231-.435-.464-.657-.689q-.489-.5-.986-.976c-.1-.095-.2-.184-.3-.277l-.231-.216c-.166-.153-.33-.311-.5-.461q-.514-.464-1.039-.906c-.149-.125-.3-.245-.452-.368-.079-.064-.157-.13-.236-.192-.119-.095-.234-.194-.353-.287q-.506-.4-1.023-.781c-.245-.181-.493-.354-.74-.527l-.141-.1-.132-.093q-.491-.339-.99-.654t-.986-.6c-.075-.046-.152-.091-.229-.134q-.372-.215-.74-.414c-.095-.052-.19-.1-.283-.148-.127-.066-.252-.131-.379-.2-.1-.05-.2-.1-.293-.152-.159-.078-.315-.149-.473-.223l-.337-.159c-.045-.02-.089-.043-.134-.063q-.468-.209-.933-.4h0l-.047-.017q-.448-.18-.891-.336c-.042-.015-.084-.026-.127-.042-.114-.039-.227-.074-.342-.111-.155-.05-.312-.106-.466-.152-.082-.025-.16-.043-.241-.067-.139-.04-.277-.078-.415-.114-.1-.028-.208-.06-.31-.085s-.223-.049-.336-.075c-.138-.032-.275-.063-.411-.091-.07-.015-.141-.033-.211-.047-.131-.025-.261-.042-.39-.064-.157-.028-.315-.056-.471-.078-.054-.008-.109-.02-.162-.026-.134-.018-.263-.026-.394-.04-.169-.018-.337-.038-.5-.052-.046,0-.095-.011-.142-.014-.114-.008-.224-.006-.339-.011-.2-.01-.4-.018-.6-.02-.053,0-.109-.006-.162-.006-.086,0-.169.01-.255.011-.25.006-.495.017-.739.036-.072,0-.148,0-.22.01-.054.006-.106.018-.162.024-.368.038-.73.089-1.086.158-.033.007-.068.008-.1.015l-.02,0a11.919,11.919,0,0,0-1.486.41c-.043.014-.089.021-.132.036s-.068.029-.1.042c-.21.077-.417.164-.622.254-.1.042-.2.081-.3.125-.3.141-.593.291-.877.457l-6.306,3.665c.284-.166.577-.316.875-.456.1-.046.2-.084.3-.127.2-.089.41-.176.62-.254.078-.028.159-.052.237-.078a11.849,11.849,0,0,1,1.486-.408c.039-.008.081-.013.12-.021.355-.068.718-.118,1.087-.158.125-.013.254-.024.381-.033.244-.018.491-.029.739-.035.139,0,.277-.008.418-.007.2,0,.4.01.6.02.162.007.322.013.485.026s.333.032.5.05c.185.021.371.04.558.067.156.024.314.052.473.078.2.035.4.07.6.112.137.028.275.06.413.092.213.049.429.1.644.159.138.036.276.074.415.114.234.068.471.142.708.22.114.036.227.071.341.112q.508.174,1.022.378l.042.015c.354.142.712.3,1.072.461.11.05.222.1.333.158q.385.18.771.376c.125.063.25.128.376.2.34.178.68.362,1.025.56.788.456,1.567.953,2.335,1.486.047.032.095.067.141.1.716.5,1.422,1.034,2.117,1.595l.234.192q1.01.828,1.988,1.737l.23.215q.991.935,1.945,1.943c.05.054.1.107.153.162q1.012,1.083,1.977,2.239l.031.038q.976,1.181,1.9,2.428c.015.021.029.043.045.064.548.746,1.076,1.513,1.589,2.289.328.495.634,1,.946,1.508.259.42.527.835.775,1.262.119.2.229.408.344.612.406.719.8,1.444,1.178,2.179.042.079.085.16.125.24.45.9.878,1.8,1.277,2.713l.059.135q.583,1.342,1.089,2.7c.024.061.046.121.068.183q.512,1.388.935,2.787c.017.053.031.106.047.158q.4,1.344.718,2.689c.02.086.039.171.06.257.21.92.392,1.837.538,2.748l.01.054c.146.921.255,1.839.332,2.746.007.074.013.148.018.222.071.91.112,1.812.109,2.7l-.052,17.9a4.654,4.654,0,0,1-.082.88l-.006.025a3.275,3.275,0,0,1-.231.722l0,.011a2.424,2.424,0,0,1-.308.475c-.038.047-.073.1-.113.139a2,2,0,0,1-.446.369l6.306-3.666a2,2,0,0,0,.446-.368c.042-.043.077-.092.114-.139a2.325,2.325,0,0,0,.146-.183,2.687,2.687,0,0,0,.155-.28l.006-.013.006-.013c.031-.067.06-.135.086-.208s.05-.141.071-.215.039-.137.054-.209c.007-.029.013-.06.018-.089l.006-.025c.006-.029.013-.056.017-.085.011-.064.021-.13.029-.2s.015-.131.021-.2.008-.127.011-.192,0-.131.006-.2v-.011l.05-17.9C513.172,220.8,513.167,220.453,513.157,220.1Z" transform="translate(-460.038 -177.575)" fill="url(#linear-gradient-8)"/>
        <path id="Path_1412" data-name="Path 1412" d="M485.5,183.4c12.894,7.445,23.353,25.552,23.312,40.378l-.052,17.9c-.007,2.594-1.841,3.64-4.1,2.336a8.979,8.979,0,0,1-4.08-7.059l.052-17.9c.026-9.638-6.772-21.413-15.16-26.256s-15.229-.942-15.257,8.7l-.05,17.9c-.008,2.594-1.841,3.64-4.1,2.335a8.971,8.971,0,0,1-4.08-7.059l.05-17.9C462.074,181.949,472.6,175.959,485.5,183.4Z" transform="translate(-461.982 -176.539)" fill="url(#linear-gradient-12)"/>
      </g>
    </g>
    <g id="Group_8254" data-name="Group 8254" transform="translate(486.016 2474.667)">
      <path id="Path_1413" data-name="Path 1413" d="M498.6,231.641a2,2,0,0,1,.407-.088l.036,0a1.535,1.535,0,0,1,.4.021l.021.006a1.217,1.217,0,0,1,.354.134l-5.693-3.308-.013-.007a1.046,1.046,0,0,0-.125-.061,1.134,1.134,0,0,0-.131-.046c-.028-.008-.057-.014-.085-.02l-.021-.006-.032-.007c-.049-.008-.1-.014-.149-.018s-.109,0-.165,0l-.05.006-.036,0c-.032,0-.064,0-.1.01-.071.011-.144.027-.219.046-.029.008-.061.022-.091.032l-.088.031c-.039.014-.077.024-.116.039a3.112,3.112,0,0,0-.347.174l-65.449,37.787,5.693,3.308,65.449-37.787a2.824,2.824,0,0,1,.463-.213Z" transform="translate(-373.561 -228.234)" fill="url(#linear-gradient-13)"/>
      <path id="Path_1414" data-name="Path 1414" d="M434.186,273.773c-.015-5.262-1.88-8.969-4.885-10.714l-5.693-3.308c3,1.745,4.869,5.452,4.885,10.713,0,.606-.028,1.223-.074,1.843-.015.2-.039.393-.059.591q-.059.6-.145,1.2c-.063.442-.144.885-.229,1.33-.059.3-.11.608-.178.914-.064.284-.138.57-.21.856-.1.4-.2.795-.318,1.192-.067.23-.139.46-.21.69q-.211.669-.449,1.337c-.066.184-.13.369-.2.553-.23.615-.474,1.228-.739,1.836-.032.071-.067.142-.1.213-.24.544-.495,1.082-.76,1.616-.085.169-.17.337-.257.506q-.389.757-.811,1.5c-.056.1-.109.2-.164.3q-.506.87-1.054,1.715c-.106.162-.216.321-.323.481q-.4.606-.829,1.2c-.153.213-.308.424-.467.633-.245.328-.5.648-.754.966-.213.266-.429.531-.65.79s-.427.488-.643.729q-.544.606-1.108,1.181c-.234.238-.467.478-.707.707-.185.178-.374.353-.562.524-.311.284-.626.558-.944.825-.19.159-.378.319-.57.473-.346.275-.7.535-1.05.79-.167.121-.333.249-.5.365-.524.36-1.054.7-1.591,1.011-.516.3-1.026.556-1.531.795-.131.061-.261.12-.39.178-.487.216-.969.415-1.443.577-.032.011-.063.018-.095.029-.411.137-.811.241-1.211.337-.229.056-.456.1-.68.145q-.452.086-.889.137c-.167.018-.335.039-.5.05-.369.025-.73.032-1.086.021-.077,0-.156,0-.231,0a9.363,9.363,0,0,1-1.237-.156c-.1-.02-.2-.046-.3-.07a8.254,8.254,0,0,1-.917-.265c-.095-.033-.19-.063-.282-.1a8.018,8.018,0,0,1-1.1-.523l5.693,3.309.092.052a7.98,7.98,0,0,0,.842.413c.053.022.11.036.163.057.093.036.188.067.283.1.146.052.289.111.439.156s.318.072.478.11c.1.022.2.049.3.068.056.011.107.028.164.038a9.153,9.153,0,0,0,1.011.118c.021,0,.042,0,.061,0,.075.006.155,0,.231,0,.269.008.538.018.815.006.088,0,.181-.02.27-.026.164-.011.332-.031.5-.05s.314-.022.477-.047c.134-.021.276-.063.413-.088.224-.043.452-.091.68-.146.127-.031.248-.045.375-.079.276-.075.555-.163.836-.258.032-.011.063-.018.095-.029.341-.117.686-.245,1.034-.39.134-.056.272-.127.407-.187s.261-.117.393-.178c.5-.238,1.013-.5,1.529-.795.537-.309,1.066-.65,1.589-1.009.17-.117.336-.245.5-.367.353-.255.7-.516,1.048-.79.192-.153.381-.312.57-.473q.477-.4.944-.825c.188-.171.376-.346.562-.524.114-.109.233-.209.344-.321s.24-.261.362-.385q.565-.575,1.11-1.182c.114-.13.238-.245.351-.376.1-.113.191-.236.29-.351.22-.259.435-.526.65-.792.138-.173.283-.335.418-.51.116-.148.223-.3.336-.454.159-.21.314-.421.467-.634.1-.142.212-.279.314-.424.177-.252.344-.514.516-.771.107-.162.217-.319.323-.482.042-.066.088-.128.13-.194q.448-.7.867-1.419c.02-.032.036-.067.056-.1.059-.1.112-.2.169-.3.191-.335.382-.669.562-1.009.086-.16.163-.323.245-.484s.173-.337.258-.507c.071-.145.149-.289.22-.435.188-.39.365-.785.539-1.179.032-.073.067-.142.1-.215l.028-.06q.324-.749.613-1.5c.035-.091.064-.181.1-.272.07-.184.132-.368.2-.552.089-.252.187-.5.27-.757.064-.192.117-.386.177-.58.073-.231.145-.461.212-.691.042-.145.092-.289.132-.434.07-.252.121-.5.185-.757.071-.286.146-.572.211-.857.022-.1.052-.2.074-.3.043-.2.065-.407.1-.612.085-.445.164-.888.229-1.328.018-.124.047-.25.064-.372.035-.277.054-.551.081-.827.019-.2.043-.393.057-.588C434.158,275,434.187,274.38,434.186,273.773Z" transform="translate(-384.184 -215.817)" fill="url(#linear-gradient-14)"/>
      <path id="Path_1415" data-name="Path 1415" d="M441.129,253.9c.109.059.222.11.329.173l-5.693-3.308-.151-.086c-.059-.032-.12-.056-.178-.088q-.5-.272-1.023-.5c-.064-.029-.124-.066-.19-.093s-.107-.035-.16-.056a13.344,13.344,0,0,0-1.266-.447l-.035-.011h-.007c-.449-.131-.912-.231-1.38-.319-.056-.01-.107-.028-.163-.038-.073-.013-.148-.014-.22-.025q-.615-.1-1.25-.146c-.067-.006-.128-.02-.2-.024-.022,0-.045,0-.067,0-.52-.031-1.052-.033-1.592-.014-.053,0-.1,0-.156,0-.07,0-.141.017-.211.021-.6.033-1.218.086-1.846.184h-.007c-.407.063-.82.139-1.235.229-.132.028-.268.066-.4.1-.261.06-.52.117-.783.19l-.075.022c-.489.135-.983.286-1.482.456-.093.032-.19.071-.283.1-.407.145-.815.3-1.228.466-.052.022-.1.038-.153.059-.1.04-.2.093-.3.135q-.661.282-1.331.606c-.164.079-.329.159-.495.243-.581.293-1.164.6-1.754.941-.887.512-1.762,1.076-2.628,1.67-.28.192-.555.4-.834.606-.583.42-1.161.849-1.733,1.3-.316.252-.627.517-.941.779q-.788.663-1.56,1.363c-.312.286-.623.573-.931.868-.188.181-.385.349-.571.534q-.776.765-1.531,1.568v0q-.753.8-1.482,1.641c-.163.185-.314.386-.474.576-.364.429-.719.867-1.075,1.309-.229.284-.47.556-.694.845-.188.244-.364.5-.549.746q-.391.519-.772,1.047c-.171.237-.353.466-.52.705-.291.414-.565.842-.846,1.263-.178.268-.362.531-.537.8-.071.11-.148.216-.219.326q-.738,1.154-1.43,2.341c-.031.053-.059.107-.089.16-.095.163-.181.33-.275.493-.316.558-.636,1.114-.935,1.678-.139.262-.266.531-.4.8s-.283.553-.422.831c-.12.244-.25.482-.367.726-.309.641-.6,1.288-.887,1.935-.054.123-.113.241-.166.364-.015.035-.032.068-.047.1q-.535,1.236-1.015,2.481c-.057.149-.1.3-.16.447-.113.3-.217.605-.325.908-.151.418-.311.835-.45,1.255-.106.319-.192.638-.293.958-.12.381-.237.76-.347,1.139-.07.24-.153.478-.219.716-.116.418-.2.834-.307,1.25-.12.473-.243.944-.347,1.415-.038.167-.088.335-.123.5-.164.771-.3,1.539-.427,2.3-.027.159-.047.315-.073.473-.053.347-.112.7-.156,1.041-.06.459-.089.91-.135,1.365-.031.325-.071.65-.095.972-.077,1.025-.125,2.042-.123,3.046.025,8.686,3.1,14.806,8.061,17.687l5.693,3.309c-4.958-2.881-8.036-9-8.061-17.688,0-1,.046-2.02.123-3.045.024-.322.064-.648.095-.973.079-.8.169-1.6.293-2.407.024-.156.045-.312.07-.468.152-.933.341-1.869.551-2.809.1-.47.229-.941.347-1.412.164-.655.333-1.31.524-1.965.112-.382.23-.763.349-1.143.233-.737.478-1.473.742-2.208.109-.3.213-.606.326-.91.382-1.013.785-2.025,1.221-3.029.054-.124.116-.247.17-.371.394-.891.814-1.776,1.25-2.653.138-.279.28-.558.422-.834q.644-1.252,1.34-2.477c.093-.163.18-.328.273-.489.555-.958,1.137-1.9,1.738-2.828.174-.27.357-.532.535-.8q.669-1,1.368-1.97.381-.529.772-1.047c.406-.539.822-1.066,1.242-1.589.355-.442.712-.882,1.078-1.312.64-.754,1.285-1.5,1.954-2.215h0c.684-.73,1.391-1.422,2.1-2.1q.46-.441.93-.867.77-.7,1.559-1.363c.314-.263.626-.527.944-.781.57-.454,1.149-.884,1.731-1.3.279-.2.553-.413.834-.606.866-.594,1.741-1.157,2.628-1.67.588-.34,1.172-.648,1.752-.941.166-.084.332-.163.5-.243q.671-.324,1.33-.606c.151-.064.3-.132.45-.192.411-.169.818-.321,1.224-.464.1-.035.192-.075.289-.107q.747-.255,1.48-.454c.289-.079.573-.146.859-.213.134-.031.269-.068.4-.1q.627-.134,1.242-.229c.627-.1,1.241-.151,1.846-.184.123-.007.245-.015.367-.02.539-.018,1.071-.017,1.591.014.089.006.176.017.263.024q.636.048,1.25.146c.128.021.257.04.383.063.468.088.931.19,1.38.319l.042.014a13.328,13.328,0,0,1,1.266.446c.117.047.233.1.35.149Q440.629,253.628,441.129,253.9Z" transform="translate(-388.64 -220.091)" fill="url(#linear-gradient-15)"/>
      <path id="Path_1416" data-name="Path 1416" d="M511.524,230.95c1.682-.972,2.887.22,2.374,2.363l-3.1,12.957a5.512,5.512,0,0,1-2.359,3.337l-18.579,10.727a5.458,5.458,0,0,0-2.476,4.288,5.459,5.459,0,0,1-2.476,4.289L446.139,291.3c-3.925,14.219-13.968,28.534-25.723,35.321-15.224,8.79-27.641,1.7-27.692-15.78s12.288-38.862,27.512-47.652c11.755-6.787,21.847-4.094,25.839,5.552Zm-91.145,83.158c9.213-5.318,16.683-18.268,16.654-28.853s-7.55-14.881-16.763-9.563-16.692,18.274-16.661,28.86,7.55,14.879,16.77,9.556" transform="translate(-387.031 -227.299)" fill="url(#linear-gradient-16)"/>
      <g id="Group_1386" data-name="Group 1386" transform="translate(68.14 10.483)">
        <g id="Group_1385" data-name="Group 1385" style="isolation: isolate">
          <g id="Group_1384" data-name="Group 1384">
            <path id="Path_1417" data-name="Path 1417" d="M446.861,267.042c-1.2.691-2.184.139-2.189-1.248a4.8,4.8,0,0,1,2.175-3.768c1.207-.7,2.194-.145,2.2,1.243a4.8,4.8,0,0,1-2.184,3.772m6.573-3.794c-1.207.7-2.184.139-2.189-1.248a4.785,4.785,0,0,1,2.175-3.768c1.2-.691,2.186-.139,2.19,1.248a4.806,4.806,0,0,1-2.176,3.768m6.564-3.79c-1.207.7-2.186.141-2.19-1.248a4.789,4.789,0,0,1,2.176-3.767c1.207-.7,2.186-.141,2.188,1.248A4.784,4.784,0,0,1,460,259.457m6.564-3.789c-1.209.7-2.186.139-2.19-1.248a4.782,4.782,0,0,1,2.176-3.768c1.207-.7,2.184-.139,2.189,1.248a4.789,4.789,0,0,1-2.175,3.768m6.563-3.79c-1.207.7-2.184.141-2.189-1.248a4.784,4.784,0,0,1,2.175-3.767c1.209-.7,2.186-.141,2.19,1.246a4.782,4.782,0,0,1-2.176,3.768m6.564-3.79c-1.2.693-2.186.141-2.189-1.246a4.8,4.8,0,0,1,2.175-3.768c1.207-.7,2.186-.141,2.19,1.248a4.789,4.789,0,0,1-2.176,3.767m7.732-12.118-48.328,27.9a3.467,3.467,0,0,0-1.572,2.715l.018,6.651c0,1,.712,1.405,1.584.9l48.328-27.9a3.452,3.452,0,0,0,1.565-2.72l-.02-6.651c0-.991-.7-1.4-1.575-.9" transform="translate(-437.521 -235.754)" fill="url(#linear-gradient-17)"/>
            <g id="Group_1383" data-name="Group 1383" transform="translate(7.151 7.019)">
              <path id="Path_1418" data-name="Path 1418" d="M444.826,254.686a4.8,4.8,0,0,0-2.175,3.768c0,1.387.99,1.939,2.189,1.248a4.8,4.8,0,0,0,2.184-3.772c0-1.388-.991-1.94-2.2-1.243" transform="translate(-442.651 -235.433)" fill="url(#linear-gradient-18)"/>
              <path id="Path_1419" data-name="Path 1419" d="M449.541,251.963a4.785,4.785,0,0,0-2.175,3.768c0,1.387.981,1.945,2.189,1.248a4.806,4.806,0,0,0,2.176-3.768c0-1.387-.991-1.939-2.19-1.248" transform="translate(-440.793 -236.504)" fill="url(#linear-gradient-19)"/>
              <path id="Path_1420" data-name="Path 1420" d="M454.25,249.246a4.789,4.789,0,0,0-2.176,3.767c0,1.388.983,1.945,2.19,1.248a4.784,4.784,0,0,0,2.175-3.767c0-1.388-.981-1.946-2.188-1.248" transform="translate(-438.938 -237.576)" fill="url(#linear-gradient-20)"/>
              <path id="Path_1421" data-name="Path 1421" d="M458.959,246.527a4.782,4.782,0,0,0-2.176,3.768c0,1.387.981,1.945,2.19,1.248a4.789,4.789,0,0,0,2.175-3.768c0-1.387-.981-1.945-2.189-1.248" transform="translate(-437.083 -238.647)" fill="url(#linear-gradient-21)"/>
              <path id="Path_1422" data-name="Path 1422" d="M463.667,243.809a4.784,4.784,0,0,0-2.175,3.767c0,1.388.981,1.945,2.189,1.248a4.782,4.782,0,0,0,2.176-3.768c0-1.387-.981-1.945-2.19-1.246" transform="translate(-435.228 -239.718)" fill="url(#linear-gradient-22)"/>
              <path id="Path_1423" data-name="Path 1423" d="M468.376,241.09a4.8,4.8,0,0,0-2.175,3.768c0,1.387.99,1.939,2.189,1.246a4.789,4.789,0,0,0,2.176-3.767c0-1.388-.983-1.945-2.19-1.248" transform="translate(-433.373 -240.789)" fill="url(#linear-gradient-23)"/>
            </g>
          </g>
        </g>
      </g>
    </g>
  </g>
</svg>
