<svg id="Layer_1" data-name="Layer 1" xmlns="http://www.w3.org/2000/svg" viewBox="0 0 86 86.7"><defs><style>.cls-1{fill:#e4edff;}.cls-1,.cls-9{opacity:0;}.cls-2{fill:#474ca8;}.cls-3{fill:#c5c3e6;}.cls-4,.cls-9{fill:#70a2ff;}.cls-5{fill:#235ecc;}.cls-6{fill:#272da1;}.cls-7{fill:#3a3687;}.cls-8{fill:#42f9ff;}</style></defs><path class="cls-1" d="M43,84.6A41.55,41.55,0,1,0,1.5,43,41.57,41.57,0,0,0,43,84.6Z" transform="translate(0 0)"/><path class="cls-2" d="M47.3,72.4a9.62,9.62,0,0,1,6-9,10.71,10.71,0,0,1,5.6-.6,9.93,9.93,0,0,1,7.7,7.7,9,9,0,0,1-.6,5.6,9.67,9.67,0,0,1-3.6,4.4A9.49,9.49,0,0,1,57,82.1a11.56,11.56,0,0,1-3.7-.7A9.42,9.42,0,0,1,48,76.1a9.37,9.37,0,0,1-.7-3.7Z" transform="translate(0 0)"/><path class="cls-2" d="M30.5,82.1a9.7,9.7,0,1,0-9.7-9.7A9.71,9.71,0,0,0,30.5,82.1Z" transform="translate(0 0)"/><path class="cls-3" d="M20.9,71a9.75,9.75,0,0,0,3.5,6.1,2,2,0,0,0,.8.4,1.39,1.39,0,0,0,.9,0,6.89,6.89,0,0,0,.8-.3,1.41,1.41,0,0,0,.6-.7c.7-1.1,1.6-2.6,2.5-4.1a31.4,31.4,0,0,1,4.5-5.7L28.4,79a10.77,10.77,0,0,0,4,.1,12,12,0,0,0,3.7-1.5,9.36,9.36,0,0,0,2.7-2.9A9.79,9.79,0,0,0,40.2,71a11.89,11.89,0,0,1-.2,4.2,10.23,10.23,0,0,1-2,3.7,9,9,0,0,1-3.3,2.5,9.79,9.79,0,0,1-8.2,0,9,9,0,0,1-3.3-2.5,10.23,10.23,0,0,1-2-3.7,10.1,10.1,0,0,1-.3-4.2Z" transform="translate(0 0)"/><path class="cls-3" d="M66.7,71a9.75,9.75,0,0,1-3.5,6.1,2,2,0,0,1-.8.4,1.39,1.39,0,0,1-.9,0,6.89,6.89,0,0,1-.8-.3,1.34,1.34,0,0,1-.6-.7c-.7-1.1-1.6-2.6-2.5-4.1a31.4,31.4,0,0,0-4.5-5.7L59.2,79a10.71,10.71,0,0,1-4,.1,11.45,11.45,0,0,1-3.6-1.5,9.36,9.36,0,0,1-2.7-2.9A8.23,8.23,0,0,1,47.6,71a10.8,10.8,0,0,0,.2,4,8.74,8.74,0,0,0,1.8,3.6,8.38,8.38,0,0,0,3.1,2.5,10.36,10.36,0,0,0,3.8,1.1,10.23,10.23,0,0,0,3.9-.5,8.09,8.09,0,0,0,3.4-2.1,8.56,8.56,0,0,0,2.3-3.3,10.46,10.46,0,0,0,.8-3.9,7.84,7.84,0,0,1-.2-1.4Z" transform="translate(0 0)"/><path class="cls-4" d="M60.3,80.8C56.3,69.8,50.4,60,44,60c-6.7,0-12.6,10.4-16.7,21.7A37.14,37.14,0,0,0,60.3,80.8Z" transform="translate(0 0)"/><path class="cls-2" d="M43.9,66.5A22.37,22.37,0,0,1,35.8,65c2.5-3,5.2-5,8.1-5s5.6,1.9,8.1,5A22.37,22.37,0,0,1,43.9,66.5Z" transform="translate(0 0)"/><path class="cls-5" d="M43.9,72.4a55,55,0,0,1-9.1-.7.76.76,0,0,1-.4-.2l-.3-.3a.6.6,0,0,1-.1-.4c0-.1.1-.3.1-.4a29.77,29.77,0,0,1,2-2.9c.1-.1.3-.2.4-.3a.45.45,0,0,1,.5,0,26.9,26.9,0,0,0,13.8,0h.5a1.38,1.38,0,0,1,.4.3,29.77,29.77,0,0,1,2,2.9.85.85,0,0,1,0,.8l-.3.3c-.1.1-.3.1-.4.2a55,55,0,0,1-9.1.7Z" transform="translate(0 0)"/><path class="cls-6" d="M23,67.3a10.9,10.9,0,0,1,4.8-3,10.66,10.66,0,0,1,5.6-.2.35.35,0,0,1,.2.1l.2.2v.3c0,.1,0,.2-.1.2l-1.3,2.3c-.1.1-.1.2-.2.2s-.2.1-.3.1H31a20.6,20.6,0,0,0-7,1.2.64.64,0,0,1-.6,0c-.2-.1-.3-.2-.5-.3s-.2-.4-.1-.5a.85.85,0,0,1,.2-.6Z" transform="translate(0 0)"/><path class="cls-6" d="M64.4,67.3a10.9,10.9,0,0,0-4.8-3,10.66,10.66,0,0,0-5.6-.2.35.35,0,0,0-.2.1l-.2.2v.3c0,.1,0,.2.1.2L55,67.2c.1.1.1.2.2.2s.2.1.3.1h.9a20.6,20.6,0,0,1,7,1.2.64.64,0,0,0,.6,0c.2-.1.3-.2.5-.3s.2-.4.1-.5a.85.85,0,0,0-.2-.6Z" transform="translate(0 0)"/><path class="cls-7" d="M72.3,24.3H71V37.9h1.3Z" transform="translate(0 0)"/><path class="cls-4" d="M68.7,21.9a3,3,0,0,1,.5-1.6,3.48,3.48,0,0,1,1.3-1.1,3.21,3.21,0,0,1,1.7-.2,2.92,2.92,0,0,1,2.3,2.3,2.53,2.53,0,0,1-.2,1.7,2.76,2.76,0,0,1-1.1,1.3,3,3,0,0,1-1.6.5,2.79,2.79,0,0,1-2-.8,3.24,3.24,0,0,1-.9-2.1Z" transform="translate(0 0)"/><path class="cls-3" d="M71.6,23.9a2.64,2.64,0,0,1-1.9-.7,3,3,0,0,1-1-1.7v.4a2.79,2.79,0,0,0,.8,2,3,3,0,0,0,2,.8,2.79,2.79,0,0,0,2-.8,3,3,0,0,0,.8-2v-.4a2.33,2.33,0,0,1-1,1.7,2.41,2.41,0,0,1-1.7.7Z" transform="translate(0 0)"/><path class="cls-6" d="M71.6,20.4a5.08,5.08,0,0,1,1.7.3h.1a.1.1,0,0,0,.1-.1v-.1a.1.1,0,0,0-.1-.1,1.46,1.46,0,0,0-.9-.6,3.55,3.55,0,0,0-1-.2,3,3,0,0,0-1,.2,4.7,4.7,0,0,0-.9.6l-.1.1v.1l.1.1h.1a6.8,6.8,0,0,1,1.9-.3Z" transform="translate(0 0)"/><path class="cls-7" d="M16.7,24.3H15.4V37.9h1.3Z" transform="translate(0 0)"/><path class="cls-4" d="M13.2,21.9a3,3,0,0,1,.5-1.6A3.48,3.48,0,0,1,15,19.2a3.21,3.21,0,0,1,1.7-.2A2.92,2.92,0,0,1,19,21.3a2.53,2.53,0,0,1-.2,1.7,2.76,2.76,0,0,1-1.1,1.3,3,3,0,0,1-1.6.5,4.25,4.25,0,0,1-1.1-.2,2.84,2.84,0,0,1-.9-.6,2.36,2.36,0,0,1-.6-.9A2.1,2.1,0,0,1,13.2,21.9Z" transform="translate(0 0)"/><path class="cls-3" d="M16,23.9a2.64,2.64,0,0,1-1.9-.7,3,3,0,0,1-1-1.7v.4a2.79,2.79,0,0,0,.8,2,3,3,0,0,0,2,.8,2.79,2.79,0,0,0,2-.8,3,3,0,0,0,.8-2v-.4a2.33,2.33,0,0,1-1,1.7A2.24,2.24,0,0,1,16,23.9Z" transform="translate(0 0)"/><path class="cls-6" d="M16,20.4a5.08,5.08,0,0,1,1.7.3h.1a.1.1,0,0,0,.1-.1v-.1a.1.1,0,0,0-.1-.1,1.46,1.46,0,0,0-.9-.6,3.55,3.55,0,0,0-1-.2,3,3,0,0,0-1,.2,4.7,4.7,0,0,0-.9.6l-.1.1v.1l.1.1h.1a8.08,8.08,0,0,1,1.9-.3Z" transform="translate(0 0)"/><path class="cls-2" d="M49.9,57.9H37.7V63H49.8V57.9Z" transform="translate(0 0)"/><path class="cls-4" d="M57,23.1H30.4A11.71,11.71,0,0,0,18.7,34.8V46.4A11.71,11.71,0,0,0,30.4,58.1H57A11.71,11.71,0,0,0,68.7,46.4V34.7A11.69,11.69,0,0,0,57,23.1Z" transform="translate(0 0)"/><path class="cls-3" d="M60.8,55.2H26.6a11.79,11.79,0,0,1-4.6-.9A10.54,10.54,0,0,0,25.9,57a12.27,12.27,0,0,0,4.6,1H57a10.3,10.3,0,0,0,4.6-1,11.86,11.86,0,0,0,3.9-2.7,12.67,12.67,0,0,1-4.7.9Z" transform="translate(0 0)"/><path class="cls-2" d="M64.2,35.1V45.9a8.43,8.43,0,0,1-2.4,5.8A8.25,8.25,0,0,1,56,54.1H31.2a8.15,8.15,0,0,1-3.1-.6,6.77,6.77,0,0,1-2.6-1.8,8.7,8.7,0,0,1-1.8-2.6,8.53,8.53,0,0,1-.6-3.1V35.1a8.43,8.43,0,0,1,2.4-5.8,8.25,8.25,0,0,1,5.8-2.4H56a8.43,8.43,0,0,1,5.8,2.4,8.62,8.62,0,0,1,2.4,5.8Z" transform="translate(0 0)"/><path class="cls-6" d="M31,31.7H56.4a7.67,7.67,0,0,1,3.4.7,8.64,8.64,0,0,1,2.9,2.1,8,8,0,0,0-2.8-4.4A7.24,7.24,0,0,0,55,28.5H32.4a7.79,7.79,0,0,0-4.9,1.6,7.66,7.66,0,0,0-2.8,4.4,8.64,8.64,0,0,1,2.9-2.1,7.67,7.67,0,0,1,3.4-.7Z" transform="translate(0 0)"/><path class="cls-3" d="M56.6,49.9H30.8a8.42,8.42,0,0,1-3.5-.7,8.64,8.64,0,0,1-2.9-2.1,7.65,7.65,0,0,0,2.9,4.4,7.5,7.5,0,0,0,5,1.6h23a8.07,8.07,0,0,0,5-1.6,8.36,8.36,0,0,0,2.9-4.4,8.64,8.64,0,0,1-2.9,2.1A8.37,8.37,0,0,1,56.6,49.9Z" transform="translate(0 0)"/><path class="cls-8" d="M43.6,47.2a31.81,31.81,0,0,1-12.5-2.6,1.58,1.58,0,0,1-.7-.7,1.7,1.7,0,0,1,0-1,1.21,1.21,0,0,1,.7-.7,1.73,1.73,0,0,1,1-.1c8.1,3.2,15,3.2,23,0a.9.9,0,0,1,.5-.1.75.75,0,0,1,.5.1c.2.1.3.2.5.3a2.19,2.19,0,0,1,.3.5,1.09,1.09,0,0,1,.1.5,4.33,4.33,0,0,1-.1.5,1.38,1.38,0,0,1-.3.4,2.19,2.19,0,0,1-.5.3,35.35,35.35,0,0,1-12.5,2.6Z" transform="translate(0 0)"/><path class="cls-8" d="M34.9,36.3c0-1.6.9-2.9,2-2.9s2,1.3,2,2.9-.9,2.9-2,2.9S34.9,37.9,34.9,36.3Z" transform="translate(0 0)"/><path class="cls-8" d="M48.3,36.3c0-1.6.9-2.9,2-2.9s2,1.3,2,2.9-.9,2.9-2,2.9S48.3,37.9,48.3,36.3Z" transform="translate(0 0)"/><path class="cls-3" d="M49.9,57.9H37.7v2.6H49.8V57.9Z" transform="translate(0 0)"/><path class="cls-2" d="M69,47.2h-.4V34.7H69a6.66,6.66,0,0,1,4.4,1.8,6,6,0,0,1,1.8,4.4,6.47,6.47,0,0,1-1.8,4.4A6.31,6.31,0,0,1,69,47.2Z" transform="translate(0 0)"/><path class="cls-6" d="M69.7,38.2V35.8c0-.1.1-.1.1-.2s.1-.1.2-.1h.2a6.54,6.54,0,0,1,2.3,1.3A8.55,8.55,0,0,1,74,39v.3a.35.35,0,0,1-.1.2.37.37,0,0,1-.3.1h-.3a20.74,20.74,0,0,0-3.3-1c-.1,0-.2-.1-.3-.2v-.2Z" transform="translate(0 0)"/><path class="cls-3" d="M71.2,45.1c-.2,0-.3.1-.5,0s-.3-.1-.5-.2-.3-.2-.3-.4-.1-.3-.2-.5l-1.1-8V47.2H69a5.58,5.58,0,0,0,3.3-1,5.82,5.82,0,0,0,2.3-2.6A8.81,8.81,0,0,1,71.2,45.1Z" transform="translate(0 0)"/><path class="cls-2" d="M18.4,47.2h.4V34.7h-.4A6.66,6.66,0,0,0,14,36.5a6,6,0,0,0-1.8,4.4A6.47,6.47,0,0,0,14,45.3a6,6,0,0,0,4.4,1.9Z" transform="translate(0 0)"/><path class="cls-6" d="M17.6,38.2V35.8c0-.1-.1-.1-.1-.2s-.1-.1-.2-.1h-.2a6.54,6.54,0,0,0-2.3,1.3A8.55,8.55,0,0,0,13.3,39v.3a.35.35,0,0,0,.1.2.37.37,0,0,0,.3.1H14a20.74,20.74,0,0,1,3.3-1c.1,0,.2-.1.3-.2v-.2Z" transform="translate(0 0)"/><path class="cls-3" d="M16.1,45.1c.2,0,.3.1.5,0s.3-.1.5-.2.3-.2.3-.4.1-.3.2-.5l1.1-8.1V47.1h-.4a5.58,5.58,0,0,1-3.3-1,5.82,5.82,0,0,1-2.3-2.6A7.67,7.67,0,0,0,16.1,45.1Z" transform="translate(0 0)"/><path class="cls-2" d="M47.7,84.6V78.7a4,4,0,0,0-1.2-2.8,4.3,4.3,0,0,0-2.8-1.1,3.93,3.93,0,0,0-4,3.9v5.9Z" transform="translate(0 0)"/><path class="cls-8" d="M45.4,84.6V79.2A1.7,1.7,0,0,0,42.5,78a1.66,1.66,0,0,0-.5,1.2v5.4Z" transform="translate(0 0)"/><path class="cls-9" d="M43,86.7A42.94,42.94,0,0,1,3.3,60,44.07,44.07,0,0,1,.8,34.9,43.38,43.38,0,0,1,34.6.8,43.31,43.31,0,0,1,59.5,3.3a42.47,42.47,0,0,1,19.3,16,43.8,43.8,0,0,1-5.4,54.8A42.91,42.91,0,0,1,43,86.7ZM43,2.9A40.35,40.35,0,0,0,20.7,9.7,41.21,41.21,0,0,0,5.9,27.9,39.85,39.85,0,0,0,3.7,51.3,40.82,40.82,0,0,0,14.6,72,40.2,40.2,0,0,0,35.1,83.1a39.3,39.3,0,0,0,23.2-2.3,39.72,39.72,0,0,0,18-14.9,41,41,0,0,0,6.8-22.5A40.41,40.41,0,0,0,71.3,14.8,39.82,39.82,0,0,0,43,2.9Z" transform="translate(0 0)"/></svg>