<svg xmlns="http://www.w3.org/2000/svg" xmlns:xlink="http://www.w3.org/1999/xlink" width="170.277" height="250.75" viewBox="0 0 170.277 250.75">
  <defs>
    <linearGradient id="linear-gradient" y1="0.5" x2="1" y2="0.5" gradientUnits="objectBoundingBox">
      <stop offset="0" stop-color="#01b0f9"/>
      <stop offset="1" stop-color="#1957c8"/>
    </linearGradient>
    <linearGradient id="linear-gradient-2" x1="0.12" y1="0.116" x2="1.17" y2="1.178" gradientUnits="objectBoundingBox">
      <stop offset="0" stop-color="#dffeff"/>
      <stop offset="1" stop-color="#01b0f9"/>
    </linearGradient>
    <linearGradient id="linear-gradient-3" x1="0.519" y1="0.786" x2="0.469" y2="0.037" gradientUnits="objectBoundingBox">
      <stop offset="0" stop-color="#f6fbff"/>
      <stop offset="1" stop-color="#3d6dff"/>
    </linearGradient>
    <linearGradient id="linear-gradient-4" x1="0.498" y1="-0.199" x2="0.503" y2="1.229" xlink:href="#linear-gradient-3"/>
    <linearGradient id="linear-gradient-5" y1="0.5" x2="1" y2="0.5" gradientUnits="objectBoundingBox">
      <stop offset="0" stop-color="#01b3f9"/>
      <stop offset="0.395" stop-color="#015bea"/>
      <stop offset="0.487" stop-color="#01b3f9"/>
      <stop offset="1" stop-color="#015bea"/>
    </linearGradient>
    <linearGradient id="linear-gradient-6" x1="0.12" y1="0.116" x2="1.17" y2="1.178" xlink:href="#linear-gradient-3"/>
    <linearGradient id="linear-gradient-9" y1="0.5" x2="1" y2="0.5" gradientUnits="objectBoundingBox">
      <stop offset="0" stop-color="#007ee6"/>
      <stop offset="1" stop-color="#06d3fe"/>
    </linearGradient>
    <linearGradient id="linear-gradient-11" x1="0.519" y1="0.786" x2="0.469" y2="0.037" xlink:href="#linear-gradient-2"/>
    <linearGradient id="linear-gradient-12" x1="0.536" y1="0.01" x2="0.432" y2="1.412" gradientUnits="objectBoundingBox">
      <stop offset="0" stop-color="#01b3f9"/>
      <stop offset="1" stop-color="#015bea"/>
    </linearGradient>
    <linearGradient id="linear-gradient-14" x1="0.5" y1="0" x2="0.5" y2="1" xlink:href="#linear-gradient-2"/>
    <linearGradient id="linear-gradient-15" x1="0.519" y1="0.786" x2="0.469" y2="0.037" xlink:href="#linear-gradient-9"/>
    <linearGradient id="linear-gradient-16" x1="0.536" y1="0.01" x2="0.432" y2="1.412" xlink:href="#linear-gradient-9"/>
  </defs>
  <g id="latestResearch_blockchain" transform="translate(0 27)">
    <g id="Group_1330" data-name="Group 1330" transform="translate(0 -27)">
      <g id="Group_1327" data-name="Group 1327" transform="translate(0 116.639)">
        <path id="Path_1236" data-name="Path 1236" d="M734.984,289.874v35.648c0,.111-.037.256-.037.367-.034.222-.034.4-.071.589a.136.136,0,0,1-.037.111c0,.111-.074.219-.074.367-.074.185-.111.367-.185.551a.137.137,0,0,1-.037.111c-.037.108-.108.219-.148.33a3.68,3.68,0,0,1-.256.589c-.037.037-.037.074-.074.148s-.111.145-.182.256l-.444.663a.836.836,0,0,0-.108.182.441.441,0,0,0-.185.185c-.219.259-.515.552-.774.844a1.026,1.026,0,0,0-.219.185c0,.037-.074.074-.111.111a6.25,6.25,0,0,0-.551.478,5.289,5.289,0,0,0-.515.4c-.219.148-.441.3-.7.441l-.44.333c-.074.034-.185.071-.259.108L663.174,371.5a23.98,23.98,0,0,1-2.61,1.211,5.307,5.307,0,0,1-.7.259,7.242,7.242,0,0,1-.773.293c-.292.111-.659.148-.955.259a17.7,17.7,0,0,1-1.873.441,4.414,4.414,0,0,1-.663.182c-.515.111-1.029.148-1.544.222-.219.037-.4.037-.589.074-.071,0-.145.037-.219.037-.7.074-1.362.108-2.058.145h-1.873c-.626-.037-1.214-.037-1.839-.108a4,4,0,0,1-.659-.074c-.148,0-.3-.037-.444-.037-.219-.037-.477-.037-.7-.074-.589-.111-1.214-.185-1.8-.33-.182-.037-.33-.074-.478-.111-.185-.037-.366-.074-.515-.111-.329-.111-.625-.148-.955-.256a14.5,14.5,0,0,1-1.617-.551,2.128,2.128,0,0,1-.441-.148c-.074,0-.111-.037-.185-.037a21.84,21.84,0,0,1-2.644-1.285L570.161,332.87c-3.639-2.092-5.475-4.85-5.438-7.607v-35.5c0,2.758,1.8,5.512,5.475,7.607l66.886,38.624a16.4,16.4,0,0,0,2.792,1.325c.148.071.3.108.441.182.847.3,1.691.552,2.572.773.185.037.367.074.515.108a27.9,27.9,0,0,0,2.976.518,2.282,2.282,0,0,0,.478.034,26.9,26.9,0,0,0,3.013.185h.552a28.809,28.809,0,0,0,3.087-.185,2.792,2.792,0,0,0,.552-.071,21.806,21.806,0,0,0,2.243-.37c.625-.145,1.251-.293,1.836-.478.588-.145,1.177-.33,1.729-.515.256-.111.515-.182.733-.293a18.127,18.127,0,0,0,2.573-1.214L729.62,297.37c.256-.148.477-.293.7-.441s.478-.293.659-.441a6.415,6.415,0,0,0,.515-.4c.222-.148.4-.333.588-.481l.293-.293c.3-.293.554-.551.81-.844a2.563,2.563,0,0,1,.293-.367l.443-.662c.071-.148.145-.259.219-.4.111-.185.185-.37.3-.589a1.988,1.988,0,0,1,.182-.441,3.116,3.116,0,0,0,.148-.552,1.847,1.847,0,0,0,.111-.477,2.849,2.849,0,0,0,.071-.552A2.8,2.8,0,0,0,734.984,289.874Z" transform="translate(-564.722 -240.506)" fill="url(#linear-gradient)"/>
        <path id="Path_1237" data-name="Path 1237" d="M729.546,315.531c7.237,4.178,7.275,10.938.068,15.125l-66.437,38.608c-7.188,4.178-18.877,4.19-26.115.009l-66.886-38.618c-7.237-4.178-7.274-10.956-.086-15.134l66.439-38.608c7.2-4.187,18.893-4.178,26.127,0Z" transform="translate(-564.719 -273.776)" fill="url(#linear-gradient-2)"/>
        <path id="Path_1238" data-name="Path 1238" d="M697.158,317.788a10.767,10.767,0,0,1-1.744,1.273L643.927,348.99c-4.653,2.705-12.192,2.705-16.866,0l-51.823-29.929a9.387,9.387,0,0,1-1.79-1.319c-2.795-2.64-2.215-6.15,1.722-8.433l51.512-29.926c4.628-2.705,12.188-2.705,16.863-.022l51.848,29.926C699.373,311.592,699.956,315.126,697.158,317.788Z" transform="translate(-550.177 -266.335)" fill="url(#linear-gradient-3)"/>
        <path id="Path_1239" data-name="Path 1239" d="M695.985,312.947a10.768,10.768,0,0,1-1.744,1.272l-51.487,29.929c-4.652,2.705-12.192,2.705-16.866,0l-51.823-29.929a9.393,9.393,0,0,1-1.79-1.319A9.866,9.866,0,0,1,574,311.625L625.509,281.7c4.628-2.684,12.188-2.705,16.862,0l51.848,29.926A8.413,8.413,0,0,1,695.985,312.947Z" transform="translate(-549.003 -261.493)" fill="url(#linear-gradient-4)"/>
      </g>
      <g id="Group_1328" data-name="Group 1328" transform="translate(19.62 101.784)">
        <path id="Path_1240" data-name="Path 1240" d="M702.115,281.341v27.433c0,.086-.028.2-.028.284-.028.169-.028.311-.055.453a.1.1,0,0,1-.031.083c0,.086-.056.17-.056.284-.055.142-.083.283-.142.425a.1.1,0,0,1-.028.083c-.028.086-.083.169-.114.256a2.9,2.9,0,0,1-.2.453c-.028.028-.028.055-.056.111s-.086.114-.142.2l-.339.508a.49.49,0,0,0-.086.142.333.333,0,0,0-.142.142c-.169.2-.394.422-.591.65a.689.689,0,0,0-.173.142c0,.028-.056.055-.083.083a4.977,4.977,0,0,0-.425.37,3.455,3.455,0,0,0-.395.311c-.17.111-.342.225-.539.339l-.339.253c-.056.028-.142.058-.2.086l-51.105,29.723a18.818,18.818,0,0,1-2.006.934,4.23,4.23,0,0,1-.539.2,5.205,5.205,0,0,1-.592.228c-.228.083-.511.111-.737.2a12.82,12.82,0,0,1-1.442.339,3.476,3.476,0,0,1-.509.142c-.4.083-.795.114-1.189.169-.169.028-.311.028-.453.055-.056,0-.114.028-.169.028-.536.058-1.048.086-1.584.114h-1.442c-.48-.028-.933-.028-1.414-.083a3.176,3.176,0,0,1-.508-.058c-.114,0-.228-.028-.339-.028-.169-.028-.37-.028-.539-.055-.453-.086-.933-.142-1.386-.256-.139-.028-.253-.055-.367-.083-.142-.028-.283-.059-.394-.086-.256-.086-.481-.114-.736-.2a10.994,10.994,0,0,1-1.245-.425,1.469,1.469,0,0,1-.339-.114c-.056,0-.086-.028-.142-.028a17.28,17.28,0,0,1-2.037-.989l-51.472-29.723c-2.8-1.611-4.212-3.734-4.184-5.854v-27.32c0,2.12,1.386,4.243,4.215,5.854l51.469,29.723a12.676,12.676,0,0,0,2.151,1.02c.114.055.225.083.339.139.65.228,1.3.425,1.981.595.139.028.28.056.394.086a21.223,21.223,0,0,0,2.292.394,1.617,1.617,0,0,0,.366.028,20.56,20.56,0,0,0,2.32.142h.422a21.965,21.965,0,0,0,2.375-.142,2.232,2.232,0,0,0,.425-.056,16.363,16.363,0,0,0,1.726-.284c.481-.114.961-.225,1.414-.367.453-.114.906-.256,1.328-.4.2-.083.4-.139.567-.225a14.242,14.242,0,0,0,1.978-.934l51.133-29.723c.2-.114.37-.228.539-.339s.367-.228.508-.339.283-.2.395-.311c.169-.114.311-.256.453-.37l.228-.225c.225-.228.422-.425.619-.65a1.848,1.848,0,0,1,.228-.284c.114-.169.225-.339.339-.508.056-.114.114-.2.17-.311.086-.142.142-.284.228-.453a1.663,1.663,0,0,1,.138-.339,2.141,2.141,0,0,0,.114-.425,1.413,1.413,0,0,0,.086-.367,2.22,2.22,0,0,0,.055-.425A2.175,2.175,0,0,0,702.115,281.341Z" transform="translate(-571.09 -243.351)" fill="url(#linear-gradient-5)"/>
        <path id="Path_1241" data-name="Path 1241" d="M697.927,301.088c5.571,3.214,5.6,8.417.056,11.64l-51.127,29.71c-5.534,3.217-14.527,3.223-20.1.009l-51.472-29.72c-5.567-3.214-5.6-8.433-.065-11.646l51.124-29.714c5.546-3.223,14.539-3.214,20.11,0Z" transform="translate(-571.087 -268.955)" fill="url(#linear-gradient-6)"/>
        <path id="Path_1242" data-name="Path 1242" d="M673.009,302.824a8.6,8.6,0,0,1-1.343.983l-39.622,23.031a14.282,14.282,0,0,1-12.98,0l-39.881-23.031a7.476,7.476,0,0,1-1.377-1.017c-2.15-2.03-1.7-4.733,1.328-6.489L618.77,273.27a14.311,14.311,0,0,1,12.98-.015l39.9,23.028C674.713,298.057,675.159,300.775,673.009,302.824Z" transform="translate(-559.897 -263.228)" fill="url(#linear-gradient-3)"/>
        <path id="Path_1243" data-name="Path 1243" d="M672.106,299.1a8.589,8.589,0,0,1-1.343.983l-39.622,23.031a14.283,14.283,0,0,1-12.98,0L578.279,300.08a7.47,7.47,0,0,1-1.377-1.017,7.494,7.494,0,0,1,1.328-.98l39.638-23.031a14.32,14.32,0,0,1,12.98,0l39.9,23.031A6.466,6.466,0,0,1,672.106,299.1Z" transform="translate(-558.995 -259.501)" fill="url(#linear-gradient-4)"/>
      </g>
      <g id="Group_1329" data-name="Group 1329" transform="translate(0 59.676)">
        <path id="Path_1244" data-name="Path 1244" d="M734.984,271.386v35.648c0,.108-.037.256-.037.367-.034.219-.034.4-.071.589a.135.135,0,0,1-.037.111c0,.108-.074.219-.074.367-.074.182-.111.367-.185.551a.128.128,0,0,1-.037.108c-.037.111-.108.222-.148.333a3.68,3.68,0,0,1-.256.589c-.037.037-.037.074-.074.145s-.111.148-.182.259l-.444.662a.768.768,0,0,0-.108.182.441.441,0,0,0-.185.185c-.219.256-.515.551-.774.844a1.032,1.032,0,0,0-.219.185c0,.037-.074.074-.111.111a6.259,6.259,0,0,0-.551.477,5.3,5.3,0,0,0-.515.4c-.219.148-.441.293-.7.441l-.44.33c-.074.037-.185.074-.259.111l-66.409,38.624a23.987,23.987,0,0,1-2.61,1.214,4.86,4.86,0,0,1-.7.256,6.634,6.634,0,0,1-.773.3c-.292.111-.659.148-.955.256a17,17,0,0,1-1.873.444,4.823,4.823,0,0,1-.663.182c-.515.111-1.029.148-1.544.222-.219.037-.4.037-.589.074-.071,0-.145.037-.219.037-.7.071-1.362.108-2.058.145h-1.873c-.626-.037-1.214-.037-1.839-.108a3.99,3.99,0,0,1-.659-.074c-.148,0-.3-.037-.444-.037-.219-.037-.477-.037-.7-.074-.589-.111-1.214-.185-1.8-.333-.182-.034-.33-.071-.478-.108-.185-.037-.366-.074-.515-.111-.329-.111-.625-.148-.955-.259a13.355,13.355,0,0,1-1.617-.552,1.941,1.941,0,0,1-.441-.145c-.074,0-.111-.037-.185-.037a21.839,21.839,0,0,1-2.644-1.288l-66.886-38.624c-3.639-2.1-5.475-4.85-5.438-7.607v-35.5c0,2.754,1.8,5.512,5.475,7.607l66.886,38.624a16.413,16.413,0,0,0,2.792,1.325c.148.071.3.108.441.182.847.293,1.691.551,2.572.773.185.034.367.071.515.108a27.8,27.8,0,0,0,2.976.515,2.09,2.09,0,0,0,.478.037,26.922,26.922,0,0,0,3.013.185h.552a28.833,28.833,0,0,0,3.087-.185,2.8,2.8,0,0,0,.552-.074A21.805,21.805,0,0,0,656.3,320c.625-.148,1.251-.293,1.836-.478.588-.148,1.177-.33,1.729-.514.256-.111.515-.182.733-.293a18.482,18.482,0,0,0,2.573-1.214l66.446-38.624c.256-.148.477-.3.7-.441s.478-.3.659-.441a5.787,5.787,0,0,0,.515-.407,7.432,7.432,0,0,0,.588-.478l.293-.293c.3-.3.554-.551.81-.847a2.95,2.95,0,0,1,.293-.367l.443-.659c.071-.148.145-.259.219-.407.111-.182.185-.367.3-.585a2.071,2.071,0,0,1,.182-.444,3.02,3.02,0,0,0,.148-.548,1.84,1.84,0,0,0,.111-.481,9.026,9.026,0,0,0,.108-1.1Z" transform="translate(-564.722 -222.018)" fill="url(#linear-gradient-9)"/>
        <path id="Path_1245" data-name="Path 1245" d="M729.546,297.043c7.237,4.178,7.275,10.938.068,15.125l-66.437,38.609c-7.188,4.178-18.877,4.187-26.115.009l-66.886-38.618c-7.237-4.178-7.274-10.956-.086-15.134l66.439-38.609c7.2-4.187,18.893-4.178,26.127,0Z" transform="translate(-564.719 -255.288)" fill="url(#linear-gradient-2)"/>
        <path id="Path_1246" data-name="Path 1246" d="M697.158,299.3a10.592,10.592,0,0,1-1.744,1.276L643.927,330.5c-4.653,2.705-12.192,2.705-16.866,0l-51.823-29.929a9.521,9.521,0,0,1-1.79-1.319c-2.795-2.641-2.215-6.15,1.722-8.433L626.682,260.9c4.628-2.705,12.188-2.705,16.863-.022L695.393,290.8C699.373,293.1,699.956,296.638,697.158,299.3Z" transform="translate(-550.177 -247.847)" fill="url(#linear-gradient-11)"/>
        <path id="Path_1247" data-name="Path 1247" d="M695.985,294.456a10.594,10.594,0,0,1-1.744,1.276L642.754,325.66c-4.652,2.705-12.192,2.705-16.866,0l-51.823-29.929a9.528,9.528,0,0,1-1.79-1.319A9.856,9.856,0,0,1,574,293.137l51.512-29.926c4.628-2.684,12.188-2.705,16.862,0l51.848,29.926A8.507,8.507,0,0,1,695.985,294.456Z" transform="translate(-549.003 -243.005)" fill="url(#linear-gradient-12)"/>
      </g>
      <g id="Group_1398" data-name="Group 1398">
        <path id="Path_1244-2" data-name="Path 1244" d="M734.984,271.386v35.648c0,.108-.037.256-.037.367-.034.219-.034.4-.071.589a.135.135,0,0,1-.037.111c0,.108-.074.219-.074.367-.074.182-.111.367-.185.551a.128.128,0,0,1-.037.108c-.037.111-.108.222-.148.333a3.68,3.68,0,0,1-.256.589c-.037.037-.037.074-.074.145s-.111.148-.182.259l-.444.662a.768.768,0,0,0-.108.182.441.441,0,0,0-.185.185c-.219.256-.515.551-.774.844a1.032,1.032,0,0,0-.219.185c0,.037-.074.074-.111.111a6.259,6.259,0,0,0-.551.477,5.3,5.3,0,0,0-.515.4c-.219.148-.441.293-.7.441l-.44.33c-.074.037-.185.074-.259.111l-66.409,38.624a23.987,23.987,0,0,1-2.61,1.214,4.86,4.86,0,0,1-.7.256,6.634,6.634,0,0,1-.773.3c-.292.111-.659.148-.955.256a17,17,0,0,1-1.873.444,4.823,4.823,0,0,1-.663.182c-.515.111-1.029.148-1.544.222-.219.037-.4.037-.589.074-.071,0-.145.037-.219.037-.7.071-1.362.108-2.058.145h-1.873c-.626-.037-1.214-.037-1.839-.108a3.99,3.99,0,0,1-.659-.074c-.148,0-.3-.037-.444-.037-.219-.037-.477-.037-.7-.074-.589-.111-1.214-.185-1.8-.333-.182-.034-.33-.071-.478-.108-.185-.037-.366-.074-.515-.111-.329-.111-.625-.148-.955-.259a13.355,13.355,0,0,1-1.617-.552,1.941,1.941,0,0,1-.441-.145c-.074,0-.111-.037-.185-.037a21.839,21.839,0,0,1-2.644-1.288l-66.886-38.624c-3.639-2.1-5.475-4.85-5.438-7.607v-35.5c0,2.754,1.8,5.512,5.475,7.607l66.886,38.624a16.413,16.413,0,0,0,2.792,1.325c.148.071.3.108.441.182.847.293,1.691.551,2.572.773.185.034.367.071.515.108a27.8,27.8,0,0,0,2.976.515,2.09,2.09,0,0,0,.478.037,26.922,26.922,0,0,0,3.013.185h.552a28.833,28.833,0,0,0,3.087-.185,2.8,2.8,0,0,0,.552-.074A21.805,21.805,0,0,0,656.3,320c.625-.148,1.251-.293,1.836-.478.588-.148,1.177-.33,1.729-.514.256-.111.515-.182.733-.293a18.482,18.482,0,0,0,2.573-1.214l66.446-38.624c.256-.148.477-.3.7-.441s.478-.3.659-.441a5.787,5.787,0,0,0,.515-.407,7.432,7.432,0,0,0,.588-.478l.293-.293c.3-.3.554-.551.81-.847a2.95,2.95,0,0,1,.293-.367l.443-.659c.071-.148.145-.259.219-.407.111-.182.185-.367.3-.585a2.071,2.071,0,0,1,.182-.444,3.02,3.02,0,0,0,.148-.548,1.84,1.84,0,0,0,.111-.481,9.026,9.026,0,0,0,.108-1.1Z" transform="translate(-564.722 -222.018)" fill="url(#linear-gradient-9)"/>
        <path id="Path_1245-2" data-name="Path 1245" d="M729.546,297.043c7.237,4.178,7.275,10.938.068,15.125l-66.437,38.609c-7.188,4.178-18.877,4.187-26.115.009l-66.886-38.618c-7.237-4.178-7.274-10.956-.086-15.134l66.439-38.609c7.2-4.187,18.893-4.178,26.127,0Z" transform="translate(-564.719 -255.288)" fill="url(#linear-gradient-14)"/>
        <path id="Path_1246-2" data-name="Path 1246" d="M697.158,299.3a10.592,10.592,0,0,1-1.744,1.276L643.927,330.5c-4.653,2.705-12.192,2.705-16.866,0l-51.823-29.929a9.521,9.521,0,0,1-1.79-1.319c-2.795-2.641-2.215-6.15,1.722-8.433L626.682,260.9c4.628-2.705,12.188-2.705,16.863-.022L695.393,290.8C699.373,293.1,699.956,296.638,697.158,299.3Z" transform="translate(-550.177 -247.847)" fill="url(#linear-gradient-15)"/>
        <path id="Path_1247-2" data-name="Path 1247" d="M695.985,294.456a10.594,10.594,0,0,1-1.744,1.276L642.754,325.66c-4.652,2.705-12.192,2.705-16.866,0l-51.823-29.929a9.528,9.528,0,0,1-1.79-1.319A9.856,9.856,0,0,1,574,293.137l51.512-29.926c4.628-2.684,12.188-2.705,16.862,0l51.848,29.926A8.507,8.507,0,0,1,695.985,294.456Z" transform="translate(-549.003 -243.005)" fill="url(#linear-gradient-16)"/>
      </g>
    </g>
  </g>
</svg>
