<svg xmlns="http://www.w3.org/2000/svg" width="43.362" height="43.36" viewBox="0 0 43.362 43.36">
  <g id="Group_10784" data-name="Group 10784" transform="translate(-840.849 -2016.85)">
    <g id="Group_2717" data-name="Group 2717" transform="translate(841.5 2039.445)">
      <path id="Path_3434" data-name="Path 3434" d="M851.558,2029.5a10.058,10.058,0,1,0,9.668,12.8h2.218l1.829,1.829,1.829-1.829h1.829l1.829,1.829,1.829-1.829h2.743l2.743-2.743-2.743-2.743h-14.1A10.051,10.051,0,0,0,851.558,2029.5Z" transform="translate(-841.5 -2029.5)" fill="none" stroke="#433f3f" stroke-linecap="round" stroke-linejoin="round" stroke-width="1.3"/>
      <circle id="Ellipse_938" data-name="Ellipse 938" cx="2.917" cy="2.917" r="2.917" transform="translate(3.5 7.221)" fill="none" stroke="#433f3f" stroke-linecap="round" stroke-linejoin="round" stroke-width="1.3"/>
    </g>
    <g id="Group_2718" data-name="Group 2718" transform="translate(859.787 2017.5)">
      <circle id="Ellipse_939" data-name="Ellipse 939" cx="0.914" cy="0.914" r="0.914" transform="translate(10.972 17.373)" fill="none" stroke="#433f3f" stroke-linecap="round" stroke-linejoin="round" stroke-width="1.3"/>
      <line id="Line_2207" data-name="Line 2207" y2="3.657" transform="translate(11.887 19.202)" fill="none" stroke="#433f3f" stroke-linecap="round" stroke-linejoin="round" stroke-width="1.3"/>
      <path id="Path_3435" data-name="Path 3435" d="M873.445,2042.787h1.829V2024.5H851.5v7.315" transform="translate(-851.5 -2011.699)" fill="none" stroke="#433f3f" stroke-linecap="round" stroke-linejoin="round" stroke-width="1.3"/>
      <path id="Path_3436" data-name="Path 3436" d="M853.5,2030.3v-4.572a8.229,8.229,0,1,1,16.458,0v4.572" transform="translate(-849.843 -2017.5)" fill="none" stroke="#433f3f" stroke-linecap="round" stroke-linejoin="round" stroke-width="1.3"/>
    </g>
  </g>
</svg>
