<svg xmlns="http://www.w3.org/2000/svg" xmlns:xlink="http://www.w3.org/1999/xlink" width="106" height="106" viewBox="0 0 106 106">
  <defs>
    <filter id="Ellipse_2586" x="0" y="0" width="106" height="106" filterUnits="userSpaceOnUse">
      <feOffset input="SourceAlpha"/>
      <feGaussianBlur stdDeviation="5.5" result="blur"/>
      <feFlood flood-opacity="0.11"/>
      <feComposite operator="in" in2="blur"/>
      <feComposite in="SourceGraphic"/>
    </filter>
  </defs>
  <g id="management_innovative" transform="translate(-1270.5 -1891.5)">
    <g transform="matrix(1, 0, 0, 1, 1270.5, 1891.5)" filter="url(#Ellipse_2586)">
      <circle id="Ellipse_2586-2" data-name="Ellipse 2586" cx="36.5" cy="36.5" r="36.5" transform="translate(16.5 16.5)" fill="#007ee1"/>
    </g>
    <g id="Rocket_1_" transform="translate(1305 1927.543)">
      <path id="Path_8263" data-name="Path 8263" d="M37,5.145a5.132,5.132,0,0,0-1.364-3.787c-3.633-3.62-13.185.229-21.75,8.765a12.117,12.117,0,0,0-.869.98,2,2,0,0,0-.312-.1c-2.467-.576-10.383.768-12.688,9.975a.578.578,0,0,0,.9.609c3.128-2.269,5.637-3.182,7.828-2.846-.151.274-.3.541-.463.8a.578.578,0,0,0,.083.714l.907.9-1.7,1.692a.578.578,0,0,0,0,.819l5.682,5.664a.578.578,0,0,0,.816,0l1.7-1.695.91.907a.578.578,0,0,0,.711.083q.358-.221.742-.431c.376,2.2-.535,4.727-2.841,7.884a.578.578,0,0,0,.467.919.59.59,0,0,0,.139-.017C25.118,34.691,26.48,26.8,25.912,24.342a1.817,1.817,0,0,0-.129-.373,12.233,12.233,0,0,0,1.06-.927C33.013,16.892,37,9.866,37,5.145ZM9.283,17.661c-2.255-.475-4.734.186-7.677,2.06a11.223,11.223,0,0,1,6.153-6.808,10.056,10.056,0,0,1,3.866-.857,4.84,4.84,0,0,1,.609.034Zm4.382,10.446L8.8,23.26l1.29-1.284,4.2,4.187.662.659Zm10.346,1.13A11.223,11.223,0,0,1,17.168,35.4c1.877-2.931,2.54-5.4,2.064-7.648L24.825,24.8A9.2,9.2,0,0,1,24.011,29.238Zm-3.957-3.3c-1.017.49-1.985.955-2.874,1.471L9.5,19.756c.415-.71.8-1.481,1.186-2.278l2.348-4.433a12.6,12.6,0,0,1,1.666-2.1C22.538,3.133,31.749-.881,34.82,2.177a4.03,4.03,0,0,1,1.024,2.968c0,4.362-3.946,11.225-9.818,17.078A21.392,21.392,0,0,1,20.055,25.938Z" transform="translate(0 0)" fill="#fff"/>
      <path id="Path_8264" data-name="Path 8264" d="M41.979,12.114a3.463,3.463,0,0,0,0,4.912,3.5,3.5,0,0,0,4.926,0,3.464,3.464,0,0,0,0-4.912A3.5,3.5,0,0,0,41.979,12.114Zm4.111,4.093a2.34,2.34,0,0,1-3.3,0,2.307,2.307,0,0,1,0-3.273,2.341,2.341,0,0,1,3.3,0,2.308,2.308,0,0,1,0,3.273Z" transform="translate(-17.279 -4.683)" fill="#fff"/>
      <path id="Path_8265" data-name="Path 8265" d="M11.528,47.023a.578.578,0,0,0-.817,0L4.932,52.781a.578.578,0,1,0,.816.819l5.778-5.759A.578.578,0,0,0,11.528,47.023Z" transform="translate(-2.009 -19.766)" fill="#fff"/>
      <path id="Path_8266" data-name="Path 8266" d="M5.3,48.362a.578.578,0,0,0,.408-.169L9.516,44.4a.578.578,0,0,0-.816-.819L4.895,47.374a.578.578,0,0,0,.408.987Z" transform="translate(-1.993 -18.315)" fill="#fff"/>
      <path id="Path_8267" data-name="Path 8267" d="M15.6,50.46,11.8,54.253a.578.578,0,1,0,.816.819l3.805-3.793a.578.578,0,0,0-.816-.819Z" transform="translate(-4.905 -21.217)" fill="#fff"/>
    </g>
  </g>
</svg>
