<svg id="Rocket_1_" xmlns="http://www.w3.org/2000/svg" width="42.061" height="42.061" viewBox="0 0 42.061 42.061">
  <path id="Path_8263" data-name="Path 8263" d="M42.061,5.849a5.834,5.834,0,0,0-1.551-4.3C36.38-2.57,25.522,1.8,15.786,11.508a13.774,13.774,0,0,0-.988,1.114,2.279,2.279,0,0,0-.355-.111c-2.8-.655-11.8.873-14.423,11.34a.657.657,0,0,0,1.023.692c3.556-2.579,6.408-3.617,8.9-3.235-.172.312-.346.615-.526.906a.657.657,0,0,0,.094.812l1.031,1.028L8.61,25.976a.657.657,0,0,0,0,.931l6.46,6.438a.657.657,0,0,0,.928,0l1.933-1.927,1.034,1.031a.657.657,0,0,0,.809.094q.407-.251.844-.49c.428,2.5-.608,5.373-3.229,8.963a.657.657,0,0,0,.531,1.045.67.67,0,0,0,.159-.019C28.554,39.436,30.1,30.469,29.456,27.672a2.065,2.065,0,0,0-.147-.424,13.906,13.906,0,0,0,1.2-1.054C37.528,19.2,42.061,11.216,42.061,5.849ZM10.553,20.077c-2.564-.54-5.381.211-8.727,2.341A12.759,12.759,0,0,1,8.82,14.678a11.431,11.431,0,0,1,4.394-.974,5.5,5.5,0,0,1,.692.039Zm4.981,11.875-5.528-5.51,1.466-1.46,4.776,4.76.752.75ZM27.3,33.237a12.758,12.758,0,0,1-7.779,7c2.133-3.332,2.887-6.138,2.346-8.694L28.22,28.2A10.453,10.453,0,0,1,27.3,33.237Zm-4.5-3.751c-1.156.556-2.257,1.085-3.267,1.672l-8.729-8.7c.471-.807.907-1.684,1.349-2.589l2.669-5.039a14.319,14.319,0,0,1,1.894-2.391C25.621,3.561,36.092-1,39.582,2.475a4.581,4.581,0,0,1,1.164,3.374c0,4.959-4.486,12.761-11.161,19.414A24.318,24.318,0,0,1,22.8,29.485Z" transform="translate(0 0)" fill="#433f3f"/>
  <path id="Path_8264" data-name="Path 8264" d="M42.119,12.252a3.936,3.936,0,0,0,0,5.584,3.977,3.977,0,0,0,5.6,0,3.938,3.938,0,0,0,0-5.584A3.978,3.978,0,0,0,42.119,12.252ZM46.792,16.9a2.661,2.661,0,0,1-3.746,0,2.622,2.622,0,0,1,0-3.721,2.661,2.661,0,0,1,3.746,0,2.624,2.624,0,0,1,0,3.721Z" transform="translate(-14.04 -3.805)" fill="#433f3f"/>
  <path id="Path_8265" data-name="Path 8265" d="M12.453,47.046a.657.657,0,0,0-.929,0L4.955,53.592a.657.657,0,1,0,.928.931l6.569-6.547A.657.657,0,0,0,12.453,47.046Z" transform="translate(-1.632 -16.061)" fill="#433f3f"/>
  <path id="Path_8266" data-name="Path 8266" d="M5.382,49.039a.657.657,0,0,0,.464-.192l4.326-4.312a.657.657,0,0,0-.928-.931L4.918,47.916a.657.657,0,0,0,.464,1.122Z" transform="translate(-1.62 -14.882)" fill="#433f3f"/>
  <path id="Path_8267" data-name="Path 8267" d="M16.145,50.483,11.819,54.8a.657.657,0,1,0,.928.931l4.326-4.312a.657.657,0,0,0-.928-.931Z" transform="translate(-3.986 -17.24)" fill="#433f3f"/>
</svg>
