<svg xmlns="http://www.w3.org/2000/svg" xmlns:xlink="http://www.w3.org/1999/xlink" width="112.653" height="86.376" viewBox="0 0 112.653 86.376">
  <defs>
    <linearGradient id="linear-gradient" x1="0.5" x2="0.5" y2="1" gradientUnits="objectBoundingBox">
      <stop offset="0" stop-color="#01b3f9"/>
      <stop offset="1" stop-color="#015bea"/>
    </linearGradient>
  </defs>
  <g id="Group_10045" data-name="Group 10045" transform="translate(-1644.517 -759.699)">
    <path id="Path_12213" data-name="Path 12213" d="M2065.726,1087.2a1.823,1.823,0,0,0-1.847,2.483l6.969,23.151.674,2.244a3.719,3.719,0,0,0,3.343,2.483h5.709a1.825,1.825,0,0,0,1.848-2.483l-2.385-7.923-5.263-17.472a3.715,3.715,0,0,0-3.341-2.483Z" transform="translate(-346.991 -271.49)" fill="#0166eb"/>
    <path id="Path_12215" data-name="Path 12215" d="M1830.674,1087.2a3.711,3.711,0,0,0-3.341,2.483l-5.263,17.472-2.385,7.923a1.823,1.823,0,0,0,1.847,2.483h5.706a3.721,3.721,0,0,0,3.346-2.483l.674-2.244,6.969-23.151a1.823,1.823,0,0,0-1.847-2.483Z" transform="translate(-144.888 -271.49)" fill="#0166eb"/>
    <path id="Path_12232" data-name="Path 12232" d="M40.919,0A40.92,40.92,0,1,1,0,40.92,40.92,40.92,0,0,1,40.919,0Z" transform="translate(1664.194 759.699)" fill="#6bc7ff"/>
    <path id="Path_12217" data-name="Path 12217" d="M.071,1.144A41.941,41.941,0,0,0,15.417,19.074a.811.811,0,1,0,.886-1.359A40.308,40.308,0,0,1,1.552.479a.811.811,0,1,0-1.48.664Z" transform="translate(1664.729 809.176) rotate(11)" fill="#0170ee" fill-rule="evenodd"/>
    <path id="Path_12218" data-name="Path 12218" d="M.414,1.4A39.011,39.011,0,0,0,17.05,5.3,38.945,38.945,0,0,0,33.67,1.391.732.732,0,1,0,33.034.073,37.484,37.484,0,0,1,17.05,3.836,37.555,37.555,0,0,1,1.05.083.732.732,0,1,0,.414,1.4Z" transform="translate(1684.738 835.821) rotate(5)" fill="#0170ee" fill-rule="evenodd"/>
    <path id="Path_12220" data-name="Path 12220" d="M41.531,50.893a41.792,41.792,0,0,0,1.011-9.162A41.751,41.751,0,0,0,.811,0a.811.811,0,1,0,0,1.622A40.128,40.128,0,0,1,40.92,41.731a40.193,40.193,0,0,1-.972,8.806.811.811,0,1,0,1.582.355Z" transform="translate(1716.486 760.495) rotate(17)" fill="#0170ee" fill-rule="evenodd"/>
    <path id="Path_12221" data-name="Path 12221" d="M1777.873,780.324a41.755,41.755,0,0,0-23.9,37.735.811.811,0,1,0,1.622,0,40.134,40.134,0,0,1,22.974-36.27.811.811,0,1,0-.694-1.466Z" transform="translate(-90.588 -17.44)" fill="#0170ee" fill-rule="evenodd"/>
    <path id="Path_12222" data-name="Path 12222" d="M1802.032,839.023a33.447,33.447,0,1,0,33.447-33.447A33.463,33.463,0,0,0,1802.032,839.023Z" transform="translate(-130.365 -38.405)" fill="#fff" fill-rule="evenodd"/>
    <path id="Path_12223" data-name="Path 12223" d="M1845.388,874.909a25.974,25.974,0,1,0,25.974-25.973A25.986,25.986,0,0,0,1845.388,874.909Z" transform="translate(-166.248 -74.291)" fill-rule="evenodd" fill="url(#linear-gradient)"/>
    <path id="Path_12224" data-name="Path 12224" d="M1888.738,910.791a18.5,18.5,0,1,0,18.5-18.5A18.51,18.51,0,0,0,1888.738,910.791Z" transform="translate(-202.126 -110.173)" fill="#fff" fill-rule="evenodd"/>
    <path id="Path_12225" data-name="Path 12225" d="M1932.1,946.675a11.028,11.028,0,1,0,11.027-11.028A11.033,11.033,0,0,0,1932.1,946.675Z" transform="translate(-238.012 -146.056)" fill="#6bc7ff" fill-rule="evenodd"/>
    <path id="Path_12226" data-name="Path 12226" d="M1975.449,982.552A3.555,3.555,0,1,0,1979,979,3.557,3.557,0,0,0,1975.449,982.552Z" transform="translate(-273.89 -181.934)" fill="#fff" fill-rule="evenodd"/>
    <rect id="Rectangle_4061" data-name="Rectangle 4061" width="53.732" height="2.353" rx="1.177" transform="translate(1651.382 799.539)" fill="#0170ee"/>
    <path id="Path_12228" data-name="Path 12228" d="M1655.039,946.15c-.712,0-1.108.308-1.11.765v0a1.4,1.4,0,0,0,.324.8l4.92,6.568h16.178l-4.918-6.568a4.429,4.429,0,0,0-3.137-1.57Z" transform="translate(-7.79 -154.749)" fill="#6bc7ff"/>
    <path id="Path_12229" data-name="Path 12229" d="M1647.249,936.738c-1.915,0-2.727,1.153-2.732,2.382v.012a2.978,2.978,0,0,0,.647,1.771l4.92,6.569a1.623,1.623,0,0,0,1.3.65h16.178a1.622,1.622,0,0,0,1.3-2.595l-4.919-6.569a6.264,6.264,0,0,0-4.435-2.22Zm0,1.622c-.712,0-1.108.308-1.11.765v0a1.4,1.4,0,0,0,.323.8l4.92,6.569h16.178l-4.919-6.569a4.429,4.429,0,0,0-3.137-1.57Z" transform="translate(0 -146.959)" fill="#0170ee" fill-rule="evenodd"/>
    <path id="Path_12230" data-name="Path 12230" d="M1659.172,1007.016l-4.919,6.568a1.4,1.4,0,0,0-.324.8v0c0,.457.4.764,1.11.764h12.256a4.427,4.427,0,0,0,3.137-1.57l4.919-6.568Z" transform="translate(-7.79 -205.124)" fill="#6bc7ff"/>
    <path id="Path_12231" data-name="Path 12231" d="M1651.382,997.6a1.623,1.623,0,0,0-1.3.65l-4.92,6.569a2.975,2.975,0,0,0-.647,1.771v.012c.005,1.229.817,2.381,2.732,2.381H1659.5a6.264,6.264,0,0,0,4.435-2.219l4.919-6.569a1.622,1.622,0,0,0-1.3-2.595h-16.178Zm0,1.622-4.92,6.568a1.4,1.4,0,0,0-.324.8v0c0,.457.4.764,1.11.764H1659.5a4.427,4.427,0,0,0,3.137-1.57l4.919-6.568Z" transform="translate(0 -197.334)" fill="#0170ee" fill-rule="evenodd"/>
  </g>
</svg>
