<svg width="63" height="63" viewBox="0 0 63 63" fill="none" xmlns="http://www.w3.org/2000/svg">
<circle cx="31.5" cy="31.5" r="31" fill="#FFD178" stroke="#F1F1F1"/>
<path d="M31.5 42.1667H31.5158M25.1667 46H37.8333C38.6732 46 39.4786 45.6605 40.0725 45.0562C40.6664 44.4519 41 43.6324 41 42.7778V20.2222C41 19.3676 40.6664 18.5481 40.0725 17.9438C39.4786 17.3395 38.6732 17 37.8333 17H25.1667C24.3268 17 23.5214 17.3395 22.9275 17.9438C22.3336 18.5481 22 19.3676 22 20.2222V42.7778C22 43.6324 22.3336 44.4519 22.9275 45.0562C23.5214 45.6605 24.3268 46 25.1667 46Z" stroke="white" stroke-width="2" stroke-linecap="round" stroke-linejoin="round"/>
<line x1="22" y1="39" x2="41" y2="39" stroke="white" stroke-width="2"/>
</svg>
