<svg xmlns="http://www.w3.org/2000/svg" width="73" height="80.65" viewBox="0 0 73 80.65">
  <g id="Group_10824" data-name="Group 10824" transform="translate(-2353 -2450.35)">
    <g id="Group_9741" data-name="Group 9741" transform="translate(1472 546)">
      <circle id="Ellipse_2585" data-name="Ellipse 2585" cx="36.5" cy="36.5" r="36.5" transform="translate(881 1912)" fill="#fff"/>
    </g>
    <g id="Group_10817" data-name="Group 10817" transform="translate(-3 -27)">
      <g id="Group_9850" data-name="Group 9850" transform="translate(2375 2478)">
        <path id="Path_149" data-name="Path 149" d="M306.717,4869.151v10.956a3.131,3.131,0,0,1-3.13,3.131H292.63a3.131,3.131,0,0,1-3.13-3.131V4856.63a3.131,3.131,0,0,1,3.13-3.13h4.7" transform="translate(-289.5 -4847.239)" fill="none" stroke="#707070" stroke-linecap="round" stroke-linejoin="round" stroke-width="1.3"/>
        <line id="Line_119" data-name="Line 119" x1="7.968" transform="translate(0 11.951)" fill="none" stroke="#707070" stroke-linecap="round" stroke-linejoin="round" stroke-width="1.3"/>
        <line id="Line_120" data-name="Line 120" x1="16.932" transform="translate(0 29.879)" fill="none" stroke="#707070" stroke-linecap="round" stroke-linejoin="round" stroke-width="1.3"/>
        <line id="Line_121" data-name="Line 121" x2="0.996" transform="translate(6.972 8.963)" fill="none" stroke="#707070" stroke-linecap="round" stroke-linejoin="round" stroke-width="1.3"/>
        <path id="Path_150" data-name="Path 150" d="M320.978,4861.239a2.349,2.349,0,0,1-2.348,2.348h-8.608l-4.7,4.7v-4.7h-5.478a2.349,2.349,0,0,1-2.348-2.348v-9.391a2.348,2.348,0,0,1,2.348-2.347H318.63a2.348,2.348,0,0,1,2.348,2.347Z" transform="translate(-284.979 -4849.5)" fill="none" stroke="#707070" stroke-linecap="round" stroke-linejoin="round" stroke-width="1.3"/>
        <path id="Path_154" data-name="Path 154" d="M296.065,4870.782a.783.783,0,0,1-.783.783h0a.783.783,0,0,1-.783-.783h0a.783.783,0,0,1,.783-.782h0a.783.783,0,0,1,.783.782Z" transform="translate(-286.674 -4837.914)" fill="#fff" stroke="#707070" stroke-linejoin="round" stroke-width="1"/>
      </g>
      <g id="Group_2919" data-name="Group 2919" transform="translate(2395.417 2481.984)">
        <path id="Path_3656" data-name="Path 3656" d="M406.149,3940.5l-6.112,5.433L398,3943.9" transform="translate(-398 -3940.5)" fill="none" stroke="#707070" stroke-linecap="round" stroke-linejoin="round" stroke-width="1.3"/>
      </g>
    </g>
  </g>
</svg>
