<svg xmlns="http://www.w3.org/2000/svg" width="73" height="80.65" viewBox="0 0 73 80.65">
  <g id="Group_10820" data-name="Group 10820" transform="translate(-1933 -2450.35)">
    <g id="Group_9754" data-name="Group 9754" transform="translate(1602 555)">
      <circle id="Ellipse_2584" data-name="Ellipse 2584" cx="36.5" cy="36.5" r="36.5" transform="translate(331 1903)" fill="#fff"/>
    </g>
    <g id="Group_10811" data-name="Group 10811" transform="translate(0 -24.595)">
      <g id="Group_9849" data-name="Group 9849" transform="translate(1956 2480.219)">
        <g id="Group_3235" data-name="Group 3235">
          <g id="Group_3234" data-name="Group 3234" transform="translate(0)">
            <path id="Path_4154" data-name="Path 4154" d="M213.665,4966.014v11.559a3.3,3.3,0,0,1-3.3,3.3H198.8a3.3,3.3,0,0,1-3.3-3.3V4952.8a3.3,3.3,0,0,1,3.3-3.3h4.954" transform="translate(-195.5 -4949.5)" fill="none" stroke="#707070" stroke-linecap="round" stroke-linejoin="round" stroke-width="1.3"/>
            <line id="Line_2689" data-name="Line 2689" x1="8.466" transform="translate(0 7.044)" fill="none" stroke="#707070" stroke-linecap="round" stroke-linejoin="round" stroke-width="1.3"/>
            <line id="Line_2690" data-name="Line 2690" x1="17.873" transform="translate(0 24.917)" fill="none" stroke="#707070" stroke-linecap="round" stroke-linejoin="round" stroke-width="1.3"/>
            <line id="Line_2691" data-name="Line 2691" x2="1.881" transform="translate(6.585 3.282)" fill="none" stroke="#707070" stroke-linecap="round" stroke-linejoin="round" stroke-width="1.3"/>
            <path id="Path_4155" data-name="Path 4155" d="M202.151,4966.826a.827.827,0,0,1-.826.826h0a.827.827,0,0,1-.826-.826h0a.825.825,0,0,1,.826-.826h0a.825.825,0,0,1,.826.826Z" transform="translate(-192.243 -4938.753)" fill="#fff" stroke="#707070" stroke-linejoin="round" stroke-width="1.3"/>
          </g>
        </g>
      </g>
      <g id="Group_2040" data-name="Group 2040" transform="translate(1968.706 2475.595)">
        <path id="Path_2650" data-name="Path 2650" d="M115.083,5342.8v-5.754c0-.577-.235-1.045-.808-1.045h-1.561c-.573,0-.864.469-.864,1.045v9.937L110,5344.765a1.117,1.117,0,0,0-.859-.4l-1.077.019a1.052,1.052,0,0,0-.928,1.549l4.027,7.3a1.033,1.033,0,0,0,.91.544h6.883a1.039,1.039,0,0,0,.96-.647l1.638-7.2a1.022,1.022,0,0,0-.636-1.045Z" transform="translate(-107.007 -5336)" fill="none" stroke="#707070" stroke-linejoin="round" stroke-width="1.3"/>
      </g>
    </g>
  </g>
</svg>
