<svg xmlns="http://www.w3.org/2000/svg" width="73" height="80.65" viewBox="0 0 73 80.65">
  <g id="Group_10819" data-name="Group 10819" transform="translate(-1828 -2450.35)">
    <path id="Path_35724" data-name="Path 35724" d="M36.5,0A36.5,36.5,0,1,1,0,36.5,36.5,36.5,0,0,1,36.5,0Z" transform="translate(1828 2458)" fill="#fff"/>
    <g id="Group_3267" data-name="Group 3267" transform="translate(1460.5 -2496.5)">
      <g id="Group_3264" data-name="Group 3264" transform="translate(403.214 4947.5)">
        <g id="Group_3262" data-name="Group 3262">
          <path id="Path_4190" data-name="Path 4190" d="M408.286,4948v4.286H404" transform="translate(-392.857 -4947.143)" fill="none" stroke="#707070" stroke-linecap="round" stroke-linejoin="round" stroke-width="1.3"/>
          <path id="Path_4191" data-name="Path 4191" d="M397.5,4952.642a8.357,8.357,0,0,1,15.428,0" transform="translate(-397.5 -4947.5)" fill="none" stroke="#707070" stroke-linecap="round" stroke-linejoin="round" stroke-width="1.3"/>
        </g>
        <g id="Group_3263" data-name="Group 3263" transform="translate(0 10.286)">
          <path id="Path_4192" data-name="Path 4192" d="M397.5,4957.786V4953.5h4.286" transform="translate(-397.5 -4953.5)" fill="none" stroke="#707070" stroke-linecap="round" stroke-linejoin="round" stroke-width="1.3"/>
          <path id="Path_4193" data-name="Path 4193" d="M412.928,4953.5a8.357,8.357,0,0,1-15.428,0" transform="translate(-397.5 -4953.5)" fill="none" stroke="#707070" stroke-linecap="round" stroke-linejoin="round" stroke-width="1.3"/>
        </g>
      </g>
      <g id="Group_3266" data-name="Group 3266" transform="translate(389.5 4950.929)">
        <g id="Group_3265" data-name="Group 3265">
          <path id="Path_4194" data-name="Path 4194" d="M408.357,4966.642v12a3.43,3.43,0,0,1-3.429,3.428h-12a3.43,3.43,0,0,1-3.429-3.428v-25.714a3.428,3.428,0,0,1,3.429-3.428h5.143" transform="translate(-389.5 -4949.5)" fill="none" stroke="#707070" stroke-linecap="round" stroke-linejoin="round" stroke-width="1.3"/>
          <line id="Line_2733" data-name="Line 2733" x1="8.824" transform="translate(0.405 6.876)" fill="none" stroke="#707070" stroke-linecap="round" stroke-linejoin="round" stroke-width="1.3"/>
          <path id="Path_12122" data-name="Path 12122" d="M18.31,0H0" transform="translate(0.405 25.505)" fill="none" stroke="#707070" stroke-linecap="round" stroke-width="1.3"/>
          <line id="Line_2735" data-name="Line 2735" x2="1.961" transform="translate(7.269 3.935)" fill="none" stroke="#707070" stroke-linecap="round" stroke-linejoin="round" stroke-width="1.3"/>
          <path id="Path_4195" data-name="Path 4195" d="M396.214,4966.858a.858.858,0,0,1-.857.856h0a.858.858,0,0,1-.857-.856h0a.857.857,0,0,1,.857-.858h0a.857.857,0,0,1,.857.858Z" transform="translate(-385.929 -4937.714)" fill="#fff" stroke="#707070" stroke-linejoin="round" stroke-width="1.3"/>
        </g>
      </g>
    </g>
  </g>
</svg>
