<svg xmlns="http://www.w3.org/2000/svg" width="73" height="80.65" viewBox="0 0 73 80.65">
  <g id="Group_10823" data-name="Group 10823" transform="translate(-2248 -2450.35)">
    <g id="Group_9745" data-name="Group 9745" transform="translate(1367 546)">
      <circle id="Ellipse_2585" data-name="Ellipse 2585" cx="36.5" cy="36.5" r="36.5" transform="translate(881 1912)" fill="#fff"/>
    </g>
    <g id="Group_10816" data-name="Group 10816" transform="translate(-3 -26)">
      <line id="Line_119" data-name="Line 119" x1="7.968" transform="translate(2270 2488.952)" fill="none" stroke="#707070" stroke-linecap="round" stroke-linejoin="round" stroke-width="1.3"/>
      <g id="Group_10815" data-name="Group 10815" transform="translate(2270 2477)">
        <line id="Line_120" data-name="Line 120" x1="16.932" transform="translate(0 29.879)" fill="none" stroke="#707070" stroke-linecap="round" stroke-linejoin="round" stroke-width="1.3"/>
        <g id="Group_10814" data-name="Group 10814">
          <path id="Path_149" data-name="Path 149" d="M306.717,4869.151v10.957a3.131,3.131,0,0,1-3.13,3.13H292.63a3.131,3.131,0,0,1-3.13-3.13V4856.63a3.131,3.131,0,0,1,3.13-3.13h4.7" transform="translate(-289.5 -4847.239)" fill="none" stroke="#707070" stroke-linecap="round" stroke-linejoin="round" stroke-width="1.3"/>
          <line id="Line_121" data-name="Line 121" x2="0.996" transform="translate(6.972 8.963)" fill="none" stroke="#707070" stroke-linecap="round" stroke-linejoin="round" stroke-width="1.3"/>
          <path id="Path_150" data-name="Path 150" d="M320.978,4861.239a2.349,2.349,0,0,1-2.348,2.348h-8.609l-4.7,4.7v-4.7h-5.478a2.349,2.349,0,0,1-2.348-2.348v-9.392a2.349,2.349,0,0,1,2.348-2.348H318.63a2.349,2.349,0,0,1,2.348,2.348Z" transform="translate(-284.978 -4849.5)" fill="none" stroke="#707070" stroke-linecap="round" stroke-linejoin="round" stroke-width="1.3"/>
          <g id="Group_85" data-name="Group 85" transform="translate(24.261 5.478)">
            <g id="Group_84" data-name="Group 84">
              <g id="Path_151" data-name="Path 151" transform="translate(-305 -4853)" fill="none" stroke-miterlimit="10">
                <path d="M305.783,4853a.782.782,0,1,0,.783.782.784.784,0,0,0-.783-.782Z" stroke="none"/>
                <path d="M 305.7825927734375 4853 C 306.214599609375 4853 306.5651550292969 4853.35205078125 306.5651550292969 4853.78173828125 C 306.5651550292969 4854.21435546875 306.214599609375 4854.56494140625 305.7825927734375 4854.56494140625 C 305.3505859375 4854.56494140625 304.9999694824219 4854.21435546875 304.9999694824219 4853.78173828125 C 304.9999694824219 4853.35205078125 305.3505859375 4853 305.7825927734375 4853 Z" stroke="none" fill="#707070"/>
              </g>
            </g>
          </g>
          <g id="Group_87" data-name="Group 87" transform="translate(28.956 5.478)">
            <g id="Group_86" data-name="Group 86">
              <g id="Path_152" data-name="Path 152" transform="translate(-308 -4853)" fill="none" stroke-miterlimit="10">
                <path d="M308.783,4853a.782.782,0,1,0,.783.782.784.784,0,0,0-.783-.782Z" stroke="none"/>
                <path d="M 308.7825927734375 4853 C 309.2145690917969 4853 309.5651550292969 4853.35205078125 309.5651550292969 4853.78173828125 C 309.5651550292969 4854.21435546875 309.2145690917969 4854.56494140625 308.7825927734375 4854.56494140625 C 308.3505554199219 4854.56494140625 307.9999694824219 4854.21435546875 307.9999694824219 4853.78173828125 C 307.9999694824219 4853.35205078125 308.3505554199219 4853 308.7825927734375 4853 Z" stroke="none" fill="#707070"/>
              </g>
            </g>
          </g>
          <g id="Group_89" data-name="Group 89" transform="translate(19.613 5.478)">
            <g id="Group_88" data-name="Group 88">
              <g id="Path_153" data-name="Path 153" transform="translate(-302.031 -4853)" fill="none" stroke-miterlimit="10">
                <path d="M302.814,4853a.782.782,0,1,0,.783.782.784.784,0,0,0-.783-.782Z" stroke="none"/>
                <path d="M 302.8135986328125 4853 C 303.2471923828125 4853 303.5962219238281 4853.35205078125 303.5962219238281 4853.78173828125 C 303.5962219238281 4854.21435546875 303.2471923828125 4854.56494140625 302.8135986328125 4854.56494140625 C 302.381591796875 4854.56494140625 302.0309753417969 4854.21435546875 302.0309753417969 4853.78173828125 C 302.0309753417969 4853.35205078125 302.381591796875 4853 302.8135986328125 4853 Z" stroke="none" fill="#707070"/>
              </g>
            </g>
          </g>
        </g>
      </g>
    </g>
  </g>
</svg>
