<svg width="18" height="17" viewBox="0 0 18 17" fill="none" xmlns="http://www.w3.org/2000/svg">
<path d="M14.7797 11.8818V8.13578C14.7784 6.95519 14.412 5.80319 13.7297 4.83428C13.0473 3.86537 12.0816 3.12588 10.962 2.7149C10.8832 2.23621 10.6347 1.80081 10.2609 1.48663C9.88718 1.17246 9.41257 1 8.92196 1C8.43136 1 7.95674 1.17246 7.58299 1.48663C7.20924 1.80081 6.96072 2.23621 6.88187 2.7149C5.76244 3.12575 4.79695 3.86528 4.11503 4.83428C3.4331 5.80328 3.06738 6.95536 3.06696 8.13578V11.8818C3.06696 12.4238 2.84919 12.9435 2.46156 13.3267C2.07393 13.7099 1.54819 13.9252 1 13.9252H16.8467C16.2985 13.9252 15.7727 13.7099 15.3851 13.3267C14.9975 12.9435 14.7797 12.4238 14.7797 11.8818Z" stroke="#FE993B" stroke-width="1.5" stroke-linecap="round" stroke-linejoin="round"/>
<path d="M10.9894 13.9255C10.9894 14.4675 10.7716 14.9872 10.384 15.3704C9.99636 15.7536 9.47062 15.9688 8.92243 15.9688C8.37424 15.9688 7.8485 15.7536 7.46087 15.3704C7.07324 14.9872 6.85547 14.4675 6.85547 13.9255" stroke="#FE993B" stroke-width="1.5" stroke-linecap="round" stroke-linejoin="round"/>
</svg>
