<svg xmlns="http://www.w3.org/2000/svg" width="73" height="77.65" viewBox="0 0 73 77.65">
  <g id="Group_10832" data-name="Group 10832" transform="translate(-3088 -2450.35)">
    <circle id="Ellipse_2585" data-name="Ellipse 2585" cx="36.5" cy="36.5" r="36.5" transform="translate(3088 2455)" fill="#fff"/>
    <g id="Group_10776" data-name="Group 10776" transform="translate(2341.307 -1132.336)">
      <g id="Group_2375" data-name="Group 2375" transform="translate(773.142 3583.336)">
        <path id="Path_3033" data-name="Path 3033" d="M710.349,1782.3h23.923l-5.885,6.9,5.885,6.807a223.515,223.515,0,0,0-23.927-.5Z" transform="translate(-709.88 -1782.3)" fill="none" stroke="#707070" stroke-linecap="round" stroke-linejoin="round" stroke-width="1.3"/>
        <path id="Path_12115" data-name="Path 12115" d="M-.2,1.184l-.472,20.67" transform="translate(0.669 11.813)" fill="none" stroke="#707070" stroke-linecap="round" stroke-width="1.3"/>
      </g>
      <path id="Path_12116" data-name="Path 12116" d="M1.193-.289a6.28,6.28,0,0,1,3.14-.633,6.719,6.719,0,0,1,3.2.633" transform="translate(768.5 3619.624)" fill="none" stroke="#707070" stroke-linecap="round" stroke-width="1"/>
      <path id="Path_12117" data-name="Path 12117" d="M1.193-.254H15.05" transform="translate(775.147 3593)" fill="none" stroke="#707070" stroke-linecap="round" stroke-width="1"/>
      <path id="Path_12118" data-name="Path 12118" d="M1.193-.254H15.05" transform="translate(775.147 3587.303)" fill="none" stroke="#707070" stroke-linecap="round" stroke-width="1"/>
      <path id="Path_12119" data-name="Path 12119" d="M1.193-.254H11.384" transform="translate(775.147 3590.152)" fill="none" stroke="#707070" stroke-linecap="round" stroke-width="1"/>
    </g>
  </g>
</svg>
