<svg xmlns="http://www.w3.org/2000/svg" width="73" height="77.65" viewBox="0 0 73 77.65">
  <g id="Group_10830" data-name="Group 10830" transform="translate(-2878 -2450.35)">
    <circle id="Ellipse_2585" data-name="Ellipse 2585" cx="36.5" cy="36.5" r="36.5" transform="translate(2878 2455)" fill="#fff"/>
    <g id="Group_10795" data-name="Group 10795" transform="translate(1862.731 1104.998)">
      <rect id="Rectangle_66" data-name="Rectangle 66" width="36.538" height="6.448" transform="translate(1033.5 1356.209)" fill="none" stroke="#707070" stroke-linejoin="round" stroke-width="1.3"/>
      <rect id="Rectangle_67" data-name="Rectangle 67" width="34.389" height="19.343" transform="translate(1034.575 1362.657)" fill="none" stroke="#707070" stroke-linejoin="round" stroke-width="1.3"/>
      <line id="Line_404" data-name="Line 404" y2="25.792" transform="translate(1046.396 1356.209)" fill="none" stroke="#707070" stroke-linejoin="round" stroke-width="1.3"/>
      <line id="Line_405" data-name="Line 405" y1="25.792" transform="translate(1057.142 1356.209)" fill="none" stroke="#707070" stroke-linejoin="round" stroke-width="1.3"/>
      <path id="Path_729" data-name="Path 729" d="M1054.115,1352.882c-1.573,1.575-9.118,3.418-9.118,3.418s1.845-7.545,3.418-9.118a4.03,4.03,0,0,1,5.7,5.7Z" transform="translate(7.035)" fill="none" stroke="#707070" stroke-linecap="round" stroke-linejoin="round" stroke-width="1.3"/>
      <path id="Path_730" data-name="Path 730" d="M1039.791,1352.882c1.573,1.575,9.118,3.418,9.118,3.418s-1.847-7.545-3.419-9.118a4.03,4.03,0,1,0-5.7,5.7Z" transform="translate(3.126)" fill="none" stroke="#707070" stroke-linecap="round" stroke-linejoin="round" stroke-width="1.3"/>
    </g>
  </g>
</svg>
