<svg xmlns="http://www.w3.org/2000/svg" xmlns:xlink="http://www.w3.org/1999/xlink" width="106" height="106" viewBox="0 0 106 106">
  <defs>
    <filter id="Ellipse_2584" x="0" y="0" width="106" height="106" filterUnits="userSpaceOnUse">
      <feOffset input="SourceAlpha"/>
      <feGaussianBlur stdDeviation="5.5" result="blur"/>
      <feFlood flood-opacity="0.11"/>
      <feComposite operator="in" in2="blur"/>
      <feComposite in="SourceGraphic"/>
    </filter>
  </defs>
  <g id="offersManagement_featured" transform="translate(-314.5 -1886.5)">
    <g transform="matrix(1, 0, 0, 1, 314.5, 1886.5)" filter="url(#Ellipse_2584)">
      <circle id="Ellipse_2584-2" data-name="Ellipse 2584" cx="36.5" cy="36.5" r="36.5" transform="translate(16.5 16.5)" fill="#007ee1"/>
    </g>
    <g id="Group_9645" data-name="Group 9645" transform="translate(-129.487 1681.732)">
      <line id="Line_3858" data-name="Line 3858" y1="30.873" x2="30.874" transform="translate(481.484 242.009)" fill="none" stroke="#fff" stroke-linecap="round" stroke-linejoin="round" stroke-width="1.3"/>
      <path id="Path_5237" data-name="Path 5237" d="M510.721,242.018s-2.788,12.442-9.22,18.876-11.684,6.806-14.074,4.417-2.366-8.626,4.066-15.057a16.312,16.312,0,0,1,4.815-3.456v4.118s2.734-2.721,2.734-5.466A52.3,52.3,0,0,1,510.721,242.018Z" transform="translate(1.67 0.003)" fill="none" stroke="#fff" stroke-linecap="round" stroke-linejoin="round" stroke-width="1.3"/>
      <line id="Line_3859" data-name="Line 3859" x1="2.912" y1="2.912" transform="translate(499.263 258.982)" fill="none" stroke="#fff" stroke-linecap="round" stroke-linejoin="round" stroke-width="1.3"/>
      <line id="Line_3860" data-name="Line 3860" x1="2.912" y1="2.912" transform="translate(501.204 257.04)" fill="none" stroke="#fff" stroke-linecap="round" stroke-linejoin="round" stroke-width="1.3"/>
    </g>
  </g>
</svg>
