<svg xmlns="http://www.w3.org/2000/svg" width="73" height="77.65" viewBox="0 0 73 77.65">
  <g id="Group_10831" data-name="Group 10831" transform="translate(-2983 -2450.35)">
    <circle id="Ellipse_2585" data-name="Ellipse 2585" cx="36.5" cy="36.5" r="36.5" transform="translate(2983 2455)" fill="#fff"/>
    <g id="Group_10796" data-name="Group 10796" transform="translate(1966.286 1919.5)">
      <g id="Group_5761" data-name="Group 5761" transform="translate(1055.785 553.785)">
        <rect id="Rectangle_1587" data-name="Rectangle 1587" width="17.142" height="13.714" fill="none" stroke="#707070" stroke-linecap="round" stroke-linejoin="round" stroke-width="1.3"/>
        <line id="Line_5942" data-name="Line 5942" y2="13.714" transform="translate(8.571)" fill="none" stroke="#707070" stroke-linecap="round" stroke-linejoin="round" stroke-width="1.3"/>
        <line id="Line_5943" data-name="Line 5943" x2="17.142" transform="translate(0 6.857)" fill="none" stroke="#707070" stroke-linecap="round" stroke-linejoin="round" stroke-width="1.3"/>
      </g>
      <g id="Group_5762" data-name="Group 5762" transform="translate(1033.5 531.5)">
        <rect id="Rectangle_1588" data-name="Rectangle 1588" width="22.285" height="23.999" transform="translate(0 11.999)" fill="none" stroke="#707070" stroke-linecap="round" stroke-linejoin="round" stroke-width="1.3"/>
        <path id="Path_8044" data-name="Path 8044" d="M1036.5,548.748v-12.6c0-2.568,2.685-4.644,6-4.644s6,2.079,6,4.644v12.6" transform="translate(-1031.357 -531.5)" fill="none" stroke="#707070" stroke-linecap="round" stroke-linejoin="round" stroke-width="1.3"/>
      </g>
      <g id="Group_5763" data-name="Group 5763" transform="translate(1059.213 535.781)">
        <rect id="Rectangle_1589" data-name="Rectangle 1589" width="11.999" height="11.999" transform="translate(0 6.003)" fill="none" stroke="#707070" stroke-linecap="round" stroke-linejoin="round" stroke-width="1.3"/>
        <path id="Path_8045" data-name="Path 8045" d="M1050.5,543.428v-6.861a2.571,2.571,0,1,1,5.143,0v6.857" transform="translate(-1047.071 -533.995)" fill="none" stroke="#707070" stroke-linecap="round" stroke-linejoin="round" stroke-width="1.3"/>
      </g>
    </g>
  </g>
</svg>
