<svg xmlns="http://www.w3.org/2000/svg" width="73" height="77.65" viewBox="0 0 73 77.65">
  <g id="Group_10833" data-name="Group 10833" transform="translate(-3193 -2450.35)">
    <circle id="Ellipse_2585" data-name="Ellipse 2585" cx="36.5" cy="36.5" r="36.5" transform="translate(3193 2455)" fill="#fff"/>
    <g id="Group_10798" data-name="Group 10798" transform="translate(2968.494 1056)">
      <path id="Path_3902" data-name="Path 3902" d="M264.826,1399.06l-5.609,5.967-4.006-3.889" transform="translate(10.969 3.245)" fill="none" stroke="#707070" stroke-linecap="round" stroke-linejoin="round" stroke-width="1.3"/>
      <circle id="Ellipse_1018" data-name="Ellipse 1018" cx="9.212" cy="9.212" r="9.212" transform="translate(261.3 1395)" fill="none" stroke="#707070" stroke-linejoin="round" stroke-width="1.3"/>
      <path id="Path_3903" data-name="Path 3903" d="M257.782,1397.917c-3.685-.246-5.478,2.106-5.478,4.592a11.694,11.694,0,0,0-7.2,10.8v8.1a3.6,3.6,0,0,1-3.6,3.6h30.6a3.6,3.6,0,0,1-3.6-3.6v-6.031" transform="translate(0 2.393)" fill="none" stroke="#707070" stroke-linecap="round" stroke-linejoin="round" stroke-width="1.3"/>
      <path id="Path_3904" data-name="Path 3904" d="M255.2,1413a3.6,3.6,0,1,1-7.2,0" transform="translate(5.201 14.399)" fill="none" stroke="#707070" stroke-linecap="round" stroke-linejoin="round" stroke-width="1.3"/>
    </g>
  </g>
</svg>
