<svg xmlns="http://www.w3.org/2000/svg" width="33.871" height="43.4" viewBox="0 0 33.871 43.4">
  <g id="Group_10776" data-name="Group 10776" transform="translate(-769.004 -3582.683)">
    <g id="Group_2375" data-name="Group 2375" transform="translate(773.723 3583.333)">
      <path id="Path_3033" data-name="Path 3033" d="M710.35,1782.3H738.3l-6.876,8.059,6.876,7.953a261.189,261.189,0,0,0-27.955-.589Z" transform="translate(-709.802 -1782.297)" fill="none" stroke="#707070" stroke-linecap="round" stroke-linejoin="round" stroke-width="1.3"/>
      <path id="Path_12115" data-name="Path 12115" d="M-.117,1.184-.669,25.333" transform="translate(0.669 14.004)" fill="none" stroke="#707070" stroke-linecap="round" stroke-width="1.3"/>
    </g>
    <path id="Path_12116" data-name="Path 12116" d="M1.193-.181a7.337,7.337,0,0,1,3.668-.74A7.85,7.85,0,0,1,8.6-.181" transform="translate(768.5 3625.575)" fill="none" stroke="#707070" stroke-linecap="round" stroke-width="1"/>
    <path id="Path_12117" data-name="Path 12117" d="M1.193-.254h16.19" transform="translate(776.266 3594.584)" fill="none" stroke="#707070" stroke-linecap="round" stroke-width="1"/>
    <path id="Path_12118" data-name="Path 12118" d="M1.193-.254h16.19" transform="translate(776.266 3587.928)" fill="none" stroke="#707070" stroke-linecap="round" stroke-width="1"/>
    <path id="Path_12119" data-name="Path 12119" d="M1.193-.254H13.1" transform="translate(776.266 3591.256)" fill="none" stroke="#707070" stroke-linecap="round" stroke-width="1"/>
  </g>
</svg>
