<svg xmlns="http://www.w3.org/2000/svg" width="41.437" height="43.36" viewBox="0 0 41.437 43.36">
  <g id="Group_10792" data-name="Group 10792" transform="translate(-744.85 -2544.85)">
    <line id="Line_1707" data-name="Line 1707" x2="40.137" transform="translate(745.5 2587.56)" fill="none" stroke="#707070" stroke-linecap="round" stroke-linejoin="round" stroke-width="1.3"/>
    <line id="Line_1708" data-name="Line 1708" y1="9.144" transform="translate(765.578 2578.417)" fill="none" stroke="#707070" stroke-linecap="round" stroke-linejoin="round" stroke-width="1.3"/>
    <g id="Group_2004" data-name="Group 2004" transform="translate(749.119 2545.5)">
      <path id="Path_2591" data-name="Path 2591" d="M780.4,2561.9a16.511,16.511,0,0,1-16.5,16.519,16.69,16.69,0,0,1-16.413-16.817,16.094,16.094,0,0,1,15.753-16.083c.236-.01.475-.017.713-.017A16.363,16.363,0,0,1,780.4,2561.9Z" transform="translate(-747.479 -2545.5)" fill="none" stroke="#707070" stroke-linejoin="round" stroke-width="1.3"/>
      <path id="Path_2592" data-name="Path 2592" d="M759.01,2545.509c-8.586,9.3-8.586,21.436,0,32.887" transform="translate(-743.26 -2545.492)" fill="none" stroke="#707070" stroke-linejoin="round" stroke-width="1.3"/>
      <path id="Path_2593" data-name="Path 2593" d="M756.875,2545.509c8.586,9.3,8.586,21.432,0,32.882" transform="translate(-739.693 -2545.492)" fill="none" stroke="#707070" stroke-linejoin="round" stroke-width="1.3"/>
      <line id="Line_1709" data-name="Line 1709" x2="29.35" transform="translate(1.833 23.773)" fill="none" stroke="#707070" stroke-linejoin="round" stroke-width="1.3"/>
      <line id="Line_1710" data-name="Line 1710" x2="27.431" transform="translate(2.744 7.315)" fill="none" stroke="#707070" stroke-linejoin="round" stroke-width="1.3"/>
      <line id="Line_1711" data-name="Line 1711" x2="32.917" transform="translate(0.001 16.458)" fill="none" stroke="#707070" stroke-linejoin="round" stroke-width="1.3"/>
    </g>
  </g>
</svg>
