<svg xmlns="http://www.w3.org/2000/svg" width="45.959" height="43.36" viewBox="0 0 45.959 43.36">
  <g id="Group_10798" data-name="Group 10798" transform="translate(-240.85 -1394.35)">
    <path id="Path_3902" data-name="Path 3902" d="M266.445,1399.057l-6.553,6.972-4.68-4.544" transform="translate(15.124 4.475)" fill="none" stroke="#707070" stroke-linecap="round" stroke-linejoin="round" stroke-width="1.3"/>
    <circle id="Ellipse_1018" data-name="Ellipse 1018" cx="10.763" cy="10.763" r="10.763" transform="translate(264.633 1395)" fill="none" stroke="#707070" stroke-linejoin="round" stroke-width="1.3"/>
    <path id="Path_3903" data-name="Path 3903" d="M260.523,1397.917c-4.305-.287-6.4,2.461-6.4,5.365a13.663,13.663,0,0,0-8.412,12.618v9.464a4.207,4.207,0,0,1-4.206,4.206h35.751a4.206,4.206,0,0,1-4.206-4.206v-7.047" transform="translate(0 3.284)" fill="none" stroke="#707070" stroke-linecap="round" stroke-linejoin="round" stroke-width="1.3"/>
    <path id="Path_3904" data-name="Path 3904" d="M256.412,1413a4.206,4.206,0,1,1-8.412,0" transform="translate(7.17 19.854)" fill="none" stroke="#707070" stroke-linecap="round" stroke-linejoin="round" stroke-width="1.3"/>
  </g>
</svg>
