<svg width="63" height="63" viewBox="0 0 63 63" fill="none" xmlns="http://www.w3.org/2000/svg">
<circle cx="31.5" cy="31.5" r="31" fill="#01B0F9" stroke="#F1F1F1"/>
<path d="M29.5 45H40C40.7956 45 41.5587 44.6839 42.1213 44.1213C42.6839 43.5587 43 42.7956 43 42V27.621C42.9999 27.2232 42.8418 26.8417 42.5605 26.5605L34.4395 18.4395C34.1583 18.1582 33.7768 18.0001 33.379 18H25C24.2044 18 23.4413 18.3161 22.8787 18.8787C22.3161 19.4413 22 20.2044 22 21V37.5M22 45L29.3185 37.6815M29.3185 37.6815C29.7351 38.105 30.2313 38.4418 30.7787 38.6726C31.3261 38.9033 31.9138 39.0234 32.5078 39.0259C33.1018 39.0284 33.6905 38.9132 34.2398 38.6871C34.7891 38.4609 35.2882 38.1283 35.7083 37.7083C36.1284 37.2883 36.4611 36.7893 36.6874 36.24C36.9137 35.6908 37.029 35.1021 37.0266 34.5081C37.0243 33.9141 36.9043 33.3264 36.6737 32.779C36.4431 32.2315 36.1064 31.7352 35.683 31.3185C34.8369 30.4858 33.696 30.0213 32.5089 30.0259C31.3217 30.0306 30.1846 30.5042 29.3451 31.3436C28.5055 32.1829 28.0317 33.3199 28.0267 34.5071C28.0217 35.6942 28.486 36.8352 29.3185 37.6815Z" stroke="white" stroke-width="2" stroke-linecap="round" stroke-linejoin="round"/>
</svg>
