<svg width="115" height="116" viewBox="0 0 115 116" fill="none" xmlns="http://www.w3.org/2000/svg">
<path d="M57.565 113.13C88.2527 113.13 113.13 88.2527 113.13 57.565C113.13 26.8773 88.2527 2 57.565 2C26.8773 2 2 26.8773 2 57.565C2 88.2527 26.8773 113.13 57.565 113.13Z" fill="#E4EDFF"/>
<path d="M57.5 115.999C46.1276 115.999 35.0106 112.597 25.5548 106.224C16.099 99.8514 8.72911 90.7932 4.37705 80.1952C0.0249798 69.5972 -1.11377 57.9355 1.1048 46.6848C3.32337 35.434 8.79964 25.0995 16.8411 16.988C24.8825 8.87663 35.1279 3.35263 46.2817 1.11459C57.4356 -1.12344 68.9969 0.0249952 79.5036 4.41469C90.0104 8.80438 98.9907 16.2382 105.309 25.776C111.627 35.3138 115 46.5273 115 57.9985C114.983 73.3757 108.919 88.1181 98.1397 98.9915C87.3601 109.865 72.7448 115.981 57.5 115.999V115.999ZM57.5 3.89101C46.8908 3.89121 36.5198 7.06473 27.6987 13.0103C18.8775 18.9558 12.0023 27.4063 7.94245 37.2932C3.88261 47.18 2.82044 58.0592 4.89032 68.555C6.96021 79.0508 12.0691 88.6917 19.5711 96.2587C27.073 103.826 36.6311 108.979 47.0365 111.066C57.4419 113.154 68.2273 112.083 78.029 107.987C87.8306 103.892 96.2082 96.9569 102.102 88.0589C107.997 79.161 111.143 68.6999 111.143 57.9985C111.125 43.6535 105.468 29.9009 95.4119 19.7575C85.3557 9.61414 71.7215 3.90809 57.5 3.89101V3.89101Z" fill="#70A2FF"/>
<mask id="mask0" mask-type="alpha" maskUnits="userSpaceOnUse" x="2" y="1" width="112" height="112">
<path d="M57.565 112.13C88.2527 112.13 113.13 87.2527 113.13 56.565C113.13 25.8773 88.2527 1 57.565 1C26.8773 1 2 25.8773 2 56.565C2 87.2527 26.8773 112.13 57.565 112.13Z" fill="#E4EDFF"/>
</mask>
<g mask="url(#mask0)">
<path d="M63.3008 96.8096C63.3008 94.2344 64.0644 91.7172 65.495 89.576C66.9257 87.4349 68.9591 85.7661 71.3382 84.7806C73.7173 83.7952 76.3352 83.5374 78.8608 84.0397C81.3865 84.5421 83.7064 85.7821 85.5273 87.603C87.3482 89.4239 88.5882 91.7439 89.0906 94.2695C89.593 96.7951 89.3351 99.413 88.3497 101.792C87.3642 104.171 85.6954 106.205 83.5543 107.635C81.4132 109.066 78.8959 109.83 76.3208 109.83C74.611 109.83 72.9179 109.493 71.3382 108.838C69.7586 108.184 68.3232 107.225 67.1142 106.016C65.9052 104.807 64.9462 103.372 64.2919 101.792C63.6376 100.212 63.3008 98.5194 63.3008 96.8096V96.8096Z" fill="#474CA8"/>
<path d="M40.7817 109.83C47.9725 109.83 53.8017 104 53.8017 96.8096C53.8017 89.6188 47.9725 83.7896 40.7817 83.7896C33.591 83.7896 27.7617 89.6188 27.7617 96.8096C27.7617 104 33.591 109.83 40.7817 109.83Z" fill="#474CA8"/>
<g style="mix-blend-mode:multiply">
<path d="M27.9196 94.8835C28.3972 98.0857 30.0525 100.994 32.5616 103.04C32.8845 103.292 33.2568 103.471 33.6541 103.568C34.0514 103.665 34.4647 103.677 34.8669 103.603C35.2691 103.529 35.6511 103.371 35.9878 103.139C36.3245 102.907 36.6084 102.606 36.8206 102.256C37.7756 100.736 38.9686 98.7995 40.1286 96.8095C41.807 94.0136 43.838 91.4452 46.1716 89.1675L37.9866 105.667C39.7286 106.058 41.5325 106.084 43.2852 105.745C45.0379 105.406 46.7016 104.708 48.1719 103.695C49.6423 102.683 50.8876 101.377 51.8299 99.8611C52.7721 98.3448 53.391 96.6502 53.6476 94.8835C53.9397 96.7415 53.8259 98.6407 53.3138 100.45C52.8017 102.26 51.9036 103.938 50.6813 105.367C49.459 106.797 47.9415 107.944 46.2332 108.731C44.5249 109.518 42.6665 109.926 40.7856 109.926C38.9048 109.926 37.0463 109.518 35.338 108.731C33.6297 107.944 32.1122 106.797 30.8899 105.367C29.6676 103.938 28.7695 102.26 28.2575 100.45C27.7454 98.6407 27.6315 96.7415 27.9236 94.8835H27.9196Z" fill="#C5C3E6"/>
</g>
<g style="mix-blend-mode:multiply">
<path d="M89.1485 94.8835C88.6732 98.0832 87.0233 100.991 84.5205 103.04C84.1986 103.291 83.8274 103.471 83.4311 103.567C83.0349 103.664 82.6226 103.676 82.2215 103.602C81.8204 103.528 81.4396 103.369 81.104 103.138C80.7684 102.906 80.4857 102.605 80.2745 102.256C79.3215 100.736 78.1315 98.7995 76.9745 96.8095C75.3019 94.0142 73.2766 91.4458 70.9485 89.1675L79.1095 105.667C77.3707 106.058 75.5699 106.084 73.8206 105.744C72.0712 105.404 70.4112 104.705 68.9449 103.693C67.4786 102.68 66.2378 101.375 65.3007 99.8589C64.3635 98.3431 63.7503 96.6498 63.4995 94.8855C63.2227 96.6563 63.3156 98.4653 63.7725 100.198C64.2294 101.931 65.0403 103.551 66.1541 104.955C67.268 106.36 68.6606 107.518 70.2443 108.357C71.8279 109.197 73.5683 109.699 75.3556 109.832C77.143 109.966 78.9386 109.727 80.6293 109.132C82.32 108.538 83.8692 107.599 85.1792 106.376C86.4892 105.152 87.5316 103.671 88.2408 102.025C88.9499 100.379 89.3104 98.6038 89.2995 96.8115C89.2966 96.166 89.2461 95.5216 89.1485 94.8835V94.8835Z" fill="#C5C3E6"/>
</g>
<path d="M29.2891 142.528C29.2891 150.334 32.39 157.82 37.9098 163.34C43.4295 168.86 50.916 171.961 58.7221 171.961C66.5282 171.961 74.0146 168.86 79.5343 163.34C85.0541 157.82 88.1551 150.334 88.1551 142.528C88.1551 126.273 74.9771 80.2356 58.7221 80.2356C42.4671 80.2356 29.2891 126.27 29.2891 142.528Z" fill="#70A2FF"/>
<path d="M58.7215 88.9276C55.0288 88.9241 51.37 88.2231 47.9375 86.8616C51.2785 82.7836 54.9135 80.2366 58.7215 80.2366C62.5295 80.2366 66.1645 82.7836 69.5045 86.8616C66.0724 88.2232 62.4139 88.9242 58.7215 88.9276Z" fill="#474CA8"/>
<g style="mix-blend-mode:screen">
<path d="M58.7207 96.8097C54.6278 96.8065 50.5407 96.5013 46.4927 95.8967C46.2986 95.8666 46.1148 95.7893 45.9576 95.6716C45.8004 95.5539 45.6744 95.3995 45.5908 95.2218C45.5072 95.0441 45.4684 94.8485 45.478 94.6524C45.4876 94.4562 45.5451 94.2654 45.6457 94.0967C46.4463 92.7502 47.3196 91.4483 48.2616 90.1967C48.4055 90.0112 48.6018 89.8731 48.825 89.8004C49.0482 89.7277 49.2881 89.7236 49.5137 89.7887C55.5448 91.4086 61.8966 91.4086 67.9277 89.7887C68.1532 89.7237 68.3931 89.7279 68.6162 89.8006C68.8394 89.8733 69.0357 90.0113 69.1796 90.1967C70.1214 91.4485 70.9947 92.7504 71.7956 94.0967C71.8962 94.2654 71.9537 94.4562 71.9633 94.6524C71.9729 94.8485 71.9342 95.0441 71.8505 95.2218C71.7669 95.3995 71.641 95.5539 71.4837 95.6716C71.3265 95.7893 71.1427 95.8666 70.9487 95.8967C66.9007 96.5013 62.8136 96.8064 58.7207 96.8097V96.8097Z" fill="#235ECC"/>
</g>
<g style="mix-blend-mode:screen">
<path d="M30.7426 89.9896C32.4705 88.1155 34.6652 86.734 37.1021 85.9864C39.5391 85.2388 42.131 85.1519 44.6125 85.7346C44.7268 85.7617 44.8331 85.8154 44.9229 85.8912C45.0126 85.967 45.0832 86.0628 45.129 86.171C45.1749 86.2791 45.1947 86.3965 45.1868 86.5137C45.1789 86.6309 45.1435 86.7446 45.0836 86.8456L43.2835 89.8686C43.2133 89.9863 43.1121 90.0824 42.991 90.1464C42.8698 90.2105 42.7334 90.2399 42.5966 90.2316C42.1816 90.2056 41.7656 90.1836 41.3416 90.1836C38.1506 90.1686 34.9834 90.7338 31.9946 91.8516C31.7519 91.9407 31.4862 91.9458 31.2403 91.8661C30.9943 91.7864 30.7822 91.6264 30.6379 91.4118C30.4937 91.1973 30.4256 90.9405 30.4445 90.6826C30.4635 90.4248 30.5684 90.1807 30.7426 89.9896V89.9896Z" fill="#272DA1"/>
</g>
<g style="mix-blend-mode:screen">
<path d="M86.1217 89.9896C84.3938 88.1155 82.1991 86.734 79.7621 85.9864C77.3251 85.2388 74.7333 85.1519 72.2517 85.7346C72.1374 85.7617 72.0311 85.8154 71.9414 85.8912C71.8517 85.967 71.781 86.0628 71.7352 86.171C71.6893 86.2791 71.6696 86.3965 71.6775 86.5137C71.6854 86.6309 71.7207 86.7446 71.7807 86.8456L73.5807 89.8686C73.6509 89.9863 73.7521 90.0824 73.8733 90.1464C73.9945 90.2105 74.1309 90.2399 74.2677 90.2316C74.6827 90.2056 75.0987 90.1836 75.5237 90.1836C78.7143 90.1686 81.8812 90.7338 84.8697 91.8516C85.1124 91.9407 85.378 91.9458 85.624 91.8661C85.8699 91.7864 86.082 91.6264 86.2263 91.4118C86.3706 91.1973 86.4387 90.9405 86.4197 90.6826C86.4008 90.4248 86.2958 90.1807 86.1217 89.9896V89.9896Z" fill="#272DA1"/>
</g>
<path d="M58.4628 156.445C57.0615 156.441 55.7185 155.883 54.7278 154.892C53.737 153.901 53.1789 152.558 53.1758 151.157V105.188C53.1949 103.798 53.7604 102.472 54.7499 101.496C55.7394 100.52 57.0734 99.9724 58.4633 99.9724C59.8532 99.9724 61.1871 100.52 62.1767 101.496C63.1662 102.472 63.7317 103.798 63.7508 105.188V151.157C63.7476 152.558 63.1895 153.901 62.1985 154.892C61.2074 155.883 59.8643 156.442 58.4628 156.445V156.445Z" fill="#474CA8"/>
<path d="M58.4615 153.397C57.8371 153.394 57.2389 153.145 56.7975 152.704C56.3561 152.262 56.1073 151.664 56.1055 151.04V105.856C56.1182 105.239 56.372 104.652 56.8126 104.22C57.2531 103.789 57.8453 103.547 58.462 103.547C59.0787 103.547 59.6708 103.789 60.1114 104.22C60.5519 104.652 60.8058 105.239 60.8185 105.856V151.04C60.8166 151.664 60.5677 152.263 60.1261 152.704C59.6845 153.146 59.086 153.395 58.4615 153.397V153.397Z" fill="#42F9FF"/>
<path d="M96.6104 32.5605H94.8164V50.7385H96.6104V32.5605Z" fill="#3A3687"/>
<path d="M91.8789 29.2276C91.8789 28.4691 92.1038 27.7276 92.5252 27.097C92.9466 26.4663 93.5456 25.9748 94.2463 25.6845C94.9471 25.3942 95.7181 25.3183 96.4621 25.4663C97.206 25.6142 97.8893 25.9795 98.4257 26.5158C98.962 27.0522 99.3272 27.7355 99.4752 28.4794C99.6232 29.2233 99.5473 29.9944 99.257 30.6952C98.9667 31.3959 98.4752 31.9949 97.8445 32.4163C97.2139 32.8377 96.4724 33.0626 95.7139 33.0626C94.6968 33.0626 93.7213 32.6585 93.0021 31.9393C92.2829 31.2201 91.8789 30.2447 91.8789 29.2276V29.2276Z" fill="#70A2FF"/>
<g style="mix-blend-mode:multiply">
<path d="M95.7139 31.9277C94.7958 31.9269 93.9084 31.5966 93.2132 30.9969C92.518 30.3971 92.0612 29.5678 91.9259 28.6597C91.896 28.8472 91.8803 29.0368 91.8789 29.2267C91.8789 30.2438 92.2829 31.2192 93.0021 31.9384C93.7213 32.6576 94.6968 33.0617 95.7139 33.0617C96.731 33.0617 97.7065 32.6576 98.4257 31.9384C99.1449 31.2192 99.5489 30.2438 99.5489 29.2267C99.5473 29.0368 99.532 28.8473 99.5029 28.6597C99.3675 29.5679 98.9106 30.3974 98.2152 30.9972C97.5198 31.597 96.6322 31.9272 95.7139 31.9277V31.9277Z" fill="#C5C3E6"/>
</g>
<g style="mix-blend-mode:screen">
<path d="M95.713 27.2805C96.4768 27.2768 97.2348 27.4124 97.95 27.6805C98.0086 27.7028 98.0731 27.7046 98.1328 27.6855C98.1925 27.6664 98.244 27.6277 98.2789 27.5755C98.3137 27.5234 98.3298 27.4609 98.3246 27.3985C98.3193 27.336 98.293 27.2771 98.25 27.2315C97.9264 26.8826 97.5343 26.6043 97.0982 26.414C96.6621 26.2237 96.1913 26.1255 95.7155 26.1255C95.2397 26.1255 94.769 26.2237 94.3329 26.414C93.8967 26.6043 93.5046 26.8826 93.181 27.2315C93.138 27.2771 93.1117 27.336 93.1064 27.3985C93.1012 27.4609 93.1173 27.5234 93.1521 27.5755C93.187 27.6277 93.2385 27.6664 93.2982 27.6855C93.358 27.7046 93.4224 27.7028 93.481 27.6805C94.1946 27.4129 94.9509 27.2774 95.713 27.2805V27.2805Z" fill="#272DA1"/>
</g>
<path d="M22.338 32.5605H20.543V50.7385H22.338V32.5605Z" fill="#3A3687"/>
<path d="M17.6055 29.2276C17.6055 28.4691 17.8304 27.7276 18.2518 27.097C18.6732 26.4663 19.2721 25.9748 19.9729 25.6845C20.6736 25.3942 21.4447 25.3183 22.1886 25.4663C22.9325 25.6142 23.6159 25.9795 24.1522 26.5158C24.6886 27.0522 25.0538 27.7355 25.2018 28.4794C25.3498 29.2233 25.2738 29.9944 24.9836 30.6952C24.6933 31.3959 24.2017 31.9949 23.5711 32.4163C22.9404 32.8377 22.199 33.0626 21.4405 33.0626C20.9368 33.0627 20.4381 32.9636 19.9727 32.7709C19.5074 32.5782 19.0846 32.2958 18.7284 31.9396C18.3723 31.5835 18.0898 31.1607 17.8971 30.6953C17.7044 30.23 17.6053 29.7312 17.6055 29.2276Z" fill="#70A2FF"/>
<g style="mix-blend-mode:multiply">
<path d="M21.4405 31.9277C20.5222 31.9272 19.6346 31.597 18.9392 30.9972C18.2438 30.3974 17.7868 29.5679 17.6515 28.6597C17.6219 28.8472 17.6066 29.0368 17.6055 29.2267C17.6055 30.2438 18.0095 31.2192 18.7287 31.9384C19.4479 32.6576 20.4234 33.0617 21.4405 33.0617C22.4576 33.0617 23.433 32.6576 24.1522 31.9384C24.8714 31.2192 25.2755 30.2438 25.2755 29.2267C25.2741 29.0368 25.2584 28.8472 25.2285 28.6597C25.0931 29.5678 24.6363 30.3971 23.9412 30.9969C23.246 31.5966 22.3586 31.9269 21.4405 31.9277Z" fill="#C5C3E6"/>
</g>
<g style="mix-blend-mode:screen">
<path d="M21.4406 27.2805C22.204 27.2768 22.9618 27.4124 23.6766 27.6805C23.7352 27.7028 23.7996 27.7046 23.8594 27.6855C23.9191 27.6664 23.9706 27.6277 24.0055 27.5755C24.0403 27.5234 24.0564 27.4609 24.0512 27.3985C24.0459 27.336 24.0196 27.2771 23.9766 27.2315C23.653 26.8826 23.2608 26.6043 22.8247 26.414C22.3886 26.2237 21.9179 26.1255 21.4421 26.1255C20.9663 26.1255 20.4956 26.2237 20.0594 26.414C19.6233 26.6043 19.2312 26.8826 18.9076 27.2315C18.8645 27.2771 18.8382 27.336 18.833 27.3985C18.8278 27.4609 18.8439 27.5234 18.8787 27.5755C18.9136 27.6277 18.9651 27.6664 19.0248 27.6855C19.0845 27.7046 19.149 27.7028 19.2076 27.6805C19.9215 27.4128 20.6781 27.2773 21.4406 27.2805V27.2805Z" fill="#272DA1"/>
</g>
<path d="M66.6581 77.4365H50.4141V84.3015H66.6581V77.4365Z" fill="#474CA8"/>
<path d="M76.1922 30.8296H40.6462C32.0244 30.8296 25.0352 37.8189 25.0352 46.4406V61.9606C25.0352 70.5823 32.0244 77.5716 40.6462 77.5716H76.1922C84.8139 77.5716 91.8032 70.5823 91.8032 61.9606V46.4406C91.8032 37.8189 84.8139 30.8296 76.1922 30.8296Z" fill="#70A2FF"/>
<g style="mix-blend-mode:multiply">
<path d="M81.3081 73.8536H35.5281C33.405 73.8499 31.3017 73.4462 29.3281 72.6636C30.7805 74.2101 32.5339 75.4433 34.4804 76.2873C36.4269 77.1314 38.5255 77.5684 40.6471 77.5716H76.1941C78.3156 77.5683 80.414 77.1312 82.3603 76.2872C84.3067 75.4432 86.0599 74.21 87.5121 72.6636C85.5373 73.4467 83.4325 73.8504 81.3081 73.8536V73.8536Z" fill="#C5C3E6"/>
</g>
<path d="M85.7891 46.9717V61.4286C85.7891 64.3211 84.64 67.0951 82.5948 69.1404C80.5495 71.1856 77.7755 72.3347 74.8831 72.3347H41.7731C40.3409 72.3347 38.9228 72.0525 37.5997 71.5045C36.2765 70.9564 35.0743 70.153 34.0617 69.1403C33.0491 68.1276 32.2458 66.9253 31.6979 65.6021C31.1499 64.2789 30.8679 62.8608 30.8681 61.4286V46.9717C30.8681 44.0795 32.017 41.3057 34.0621 39.2607C36.1071 37.2156 38.8809 36.0667 41.7731 36.0667L74.8841 36.0667C77.7762 36.0667 80.55 37.2156 82.5951 39.2607C84.6401 41.3057 85.7891 44.0795 85.7891 46.9717V46.9717Z" fill="#474CA8"/>
<g style="mix-blend-mode:screen">
<path d="M41.4455 42.3807H75.3945C76.9828 42.3711 78.5551 42.6986 80.0075 43.3414C81.4599 43.9841 82.7596 44.9277 83.8205 46.1097C83.277 43.789 81.9547 41.7247 80.074 40.2607C78.1932 38.7966 75.8676 38.0212 73.4845 38.0637H43.3545C40.9716 38.0213 38.6461 38.7967 36.7655 40.2608C34.8849 41.7248 33.5628 43.7891 33.0195 46.1097C34.0804 44.9276 35.38 43.984 36.8325 43.3412C38.2849 42.6984 39.8572 42.371 41.4455 42.3807V42.3807Z" fill="#272DA1"/>
</g>
<g style="mix-blend-mode:multiply">
<path d="M75.7069 66.7876H41.1289C39.5172 66.8002 37.9209 66.4748 36.4427 65.8326C34.9645 65.1903 33.6374 64.2453 32.5469 63.0586C33.1232 65.3979 34.4807 67.4705 36.3949 68.9335C38.3091 70.3966 40.6653 71.1625 43.0739 71.1046H73.7629C76.1714 71.1623 78.5275 70.3963 80.4417 68.9333C82.3558 67.4703 83.7134 65.3978 84.2899 63.0586C83.1992 64.2453 81.8719 65.1903 80.3935 65.8326C78.9152 66.4749 77.3187 66.8002 75.7069 66.7876Z" fill="#C5C3E6"/>
</g>
<path d="M58.3294 63.0726C52.5886 63.0074 46.9132 61.8459 41.6084 59.6506C41.1989 59.4532 40.8793 59.1083 40.7136 58.6851C40.548 58.2618 40.5486 57.7916 40.7153 57.3688C40.882 56.946 41.2025 56.6019 41.6125 56.4056C42.0224 56.2093 42.4915 56.1754 42.9254 56.3106C53.7254 60.5706 62.9344 60.5706 73.7254 56.3106C73.9483 56.2031 74.1911 56.1428 74.4384 56.1334C74.6857 56.124 74.9324 56.1657 75.1629 56.2559C75.3934 56.3461 75.6028 56.4829 75.778 56.6577C75.9533 56.8325 76.0906 57.0415 76.1814 57.2718C76.2722 57.5021 76.3145 57.7486 76.3057 57.9959C76.2969 58.2433 76.2372 58.4862 76.1303 58.7094C76.0234 58.9327 75.8716 59.1315 75.6844 59.2934C75.4972 59.4553 75.2787 59.5769 75.0424 59.6506C69.7402 61.8455 64.0675 63.007 58.3294 63.0726V63.0726Z" fill="#42F9FF"/>
<path d="M46.7031 48.5106C46.7031 46.3916 47.9111 44.6736 49.4031 44.6736C50.8951 44.6736 52.1031 46.3916 52.1031 48.5106C52.1031 50.6296 50.8961 52.3476 49.4031 52.3476C47.9101 52.3476 46.7031 50.6276 46.7031 48.5106Z" fill="#42F9FF"/>
<path d="M64.5625 48.5106C64.5625 46.3916 65.7695 44.6736 67.2625 44.6736C68.7555 44.6736 69.9625 46.3916 69.9625 48.5106C69.9625 50.6296 68.7555 52.3476 67.2625 52.3476C65.7695 52.3476 64.5625 50.6276 64.5625 48.5106Z" fill="#42F9FF"/>
<g style="mix-blend-mode:multiply">
<path d="M66.6581 77.4365H50.4141V80.8685H66.6581V77.4365Z" fill="#C5C3E6"/>
</g>
<path d="M92.2234 63.0587H91.7344V46.4407H92.2234C94.4271 46.4407 96.5405 47.3161 98.0987 48.8743C99.657 50.4326 100.532 52.546 100.532 54.7497C100.532 56.9534 99.657 59.0668 98.0987 60.625C96.5405 62.1833 94.4271 63.0587 92.2234 63.0587Z" fill="#474CA8"/>
<g style="mix-blend-mode:screen">
<path d="M93.2071 51.1065V48.2185C93.2058 48.1162 93.228 48.015 93.2721 47.9227C93.3161 47.8304 93.3808 47.7494 93.4611 47.6861C93.5415 47.6228 93.6353 47.5788 93.7353 47.5576C93.8354 47.5363 93.939 47.5383 94.0381 47.5635C95.1764 47.9074 96.2193 48.511 97.0847 49.3266C97.9501 50.1422 98.6143 51.1475 99.0251 52.2635C99.0687 52.3856 99.0759 52.5177 99.0459 52.6439C99.0159 52.7701 98.95 52.8848 98.8562 52.9743C98.7623 53.0638 98.6446 53.1242 98.5171 53.1482C98.3897 53.1722 98.258 53.1587 98.1381 53.1095C96.7209 52.5088 95.2468 52.0525 93.7381 51.7475C93.5899 51.717 93.4565 51.6369 93.3599 51.5203C93.2634 51.4038 93.2094 51.2578 93.2071 51.1065V51.1065Z" fill="#272DA1"/>
</g>
<g style="mix-blend-mode:multiply">
<path d="M95.2074 60.2587C94.9916 60.3155 94.7662 60.3259 94.5461 60.2892C94.326 60.2525 94.1162 60.1695 93.9306 60.0456C93.745 59.9218 93.5877 59.76 93.4692 59.5709C93.3508 59.3818 93.2738 59.1697 93.2434 58.9487L91.7344 48.1277V63.0587H92.2234C93.7881 63.056 95.32 62.6102 96.6418 61.7729C97.9636 60.9356 99.0213 59.7411 99.6924 58.3277C98.7904 59.1947 96.7124 59.8637 95.2074 60.2587Z" fill="#C5C3E6"/>
</g>
<path d="M24.5473 63.0587H25.0353V46.4407H24.5473C22.3436 46.4407 20.2302 47.3161 18.6719 48.8743C17.1137 50.4326 16.2383 52.546 16.2383 54.7497C16.2383 56.9534 17.1137 59.0668 18.6719 60.625C20.2302 62.1833 22.3436 63.0587 24.5473 63.0587V63.0587Z" fill="#474CA8"/>
<g style="mix-blend-mode:screen">
<path d="M23.5642 51.1065V48.2185C23.5656 48.1163 23.5435 48.0151 23.4996 47.9228C23.4557 47.8304 23.3911 47.7495 23.3108 47.6862C23.2306 47.6228 23.1368 47.5788 23.0368 47.5575C22.9368 47.5363 22.8332 47.5383 22.7342 47.5635C21.5956 47.9073 20.5525 48.5107 19.6869 49.3263C18.8213 50.1419 18.157 51.1474 17.7462 52.2635C17.7025 52.3857 17.6952 52.5181 17.7252 52.6444C17.7552 52.7707 17.8212 52.8856 17.9152 52.9751C18.0092 53.0647 18.1271 53.125 18.2548 53.1489C18.3824 53.1727 18.5142 53.159 18.6342 53.1095C20.0497 52.5091 21.5222 52.0528 23.0292 51.7475C23.1781 51.7178 23.3125 51.638 23.4098 51.5214C23.5072 51.4048 23.5616 51.2584 23.5642 51.1065V51.1065Z" fill="#272DA1"/>
</g>
<g style="mix-blend-mode:multiply">
<path d="M21.5631 60.2587C21.779 60.3155 22.0044 60.3259 22.2246 60.2892C22.4447 60.2525 22.6546 60.1695 22.8403 60.0457C23.026 59.9219 23.1833 59.7601 23.3019 59.571C23.4205 59.3819 23.4976 59.1698 23.5281 58.9487L25.0361 48.1277V63.0587H24.5491C22.9841 63.0562 21.4519 62.6106 20.1297 61.7733C18.8075 60.936 17.7495 59.7414 17.0781 58.3277C17.9801 59.1947 20.0591 59.8637 21.5631 60.2587Z" fill="#C5C3E6"/>
</g>
</g>
</svg>
