<?xml version="1.0" encoding="utf-8"?>
<!-- Generator: Adobe Illustrator 24.3.0, SVG Export Plug-In . SVG Version: 6.00 Build 0)  -->
<svg version="1.1" id="Layer_1" xmlns="http://www.w3.org/2000/svg" xmlns:xlink="http://www.w3.org/1999/xlink" x="0px" y="0px"
	 viewBox="0 0 115 116" style="enable-background:new 0 0 115 116;" xml:space="preserve">
<style type="text/css">
	.st0{fill:#E4EDFF;}
	.st1{fill:#70A2FF;}
	.st2{fill:#E4EDFF;filter:url(#Adobe_OpacityMaskFilter);}
	.st3{mask:url(#mask0_1_);}
	.st4{fill:#474CA8;}
	.st5{fill:#C5C3E6;}
	.st6{fill:#235ECC;}
	.st7{fill:#272DA1;}
	.st8{fill:#42F9FF;}
	.st9{fill:#3A3687;}
</style>
<path class="st0" d="M57.6,113.1c30.7,0,55.6-24.9,55.6-55.6S88.3,2,57.6,2S2,26.9,2,57.6S26.9,113.1,57.6,113.1z"/>
<path class="st1" d="M57.5,116c-11.4,0-22.5-3.4-31.9-9.8c-9.5-6.4-16.8-15.4-21.2-26C0,69.6-1.1,57.9,1.1,46.7
	C3.3,35.4,8.8,25.1,16.8,17c8-8.1,18.3-13.6,29.4-15.9C57.4-1.1,69,0,79.5,4.4C90,8.8,99,16.2,105.3,25.8c6.3,9.5,9.7,20.8,9.7,32.2
	c0,15.4-6.1,30.1-16.9,41C87.4,109.9,72.7,116,57.5,116L57.5,116z M57.5,3.9c-10.6,0-21,3.2-29.8,9.1C18.9,19,12,27.4,7.9,37.3
	c-4.1,9.9-5.1,20.8-3.1,31.3C7,79.1,12.1,88.7,19.6,96.3c7.5,7.6,17.1,12.7,27.5,14.8c10.4,2.1,21.2,1,31-3.1
	c9.8-4.1,18.2-11,24.1-19.9c5.9-8.9,9-19.4,9-30.1c0-14.3-5.7-28.1-15.7-38.2C85.4,9.6,71.7,3.9,57.5,3.9L57.5,3.9z"/>
<defs>
	<filter id="Adobe_OpacityMaskFilter" filterUnits="userSpaceOnUse" x="16.2" y="25.4" width="84.3" height="146.6">
		<feColorMatrix  type="matrix" values="1 0 0 0 0  0 1 0 0 0  0 0 1 0 0  0 0 0 1 0"/>
	</filter>
</defs>
<mask maskUnits="userSpaceOnUse" x="16.2" y="25.4" width="84.3" height="146.6" id="mask0_1_">
	<path class="st2" d="M57.6,112.1c30.7,0,55.6-24.9,55.6-55.6S88.3,1,57.6,1S2,25.9,2,56.6S26.9,112.1,57.6,112.1z"/>
</mask>
<g class="st3">
	<path class="st4" d="M63.3,96.8c0-2.6,0.8-5.1,2.2-7.2c1.4-2.1,3.5-3.8,5.8-4.8c2.4-1,5-1.2,7.5-0.7c2.5,0.5,4.8,1.7,6.7,3.6
		s3.1,4.1,3.6,6.7c0.5,2.5,0.2,5.1-0.7,7.5c-1,2.4-2.7,4.4-4.8,5.8c-2.1,1.4-4.7,2.2-7.2,2.2c-1.7,0-3.4-0.3-5-1
		c-1.6-0.7-3-1.6-4.2-2.8s-2.2-2.6-2.8-4.2C63.6,100.2,63.3,98.5,63.3,96.8L63.3,96.8z"/>
	<path class="st4" d="M40.8,109.8c7.2,0,13-5.8,13-13c0-7.2-5.8-13-13-13c-7.2,0-13,5.8-13,13C27.8,104,33.6,109.8,40.8,109.8z"/>
	<g>
		<path class="st5" d="M27.9,94.9c0.5,3.2,2.1,6.1,4.6,8.2c0.3,0.3,0.7,0.4,1.1,0.5c0.4,0.1,0.8,0.1,1.2,0c0.4-0.1,0.8-0.2,1.1-0.5
			s0.6-0.5,0.8-0.9c1-1.5,2.1-3.5,3.3-5.4c1.7-2.8,3.7-5.4,6-7.6L38,105.7c1.7,0.4,3.5,0.4,5.3,0.1c1.8-0.3,3.4-1,4.9-2.1
			c1.5-1,2.7-2.3,3.7-3.8c0.9-1.5,1.6-3.2,1.8-5c0.3,1.9,0.2,3.8-0.3,5.6c-0.5,1.8-1.4,3.5-2.6,4.9c-1.2,1.4-2.7,2.6-4.4,3.4
			c-1.7,0.8-3.6,1.2-5.4,1.2c-1.9,0-3.7-0.4-5.4-1.2c-1.7-0.8-3.2-1.9-4.4-3.4c-1.2-1.4-2.1-3.1-2.6-4.9
			C27.7,98.6,27.6,96.7,27.9,94.9L27.9,94.9z"/>
	</g>
	<g>
		<path class="st5" d="M89.1,94.9c-0.5,3.2-2.1,6.1-4.6,8.2c-0.3,0.3-0.7,0.4-1.1,0.5c-0.4,0.1-0.8,0.1-1.2,0
			c-0.4-0.1-0.8-0.2-1.1-0.5c-0.3-0.2-0.6-0.5-0.8-0.9c-1-1.5-2.1-3.5-3.3-5.4c-1.7-2.8-3.7-5.4-6-7.6l8.2,16.5
			c-1.7,0.4-3.5,0.4-5.3,0.1c-1.7-0.3-3.4-1-4.9-2.1c-1.5-1-2.7-2.3-3.6-3.8c-0.9-1.5-1.6-3.2-1.8-5c-0.3,1.8-0.2,3.6,0.3,5.3
			c0.5,1.7,1.3,3.4,2.4,4.8c1.1,1.4,2.5,2.6,4.1,3.4c1.6,0.8,3.3,1.3,5.1,1.5c1.8,0.1,3.6-0.1,5.3-0.7c1.7-0.6,3.2-1.5,4.5-2.8
			c1.3-1.2,2.4-2.7,3.1-4.4c0.7-1.6,1.1-3.4,1.1-5.2C89.3,96.2,89.2,95.5,89.1,94.9L89.1,94.9z"/>
	</g>
	<path class="st1" d="M29.3,142.5c0,7.8,3.1,15.3,8.6,20.8c5.5,5.5,13,8.6,20.8,8.6s15.3-3.1,20.8-8.6c5.5-5.5,8.6-13,8.6-20.8
		c0-16.3-13.2-62.3-29.4-62.3S29.3,126.3,29.3,142.5z"/>
	<path class="st4" d="M58.7,88.9c-3.7,0-7.4-0.7-10.8-2.1c3.3-4.1,7-6.6,10.8-6.6s7.4,2.5,10.8,6.6C66.1,88.2,62.4,88.9,58.7,88.9z"
		/>
	<g>
		<path class="st6" d="M58.7,96.8c-4.1,0-8.2-0.3-12.2-0.9c-0.2,0-0.4-0.1-0.5-0.2s-0.3-0.3-0.4-0.4c-0.1-0.2-0.1-0.4-0.1-0.6
			c0-0.2,0.1-0.4,0.2-0.6c0.8-1.3,1.7-2.6,2.6-3.9c0.1-0.2,0.3-0.3,0.6-0.4c0.2-0.1,0.5-0.1,0.7,0c6,1.6,12.4,1.6,18.4,0
			c0.2-0.1,0.5-0.1,0.7,0c0.2,0.1,0.4,0.2,0.6,0.4c0.9,1.3,1.8,2.6,2.6,3.9c0.1,0.2,0.2,0.4,0.2,0.6c0,0.2,0,0.4-0.1,0.6
			c-0.1,0.2-0.2,0.3-0.4,0.4c-0.2,0.1-0.3,0.2-0.5,0.2C66.9,96.5,62.8,96.8,58.7,96.8L58.7,96.8z"/>
	</g>
	<g>
		<path class="st7" d="M30.7,90c1.7-1.9,3.9-3.3,6.4-4c2.4-0.7,5-0.8,7.5-0.3c0.1,0,0.2,0.1,0.3,0.2c0.1,0.1,0.2,0.2,0.2,0.3
			c0,0.1,0.1,0.2,0.1,0.3c0,0.1,0,0.2-0.1,0.3l-1.8,3c-0.1,0.1-0.2,0.2-0.3,0.3c-0.1,0.1-0.3,0.1-0.4,0.1c-0.4,0-0.8,0-1.3,0
			c-3.2,0-6.4,0.6-9.3,1.7c-0.2,0.1-0.5,0.1-0.8,0c-0.2-0.1-0.5-0.2-0.6-0.5c-0.1-0.2-0.2-0.5-0.2-0.7C30.5,90.4,30.6,90.2,30.7,90
			L30.7,90z"/>
	</g>
	<g>
		<path class="st7" d="M86.1,90c-1.7-1.9-3.9-3.3-6.4-4c-2.4-0.7-5-0.8-7.5-0.3c-0.1,0-0.2,0.1-0.3,0.2c-0.1,0.1-0.2,0.2-0.2,0.3
			c0,0.1-0.1,0.2-0.1,0.3c0,0.1,0,0.2,0.1,0.3l1.8,3c0.1,0.1,0.2,0.2,0.3,0.3c0.1,0.1,0.3,0.1,0.4,0.1c0.4,0,0.8,0,1.3,0
			c3.2,0,6.4,0.6,9.3,1.7c0.2,0.1,0.5,0.1,0.8,0c0.2-0.1,0.5-0.2,0.6-0.5c0.1-0.2,0.2-0.5,0.2-0.7C86.4,90.4,86.3,90.2,86.1,90
			L86.1,90z"/>
	</g>
	<path class="st4" d="M58.5,156.4c-1.4,0-2.7-0.6-3.7-1.6c-1-1-1.5-2.3-1.6-3.7v-46c0-1.4,0.6-2.7,1.6-3.7c1-1,2.3-1.5,3.7-1.5
		s2.7,0.5,3.7,1.5c1,1,1.6,2.3,1.6,3.7v46c0,1.4-0.6,2.7-1.6,3.7C61.2,155.9,59.9,156.4,58.5,156.4L58.5,156.4z"/>
	<path class="st8" d="M58.5,153.4c-0.6,0-1.2-0.3-1.7-0.7c-0.4-0.4-0.7-1-0.7-1.7v-45.2c0-0.6,0.3-1.2,0.7-1.6
		c0.4-0.4,1-0.7,1.6-0.7c0.6,0,1.2,0.2,1.6,0.7c0.4,0.4,0.7,1,0.7,1.6V151c0,0.6-0.3,1.2-0.7,1.7C59.7,153.1,59.1,153.4,58.5,153.4
		L58.5,153.4z"/>
	<path class="st9" d="M96.6,32.6h-1.8v18.2h1.8V32.6z"/>
	<path class="st1" d="M91.9,29.2c0-0.8,0.2-1.5,0.6-2.1c0.4-0.6,1-1.1,1.7-1.4c0.7-0.3,1.5-0.4,2.2-0.2c0.7,0.1,1.4,0.5,2,1
		c0.5,0.5,0.9,1.2,1,2c0.1,0.7,0.1,1.5-0.2,2.2c-0.3,0.7-0.8,1.3-1.4,1.7c-0.6,0.4-1.4,0.6-2.1,0.6c-1,0-2-0.4-2.7-1.1
		S91.9,30.2,91.9,29.2L91.9,29.2z"/>
	<g>
		<path class="st5" d="M95.7,31.9c-0.9,0-1.8-0.3-2.5-0.9c-0.7-0.6-1.2-1.4-1.3-2.3c0,0.2,0,0.4,0,0.6c0,1,0.4,2,1.1,2.7
			s1.7,1.1,2.7,1.1c1,0,2-0.4,2.7-1.1s1.1-1.7,1.1-2.7c0-0.2,0-0.4,0-0.6c-0.1,0.9-0.6,1.7-1.3,2.3C97.5,31.6,96.6,31.9,95.7,31.9
			L95.7,31.9z"/>
	</g>
	<g>
		<path class="st7" d="M95.7,27.3c0.8,0,1.5,0.1,2.2,0.4c0.1,0,0.1,0,0.2,0c0.1,0,0.1-0.1,0.1-0.1c0-0.1,0.1-0.1,0-0.2
			c0-0.1,0-0.1-0.1-0.2c-0.3-0.3-0.7-0.6-1.2-0.8c-0.4-0.2-0.9-0.3-1.4-0.3s-0.9,0.1-1.4,0.3c-0.4,0.2-0.8,0.5-1.2,0.8
			c0,0-0.1,0.1-0.1,0.2c0,0.1,0,0.1,0,0.2c0,0.1,0.1,0.1,0.1,0.1c0.1,0,0.1,0,0.2,0C94.2,27.4,95,27.3,95.7,27.3L95.7,27.3z"/>
	</g>
	<path class="st9" d="M22.3,32.6h-1.8v18.2h1.8V32.6z"/>
	<path class="st1" d="M17.6,29.2c0-0.8,0.2-1.5,0.6-2.1c0.4-0.6,1-1.1,1.7-1.4c0.7-0.3,1.5-0.4,2.2-0.2c0.7,0.1,1.4,0.5,2,1
		c0.5,0.5,0.9,1.2,1,2c0.1,0.7,0.1,1.5-0.2,2.2c-0.3,0.7-0.8,1.3-1.4,1.7c-0.6,0.4-1.4,0.6-2.1,0.6c-0.5,0-1-0.1-1.5-0.3
		c-0.5-0.2-0.9-0.5-1.2-0.8c-0.4-0.4-0.6-0.8-0.8-1.2C17.7,30.2,17.6,29.7,17.6,29.2z"/>
	<g>
		<path class="st5" d="M21.4,31.9c-0.9,0-1.8-0.3-2.5-0.9s-1.2-1.4-1.3-2.3c0,0.2,0,0.4,0,0.6c0,1,0.4,2,1.1,2.7s1.7,1.1,2.7,1.1
			s2-0.4,2.7-1.1s1.1-1.7,1.1-2.7c0-0.2,0-0.4,0-0.6c-0.1,0.9-0.6,1.7-1.3,2.3C23.2,31.6,22.4,31.9,21.4,31.9z"/>
	</g>
	<g>
		<path class="st7" d="M21.4,27.3c0.8,0,1.5,0.1,2.2,0.4c0.1,0,0.1,0,0.2,0c0.1,0,0.1-0.1,0.1-0.1c0-0.1,0.1-0.1,0-0.2
			c0-0.1,0-0.1-0.1-0.2c-0.3-0.3-0.7-0.6-1.2-0.8s-0.9-0.3-1.4-0.3c-0.5,0-0.9,0.1-1.4,0.3c-0.4,0.2-0.8,0.5-1.2,0.8
			c0,0-0.1,0.1-0.1,0.2c0,0.1,0,0.1,0,0.2c0,0.1,0.1,0.1,0.1,0.1c0.1,0,0.1,0,0.2,0C19.9,27.4,20.7,27.3,21.4,27.3L21.4,27.3z"/>
	</g>
	<path class="st4" d="M66.7,77.4H50.4v6.9h16.2V77.4z"/>
	<path class="st1" d="M76.2,30.8H40.6c-8.6,0-15.6,7-15.6,15.6V62c0,8.6,7,15.6,15.6,15.6h35.5c8.6,0,15.6-7,15.6-15.6V46.4
		C91.8,37.8,84.8,30.8,76.2,30.8z"/>
	<g>
		<path class="st5" d="M81.3,73.9H35.5c-2.1,0-4.2-0.4-6.2-1.2c1.5,1.5,3.2,2.8,5.2,3.6c1.9,0.8,4,1.3,6.2,1.3h35.5
			c2.1,0,4.2-0.4,6.2-1.3c1.9-0.8,3.7-2.1,5.2-3.6C85.5,73.4,83.4,73.9,81.3,73.9L81.3,73.9z"/>
	</g>
	<path class="st4" d="M85.8,47v14.5c0,2.9-1.1,5.7-3.2,7.7c-2,2-4.8,3.2-7.7,3.2H41.8c-1.4,0-2.9-0.3-4.2-0.8
		c-1.3-0.5-2.5-1.4-3.5-2.4c-1-1-1.8-2.2-2.4-3.5c-0.5-1.3-0.8-2.7-0.8-4.2V47c0-2.9,1.1-5.7,3.2-7.7c2-2,4.8-3.2,7.7-3.2h33.1
		c2.9,0,5.7,1.1,7.7,3.2C84.6,41.3,85.8,44.1,85.8,47L85.8,47z"/>
	<g>
		<path class="st7" d="M41.4,42.4h33.9c1.6,0,3.2,0.3,4.6,1c1.5,0.6,2.8,1.6,3.8,2.8c-0.5-2.3-1.9-4.4-3.7-5.8
			c-1.9-1.5-4.2-2.2-6.6-2.2H43.4c-2.4,0-4.7,0.7-6.6,2.2c-1.9,1.5-3.2,3.5-3.7,5.8c1.1-1.2,2.4-2.1,3.8-2.8
			C38.3,42.7,39.9,42.4,41.4,42.4L41.4,42.4z"/>
	</g>
	<g>
		<path class="st5" d="M75.7,66.8H41.1c-1.6,0-3.2-0.3-4.7-1c-1.5-0.6-2.8-1.6-3.9-2.8c0.6,2.3,1.9,4.4,3.8,5.9
			c1.9,1.5,4.3,2.2,6.7,2.2h30.7c2.4,0.1,4.8-0.7,6.7-2.2c1.9-1.5,3.3-3.5,3.8-5.9c-1.1,1.2-2.4,2.1-3.9,2.8
			C78.9,66.5,77.3,66.8,75.7,66.8z"/>
	</g>
	<path class="st8" d="M58.3,63.1c-5.7-0.1-11.4-1.2-16.7-3.4c-0.4-0.2-0.7-0.5-0.9-1c-0.2-0.4-0.2-0.9,0-1.3c0.2-0.4,0.5-0.8,0.9-1
		c0.4-0.2,0.9-0.2,1.3-0.1c10.8,4.3,20,4.3,30.8,0c0.2-0.1,0.5-0.2,0.7-0.2s0.5,0,0.7,0.1c0.2,0.1,0.4,0.2,0.6,0.4
		c0.2,0.2,0.3,0.4,0.4,0.6c0.1,0.2,0.1,0.5,0.1,0.7c0,0.2-0.1,0.5-0.2,0.7c-0.1,0.2-0.3,0.4-0.4,0.6c-0.2,0.2-0.4,0.3-0.6,0.4
		C69.7,61.8,64.1,63,58.3,63.1L58.3,63.1z"/>
	<path class="st8" d="M46.7,48.5c0-2.1,1.2-3.8,2.7-3.8s2.7,1.7,2.7,3.8s-1.2,3.8-2.7,3.8S46.7,50.6,46.7,48.5z"/>
	<path class="st8" d="M64.6,48.5c0-2.1,1.2-3.8,2.7-3.8c1.5,0,2.7,1.7,2.7,3.8s-1.2,3.8-2.7,3.8C65.8,52.3,64.6,50.6,64.6,48.5z"/>
	<g>
		<path class="st5" d="M66.7,77.4H50.4v3.4h16.2V77.4z"/>
	</g>
	<path class="st4" d="M92.2,63.1h-0.5V46.4h0.5c2.2,0,4.3,0.9,5.9,2.4c1.6,1.6,2.4,3.7,2.4,5.9c0,2.2-0.9,4.3-2.4,5.9
		C96.5,62.2,94.4,63.1,92.2,63.1z"/>
	<g>
		<path class="st7" d="M93.2,51.1v-2.9c0-0.1,0-0.2,0.1-0.3c0-0.1,0.1-0.2,0.2-0.2c0.1-0.1,0.2-0.1,0.3-0.1c0.1,0,0.2,0,0.3,0
			c1.1,0.3,2.2,0.9,3,1.8c0.9,0.8,1.5,1.8,1.9,2.9c0,0.1,0.1,0.3,0,0.4c0,0.1-0.1,0.2-0.2,0.3c-0.1,0.1-0.2,0.1-0.3,0.2
			c-0.1,0-0.3,0-0.4,0c-1.4-0.6-2.9-1.1-4.4-1.4c-0.1,0-0.3-0.1-0.4-0.2C93.3,51.4,93.2,51.3,93.2,51.1L93.2,51.1z"/>
	</g>
	<g>
		<path class="st5" d="M95.2,60.3c-0.2,0.1-0.4,0.1-0.7,0s-0.4-0.1-0.6-0.2c-0.2-0.1-0.3-0.3-0.5-0.5c-0.1-0.2-0.2-0.4-0.2-0.6
			l-1.5-10.8v14.9h0.5c1.6,0,3.1-0.4,4.4-1.3s2.4-2,3.1-3.4C98.8,59.2,96.7,59.9,95.2,60.3z"/>
	</g>
	<path class="st4" d="M24.5,63.1H25V46.4h-0.5c-2.2,0-4.3,0.9-5.9,2.4c-1.6,1.6-2.4,3.7-2.4,5.9c0,2.2,0.9,4.3,2.4,5.9
		C20.2,62.2,22.3,63.1,24.5,63.1L24.5,63.1z"/>
	<g>
		<path class="st7" d="M23.6,51.1v-2.9c0-0.1,0-0.2-0.1-0.3c0-0.1-0.1-0.2-0.2-0.2c-0.1-0.1-0.2-0.1-0.3-0.1c-0.1,0-0.2,0-0.3,0
			c-1.1,0.3-2.2,0.9-3,1.8c-0.9,0.8-1.5,1.8-1.9,2.9c0,0.1-0.1,0.3,0,0.4c0,0.1,0.1,0.2,0.2,0.3c0.1,0.1,0.2,0.1,0.3,0.2
			c0.1,0,0.3,0,0.4,0c1.4-0.6,2.9-1.1,4.4-1.4c0.1,0,0.3-0.1,0.4-0.2C23.5,51.4,23.6,51.3,23.6,51.1L23.6,51.1z"/>
	</g>
	<g>
		<path class="st5" d="M21.6,60.3c0.2,0.1,0.4,0.1,0.7,0c0.2,0,0.4-0.1,0.6-0.2s0.3-0.3,0.5-0.5c0.1-0.2,0.2-0.4,0.2-0.6L25,48.1
			v14.9h-0.5c-1.6,0-3.1-0.4-4.4-1.3c-1.3-0.8-2.4-2-3.1-3.4C18,59.2,20.1,59.9,21.6,60.3z"/>
	</g>
</g>
</svg>
