<svg width="63" height="63" viewBox="0 0 63 63" fill="none" xmlns="http://www.w3.org/2000/svg">
<circle cx="31.5" cy="31.5" r="31" fill="#70A2FF" stroke="#F1F1F1"/>
<path d="M17 36.1111H46M27.875 41.5556L26.6667 46.3889L25.0556 48H37.9444L36.3333 46.3889L35.125 41.5556H27.875ZM20.2222 41.5556H42.7778C43.6324 41.5556 44.4519 41.2161 45.0562 40.6118C45.6605 40.0075 46 39.1879 46 38.3333V22.2222C46 21.3676 45.6605 20.5481 45.0562 19.9438C44.4519 19.3395 43.6324 19 42.7778 19H20.2222C19.3676 19 18.5481 19.3395 17.9438 19.9438C17.3395 20.5481 17 21.3676 17 22.2222V38.3333C17 39.1879 17.3395 40.0075 17.9438 40.6118C18.5481 41.2161 19.3676 41.5556 20.2222 41.5556Z" stroke="white" stroke-width="2" stroke-linecap="round" stroke-linejoin="round"/>
</svg>
