<svg xmlns="http://www.w3.org/2000/svg" xmlns:xlink="http://www.w3.org/1999/xlink" width="106" height="106" viewBox="0 0 106 106">
  <defs>
    <filter id="Ellipse_2584" x="0" y="0" width="106" height="106" filterUnits="userSpaceOnUse">
      <feOffset input="SourceAlpha"/>
      <feGaussianBlur stdDeviation="5.5" result="blur"/>
      <feFlood flood-opacity="0.11"/>
      <feComposite operator="in" in2="blur"/>
      <feComposite in="SourceGraphic"/>
    </filter>
  </defs>
  <g id="support_benefits" transform="translate(-418.5 -1488.5)">
    <g id="Group_9890" data-name="Group 9890" transform="translate(104 -398)">
      <g transform="matrix(1, 0, 0, 1, 314.5, 1886.5)" filter="url(#Ellipse_2584)">
        <circle id="Ellipse_2584-2" data-name="Ellipse 2584" cx="36.5" cy="36.5" r="36.5" transform="translate(16.5 16.5)" fill="#007ee1"/>
      </g>
    </g>
    <g id="Group_113" data-name="Group 113" transform="translate(-339.5 177.501)">
      <path id="Path_190" data-name="Path 190" d="M822.154,1368.723h0a2.447,2.447,0,0,1,0,4.894h-1.631a2.448,2.448,0,0,1,2.447,2.447c0,1.352-1.1,1.631-2.447,1.631h-10.6c-4.651,0-5.709-.816-11.419-1.631V1362.2c4,0,10.6-7.341,10.6-13.866,0-2.579,3.571-3.54,4.894,1.173.816,2.905-1.631,8.615-1.631,8.615h13.05a2.448,2.448,0,0,1,2.447,2.447c0,1.352-1.1,3.263-2.447,3.263h-1.631a2.447,2.447,0,1,1,0,4.894h-1.631" transform="translate(3.156 0)" fill="none" stroke="#fff" stroke-linecap="round" stroke-linejoin="round" stroke-width="1.3"/>
      <rect id="Rectangle_25" data-name="Rectangle 25" width="8" height="19" transform="translate(793.5 1360.499)" fill="none" stroke="#fff" stroke-linecap="round" stroke-linejoin="round" stroke-width="1.3"/>
      <g id="Group_112" data-name="Group 112" transform="translate(797.578 1375.248)">
        <g id="Group_111" data-name="Group 111">
          <g id="Path_191" data-name="Path 191" transform="translate(-796 -1364)" fill="none" stroke-miterlimit="10">
            <path d="M796.816,1364a.816.816,0,1,0,.816.816.816.816,0,0,0-.816-.816Z" stroke="none"/>
            <path d="M 796.815673828125 1363.999877929688 C 797.2657470703125 1363.999877929688 797.6312255859375 1364.365356445313 797.6312255859375 1364.815673828125 C 797.6312255859375 1365.265869140625 797.2657470703125 1365.631225585938 796.815673828125 1365.631225585938 C 796.3653564453125 1365.631225585938 795.9998779296875 1365.265869140625 795.9998779296875 1364.815673828125 C 795.9998779296875 1364.365356445313 796.3653564453125 1363.999877929688 796.815673828125 1363.999877929688 Z" stroke="none" fill="#fff"/>
          </g>
        </g>
      </g>
    </g>
  </g>
</svg>
