<svg xmlns="http://www.w3.org/2000/svg" width="39.807" height="34.823" viewBox="0 0 39.807 34.823">
  <g id="support_services" transform="translate(-941.25 -1527.246)">
    <g id="Group_232" data-name="Group 232" transform="translate(942 1527.996)">
      <path id="Path_268" data-name="Path 268" d="M314.82,2038.326l5-4.165h-5.836l-3.314-6.665-3.314,6.665H301.5l5.024,4.165-2.5,7.5,6.651-4.567,6.651,4.567Z" transform="translate(-281.512 -2012.5)" fill="none" stroke="#707070" stroke-linejoin="round" stroke-width="1.5"/>
      <g id="Group_231" data-name="Group 231" transform="translate(0 0)">
        <g id="Group_230" data-name="Group 230">
          <path id="Path_269" data-name="Path 269" d="M305.328,2041.82H292a2.5,2.5,0,0,1-2.5-2.5v-18.326a2.5,2.5,0,0,1,2.5-2.5h29.989a2.5,2.5,0,0,1,2.5,2.5v13.328" transform="translate(-289.5 -2018.495)" fill="none" stroke="#707070" stroke-linecap="round" stroke-linejoin="round" stroke-width="1.5"/>
          <path id="Path_270" data-name="Path 270" d="M323.321,2019l-16.66,13.328L290,2019" transform="translate(-289.167 -2018.162)" fill="none" stroke="#707070" stroke-linecap="round" stroke-linejoin="round" stroke-width="1.5"/>
        </g>
      </g>
    </g>
  </g>
</svg>
