<svg width="79" height="79" viewBox="0 0 79 79" fill="none" xmlns="http://www.w3.org/2000/svg">
<g filter="url(#filter0_d)">
<circle cx="39.5" cy="39.5" r="31.5" fill="#FF6868"/>
</g>
<path d="M48 38.8C48 41.0278 47.1045 43.1644 45.5104 44.7397C43.9163 46.315 41.7543 47.2 39.5 47.2M39.5 47.2C37.2457 47.2 35.0837 46.315 33.4896 44.7397C31.8955 43.1644 31 41.0278 31 38.8M39.5 47.2V52M39.5 52H34.6429M39.5 52H44.3571M39.5 42.4C38.5339 42.4 37.6073 42.0207 36.9241 41.3456C36.2409 40.6705 35.8571 39.7548 35.8571 38.8V31.6C35.8571 30.6452 36.2409 29.7295 36.9241 29.0544C37.6073 28.3793 38.5339 28 39.5 28C40.4661 28 41.3927 28.3793 42.0759 29.0544C42.7591 29.7295 43.1429 30.6452 43.1429 31.6V38.8C43.1429 39.7548 42.7591 40.6705 42.0759 41.3456C41.3927 42.0207 40.4661 42.4 39.5 42.4Z" stroke="white" stroke-width="2" stroke-linecap="round" stroke-linejoin="round"/>
<defs>
<filter id="filter0_d" x="0" y="0" width="79" height="79" filterUnits="userSpaceOnUse" color-interpolation-filters="sRGB">
<feFlood flood-opacity="0" result="BackgroundImageFix"/>
<feColorMatrix in="SourceAlpha" type="matrix" values="0 0 0 0 0 0 0 0 0 0 0 0 0 0 0 0 0 0 127 0"/>
<feOffset/>
<feGaussianBlur stdDeviation="4"/>
<feColorMatrix type="matrix" values="0 0 0 0 0 0 0 0 0 0 0 0 0 0 0 0 0 0 0.1 0"/>
<feBlend mode="normal" in2="BackgroundImageFix" result="effect1_dropShadow"/>
<feBlend mode="normal" in="SourceGraphic" in2="effect1_dropShadow" result="shape"/>
</filter>
</defs>
</svg>
