<svg xmlns="http://www.w3.org/2000/svg" xmlns:xlink="http://www.w3.org/1999/xlink" width="115.806" height="81.301" viewBox="0 0 115.806 81.301">
  <defs>
    <linearGradient id="linear-gradient" x1="0.5" x2="0.5" y2="1" gradientUnits="objectBoundingBox">
      <stop offset="0" stop-color="#007ee6"/>
      <stop offset="1" stop-color="#06d3fe"/>
    </linearGradient>
    <linearGradient id="linear-gradient-2" x1="0.5" x2="0.5" y2="1" gradientUnits="objectBoundingBox">
      <stop offset="0" stop-color="#01b3f9"/>
      <stop offset="1" stop-color="#015bea"/>
    </linearGradient>
  </defs>
  <g id="Group_10044" data-name="Group 10044" transform="translate(-540.307 -873.912)">
    <path id="Path_12205" data-name="Path 12205" d="M545.015,918.341a60.719,60.719,0,0,1,107.04-13.356l-.026-.041a60.492,60.492,0,0,1,6.936,13.4,60.477,60.477,0,0,1-6.936,13.394l.026-.038a60.72,60.72,0,0,1-107.04-13.356Z" transform="translate(-3.78 -3.778)" fill="#6bc7ff"/>
    <path id="Path_12206" data-name="Path 12206" d="M673.961,880.726a39.307,39.307,0,1,0,39.3,39.308,39.307,39.307,0,0,0-39.3-39.308Z" transform="translate(-75.75 -5.471)" fill="#fff"/>
    <path id="Path_12207" data-name="Path 12207" d="M728.679,1000.62a25.874,25.874,0,1,1,25.873-25.873A25.9,25.9,0,0,1,728.679,1000.62Z" transform="translate(-130.467 -60.185)" fill="url(#linear-gradient)"/>
    <path id="Path_12208" data-name="Path 12208" d="M753.979,1019.709a19.663,19.663,0,1,1,19.661-19.662A19.685,19.685,0,0,1,753.979,1019.709Z" transform="translate(-155.767 -85.485)" fill="#fff"/>
    <path id="Path_12209" data-name="Path 12209" d="M787.715,1022.4a11.381,11.381,0,1,0,11.379,11.382A11.395,11.395,0,0,0,787.715,1022.4Z" transform="translate(-189.504 -119.221)" fill="url(#linear-gradient-2)"/>
    <path id="Path_12210" data-name="Path 12210" d="M713.062,975.089a9.7,9.7,0,1,0-3.266,3.835,3.168,3.168,0,1,0,3.266-3.835Z" transform="translate(-123.908 -70.145)" fill="#fff"/>
    <path id="Path_12211" data-name="Path 12211" d="M649.018,1010.183a61.647,61.647,0,0,1-108.655-13.592.929.929,0,0,1,0-.641,61.527,61.527,0,0,1,12.069-19.964.927.927,0,1,1,1.378,1.242,59.674,59.674,0,0,0-11.585,19.042A59.791,59.791,0,0,0,647.51,1009.1a.928.928,0,0,1,1.534,1.044l-.026.039Z" transform="translate(0 -81.709)" fill-rule="evenodd" fill="url(#linear-gradient-2)"/>
    <path id="Path_12212" data-name="Path 12212" d="M879.62,901.772l-.03-.04a59.7,59.7,0,0,0-49.3-25.966.928.928,0,1,1,0-1.855,61.55,61.55,0,0,1,50.769,26.682.56.56,0,0,1,.034.047,61.352,61.352,0,0,1,7.043,13.6.927.927,0,1,1-1.741.64A59.489,59.489,0,0,0,879.62,901.772Z" transform="translate(-232.081)" fill-rule="evenodd" fill="url(#linear-gradient-2)"/>
  </g>
</svg>
