<svg width="215" height="82" viewBox="0 0 215 82" fill="none" xmlns="http://www.w3.org/2000/svg">
<g filter="url(#filter0_d)">
<circle cx="107.5" cy="37.5" r="27.5" fill="#FF6868"/>
</g>
<path d="M114.921 36.8889C114.921 38.8338 114.14 40.6991 112.748 42.0743C111.356 43.4496 109.469 44.2222 107.501 44.2222M107.501 44.2222C105.533 44.2222 103.645 43.4496 102.254 42.0743C100.862 40.6991 100.08 38.8338 100.08 36.8889M107.501 44.2222V48.4127M107.501 48.4127H103.26M107.501 48.4127H111.741M107.501 40.0318C106.657 40.0318 105.848 39.7006 105.252 39.1112C104.656 38.5218 104.32 37.7224 104.32 36.8889V30.6032C104.32 29.7696 104.656 28.9702 105.252 28.3808C105.848 27.7914 106.657 27.4603 107.501 27.4603C108.344 27.4603 109.153 27.7914 109.75 28.3808C110.346 28.9702 110.681 29.7696 110.681 30.6032V36.8889C110.681 37.7224 110.346 38.5218 109.75 39.1112C109.153 39.7006 108.344 40.0318 107.501 40.0318Z" stroke="white" stroke-width="2" stroke-linecap="round" stroke-linejoin="round"/>
<rect opacity="0.7" y="14" width="9" height="52" rx="4.5" fill="#FF6868"/>
<rect x="13" width="9" height="52" rx="4.5" fill="#FF6868"/>
<rect opacity="0.2" x="26" y="20" width="9" height="52" rx="4.5" fill="#FF6868"/>
<rect opacity="0.7" x="39" y="11" width="9" height="52" rx="4.5" fill="#FF6868"/>
<rect x="52" y="19" width="9" height="52" rx="4.5" fill="#FF6868"/>
<rect opacity="0.4" x="154" y="8" width="9" height="52" rx="4.5" fill="#FF6868"/>
<rect x="167" y="13" width="9" height="52" rx="4.5" fill="#FF6868"/>
<rect opacity="0.8" x="180" y="30" width="9" height="52" rx="4.5" fill="#FF6868"/>
<rect opacity="0.6" x="193" y="2" width="9" height="52" rx="4.5" fill="#FF6868"/>
<rect x="206" y="18" width="9" height="52" rx="4.5" fill="#FF6868"/>
<defs>
<filter id="filter0_d" x="72" y="2" width="71" height="71" filterUnits="userSpaceOnUse" color-interpolation-filters="sRGB">
<feFlood flood-opacity="0" result="BackgroundImageFix"/>
<feColorMatrix in="SourceAlpha" type="matrix" values="0 0 0 0 0 0 0 0 0 0 0 0 0 0 0 0 0 0 127 0"/>
<feOffset/>
<feGaussianBlur stdDeviation="4"/>
<feColorMatrix type="matrix" values="0 0 0 0 0 0 0 0 0 0 0 0 0 0 0 0 0 0 0.1 0"/>
<feBlend mode="normal" in2="BackgroundImageFix" result="effect1_dropShadow"/>
<feBlend mode="normal" in="SourceGraphic" in2="effect1_dropShadow" result="shape"/>
</filter>
</defs>
</svg>
