<svg width="347" height="137" viewBox="0 0 347 137" fill="none" xmlns="http://www.w3.org/2000/svg">
<g filter="url(#filter0_d)">
<rect x="15" y="15" width="317" height="107" rx="15" fill="white"/>
</g>
<path d="M134.136 74.176C136.728 74.176 138.136 72.768 138.136 70.912C138.136 68.944 136.616 68.208 134.424 67.696C132.616 67.264 131.672 66.912 131.672 65.888C131.672 65.008 132.536 64.224 133.768 64.224C134.888 64.224 135.992 64.72 136.92 65.568L137.848 64.352C136.792 63.424 135.528 62.8 133.832 62.8C131.624 62.8 130.024 64.192 130.024 66.032C130.024 68.016 131.512 68.688 133.752 69.216C135.592 69.632 136.504 70.032 136.504 71.072C136.504 71.952 135.72 72.752 134.2 72.752C132.712 72.752 131.56 72.144 130.584 71.216L129.608 72.416C130.776 73.536 132.296 74.176 134.136 74.176ZM140.858 64.352C141.37 64.352 141.802 63.904 141.802 63.392C141.802 62.896 141.37 62.448 140.858 62.448C140.314 62.448 139.898 62.896 139.898 63.392C139.898 63.904 140.314 64.352 140.858 64.352ZM140.058 74H141.642V65.728H140.058V74ZM150.221 65.728V67.056C149.597 66.128 148.541 65.536 147.293 65.536C145.117 65.536 143.533 67.152 143.533 69.456C143.533 71.76 145.117 73.392 147.293 73.392C148.541 73.392 149.565 72.832 150.221 71.888V73.088C150.221 74.528 149.149 75.376 147.373 75.376C146.381 75.376 145.389 75.04 144.781 74.464L144.157 75.648C144.941 76.288 146.221 76.752 147.613 76.752C150.061 76.752 151.805 75.248 151.805 73.12V65.728H150.221ZM147.693 72.016C146.221 72.016 145.181 70.96 145.181 69.456C145.181 67.968 146.221 66.912 147.693 66.912C149.165 66.912 150.221 67.968 150.221 69.456C150.221 70.96 149.165 72.016 147.693 72.016ZM158.376 65.536C157.256 65.536 156.248 66.112 155.752 66.928V65.728H154.168V74H155.752V68.64C155.88 67.664 156.872 66.912 158.024 66.912C159.144 66.912 159.928 67.776 159.928 69.008V74H161.48V68.736C161.48 66.864 160.2 65.536 158.376 65.536ZM167.538 72.784C166.114 72.784 165.106 71.792 164.898 70.416H171.41C171.41 67.456 169.954 65.536 167.426 65.536C165.138 65.536 163.298 67.36 163.298 69.84C163.298 72.384 165.25 74.192 167.554 74.192C168.722 74.192 170.162 73.696 170.898 72.912L169.906 71.888C169.41 72.4 168.402 72.784 167.538 72.784ZM167.49 66.944C168.914 66.944 169.698 67.872 169.874 69.152H164.914C165.17 67.808 166.21 66.944 167.49 66.944ZM179.614 62.816V67.152C178.974 66.144 177.95 65.536 176.67 65.536C174.494 65.536 172.862 67.328 172.862 69.856C172.862 72.4 174.494 74.192 176.67 74.192C177.95 74.192 178.974 73.584 179.614 72.56V74H181.182V62.816H179.614ZM177.054 72.816C175.534 72.816 174.462 71.584 174.462 69.856C174.462 68.128 175.534 66.912 177.054 66.912C178.542 66.912 179.614 68.128 179.614 69.856C179.614 71.584 178.542 72.816 177.054 72.816ZM192.728 65.536C191.448 65.536 190.424 66.144 189.784 67.152V62.816H188.216V74H189.784V72.56C190.424 73.584 191.448 74.192 192.728 74.192C194.904 74.192 196.536 72.4 196.536 69.856C196.536 67.328 194.904 65.536 192.728 65.536ZM192.344 72.816C190.856 72.816 189.784 71.584 189.784 69.856C189.784 68.128 190.856 66.912 192.344 66.912C193.864 66.912 194.936 68.128 194.936 69.856C194.936 71.584 193.864 72.816 192.344 72.816ZM199.905 76.88C201.089 76.864 201.969 76.24 202.561 74.752L206.209 65.728H204.561L202.049 72.256L199.393 65.728H197.697L201.249 74.048L200.833 74.928C200.561 75.408 200.209 75.568 199.697 75.568C199.377 75.568 199.009 75.488 198.689 75.312L198.337 76.528C198.769 76.752 199.345 76.88 199.905 76.88ZM212.798 74H218.222C220.19 74 221.598 72.768 221.598 71.008C221.598 69.792 220.862 68.8 219.582 68.176C220.574 67.616 221.15 66.896 221.15 65.744C221.15 64.144 219.854 63.008 218.014 63.008H212.798V74ZM214.414 67.584V64.432H217.614C218.718 64.432 219.502 65.104 219.502 66.016C219.502 66.928 218.718 67.584 217.614 67.584H214.414ZM214.414 72.576V68.96H217.854C219.086 68.96 219.95 69.712 219.95 70.768C219.95 71.824 219.086 72.576 217.854 72.576H214.414ZM223.574 74H225.142V62.816H223.574V74ZM231.369 74.192C233.721 74.192 235.705 72.208 235.705 69.856C235.705 67.504 233.721 65.536 231.369 65.536C229.001 65.536 227.001 67.504 227.001 69.856C227.001 72.208 229.001 74.192 231.369 74.192ZM231.369 72.816C229.849 72.816 228.585 71.472 228.585 69.856C228.585 68.256 229.849 66.912 231.369 66.912C232.857 66.912 234.121 68.256 234.121 69.856C234.121 71.472 232.857 72.816 231.369 72.816ZM241.462 74.192C242.694 74.192 243.766 73.68 244.566 72.864L243.494 71.888C242.982 72.464 242.246 72.816 241.478 72.816C239.958 72.816 238.71 71.472 238.71 69.856C238.71 68.256 239.958 66.912 241.462 66.912C242.23 66.912 242.95 67.248 243.446 67.808L244.518 66.816C243.734 66.032 242.662 65.536 241.478 65.536C239.11 65.536 237.11 67.504 237.11 69.856C237.11 72.208 239.11 74.192 241.462 74.192ZM253.781 65.728H251.861L247.813 69.952V62.816H246.245V74H247.813V71.872L249.141 70.528L251.733 74H253.621L250.213 69.472L253.781 65.728ZM258.994 74.192C260.226 74.192 261.298 73.68 262.098 72.864L261.026 71.888C260.514 72.464 259.778 72.816 259.01 72.816C257.49 72.816 256.242 71.472 256.242 69.856C256.242 68.256 257.49 66.912 258.994 66.912C259.762 66.912 260.482 67.248 260.978 67.808L262.05 66.816C261.266 66.032 260.194 65.536 259.01 65.536C256.642 65.536 254.642 67.504 254.642 69.856C254.642 72.208 256.642 74.192 258.994 74.192ZM268.001 65.536C266.865 65.536 265.857 66.128 265.361 66.96V62.816H263.793V74H265.361V68.864C265.361 67.792 266.401 66.912 267.649 66.912C268.769 66.912 269.553 67.776 269.553 69.008V74H271.105V68.736C271.105 66.864 269.825 65.536 268.001 65.536ZM276.843 65.536C275.931 65.536 274.891 65.776 273.707 66.368L274.283 67.536C275.003 67.168 275.803 66.848 276.619 66.848C278.267 66.848 278.747 67.952 278.747 68.992V69.248C277.947 68.976 277.067 68.8 276.251 68.8C274.427 68.8 272.939 69.904 272.939 71.552C272.939 73.168 274.235 74.192 275.995 74.192C277.003 74.192 278.139 73.728 278.747 72.864V74H280.299V68.992C280.299 66.944 279.067 65.536 276.843 65.536ZM276.299 72.944C275.259 72.944 274.459 72.4 274.459 71.504C274.459 70.608 275.387 69.984 276.491 69.984C277.307 69.984 278.075 70.096 278.747 70.304V71.408C278.475 72.432 277.323 72.944 276.299 72.944ZM283.374 64.352C283.886 64.352 284.318 63.904 284.318 63.392C284.318 62.896 283.886 62.448 283.374 62.448C282.83 62.448 282.414 62.896 282.414 63.392C282.414 63.904 282.83 64.352 283.374 64.352ZM282.574 74H284.158V65.728H282.574V74ZM290.657 65.536C289.537 65.536 288.529 66.112 288.033 66.928V65.728H286.449V74H288.033V68.64C288.161 67.664 289.153 66.912 290.305 66.912C291.425 66.912 292.209 67.776 292.209 69.008V74H293.761V68.736C293.761 66.864 292.481 65.536 290.657 65.536Z" fill="#5DC05B"/>
<path d="M68.084 69.7152L75.9421 77.5733L94.0448 59.4707" stroke="#82D781" stroke-width="4" stroke-linecap="round" stroke-linejoin="round"/>
<path d="M79.75 38.1651C80.2141 37.8971 80.7859 37.8971 81.25 38.1651L106.396 52.683C106.86 52.951 107.146 53.4462 107.146 53.9821V83.0179C107.146 83.5538 106.86 84.049 106.396 84.317L81.25 98.8349C80.7859 99.1029 80.2141 99.1029 79.75 98.8349L79.0915 99.9755L79.75 98.8349L54.6042 84.317C54.1401 84.049 53.8542 83.5538 53.8542 83.0179V53.982C53.8542 53.4462 54.1401 52.951 54.6042 52.683L79.75 38.1651Z" stroke="#70A2FF" stroke-width="3"/>
<defs>
<filter id="filter0_d" x="0" y="0" width="347" height="137" filterUnits="userSpaceOnUse" color-interpolation-filters="sRGB">
<feFlood flood-opacity="0" result="BackgroundImageFix"/>
<feColorMatrix in="SourceAlpha" type="matrix" values="0 0 0 0 0 0 0 0 0 0 0 0 0 0 0 0 0 0 127 0"/>
<feOffset/>
<feGaussianBlur stdDeviation="7.5"/>
<feColorMatrix type="matrix" values="0 0 0 0 0 0 0 0 0 0 0 0 0 0 0 0 0 0 0.1 0"/>
<feBlend mode="normal" in2="BackgroundImageFix" result="effect1_dropShadow"/>
<feBlend mode="normal" in="SourceGraphic" in2="effect1_dropShadow" result="shape"/>
</filter>
</defs>
</svg>
