<svg width="405" height="188" viewBox="0 0 405 188" fill="none" xmlns="http://www.w3.org/2000/svg">
<g filter="url(#filter0_d)">
<rect x="15" y="15" width="375" height="158" rx="20" fill="white"/>
</g>
<path d="M36 45.6913H37.3182V36.4698H36V45.6913ZM43.595 45.8523C44.8741 45.8523 46.0488 45.2886 46.8971 44.4027L45.9705 43.4899C45.3701 44.1611 44.5217 44.604 43.595 44.604C41.8069 44.604 40.2929 42.9933 40.2929 41.0738C40.2929 39.1678 41.8069 37.557 43.595 37.557C44.5217 37.557 45.3701 38 45.9705 38.6711L46.8971 37.7584C46.0488 36.8591 44.8741 36.3087 43.595 36.3087C41.076 36.3087 38.9356 38.4832 38.9356 41.0738C38.9356 43.6644 41.076 45.8523 43.595 45.8523ZM55.284 36.4698L52.1646 43.9463L49.0452 36.4698H47.5834L51.4337 45.6913H52.8955L56.7458 36.4698H55.284ZM66.1045 45.8523C67.3835 45.8523 68.5582 45.2886 69.4066 44.4027L68.4799 43.4899C67.8795 44.1611 67.0311 44.604 66.1045 44.604C64.3164 44.604 62.8024 42.9933 62.8024 41.0738C62.8024 39.1678 64.3164 37.557 66.1045 37.557C67.0311 37.557 67.8795 38 68.4799 38.6711L69.4066 37.7584C68.5582 36.8591 67.3835 36.3087 66.1045 36.3087C63.5855 36.3087 61.445 38.4832 61.445 41.0738C61.445 43.6644 63.5855 45.8523 66.1045 45.8523ZM73.7865 44.6711C72.6249 44.6711 71.8026 43.8389 71.633 42.6846H76.945C76.945 40.2013 75.7573 38.5906 73.6952 38.5906C71.8288 38.5906 70.3278 40.1208 70.3278 42.2013C70.3278 44.3356 71.9201 45.8523 73.7996 45.8523C74.7523 45.8523 75.927 45.4362 76.5274 44.7785L75.7182 43.9195C75.3136 44.349 74.4913 44.6711 73.7865 44.6711ZM73.7474 39.7718C74.909 39.7718 75.5485 40.5503 75.6921 41.6242H71.646C71.8548 40.4966 72.7032 39.7718 73.7474 39.7718ZM79.8001 40.0805V38.7517H78.508V45.6913H79.8001V41.745C79.9176 40.5369 80.9095 39.745 82.3061 39.745V38.5906C81.1445 38.5906 80.2308 39.1678 79.8001 40.0805ZM86.7252 44.443C86.5816 44.5906 86.3206 44.698 86.0334 44.698C85.6549 44.698 85.3417 44.349 85.3417 43.8658V39.8792H86.934V38.7517H85.3417V36.8456H84.0757V38.7517H83.0571V39.8792H84.0757V43.9597C84.0757 45.0738 84.8066 45.8523 85.8507 45.8523C86.3336 45.8523 86.8296 45.6644 87.195 45.3557L86.7252 44.443ZM89.1512 37.5973C89.5688 37.5973 89.9212 37.2215 89.9212 36.7919C89.9212 36.3758 89.5688 36 89.1512 36C88.7074 36 88.3681 36.3758 88.3681 36.7919C88.3681 37.2215 88.7074 37.5973 89.1512 37.5973ZM88.4986 45.6913H89.7907V38.7517H88.4986V45.6913ZM93.4349 37.9866C93.4349 37.5034 93.7481 37.1544 94.1266 37.1544C94.4137 37.1544 94.6748 37.2617 94.8184 37.4094L95.2882 36.5235C94.9228 36.2148 94.4268 36.0268 93.9439 36.0268C92.8997 36.0268 92.1688 36.8054 92.1688 37.9195V38.7517H91.1508V39.8792H92.1688V45.6913H93.4349V39.8792H95.0272V38.7517H93.4349V37.9866ZM97.0029 37.5973C97.4205 37.5973 97.7729 37.2215 97.7729 36.7919C97.7729 36.3758 97.4205 36 97.0029 36C96.5591 36 96.2198 36.3758 96.2198 36.7919C96.2198 37.2215 96.5591 37.5973 97.0029 37.5973ZM96.3503 45.6913H97.6424V38.7517H96.3503V45.6913ZM102.696 45.8523C103.701 45.8523 104.576 45.4228 105.228 44.7383L104.354 43.9195C103.936 44.4027 103.336 44.698 102.709 44.698C101.469 44.698 100.451 43.5705 100.451 42.2148C100.451 40.8725 101.469 39.745 102.696 39.745C103.323 39.745 103.91 40.0268 104.315 40.4966L105.189 39.6644C104.55 39.0067 103.675 38.5906 102.709 38.5906C100.778 38.5906 99.1461 40.2416 99.1461 42.2148C99.1461 44.1879 100.778 45.8523 102.696 45.8523ZM109.443 38.5906C108.699 38.5906 107.851 38.7919 106.885 39.2886L107.355 40.2685C107.942 39.9597 108.595 39.6913 109.261 39.6913C110.605 39.6913 110.997 40.6175 110.997 41.4899V41.7047C110.344 41.4765 109.626 41.3289 108.96 41.3289C107.473 41.3289 106.259 42.255 106.259 43.6376C106.259 44.9933 107.316 45.8523 108.752 45.8523C109.574 45.8523 110.501 45.4631 110.997 44.7383V45.6913H112.262V41.4899C112.262 39.7718 111.258 38.5906 109.443 38.5906ZM109 44.8054C108.151 44.8054 107.499 44.349 107.499 43.5973C107.499 42.8456 108.256 42.3221 109.156 42.3221C109.822 42.3221 110.448 42.4161 110.997 42.5906V43.5168C110.775 44.3758 109.835 44.8054 109 44.8054ZM117.29 44.443C117.146 44.5906 116.885 44.698 116.598 44.698C116.219 44.698 115.906 44.349 115.906 43.8658V39.8792H117.499V38.7517H115.906V36.8456H114.64V38.7517H113.622V39.8792H114.64V43.9597C114.64 45.0738 115.371 45.8523 116.415 45.8523C116.898 45.8523 117.394 45.6644 117.76 45.3557L117.29 44.443ZM122.169 44.6711C121.008 44.6711 120.186 43.8389 120.016 42.6846H125.328C125.328 40.2013 124.14 38.5906 122.078 38.5906C120.212 38.5906 118.711 40.1208 118.711 42.2013C118.711 44.3356 120.303 45.8523 122.182 45.8523C123.135 45.8523 124.31 45.4362 124.91 44.7785L124.101 43.9195C123.696 44.349 122.874 44.6711 122.169 44.6711ZM122.13 39.7718C123.292 39.7718 123.931 40.5503 124.075 41.6242H120.029C120.238 40.4966 121.086 39.7718 122.13 39.7718ZM129.266 45.8523C130.741 45.8523 131.824 45.0201 131.824 43.7047C131.824 42.3221 130.637 41.9463 129.527 41.6107C128.392 41.2483 127.974 41.0872 127.974 40.5503C127.974 40.0268 128.496 39.7315 129.162 39.7315C129.749 39.7315 130.428 39.9597 131.081 40.3758L131.655 39.396C130.924 38.8993 130.036 38.5906 129.162 38.5906C127.726 38.5906 126.695 39.4228 126.708 40.698C126.708 41.8255 127.478 42.2819 129.031 42.7248C129.867 42.9664 130.558 43.1678 130.558 43.8121C130.558 44.349 130.036 44.7114 129.279 44.7114C128.483 44.7114 127.713 44.4027 126.995 43.8658L126.382 44.8188C127.191 45.4899 128.274 45.8523 129.266 45.8523ZM140.807 38.5906C139.763 38.5906 138.927 39.1007 138.405 39.9463V38.7517H137.126V48H138.405V44.4832C138.927 45.3423 139.763 45.8523 140.807 45.8523C142.582 45.8523 143.913 44.349 143.913 42.2148C143.913 40.094 142.582 38.5906 140.807 38.5906ZM140.494 44.698C139.28 44.698 138.405 43.6644 138.405 42.2148C138.405 40.7651 139.28 39.745 140.494 39.745C141.733 39.745 142.608 40.7651 142.608 42.2148C142.608 43.6644 141.733 44.698 140.494 44.698ZM148.566 44.6711C147.404 44.6711 146.582 43.8389 146.413 42.6846H151.725C151.725 40.2013 150.537 38.5906 148.475 38.5906C146.608 38.5906 145.107 40.1208 145.107 42.2013C145.107 44.3356 146.7 45.8523 148.579 45.8523C149.532 45.8523 150.707 45.4362 151.307 44.7785L150.498 43.9195C150.093 44.349 149.271 44.6711 148.566 44.6711ZM148.527 39.7718C149.689 39.7718 150.328 40.5503 150.472 41.6242H146.426C146.634 40.4966 147.483 39.7718 148.527 39.7718ZM154.58 40.0805V38.7517H153.288V45.6913H154.58V41.745C154.697 40.5369 155.689 39.745 157.086 39.745V38.5906C155.924 38.5906 155.01 39.1678 154.58 40.0805ZM165.331 45.8389C167.445 45.8389 168.594 44.6577 168.594 43.1007C168.594 41.4497 167.354 40.8322 165.566 40.4027C164.091 40.0403 163.321 39.745 163.321 38.8859C163.321 38.1477 164.026 37.4899 165.031 37.4899C165.945 37.4899 166.845 37.906 167.602 38.6175L168.359 37.5973C167.498 36.8188 166.467 36.2953 165.083 36.2953C163.282 36.2953 161.977 37.4631 161.977 39.0067C161.977 40.6711 163.191 41.2349 165.018 41.6779C166.519 42.0268 167.263 42.3624 167.263 43.2349C167.263 43.9732 166.623 44.6443 165.383 44.6443C164.169 44.6443 163.23 44.1342 162.434 43.3557L161.637 44.3624C162.59 45.302 163.83 45.8389 165.331 45.8389ZM173.333 44.443C173.189 44.5906 172.928 44.698 172.641 44.698C172.263 44.698 171.949 44.349 171.949 43.8658V39.8792H173.542V38.7517H171.949V36.8456H170.683V38.7517H169.665V39.8792H170.683V43.9597C170.683 45.0738 171.414 45.8523 172.458 45.8523C172.941 45.8523 173.437 45.6644 173.803 45.3557L173.333 44.443ZM177.952 38.5906C177.208 38.5906 176.36 38.7919 175.394 39.2886L175.864 40.2685C176.451 39.9597 177.104 39.6913 177.769 39.6913C179.114 39.6913 179.505 40.6175 179.505 41.4899V41.7047C178.853 41.4765 178.135 41.3289 177.469 41.3289C175.981 41.3289 174.768 42.255 174.768 43.6376C174.768 44.9933 175.825 45.8523 177.26 45.8523C178.083 45.8523 179.009 45.4631 179.505 44.7383V45.6913H180.771V41.4899C180.771 39.7718 179.766 38.5906 177.952 38.5906ZM177.508 44.8054C176.66 44.8054 176.007 44.349 176.007 43.5973C176.007 42.8456 176.764 42.3221 177.665 42.3221C178.331 42.3221 178.957 42.4161 179.505 42.5906V43.5168C179.283 44.3758 178.344 44.8054 177.508 44.8054ZM185.798 44.443C185.655 44.5906 185.394 44.698 185.107 44.698C184.728 44.698 184.415 44.349 184.415 43.8658V39.8792H186.007V38.7517H184.415V36.8456H183.149V38.7517H182.131V39.8792H183.149V43.9597C183.149 45.0738 183.88 45.8523 184.924 45.8523C185.407 45.8523 185.903 45.6644 186.268 45.3557L185.798 44.443ZM192.232 38.7517V43.2483C192.127 44.0671 191.318 44.698 190.379 44.698C189.465 44.698 188.825 43.9732 188.825 42.9396V38.7517H187.559V43.1678C187.559 44.7383 188.604 45.8523 190.091 45.8523C191.005 45.8523 191.827 45.3691 192.232 44.6846V45.6913H193.524V38.7517H192.232ZM197.839 45.8523C199.314 45.8523 200.397 45.0201 200.397 43.7047C200.397 42.3221 199.21 41.9463 198.1 41.6107C196.965 41.2483 196.547 41.0872 196.547 40.5503C196.547 40.0268 197.069 39.7315 197.735 39.7315C198.322 39.7315 199.001 39.9597 199.653 40.3758L200.228 39.396C199.497 38.8993 198.609 38.5906 197.735 38.5906C196.299 38.5906 195.268 39.4228 195.281 40.698C195.281 41.8255 196.051 42.2819 197.604 42.7248C198.44 42.9664 199.131 43.1678 199.131 43.8121C199.131 44.349 198.609 44.7114 197.852 44.7114C197.056 44.7114 196.286 44.4027 195.568 43.8658L194.955 44.8188C195.764 45.4899 196.847 45.8523 197.839 45.8523ZM208.453 45.6913H209.81V42.0805L213.373 36.4698H211.846L209.131 40.7919L206.456 36.4698H204.863L208.453 42.0805V45.6913ZM217.024 45.6913H218.342V37.7315H221.292V36.4698H214.088V37.7315H217.024V45.6913ZM222.947 45.6913H226.04C228.938 45.6913 231 43.7718 231 41.0738C231 38.3758 228.938 36.4698 226.04 36.4698H222.947V45.6913ZM224.265 44.4564V37.7047H226.119C228.194 37.7047 229.643 39.1007 229.643 41.0738C229.643 43.0604 228.194 44.4564 226.119 44.4564H224.265Z" fill="black"/>
<path d="M39.0951 62.9877C40.9225 62.9877 41.8591 61.8934 41.8591 60.5533C41.8591 59.0656 40.7855 58.4877 39.2893 58.1066C37.953 57.7623 37.1764 57.4549 37.1764 56.582C37.1764 55.8074 37.8845 55.1189 38.8553 55.1189C39.6776 55.1189 40.4543 55.5246 41.1053 56.2008L41.6535 55.4508C40.9339 54.7377 40.0659 54.2459 38.901 54.2459C37.3934 54.2459 36.2741 55.3033 36.2741 56.6557C36.2741 58.1189 37.2678 58.6475 38.8439 59.041C40.2144 59.3853 40.9568 59.7418 40.9568 60.6393C40.9568 61.4016 40.34 62.1148 39.1294 62.1148C38.033 62.1148 37.2221 61.6107 36.5596 60.8975L36 61.6475C36.7881 62.4836 37.8045 62.9877 39.0951 62.9877ZM45.9397 61.918C45.814 62.0656 45.5856 62.1762 45.3229 62.1762C44.9803 62.1762 44.6833 61.8443 44.6833 61.3771V57.3197H46.1338V56.4959H44.6833V54.75H43.8268V56.4959H42.9017V57.3197H43.8268V61.3771C43.8268 62.3238 44.4207 63 45.2658 63C45.6656 63 46.0539 62.8525 46.3623 62.5943L45.9397 61.918ZM49.973 56.3484C49.4019 56.3484 48.6938 56.5082 47.8486 56.9631L48.1913 57.7131C48.7281 57.418 49.322 57.1353 49.9159 57.1353C51.195 57.1353 51.5148 58.1189 51.5148 58.9795V59.2131C50.9095 59.0041 50.2357 58.8566 49.5961 58.8566C48.3283 58.8566 47.2776 59.7049 47.2776 60.9713C47.2776 62.2254 48.1913 63 49.4362 63C50.2128 63 51.0923 62.6066 51.5148 61.8566V62.8525H52.3714V58.9795C52.3714 57.4426 51.5834 56.3484 49.973 56.3484ZM49.5847 62.1885C48.7509 62.1885 48.1113 61.7213 48.1113 60.9344C48.1113 60.1721 48.8537 59.6311 49.7331 59.6311C50.3727 59.6311 50.978 59.7295 51.5148 59.8894V60.8607C51.2864 61.7582 50.3613 62.1885 49.5847 62.1885ZM56.7139 61.918C56.5883 62.0656 56.3599 62.1762 56.0972 62.1762C55.7545 62.1762 55.4576 61.8443 55.4576 61.3771V57.3197H56.9081V56.4959H55.4576V54.75H54.601V56.4959H53.6759V57.3197H54.601V61.3771C54.601 62.3238 55.1949 63 56.0401 63C56.4398 63 56.8281 62.8525 57.1365 62.5943L56.7139 61.918ZM62.5061 56.4959V60.541C62.5061 61.4262 61.6723 62.1762 60.6787 62.1762C59.8107 62.1762 59.2054 61.4508 59.2054 60.418V56.4959H58.3488V60.541C58.3488 61.9795 59.2625 63 60.5645 63C61.3982 63 62.1634 62.5082 62.5061 61.832V62.8525H63.3627V56.4959H62.5061ZM67.1977 63C68.4198 63 69.3563 62.25 69.3563 61.082C69.3563 59.877 68.3741 59.5328 67.4262 59.2131C66.3297 58.832 65.8957 58.6598 65.8957 58.1066C65.8957 57.4918 66.4439 57.1721 67.1064 57.1721C67.6317 57.1721 68.2142 57.3689 68.8081 57.7746L69.2193 57.0615C68.5911 56.6189 67.8373 56.3484 67.1064 56.3484C65.93 56.3484 65.0391 57.0615 65.0391 58.2172C65.0391 59.1271 65.5873 59.582 67.015 60.0246C67.8145 60.2705 68.4997 60.4918 68.4997 61.1803C68.4997 61.7828 67.9744 62.1762 67.1977 62.1762C66.5467 62.1762 65.8729 61.9057 65.199 61.3771L64.7536 62.0533C65.4617 62.668 66.3754 63 67.1977 63ZM74.2919 62.8525H78.0266C79.3857 62.8525 80.3565 61.8934 80.3565 60.541C80.3565 59.6189 79.8312 58.8566 78.9289 58.3648C79.637 57.9221 80.0482 57.4057 80.0482 56.5082C80.0482 55.2787 79.1573 54.4057 77.8896 54.4057H74.2919V62.8525ZM75.1828 57.9836V55.2787H77.6612C78.5292 55.2787 79.1459 55.8443 79.1459 56.6311C79.1459 57.418 78.5292 57.9836 77.6612 57.9836H75.1828ZM75.1828 61.9795V58.8566H77.7982C78.769 58.8566 79.4543 59.5082 79.4543 60.418C79.4543 61.3279 78.769 61.9795 77.7982 61.9795H75.1828ZM82.808 57.7377V56.4959H81.9514V62.8525H82.808V59.2992C82.808 58.0574 83.756 57.1721 85.0922 57.1721V56.3484C84.0072 56.3484 83.1621 56.8893 82.808 57.7377ZM88.9379 62.1762C87.773 62.1762 86.9621 61.2664 86.8364 60.0246H91.6676C91.6676 57.7992 90.6511 56.3484 88.8694 56.3484C87.2818 56.3484 85.957 57.7623 85.957 59.6557C85.957 61.6107 87.3732 63 88.9493 63C89.7717 63 90.811 62.6189 91.3249 62.0164L90.7996 61.4139C90.4341 61.8443 89.6346 62.1762 88.9379 62.1762ZM88.9036 57.1721C90.08 57.1721 90.7082 58.0574 90.8224 59.2008H86.8478C87.0077 57.9713 87.8529 57.1721 88.9036 57.1721ZM95.4676 56.3484C94.8965 56.3484 94.1884 56.5082 93.3432 56.9631L93.6859 57.7131C94.2226 57.418 94.8165 57.1353 95.4104 57.1353C96.6896 57.1353 97.0094 58.1189 97.0094 58.9795V59.2131C96.4041 59.0041 95.7302 58.8566 95.0907 58.8566C93.8229 58.8566 92.7722 59.7049 92.7722 60.9713C92.7722 62.2254 93.6859 63 94.9308 63C95.7074 63 96.5868 62.6066 97.0094 61.8566V62.8525H97.866V58.9795C97.866 57.4426 97.0779 56.3484 95.4676 56.3484ZM95.0792 62.1885C94.2455 62.1885 93.6059 61.7213 93.6059 60.9344C93.6059 60.1721 94.3483 59.6311 95.2277 59.6311C95.8673 59.6311 96.4726 59.7295 97.0094 59.8894V60.8607C96.781 61.7582 95.8559 62.1885 95.0792 62.1885ZM104.79 56.4959H103.694L100.462 60.0123V54.2582H99.6053V62.8525H100.462V61.168L101.524 60.0369L103.568 62.8525H104.642L102.129 59.4098L104.79 56.4959ZM110.432 54.2582V57.6885C109.986 56.8525 109.233 56.3484 108.285 56.3484C106.731 56.3484 105.566 57.7254 105.566 59.668C105.566 61.6229 106.731 63 108.285 63C109.233 63 109.986 62.4959 110.432 61.6598V62.8525H111.288V54.2582H110.432ZM108.444 62.1762C107.291 62.1762 106.469 61.1311 106.469 59.668C106.469 58.2049 107.291 57.1721 108.444 57.1721C109.609 57.1721 110.432 58.2049 110.432 59.668C110.432 61.1311 109.609 62.1762 108.444 62.1762ZM115.842 63C117.498 63 118.892 61.4754 118.892 59.668C118.892 57.8607 117.498 56.3484 115.842 56.3484C114.186 56.3484 112.781 57.8607 112.781 59.668C112.781 61.4754 114.186 63 115.842 63ZM115.842 62.1762C114.666 62.1762 113.683 61.0328 113.683 59.668C113.683 58.3156 114.666 57.1721 115.842 57.1721C117.007 57.1721 117.989 58.3156 117.989 59.668C117.989 61.0328 117.007 62.1762 115.842 62.1762ZM121.59 62.8525H122.401L123.989 57.7746L125.553 62.8525H126.364L128.352 56.4959H127.438L125.965 61.623L124.354 56.4959H123.612L122.001 61.623L120.528 56.4959H119.614L121.59 62.8525ZM132.407 56.3484C131.573 56.3484 130.808 56.8402 130.465 57.5164V56.4959H129.609V62.8525H130.465V58.8074C130.465 57.9221 131.299 57.1721 132.293 57.1721C133.161 57.1721 133.766 57.8975 133.766 58.9303V62.8525H134.623V58.8074C134.623 57.3689 133.709 56.3484 132.407 56.3484ZM141.005 55.623C141.005 55.1557 141.302 54.8238 141.644 54.8238C141.907 54.8238 142.135 54.9344 142.261 55.082L142.683 54.4057C142.375 54.1475 141.987 54 141.587 54C140.742 54 140.148 54.6762 140.148 55.623V56.4959H139.223V57.3197H140.148V62.8525H141.005V57.3197H142.455V56.4959H141.005V55.623ZM146.413 63C148.069 63 149.463 61.4754 149.463 59.668C149.463 57.8607 148.069 56.3484 146.413 56.3484C144.757 56.3484 143.352 57.8607 143.352 59.668C143.352 61.4754 144.757 63 146.413 63ZM146.413 62.1762C145.237 62.1762 144.255 61.0328 144.255 59.668C144.255 58.3156 145.237 57.1721 146.413 57.1721C147.578 57.1721 148.56 58.3156 148.56 59.668C148.56 61.0328 147.578 62.1762 146.413 62.1762ZM151.814 57.7377V56.4959H150.957V62.8525H151.814V59.2992C151.814 58.0574 152.762 57.1721 154.098 57.1721V56.3484C153.013 56.3484 152.168 56.8893 151.814 57.7377ZM158.287 62.8525H163.701V61.9426H159.715L161.771 60.0246C163.096 58.7951 163.621 57.8853 163.621 56.7418C163.621 55.2295 162.479 54.2582 161.12 54.2582C159.886 54.2582 159.007 54.8852 158.356 55.8811L158.984 56.4344C159.521 55.6475 160.172 55.1189 161.085 55.1189C161.919 55.1189 162.719 55.7213 162.719 56.7541C162.719 57.5902 162.262 58.4016 161.154 59.4221L158.287 62.0533V62.8525ZM168.394 63C170.301 63 171.649 61.1926 171.649 58.623C171.649 56.0656 170.301 54.2582 168.394 54.2582C166.475 54.2582 165.128 56.0656 165.128 58.623C165.128 61.1926 166.475 63 168.394 63ZM168.394 62.1148C167.012 62.1148 166.03 60.6639 166.03 58.623C166.03 56.582 167.012 55.1434 168.394 55.1434C169.776 55.1434 170.747 56.582 170.747 58.623C170.747 60.6639 169.776 62.1148 168.394 62.1148ZM172.888 62.8525H178.301V61.9426H174.315L176.371 60.0246C177.696 58.7951 178.221 57.8853 178.221 56.7418C178.221 55.2295 177.079 54.2582 175.72 54.2582C174.486 54.2582 173.607 54.8852 172.956 55.8811L173.584 56.4344C174.121 55.6475 174.772 55.1189 175.686 55.1189C176.519 55.1189 177.319 55.7213 177.319 56.7541C177.319 57.5902 176.862 58.4016 175.754 59.4221L172.888 62.0533V62.8525ZM181.109 62.8525H182V54.4057H181.28L179.35 55.8197L179.739 56.5328L181.109 55.5738V62.8525Z" fill="#898989"/>
<path d="M57.5546 138.815H58.1935L55.9162 134.083H55.2773L53 138.815H53.6389L54.1575 137.741H57.036L57.5546 138.815ZM54.398 137.231L55.6005 134.744L56.7955 137.231H54.398ZM61.0334 135.171C60.4096 135.171 59.9136 135.454 59.6204 135.922V135.254H59.0568V140H59.6204V138.147C59.9136 138.615 60.4096 138.898 61.0334 138.898C62.0556 138.898 62.8222 138.126 62.8222 137.031C62.8222 135.943 62.0556 135.171 61.0334 135.171ZM60.9282 138.436C60.1616 138.436 59.6204 137.851 59.6204 137.031C59.6204 136.211 60.1616 135.633 60.9282 135.633C61.6873 135.633 62.2285 136.211 62.2285 137.031C62.2285 137.851 61.6873 138.436 60.9282 138.436ZM65.8264 135.171C65.2026 135.171 64.7066 135.454 64.4134 135.922V135.254H63.8498V140H64.4134V138.147C64.7066 138.615 65.2026 138.898 65.8264 138.898C66.8486 138.898 67.6152 138.126 67.6152 137.031C67.6152 135.943 66.8486 135.171 65.8264 135.171ZM65.7212 138.436C64.9546 138.436 64.4134 137.851 64.4134 137.031C64.4134 136.211 64.9546 135.633 65.7212 135.633C66.4803 135.633 67.0215 136.211 67.0215 137.031C67.0215 137.851 66.4803 138.436 65.7212 138.436ZM69.2065 135.949V135.254H68.6428V138.815H69.2065V136.824C69.2065 136.129 69.8303 135.633 70.7096 135.633V135.171C69.9956 135.171 69.4395 135.474 69.2065 135.949ZM73.1684 138.898C74.2582 138.898 75.1752 138.044 75.1752 137.031C75.1752 136.018 74.2582 135.171 73.1684 135.171C72.0786 135.171 71.1542 136.018 71.1542 137.031C71.1542 138.044 72.0786 138.898 73.1684 138.898ZM73.1684 138.436C72.3943 138.436 71.7479 137.796 71.7479 137.031C71.7479 136.273 72.3943 135.633 73.1684 135.633C73.935 135.633 74.5814 136.273 74.5814 137.031C74.5814 137.796 73.935 138.436 73.1684 138.436ZM77.2442 138.815H77.7853L79.4163 135.254H78.785L77.5148 138.209L76.222 135.254H75.5907L77.2442 138.815ZM81.6813 138.436C80.9146 138.436 80.381 137.927 80.2983 137.231H83.4776C83.4776 135.984 82.8086 135.171 81.6362 135.171C80.5915 135.171 79.7196 135.963 79.7196 137.024C79.7196 138.119 80.6516 138.898 81.6888 138.898C82.2299 138.898 82.9139 138.684 83.2521 138.347L82.9064 138.009C82.6658 138.25 82.1397 138.436 81.6813 138.436ZM81.6587 135.633C82.4328 135.633 82.8462 136.129 82.9214 136.769H80.3059C80.4111 136.08 80.9672 135.633 81.6587 135.633ZM87.4363 134V135.922C87.1432 135.454 86.6471 135.171 86.0233 135.171C85.0011 135.171 84.2345 135.943 84.2345 137.031C84.2345 138.126 85.0011 138.898 86.0233 138.898C86.6471 138.898 87.1432 138.615 87.4363 138.147V138.815H88V134H87.4363ZM86.1285 138.436C85.3694 138.436 84.8283 137.851 84.8283 137.031C84.8283 136.211 85.3694 135.633 86.1285 135.633C86.8952 135.633 87.4363 136.211 87.4363 137.031C87.4363 137.851 86.8952 138.436 86.1285 138.436Z" fill="black"/>
<path d="M195 139.902H196.802C198.495 139.902 199.692 138.73 199.692 137.082C199.692 135.434 198.495 134.27 196.802 134.27H195V139.902ZM195.606 139.32V134.852H196.802C198.138 134.852 199.078 135.779 199.078 137.082C199.078 138.393 198.138 139.32 196.802 139.32H195.606ZM201.414 136.492V135.664H200.831V139.902H201.414V137.533C201.414 136.705 202.059 136.115 202.967 136.115V135.566C202.23 135.566 201.655 135.926 201.414 136.492ZM205.404 135.566C205.016 135.566 204.534 135.672 203.959 135.975L204.193 136.475C204.558 136.279 204.962 136.09 205.365 136.09C206.235 136.09 206.453 136.746 206.453 137.32V137.475C206.041 137.336 205.583 137.238 205.148 137.238C204.286 137.238 203.571 137.803 203.571 138.648C203.571 139.484 204.193 140 205.039 140C205.567 140 206.166 139.738 206.453 139.238V139.902H207.036V137.32C207.036 136.295 206.5 135.566 205.404 135.566ZM205.14 139.459C204.573 139.459 204.138 139.148 204.138 138.623C204.138 138.115 204.643 137.754 205.241 137.754C205.676 137.754 206.088 137.82 206.453 137.926V138.574C206.298 139.172 205.668 139.459 205.14 139.459ZM209.135 135.082C209.135 134.77 209.337 134.549 209.57 134.549C209.749 134.549 209.904 134.623 209.989 134.721L210.277 134.27C210.067 134.098 209.803 134 209.531 134C208.956 134 208.552 134.451 208.552 135.082V135.664H207.923V136.213H208.552V139.902H209.135V136.213H210.122V135.664H209.135V135.082ZM212.713 139.279C212.627 139.377 212.472 139.451 212.293 139.451C212.06 139.451 211.858 139.23 211.858 138.918V136.213H212.845V135.664H211.858V134.5H211.276V135.664H210.646V136.213H211.276V138.918C211.276 139.549 211.679 140 212.254 140C212.526 140 212.79 139.902 213 139.73L212.713 139.279Z" fill="black"/>
<path d="M131.052 138.905C132.264 138.905 132.885 138.299 132.885 137.558C132.885 136.735 132.173 136.415 131.181 136.204C130.295 136.014 129.78 135.844 129.78 135.361C129.78 134.932 130.25 134.551 130.893 134.551C131.439 134.551 131.953 134.776 132.385 135.15L132.749 134.735C132.272 134.34 131.696 134.068 130.924 134.068C129.924 134.068 129.182 134.653 129.182 135.401C129.182 136.211 129.841 136.503 130.886 136.721C131.794 136.912 132.287 137.109 132.287 137.605C132.287 138.027 131.878 138.422 131.075 138.422C130.348 138.422 129.81 138.143 129.371 137.748L129 138.163C129.523 138.626 130.197 138.905 131.052 138.905ZM134.152 134.673C134.356 134.673 134.523 134.517 134.523 134.333C134.523 134.156 134.356 134 134.152 134C133.94 134 133.773 134.156 133.773 134.333C133.773 134.517 133.94 134.673 134.152 134.673ZM133.864 138.83H134.432V135.313H133.864V138.83ZM138.617 135.313V135.918C138.314 135.49 137.814 135.231 137.193 135.231C136.14 135.231 135.391 135.918 135.391 136.898C135.391 137.878 136.14 138.571 137.193 138.571C137.814 138.571 138.314 138.313 138.617 137.884V138.456C138.617 139.143 138.087 139.544 137.185 139.544C136.701 139.544 136.231 139.388 135.928 139.129L135.678 139.531C136.034 139.803 136.625 140 137.261 140C138.389 140 139.185 139.361 139.185 138.456V135.313H138.617ZM137.299 138.116C136.534 138.116 135.989 137.612 135.989 136.898C135.989 136.19 136.534 135.687 137.299 135.687C138.071 135.687 138.617 136.19 138.617 136.898C138.617 137.612 138.071 138.116 137.299 138.116ZM142.25 135.231C141.697 135.231 141.19 135.503 140.963 135.878V135.313H140.395V138.83H140.963V136.592C140.963 136.102 141.516 135.687 142.174 135.687C142.75 135.687 143.151 136.088 143.151 136.66V138.83H143.719V136.592C143.719 135.796 143.113 135.231 142.25 135.231ZM146.633 138.456C145.861 138.456 145.323 137.952 145.24 137.265H148.443C148.443 136.034 147.769 135.231 146.588 135.231C145.535 135.231 144.657 136.014 144.657 137.061C144.657 138.143 145.596 138.912 146.641 138.912C147.186 138.912 147.875 138.701 148.216 138.367L147.868 138.034C147.625 138.272 147.095 138.456 146.633 138.456ZM146.611 135.687C147.391 135.687 147.807 136.177 147.883 136.81H145.247C145.353 136.129 145.914 135.687 146.611 135.687ZM152.432 134.075V135.973C152.137 135.51 151.637 135.231 151.008 135.231C149.978 135.231 149.206 135.993 149.206 137.068C149.206 138.15 149.978 138.912 151.008 138.912C151.637 138.912 152.137 138.633 152.432 138.17V138.83H153V134.075H152.432ZM151.114 138.456C150.349 138.456 149.804 137.878 149.804 137.068C149.804 136.259 150.349 135.687 151.114 135.687C151.887 135.687 152.432 136.259 152.432 137.068C152.432 137.878 151.887 138.456 151.114 138.456Z" fill="black"/>
<path d="M129.487 95C131.981 95 133.973 93.647 133.973 91.4712C133.973 89.9353 132.882 88.82 131.461 88.2897C132.674 87.7961 133.679 86.8636 133.679 85.3643C133.679 83.2799 131.704 82 129.487 82C127.339 82 125.312 83.225 125.312 85.3643C125.312 86.7904 126.23 87.7412 127.529 88.2897C126.109 88.8017 125 89.917 125 91.4712C125 93.6287 126.975 95 129.487 95ZM129.487 87.5949C128.43 87.5218 127.061 86.8636 127.061 85.5654C127.061 84.4501 128.118 83.6273 129.487 83.6273C130.855 83.6273 131.929 84.4501 131.929 85.5654C131.929 86.827 130.578 87.5218 129.487 87.5949ZM129.487 93.3727C127.962 93.3727 126.767 92.5317 126.767 91.3066C126.767 89.9719 128.326 89.1674 129.487 89.1308C130.664 89.1674 132.206 89.9719 132.206 91.3066C132.206 92.5317 131.011 93.3727 129.487 93.3727ZM139.972 95C142.553 95 144.372 93.3362 144.372 90.7947C144.372 88.2897 142.57 86.8636 140.44 86.8636C139.383 86.8636 138.586 87.2293 137.962 87.6681L138.066 83.9381H143.731V82.2194H136.403L136.23 88.7834L137.46 89.3685C138.17 88.8017 139.019 88.4543 140.006 88.4543C141.548 88.4543 142.605 89.4233 142.605 90.8678C142.605 92.2757 141.565 93.3727 140.024 93.3727C138.759 93.3727 137.651 92.7145 136.732 91.7089L135.641 93.0253C136.663 94.1955 138.084 95 139.972 95ZM147.602 95C148.226 95 148.728 94.4332 148.728 93.7567C148.728 93.135 148.226 92.5682 147.602 92.5682C146.944 92.5682 146.442 93.135 146.442 93.7567C146.442 94.4332 146.944 95 147.602 95ZM152.117 94.7806H154.127L159.133 83.609V82.2194H150.818V83.9381H157.071L152.117 94.7806ZM163.439 94.7806H165.206V82.2194H163.785L160.65 84.4684L161.377 85.8031L163.439 84.4135V94.7806ZM170.334 88.436C171.997 88.436 173.175 87.0647 173.175 85.2729C173.175 83.5176 172.049 82.1097 170.351 82.1097C168.671 82.1097 167.51 83.4993 167.51 85.3094C167.51 87.0281 168.636 88.436 170.334 88.436ZM169 94.7806H170.369L178.562 82.2194H177.176L169 94.7806ZM170.351 87.2658C169.468 87.2658 168.81 86.4248 168.81 85.2911C168.81 84.121 169.433 83.2982 170.334 83.2982C171.217 83.2982 171.876 84.1392 171.876 85.2911C171.876 86.443 171.235 87.2658 170.351 87.2658ZM177.159 94.9634C178.822 94.9634 180 93.5921 180 91.782C180 90.0633 178.874 88.6371 177.176 88.6371C175.496 88.6371 174.335 90.0633 174.335 91.8003C174.335 93.5921 175.513 94.9634 177.159 94.9634ZM177.176 93.775C176.276 93.775 175.635 92.9339 175.635 91.782C175.635 90.6667 176.258 89.8073 177.159 89.8073C178.043 89.8073 178.701 90.6484 178.701 91.8003C178.701 92.9522 178.077 93.775 177.176 93.775Z" fill="#FFD178"/>
<path d="M126 105.598H126.595V100H126V105.598ZM129.657 101.288C129.1 101.288 128.589 101.614 128.36 102.062V101.385H127.788V105.598H128.36V102.917C128.36 102.331 128.917 101.834 129.581 101.834C130.161 101.834 130.565 102.314 130.565 102.999V105.598H131.137V102.917C131.137 101.964 130.527 101.288 129.657 101.288ZM134.531 105.598H135.126V103.586H136.659C137.742 103.586 138.589 102.844 138.589 101.793C138.589 100.742 137.742 100 136.659 100H134.531V105.598ZM135.126 102.983V100.603H136.552C137.407 100.603 137.987 101.043 137.987 101.793C137.987 102.542 137.407 102.983 136.552 102.983H135.126ZM140.043 102.208V101.385H139.471V105.598H140.043V103.243C140.043 102.42 140.676 101.834 141.569 101.834V101.288C140.844 101.288 140.28 101.646 140.043 102.208ZM144.065 105.696C145.171 105.696 146.102 104.686 146.102 103.488C146.102 102.29 145.171 101.288 144.065 101.288C142.959 101.288 142.02 102.29 142.02 103.488C142.02 104.686 142.959 105.696 144.065 105.696ZM144.065 105.15C143.279 105.15 142.623 104.392 142.623 103.488C142.623 102.591 143.279 101.834 144.065 101.834C144.843 101.834 145.499 102.591 145.499 103.488C145.499 104.392 144.843 105.15 144.065 105.15ZM150.114 101.385V102.111C149.809 101.597 149.305 101.288 148.679 101.288C147.619 101.288 146.864 102.111 146.864 103.284C146.864 104.458 147.619 105.289 148.679 105.289C149.305 105.289 149.809 104.979 150.114 104.466V105.15C150.114 105.973 149.58 106.454 148.672 106.454C148.184 106.454 147.711 106.267 147.405 105.957L147.154 106.438C147.512 106.764 148.107 107 148.748 107C149.885 107 150.686 106.234 150.686 105.15V101.385H150.114ZM148.786 104.743C148.016 104.743 147.466 104.14 147.466 103.284C147.466 102.437 148.016 101.834 148.786 101.834C149.564 101.834 150.114 102.437 150.114 103.284C150.114 104.14 149.564 104.743 148.786 104.743ZM152.522 102.208V101.385H151.95V105.598H152.522V103.243C152.522 102.42 153.156 101.834 154.048 101.834V101.288C153.324 101.288 152.759 101.646 152.522 102.208ZM156.618 105.15C155.84 105.15 155.298 104.547 155.214 103.724H158.441C158.441 102.249 157.762 101.288 156.572 101.288C155.511 101.288 154.626 102.225 154.626 103.48C154.626 104.775 155.572 105.696 156.625 105.696C157.175 105.696 157.869 105.444 158.212 105.044L157.861 104.645C157.617 104.93 157.083 105.15 156.618 105.15ZM156.595 101.834C157.381 101.834 157.8 102.42 157.877 103.178H155.222C155.328 102.363 155.893 101.834 156.595 101.834ZM160.773 105.696C161.59 105.696 162.215 105.199 162.215 104.425C162.215 103.626 161.559 103.398 160.926 103.186C160.194 102.934 159.904 102.82 159.904 102.453C159.904 102.045 160.27 101.834 160.712 101.834C161.063 101.834 161.452 101.964 161.849 102.233L162.124 101.76C161.704 101.467 161.201 101.288 160.712 101.288C159.927 101.288 159.332 101.76 159.332 102.526C159.332 103.129 159.698 103.431 160.651 103.724C161.185 103.887 161.643 104.034 161.643 104.49C161.643 104.889 161.292 105.15 160.773 105.15C160.339 105.15 159.888 104.971 159.438 104.62L159.141 105.069C159.614 105.476 160.224 105.696 160.773 105.696ZM164.558 105.696C165.374 105.696 166 105.199 166 104.425C166 103.626 165.344 103.398 164.711 103.186C163.978 102.934 163.688 102.82 163.688 102.453C163.688 102.045 164.055 101.834 164.497 101.834C164.848 101.834 165.237 101.964 165.634 102.233L165.908 101.76C165.489 101.467 164.985 101.288 164.497 101.288C163.711 101.288 163.116 101.76 163.116 102.526C163.116 103.129 163.482 103.431 164.436 103.724C164.97 103.887 165.428 104.034 165.428 104.49C165.428 104.889 165.077 105.15 164.558 105.15C164.123 105.15 163.673 104.971 163.223 104.62L162.925 105.069C163.398 105.476 164.009 105.696 164.558 105.696Z" fill="#898989"/>
<path d="M38.7843 93.7975H40.5483V82.2025H39.1302L36 84.2785L36.7263 85.5106L38.7843 84.2278V93.7975ZM48.781 93.7975H50.5276V91.1308H52.2397V89.6287H50.5276V82.2025H48.4524L42.6935 89.7637L42.8837 91.1308H48.781V93.7975ZM44.6131 89.6287L48.781 84.1435V89.6287H44.6131ZM55.3152 94C55.9378 94 56.4393 93.4768 56.4393 92.8523C56.4393 92.2785 55.9378 91.7553 55.3152 91.7553C54.658 91.7553 54.1565 92.2785 54.1565 92.8523C54.1565 93.4768 54.658 94 55.3152 94ZM58.3878 93.7975H66.8445V92.211H61.1548L63.9391 89.9156C65.9798 88.2954 66.7407 87.0633 66.7407 85.5106C66.7407 83.4008 64.9768 82 62.7631 82C60.8781 82 59.4773 82.8439 58.4396 84.2447L59.6156 85.2574C60.4457 84.211 61.3969 83.5359 62.6939 83.5359C63.8699 83.5359 64.9422 84.2785 64.9422 85.5443C64.9422 86.5907 64.3369 87.5865 62.7458 88.8861L58.3878 92.3966V93.7975ZM73.1345 82C70.6268 82 68.8283 83.6709 68.8283 85.8987C68.8283 88.1941 70.6441 89.5274 72.8232 89.5274C74.1375 89.5274 75.3308 88.9536 76.0571 87.9916C76.0052 90.557 74.639 92.4641 72.8232 92.4641C71.7336 92.4641 70.99 92.0084 70.2464 91.3502L69.3471 92.6667C70.2637 93.4599 71.3532 94 72.8059 94C75.7113 94 77.8384 91.3333 77.8384 87.8228C77.8384 84.5148 76.4376 82 73.1345 82ZM73.2382 88.0928C71.7855 88.0928 70.6268 87.2321 70.6268 85.8143C70.6268 84.6498 71.5953 83.4515 73.2036 83.4515C74.7601 83.4515 75.6075 84.5654 75.9188 86.2194C75.6075 87.3502 74.5526 88.0928 73.2382 88.0928ZM82.35 87.9409C84.0102 87.9409 85.1862 86.6751 85.1862 85.0211C85.1862 83.4008 84.0621 82.1013 82.3673 82.1013C80.6898 82.1013 79.5311 83.384 79.5311 85.0548C79.5311 86.6413 80.6552 87.9409 82.35 87.9409ZM81.0183 93.7975H82.3846L90.5646 82.2025H89.1811L81.0183 93.7975ZM82.3673 86.8608C81.4853 86.8608 80.8281 86.0844 80.8281 85.038C80.8281 83.9578 81.4507 83.1983 82.35 83.1983C83.232 83.1983 83.8891 83.9747 83.8891 85.038C83.8891 86.1013 83.2493 86.8608 82.3673 86.8608ZM89.1638 93.9663C90.824 93.9663 92 92.7004 92 91.0295C92 89.443 90.8759 88.1266 89.1811 88.1266C87.5036 88.1266 86.3449 89.443 86.3449 91.0464C86.3449 92.7004 87.5209 93.9663 89.1638 93.9663ZM89.1811 92.8692C88.2818 92.8692 87.6419 92.0928 87.6419 91.0295C87.6419 90 88.2645 89.2068 89.1638 89.2068C90.0458 89.2068 90.7029 89.9831 90.7029 91.0464C90.7029 92.1097 90.0804 92.8692 89.1811 92.8692Z" fill="#70A2FF"/>
<path d="M40.5546 105.618H41.1935L38.9162 100.096H38.2773L36 105.618H36.6389L37.1575 104.364H40.036L40.5546 105.618ZM37.398 103.769L38.6005 100.868L39.7955 103.769H37.398ZM44.0334 101.366C43.4096 101.366 42.9136 101.696 42.6204 102.242V101.463H42.0568V107H42.6204V104.838C42.9136 105.385 43.4096 105.714 44.0334 105.714C45.0556 105.714 45.8222 104.814 45.8222 103.536C45.8222 102.266 45.0556 101.366 44.0334 101.366ZM43.9282 105.176C43.1616 105.176 42.6204 104.493 42.6204 103.536C42.6204 102.58 43.1616 101.905 43.9282 101.905C44.6873 101.905 45.2285 102.58 45.2285 103.536C45.2285 104.493 44.6873 105.176 43.9282 105.176ZM48.8264 101.366C48.2026 101.366 47.7066 101.696 47.4134 102.242V101.463H46.8498V107H47.4134V104.838C47.7066 105.385 48.2026 105.714 48.8264 105.714C49.8486 105.714 50.6152 104.814 50.6152 103.536C50.6152 102.266 49.8486 101.366 48.8264 101.366ZM48.7212 105.176C47.9546 105.176 47.4134 104.493 47.4134 103.536C47.4134 102.58 47.9546 101.905 48.7212 101.905C49.4803 101.905 50.0215 102.58 50.0215 103.536C50.0215 104.493 49.4803 105.176 48.7212 105.176ZM52.2065 102.274V101.463H51.6428V105.618H52.2065V103.295C52.2065 102.483 52.8303 101.905 53.7096 101.905V101.366C52.9956 101.366 52.4395 101.72 52.2065 102.274ZM56.1684 105.714C57.2582 105.714 58.1752 104.718 58.1752 103.536C58.1752 102.355 57.2582 101.366 56.1684 101.366C55.0786 101.366 54.1542 102.355 54.1542 103.536C54.1542 104.718 55.0786 105.714 56.1684 105.714ZM56.1684 105.176C55.3943 105.176 54.7479 104.428 54.7479 103.536C54.7479 102.652 55.3943 101.905 56.1684 101.905C56.935 101.905 57.5814 102.652 57.5814 103.536C57.5814 104.428 56.935 105.176 56.1684 105.176ZM60.2442 105.618H60.7853L62.4163 101.463H61.785L60.5148 104.91L59.222 101.463H58.5907L60.2442 105.618ZM64.6813 105.176C63.9146 105.176 63.381 104.581 63.2983 103.769H66.4776C66.4776 102.315 65.8086 101.366 64.6362 101.366C63.5915 101.366 62.7196 102.29 62.7196 103.528C62.7196 104.806 63.6516 105.714 64.6888 105.714C65.2299 105.714 65.9139 105.465 66.2521 105.071L65.9064 104.677C65.6658 104.959 65.1397 105.176 64.6813 105.176ZM64.6587 101.905C65.4328 101.905 65.8462 102.483 65.9214 103.231H63.3059C63.4111 102.427 63.9672 101.905 64.6587 101.905ZM70.4363 100V102.242C70.1432 101.696 69.6471 101.366 69.0233 101.366C68.0011 101.366 67.2345 102.266 67.2345 103.536C67.2345 104.814 68.0011 105.714 69.0233 105.714C69.6471 105.714 70.1432 105.385 70.4363 104.838V105.618H71V100H70.4363ZM69.1285 105.176C68.3694 105.176 67.8283 104.493 67.8283 103.536C67.8283 102.58 68.3694 101.905 69.1285 101.905C69.8952 101.905 70.4363 102.58 70.4363 103.536C70.4363 104.493 69.8952 105.176 69.1285 105.176Z" fill="#898989"/>
<path d="M318 39C305.064 39 292.498 43.3622 282.303 51.3928C272.107 59.4234 264.865 70.662 261.73 83.3209C258.594 95.9798 259.745 109.333 264.998 121.256C270.251 133.18 279.306 142.99 290.722 149.126C302.139 155.263 315.261 157.374 328.004 155.123C340.746 152.873 352.378 146.39 361.047 136.706C369.717 127.021 374.928 114.692 375.852 101.677C376.776 88.6627 373.359 75.7099 366.145 64.8789L341.577 81.5256C345.109 86.8293 346.782 93.1724 346.33 99.5454C345.877 105.919 343.326 111.957 339.08 116.699C334.835 121.441 329.139 124.616 322.899 125.718C316.659 126.82 310.233 125.786 304.642 122.781C299.052 119.776 294.618 114.973 292.045 109.133C289.473 103.294 288.909 96.7553 290.444 90.5564C291.98 84.3576 295.526 78.8542 300.519 74.9214C305.512 70.9885 311.665 68.8526 318 68.8526V39Z" fill="#FFD178"/>
<path d="M318 39C325.614 39 333.154 40.5006 340.189 43.4154C347.224 46.3302 353.616 50.6031 359 55.9892L337.997 77C335.371 74.3733 332.253 72.2895 328.822 70.8677C325.391 69.4459 321.714 68.7142 318 68.7142V39Z" fill="#70A2FF"/>
<path d="M359.145 56C361.679 58.5163 363.973 61.2591 366 64.1929L341.343 81C340.355 79.569 339.235 78.2313 338 77.0036L359.145 56Z" fill="#FF6868"/>
<path d="M44.4615 131H38.5385C37.1365 131 36 132.137 36 133.538V139.462C36 140.863 37.1365 142 38.5385 142H44.4615C45.8635 142 47 140.863 47 139.462V133.538C47 132.137 45.8635 131 44.4615 131Z" fill="#70A2FF"/>
<path d="M120.462 131H114.538C113.137 131 112 132.137 112 133.538V139.462C112 140.863 113.137 142 114.538 142H120.462C121.863 142 123 140.863 123 139.462V133.538C123 132.137 121.863 131 120.462 131Z" fill="#FF6868"/>
<path d="M186.462 131H180.538C179.137 131 178 132.137 178 133.538V139.462C178 140.863 179.137 142 180.538 142H186.462C187.863 142 189 140.863 189 139.462V133.538C189 132.137 187.863 131 186.462 131Z" fill="#FFD178"/>
<defs>
<filter id="filter0_d" x="0" y="0" width="405" height="188" filterUnits="userSpaceOnUse" color-interpolation-filters="sRGB">
<feFlood flood-opacity="0" result="BackgroundImageFix"/>
<feColorMatrix in="SourceAlpha" type="matrix" values="0 0 0 0 0 0 0 0 0 0 0 0 0 0 0 0 0 0 127 0"/>
<feOffset/>
<feGaussianBlur stdDeviation="7.5"/>
<feColorMatrix type="matrix" values="0 0 0 0 0 0 0 0 0 0 0 0 0 0 0 0 0 0 0.1 0"/>
<feBlend mode="normal" in2="BackgroundImageFix" result="effect1_dropShadow"/>
<feBlend mode="normal" in="SourceGraphic" in2="effect1_dropShadow" result="shape"/>
</filter>
</defs>
</svg>
