<svg width="448" height="398" viewBox="0 0 448 398" fill="none" xmlns="http://www.w3.org/2000/svg">
<g filter="url(#filter0_d)">
<rect x="15" y="15" width="418" height="368" rx="20" fill="white"/>
</g>
<path d="M52.7482 48.1984C54.8565 48.1984 56.0018 47.0599 56.0018 45.5592C56.0018 43.9679 54.7654 43.3728 52.9824 42.9588C51.5118 42.6095 50.7439 42.3249 50.7439 41.4969C50.7439 40.7853 51.4467 40.1514 52.4488 40.1514C53.3599 40.1514 54.2579 40.5525 55.0127 41.2381L55.7676 40.2549C54.9086 39.5046 53.8804 39 52.5009 39C50.7049 39 49.4034 40.1255 49.4034 41.6133C49.4034 43.2175 50.6138 43.7609 52.4358 44.1878C53.9325 44.5242 54.6743 44.8476 54.6743 45.6885C54.6743 46.4001 54.0366 47.0469 52.8002 47.0469C51.5899 47.0469 50.6528 46.5553 49.859 45.805L49.0651 46.7753C50.0151 47.6809 51.2515 48.1984 52.7482 48.1984ZM57.6172 48.0561H58.9317V44.9641H61.3785C63.2656 44.9641 64.6972 43.7609 64.6972 42.0661C64.6972 40.3713 63.2656 39.1682 61.3785 39.1682H57.6172V48.0561ZM58.9317 43.748V40.3843H61.1963C62.4847 40.3843 63.3567 41.0182 63.3567 42.0661C63.3567 43.114 62.4847 43.748 61.1963 43.748H58.9317ZM71.9924 48.0561H73.2027L76.0399 41.3675H74.6473L72.591 46.5683L70.4957 41.3675H69.1031L71.9924 48.0561ZM79.6991 48.2113C81.1698 48.2113 82.25 47.4092 82.25 46.1413C82.25 44.8088 81.0657 44.4466 79.9594 44.1231C78.8272 43.7738 78.4107 43.6186 78.4107 43.1011C78.4107 42.5966 78.9313 42.3119 79.595 42.3119C80.1807 42.3119 80.8574 42.5319 81.5082 42.9329L82.0808 41.9885C81.352 41.5098 80.467 41.2123 79.595 41.2123C78.1634 41.2123 77.1353 42.0144 77.1483 43.2434C77.1483 44.3301 77.9161 44.77 79.4649 45.1969C80.2978 45.4298 80.9876 45.6239 80.9876 46.2449C80.9876 46.7623 80.467 47.1116 79.7121 47.1116C78.9183 47.1116 78.1504 46.8141 77.4346 46.2966L76.8229 47.2151C77.6298 47.862 78.71 48.2113 79.6991 48.2113ZM84.5541 48.2113C85.0226 48.2113 85.4 47.8103 85.4 47.3316C85.4 46.8917 85.0226 46.4907 84.5541 46.4907C84.0595 46.4907 83.6821 46.8917 83.6821 47.3316C83.6821 47.8103 84.0595 48.2113 84.5541 48.2113ZM91.1102 48.0561H92.4246V41.7298L95.5611 47.5386L98.6976 41.7298V48.0561H100.012V39.1682H98.6976L95.5611 44.977L92.4246 39.1682H91.1102V48.0561ZM108.698 40.3843V39.1682H102.126V48.0561H103.453V44.1878H108.191V42.9717H103.453V40.3843H108.698ZM122.797 43.6056C122.797 41.1088 120.689 39.0129 118.177 39.0129C115.665 39.0129 113.531 41.1088 113.531 43.6056C113.531 46.1025 115.665 48.2113 118.177 48.2113C119.244 48.2113 120.246 47.8232 121.04 47.1893L122.042 48.0561L122.797 47.1763L121.847 46.3613C122.446 45.585 122.797 44.6277 122.797 43.6056ZM118.177 47.0081C116.394 47.0081 114.884 45.4557 114.884 43.6056C114.884 41.7686 116.394 40.2161 118.177 40.2161C119.96 40.2161 121.457 41.7686 121.457 43.6056C121.457 44.3043 121.236 44.9641 120.871 45.5204L119.557 44.3819L118.802 45.2616L120.077 46.3613C119.544 46.7623 118.88 47.0081 118.177 47.0081ZM129 41.3675V45.7015C128.896 46.4906 128.089 47.0987 127.152 47.0987C126.241 47.0987 125.603 46.4001 125.603 45.4039V41.3675H124.341V45.6239C124.341 47.1375 125.382 48.2113 126.865 48.2113C127.776 48.2113 128.596 47.7456 129 47.0858V48.0561H130.288V41.3675H129ZM134.982 41.2123C134.24 41.2123 133.394 41.4063 132.431 41.885L132.899 42.8294C133.485 42.5319 134.136 42.2731 134.799 42.2731C136.14 42.2731 136.53 43.1658 136.53 44.0067V44.2137C135.88 43.9938 135.164 43.8515 134.5 43.8515C133.016 43.8515 131.806 44.7441 131.806 46.0767C131.806 47.3833 132.86 48.2113 134.292 48.2113C135.112 48.2113 136.036 47.8361 136.53 47.1375V48.0561H137.793V44.0067C137.793 42.3507 136.791 41.2123 134.982 41.2123ZM134.539 47.2022C133.693 47.2022 133.042 46.7623 133.042 46.0379C133.042 45.3134 133.797 44.8088 134.695 44.8088C135.359 44.8088 135.984 44.8994 136.53 45.0676V45.9602C136.309 46.7882 135.372 47.2022 134.539 47.2022ZM141.01 42.6483V41.3675H139.721V48.0561H141.01V44.2525C141.127 43.0882 142.116 42.3249 143.508 42.3249V41.2123C142.35 41.2123 141.439 41.7686 141.01 42.6483ZM147.915 46.8529C147.772 46.9952 147.511 47.0987 147.225 47.0987C146.848 47.0987 146.535 46.7623 146.535 46.2966V42.4542H148.123V41.3675H146.535V39.5304H145.273V41.3675H144.258V42.4542H145.273V46.3872C145.273 47.4609 146.002 48.2113 147.043 48.2113C147.524 48.2113 148.019 48.0302 148.383 47.7326L147.915 46.8529ZM152.781 47.0728C151.623 47.0728 150.803 46.2707 150.634 45.1581H155.931C155.931 42.7647 154.746 41.2123 152.69 41.2123C150.829 41.2123 149.332 42.6871 149.332 44.6924C149.332 46.7494 150.92 48.2113 152.794 48.2113C153.744 48.2113 154.916 47.8103 155.514 47.1763L154.707 46.3483C154.304 46.7623 153.484 47.0728 152.781 47.0728ZM152.742 42.3507C153.9 42.3507 154.538 43.1011 154.681 44.1361H150.647C150.855 43.0493 151.701 42.3507 152.742 42.3507ZM158.778 42.6483V41.3675H157.489V48.0561H158.778V44.2525C158.895 43.0882 159.884 42.3249 161.276 42.3249V41.2123C160.118 41.2123 159.207 41.7686 158.778 42.6483ZM162.533 48.0561H163.809V39.0129H162.533V48.0561ZM166.869 50.3848C167.833 50.3718 168.548 49.8673 169.03 48.6641L171.997 41.3675H170.657L168.613 46.6459L166.453 41.3675H165.073L167.963 48.0949L167.624 48.8064C167.403 49.1945 167.117 49.3239 166.7 49.3239C166.44 49.3239 166.141 49.2592 165.88 49.1169L165.594 50.1001C165.945 50.2813 166.414 50.3848 166.869 50.3848ZM184.242 48.0561H185.699L181.86 39.1682H180.402L176.563 48.0561H178.021L178.802 46.2449H183.461L184.242 48.0561ZM179.309 45.0676L181.131 40.85L182.953 45.0676H179.309ZM189.212 48.0561H190.423L193.26 41.3675H191.867L189.811 46.5683L187.715 41.3675H186.323L189.212 48.0561ZM197.124 47.0728C195.966 47.0728 195.146 46.2707 194.977 45.1581H200.274C200.274 42.7647 199.09 41.2123 197.033 41.2123C195.172 41.2123 193.676 42.6871 193.676 44.6924C193.676 46.7494 195.263 48.2113 197.137 48.2113C198.088 48.2113 199.259 47.8103 199.858 47.1763L199.051 46.3483C198.647 46.7623 197.827 47.0728 197.124 47.0728ZM197.085 42.3507C198.244 42.3507 198.881 43.1011 199.025 44.1361H194.99C195.198 43.0493 196.044 42.3507 197.085 42.3507ZM203.121 42.6483V41.3675H201.832V48.0561H203.121V44.2525C203.238 43.0882 204.227 42.3249 205.62 42.3249V41.2123C204.461 41.2123 203.55 41.7686 203.121 42.6483ZM209.701 41.2123C208.959 41.2123 208.113 41.4063 207.15 41.885L207.619 42.8294C208.204 42.5319 208.855 42.2731 209.519 42.2731C210.859 42.2731 211.25 43.1658 211.25 44.0067V44.2137C210.599 43.9938 209.883 43.8515 209.219 43.8515C207.736 43.8515 206.525 44.7441 206.525 46.0767C206.525 47.3833 207.579 48.2113 209.011 48.2113C209.831 48.2113 210.755 47.8361 211.25 47.1375V48.0561H212.512V44.0067C212.512 42.3507 211.51 41.2123 209.701 41.2123ZM209.258 47.2022C208.412 47.2022 207.762 46.7623 207.762 46.0379C207.762 45.3134 208.516 44.8088 209.415 44.8088C210.078 44.8088 210.703 44.8994 211.25 45.0676V45.9602C211.028 46.7882 210.091 47.2022 209.258 47.2022ZM219.49 41.3675V42.4413C218.982 41.6909 218.123 41.2123 217.108 41.2123C215.338 41.2123 214.05 42.5189 214.05 44.3819C214.05 46.2448 215.338 47.5645 217.108 47.5645C218.123 47.5645 218.956 47.1116 219.49 46.3483V47.3186C219.49 48.483 218.618 49.1687 217.173 49.1687C216.366 49.1687 215.56 48.897 215.065 48.4312L214.557 49.3886C215.195 49.9061 216.236 50.2813 217.369 50.2813C219.36 50.2813 220.778 49.0652 220.778 47.3445V41.3675H219.49ZM217.434 46.4518C216.236 46.4518 215.39 45.598 215.39 44.3819C215.39 43.1787 216.236 42.3249 217.434 42.3249C218.631 42.3249 219.49 43.1787 219.49 44.3819C219.49 45.598 218.631 46.4518 217.434 46.4518ZM225.785 47.0728C224.626 47.0728 223.806 46.2707 223.637 45.1581H228.934C228.934 42.7647 227.75 41.2123 225.694 41.2123C223.832 41.2123 222.336 42.6871 222.336 44.6924C222.336 46.7494 223.924 48.2113 225.798 48.2113C226.748 48.2113 227.919 47.8103 228.518 47.1763L227.711 46.3483C227.307 46.7623 226.487 47.0728 225.785 47.0728ZM225.746 42.3507C226.904 42.3507 227.542 43.1011 227.685 44.1361H223.65C223.858 43.0493 224.704 42.3507 225.746 42.3507ZM234.203 48.0561H235.518V39.1682H234.203V48.0561ZM241.777 48.2113C243.052 48.2113 244.224 47.6679 245.07 46.8141L244.145 45.9343C243.547 46.5812 242.701 47.0081 241.777 47.0081C239.994 47.0081 238.484 45.4557 238.484 43.6056C238.484 41.7686 239.994 40.2161 241.777 40.2161C242.701 40.2161 243.547 40.643 244.145 41.2899L245.07 40.4102C244.224 39.5434 243.052 39.0129 241.777 39.0129C239.265 39.0129 237.131 41.1088 237.131 43.6056C237.131 46.1025 239.265 48.2113 241.777 48.2113ZM253.432 39.1682L250.322 46.3742L247.211 39.1682H245.754L249.593 48.0561H251.051L254.89 39.1682H253.432ZM263.129 48.1984C265.237 48.1984 266.382 47.0599 266.382 45.5592C266.382 43.9679 265.146 43.3728 263.363 42.9588C261.892 42.6095 261.125 42.3249 261.125 41.4969C261.125 40.7853 261.827 40.1514 262.829 40.1514C263.74 40.1514 264.638 40.5525 265.393 41.2381L266.148 40.2549C265.289 39.5046 264.261 39 262.882 39C261.086 39 259.784 40.1255 259.784 41.6133C259.784 43.2175 260.994 43.7609 262.816 44.1878C264.313 44.5242 265.055 44.8476 265.055 45.6885C265.055 46.4001 264.417 47.0469 263.181 47.0469C261.97 47.0469 261.033 46.5553 260.24 45.805L259.446 46.7753C260.396 47.6809 261.632 48.1984 263.129 48.1984ZM271.134 48.2113C272.136 48.2113 273.008 47.7973 273.659 47.1375L272.787 46.3483C272.371 46.8141 271.772 47.0987 271.147 47.0987C269.911 47.0987 268.896 46.012 268.896 44.7053C268.896 43.4116 269.911 42.3249 271.134 42.3249C271.759 42.3249 272.345 42.5965 272.748 43.0494L273.62 42.2472C272.982 41.6133 272.11 41.2123 271.147 41.2123C269.221 41.2123 267.594 42.8035 267.594 44.7053C267.594 46.6071 269.221 48.2113 271.134 48.2113ZM278.087 48.2113C280 48.2113 281.614 46.6071 281.614 44.7053C281.614 42.8035 280 41.2123 278.087 41.2123C276.161 41.2123 274.534 42.8035 274.534 44.7053C274.534 46.6071 276.161 48.2113 278.087 48.2113ZM278.087 47.0987C276.85 47.0987 275.822 46.012 275.822 44.7053C275.822 43.4116 276.85 42.3249 278.087 42.3249C279.297 42.3249 280.325 43.4116 280.325 44.7053C280.325 46.012 279.297 47.0987 278.087 47.0987ZM284.475 42.6483V41.3675H283.186V48.0561H284.475V44.2525C284.592 43.0882 285.581 42.3249 286.974 42.3249V41.2123C285.815 41.2123 284.904 41.7686 284.475 42.6483ZM291.315 47.0728C290.157 47.0728 289.337 46.2707 289.168 45.1581H294.465C294.465 42.7647 293.28 41.2123 291.224 41.2123C289.363 41.2123 287.866 42.6871 287.866 44.6924C287.866 46.7494 289.454 48.2113 291.328 48.2113C292.278 48.2113 293.449 47.8103 294.048 47.1763L293.241 46.3483C292.838 46.7623 292.018 47.0728 291.315 47.0728ZM291.276 42.3507C292.434 42.3507 293.072 43.1011 293.215 44.1361H289.181C289.389 43.0493 290.235 42.3507 291.276 42.3507ZM302.207 48.0561H303.521V40.3843H306.462V39.1682H299.278V40.3843H302.207V48.0561ZM309.271 42.6483V41.3675H307.982V48.0561H309.271V44.2525C309.388 43.0882 310.377 42.3249 311.77 42.3249V41.2123C310.611 41.2123 309.7 41.7686 309.271 42.6483ZM316.111 47.0728C314.953 47.0728 314.133 46.2707 313.964 45.1581H319.261C319.261 42.7647 318.076 41.2123 316.02 41.2123C314.159 41.2123 312.662 42.6871 312.662 44.6924C312.662 46.7494 314.25 48.2113 316.124 48.2113C317.074 48.2113 318.245 47.8103 318.844 47.1763L318.037 46.3483C317.634 46.7623 316.814 47.0728 316.111 47.0728ZM316.072 42.3507C317.23 42.3507 317.868 43.1011 318.011 44.1361H313.977C314.185 43.0493 315.031 42.3507 316.072 42.3507ZM324.177 41.2123C323.266 41.2123 322.446 41.678 322.042 42.3378V41.3675H320.754V48.0561H322.042V43.7221C322.147 42.9329 322.953 42.3249 323.89 42.3249C324.801 42.3249 325.439 43.0235 325.439 44.0196V48.0561H326.702V43.7997C326.702 42.2861 325.66 41.2123 324.177 41.2123ZM333.725 39.0129V42.5189C333.204 41.7039 332.371 41.2123 331.33 41.2123C329.56 41.2123 328.232 42.6612 328.232 44.7053C328.232 46.7623 329.56 48.2113 331.33 48.2113C332.371 48.2113 333.204 47.7197 333.725 46.8917V48.0561H335V39.0129H333.725ZM331.642 47.0987C330.406 47.0987 329.534 46.1025 329.534 44.7053C329.534 43.3081 330.406 42.3249 331.642 42.3249C332.853 42.3249 333.725 43.3081 333.725 44.7053C333.725 46.1025 332.853 47.0987 331.642 47.0987ZM51.2775 58.4188C51.2775 57.953 51.5899 57.6167 51.9673 57.6167C52.2536 57.6167 52.5139 57.7202 52.6571 57.8625L53.1256 57.0086C52.7612 56.7111 52.2666 56.5299 51.7851 56.5299C50.7439 56.5299 50.0151 57.2803 50.0151 58.3541V59.1562H49V60.2429H50.0151V65.8448H51.2775V60.2429H52.8653V59.1562H51.2775V58.4188ZM57.3857 66C59.2988 66 60.9126 64.3958 60.9126 62.494C60.9126 60.5922 59.2988 59.001 57.3857 59.001C55.4595 59.001 53.8327 60.5922 53.8327 62.494C53.8327 64.3958 55.4595 66 57.3857 66ZM57.3857 64.8874C56.1493 64.8874 55.1212 63.8007 55.1212 62.494C55.1212 61.2003 56.1493 60.1136 57.3857 60.1136C58.5961 60.1136 59.6242 61.2003 59.6242 62.494C59.6242 63.8007 58.5961 64.8874 57.3857 64.8874ZM63.7742 60.437V59.1562H62.4858V65.8448H63.7742V62.0412C63.8913 60.8769 64.8805 60.1136 66.273 60.1136V59.001C65.1147 59.001 64.2037 59.5573 63.7742 60.437ZM77.8652 58.173V56.9569H71.2928V65.8448H72.6203V61.9765H77.3576V60.7604H72.6203V58.173H77.8652ZM82.0971 65.8448H83.4506V62.3646L87.0035 56.9569H85.4808L82.7738 61.1227L80.1058 56.9569H78.5181L82.0971 62.3646V65.8448ZM91.5174 65.8448H97.8815V64.6287H93.5997L95.6951 62.8692C97.2308 61.6272 97.8034 60.6828 97.8034 59.4926C97.8034 57.8754 96.476 56.8016 94.8101 56.8016C93.3915 56.8016 92.3373 57.4485 91.5565 58.5223L92.4414 59.2985C93.0661 58.4964 93.7819 57.9789 94.758 57.9789C95.643 57.9789 96.4499 58.5482 96.4499 59.5185C96.4499 60.3206 95.9944 61.0839 94.7971 62.08L91.5174 64.771V65.8448ZM103.188 66C105.413 66 107.001 64.0982 107.001 61.3943C107.001 58.7034 105.413 56.8016 103.188 56.8016C100.936 56.8016 99.3614 58.7034 99.3614 61.3943C99.3614 64.0982 100.936 66 103.188 66ZM103.188 64.7968C101.73 64.7968 100.702 63.3867 100.702 61.3943C100.702 59.402 101.73 58.0048 103.188 58.0048C104.632 58.0048 105.647 59.402 105.647 61.3943C105.647 63.3867 104.632 64.7968 103.188 64.7968ZM108.32 65.8448H114.684V64.6287H110.402L112.497 62.8692C114.033 61.6272 114.606 60.6828 114.606 59.4926C114.606 57.8754 113.278 56.8016 111.612 56.8016C110.194 56.8016 109.14 57.4485 108.359 58.5223L109.244 59.2985C109.868 58.4964 110.584 57.9789 111.56 57.9789C112.445 57.9789 113.252 58.5482 113.252 59.5185C113.252 60.3206 112.797 61.0839 111.599 62.08L108.32 64.771V65.8448ZM117.843 65.8448H119.17V56.9569H118.103L115.747 58.5482L116.294 59.4926L117.843 58.5093V65.8448ZM121.005 62.8951H124.441V61.7307H121.005V62.8951ZM125.745 65.8448H132.109V64.6287H127.827L129.922 62.8692C131.458 61.6272 132.031 60.6828 132.031 59.4926C132.031 57.8754 130.703 56.8016 129.037 56.8016C127.619 56.8016 126.564 57.4485 125.784 58.5223L126.669 59.2985C127.293 58.4964 128.009 57.9789 128.985 57.9789C129.87 57.9789 130.677 58.5482 130.677 59.5185C130.677 60.3206 130.222 61.0839 129.024 62.08L125.745 64.771V65.8448ZM137.414 66C139.64 66 141.228 64.0982 141.228 61.3943C141.228 58.7034 139.64 56.8016 137.414 56.8016C135.163 56.8016 133.588 58.7034 133.588 61.3943C133.588 64.0982 135.163 66 137.414 66ZM137.414 64.7968C135.957 64.7968 134.929 63.3867 134.929 61.3943C134.929 59.402 135.957 58.0048 137.414 58.0048C138.859 58.0048 139.874 59.402 139.874 61.3943C139.874 63.3867 138.859 64.7968 137.414 64.7968ZM142.546 65.8448H148.91V64.6287H144.629L146.724 62.8692C148.26 61.6272 148.832 60.6828 148.832 59.4926C148.832 57.8754 147.505 56.8016 145.839 56.8016C144.42 56.8016 143.366 57.4485 142.585 58.5223L143.47 59.2985C144.095 58.4964 144.811 57.9789 145.787 57.9789C146.672 57.9789 147.479 58.5482 147.479 59.5185C147.479 60.3206 147.023 61.0839 145.826 62.08L142.546 64.771V65.8448ZM154.217 66C156.442 66 158.03 64.0982 158.03 61.3943C158.03 58.7034 156.442 56.8016 154.217 56.8016C151.965 56.8016 150.39 58.7034 150.39 61.3943C150.39 64.0982 151.965 66 154.217 66ZM154.217 64.7968C152.759 64.7968 151.731 63.3867 151.731 61.3943C151.731 59.402 152.759 58.0048 154.217 58.0048C155.661 58.0048 156.676 59.402 156.676 61.3943C156.676 63.3867 155.661 64.7968 154.217 64.7968Z" fill="black"/>
<path d="M55.8455 77.76C55.8455 75.83 54.2875 74.21 52.4276 74.21C50.5775 74.21 49 75.83 49 77.76C49 79.69 50.5775 81.32 52.4276 81.32C53.2358 81.32 53.9856 81.01 54.5796 80.5L55.3586 81.2L55.8455 80.62L55.0957 79.95C55.5631 79.34 55.8455 78.58 55.8455 77.76ZM52.4276 80.6C50.9865 80.6 49.7693 79.3 49.7693 77.76C49.7693 76.23 50.9865 74.93 52.4276 74.93C53.8688 74.93 55.0762 76.23 55.0762 77.76C55.0762 78.39 54.8717 78.98 54.5407 79.45L53.4695 78.5L52.9827 79.08L54.0246 80.01C53.5767 80.38 53.0216 80.6 52.4276 80.6ZM60.6329 76.03V79.32C60.6329 80.04 59.9221 80.65 59.0749 80.65C58.3348 80.65 57.8188 80.06 57.8188 79.22V76.03H57.0884V79.32C57.0884 80.49 57.8674 81.32 58.9775 81.32C59.6884 81.32 60.3408 80.92 60.6329 80.37V81.2H61.3632V76.03H60.6329ZM64.8959 75.91C64.409 75.91 63.8053 76.04 63.0847 76.41L63.3768 77.02C63.8345 76.78 64.3408 76.55 64.8472 76.55C65.9378 76.55 66.2104 77.35 66.2104 78.05V78.24C65.6943 78.07 65.1198 77.95 64.5745 77.95C63.4937 77.95 62.5978 78.64 62.5978 79.67C62.5978 80.69 63.3768 81.32 64.4382 81.32C65.1004 81.32 65.8502 81 66.2104 80.39V81.2H66.9408V78.05C66.9408 76.8 66.2689 75.91 64.8959 75.91ZM64.5648 80.66C63.854 80.66 63.3087 80.28 63.3087 79.64C63.3087 79.02 63.9416 78.58 64.6914 78.58C65.2367 78.58 65.7528 78.66 66.2104 78.79V79.58C66.0157 80.31 65.2269 80.66 64.5648 80.66ZM69.2319 77.04V76.03H68.5016V81.2H69.2319V78.31C69.2319 77.3 70.0401 76.58 71.1794 76.58V75.91C70.2543 75.91 69.5337 76.35 69.2319 77.04ZM74.3997 80.44C74.2926 80.56 74.0979 80.65 73.8739 80.65C73.5818 80.65 73.3286 80.38 73.3286 80V76.7H74.5653V76.03H73.3286V74.61H72.5983V76.03H71.8095V76.7H72.5983V80C72.5983 80.77 73.1046 81.32 73.8252 81.32C74.166 81.32 74.4971 81.2 74.76 80.99L74.3997 80.44ZM78.0624 80.65C77.0692 80.65 76.3778 79.91 76.2707 78.9H80.3897C80.3897 77.09 79.5231 75.91 78.004 75.91C76.6505 75.91 75.5209 77.06 75.5209 78.6C75.5209 80.19 76.7284 81.32 78.0722 81.32C78.7733 81.32 79.6594 81.01 80.0976 80.52L79.6497 80.03C79.3381 80.38 78.6564 80.65 78.0624 80.65ZM78.0332 76.58C79.0362 76.58 79.5718 77.3 79.6691 78.23H76.2805C76.4168 77.23 77.1374 76.58 78.0332 76.58ZM82.3831 77.04V76.03H81.6528V81.2H82.3831V78.31C82.3831 77.3 83.1913 76.58 84.3306 76.58V75.91C83.4056 75.91 82.685 76.35 82.3831 77.04ZM85.3406 81.2H86.0709V74.21H85.3406V81.2ZM88.2966 83C88.988 82.99 89.4749 82.66 89.8254 81.78L92.1235 76.03H91.3347L89.6696 80.33L87.9071 76.03H87.0989L89.2898 81.22L88.9977 81.86C88.803 82.21 88.5887 82.32 88.2674 82.32C88.0532 82.32 87.8487 82.28 87.6734 82.19L87.4981 82.83C87.7318 82.94 88.0045 83 88.2966 83ZM96.3183 81.2H99.5025C100.661 81.2 101.489 80.42 101.489 79.32C101.489 78.57 101.041 77.95 100.272 77.55C100.875 77.19 101.226 76.77 101.226 76.04C101.226 75.04 100.466 74.33 99.3856 74.33H96.3183V81.2ZM97.0778 77.24V75.04H99.1909C99.9309 75.04 100.457 75.5 100.457 76.14C100.457 76.78 99.9309 77.24 99.1909 77.24H97.0778ZM97.0778 80.49V77.95H99.3077C100.135 77.95 100.72 78.48 100.72 79.22C100.72 79.96 100.135 80.49 99.3077 80.49H97.0778ZM103.579 77.04V76.03H102.849V81.2H103.579V78.31C103.579 77.3 104.387 76.58 105.527 76.58V75.91C104.601 75.91 103.881 76.35 103.579 77.04ZM108.806 80.65C107.813 80.65 107.121 79.91 107.014 78.9H111.133C111.133 77.09 110.267 75.91 108.748 75.91C107.394 75.91 106.264 77.06 106.264 78.6C106.264 80.19 107.472 81.32 108.816 81.32C109.517 81.32 110.403 81.01 110.841 80.52L110.393 80.03C110.082 80.38 109.4 80.65 108.806 80.65ZM108.777 76.58C109.78 76.58 110.315 77.3 110.413 78.23H107.024C107.16 77.23 107.881 76.58 108.777 76.58ZM114.373 75.91C113.886 75.91 113.282 76.04 112.562 76.41L112.854 77.02C113.312 76.78 113.818 76.55 114.324 76.55C115.415 76.55 115.688 77.35 115.688 78.05V78.24C115.172 78.07 114.597 77.95 114.052 77.95C112.971 77.95 112.075 78.64 112.075 79.67C112.075 80.69 112.854 81.32 113.915 81.32C114.578 81.32 115.327 81 115.688 80.39V81.2H116.418V78.05C116.418 76.8 115.746 75.91 114.373 75.91ZM114.042 80.66C113.331 80.66 112.786 80.28 112.786 79.64C112.786 79.02 113.419 78.58 114.169 78.58C114.714 78.58 115.23 78.66 115.688 78.79V79.58C115.493 80.31 114.704 80.66 114.042 80.66ZM122.321 76.03H121.386L118.63 78.89V74.21H117.9V81.2H118.63V79.83L119.536 78.91L121.279 81.2H122.194L120.052 78.4L122.321 76.03ZM127.131 74.21V77C126.752 76.32 126.109 75.91 125.301 75.91C123.976 75.91 122.983 77.03 122.983 78.61C122.983 80.2 123.976 81.32 125.301 81.32C126.109 81.32 126.752 80.91 127.131 80.23V81.2H127.862V74.21H127.131ZM125.437 80.65C124.454 80.65 123.752 79.8 123.752 78.61C123.752 77.42 124.454 76.58 125.437 76.58C126.43 76.58 127.131 77.42 127.131 78.61C127.131 79.8 126.43 80.65 125.437 80.65ZM131.744 81.32C133.156 81.32 134.344 80.08 134.344 78.61C134.344 77.14 133.156 75.91 131.744 75.91C130.332 75.91 129.135 77.14 129.135 78.61C129.135 80.08 130.332 81.32 131.744 81.32ZM131.744 80.65C130.741 80.65 129.904 79.72 129.904 78.61C129.904 77.51 130.741 76.58 131.744 76.58C132.737 76.58 133.575 77.51 133.575 78.61C133.575 79.72 132.737 80.65 131.744 80.65ZM136.645 81.2H137.336L138.69 77.07L140.024 81.2H140.715L142.41 76.03H141.631L140.374 80.2L139.001 76.03H138.369L136.996 80.2L135.739 76.03H134.96L136.645 81.2ZM145.866 75.91C145.156 75.91 144.503 76.31 144.211 76.86V76.03H143.481V81.2H144.211V77.91C144.211 77.19 144.922 76.58 145.769 76.58C146.509 76.58 147.025 77.17 147.025 78.01V81.2H147.756V77.91C147.756 76.74 146.977 75.91 145.866 75.91ZM153.197 75.32C153.197 74.94 153.451 74.67 153.743 74.67C153.967 74.67 154.161 74.76 154.269 74.88L154.629 74.33C154.366 74.12 154.035 74 153.694 74C152.973 74 152.467 74.55 152.467 75.32V76.03H151.678V76.7H152.467V81.2H153.197V76.7H154.434V76.03H153.197V75.32ZM157.809 81.32C159.221 81.32 160.409 80.08 160.409 78.61C160.409 77.14 159.221 75.91 157.809 75.91C156.397 75.91 155.199 77.14 155.199 78.61C155.199 80.08 156.397 81.32 157.809 81.32ZM157.809 80.65C156.806 80.65 155.968 79.72 155.968 78.61C155.968 77.51 156.806 76.58 157.809 76.58C158.802 76.58 159.64 77.51 159.64 78.61C159.64 79.72 158.802 80.65 157.809 80.65ZM162.413 77.04V76.03H161.683V81.2H162.413V78.31C162.413 77.3 163.222 76.58 164.361 76.58V75.91C163.436 75.91 162.715 76.35 162.413 77.04ZM167.932 81.2H172.548V80.46H169.15L170.902 78.9C172.032 77.9 172.48 77.16 172.48 76.23C172.48 75 171.506 74.21 170.347 74.21C169.296 74.21 168.546 74.72 167.991 75.53L168.526 75.98C168.984 75.34 169.539 74.91 170.318 74.91C171.029 74.91 171.711 75.4 171.711 76.24C171.711 76.92 171.321 77.58 170.377 78.41L167.932 80.55V81.2ZM176.549 81.32C178.175 81.32 179.324 79.85 179.324 77.76C179.324 75.68 178.175 74.21 176.549 74.21C174.913 74.21 173.764 75.68 173.764 77.76C173.764 79.85 174.913 81.32 176.549 81.32ZM176.549 80.6C175.371 80.6 174.533 79.42 174.533 77.76C174.533 76.1 175.371 74.93 176.549 74.93C177.727 74.93 178.555 76.1 178.555 77.76C178.555 79.42 177.727 80.6 176.549 80.6ZM180.381 81.2H184.996V80.46H181.598L183.35 78.9C184.48 77.9 184.928 77.16 184.928 76.23C184.928 75 183.954 74.21 182.795 74.21C181.744 74.21 180.994 74.72 180.439 75.53L180.975 75.98C181.432 75.34 181.987 74.91 182.766 74.91C183.477 74.91 184.159 75.4 184.159 76.24C184.159 76.92 183.769 77.58 182.825 78.41L180.381 80.55V81.2ZM187.39 81.2H188.15V74.33H187.536L185.891 75.48L186.222 76.06L187.39 75.28V81.2ZM189.615 78.85H192.137V78.12H189.615V78.85ZM193.161 81.2H197.777V80.46H194.378L196.131 78.9C197.261 77.9 197.709 77.16 197.709 76.23C197.709 75 196.735 74.21 195.576 74.21C194.524 74.21 193.775 74.72 193.219 75.53L193.755 75.98C194.213 75.34 194.768 74.91 195.547 74.91C196.258 74.91 196.939 75.4 196.939 76.24C196.939 76.92 196.55 77.58 195.605 78.41L193.161 80.55V81.2ZM201.777 81.32C203.404 81.32 204.553 79.85 204.553 77.76C204.553 75.68 203.404 74.21 201.777 74.21C200.142 74.21 198.992 75.68 198.992 77.76C198.992 79.85 200.142 81.32 201.777 81.32ZM201.777 80.6C200.599 80.6 199.762 79.42 199.762 77.76C199.762 76.1 200.599 74.93 201.777 74.93C202.956 74.93 203.783 76.1 203.783 77.76C203.783 79.42 202.956 80.6 201.777 80.6ZM205.608 81.2H210.224V80.46H206.826L208.578 78.9C209.708 77.9 210.156 77.16 210.156 76.23C210.156 75 209.182 74.21 208.023 74.21C206.972 74.21 206.222 74.72 205.667 75.53L206.202 75.98C206.66 75.34 207.215 74.91 207.994 74.91C208.705 74.91 209.387 75.4 209.387 76.24C209.387 76.92 208.997 77.58 208.053 78.41L205.608 80.55V81.2ZM214.225 81.32C215.851 81.32 217 79.85 217 77.76C217 75.68 215.851 74.21 214.225 74.21C212.589 74.21 211.44 75.68 211.44 77.76C211.44 79.85 212.589 81.32 214.225 81.32ZM214.225 80.6C213.047 80.6 212.209 79.42 212.209 77.76C212.209 76.1 213.047 74.93 214.225 74.93C215.403 74.93 216.231 76.1 216.231 77.76C216.231 79.42 215.403 80.6 214.225 80.6Z" fill="#898989"/>
<path d="M239 358.917H239.598V355.371L241.554 358.644L243.51 355.371V358.917H244.108V354.224H243.51L241.554 357.498L239.598 354.224H239V358.917ZM247.019 355.302C246.636 355.302 246.16 355.395 245.593 355.644L245.823 356.063C246.183 355.898 246.582 355.741 246.981 355.741C247.84 355.741 248.055 356.288 248.055 356.766V356.898C247.648 356.78 247.196 356.698 246.766 356.698C245.915 356.698 245.209 357.171 245.209 357.873C245.209 358.571 245.823 359 246.659 359C247.18 359 247.771 358.78 248.055 358.366V358.917H248.63V356.766C248.63 355.912 248.101 355.302 247.019 355.302ZM246.759 358.546C246.199 358.546 245.769 358.288 245.769 357.854C245.769 357.429 246.268 357.127 246.858 357.127C247.288 357.127 247.694 357.18 248.055 357.273V357.81C247.901 358.307 247.28 358.546 246.759 358.546ZM251.693 355.302C251.133 355.302 250.619 355.576 250.389 355.951V355.385H249.814V358.917H250.389V356.668C250.389 356.181 250.949 355.761 251.616 355.761C252.199 355.761 252.606 356.166 252.606 356.737V358.917H253.181V356.668C253.181 355.873 252.567 355.302 251.693 355.302ZM257.137 355.385V357.634C257.137 358.127 256.577 358.541 255.91 358.541C255.327 358.541 254.92 358.137 254.92 357.566V355.385H254.345V357.634C254.345 358.434 254.959 359 255.833 359C256.393 359 256.907 358.727 257.137 358.351V358.917H257.712V355.385H257.137ZM259.782 354.902C259.782 354.644 259.981 354.459 260.211 354.459C260.388 354.459 260.541 354.517 260.626 354.6L260.909 354.224C260.702 354.083 260.441 354 260.173 354C259.605 354 259.207 354.376 259.207 354.902V355.385H258.585V355.844H259.207V358.917H259.782V355.844H260.756V355.385H259.782V354.902ZM263.184 355.302C262.801 355.302 262.325 355.395 261.757 355.644L261.988 356.063C262.348 355.898 262.747 355.741 263.146 355.741C264.005 355.741 264.22 356.288 264.22 356.766V356.898C263.813 356.78 263.361 356.698 262.931 356.698C262.08 356.698 261.374 357.171 261.374 357.873C261.374 358.571 261.988 359 262.824 359C263.345 359 263.936 358.78 264.22 358.366V358.917H264.795V356.766C264.795 355.912 264.266 355.302 263.184 355.302ZM262.923 358.546C262.363 358.546 261.934 358.288 261.934 357.854C261.934 357.429 262.432 357.127 263.023 357.127C263.453 357.127 263.859 357.18 264.22 357.273V357.81C264.066 358.307 263.445 358.546 262.923 358.546ZM267.812 359C268.364 359 268.87 358.795 269.246 358.459L268.847 358.112C268.579 358.376 268.21 358.541 267.812 358.541C267.022 358.541 266.362 357.907 266.362 357.146C266.362 356.395 267.022 355.761 267.812 355.761C268.203 355.761 268.563 355.917 268.824 356.171L269.223 355.824C268.847 355.502 268.349 355.302 267.812 355.302C266.699 355.302 265.756 356.146 265.756 357.146C265.756 358.151 266.699 359 267.812 359ZM272.92 355.385V357.634C272.92 358.127 272.36 358.541 271.692 358.541C271.109 358.541 270.703 358.137 270.703 357.566V355.385H270.127V357.634C270.127 358.434 270.741 359 271.616 359C272.175 359 272.689 358.727 272.92 358.351V358.917H273.495V355.385H272.92ZM275.296 356.078V355.385H274.721V358.917H275.296V356.941C275.296 356.254 275.933 355.761 276.83 355.761V355.302C276.102 355.302 275.534 355.605 275.296 356.078ZM279.413 358.541C278.631 358.541 278.086 358.034 278.002 357.346H281.246C281.246 356.112 280.564 355.302 279.367 355.302C278.301 355.302 277.411 356.088 277.411 357.141C277.411 358.229 278.362 359 279.421 359C279.973 359 280.671 358.785 281.016 358.454L280.663 358.117C280.418 358.356 279.881 358.541 279.413 358.541ZM279.39 355.761C280.18 355.761 280.602 356.254 280.679 356.888H278.009C278.117 356.205 278.684 355.761 279.39 355.761ZM282.816 356.078V355.385H282.241V358.917H282.816V356.941C282.816 356.254 283.453 355.761 284.351 355.761V355.302C283.622 355.302 283.054 355.605 282.816 356.078ZM286.55 359C287.371 359 288 358.58 288 357.932C288 357.263 287.34 357.073 286.704 356.898C285.967 356.683 285.676 356.59 285.676 356.283C285.676 355.941 286.044 355.761 286.489 355.761C286.842 355.761 287.233 355.873 287.632 356.098L287.908 355.702C287.486 355.454 286.98 355.302 286.489 355.302C285.699 355.302 285.101 355.702 285.101 356.341C285.101 356.849 285.469 357.102 286.428 357.346C286.965 357.483 287.425 357.605 287.425 357.99C287.425 358.322 287.072 358.541 286.55 358.541C286.113 358.541 285.661 358.39 285.208 358.098L284.909 358.473C285.384 358.815 285.998 359 286.55 359Z" fill="black"/>
<path d="M331.072 358.99C332.295 358.99 332.922 358.377 332.922 357.62C332.922 356.784 332.203 356.458 331.202 356.245C330.307 356.047 329.787 355.874 329.787 355.385C329.787 354.95 330.261 354.559 330.911 354.559C331.462 354.559 331.981 354.791 332.417 355.172L332.784 354.747C332.303 354.346 331.722 354.069 330.942 354.069C329.933 354.069 329.183 354.663 329.183 355.424C329.183 356.25 329.849 356.547 330.904 356.77C331.821 356.962 332.318 357.165 332.318 357.67C332.318 358.1 331.905 358.5 331.095 358.5C330.361 358.5 329.818 358.219 329.375 357.813L329 358.238C329.527 358.708 330.208 358.99 331.072 358.99ZM335.699 358.535C334.919 358.535 334.377 358.021 334.292 357.323H337.526C337.526 356.072 336.846 355.251 335.653 355.251C334.591 355.251 333.704 356.047 333.704 357.116C333.704 358.219 334.652 359 335.707 359C336.257 359 336.953 358.782 337.297 358.446L336.945 358.105C336.701 358.347 336.165 358.535 335.699 358.535ZM335.676 355.716C336.464 355.716 336.884 356.216 336.96 356.859H334.3C334.407 356.166 334.973 355.716 335.676 355.716ZM339.091 356.038V355.335H338.518V358.916H339.091V356.913C339.091 356.216 339.726 355.716 340.62 355.716V355.251C339.894 355.251 339.328 355.558 339.091 356.038ZM342.721 358.916H343.271L344.93 355.335H344.288L342.996 358.308L341.681 355.335H341.039L342.721 358.916ZM346.004 354.687C346.21 354.687 346.378 354.524 346.378 354.341C346.378 354.158 346.21 354 346.004 354C345.79 354 345.622 354.158 345.622 354.341C345.622 354.524 345.79 354.687 346.004 354.687ZM345.713 358.916H346.287V355.335H345.713V358.916ZM349.273 359C349.823 359 350.328 358.792 350.703 358.451L350.305 358.1C350.037 358.367 349.671 358.535 349.273 358.535C348.486 358.535 347.828 357.892 347.828 357.121C347.828 356.359 348.486 355.716 349.273 355.716C349.663 355.716 350.022 355.874 350.282 356.132L350.68 355.78C350.305 355.454 349.808 355.251 349.273 355.251C348.165 355.251 347.224 356.107 347.224 357.121C347.224 358.139 348.165 359 349.273 359ZM353.363 358.535C352.583 358.535 352.04 358.021 351.956 357.323H355.19C355.19 356.072 354.51 355.251 353.317 355.251C352.255 355.251 351.368 356.047 351.368 357.116C351.368 358.219 352.316 359 353.371 359C353.921 359 354.617 358.782 354.961 358.446L354.609 358.105C354.364 358.347 353.829 358.535 353.363 358.535ZM353.34 355.716C354.128 355.716 354.548 356.216 354.624 356.859H351.964C352.071 356.166 352.637 355.716 353.34 355.716ZM358.368 358.916H358.964V357.205H360.501C361.587 357.205 362.435 356.577 362.435 355.682C362.435 354.791 361.587 354.158 360.501 354.158H358.368V358.916ZM358.964 356.695V354.673H360.394C361.25 354.673 361.831 355.044 361.831 355.682C361.831 356.32 361.25 356.695 360.394 356.695H358.964ZM363.892 356.038V355.335H363.319V358.916H363.892V356.913C363.892 356.216 364.527 355.716 365.421 355.716V355.251C364.695 355.251 364.129 355.558 363.892 356.038ZM367.922 359C369.031 359 369.963 358.139 369.963 357.121C369.963 356.107 369.031 355.251 367.922 355.251C366.814 355.251 365.873 356.107 365.873 357.121C365.873 358.139 366.814 359 367.922 359ZM367.922 358.535C367.135 358.535 366.477 357.892 366.477 357.121C366.477 356.359 367.135 355.716 367.922 355.716C368.702 355.716 369.359 356.359 369.359 357.121C369.359 357.892 368.702 358.535 367.922 358.535ZM372.068 358.916H372.619L374.278 355.335H373.635L372.343 358.308L371.029 355.335H370.386L372.068 358.916ZM375.351 354.687C375.558 354.687 375.726 354.524 375.726 354.341C375.726 354.158 375.558 354 375.351 354C375.137 354 374.969 354.158 374.969 354.341C374.969 354.524 375.137 354.687 375.351 354.687ZM375.061 358.916H375.634V355.335H375.061V358.916ZM379.874 354.074V356.008C379.576 355.538 379.071 355.251 378.437 355.251C377.397 355.251 376.618 356.028 376.618 357.121C376.618 358.224 377.397 359 378.437 359C379.071 359 379.576 358.713 379.874 358.243V358.916H380.448V354.074H379.874ZM378.544 358.535C377.772 358.535 377.221 357.947 377.221 357.121C377.221 356.3 377.772 355.716 378.544 355.716C379.324 355.716 379.874 356.3 379.874 357.121C379.874 357.947 379.324 358.535 378.544 358.535ZM383.442 358.535C382.662 358.535 382.12 358.021 382.036 357.323H385.269C385.269 356.072 384.589 355.251 383.396 355.251C382.334 355.251 381.447 356.047 381.447 357.116C381.447 358.219 382.395 359 383.45 359C384 359 384.696 358.782 385.04 358.446L384.688 358.105C384.444 358.347 383.908 358.535 383.442 358.535ZM383.419 355.716C384.207 355.716 384.627 356.216 384.704 356.859H382.043C382.15 356.166 382.716 355.716 383.419 355.716ZM386.834 356.038V355.335H386.261V358.916H386.834V356.913C386.834 356.216 387.469 355.716 388.363 355.716V355.251C387.637 355.251 387.071 355.558 386.834 356.038ZM390.555 359C391.373 359 392 358.575 392 357.917C392 357.239 391.343 357.046 390.708 356.868C389.974 356.651 389.684 356.557 389.684 356.245C389.684 355.899 390.051 355.716 390.494 355.716C390.846 355.716 391.236 355.83 391.633 356.057L391.908 355.657C391.488 355.405 390.983 355.251 390.494 355.251C389.707 355.251 389.11 355.657 389.11 356.305C389.11 356.819 389.477 357.076 390.433 357.323C390.968 357.462 391.427 357.586 391.427 357.976C391.427 358.313 391.075 358.535 390.555 358.535C390.119 358.535 389.668 358.382 389.217 358.085L388.919 358.466C389.393 358.812 390.005 359 390.555 359Z" fill="black"/>
<path d="M168.094 116C171.13 116 173.269 114.208 173.269 111.471C173.269 108.774 171.15 107.238 168.644 107.238C167.401 107.238 166.464 107.631 165.73 108.104L165.853 104.087H172.515V102.236H163.897L163.693 109.305L165.139 109.935C165.975 109.325 166.973 108.951 168.135 108.951C169.948 108.951 171.191 109.994 171.191 111.55C171.191 113.066 169.968 114.248 168.155 114.248C166.668 114.248 165.364 113.539 164.284 112.456L163 113.873C164.202 115.134 165.873 116 168.094 116ZM181.429 116C184.913 116 187.399 113.105 187.399 108.99C187.399 104.895 184.913 102 181.429 102C177.904 102 175.438 104.895 175.438 108.99C175.438 113.105 177.904 116 181.429 116ZM181.429 114.169C179.147 114.169 177.537 112.023 177.537 108.99C177.537 105.958 179.147 103.831 181.429 103.831C183.69 103.831 185.28 105.958 185.28 108.99C185.28 112.023 183.69 114.169 181.429 114.169ZM191.236 116C191.97 116 192.56 115.39 192.56 114.661C192.56 113.992 191.97 113.381 191.236 113.381C190.462 113.381 189.871 113.992 189.871 114.661C189.871 115.39 190.462 116 191.236 116ZM200.907 107.218C199.358 107.218 197.952 107.887 197.097 109.01C197.158 106.017 198.767 103.792 200.907 103.792C202.19 103.792 203.067 104.323 203.943 105.091L205.002 103.556C203.922 102.63 202.639 102 200.927 102C197.504 102 194.998 105.111 194.998 109.207C194.998 113.066 196.648 116 200.54 116C203.494 116 205.613 114.051 205.613 111.451C205.613 108.774 203.474 107.218 200.907 107.218ZM200.458 114.307C198.625 114.307 197.626 113.007 197.26 111.077C197.626 109.758 198.869 108.892 200.418 108.892C202.129 108.892 203.494 109.896 203.494 111.55C203.494 112.909 202.353 114.307 200.458 114.307ZM212.825 116C215.861 116 218 114.208 218 111.471C218 108.774 215.881 107.238 213.375 107.238C212.132 107.238 211.195 107.631 210.461 108.104L210.583 104.087H217.246V102.236H208.627L208.424 109.305L209.87 109.935C210.706 109.325 211.704 108.951 212.865 108.951C214.679 108.951 215.922 109.994 215.922 111.55C215.922 113.066 214.699 114.248 212.886 114.248C211.398 114.248 210.094 113.539 209.014 112.456L207.731 113.873C208.933 115.134 210.604 116 212.825 116Z" fill="#FF6868"/>
<path d="M168.465 127.635H169.231L166.499 122.183H165.732L163 127.635H163.767L164.389 126.397H167.843L168.465 127.635ZM164.677 125.81L166.12 122.944L167.554 125.81H164.677ZM171.746 127.635H172.395L174.352 123.532H173.595L172.071 126.937L170.52 123.532H169.762L171.746 127.635ZM178.911 123.532V124.238C178.55 123.738 177.955 123.437 177.215 123.437C175.962 123.437 175.069 124.238 175.069 125.381C175.069 126.524 175.962 127.333 177.215 127.333C177.955 127.333 178.55 127.032 178.911 126.532V127.198C178.911 128 178.28 128.468 177.206 128.468C176.629 128.468 176.07 128.286 175.709 127.984L175.412 128.452C175.836 128.77 176.539 129 177.297 129C178.64 129 179.587 128.254 179.587 127.198V123.532H178.911ZM177.342 126.802C176.431 126.802 175.782 126.214 175.782 125.381C175.782 124.556 176.431 123.968 177.342 123.968C178.262 123.968 178.911 124.556 178.911 125.381C178.911 126.214 178.262 126.802 177.342 126.802ZM181.487 127.73C181.749 127.73 181.965 127.532 181.965 127.294C181.965 127.071 181.749 126.873 181.487 126.873C181.208 126.873 180.991 127.071 180.991 127.294C180.991 127.532 181.208 127.73 181.487 127.73ZM188.088 127.722C189.531 127.722 190.271 127.016 190.271 126.151C190.271 125.19 189.423 124.817 188.242 124.571C187.187 124.349 186.573 124.151 186.573 123.587C186.573 123.087 187.133 122.643 187.899 122.643C188.548 122.643 189.162 122.905 189.676 123.341L190.108 122.857C189.54 122.397 188.855 122.079 187.935 122.079C186.745 122.079 185.861 122.762 185.861 123.635C185.861 124.579 186.646 124.921 187.89 125.175C188.972 125.397 189.558 125.627 189.558 126.206C189.558 126.698 189.071 127.159 188.116 127.159C187.25 127.159 186.61 126.833 186.087 126.373L185.645 126.857C186.267 127.397 187.069 127.722 188.088 127.722ZM193.547 127.198C192.627 127.198 191.987 126.611 191.888 125.81H195.702C195.702 124.373 194.9 123.437 193.493 123.437C192.239 123.437 191.193 124.349 191.193 125.571C191.193 126.833 192.311 127.73 193.556 127.73C194.205 127.73 195.026 127.484 195.432 127.095L195.017 126.706C194.728 126.984 194.097 127.198 193.547 127.198ZM193.52 123.968C194.449 123.968 194.945 124.54 195.035 125.278H191.897C192.023 124.484 192.69 123.968 193.52 123.968ZM197.548 124.333V123.532H196.872V127.635H197.548V125.341C197.548 124.54 198.297 123.968 199.352 123.968V123.437C198.495 123.437 197.828 123.786 197.548 124.333ZM201.829 127.635H202.478L204.435 123.532H203.678L202.154 126.937L200.603 123.532H199.845L201.829 127.635ZM205.702 122.786C205.946 122.786 206.144 122.603 206.144 122.389C206.144 122.183 205.946 122 205.702 122C205.45 122 205.251 122.183 205.251 122.389C205.251 122.603 205.45 122.786 205.702 122.786ZM205.36 127.635H206.036V123.532H205.36V127.635ZM209.559 127.73C210.208 127.73 210.803 127.492 211.245 127.103L210.776 126.698C210.461 127.008 210.028 127.198 209.559 127.198C208.63 127.198 207.854 126.46 207.854 125.579C207.854 124.706 208.63 123.968 209.559 123.968C210.019 123.968 210.443 124.151 210.749 124.444L211.218 124.04C210.776 123.667 210.19 123.437 209.559 123.437C208.251 123.437 207.142 124.413 207.142 125.579C207.142 126.746 208.251 127.73 209.559 127.73ZM214.383 127.198C213.464 127.198 212.823 126.611 212.724 125.81H216.539C216.539 124.373 215.736 123.437 214.329 123.437C213.076 123.437 212.03 124.349 212.03 125.571C212.03 126.833 213.148 127.73 214.392 127.73C215.042 127.73 215.862 127.484 216.268 127.095L215.853 126.706C215.565 126.984 214.934 127.198 214.383 127.198ZM214.356 123.968C215.285 123.968 215.781 124.54 215.871 125.278H212.733C212.859 124.484 213.527 123.968 214.356 123.968ZM219.296 127.73C220.261 127.73 221 127.246 221 126.492C221 125.714 220.224 125.492 219.476 125.286C218.61 125.04 218.268 124.929 218.268 124.571C218.268 124.175 218.7 123.968 219.223 123.968C219.638 123.968 220.098 124.095 220.567 124.357L220.892 123.897C220.396 123.611 219.801 123.437 219.223 123.437C218.295 123.437 217.591 123.897 217.591 124.643C217.591 125.23 218.024 125.524 219.151 125.81C219.783 125.968 220.324 126.111 220.324 126.556C220.324 126.944 219.909 127.198 219.296 127.198C218.782 127.198 218.25 127.024 217.717 126.683L217.366 127.119C217.925 127.516 218.646 127.73 219.296 127.73Z" fill="#898989"/>
<path d="M54.321 117C57.3821 117 59.416 115.346 59.416 113.062C59.416 111.172 57.8752 110.148 56.396 109.833C57.8752 109.399 59.1079 108.356 59.1079 106.682C59.1079 104.516 57.115 103 54.2594 103C51.9584 103 50.3559 104.024 49.2671 105.383L50.5614 106.603C51.5475 105.501 52.6364 104.792 54.1156 104.792C55.7591 104.792 56.9918 105.698 56.9918 106.958C56.9918 108.316 55.7386 109.065 53.9512 109.065L52.4104 109.045V110.817H53.9512C56.0673 110.797 57.2794 111.526 57.2794 112.924C57.2794 114.283 56.1084 115.208 54.2799 115.208C52.6569 115.208 51.2804 114.48 50.3354 113.377L49 114.696C50.0889 115.996 51.9173 117 54.321 117ZM67.609 117C71.1221 117 73.6285 114.105 73.6285 109.99C73.6285 105.895 71.1221 103 67.609 103C64.0548 103 61.5689 105.895 61.5689 109.99C61.5689 114.105 64.0548 117 67.609 117ZM67.609 115.169C65.308 115.169 63.685 113.023 63.685 109.99C63.685 106.958 65.308 104.831 67.609 104.831C69.8894 104.831 71.4919 106.958 71.4919 109.99C71.4919 113.023 69.8894 115.169 67.609 115.169ZM77.4968 117C78.2364 117 78.8322 116.39 78.8322 115.661C78.8322 114.992 78.2364 114.381 77.4968 114.381C76.7162 114.381 76.1204 114.992 76.1204 115.661C76.1204 116.39 76.7162 117 77.4968 117ZM83.9409 116.764H86.0365V103.236H84.3518L80.6333 105.658L81.4962 107.096L83.9409 105.599V116.764ZM93.905 117C96.9661 117 99 115.346 99 113.062C99 111.172 97.4592 110.148 95.98 109.833C97.4592 109.399 98.6918 108.356 98.6918 106.682C98.6918 104.516 96.699 103 93.8433 103C91.5424 103 89.9399 104.024 88.8511 105.383L90.1454 106.603C91.1315 105.501 92.2203 104.792 93.6995 104.792C95.3431 104.792 96.5758 105.698 96.5758 106.958C96.5758 108.316 95.3225 109.065 93.5352 109.065L91.9943 109.045V110.817H93.5352C95.6513 110.797 96.8634 111.526 96.8634 112.924C96.8634 114.283 95.6923 115.208 93.8639 115.208C92.2409 115.208 90.8644 114.48 89.9194 113.377L88.584 114.696C89.6728 115.996 91.5013 117 93.905 117Z" fill="#70A2FF"/>
<path d="M54.36 127.65H55.1119L52.4318 122.259H51.68L49 127.65H49.7518L50.3621 126.426H53.7497L54.36 127.65ZM50.6452 125.845L52.0604 123.012L53.4667 125.845H50.6452ZM57.5783 127.65H58.2152L60.1345 123.593H59.3916L57.8968 126.96L56.3754 123.593H55.6325L57.5783 127.65ZM64.6057 123.593V124.291C64.2519 123.797 63.6681 123.499 62.9428 123.499C61.7134 123.499 60.8377 124.291 60.8377 125.422C60.8377 126.552 61.7134 127.352 62.9428 127.352C63.6681 127.352 64.2519 127.054 64.6057 126.559V127.219C64.6057 128.011 63.9865 128.474 62.934 128.474C62.3679 128.474 61.8195 128.294 61.4657 127.996L61.1738 128.459C61.5895 128.772 62.2794 129 63.0224 129C64.3403 129 65.269 128.262 65.269 127.219V123.593H64.6057ZM63.0666 126.826C62.1733 126.826 61.5365 126.246 61.5365 125.422C61.5365 124.605 62.1733 124.025 63.0666 124.025C63.9688 124.025 64.6057 124.605 64.6057 125.422C64.6057 126.246 63.9688 126.826 63.0666 126.826ZM67.1328 127.744C67.3893 127.744 67.6016 127.548 67.6016 127.313C67.6016 127.093 67.3893 126.897 67.1328 126.897C66.8586 126.897 66.6463 127.093 66.6463 127.313C66.6463 127.548 66.8586 127.744 67.1328 127.744ZM71.6349 127.65H72.3248V123.577L74.5802 127.336L76.8357 123.577V127.65H77.5256V122.259H76.8357L74.5802 126.018L72.3248 122.259H71.6349V127.65ZM80.8823 123.499C80.44 123.499 79.8916 123.601 79.2371 123.891L79.5025 124.37C79.9182 124.182 80.3781 124.001 80.8381 124.001C81.8287 124.001 82.0764 124.629 82.0764 125.178V125.327C81.6076 125.194 81.0857 125.1 80.5904 125.1C79.6086 125.1 78.7949 125.641 78.7949 126.45C78.7949 127.25 79.5025 127.744 80.4666 127.744C81.068 127.744 81.7491 127.493 82.0764 127.015V127.65H82.7397V125.178C82.7397 124.197 82.1294 123.499 80.8823 123.499ZM80.5816 127.226C79.9359 127.226 79.4406 126.928 79.4406 126.426C79.4406 125.939 80.0155 125.594 80.6965 125.594C81.1919 125.594 81.6606 125.657 82.0764 125.759V126.379C81.8995 126.952 81.183 127.226 80.5816 127.226ZM86.2714 123.499C85.6257 123.499 85.0331 123.813 84.7677 124.244V123.593H84.1044V127.65H84.7677V125.068C84.7677 124.503 85.4134 124.025 86.1829 124.025C86.8552 124.025 87.3239 124.488 87.3239 125.147V127.65H87.9873V125.068C87.9873 124.15 87.2797 123.499 86.2714 123.499ZM92.5494 123.593V126.175C92.5494 126.74 91.9037 127.219 91.1342 127.219C90.462 127.219 89.9932 126.756 89.9932 126.096V123.593H89.3298V126.175C89.3298 127.093 90.0374 127.744 91.0458 127.744C91.6914 127.744 92.2841 127.43 92.5494 126.999V127.65H93.2128V123.593H92.5494ZM95.599 123.036C95.599 122.738 95.829 122.526 96.0943 122.526C96.2978 122.526 96.4747 122.596 96.572 122.691L96.8992 122.259C96.6604 122.094 96.3597 122 96.0501 122C95.3956 122 94.9357 122.432 94.9357 123.036V123.593H94.2192V124.119H94.9357V127.65H95.599V124.119H96.7223V123.593H95.599V123.036ZM99.5224 123.499C99.0801 123.499 98.5318 123.601 97.8772 123.891L98.1426 124.37C98.5583 124.182 99.0182 124.001 99.4782 124.001C100.469 124.001 100.716 124.629 100.716 125.178V125.327C100.248 125.194 99.7258 125.1 99.2305 125.1C98.2487 125.1 97.435 125.641 97.435 126.45C97.435 127.25 98.1426 127.744 99.1067 127.744C99.7081 127.744 100.389 127.493 100.716 127.015V127.65H101.38V125.178C101.38 124.197 100.77 123.499 99.5224 123.499ZM99.2217 127.226C98.576 127.226 98.0807 126.928 98.0807 126.426C98.0807 125.939 98.6556 125.594 99.3366 125.594C99.832 125.594 100.301 125.657 100.716 125.759V126.379C100.54 126.952 99.8231 127.226 99.2217 127.226ZM104.858 127.744C105.495 127.744 106.079 127.509 106.512 127.124L106.053 126.724C105.743 127.03 105.318 127.219 104.858 127.219C103.947 127.219 103.187 126.489 103.187 125.618C103.187 124.754 103.947 124.025 104.858 124.025C105.31 124.025 105.725 124.205 106.026 124.496L106.486 124.095C106.053 123.726 105.478 123.499 104.858 123.499C103.576 123.499 102.488 124.464 102.488 125.618C102.488 126.771 103.576 127.744 104.858 127.744ZM109.537 127.054C109.439 127.148 109.263 127.219 109.059 127.219C108.794 127.219 108.564 127.007 108.564 126.709V124.119H109.687V123.593H108.564V122.479H107.9V123.593H107.184V124.119H107.9V126.709C107.9 127.313 108.36 127.744 109.015 127.744C109.325 127.744 109.625 127.65 109.864 127.485L109.537 127.054ZM114.022 123.593V126.175C114.022 126.74 113.377 127.219 112.607 127.219C111.935 127.219 111.466 126.756 111.466 126.096V123.593H110.803V126.175C110.803 127.093 111.51 127.744 112.519 127.744C113.164 127.744 113.757 127.43 114.022 126.999V127.65H114.686V123.593H114.022ZM116.762 124.386V123.593H116.099V127.65H116.762V125.382C116.762 124.59 117.497 124.025 118.531 124.025V123.499C117.691 123.499 117.037 123.844 116.762 124.386ZM121.51 127.219C120.608 127.219 119.98 126.638 119.883 125.845H123.624C123.624 124.425 122.837 123.499 121.457 123.499C120.228 123.499 119.202 124.401 119.202 125.61C119.202 126.858 120.299 127.744 121.519 127.744C122.156 127.744 122.961 127.501 123.359 127.117L122.952 126.732C122.669 127.007 122.05 127.219 121.51 127.219ZM121.484 124.025C122.395 124.025 122.881 124.59 122.97 125.319H119.892C120.016 124.535 120.67 124.025 121.484 124.025ZM126.328 127.744C127.275 127.744 128 127.266 128 126.52C128 125.751 127.239 125.531 126.505 125.327C125.656 125.084 125.32 124.974 125.32 124.621C125.32 124.229 125.745 124.025 126.258 124.025C126.664 124.025 127.116 124.15 127.575 124.409L127.894 123.954C127.407 123.672 126.824 123.499 126.258 123.499C125.347 123.499 124.657 123.954 124.657 124.692C124.657 125.272 125.081 125.563 126.187 125.845C126.806 126.002 127.337 126.143 127.337 126.583C127.337 126.967 126.93 127.219 126.328 127.219C125.824 127.219 125.302 127.046 124.78 126.709L124.435 127.14C124.984 127.533 125.691 127.744 126.328 127.744Z" fill="#898989"/>
<path d="M53.558 325C54.4678 325 55.1106 324.173 55.1106 322.997C55.1106 321.827 54.4678 321 53.558 321C52.6428 321 52 321.827 52 322.997C52 324.173 52.6428 325 53.558 325ZM53.558 324.595C52.8989 324.595 52.4304 323.931 52.4304 322.997C52.4304 322.063 52.8989 321.405 53.558 321.405C54.2172 321.405 54.6802 322.063 54.6802 322.997C54.6802 323.931 54.2172 324.595 53.558 324.595ZM56.132 325C56.29 325 56.4207 324.859 56.4207 324.691C56.4207 324.533 56.29 324.392 56.132 324.392C55.9631 324.392 55.8324 324.533 55.8324 324.691C55.8324 324.859 55.9631 325 56.132 325ZM58.6918 325C59.6016 325 60.2444 324.173 60.2444 322.997C60.2444 321.827 59.6016 321 58.6918 321C57.7766 321 57.1338 321.827 57.1338 322.997C57.1338 324.173 57.7766 325 58.6918 325ZM58.6918 324.595C58.0327 324.595 57.5642 323.931 57.5642 322.997C57.5642 322.063 58.0327 321.405 58.6918 321.405C59.351 321.405 59.8141 322.063 59.8141 322.997C59.8141 323.931 59.351 324.595 58.6918 324.595ZM62.4474 325C63.3572 325 64 324.173 64 322.997C64 321.827 63.3572 321 62.4474 321C61.5322 321 60.8894 321.827 60.8894 322.997C60.8894 324.173 61.5322 325 62.4474 325ZM62.4474 324.595C61.7883 324.595 61.3198 323.931 61.3198 322.997C61.3198 322.063 61.7883 321.405 62.4474 321.405C63.1066 321.405 63.5696 322.063 63.5696 322.997C63.5696 323.931 63.1066 324.595 62.4474 324.595Z" fill="#898989"/>
<path d="M83.858 334.997C83.858 333.911 82.9799 333 81.9317 333C80.889 333 80 333.911 80 334.997C80 336.083 80.889 337 81.9317 337C82.3872 337 82.8098 336.826 83.1445 336.539L83.5836 336.932L83.858 336.606L83.4354 336.229C83.6988 335.886 83.858 335.459 83.858 334.997ZM81.9317 336.595C81.1195 336.595 80.4335 335.864 80.4335 334.997C80.4335 334.136 81.1195 333.405 81.9317 333.405C82.7439 333.405 83.4244 334.136 83.4244 334.997C83.4244 335.352 83.3092 335.684 83.1226 335.948L82.5189 335.413L82.2445 335.74L82.8317 336.263C82.5793 336.471 82.2665 336.595 81.9317 336.595ZM85.129 336.932H85.557V333.068H85.2113L84.2838 333.714L84.4704 334.041L85.129 333.602V336.932ZM87.975 335.61H89.3963V335.2H87.975V335.61ZM91.5651 336.932H94.1664V336.516H92.2511L93.2389 335.639C93.8755 335.076 94.128 334.66 94.128 334.136C94.128 333.444 93.5792 333 92.9261 333C92.3334 333 91.9109 333.287 91.5981 333.743L91.8999 333.996C92.1578 333.636 92.4706 333.394 92.9097 333.394C93.3103 333.394 93.6944 333.669 93.6944 334.142C93.6944 334.525 93.4749 334.896 92.9426 335.363L91.5651 336.567V336.932ZM96.4208 337C97.3373 337 97.9849 336.173 97.9849 334.997C97.9849 333.827 97.3373 333 96.4208 333C95.4988 333 94.8513 333.827 94.8513 334.997C94.8513 336.173 95.4988 337 96.4208 337ZM96.4208 336.595C95.7568 336.595 95.2848 335.931 95.2848 334.997C95.2848 334.063 95.7568 333.405 96.4208 333.405C97.0848 333.405 97.5513 334.063 97.5513 334.997C97.5513 335.931 97.0848 336.595 96.4208 336.595ZM98.5803 336.932H101.182V336.516H99.2663L100.254 335.639C100.891 335.076 101.143 334.66 101.143 334.136C101.143 333.444 100.594 333 99.9413 333C99.3486 333 98.926 333.287 98.6132 333.743L98.915 333.996C99.173 333.636 99.4858 333.394 99.9248 333.394C100.325 333.394 100.71 333.669 100.71 334.142C100.71 334.525 100.49 334.896 99.9577 335.363L98.5803 336.567V336.932ZM103.436 337C104.352 337 105 336.173 105 334.997C105 333.827 104.352 333 103.436 333C102.514 333 101.866 333.827 101.866 334.997C101.866 336.173 102.514 337 103.436 337ZM103.436 336.595C102.772 336.595 102.3 335.931 102.3 334.997C102.3 334.063 102.772 333.405 103.436 333.405C104.1 333.405 104.566 334.063 104.566 334.997C104.566 335.931 104.1 336.595 103.436 336.595Z" fill="#898989"/>
<path d="M242.704 334.997C242.704 333.911 241.861 333 240.854 333C239.853 333 239 333.911 239 334.997C239 336.083 239.853 337 240.854 337C241.292 337 241.697 336.826 242.019 336.539L242.44 336.932L242.704 336.606L242.298 336.229C242.551 335.886 242.704 335.459 242.704 334.997ZM240.854 336.595C240.075 336.595 239.416 335.864 239.416 334.997C239.416 334.136 240.075 333.405 240.854 333.405C241.634 333.405 242.287 334.136 242.287 334.997C242.287 335.352 242.177 335.684 241.998 335.948L241.418 335.413L241.155 335.74L241.718 336.263C241.476 336.471 241.176 336.595 240.854 336.595ZM243.924 336.932H244.335V333.068H244.003L243.112 333.714L243.292 334.041L243.924 333.602V336.932ZM246.656 335.61H248.02V335.2H246.656V335.61ZM250.103 336.932H252.6V336.516H250.761L251.709 335.639C252.321 335.076 252.563 334.66 252.563 334.136C252.563 333.444 252.036 333 251.409 333C250.84 333 250.434 333.287 250.134 333.743L250.424 333.996C250.672 333.636 250.972 333.394 251.393 333.394C251.778 333.394 252.147 333.669 252.147 334.142C252.147 334.525 251.936 334.896 251.425 335.363L250.103 336.567V336.932ZM254.764 337C255.644 337 256.265 336.173 256.265 334.997C256.265 333.827 255.644 333 254.764 333C253.879 333 253.257 333.827 253.257 334.997C253.257 336.173 253.879 337 254.764 337ZM254.764 336.595C254.126 336.595 253.673 335.931 253.673 334.997C253.673 334.063 254.126 333.405 254.764 333.405C255.401 333.405 255.849 334.063 255.849 334.997C255.849 335.931 255.401 336.595 254.764 336.595ZM256.837 336.932H259.334V336.516H257.496L258.444 335.639C259.055 335.076 259.297 334.66 259.297 334.136C259.297 333.444 258.771 333 258.144 333C257.575 333 257.169 333.287 256.869 333.743L257.158 333.996C257.406 333.636 257.706 333.394 258.128 333.394C258.512 333.394 258.881 333.669 258.881 334.142C258.881 334.525 258.67 334.896 258.159 335.363L256.837 336.567V336.932ZM261.499 337C262.378 337 263 336.173 263 334.997C263 333.827 262.378 333 261.499 333C260.613 333 259.992 333.827 259.992 334.997C259.992 336.173 260.613 337 261.499 337ZM261.499 336.595C260.861 336.595 260.408 335.931 260.408 334.997C260.408 334.063 260.861 333.405 261.499 333.405C262.136 333.405 262.584 334.063 262.584 334.997C262.584 335.931 262.136 336.595 261.499 336.595Z" fill="#898989"/>
<path d="M122.668 334.997C122.668 333.911 121.833 333 120.836 333C119.845 333 119 333.911 119 334.997C119 336.083 119.845 337 120.836 337C121.269 337 121.671 336.826 121.989 336.539L122.407 336.932L122.668 336.606L122.266 336.229C122.516 335.886 122.668 335.459 122.668 334.997ZM120.836 336.595C120.064 336.595 119.412 335.864 119.412 334.997C119.412 334.136 120.064 333.405 120.836 333.405C121.609 333.405 122.256 334.136 122.256 334.997C122.256 335.352 122.146 335.684 121.969 335.948L121.395 335.413L121.134 335.74L121.692 336.263C121.452 336.471 121.155 336.595 120.836 336.595ZM123.192 336.932H125.665V336.516H123.845L124.784 335.639C125.389 335.076 125.629 334.66 125.629 334.136C125.629 333.444 125.107 333 124.486 333C123.923 333 123.521 333.287 123.224 333.743L123.511 333.996C123.756 333.636 124.053 333.394 124.471 333.394C124.852 333.394 125.217 333.669 125.217 334.142C125.217 334.525 125.008 334.896 124.502 335.363L123.192 336.567V336.932ZM127.814 335.61H129.166V335.2H127.814V335.61ZM131.227 336.932H133.7V336.516H131.88L132.819 335.639C133.424 335.076 133.664 334.66 133.664 334.136C133.664 333.444 133.142 333 132.521 333C131.958 333 131.556 333.287 131.259 333.743L131.546 333.996C131.791 333.636 132.088 333.394 132.506 333.394C132.886 333.394 133.252 333.669 133.252 334.142C133.252 334.525 133.043 334.896 132.537 335.363L131.227 336.567V336.932ZM135.844 337C136.715 337 137.33 336.173 137.33 334.997C137.33 333.827 136.715 333 135.844 333C134.967 333 134.351 333.827 134.351 334.997C134.351 336.173 134.967 337 135.844 337ZM135.844 336.595C135.212 336.595 134.764 335.931 134.764 334.997C134.764 334.063 135.212 333.405 135.844 333.405C136.475 333.405 136.918 334.063 136.918 334.997C136.918 335.931 136.475 336.595 135.844 336.595ZM137.896 336.932H140.369V336.516H138.549L139.488 335.639C140.093 335.076 140.333 334.66 140.333 334.136C140.333 333.444 139.811 333 139.19 333C138.627 333 138.225 333.287 137.928 333.743L138.215 333.996C138.46 333.636 138.757 333.394 139.175 333.394C139.556 333.394 139.921 333.669 139.921 334.142C139.921 334.525 139.712 334.896 139.206 335.363L137.896 336.567V336.932ZM142.513 337C143.384 337 144 336.173 144 334.997C144 333.827 143.384 333 142.513 333C141.637 333 141.021 333.827 141.021 334.997C141.021 336.173 141.637 337 142.513 337ZM142.513 336.595C141.882 336.595 141.433 335.931 141.433 334.997C141.433 334.063 141.882 333.405 142.513 333.405C143.144 333.405 143.588 334.063 143.588 334.997C143.588 335.931 143.144 336.595 142.513 336.595Z" fill="#898989"/>
<path d="M280.814 334.997C280.814 333.911 279.946 333 278.91 333C277.879 333 277 333.911 277 334.997C277 336.083 277.879 337 278.91 337C279.36 337 279.778 336.826 280.109 336.539L280.543 336.932L280.814 336.606L280.397 336.229C280.657 335.886 280.814 335.459 280.814 334.997ZM278.91 336.595C278.107 336.595 277.429 335.864 277.429 334.997C277.429 334.136 278.107 333.405 278.91 333.405C279.713 333.405 280.386 334.136 280.386 334.997C280.386 335.352 280.272 335.684 280.087 335.948L279.49 335.413L279.219 335.74L279.8 336.263C279.55 336.471 279.241 336.595 278.91 336.595ZM281.36 336.932H283.932V336.516H282.038L283.015 335.639C283.644 335.076 283.894 334.66 283.894 334.136C283.894 333.444 283.351 333 282.706 333C282.12 333 281.702 333.287 281.393 333.743L281.691 333.996C281.946 333.636 282.255 333.394 282.689 333.394C283.086 333.394 283.465 333.669 283.465 334.142C283.465 334.525 283.248 334.896 282.722 335.363L281.36 336.567V336.932ZM286.167 335.61H287.572V335.2H286.167V335.61ZM289.716 336.932H292.288V336.516H290.395L291.371 335.639C292.001 335.076 292.25 334.66 292.25 334.136C292.25 333.444 291.708 333 291.062 333C290.476 333 290.058 333.287 289.749 333.743L290.047 333.996C290.302 333.636 290.612 333.394 291.046 333.394C291.442 333.394 291.822 333.669 291.822 334.142C291.822 334.525 291.605 334.896 291.078 335.363L289.716 336.567V336.932ZM294.517 337C295.423 337 296.064 336.173 296.064 334.997C296.064 333.827 295.423 333 294.517 333C293.606 333 292.965 333.827 292.965 334.997C292.965 336.173 293.606 337 294.517 337ZM294.517 336.595C293.861 336.595 293.394 335.931 293.394 334.997C293.394 334.063 293.861 333.405 294.517 333.405C295.174 333.405 295.635 334.063 295.635 334.997C295.635 335.931 295.174 336.595 294.517 336.595ZM296.652 336.932H299.224V336.516H297.331L298.307 335.639C298.937 335.076 299.186 334.66 299.186 334.136C299.186 333.444 298.644 333 297.998 333C297.412 333 296.994 333.287 296.685 333.743L296.983 333.996C297.238 333.636 297.548 333.394 297.982 333.394C298.378 333.394 298.758 333.669 298.758 334.142C298.758 334.525 298.541 334.896 298.014 335.363L296.652 336.567V336.932ZM301.454 337C302.36 337 303 336.173 303 334.997C303 333.827 302.36 333 301.454 333C300.542 333 299.902 333.827 299.902 334.997C299.902 336.173 300.542 337 301.454 337ZM301.454 336.595C300.797 336.595 300.33 335.931 300.33 334.997C300.33 334.063 300.797 333.405 301.454 333.405C302.11 333.405 302.571 334.063 302.571 334.997C302.571 335.931 302.11 336.595 301.454 336.595Z" fill="#898989"/>
<path d="M162.817 334.997C162.817 333.911 161.948 333 160.911 333C159.88 333 159 333.911 159 334.997C159 336.083 159.88 337 160.911 337C161.362 337 161.78 336.826 162.111 336.539L162.545 336.932L162.817 336.606L162.399 336.229C162.659 335.886 162.817 335.459 162.817 334.997ZM160.911 336.595C160.108 336.595 159.429 335.864 159.429 334.997C159.429 334.136 160.108 333.405 160.911 333.405C161.715 333.405 162.388 334.136 162.388 334.997C162.388 335.352 162.274 335.684 162.089 335.948L161.492 335.413L161.221 335.74L161.801 336.263C161.552 336.471 161.242 336.595 160.911 336.595ZM164.671 337C165.448 337 165.969 336.533 165.969 335.886C165.969 335.329 165.545 335.042 165.165 334.952C165.551 334.834 165.888 334.541 165.888 334.046C165.888 333.428 165.366 333 164.655 333C164.074 333 163.662 333.293 163.379 333.681L163.662 333.945C163.928 333.613 164.221 333.399 164.633 333.399C165.1 333.399 165.459 333.692 165.459 334.097C165.459 334.536 165.084 334.783 164.585 334.778L164.183 334.772V335.177H164.579C165.165 335.177 165.54 335.408 165.54 335.864C165.54 336.302 165.193 336.601 164.671 336.601C164.215 336.601 163.852 336.376 163.607 336.049L163.314 336.336C163.586 336.707 164.058 337 164.671 337ZM168.157 335.61H169.563V335.2H168.157V335.61ZM171.709 336.932H174.282V336.516H172.387L173.365 335.639C173.994 335.076 174.244 334.66 174.244 334.136C174.244 333.444 173.701 333 173.055 333C172.469 333 172.051 333.287 171.741 333.743L172.04 333.996C172.295 333.636 172.605 333.394 173.038 333.394C173.435 333.394 173.815 333.669 173.815 334.142C173.815 334.525 173.598 334.896 173.071 335.363L171.709 336.567V336.932ZM176.513 337C177.419 337 178.06 336.173 178.06 334.997C178.06 333.827 177.419 333 176.513 333C175.6 333 174.96 333.827 174.96 334.997C174.96 336.173 175.6 337 176.513 337ZM176.513 336.595C175.856 336.595 175.389 335.931 175.389 334.997C175.389 334.063 175.856 333.405 176.513 333.405C177.169 333.405 177.631 334.063 177.631 334.997C177.631 335.931 177.169 336.595 176.513 336.595ZM178.649 336.932H181.222V336.516H179.328L180.305 335.639C180.935 335.076 181.184 334.66 181.184 334.136C181.184 333.444 180.641 333 179.995 333C179.409 333 178.991 333.287 178.681 333.743L178.98 333.996C179.235 333.636 179.545 333.394 179.979 333.394C180.375 333.394 180.755 333.669 180.755 334.142C180.755 334.525 180.538 334.896 180.012 335.363L178.649 336.567V336.932ZM183.453 337C184.359 337 185 336.173 185 334.997C185 333.827 184.359 333 183.453 333C182.541 333 181.9 333.827 181.9 334.997C181.9 336.173 182.541 337 183.453 337ZM183.453 336.595C182.796 336.595 182.329 335.931 182.329 334.997C182.329 334.063 182.796 333.405 183.453 333.405C184.11 333.405 184.571 334.063 184.571 334.997C184.571 335.931 184.11 336.595 183.453 336.595Z" fill="#898989"/>
<path d="M320.817 334.997C320.817 333.911 319.948 333 318.911 333C317.88 333 317 333.911 317 334.997C317 336.083 317.88 337 318.911 337C319.362 337 319.78 336.826 320.111 336.539L320.545 336.932L320.817 336.606L320.399 336.229C320.659 335.886 320.817 335.459 320.817 334.997ZM318.911 336.595C318.108 336.595 317.429 335.864 317.429 334.997C317.429 334.136 318.108 333.405 318.911 333.405C319.715 333.405 320.388 334.136 320.388 334.997C320.388 335.352 320.274 335.684 320.089 335.948L319.492 335.413L319.221 335.74L319.801 336.263C319.552 336.471 319.242 336.595 318.911 336.595ZM322.671 337C323.448 337 323.969 336.533 323.969 335.886C323.969 335.329 323.545 335.042 323.165 334.952C323.551 334.834 323.887 334.541 323.887 334.046C323.887 333.428 323.366 333 322.655 333C322.074 333 321.662 333.293 321.379 333.681L321.662 333.945C321.928 333.613 322.221 333.399 322.633 333.399C323.1 333.399 323.459 333.692 323.459 334.097C323.459 334.536 323.084 334.783 322.585 334.778L322.183 334.772V335.177H322.579C323.165 335.177 323.54 335.408 323.54 335.864C323.54 336.302 323.193 336.601 322.671 336.601C322.215 336.601 321.852 336.376 321.607 336.049L321.314 336.336C321.586 336.707 322.058 337 322.671 337ZM326.157 335.61H327.563V335.2H326.157V335.61ZM329.709 336.932H332.282V336.516H330.387L331.365 335.639C331.994 335.076 332.244 334.66 332.244 334.136C332.244 333.444 331.701 333 331.055 333C330.469 333 330.051 333.287 329.741 333.743L330.04 333.996C330.295 333.636 330.605 333.394 331.038 333.394C331.435 333.394 331.815 333.669 331.815 334.142C331.815 334.525 331.598 334.896 331.071 335.363L329.709 336.567V336.932ZM334.512 337C335.419 337 336.06 336.173 336.06 334.997C336.06 333.827 335.419 333 334.512 333C333.6 333 332.96 333.827 332.96 334.997C332.96 336.173 333.6 337 334.512 337ZM334.512 336.595C333.856 336.595 333.389 335.931 333.389 334.997C333.389 334.063 333.856 333.405 334.512 333.405C335.169 333.405 335.631 334.063 335.631 334.997C335.631 335.931 335.169 336.595 334.512 336.595ZM336.649 336.932H339.222V336.516H337.328L338.305 335.639C338.935 335.076 339.184 334.66 339.184 334.136C339.184 333.444 338.641 333 337.995 333C337.409 333 336.991 333.287 336.681 333.743L336.98 333.996C337.235 333.636 337.545 333.394 337.979 333.394C338.375 333.394 338.755 333.669 338.755 334.142C338.755 334.525 338.538 334.896 338.012 335.363L336.649 336.567V336.932ZM341.453 337C342.359 337 343 336.173 343 334.997C343 333.827 342.359 333 341.453 333C340.541 333 339.9 333.827 339.9 334.997C339.9 336.173 340.541 337 341.453 337ZM341.453 336.595C340.796 336.595 340.329 335.931 340.329 334.997C340.329 334.063 340.796 333.405 341.453 333.405C342.11 333.405 342.571 334.063 342.571 334.997C342.571 335.931 342.11 336.595 341.453 336.595Z" fill="#898989"/>
<path d="M202.787 334.997C202.787 333.911 201.925 333 200.896 333C199.873 333 199 333.911 199 334.997C199 336.083 199.873 337 200.896 337C201.344 337 201.758 336.826 202.087 336.539L202.518 336.932L202.787 336.606L202.373 336.229C202.631 335.886 202.787 335.459 202.787 334.997ZM200.896 336.595C200.099 336.595 199.426 335.864 199.426 334.997C199.426 334.136 200.099 333.405 200.896 333.405C201.694 333.405 202.362 334.136 202.362 334.997C202.362 335.352 202.249 335.684 202.065 335.948L201.473 335.413L201.203 335.74L201.78 336.263C201.532 336.471 201.225 336.595 200.896 336.595ZM205.183 336.932H205.603V335.993H206.158V335.594H205.603V333.068H205.118L203.281 335.627L203.335 335.993H205.183V336.932ZM203.76 335.594L205.183 333.596V335.594H203.76ZM208.286 335.61H209.682V335.2H208.286V335.61ZM211.811 336.932H214.365V336.516H212.484L213.454 335.639C214.079 335.076 214.327 334.66 214.327 334.136C214.327 333.444 213.788 333 213.147 333C212.565 333 212.15 333.287 211.843 333.743L212.14 333.996C212.393 333.636 212.7 333.394 213.131 333.394C213.524 333.394 213.901 333.669 213.901 334.142C213.901 334.525 213.686 334.896 213.163 335.363L211.811 336.567V336.932ZM216.578 337C217.477 337 218.113 336.173 218.113 334.997C218.113 333.827 217.477 333 216.578 333C215.673 333 215.037 333.827 215.037 334.997C215.037 336.173 215.673 337 216.578 337ZM216.578 336.595C215.926 336.595 215.463 335.931 215.463 334.997C215.463 334.063 215.926 333.405 216.578 333.405C217.23 333.405 217.688 334.063 217.688 334.997C217.688 335.931 217.23 336.595 216.578 336.595ZM218.698 336.932H221.251V336.516H219.371L220.341 335.639C220.966 335.076 221.214 334.66 221.214 334.136C221.214 333.444 220.675 333 220.034 333C219.452 333 219.037 333.287 218.73 333.743L219.026 333.996C219.28 333.636 219.587 333.394 220.018 333.394C220.411 333.394 220.788 333.669 220.788 334.142C220.788 334.525 220.573 334.896 220.05 335.363L218.698 336.567V336.932ZM223.465 337C224.364 337 225 336.173 225 334.997C225 333.827 224.364 333 223.465 333C222.559 333 221.924 333.827 221.924 334.997C221.924 336.173 222.559 337 223.465 337ZM223.465 336.595C222.813 336.595 222.349 335.931 222.349 334.997C222.349 334.063 222.813 333.405 223.465 333.405C224.116 333.405 224.574 334.063 224.574 334.997C224.574 335.931 224.116 336.595 223.465 336.595Z" fill="#898989"/>
<path d="M360.933 334.997C360.933 333.911 360.038 333 358.969 333C357.906 333 357 333.911 357 334.997C357 336.083 357.906 337 358.969 337C359.434 337 359.864 336.826 360.206 336.539L360.653 336.932L360.933 336.606L360.502 336.229C360.771 335.886 360.933 335.459 360.933 334.997ZM358.969 336.595C358.141 336.595 357.442 335.864 357.442 334.997C357.442 334.136 358.141 333.405 358.969 333.405C359.797 333.405 360.491 334.136 360.491 334.997C360.491 335.352 360.374 335.684 360.183 335.948L359.568 335.413L359.288 335.74L359.887 336.263C359.629 336.471 359.311 336.595 358.969 336.595ZM363.42 336.932H363.857V335.993H364.433V335.594H363.857V333.068H363.353L361.446 335.627L361.501 335.993H363.42V336.932ZM361.943 335.594L363.42 333.596V335.594H361.943ZM366.644 335.61H368.093V335.2H366.644V335.61ZM370.304 336.932H372.955V336.516H371.003L372.01 335.639C372.659 335.076 372.916 334.66 372.916 334.136C372.916 333.444 372.357 333 371.691 333C371.087 333 370.656 333.287 370.337 333.743L370.645 333.996C370.908 333.636 371.227 333.394 371.674 333.394C372.083 333.394 372.474 333.669 372.474 334.142C372.474 334.525 372.251 334.896 371.708 335.363L370.304 336.567V336.932ZM375.254 337C376.188 337 376.848 336.173 376.848 334.997C376.848 333.827 376.188 333 375.254 333C374.314 333 373.654 333.827 373.654 334.997C373.654 336.173 374.314 337 375.254 337ZM375.254 336.595C374.577 336.595 374.096 335.931 374.096 334.997C374.096 334.063 374.577 333.405 375.254 333.405C375.931 333.405 376.406 334.063 376.406 334.997C376.406 335.931 375.931 336.595 375.254 336.595ZM377.455 336.932H380.107V336.516H378.155L379.162 335.639C379.811 335.076 380.068 334.66 380.068 334.136C380.068 333.444 379.509 333 378.843 333C378.239 333 377.808 333.287 377.489 333.743L377.797 333.996C378.06 333.636 378.378 333.394 378.826 333.394C379.234 333.394 379.626 333.669 379.626 334.142C379.626 334.525 379.402 334.896 378.86 335.363L377.455 336.567V336.932ZM382.405 337C383.34 337 384 336.173 384 334.997C384 333.827 383.34 333 382.405 333C381.466 333 380.805 333.827 380.805 334.997C380.805 336.173 381.466 337 382.405 337ZM382.405 336.595C381.729 336.595 381.247 335.931 381.247 334.997C381.247 334.063 381.729 333.405 382.405 333.405C383.082 333.405 383.558 334.063 383.558 334.997C383.558 335.931 383.082 336.595 382.405 336.595Z" fill="#898989"/>
<path d="M51.833 300.949H52.2548V298.051H51.9141L51 298.536L51.1839 298.781L51.833 298.451V300.949ZM54.632 301C55.5352 301 56.1735 300.38 56.1735 299.498C56.1735 298.62 55.5352 298 54.632 298C53.7233 298 53.0851 298.62 53.0851 299.498C53.0851 300.38 53.7233 301 54.632 301ZM54.632 300.696C53.9775 300.696 53.5124 300.198 53.5124 299.498C53.5124 298.797 53.9775 298.304 54.632 298.304C55.2864 298.304 55.7462 298.797 55.7462 299.498C55.7462 300.198 55.2864 300.696 54.632 300.696ZM57.1876 301C57.3445 301 57.4743 300.895 57.4743 300.768C57.4743 300.65 57.3445 300.544 57.1876 300.544C57.0199 300.544 56.8901 300.65 56.8901 300.768C56.8901 300.895 57.0199 301 57.1876 301ZM59.7292 301C60.6324 301 61.2707 300.38 61.2707 299.498C61.2707 298.62 60.6324 298 59.7292 298C58.8205 298 58.1823 298.62 58.1823 299.498C58.1823 300.38 58.8205 301 59.7292 301ZM59.7292 300.696C59.0747 300.696 58.6096 300.198 58.6096 299.498C58.6096 298.797 59.0747 298.304 59.7292 298.304C60.3836 298.304 60.8434 298.797 60.8434 299.498C60.8434 300.198 60.3836 300.696 59.7292 300.696ZM63.4585 301C64.3618 301 65 300.38 65 299.498C65 298.62 64.3618 298 63.4585 298C62.5498 298 61.9116 298.62 61.9116 299.498C61.9116 300.38 62.5498 301 63.4585 301ZM63.4585 300.696C62.8041 300.696 62.3389 300.198 62.3389 299.498C62.3389 298.797 62.8041 298.304 63.4585 298.304C64.113 298.304 64.5727 298.797 64.5727 299.498C64.5727 300.198 64.113 300.696 63.4585 300.696Z" fill="#898989"/>
<path d="M49 277.932H51.5377V277.516H49.6692L50.6329 276.639C51.254 276.076 51.5003 275.66 51.5003 275.136C51.5003 274.444 50.9649 274 50.3278 274C49.7495 274 49.3373 274.287 49.0321 274.743L49.3266 274.996C49.5782 274.636 49.8834 274.394 50.3117 274.394C50.7025 274.394 51.0773 274.669 51.0773 275.142C51.0773 275.525 50.8632 275.896 50.3438 276.363L49 277.567V277.932ZM53.7377 278C54.6318 278 55.2635 277.173 55.2635 275.997C55.2635 274.827 54.6318 274 53.7377 274C52.8382 274 52.2064 274.827 52.2064 275.997C52.2064 277.173 52.8382 278 53.7377 278ZM53.7377 277.595C53.0898 277.595 52.6294 276.931 52.6294 275.997C52.6294 275.063 53.0898 274.405 53.7377 274.405C54.3855 274.405 54.8406 275.063 54.8406 275.997C54.8406 276.931 54.3855 277.595 53.7377 277.595ZM56.2668 278C56.4221 278 56.5506 277.859 56.5506 277.691C56.5506 277.533 56.4221 277.392 56.2668 277.392C56.1009 277.392 55.9724 277.533 55.9724 277.691C55.9724 277.859 56.1009 278 56.2668 278ZM58.7832 278C59.6773 278 60.309 277.173 60.309 275.997C60.309 274.827 59.6773 274 58.7832 274C57.8837 274 57.252 274.827 57.252 275.997C57.252 277.173 57.8837 278 58.7832 278ZM58.7832 277.595C58.1353 277.595 57.6749 276.931 57.6749 275.997C57.6749 275.063 58.1353 274.405 58.7832 274.405C59.431 274.405 59.8855 275.063 59.8855 275.997C59.8855 276.931 59.431 277.595 58.7832 277.595ZM62.4741 278C63.3682 278 64 277.173 64 275.997C64 274.827 63.3682 274 62.4741 274C61.5747 274 60.9429 274.827 60.9429 275.997C60.9429 277.173 61.5747 278 62.4741 278ZM62.4741 277.595C61.8263 277.595 61.3659 276.931 61.3659 275.997C61.3659 275.063 61.8263 274.405 62.4741 274.405C63.122 274.405 63.577 275.063 63.577 275.997C63.577 276.931 63.122 277.595 62.4741 277.595Z" fill="#898989"/>
<path d="M50.3356 254C51.0995 254 51.6124 253.533 51.6124 252.886C51.6124 252.329 51.1957 252.042 50.8217 251.952C51.201 251.834 51.5322 251.541 51.5322 251.046C51.5322 250.428 51.0194 250 50.3195 250C49.7479 250 49.3419 250.293 49.0641 250.681L49.3419 250.945C49.6037 250.613 49.8922 250.399 50.2982 250.399C50.7576 250.399 51.1102 250.692 51.1102 251.097C51.1102 251.536 50.7416 251.783 50.2501 251.778L49.8548 251.772V252.177H50.2447C50.8217 252.177 51.1903 252.408 51.1903 252.864C51.1903 253.302 50.8484 253.601 50.3356 253.601C49.8868 253.601 49.5289 253.376 49.2885 253.049L49 253.336C49.2671 253.707 49.7319 254 50.3356 254ZM53.7594 254C54.6516 254 55.282 253.173 55.282 251.997C55.282 250.827 54.6516 250 53.7594 250C52.8619 250 52.2315 250.827 52.2315 251.997C52.2315 253.173 52.8619 254 53.7594 254ZM53.7594 253.595C53.113 253.595 52.6536 252.931 52.6536 251.997C52.6536 251.063 53.113 250.405 53.7594 250.405C54.4058 250.405 54.8599 251.063 54.8599 251.997C54.8599 252.931 54.4058 253.595 53.7594 253.595ZM56.2836 254C56.4386 254 56.5668 253.859 56.5668 253.691C56.5668 253.533 56.4386 253.392 56.2836 253.392C56.118 253.392 55.9898 253.533 55.9898 253.691C55.9898 253.859 56.118 254 56.2836 254ZM58.794 254C59.6861 254 60.3165 253.173 60.3165 251.997C60.3165 250.827 59.6861 250 58.794 250C57.8965 250 57.2661 250.827 57.2661 251.997C57.2661 253.173 57.8965 254 58.794 254ZM58.794 253.595C58.1476 253.595 57.6881 252.931 57.6881 251.997C57.6881 251.063 58.1476 250.405 58.794 250.405C59.4404 250.405 59.8945 251.063 59.8945 251.997C59.8945 252.931 59.4404 253.595 58.794 253.595ZM62.4775 254C63.3696 254 64 253.173 64 251.997C64 250.827 63.3696 250 62.4775 250C61.58 250 60.9496 250.827 60.9496 251.997C60.9496 253.173 61.58 254 62.4775 254ZM62.4775 253.595C61.831 253.595 61.3716 252.931 61.3716 251.997C61.3716 251.063 61.831 250.405 62.4775 250.405C63.1239 250.405 63.578 251.063 63.578 251.997C63.578 252.931 63.1239 253.595 62.4775 253.595Z" fill="#898989"/>
<path d="M50.9853 229.932H51.424V228.993H52.0033V228.594H51.424V226.068H50.9178L49 228.627L49.0562 228.993H50.9853V229.932ZM49.5005 228.594L50.9853 226.596V228.594H49.5005ZM54.2192 230C55.1584 230 55.822 229.173 55.822 227.997C55.822 226.827 55.1584 226 54.2192 226C53.2743 226 52.6107 226.827 52.6107 227.997C52.6107 229.173 53.2743 230 54.2192 230ZM54.2192 229.595C53.5386 229.595 53.055 228.931 53.055 227.997C53.055 227.063 53.5386 226.405 54.2192 226.405C54.8997 226.405 55.3777 227.063 55.3777 227.997C55.3777 228.931 54.8997 229.595 54.2192 229.595ZM56.8766 230C57.0397 230 57.1746 229.859 57.1746 229.691C57.1746 229.533 57.0397 229.392 56.8766 229.392C56.7022 229.392 56.5672 229.533 56.5672 229.691C56.5672 229.859 56.7022 230 56.8766 230ZM59.5193 230C60.4585 230 61.1222 229.173 61.1222 227.997C61.1222 226.827 60.4585 226 59.5193 226C58.5745 226 57.9108 226.827 57.9108 227.997C57.9108 229.173 58.5745 230 59.5193 230ZM59.5193 229.595C58.8388 229.595 58.3551 228.931 58.3551 227.997C58.3551 227.063 58.8388 226.405 59.5193 226.405C60.1998 226.405 60.6779 227.063 60.6779 227.997C60.6779 228.931 60.1998 229.595 59.5193 229.595ZM63.3971 230C64.3364 230 65 229.173 65 227.997C65 226.827 64.3364 226 63.3971 226C62.4523 226 61.7886 226.827 61.7886 227.997C61.7886 229.173 62.4523 230 63.3971 230ZM63.3971 229.595C62.7166 229.595 62.2329 228.931 62.2329 227.997C62.2329 227.063 62.7166 226.405 63.3971 226.405C64.0776 226.405 64.5557 227.063 64.5557 227.997C64.5557 228.931 64.0776 229.595 63.3971 229.595Z" fill="#898989"/>
<path d="M50.2943 206C51.0485 206 51.5994 205.494 51.5994 204.729C51.5994 203.963 51.0485 203.525 50.3853 203.525C50.0483 203.525 49.7969 203.643 49.599 203.783L49.6365 202.484H51.4015V202.068H49.23L49.1765 204.053L49.4814 204.211C49.7114 204.031 49.9841 203.913 50.2997 203.913C50.8132 203.913 51.1769 204.25 51.1769 204.745C51.1769 205.235 50.8185 205.606 50.3104 205.606C49.9039 205.606 49.5563 205.392 49.2728 205.066L49 205.387C49.2995 205.747 49.7274 206 50.2943 206ZM53.7474 206C54.6406 206 55.2717 205.173 55.2717 203.997C55.2717 202.827 54.6406 202 53.7474 202C52.8488 202 52.2177 202.827 52.2177 203.997C52.2177 205.173 52.8488 206 53.7474 206ZM53.7474 205.595C53.1002 205.595 52.6402 204.931 52.6402 203.997C52.6402 203.063 53.1002 202.405 53.7474 202.405C54.3945 202.405 54.8492 203.063 54.8492 203.997C54.8492 204.931 54.3945 205.595 53.7474 205.595ZM56.2746 206C56.4297 206 56.558 205.859 56.558 205.691C56.558 205.533 56.4297 205.392 56.2746 205.392C56.1088 205.392 55.9804 205.533 55.9804 205.691C55.9804 205.859 56.1088 206 56.2746 206ZM58.7878 206C59.6811 206 60.3122 205.173 60.3122 203.997C60.3122 202.827 59.6811 202 58.7878 202C57.8893 202 57.2582 202.827 57.2582 203.997C57.2582 205.173 57.8893 206 58.7878 206ZM58.7878 205.595C58.1407 205.595 57.6807 204.931 57.6807 203.997C57.6807 203.063 58.1407 202.405 58.7878 202.405C59.435 202.405 59.8896 203.063 59.8896 203.997C59.8896 204.931 59.435 205.595 58.7878 205.595ZM62.4757 206C63.3689 206 64 205.173 64 203.997C64 202.827 63.3689 202 62.4757 202C61.5771 202 60.946 202.827 60.946 203.997C60.946 205.173 61.5771 206 62.4757 206ZM62.4757 205.595C61.8285 205.595 61.3685 204.931 61.3685 203.997C61.3685 203.063 61.8285 202.405 62.4757 202.405C63.1228 202.405 63.5775 203.063 63.5775 203.997C63.5775 204.931 63.1228 205.595 62.4757 205.595Z" fill="#898989"/>
<path d="M50.5462 179.519C50.0875 179.519 49.6853 179.738 49.4474 180.11V180.059C49.4474 179.131 49.9402 178.399 50.5632 178.399C50.9371 178.399 51.1919 178.568 51.4355 178.804L51.679 178.461C51.3902 178.186 51.0503 178 50.5746 178C49.691 178 49 178.906 49 180.059C49 181.15 49.4248 182 50.4783 182C51.2882 182 51.849 181.437 51.849 180.723C51.849 179.958 51.2542 179.519 50.5462 179.519ZM50.4726 181.623C49.9289 181.623 49.6117 181.201 49.4984 180.616C49.5947 180.188 49.9742 179.896 50.467 179.896C50.988 179.896 51.4015 180.217 51.4015 180.745C51.4015 181.173 51.056 181.623 50.4726 181.623ZM54.1428 182C55.0887 182 55.7571 181.173 55.7571 179.997C55.7571 178.827 55.0887 178 54.1428 178C53.1913 178 52.523 178.827 52.523 179.997C52.523 181.173 53.1913 182 54.1428 182ZM54.1428 181.595C53.4575 181.595 52.9704 180.931 52.9704 179.997C52.9704 179.063 53.4575 178.405 54.1428 178.405C54.8282 178.405 55.3096 179.063 55.3096 179.997C55.3096 180.931 54.8282 181.595 54.1428 181.595ZM56.819 182C56.9833 182 57.1192 181.859 57.1192 181.691C57.1192 181.533 56.9833 181.392 56.819 181.392C56.6435 181.392 56.5075 181.533 56.5075 181.691C56.5075 181.859 56.6435 182 56.819 182ZM59.4805 182C60.4264 182 61.0947 181.173 61.0947 179.997C61.0947 178.827 60.4264 178 59.4805 178C58.529 178 57.8606 178.827 57.8606 179.997C57.8606 181.173 58.529 182 59.4805 182ZM59.4805 181.595C58.7952 181.595 58.3081 180.931 58.3081 179.997C58.3081 179.063 58.7952 178.405 59.4805 178.405C60.1658 178.405 60.6473 179.063 60.6473 179.997C60.6473 180.931 60.1658 181.595 59.4805 181.595ZM63.3858 182C64.3317 182 65 181.173 65 179.997C65 178.827 64.3317 178 63.3858 178C62.4342 178 61.7659 178.827 61.7659 179.997C61.7659 181.173 62.4342 182 63.3858 182ZM63.3858 181.595C62.7004 181.595 62.2134 180.931 62.2134 179.997C62.2134 179.063 62.7004 178.405 63.3858 178.405C64.0711 178.405 64.5526 179.063 64.5526 179.997C64.5526 180.931 64.0711 181.595 63.3858 181.595Z" fill="#898989"/>
<path d="M49.4229 157.932H49.9046L51.4889 154.399V154.068H49V154.484H50.9912L49.4229 157.932ZM53.7402 158C54.6341 158 55.2657 157.173 55.2657 155.997C55.2657 154.827 54.6341 154 53.7402 154C52.841 154 52.2094 154.827 52.2094 155.997C52.2094 157.173 52.841 158 53.7402 158ZM53.7402 157.595C53.0926 157.595 52.6322 156.931 52.6322 155.997C52.6322 155.063 53.0926 154.405 53.7402 154.405C54.3879 154.405 54.8428 155.063 54.8428 155.997C54.8428 156.931 54.3879 157.595 53.7402 157.595ZM56.2693 158C56.4245 158 56.553 157.859 56.553 157.691C56.553 157.533 56.4245 157.392 56.2693 157.392C56.1034 157.392 55.9749 157.533 55.9749 157.691C55.9749 157.859 56.1034 158 56.2693 158ZM58.7845 158C59.6783 158 60.3099 157.173 60.3099 155.997C60.3099 154.827 59.6783 154 58.7845 154C57.8852 154 57.2536 154.827 57.2536 155.997C57.2536 157.173 57.8852 158 58.7845 158ZM58.7845 157.595C58.1368 157.595 57.6765 156.931 57.6765 155.997C57.6765 155.063 58.1368 154.405 58.7845 154.405C59.4321 154.405 59.8871 155.063 59.8871 155.997C59.8871 156.931 59.4321 157.595 58.7845 157.595ZM62.4745 158C63.3684 158 64 157.173 64 155.997C64 154.827 63.3684 154 62.4745 154C61.5753 154 60.9437 154.827 60.9437 155.997C60.9437 157.173 61.5753 158 62.4745 158ZM62.4745 157.595C61.8269 157.595 61.3665 156.931 61.3665 155.997C61.3665 155.063 61.8269 154.405 62.4745 154.405C63.1222 154.405 63.5772 155.063 63.5772 155.997C63.5772 156.931 63.1222 157.595 62.4745 157.595Z" fill="#898989"/>
<path d="M230.692 350H225.308C224.033 350 223 351.033 223 352.308V357.692C223 358.967 224.033 360 225.308 360H230.692C231.967 360 233 358.967 233 357.692V352.308C233 351.033 231.967 350 230.692 350Z" fill="#70A2FF"/>
<path d="M321.692 350H316.308C315.033 350 314 351.033 314 352.308V357.692C314 358.967 315.033 360 316.308 360H321.692C322.967 360 324 358.967 324 357.692V352.308C324 351.033 322.967 350 321.692 350Z" fill="#FF6868"/>
<path d="M74 323H393" stroke="#ADADAD" stroke-width="0.5"/>
<path d="M74 156V323" stroke="#ADADAD" stroke-width="0.5"/>
<path d="M112 156V323" stroke="#F2F2F2" stroke-width="0.5"/>
<path d="M152 156V323" stroke="#F2F2F2" stroke-width="0.5"/>
<path d="M192 156V323" stroke="#F2F2F2" stroke-width="0.5"/>
<path d="M232 156V323" stroke="#F2F2F2" stroke-width="0.5"/>
<path d="M393 300H74" stroke="#E2E2E2" stroke-width="0.5" stroke-dasharray="5 5"/>
<path d="M393 276H74" stroke="#E2E2E2" stroke-width="0.5" stroke-dasharray="5 5"/>
<path d="M393 252H74" stroke="#E2E2E2" stroke-width="0.5" stroke-dasharray="5 5"/>
<path d="M393 228H74" stroke="#E2E2E2" stroke-width="0.5" stroke-dasharray="5 5"/>
<path d="M393 204H74" stroke="#E2E2E2" stroke-width="0.5" stroke-dasharray="5 5"/>
<path d="M393 180H74" stroke="#E2E2E2" stroke-width="0.5" stroke-dasharray="5 5"/>
<path d="M393 157H74" stroke="#E2E2E2" stroke-width="0.5" stroke-dasharray="5 5"/>
<path d="M272 156V323" stroke="#F2F2F2" stroke-width="0.5"/>
<path d="M312 156V323" stroke="#F2F2F2" stroke-width="0.5"/>
<path d="M352 156V323" stroke="#F2F2F2" stroke-width="0.5"/>
<path d="M92.5 330C96.0899 330 99 327.09 99 323.5C99 319.91 96.0899 317 92.5 317C88.9101 317 86 319.91 86 323.5C86 327.09 88.9101 330 92.5 330Z" fill="#FF6868"/>
<path d="M132.5 247C136.09 247 139 244.09 139 240.5C139 236.91 136.09 234 132.5 234C128.91 234 126 236.91 126 240.5C126 244.09 128.91 247 132.5 247Z" fill="#FF6868"/>
<path d="M210.5 272C214.09 272 217 269.09 217 265.5C217 261.91 214.09 259 210.5 259C206.91 259 204 261.91 204 265.5C204 269.09 206.91 272 210.5 272Z" fill="#FF6868"/>
<path d="M250.5 270C254.09 270 257 267.09 257 263.5C257 259.91 254.09 257 250.5 257C246.91 257 244 259.91 244 263.5C244 267.09 246.91 270 250.5 270Z" fill="#FF6868"/>
<path d="M132.5 216C136.09 216 139 213.09 139 209.5C139 205.91 136.09 203 132.5 203C128.91 203 126 205.91 126 209.5C126 213.09 128.91 216 132.5 216Z" fill="#70A2FF"/>
<path d="M210.5 222C214.09 222 217 219.09 217 215.5C217 211.91 214.09 209 210.5 209C206.91 209 204 211.91 204 215.5C204 219.09 206.91 222 210.5 222Z" fill="#70A2FF"/>
<path d="M250.5 223C254.09 223 257 220.09 257 216.5C257 212.91 254.09 210 250.5 210C246.91 210 244 212.91 244 216.5C244 220.09 246.91 223 250.5 223Z" fill="#70A2FF"/>
<path d="M291.5 219C295.09 219 298 216.09 298 212.5C298 208.91 295.09 206 291.5 206C287.91 206 285 208.91 285 212.5C285 216.09 287.91 219 291.5 219Z" fill="#70A2FF"/>
<path d="M332.5 212C336.09 212 339 209.09 339 205.5C339 201.91 336.09 199 332.5 199C328.91 199 326 201.91 326 205.5C326 209.09 328.91 212 332.5 212Z" fill="#70A2FF"/>
<path d="M291.5 275C295.09 275 298 272.09 298 268.5C298 264.91 295.09 262 291.5 262C287.91 262 285 264.91 285 268.5C285 272.09 287.91 275 291.5 275Z" fill="#FF6868"/>
<path d="M332.5 265C336.09 265 339 262.09 339 258.5C339 254.91 336.09 252 332.5 252C328.91 252 326 254.91 326 258.5C326 262.09 328.91 265 332.5 265Z" fill="#FF6868"/>
<path d="M372.5 246C376.09 246 379 243.09 379 239.5C379 235.91 376.09 233 372.5 233C368.91 233 366 235.91 366 239.5C366 243.09 368.91 246 372.5 246Z" fill="#FF6868"/>
<path d="M372.5 187C376.09 187 379 184.09 379 180.5C379 176.91 376.09 174 372.5 174C368.91 174 366 176.91 366 180.5C366 184.09 368.91 187 372.5 187Z" fill="#70A2FF"/>
<path d="M171.5 225C175.09 225 178 222.09 178 218.5C178 214.91 175.09 212 171.5 212C167.91 212 165 214.91 165 218.5C165 222.09 167.91 225 171.5 225Z" fill="#70A2FF"/>
<path d="M171.5 282C175.09 282 178 279.09 178 275.5C178 271.91 175.09 269 171.5 269C167.91 269 165 271.91 165 275.5C165 279.09 167.91 282 171.5 282Z" fill="#FF6868"/>
<path d="M373 180L333.155 205.778L291.412 212.833L251.296 216.361L210.909 214.732L172.419 219.074L133.387 210.12L93 323" stroke="#70A2FF" stroke-width="3"/>
<path d="M373 240L332.845 259.133L291.876 269.104L251.45 263.714L211.295 265.331L172.767 275.841L133.426 240L93 323" stroke="#FF6868" stroke-width="3"/>
<defs>
<filter id="filter0_d" x="0" y="0" width="448" height="398" filterUnits="userSpaceOnUse" color-interpolation-filters="sRGB">
<feFlood flood-opacity="0" result="BackgroundImageFix"/>
<feColorMatrix in="SourceAlpha" type="matrix" values="0 0 0 0 0 0 0 0 0 0 0 0 0 0 0 0 0 0 127 0"/>
<feOffset/>
<feGaussianBlur stdDeviation="7.5"/>
<feColorMatrix type="matrix" values="0 0 0 0 0 0 0 0 0 0 0 0 0 0 0 0 0 0 0.1 0"/>
<feBlend mode="normal" in2="BackgroundImageFix" result="effect1_dropShadow"/>
<feBlend mode="normal" in="SourceGraphic" in2="effect1_dropShadow" result="shape"/>
</filter>
</defs>
</svg>
