<svg width="559" height="191" viewBox="0 0 559 191" fill="none" xmlns="http://www.w3.org/2000/svg">
<g filter="url(#filter0_d)">
<rect x="15" y="15" width="529" height="161" rx="20" fill="white"/>
</g>
<path d="M42.2087 49.633H43.6491V41.4725H46.872V40.1789H39V41.4725H42.2087V49.633ZM51.9605 49.7982C54.0569 49.7982 55.8252 48.0917 55.8252 46.0688C55.8252 44.0459 54.0569 42.3532 51.9605 42.3532C49.8499 42.3532 48.0673 44.0459 48.0673 46.0688C48.0673 48.0917 49.8499 49.7982 51.9605 49.7982ZM51.9605 48.6147C50.6057 48.6147 49.4791 47.4587 49.4791 46.0688C49.4791 44.6927 50.6057 43.5367 51.9605 43.5367C53.2868 43.5367 54.4134 44.6927 54.4134 46.0688C54.4134 47.4587 53.2868 48.6147 51.9605 48.6147ZM61.5701 42.3532C60.4292 42.3532 59.5165 42.8761 58.9461 43.7431V42.5183H57.5485V52H58.9461V48.3945C59.5165 49.2752 60.4292 49.7982 61.5701 49.7982C63.5096 49.7982 64.9642 48.2569 64.9642 46.0688C64.9642 43.8945 63.5096 42.3532 61.5701 42.3532ZM61.2278 48.6147C59.9015 48.6147 58.9461 47.555 58.9461 46.0688C58.9461 44.5826 59.9015 43.5367 61.2278 43.5367C62.5826 43.5367 63.5381 44.5826 63.5381 46.0688C63.5381 47.555 62.5826 48.6147 61.2278 48.6147ZM83.5215 49.633H84.9618V40.1789H83.5215V49.633ZM91.8201 49.7982C93.2177 49.7982 94.5012 49.2202 95.4281 48.3119L94.4156 47.3761C93.7596 48.0642 92.8327 48.5183 91.8201 48.5183C89.8664 48.5183 88.2121 46.867 88.2121 44.8991C88.2121 42.945 89.8664 41.2936 91.8201 41.2936C92.8327 41.2936 93.7596 41.7477 94.4156 42.4358L95.4281 41.5C94.5012 40.578 93.2177 40.0138 91.8201 40.0138C89.0678 40.0138 86.729 42.2431 86.729 44.8991C86.729 47.555 89.0678 49.7982 91.8201 49.7982ZM104.592 40.1789L101.184 47.844L97.7753 40.1789H96.178L100.385 49.633H101.982L106.189 40.1789H104.592ZM115.217 49.7844C117.527 49.7844 118.782 48.5734 118.782 46.9771C118.782 45.2844 117.427 44.6514 115.474 44.211C113.862 43.8394 113.021 43.5367 113.021 42.656C113.021 41.8991 113.791 41.2248 114.889 41.2248C115.887 41.2248 116.871 41.6514 117.698 42.3807L118.526 41.3349C117.584 40.5367 116.458 40 114.946 40C112.978 40 111.552 41.1972 111.552 42.7798C111.552 44.4862 112.878 45.0642 114.875 45.5183C116.515 45.8761 117.328 46.2202 117.328 47.1147C117.328 47.8716 116.629 48.5596 115.274 48.5596C113.948 48.5596 112.921 48.0367 112.051 47.2385L111.181 48.2706C112.222 49.2339 113.577 49.7844 115.217 49.7844ZM123.989 49.7982C125.087 49.7982 126.043 49.3578 126.756 48.656L125.8 47.8165C125.344 48.3119 124.688 48.6147 124.003 48.6147C122.649 48.6147 121.536 47.4587 121.536 46.0688C121.536 44.6927 122.649 43.5367 123.989 43.5367C124.674 43.5367 125.316 43.8257 125.758 44.3073L126.713 43.4541C126.014 42.7798 125.059 42.3532 124.003 42.3532C121.893 42.3532 120.11 44.0459 120.11 46.0688C120.11 48.0917 121.893 49.7982 123.989 49.7982ZM131.608 49.7982C133.704 49.7982 135.472 48.0917 135.472 46.0688C135.472 44.0459 133.704 42.3532 131.608 42.3532C129.497 42.3532 127.714 44.0459 127.714 46.0688C127.714 48.0917 129.497 49.7982 131.608 49.7982ZM131.608 48.6147C130.253 48.6147 129.126 47.4587 129.126 46.0688C129.126 44.6927 130.253 43.5367 131.608 43.5367C132.934 43.5367 134.06 44.6927 134.06 46.0688C134.06 47.4587 132.934 48.6147 131.608 48.6147ZM138.607 43.8807V42.5183H137.195V49.633H138.607V45.5872C138.736 44.3486 139.819 43.5367 141.345 43.5367V42.3532C140.076 42.3532 139.078 42.945 138.607 43.8807ZM146.103 48.5872C144.833 48.5872 143.935 47.7339 143.75 46.5505H149.553C149.553 44.0046 148.256 42.3532 146.003 42.3532C143.963 42.3532 142.323 43.922 142.323 46.055C142.323 48.2431 144.063 49.7982 146.117 49.7982C147.158 49.7982 148.441 49.3716 149.097 48.6972L148.213 47.8165C147.771 48.2569 146.873 48.5872 146.103 48.5872ZM146.06 43.5642C147.329 43.5642 148.028 44.3624 148.185 45.4633H143.764C143.992 44.3073 144.919 43.5642 146.06 43.5642ZM155.328 49.633H156.768V40.1789H155.328V49.633ZM162.628 42.3532C161.63 42.3532 160.731 42.8486 160.289 43.5505V42.5183H158.877V49.633H160.289V45.0229C160.403 44.1835 161.288 43.5367 162.314 43.5367C163.313 43.5367 164.011 44.2798 164.011 45.3394V49.633H165.395V45.1055C165.395 43.4954 164.254 42.3532 162.628 42.3532ZM178.739 41.4725V40.1789H171.538V49.633H172.992V45.5183H178.183V44.2248H172.992V41.4725H178.739ZM183.377 49.633H184.86V45.9312L188.753 40.1789H187.085L184.119 44.6101L181.195 40.1789H179.455L183.377 45.9312V49.633ZM193.7 49.633H200.673V48.3394H195.981L198.277 46.4679C199.96 45.1468 200.588 44.1422 200.588 42.8761C200.588 41.156 199.133 40.0138 197.308 40.0138C195.753 40.0138 194.598 40.7018 193.742 41.844L194.712 42.6697C195.397 41.8165 196.181 41.2661 197.251 41.2661C198.22 41.2661 199.105 41.8716 199.105 42.9037C199.105 43.7569 198.605 44.5688 197.293 45.6284L193.7 48.4908V49.633ZM206.488 49.7982C208.926 49.7982 210.666 47.7752 210.666 44.8991C210.666 42.0367 208.926 40.0138 206.488 40.0138C204.02 40.0138 202.295 42.0367 202.295 44.8991C202.295 47.7752 204.02 49.7982 206.488 49.7982ZM206.488 48.5183C204.89 48.5183 203.764 47.0183 203.764 44.8991C203.764 42.7798 204.89 41.2936 206.488 41.2936C208.071 41.2936 209.183 42.7798 209.183 44.8991C209.183 47.0183 208.071 48.5183 206.488 48.5183ZM212.111 49.633H219.085V48.3394H214.393L216.689 46.4679C218.372 45.1468 218.999 44.1422 218.999 42.8761C218.999 41.156 217.545 40.0138 215.719 40.0138C214.165 40.0138 213.01 40.7018 212.154 41.844L213.124 42.6697C213.808 41.8165 214.593 41.2661 215.662 41.2661C216.632 41.2661 217.516 41.8716 217.516 42.9037C217.516 43.7569 217.017 44.5688 215.705 45.6284L212.111 48.4908V49.633ZM222.545 49.633H224V40.1789H222.831L220.249 41.8716L220.848 42.8761L222.545 41.8303V49.633Z" fill="black"/>
<path d="M76.9736 49.6329H70V48.4907L73.5938 45.6284C74.9058 44.5687 75.4049 43.7568 75.4049 42.9036C75.4049 41.8715 74.5207 41.266 73.551 41.266C72.4814 41.266 71.6971 41.8164 71.0125 42.6696L70.0428 41.8439C70.8984 40.7017 72.0536 40.0137 73.608 40.0137C75.4334 40.0137 76.888 41.1559 76.888 42.8761C76.888 44.1421 76.2605 45.1467 74.5778 46.4678L72.2817 48.3394H76.9736V49.6329Z" fill="black"/>
<path d="M42.9118 63.9902C44.6309 63.9902 45.512 63.1152 45.512 62.0435C45.512 60.8539 44.502 60.3919 43.0944 60.0871C41.8373 59.8118 41.1067 59.566 41.1067 58.868C41.1067 58.2486 41.7729 57.698 42.6862 57.698C43.4598 57.698 44.1904 58.0225 44.8028 58.5632L45.3186 57.9635C44.6417 57.3933 43.8251 57 42.7291 57C41.3108 57 40.2579 57.8455 40.2579 58.927C40.2579 60.0969 41.1927 60.5197 42.6754 60.8343C43.9648 61.1096 44.6632 61.3947 44.6632 62.1124C44.6632 62.7219 44.083 63.2921 42.944 63.2921C41.9125 63.2921 41.1497 62.889 40.5265 62.3188L40 62.9185C40.7414 63.5871 41.6976 63.9902 42.9118 63.9902ZM49.4905 64C50.2641 64 50.9732 63.7051 51.4997 63.2233L50.941 62.7219C50.565 63.1053 50.0492 63.3413 49.4905 63.3413C48.3838 63.3413 47.4598 62.427 47.4598 61.3357C47.4598 60.2542 48.3838 59.3399 49.4905 59.3399C50.0385 59.3399 50.5435 59.566 50.9088 59.9298L51.4675 59.4284C50.941 58.9663 50.2426 58.6812 49.4905 58.6812C47.9325 58.6812 46.6109 59.8905 46.6109 61.3357C46.6109 62.7809 47.9325 64 49.4905 64ZM55.1986 64C56.7565 64 58.0674 62.7809 58.0674 61.3357C58.0674 59.8905 56.7565 58.6812 55.1986 58.6812C53.6406 58.6812 52.319 59.8905 52.319 61.3357C52.319 62.7809 53.6406 64 55.1986 64ZM55.1986 63.3413C54.0919 63.3413 53.1678 62.427 53.1678 61.3357C53.1678 60.2542 54.0919 59.3399 55.1986 59.3399C56.2945 59.3399 57.2186 60.2542 57.2186 61.3357C57.2186 62.427 56.2945 63.3413 55.1986 63.3413ZM60.2793 59.7921V58.7992H59.4735V63.882H60.2793V61.0407C60.2793 60.0478 61.1711 59.3399 62.4282 59.3399V58.6812C61.4075 58.6812 60.6124 59.1138 60.2793 59.7921ZM66.0464 63.3413C64.9505 63.3413 64.1876 62.6138 64.0694 61.6208H68.6144C68.6144 59.8413 67.6581 58.6812 65.9819 58.6812C64.4884 58.6812 63.2421 59.8118 63.2421 61.3258C63.2421 62.889 64.5744 64 66.0572 64C66.8308 64 67.8085 63.6952 68.292 63.2135L67.7978 62.7317C67.454 63.0758 66.7018 63.3413 66.0464 63.3413ZM66.0142 59.3399C67.1209 59.3399 67.7118 60.0478 67.8193 60.9621H64.0801C64.2306 59.9789 65.0257 59.3399 66.0142 59.3399ZM73.2428 63.882H76.7563C78.0349 63.882 78.9482 63.1152 78.9482 62.0337C78.9482 61.2963 78.4539 60.6868 77.6051 60.2935C78.2713 59.9396 78.6581 59.5267 78.6581 58.809C78.6581 57.8258 77.82 57.1278 76.6273 57.1278H73.2428V63.882ZM74.0809 59.9888V57.8258H76.4124C77.229 57.8258 77.8092 58.2781 77.8092 58.9073C77.8092 59.5365 77.229 59.9888 76.4124 59.9888H74.0809ZM74.0809 63.184V60.6868H76.5414C77.4547 60.6868 78.0993 61.2079 78.0993 61.9354C78.0993 62.6629 77.4547 63.184 76.5414 63.184H74.0809ZM81.2543 59.7921V58.7992H80.4485V63.882H81.2543V61.0407C81.2543 60.0478 82.1465 59.3399 83.4037 59.3399V58.6812C82.3829 58.6812 81.5874 59.1138 81.2543 59.7921ZM87.0215 63.3413C85.9256 63.3413 85.1627 62.6138 85.0445 61.6208H89.5895C89.5895 59.8413 88.6332 58.6812 86.9571 58.6812C85.4636 58.6812 84.2172 59.8118 84.2172 61.3258C84.2172 62.889 85.5495 64 87.0323 64C87.8059 64 88.7836 63.6952 89.2671 63.2135L88.7729 62.7317C88.4291 63.0758 87.6769 63.3413 87.0215 63.3413ZM86.9893 59.3399C88.096 59.3399 88.6869 60.0478 88.7944 60.9621H85.0553C85.2057 59.9789 86.0008 59.3399 86.9893 59.3399ZM93.1644 58.6812C92.6271 58.6812 91.961 58.809 91.1659 59.1728L91.4882 59.7725C91.9932 59.5365 92.5519 59.3104 93.1106 59.3104C94.314 59.3104 94.6149 60.0969 94.6149 60.7851V60.9719C94.0454 60.8048 93.4115 60.6868 92.8098 60.6868C91.6171 60.6868 90.6286 61.3652 90.6286 62.3778C90.6286 63.3806 91.4882 64 92.6594 64C93.39 64 94.2173 63.6854 94.6149 63.0857V63.882H95.4207V60.7851C95.4207 59.5562 94.6794 58.6812 93.1644 58.6812ZM92.7991 63.3511C92.0147 63.3511 91.413 62.9775 91.413 62.3483C91.413 61.7388 92.1114 61.3062 92.9387 61.3062C93.5404 61.3062 94.1099 61.3848 94.6149 61.5126V62.2893C94.4 63.007 93.5297 63.3511 92.7991 63.3511ZM101.935 58.7992H100.904L97.8628 61.611V57.0098H97.057V63.882H97.8628V62.5351L98.8621 61.6306L100.785 63.882H101.795L99.4316 61.1292L101.935 58.7992ZM107.242 57.0098V59.7528C106.823 59.0843 106.114 58.6812 105.222 58.6812C103.761 58.6812 102.665 59.7823 102.665 61.3357C102.665 62.8989 103.761 64 105.222 64C106.114 64 106.823 63.5969 107.242 62.9284V63.882H108.048V57.0098H107.242ZM105.373 63.3413C104.287 63.3413 103.514 62.5056 103.514 61.3357C103.514 60.1657 104.287 59.3399 105.373 59.3399C106.469 59.3399 107.242 60.1657 107.242 61.3357C107.242 62.5056 106.469 63.3413 105.373 63.3413ZM112.332 64C113.89 64 115.201 62.7809 115.201 61.3357C115.201 59.8905 113.89 58.6812 112.332 58.6812C110.774 58.6812 109.452 59.8905 109.452 61.3357C109.452 62.7809 110.774 64 112.332 64ZM112.332 63.3413C111.225 63.3413 110.301 62.427 110.301 61.3357C110.301 60.2542 111.225 59.3399 112.332 59.3399C113.428 59.3399 114.352 60.2542 114.352 61.3357C114.352 62.427 113.428 63.3413 112.332 63.3413ZM117.74 63.882H118.502L119.996 59.8216L121.468 63.882H122.231L124.1 58.7992H123.241L121.855 62.8989L120.34 58.7992H119.641L118.126 62.8989L116.74 58.7992H115.881L117.74 63.882ZM127.916 58.6812C127.131 58.6812 126.411 59.0744 126.089 59.6152V58.7992H125.283V63.882H126.089V60.6475C126.089 59.9396 126.873 59.3399 127.808 59.3399C128.625 59.3399 129.194 59.9199 129.194 60.7458V63.882H130V60.6475C130 59.4972 129.14 58.6812 127.916 58.6812Z" fill="#898989"/>
<path d="M461.492 64.2227H462.403L459.157 57.124H458.246L455 64.2227H455.911L456.65 62.6108H460.753L461.492 64.2227ZM456.993 61.8461L458.707 58.116L460.41 61.8461H456.993ZM465.391 64.2227H466.162L468.487 58.8806H467.587L465.776 63.3134L463.934 58.8806H463.034L465.391 64.2227ZM473.902 58.8806V59.8002C473.474 59.1492 472.766 58.7566 471.888 58.7566C470.399 58.7566 469.338 59.8002 469.338 61.2882C469.338 62.7761 470.399 63.8301 471.888 63.8301C472.766 63.8301 473.474 63.4374 473.902 62.7864V63.6544C473.902 64.698 473.152 65.3077 471.877 65.3077C471.192 65.3077 470.527 65.07 470.099 64.6774L469.745 65.287C470.249 65.7003 471.084 66 471.984 66C473.581 66 474.706 65.0287 474.706 63.6544V58.8806H473.902ZM472.038 63.1378C470.956 63.1378 470.185 62.3731 470.185 61.2882C470.185 60.2135 470.956 59.4489 472.038 59.4489C473.131 59.4489 473.902 60.2135 473.902 61.2882C473.902 62.3731 473.131 63.1378 472.038 63.1378ZM476.963 64.3467C477.274 64.3467 477.531 64.0884 477.531 63.7784C477.531 63.4891 477.274 63.2308 476.963 63.2308C476.631 63.2308 476.374 63.4891 476.374 63.7784C476.374 64.0884 476.631 64.3467 476.963 64.3467ZM487.537 57.8886V57.124H482.255V64.2227H483.102V60.9885H487.098V60.2239H483.102V57.8886H487.537ZM491.098 64.2227H491.976V61.3295L494.933 57.124H493.926L491.537 60.5649L489.169 57.124H488.13L491.098 61.3295V64.2227ZM498.757 64.2227H503.835V63.4581H500.096L502.024 61.8461C503.267 60.8129 503.76 60.0482 503.76 59.0873C503.76 57.8163 502.689 57 501.414 57C500.257 57 499.432 57.527 498.821 58.3639L499.41 58.8289C499.914 58.1676 500.525 57.7233 501.382 57.7233C502.164 57.7233 502.914 58.2296 502.914 59.0976C502.914 59.8002 502.485 60.4822 501.446 61.3398L498.757 63.5511V64.2227ZM508.237 64.3467C510.027 64.3467 511.291 62.8278 511.291 60.6682C511.291 58.5189 510.027 57 508.237 57C506.438 57 505.173 58.5189 505.173 60.6682C505.173 62.8278 506.438 64.3467 508.237 64.3467ZM508.237 63.6028C506.941 63.6028 506.02 62.3835 506.02 60.6682C506.02 58.9529 506.941 57.744 508.237 57.744C509.534 57.744 510.444 58.9529 510.444 60.6682C510.444 62.3835 509.534 63.6028 508.237 63.6028ZM512.452 64.2227H517.53V63.4581H513.791L515.72 61.8461C516.963 60.8129 517.455 60.0482 517.455 59.0873C517.455 57.8163 516.384 57 515.109 57C513.952 57 513.127 57.527 512.517 58.3639L513.106 58.8289C513.609 58.1676 514.22 57.7233 515.077 57.7233C515.859 57.7233 516.609 58.2296 516.609 59.0976C516.609 59.8002 516.181 60.4822 515.141 61.3398L512.452 63.5511V64.2227ZM520.164 64.2227H521V57.124H520.325L518.515 58.3123L518.879 58.9116L520.164 58.1056V64.2227Z" fill="#898989"/>
<path d="M40 126V120.025H42.4608C42.9554 120.025 43.3315 120.079 43.5889 120.188C43.8464 120.294 44.0521 120.482 44.206 120.755C44.3599 121.026 44.4369 121.326 44.4369 121.655C44.4369 122.079 44.3095 122.437 44.0545 122.727C43.7996 123.018 43.4059 123.203 42.8734 123.281C43.0677 123.382 43.2154 123.481 43.3164 123.579C43.5309 123.791 43.734 124.056 43.9258 124.374L44.8912 126H43.9675L43.2331 124.757C43.0186 124.398 42.8419 124.124 42.7031 123.933C42.5642 123.744 42.4393 123.61 42.3283 123.534C42.2197 123.458 42.1087 123.405 41.9951 123.375C41.9119 123.356 41.7756 123.346 41.5862 123.346H40.7345V126H40ZM40.7345 122.662H42.3131C42.6488 122.662 42.9113 122.625 43.1006 122.552C43.2898 122.476 43.4337 122.356 43.5321 122.193C43.6306 122.028 43.6798 121.848 43.6798 121.655C43.6798 121.372 43.5838 121.14 43.392 120.958C43.2028 120.776 42.9024 120.685 42.491 120.685H40.7345V122.662ZM44.9821 126L47.1134 120.025H47.9046L50.1761 126H49.3394L48.6921 124.19H46.3714L45.762 126H44.9821ZM46.5834 123.547H48.465L47.8857 121.891C47.7091 121.389 47.5778 120.976 47.492 120.653C47.4214 121.036 47.3217 121.416 47.193 121.794L46.5834 123.547ZM50.7553 126V120.025H51.5087L54.4237 124.716V120.025H55.1279V126H54.3745L51.4595 121.305V126H50.7553ZM56.3355 126V120.025H57.0699V122.988L59.826 120.025H60.8216L58.4934 122.446L60.9238 126H59.9547L57.9785 122.976L57.0699 123.93V126H56.3355ZM67 125.295V126H63.3316C63.3265 125.823 63.353 125.654 63.411 125.491C63.5045 125.221 63.6533 124.957 63.8578 124.696C64.0647 124.435 64.3626 124.134 64.7513 123.791C65.3545 123.258 65.762 122.837 65.974 122.528C66.186 122.215 66.2921 121.92 66.2921 121.643C66.2921 121.352 66.1948 121.108 66.0005 120.909C65.8087 120.708 65.5576 120.608 65.2472 120.608C64.919 120.608 64.6566 120.714 64.4597 120.926C64.2629 121.138 64.1632 121.431 64.1606 121.806L63.4603 121.729C63.5083 121.166 63.6887 120.738 64.0017 120.445C64.3146 120.149 64.7348 120 65.2623 120C65.7948 120 66.2163 120.159 66.5267 120.477C66.8372 120.795 66.9924 121.189 66.9924 121.659C66.9924 121.898 66.947 122.134 66.8561 122.365C66.7652 122.595 66.6138 122.839 66.4018 123.094C66.1923 123.35 65.8428 123.7 65.3531 124.145C64.9443 124.515 64.6818 124.766 64.5657 124.9C64.4497 125.03 64.3538 125.162 64.278 125.295H67Z" fill="#1A1818"/>
<path d="M40 100.975V95H42.4608C42.9554 95 43.3315 95.0543 43.5889 95.1628C43.8464 95.2688 44.0521 95.4574 44.206 95.7296C44.3599 96.0008 44.4369 96.3013 44.4369 96.6302C44.4369 97.0543 44.3095 97.4115 44.0545 97.702C43.7996 97.9925 43.4059 98.1778 42.8734 98.2563C43.0677 98.3573 43.2154 98.4558 43.3164 98.5543C43.5309 98.7663 43.734 99.0309 43.9258 99.3489L44.8912 100.975H43.9675L43.2331 99.732C43.0186 99.3731 42.8419 99.0985 42.7031 98.9082C42.5642 98.7187 42.4393 98.5851 42.3283 98.5092C42.2197 98.4332 42.1087 98.3798 41.9951 98.3498C41.9119 98.3314 41.7756 98.3214 41.5862 98.3214H40.7345V100.975H40ZM40.7345 97.6369H42.3131C42.6488 97.6369 42.9113 97.6002 43.1006 97.5267C43.2898 97.4507 43.4337 97.3314 43.5321 97.1678C43.6306 97.0025 43.6798 96.823 43.6798 96.6302C43.6798 96.3472 43.5838 96.1152 43.392 95.9332C43.2028 95.7513 42.9024 95.6603 42.491 95.6603H40.7345V97.6369ZM44.9821 100.975L47.1134 95H47.9046L50.1761 100.975H49.3394L48.6921 99.1653H46.3714L45.762 100.975H44.9821ZM46.5834 98.5217H48.465L47.8857 96.8664C47.7091 96.3639 47.5778 95.9507 47.492 95.6277C47.4214 96.0108 47.3217 96.3907 47.193 96.7688L46.5834 98.5217ZM50.7553 100.975V95H51.5087L54.4237 99.6912V95H55.1279V100.975H54.3745L51.4595 96.2796V100.975H50.7553ZM56.3355 100.975V95H57.0699V97.9633L59.826 95H60.8216L58.4934 97.4207L60.9238 100.975H59.9547L57.9785 97.9508L57.0699 98.9048V100.975H56.3355Z" fill="#1A1818"/>
<path d="M67 101H66.3334V96.3247C66.1729 96.4933 65.9617 96.6619 65.7 96.8306C65.4408 96.9992 65.2074 97.1252 65 97.2095V96.5C65.3729 96.3072 65.6988 96.0735 65.9778 95.7997C66.2567 95.525 66.4543 95.2588 66.5704 95H67V101Z" fill="#1A1818"/>
<path d="M76 153.001C76 152.538 76.0555 152.166 76.1663 151.884C76.2793 151.601 76.4456 151.383 76.6653 151.229C76.887 151.076 77.1653 151 77.5 151C77.7469 151 77.9634 151.043 78.1496 151.128C78.3357 151.212 78.4895 151.334 78.6109 151.494C78.7322 151.653 78.8274 151.847 78.8964 152.076C78.9655 152.305 79 152.613 79 153.001C79 153.461 78.9445 153.832 78.8337 154.116C78.7228 154.397 78.5565 154.615 78.3347 154.77C78.115 154.923 77.8368 155 77.5 155C77.0565 155 76.7082 154.865 76.455 154.594C76.1517 154.268 76 153.737 76 153.001ZM76.5805 153.001C76.5805 153.644 76.6684 154.073 76.8442 154.286C77.022 154.499 77.2406 154.604 77.5 154.604C77.7594 154.604 77.977 154.498 78.1527 154.284C78.3305 154.07 78.4195 153.643 78.4195 153.001C78.4195 152.356 78.3305 151.928 78.1527 151.716C77.977 151.504 77.7573 151.398 77.4937 151.398C77.2343 151.398 77.0272 151.491 76.8724 151.679C76.6778 151.917 76.5805 152.358 76.5805 153.001Z" fill="#898989"/>
<path d="M166.744 154.471V154.933H164C163.997 154.817 164.017 154.706 164.06 154.599C164.13 154.423 164.241 154.249 164.394 154.078C164.549 153.907 164.772 153.71 165.062 153.485C165.513 153.136 165.818 152.86 165.976 152.657C166.135 152.452 166.214 152.258 166.214 152.076C166.214 151.886 166.142 151.726 165.996 151.595C165.853 151.464 165.665 151.398 165.433 151.398C165.188 151.398 164.991 151.467 164.844 151.606C164.697 151.745 164.623 151.937 164.62 152.184L164.097 152.133C164.133 151.764 164.268 151.483 164.501 151.291C164.736 151.097 165.05 151 165.444 151C165.843 151 166.158 151.104 166.39 151.312C166.622 151.521 166.738 151.779 166.738 152.087C166.738 152.244 166.704 152.398 166.636 152.55C166.569 152.701 166.455 152.861 166.297 153.028C166.14 153.196 165.878 153.425 165.512 153.717C165.206 153.96 165.01 154.124 164.924 154.212C164.837 154.297 164.765 154.384 164.708 154.471H166.744ZM167.293 153.001C167.293 152.538 167.343 152.166 167.443 151.884C167.545 151.601 167.695 151.383 167.893 151.229C168.093 151.076 168.345 151 168.647 151C168.869 151 169.065 151.043 169.232 151.128C169.4 151.212 169.539 151.334 169.649 151.494C169.758 151.653 169.844 151.847 169.907 152.076C169.969 152.305 170 152.613 170 153.001C170 153.461 169.95 153.832 169.85 154.116C169.75 154.397 169.6 154.615 169.4 154.77C169.202 154.923 168.95 155 168.647 155C168.247 155 167.932 154.865 167.704 154.594C167.43 154.268 167.293 153.737 167.293 153.001ZM167.817 153.001C167.817 153.644 167.896 154.073 168.055 154.286C168.215 154.499 168.412 154.604 168.647 154.604C168.88 154.604 169.077 154.498 169.235 154.284C169.396 154.07 169.476 153.643 169.476 153.001C169.476 152.356 169.396 151.928 169.235 151.716C169.077 151.504 168.879 151.398 168.641 151.398C168.407 151.398 168.22 151.491 168.08 151.679C167.904 151.917 167.817 152.358 167.817 153.001Z" fill="#898989"/>
<path d="M252.771 154.933V153.995H251V153.554L252.863 151.016H253.272V153.554H253.823V153.995H253.272V154.933H252.771ZM252.771 153.554V151.788L251.493 153.554H252.771ZM254.338 153.001C254.338 152.538 254.387 152.166 254.486 151.884C254.586 151.601 254.734 151.383 254.929 151.229C255.125 151.076 255.372 151 255.669 151C255.888 151 256.08 151.043 256.245 151.128C256.41 151.212 256.547 151.334 256.654 151.494C256.762 151.653 256.847 151.847 256.908 152.076C256.969 152.305 257 152.613 257 153.001C257 153.461 256.95 153.832 256.852 154.116C256.754 154.397 256.607 154.615 256.41 154.77C256.215 154.923 255.968 155 255.669 155C255.276 155 254.967 154.865 254.742 154.594C254.473 154.268 254.338 153.737 254.338 153.001ZM254.853 153.001C254.853 153.644 254.931 154.073 255.087 154.286C255.245 154.499 255.439 154.604 255.669 154.604C255.899 154.604 256.092 154.498 256.248 154.284C256.406 154.07 256.485 153.643 256.485 153.001C256.485 152.356 256.406 151.928 256.248 151.716C256.092 151.504 255.897 151.398 255.663 151.398C255.433 151.398 255.25 151.491 255.112 151.679C254.939 151.917 254.853 152.358 254.853 153.001Z" fill="#898989"/>
<path d="M340.134 151.975L339.539 152.012C339.485 151.824 339.41 151.686 339.312 151.601C339.15 151.464 338.951 151.395 338.714 151.395C338.523 151.395 338.355 151.438 338.211 151.524C338.023 151.634 337.874 151.795 337.765 152.007C337.657 152.219 337.6 152.521 337.595 152.913C337.74 152.736 337.916 152.606 338.125 152.52C338.333 152.435 338.551 152.392 338.78 152.392C339.18 152.392 339.519 152.51 339.798 152.747C340.08 152.983 340.221 153.287 340.221 153.661C340.221 153.907 340.154 154.136 340.021 154.348C339.89 154.558 339.71 154.719 339.479 154.831C339.248 154.944 338.986 155 338.694 155C338.194 155 337.788 154.853 337.473 154.559C337.157 154.263 337 153.777 337 153.1C337 152.343 337.174 151.792 337.523 151.449C337.826 151.149 338.235 151 338.75 151C339.134 151 339.447 151.086 339.691 151.259C339.938 151.432 340.085 151.67 340.134 151.975ZM337.689 153.664C337.689 153.829 337.732 153.988 337.818 154.14C337.908 154.291 338.03 154.407 338.188 154.487C338.346 154.565 338.511 154.604 338.684 154.604C338.936 154.604 339.154 154.523 339.336 154.359C339.518 154.195 339.608 153.972 339.608 153.691C339.608 153.42 339.519 153.207 339.339 153.052C339.159 152.895 338.933 152.817 338.66 152.817C338.39 152.817 338.16 152.895 337.972 153.052C337.783 153.207 337.689 153.411 337.689 153.664ZM340.82 153.001C340.82 152.538 340.878 152.166 340.996 151.884C341.115 151.601 341.292 151.383 341.525 151.229C341.76 151.076 342.055 151 342.41 151C342.671 151 342.901 151.043 343.098 151.128C343.295 151.212 343.458 151.334 343.587 151.494C343.716 151.653 343.817 151.847 343.89 152.076C343.963 152.305 344 152.613 344 153.001C344 153.461 343.941 153.832 343.824 154.116C343.706 154.397 343.53 154.615 343.295 154.77C343.062 154.923 342.767 155 342.41 155C341.94 155 341.57 154.865 341.302 154.594C340.98 154.268 340.82 153.737 340.82 153.001ZM341.435 153.001C341.435 153.644 341.528 154.073 341.714 154.286C341.903 154.499 342.135 154.604 342.41 154.604C342.684 154.604 342.915 154.498 343.101 154.284C343.29 154.07 343.384 153.643 343.384 153.001C343.384 152.356 343.29 151.928 343.101 151.716C342.915 151.504 342.682 151.398 342.403 151.398C342.128 151.398 341.908 151.491 341.744 151.679C341.538 151.917 341.435 152.358 341.435 153.001Z" fill="#898989"/>
<path d="M425.798 152.809C425.584 152.736 425.426 152.631 425.323 152.496C425.22 152.361 425.169 152.199 425.169 152.01C425.169 151.725 425.278 151.485 425.497 151.291C425.717 151.097 426.009 151 426.372 151C426.738 151 427.033 151.1 427.256 151.299C427.479 151.497 427.591 151.738 427.591 152.023C427.591 152.205 427.54 152.363 427.437 152.499C427.335 152.633 427.181 152.736 426.973 152.809C427.23 152.887 427.426 153.014 427.56 153.189C427.695 153.363 427.762 153.571 427.762 153.814C427.762 154.148 427.636 154.43 427.382 154.658C427.128 154.886 426.795 155 426.381 155C425.968 155 425.634 154.886 425.38 154.658C425.127 154.428 425 154.142 425 153.8C425 153.545 425.069 153.332 425.206 153.162C425.345 152.989 425.542 152.871 425.798 152.809ZM425.695 151.994C425.695 152.179 425.758 152.33 425.886 152.448C426.014 152.566 426.18 152.624 426.384 152.624C426.582 152.624 426.744 152.566 426.87 152.451C426.998 152.333 427.062 152.19 427.062 152.021C427.062 151.844 426.996 151.696 426.864 151.577C426.735 151.456 426.573 151.395 426.378 151.395C426.182 151.395 426.019 151.454 425.889 151.571C425.76 151.689 425.695 151.83 425.695 151.994ZM425.529 153.803C425.529 153.94 425.563 154.073 425.632 154.201C425.702 154.33 425.807 154.429 425.944 154.5C426.081 154.57 426.229 154.604 426.387 154.604C426.633 154.604 426.836 154.53 426.996 154.383C427.156 154.235 427.236 154.047 427.236 153.819C427.236 153.587 427.153 153.396 426.987 153.244C426.823 153.093 426.618 153.017 426.369 153.017C426.127 153.017 425.927 153.092 425.766 153.242C425.608 153.392 425.529 153.578 425.529 153.803ZM428.266 153.001C428.266 152.538 428.316 152.166 428.418 151.884C428.52 151.601 428.672 151.383 428.872 151.229C429.074 151.076 429.328 151 429.633 151C429.858 151 430.055 151.043 430.225 151.128C430.394 151.212 430.534 151.334 430.645 151.494C430.756 151.653 430.842 151.847 430.906 152.076C430.968 152.305 431 152.613 431 153.001C431 153.461 430.949 153.832 430.848 154.116C430.747 154.397 430.596 154.615 430.394 154.77C430.193 154.923 429.94 155 429.633 155C429.229 155 428.911 154.865 428.681 154.594C428.404 154.268 428.266 153.737 428.266 153.001ZM428.795 153.001C428.795 153.644 428.875 154.073 429.035 154.286C429.197 154.499 429.396 154.604 429.633 154.604C429.869 154.604 430.068 154.498 430.227 154.284C430.39 154.07 430.47 153.643 430.47 153.001C430.47 152.356 430.39 151.928 430.227 151.716C430.068 151.504 429.867 151.398 429.627 151.398C429.39 151.398 429.202 151.491 429.061 151.679C428.883 151.917 428.795 152.358 428.795 153.001Z" fill="#898989"/>
<path d="M512.743 154.933H512.162V151.868C512.022 151.979 511.838 152.089 511.61 152.2C511.384 152.31 511.18 152.393 511 152.448V151.983C511.325 151.856 511.609 151.703 511.852 151.524C512.095 151.344 512.267 151.169 512.368 151H512.743V154.933ZM514.234 153.001C514.234 152.538 514.291 152.166 514.405 151.884C514.522 151.601 514.693 151.383 514.919 151.229C515.147 151.076 515.433 151 515.777 151C516.031 151 516.254 151.043 516.445 151.128C516.637 151.212 516.795 151.334 516.92 151.494C517.045 151.653 517.143 151.847 517.213 152.076C517.285 152.305 517.32 152.613 517.32 153.001C517.32 153.461 517.263 153.832 517.149 154.116C517.035 154.397 516.864 154.615 516.636 154.77C516.41 154.923 516.124 155 515.777 155C515.321 155 514.962 154.865 514.702 154.594C514.39 154.268 514.234 153.737 514.234 153.001ZM514.832 153.001C514.832 153.644 514.922 154.073 515.103 154.286C515.286 154.499 515.51 154.604 515.777 154.604C516.044 154.604 516.268 154.498 516.449 154.284C516.632 154.07 516.723 153.643 516.723 153.001C516.723 152.356 516.632 151.928 516.449 151.716C516.268 151.504 516.042 151.398 515.771 151.398C515.504 151.398 515.291 151.491 515.132 151.679C514.931 151.917 514.832 152.358 514.832 153.001ZM517.914 153.001C517.914 152.538 517.971 152.166 518.085 151.884C518.201 151.601 518.372 151.383 518.598 151.229C518.826 151.076 519.113 151 519.457 151C519.711 151 519.934 151.043 520.125 151.128C520.316 151.212 520.475 151.334 520.599 151.494C520.724 151.653 520.822 151.847 520.894 152.076C520.964 152.305 521 152.613 521 153.001C521 153.461 520.943 153.832 520.829 154.116C520.715 154.397 520.544 154.615 520.316 154.77C520.09 154.923 519.803 155 519.457 155C519.001 155 518.643 154.865 518.382 154.594C518.07 154.268 517.914 153.737 517.914 153.001ZM518.511 153.001C518.511 153.644 518.602 154.073 518.782 154.286C518.965 154.499 519.19 154.604 519.457 154.604C519.724 154.604 519.948 154.498 520.128 154.284C520.311 154.07 520.403 153.643 520.403 153.001C520.403 152.356 520.311 151.928 520.128 151.716C519.948 151.504 519.721 151.398 519.45 151.398C519.183 151.398 518.971 151.491 518.811 151.679C518.612 151.917 518.511 152.358 518.511 153.001Z" fill="#898989"/>
<path d="M459.795 123.809C459.582 123.736 459.424 123.631 459.321 123.496C459.219 123.361 459.168 123.199 459.168 123.01C459.168 122.725 459.277 122.485 459.495 122.291C459.714 122.097 460.005 122 460.367 122C460.732 122 461.025 122.1 461.248 122.299C461.47 122.497 461.581 122.738 461.581 123.023C461.581 123.205 461.53 123.363 461.427 123.499C461.326 123.633 461.173 123.736 460.966 123.809C461.222 123.887 461.417 124.014 461.55 124.189C461.685 124.363 461.752 124.571 461.752 124.814C461.752 125.148 461.626 125.43 461.373 125.658C461.12 125.886 460.788 126 460.376 126C459.964 126 459.631 125.886 459.379 125.658C459.126 125.428 459 125.142 459 124.8C459 124.545 459.068 124.332 459.205 124.162C459.344 123.989 459.54 123.871 459.795 123.809ZM459.692 122.994C459.692 123.179 459.756 123.33 459.883 123.448C460.01 123.566 460.176 123.624 460.379 123.624C460.576 123.624 460.738 123.566 460.863 123.451C460.99 123.333 461.054 123.19 461.054 123.021C461.054 122.844 460.989 122.696 460.857 122.577C460.728 122.456 460.567 122.395 460.373 122.395C460.177 122.395 460.015 122.454 459.886 122.571C459.757 122.689 459.692 122.83 459.692 122.994ZM459.527 124.803C459.527 124.94 459.561 125.073 459.63 125.201C459.7 125.33 459.803 125.429 459.94 125.5C460.077 125.57 460.224 125.604 460.382 125.604C460.627 125.604 460.829 125.53 460.989 125.383C461.148 125.235 461.228 125.047 461.228 124.819C461.228 124.587 461.145 124.396 460.98 124.244C460.816 124.093 460.612 124.017 460.364 124.017C460.123 124.017 459.923 124.092 459.763 124.242C459.606 124.392 459.527 124.578 459.527 124.803ZM463.042 123.809C462.83 123.736 462.672 123.631 462.57 123.496C462.467 123.361 462.416 123.199 462.416 123.01C462.416 122.725 462.525 122.485 462.744 122.291C462.962 122.097 463.252 122 463.615 122C463.98 122 464.274 122.1 464.496 122.299C464.718 122.497 464.829 122.738 464.829 123.023C464.829 123.205 464.778 123.363 464.675 123.499C464.575 123.633 464.421 123.736 464.213 123.809C464.47 123.887 464.664 124.014 464.798 124.189C464.932 124.363 465 124.571 465 124.814C465 125.148 464.873 125.43 464.621 125.658C464.368 125.886 464.036 126 463.624 126C463.212 126 462.879 125.886 462.626 125.658C462.374 125.428 462.248 125.142 462.248 124.8C462.248 124.545 462.316 124.332 462.453 124.162C462.591 123.989 462.788 123.871 463.042 123.809ZM462.94 122.994C462.94 123.179 463.004 123.33 463.131 123.448C463.258 123.566 463.423 123.624 463.626 123.624C463.824 123.624 463.986 123.566 464.111 123.451C464.238 123.333 464.302 123.19 464.302 123.021C464.302 122.844 464.236 122.696 464.106 122.577C463.976 122.456 463.815 122.395 463.621 122.395C463.425 122.395 463.263 122.454 463.134 122.571C463.004 122.689 462.94 122.83 462.94 122.994ZM462.775 124.803C462.775 124.94 462.809 125.073 462.877 125.201C462.948 125.33 463.051 125.429 463.188 125.5C463.325 125.57 463.472 125.604 463.629 125.604C463.874 125.604 464.077 125.53 464.236 125.383C464.396 125.235 464.475 125.047 464.475 124.819C464.475 124.587 464.393 124.396 464.228 124.244C464.065 124.093 463.859 124.017 463.612 124.017C463.371 124.017 463.171 124.092 463.011 124.242C462.853 124.392 462.775 124.578 462.775 124.803Z" fill="white"/>
<path d="M466.09 98.7844L466.668 98.731C466.717 99.0026 466.81 99.1996 466.949 99.3221C467.087 99.4445 467.264 99.5054 467.479 99.5054C467.665 99.5054 467.826 99.4637 467.964 99.3789C468.104 99.294 468.219 99.1818 468.308 99.0416C468.397 98.8986 468.472 98.7071 468.532 98.467C468.591 98.2262 468.621 97.9813 468.621 97.7323C468.621 97.7056 468.621 97.6652 468.618 97.6118C468.498 97.8034 468.334 97.9594 468.124 98.0791C467.917 98.1974 467.692 98.2563 467.449 98.2563C467.044 98.2563 466.702 98.1092 466.421 97.8157C466.14 97.5216 466 97.1344 466 96.6534C466 96.1568 466.146 95.7566 466.438 95.4542C466.732 95.1512 467.099 95 467.54 95C467.858 95 468.149 95.0855 468.412 95.2565C468.676 95.4282 468.877 95.6731 469.013 95.9919C469.15 96.308 469.219 96.767 469.219 97.3676C469.219 97.9936 469.152 98.4923 469.016 98.8644C468.88 99.2338 468.678 99.5157 468.408 99.7093C468.141 99.9029 467.827 100 467.466 100C467.083 100 466.771 99.894 466.528 99.6826C466.285 99.4692 466.14 99.1695 466.09 98.7844ZM468.552 96.6233C468.552 96.2779 468.459 96.0042 468.275 95.8011C468.092 95.5986 467.871 95.4973 467.613 95.4973C467.346 95.4973 467.113 95.6068 466.915 95.825C466.717 96.0432 466.618 96.3258 466.618 96.6733C466.618 96.9852 466.711 97.239 466.899 97.4347C467.088 97.6283 467.321 97.7254 467.596 97.7254C467.875 97.7254 468.103 97.6283 468.281 97.4347C468.461 97.239 468.552 96.9681 468.552 96.6233ZM469.807 97.5017C469.807 96.9223 469.866 96.4571 469.985 96.1055C470.104 95.7511 470.281 95.4782 470.515 95.2866C470.751 95.0951 471.047 95 471.404 95C471.666 95 471.897 95.0534 472.094 95.1601C472.293 95.2647 472.456 95.4173 472.586 95.6177C472.715 95.8161 472.816 96.0583 472.89 96.3456C472.963 96.6309 473 97.016 473 97.5017C473 98.0763 472.94 98.5402 472.823 98.8945C472.705 99.2461 472.528 99.5191 472.292 99.7127C472.058 99.9042 471.762 100 471.404 100C470.932 100 470.561 99.831 470.292 99.4924C469.969 99.0847 469.807 98.4211 469.807 97.5017ZM470.425 97.5017C470.425 98.3055 470.519 98.8412 470.705 99.1079C470.895 99.3734 471.127 99.5054 471.404 99.5054C471.679 99.5054 471.911 99.372 472.098 99.1045C472.287 98.8377 472.382 98.3035 472.382 97.5017C472.382 96.6952 472.287 96.1595 472.098 95.8948C471.911 95.63 471.677 95.4973 471.397 95.4973C471.121 95.4973 470.9 95.6143 470.736 95.8483C470.528 96.1465 470.425 96.6979 470.425 97.5017Z" fill="white"/>
<path d="M77 83L77 142" stroke="#ADADAD" stroke-width="0.5" stroke-miterlimit="10"/>
<path d="M167 83L167 142" stroke="#D1D1D1" stroke-width="0.5" stroke-miterlimit="10" stroke-dasharray="4 4"/>
<path d="M254 83L254 142" stroke="#D1D1D1" stroke-width="0.5" stroke-miterlimit="10" stroke-dasharray="4 4"/>
<path d="M341 83L341 142" stroke="#D1D1D1" stroke-width="0.5" stroke-miterlimit="10" stroke-dasharray="4 4"/>
<path d="M428 83L428 142" stroke="#D1D1D1" stroke-width="0.5" stroke-miterlimit="10" stroke-dasharray="4 4"/>
<path d="M516 83L516 142" stroke="#D1D1D1" stroke-width="0.5" stroke-miterlimit="10" stroke-dasharray="4 4"/>
<path d="M77 142L521 142" stroke="#ADADAD" stroke-width="0.5"/>
<path d="M472 116H77V133H472V116Z" fill="#70A2FF"/>
<path d="M481 90H77V107H481V90Z" fill="#70A2FF"/>
<path d="M82 126.655L83.8513 122.078H84.5381L86.511 126.655H85.7845L85.2222 125.269H83.2069L82.6776 126.655H82ZM83.3907 124.776H85.0249L84.5219 123.508C84.3684 123.123 84.2546 122.806 84.1799 122.559C84.1186 122.852 84.0317 123.143 83.9199 123.433L83.3907 124.776ZM86.9945 126.655V122.078H88.8024C89.1708 122.078 89.4657 122.125 89.6872 122.219C89.9108 122.31 90.0852 122.453 90.2098 122.646C90.337 122.838 90.4003 123.038 90.4003 123.249C90.4003 123.444 90.3444 123.629 90.2326 123.801C90.1209 123.974 89.9525 124.113 89.7263 124.219C90.0178 124.301 90.2414 124.439 90.3969 124.635C90.5552 124.831 90.634 125.061 90.634 125.328C90.634 125.542 90.5855 125.742 90.4892 125.927C90.3949 126.111 90.2778 126.252 90.1377 126.352C89.997 126.452 89.8206 126.527 89.6084 126.58C89.3977 126.63 89.1391 126.655 88.8321 126.655H86.9945ZM87.6321 124.001H88.6745C88.9573 124.001 89.16 123.983 89.2825 123.948C89.4448 123.902 89.5667 123.826 89.6475 123.72C89.731 123.614 89.7727 123.481 89.7727 123.32C89.7727 123.169 89.7344 123.035 89.6576 122.921C89.5808 122.804 89.4711 122.725 89.3283 122.684C89.1863 122.64 88.9418 122.618 88.5957 122.618H87.6321V124.001ZM87.6321 126.114H88.8321C89.0381 126.114 89.1829 126.107 89.2664 126.093C89.4132 126.068 89.5357 126.026 89.6347 125.968C89.733 125.91 89.8145 125.825 89.8778 125.715C89.9411 125.602 89.9734 125.474 89.9734 125.328C89.9734 125.157 89.9269 125.01 89.8347 124.884C89.7431 124.758 89.6145 124.669 89.4502 124.619C89.2879 124.567 89.0536 124.541 88.7466 124.541H87.6321V126.114ZM94.9509 125.05L95.5885 125.203C95.4552 125.7 95.2141 126.081 94.8653 126.343C94.5192 126.603 94.095 126.733 93.5927 126.733C93.0735 126.733 92.6507 126.633 92.3241 126.433C91.9995 126.231 91.7517 125.94 91.5807 125.559C91.4124 125.178 91.3275 124.769 91.3275 124.332C91.3275 123.856 91.4231 123.44 91.6137 123.086C91.807 122.73 92.0797 122.461 92.4325 122.277C92.7874 122.093 93.1779 122 93.6028 122C94.0849 122 94.491 122.116 94.8195 122.35C95.1481 122.582 95.3771 122.91 95.5064 123.333L94.8788 123.473C94.767 123.141 94.6047 122.898 94.392 122.746C94.1792 122.594 93.9119 122.518 93.59 122.518C93.219 122.518 92.9092 122.602 92.6594 122.771C92.4116 122.939 92.2372 123.166 92.1362 123.451C92.0359 123.735 91.9854 124.027 91.9854 124.329C91.9854 124.718 92.0447 125.058 92.1625 125.35C92.2837 125.639 92.4695 125.856 92.722 125.999C92.9739 126.143 93.2466 126.215 93.5402 126.215C93.8977 126.215 94.2001 126.117 94.4479 125.921C94.6957 125.726 94.8633 125.435 94.9509 125.05ZM97.9459 125.281V124.716H99.7647V125.281H97.9459ZM102.348 126.655V122.078H103.309L104.45 125.318C104.555 125.62 104.632 125.846 104.679 125.996C104.735 125.829 104.82 125.585 104.936 125.262L106.09 122.078H106.948V126.655H106.333V122.824L104.933 126.655H104.358L102.964 122.758V126.655H102.348ZM110.18 126.246C109.961 126.423 109.75 126.547 109.546 126.62C109.344 126.693 109.127 126.73 108.895 126.73C108.511 126.73 108.217 126.641 108.011 126.464C107.805 126.285 107.702 126.058 107.702 125.781C107.702 125.618 107.74 125.471 107.817 125.337C107.895 125.202 107.997 125.094 108.122 125.013C108.249 124.932 108.392 124.87 108.549 124.829C108.666 124.799 108.841 124.771 109.076 124.744C109.553 124.69 109.905 124.625 110.131 124.551C110.133 124.474 110.134 124.425 110.134 124.403C110.134 124.175 110.078 124.013 109.967 123.92C109.815 123.793 109.591 123.73 109.293 123.73C109.015 123.73 108.809 123.776 108.675 123.87C108.543 123.962 108.446 124.125 108.382 124.36L107.803 124.285C107.856 124.05 107.943 123.861 108.063 123.717C108.184 123.571 108.358 123.46 108.586 123.383C108.814 123.304 109.078 123.264 109.378 123.264C109.676 123.264 109.918 123.297 110.105 123.364C110.291 123.431 110.428 123.515 110.515 123.617C110.604 123.717 110.665 123.844 110.7 123.998C110.719 124.093 110.73 124.267 110.73 124.516V125.265C110.73 125.788 110.742 126.119 110.765 126.258C110.792 126.396 110.842 126.527 110.917 126.655H110.299C110.237 126.538 110.198 126.402 110.18 126.246ZM110.131 124.99C109.916 125.074 109.594 125.145 109.165 125.203C108.921 125.237 108.749 125.274 108.648 125.315C108.547 125.357 108.47 125.418 108.415 125.499C108.36 125.579 108.332 125.667 108.332 125.765C108.332 125.915 108.392 126.04 108.51 126.139C108.631 126.24 108.806 126.29 109.036 126.29C109.264 126.29 109.467 126.242 109.644 126.149C109.822 126.053 109.953 125.923 110.035 125.759C110.099 125.632 110.131 125.444 110.131 125.197V124.99ZM111.65 126.655V123.339H112.183V123.811C112.439 123.446 112.81 123.264 113.294 123.264C113.505 123.264 113.697 123.301 113.873 123.373C114.05 123.444 114.183 123.538 114.271 123.655C114.358 123.771 114.42 123.909 114.455 124.07C114.476 124.174 114.488 124.356 114.488 124.616V126.655H113.896V124.638C113.896 124.409 113.873 124.238 113.826 124.126C113.781 124.012 113.698 123.921 113.58 123.854C113.464 123.786 113.327 123.751 113.169 123.751C112.917 123.751 112.699 123.827 112.515 123.979C112.333 124.131 112.242 124.419 112.242 124.844V126.655H111.65ZM117.687 126.655V126.168C117.415 126.542 117.046 126.73 116.578 126.73C116.372 126.73 116.18 126.692 116 126.617C115.822 126.542 115.69 126.449 115.602 126.336C115.516 126.222 115.457 126.082 115.421 125.918C115.397 125.808 115.385 125.633 115.385 125.393V123.339H115.977V125.178C115.977 125.471 115.989 125.669 116.013 125.771C116.05 125.919 116.129 126.036 116.25 126.121C116.37 126.204 116.519 126.246 116.697 126.246C116.875 126.246 117.041 126.203 117.197 126.118C117.352 126.03 117.462 125.913 117.525 125.765C117.591 125.615 117.624 125.398 117.624 125.116V123.339H118.216V126.655H117.687ZM119.288 126.655V123.776H118.765V123.339H119.288V122.987C119.288 122.763 119.309 122.598 119.35 122.49C119.407 122.344 119.507 122.227 119.65 122.137C119.794 122.045 119.996 122 120.254 122C120.421 122 120.605 122.019 120.807 122.056L120.718 122.546C120.595 122.526 120.479 122.515 120.369 122.515C120.19 122.515 120.062 122.551 119.988 122.624C119.913 122.697 119.876 122.833 119.876 123.033V123.339H120.557V123.776H119.876V126.655H119.288ZM123.299 126.246C123.08 126.423 122.868 126.547 122.664 126.62C122.463 126.693 122.246 126.73 122.014 126.73C121.63 126.73 121.335 126.641 121.129 126.464C120.923 126.285 120.82 126.058 120.82 125.781C120.82 125.618 120.858 125.471 120.935 125.337C121.014 125.202 121.116 125.094 121.241 125.013C121.368 124.932 121.51 124.87 121.668 124.829C121.784 124.799 121.96 124.771 122.194 124.744C122.672 124.69 123.024 124.625 123.249 124.551C123.252 124.474 123.253 124.425 123.253 124.403C123.253 124.175 123.197 124.013 123.085 123.92C122.934 123.793 122.709 123.73 122.411 123.73C122.133 123.73 121.927 123.776 121.793 123.87C121.662 123.962 121.564 124.125 121.501 124.36L120.922 124.285C120.975 124.05 121.061 123.861 121.181 123.717C121.302 123.571 121.476 123.46 121.705 123.383C121.932 123.304 122.196 123.264 122.496 123.264C122.795 123.264 123.037 123.297 123.223 123.364C123.41 123.431 123.547 123.515 123.634 123.617C123.722 123.717 123.783 123.844 123.818 123.998C123.838 124.093 123.848 124.267 123.848 124.516V125.265C123.848 125.788 123.86 126.119 123.884 126.258C123.911 126.396 123.961 126.527 124.035 126.655H123.417C123.356 126.538 123.317 126.402 123.299 126.246ZM123.249 124.99C123.035 125.074 122.713 125.145 122.283 125.203C122.04 125.237 121.868 125.274 121.767 125.315C121.666 125.357 121.588 125.418 121.534 125.499C121.478 125.579 121.451 125.667 121.451 125.765C121.451 125.915 121.51 126.04 121.629 126.139C121.749 126.24 121.925 126.29 122.154 126.29C122.383 126.29 122.585 126.242 122.763 126.149C122.94 126.053 123.071 125.923 123.154 125.759C123.218 125.632 123.249 125.444 123.249 125.197V124.99ZM127.047 125.441L127.629 125.512C127.566 125.893 127.402 126.192 127.139 126.408C126.878 126.623 126.558 126.73 126.176 126.73C125.698 126.73 125.313 126.582 125.022 126.286C124.733 125.988 124.588 125.563 124.588 125.01C124.588 124.652 124.651 124.338 124.775 124.07C124.9 123.801 125.09 123.6 125.344 123.467C125.601 123.332 125.879 123.264 126.179 123.264C126.558 123.264 126.869 123.356 127.11 123.539C127.351 123.72 127.505 123.978 127.573 124.313L126.998 124.398C126.943 124.175 126.846 124.007 126.705 123.895C126.567 123.783 126.399 123.726 126.202 123.726C125.904 123.726 125.662 123.828 125.475 124.032C125.289 124.234 125.196 124.554 125.196 124.994C125.196 125.439 125.286 125.763 125.465 125.965C125.645 126.167 125.88 126.268 126.169 126.268C126.401 126.268 126.596 126.2 126.751 126.065C126.907 125.93 127.005 125.721 127.047 125.441ZM129.427 126.152L129.513 126.648C129.347 126.682 129.197 126.698 129.066 126.698C128.851 126.698 128.685 126.666 128.566 126.602C128.448 126.537 128.364 126.453 128.316 126.348C128.268 126.242 128.244 126.021 128.244 125.683V123.776H127.81V123.339H128.244V122.518L128.832 122.181V123.339H129.427V123.776H128.832V125.715C128.832 125.875 128.842 125.978 128.862 126.024C128.884 126.07 128.918 126.106 128.964 126.134C129.012 126.16 129.08 126.174 129.168 126.174C129.233 126.174 129.32 126.167 129.427 126.152ZM132.298 126.655V126.168C132.026 126.542 131.657 126.73 131.19 126.73C130.983 126.73 130.791 126.692 130.611 126.617C130.433 126.542 130.301 126.449 130.213 126.336C130.128 126.222 130.068 126.082 130.033 125.918C130.008 125.808 129.996 125.633 129.996 125.393V123.339H130.588V125.178C130.588 125.471 130.6 125.669 130.625 125.771C130.662 125.919 130.74 126.036 130.861 126.121C130.981 126.204 131.131 126.246 131.308 126.246C131.486 126.246 131.652 126.203 131.808 126.118C131.964 126.03 132.073 125.913 132.137 125.765C132.202 125.615 132.235 125.398 132.235 125.116V123.339H132.827V126.655H132.298ZM133.751 126.655V123.339H134.284V123.842C134.42 123.607 134.545 123.451 134.659 123.377C134.774 123.302 134.902 123.264 135.04 123.264C135.239 123.264 135.442 123.325 135.648 123.445L135.444 123.967C135.3 123.886 135.155 123.845 135.01 123.845C134.881 123.845 134.765 123.882 134.662 123.957C134.559 124.03 134.486 124.132 134.442 124.263C134.376 124.463 134.343 124.682 134.343 124.919V126.655H133.751ZM138.39 125.587L139.002 125.659C138.905 125.998 138.726 126.262 138.466 126.449C138.205 126.636 137.872 126.73 137.467 126.73C136.955 126.73 136.55 126.581 136.25 126.283C135.951 125.983 135.803 125.564 135.803 125.025C135.803 124.467 135.954 124.035 136.257 123.726C136.559 123.418 136.951 123.264 137.434 123.264C137.9 123.264 138.282 123.415 138.578 123.717C138.874 124.019 139.021 124.443 139.021 124.99C139.021 125.024 139.021 125.074 139.018 125.141H136.414C136.436 125.504 136.545 125.784 136.74 125.977C136.935 126.171 137.178 126.268 137.47 126.268C137.687 126.268 137.872 126.214 138.025 126.105C138.179 125.997 138.3 125.824 138.39 125.587ZM136.447 124.678H138.397C138.371 124.4 138.296 124.191 138.174 124.051C137.985 123.834 137.741 123.726 137.44 123.726C137.168 123.726 136.939 123.813 136.753 123.985C136.569 124.158 136.467 124.389 136.447 124.678ZM141.698 126.655V122.078H143.516C143.836 122.078 144.08 122.093 144.249 122.121C144.486 122.159 144.684 122.231 144.844 122.337C145.004 122.441 145.133 122.588 145.229 122.777C145.328 122.967 145.377 123.175 145.377 123.402C145.377 123.791 145.246 124.121 144.986 124.391C144.725 124.66 144.254 124.794 143.572 124.794H142.336V126.655H141.698ZM142.336 124.254H143.582C143.994 124.254 144.286 124.181 144.459 124.035C144.633 123.889 144.719 123.685 144.719 123.42C144.719 123.229 144.668 123.065 144.565 122.93C144.464 122.793 144.33 122.702 144.164 122.659C144.057 122.632 143.858 122.618 143.568 122.618H142.336V124.254ZM146.1 126.655V122.078H146.692V126.655H146.1ZM149.901 126.655V126.168C149.629 126.542 149.26 126.73 148.793 126.73C148.587 126.73 148.394 126.692 148.215 126.617C148.037 126.542 147.904 126.449 147.817 126.336C147.731 126.222 147.671 126.082 147.636 125.918C147.611 125.808 147.6 125.633 147.6 125.393V123.339H148.191V125.178C148.191 125.471 148.203 125.669 148.227 125.771C148.265 125.919 148.344 126.036 148.464 126.121C148.585 126.204 148.734 126.246 148.912 126.246C149.089 126.246 149.256 126.203 149.411 126.118C149.567 126.03 149.676 125.913 149.74 125.765C149.806 125.615 149.839 125.398 149.839 125.116V123.339H150.431V126.655H149.901ZM151.252 126.93L151.828 127.011C151.852 127.179 151.919 127.302 152.029 127.379C152.175 127.483 152.376 127.535 152.63 127.535C152.904 127.535 153.115 127.483 153.265 127.379C153.414 127.275 153.515 127.129 153.567 126.942C153.597 126.827 153.612 126.587 153.61 126.221C153.351 126.51 153.029 126.655 152.643 126.655C152.163 126.655 151.792 126.49 151.529 126.162C151.266 125.832 151.134 125.438 151.134 124.978C151.134 124.662 151.194 124.37 151.315 124.104C151.435 123.836 151.61 123.629 151.838 123.483C152.068 123.337 152.338 123.264 152.647 123.264C153.059 123.264 153.398 123.423 153.665 123.738V123.339H154.212V126.205C154.212 126.721 154.156 127.086 154.044 127.301C153.934 127.517 153.759 127.688 153.518 127.813C153.279 127.938 152.984 128 152.633 128C152.217 128 151.88 127.911 151.624 127.732C151.367 127.555 151.243 127.288 151.252 126.93ZM151.742 124.937C151.742 125.373 151.833 125.69 152.015 125.89C152.197 126.09 152.425 126.189 152.699 126.189C152.971 126.189 153.199 126.091 153.383 125.893C153.567 125.693 153.659 125.381 153.659 124.957C153.659 124.551 153.564 124.244 153.373 124.038C153.185 123.832 152.956 123.73 152.689 123.73C152.426 123.73 152.203 123.831 152.018 124.035C151.835 124.237 151.742 124.538 151.742 124.937ZM158.436 126.655L156.569 122.078H157.259L158.512 125.403C158.613 125.669 158.697 125.919 158.765 126.152C158.84 125.902 158.926 125.653 159.025 125.403L160.327 122.078H160.978L159.091 126.655H158.436ZM163.253 126.246C163.034 126.423 162.822 126.547 162.618 126.62C162.417 126.693 162.2 126.73 161.967 126.73C161.584 126.73 161.289 126.641 161.083 126.464C160.877 126.285 160.774 126.058 160.774 125.781C160.774 125.618 160.812 125.471 160.889 125.337C160.968 125.202 161.07 125.094 161.195 125.013C161.322 124.932 161.464 124.87 161.623 124.829C161.738 124.799 161.914 124.771 162.148 124.744C162.626 124.69 162.978 124.625 163.204 124.551C163.206 124.474 163.207 124.425 163.207 124.403C163.207 124.175 163.151 124.013 163.039 123.92C162.888 123.793 162.664 123.73 162.365 123.73C162.087 123.73 161.881 123.776 161.747 123.87C161.616 123.962 161.518 124.125 161.455 124.36L160.876 124.285C160.928 124.05 161.015 123.861 161.136 123.717C161.256 123.571 161.431 123.46 161.658 123.383C161.886 123.304 162.15 123.264 162.451 123.264C162.749 123.264 162.991 123.297 163.177 123.364C163.364 123.431 163.5 123.515 163.589 123.617C163.676 123.717 163.738 123.844 163.773 123.998C163.792 124.093 163.802 124.267 163.802 124.516V125.265C163.802 125.788 163.814 126.119 163.839 126.258C163.865 126.396 163.915 126.527 163.989 126.655H163.371C163.31 126.538 163.271 126.402 163.253 126.246ZM163.204 124.99C162.989 125.074 162.667 125.145 162.237 125.203C161.994 125.237 161.822 125.274 161.721 125.315C161.62 125.357 161.542 125.418 161.488 125.499C161.433 125.579 161.406 125.667 161.406 125.765C161.406 125.915 161.464 126.04 161.583 126.139C161.703 126.24 161.879 126.29 162.109 126.29C162.337 126.29 162.54 126.242 162.717 126.149C162.894 126.053 163.025 125.923 163.109 125.759C163.172 125.632 163.204 125.444 163.204 125.197V124.99ZM164.71 126.655V122.078H165.302V126.655H164.71ZM167.192 126.655L165.864 123.339H166.488L167.238 125.325C167.319 125.539 167.394 125.762 167.462 125.993C167.514 125.818 167.588 125.608 167.682 125.363L168.458 123.339H169.066L167.745 126.655H167.192ZM171.979 125.587L172.591 125.659C172.495 125.998 172.315 126.262 172.055 126.449C171.794 126.636 171.461 126.73 171.056 126.73C170.544 126.73 170.139 126.581 169.839 126.283C169.54 125.983 169.392 125.564 169.392 125.025C169.392 124.467 169.543 124.035 169.846 123.726C170.148 123.418 170.54 123.264 171.023 123.264C171.489 123.264 171.87 123.415 172.167 123.717C172.462 124.019 172.61 124.443 172.61 124.99C172.61 125.024 172.61 125.074 172.607 125.141H170.003C170.025 125.504 170.134 125.784 170.328 125.977C170.524 126.171 170.767 126.268 171.058 126.268C171.276 126.268 171.461 126.214 171.614 126.105C171.768 125.997 171.889 125.824 171.979 125.587ZM170.036 124.678H171.985C171.959 124.4 171.885 124.191 171.762 124.051C171.573 123.834 171.329 123.726 171.029 123.726C170.757 123.726 170.528 123.813 170.342 123.985C170.158 124.158 170.056 124.389 170.036 124.678ZM173.101 125.665L173.686 125.577C173.719 125.801 173.81 125.971 173.958 126.09C174.11 126.208 174.32 126.268 174.59 126.268C174.861 126.268 175.063 126.215 175.195 126.111C175.326 126.005 175.392 125.882 175.392 125.74C175.392 125.613 175.334 125.513 175.218 125.441C175.137 125.39 174.935 125.327 174.613 125.25C174.179 125.146 173.878 125.056 173.709 124.981C173.542 124.904 173.415 124.799 173.327 124.666C173.242 124.531 173.199 124.382 173.199 124.219C173.199 124.072 173.234 123.935 173.304 123.811C173.377 123.684 173.474 123.579 173.597 123.496C173.689 123.431 173.814 123.377 173.972 123.333C174.131 123.287 174.302 123.264 174.484 123.264C174.758 123.264 174.999 123.302 175.205 123.377C175.413 123.451 175.566 123.554 175.665 123.683C175.764 123.809 175.832 123.98 175.869 124.194L175.29 124.27C175.264 124.099 175.187 123.965 175.06 123.87C174.935 123.774 174.758 123.726 174.527 123.726C174.255 123.726 174.061 123.769 173.946 123.854C173.829 123.94 173.771 124.04 173.771 124.154C173.771 124.227 173.795 124.292 173.843 124.35C173.892 124.411 173.967 124.461 174.07 124.501C174.129 124.521 174.304 124.569 174.593 124.644C175.012 124.75 175.303 124.838 175.467 124.907C175.634 124.973 175.764 125.071 175.859 125.2C175.953 125.329 176 125.489 176 125.681C176 125.868 175.942 126.045 175.826 126.212C175.712 126.376 175.546 126.504 175.329 126.595C175.113 126.685 174.867 126.73 174.593 126.73C174.14 126.73 173.793 126.64 173.554 126.461C173.317 126.282 173.166 126.017 173.101 125.665Z" fill="white"/>
<path d="M82 100.655L83.8513 96.078H84.5381L86.511 100.655H85.7845L85.2222 99.2685H83.2069L82.6776 100.655H82ZM83.3907 98.7756H85.0249L84.5219 97.5077C84.3684 97.1228 84.2546 96.8063 84.1799 96.5588C84.1186 96.8523 84.0317 97.1432 83.9199 97.4329L83.3907 98.7756ZM86.9945 100.655V96.078H88.8024C89.1708 96.078 89.4657 96.1247 89.6872 96.2187C89.9108 96.3101 90.0852 96.4527 90.2098 96.6458C90.337 96.8376 90.4003 97.0384 90.4003 97.2487C90.4003 97.4444 90.3444 97.6285 90.2326 97.8012C90.1209 97.9738 89.9525 98.1132 89.7263 98.2193C90.0178 98.3005 90.2414 98.4393 90.3969 98.6349C90.5552 98.8306 90.634 99.0614 90.634 99.328C90.634 99.5422 90.5855 99.7423 90.4892 99.9271C90.3949 100.111 90.2778 100.252 90.1377 100.352C89.997 100.452 89.8206 100.527 89.6084 100.58C89.3977 100.63 89.1391 100.655 88.8321 100.655H86.9945ZM87.6321 98.0013H88.6745C88.9573 98.0013 89.16 97.9834 89.2825 97.9482C89.4448 97.9022 89.5667 97.8261 89.6475 97.7199C89.731 97.6138 89.7727 97.4808 89.7727 97.3203C89.7727 97.1688 89.7344 97.0352 89.6576 96.9207C89.5808 96.8043 89.4711 96.7251 89.3283 96.6835C89.1863 96.64 88.9418 96.6183 88.5957 96.6183H87.6321V98.0013ZM87.6321 100.114H88.8321C89.0381 100.114 89.1829 100.107 89.2664 100.093C89.4132 100.068 89.5357 100.026 89.6347 99.968C89.733 99.9098 89.8145 99.8254 89.8778 99.7148C89.9411 99.6023 89.9734 99.4738 89.9734 99.328C89.9734 99.1573 89.9269 99.0096 89.8347 98.8843C89.7431 98.7577 89.6145 98.6694 89.4502 98.6189C89.2879 98.5671 89.0536 98.5409 88.7466 98.5409H87.6321V100.114ZM94.9509 99.0499L95.5885 99.2027C95.4552 99.7001 95.2141 100.081 94.8653 100.343C94.5192 100.603 94.095 100.733 93.5927 100.733C93.0735 100.733 92.6507 100.633 92.3241 100.433C91.9995 100.231 91.7517 99.9399 91.5807 99.5588C91.4124 99.1777 91.3275 98.7692 91.3275 98.3318C91.3275 97.8555 91.4231 97.4399 91.6137 97.0863C91.807 96.7302 92.0797 96.461 92.4325 96.2775C92.7874 96.0927 93.1779 96 93.6028 96C94.0849 96 94.491 96.1164 94.8195 96.3497C95.1481 96.5825 95.3771 96.9105 95.5064 97.3331L94.8788 97.4731C94.767 97.1407 94.6047 96.8977 94.392 96.7462C94.1792 96.594 93.9119 96.5179 93.59 96.5179C93.219 96.5179 92.9092 96.6023 92.6594 96.7711C92.4116 96.9393 92.2372 97.1662 92.1362 97.4514C92.0359 97.7347 91.9854 98.0269 91.9854 98.3286C91.9854 98.718 92.0447 99.0582 92.1625 99.3497C92.2837 99.6387 92.4695 99.8555 92.722 99.9994C92.9739 100.143 93.2466 100.215 93.5402 100.215C93.8977 100.215 94.2001 100.117 94.4479 99.9214C94.6957 99.7257 94.8633 99.4348 94.9509 99.0499ZM97.9459 99.2813V98.7161H99.7647V99.2813H97.9459ZM102.348 100.655V96.078H103.309L104.45 99.3184C104.555 99.6202 104.632 99.8459 104.679 99.9962C104.735 99.8293 104.82 99.585 104.936 99.2622L106.09 96.078H106.948V100.655H106.333V96.8242L104.933 100.655H104.358L102.964 96.7583V100.655H102.348ZM110.18 100.246C109.961 100.423 109.75 100.547 109.546 100.62C109.344 100.693 109.127 100.73 108.895 100.73C108.511 100.73 108.217 100.641 108.011 100.464C107.805 100.285 107.702 100.058 107.702 99.7807C107.702 99.6183 107.74 99.4706 107.817 99.337C107.895 99.202 107.997 99.094 108.122 99.0128C108.249 98.9316 108.392 98.8702 108.549 98.8286C108.666 98.7992 108.841 98.7711 109.076 98.7442C109.553 98.6899 109.905 98.6253 110.131 98.5505C110.133 98.4738 110.134 98.4246 110.134 98.4035C110.134 98.1746 110.078 98.0134 109.967 97.9201C109.815 97.7928 109.591 97.7295 109.293 97.7295C109.015 97.7295 108.809 97.7762 108.675 97.8702C108.543 97.9616 108.446 98.1247 108.382 98.36L107.803 98.2852C107.856 98.0499 107.943 97.8606 108.063 97.7167C108.184 97.571 108.358 97.4597 108.586 97.383C108.814 97.3037 109.078 97.2641 109.378 97.2641C109.676 97.2641 109.918 97.2973 110.105 97.3645C110.291 97.4309 110.428 97.5153 110.515 97.617C110.604 97.7167 110.665 97.844 110.7 97.9981C110.719 98.0933 110.73 98.2666 110.73 98.516V99.2653C110.73 99.7877 110.742 100.119 110.765 100.258C110.792 100.396 110.842 100.527 110.917 100.655H110.299C110.237 100.538 110.198 100.402 110.18 100.246ZM110.131 98.9904C109.916 99.0742 109.594 99.1445 109.165 99.2027C108.921 99.2366 108.749 99.2737 108.648 99.3152C108.547 99.3568 108.47 99.4182 108.415 99.4994C108.36 99.5786 108.332 99.6669 108.332 99.7647C108.332 99.915 108.392 100.04 108.51 100.139C108.631 100.24 108.806 100.29 109.036 100.29C109.264 100.29 109.467 100.242 109.644 100.149C109.822 100.053 109.953 99.9233 110.035 99.7589C110.099 99.6317 110.131 99.4444 110.131 99.1969V98.9904ZM111.65 100.655V97.3389H112.183V97.8107C112.439 97.4463 112.81 97.2641 113.294 97.2641C113.505 97.2641 113.697 97.3005 113.873 97.3734C114.05 97.4444 114.183 97.5377 114.271 97.6547C114.358 97.7711 114.42 97.9092 114.455 98.0697C114.476 98.1739 114.488 98.3561 114.488 98.6164V100.655H113.896V98.6381C113.896 98.4092 113.873 98.2385 113.826 98.126C113.781 98.0115 113.698 97.9207 113.58 97.8542C113.464 97.7858 113.327 97.7513 113.169 97.7513C112.917 97.7513 112.699 97.8274 112.515 97.9789C112.333 98.1311 112.242 98.4194 112.242 98.844V100.655H111.65ZM117.687 100.655V100.168C117.415 100.542 117.046 100.73 116.578 100.73C116.372 100.73 116.18 100.692 116 100.617C115.822 100.542 115.69 100.449 115.602 100.336C115.516 100.222 115.457 100.082 115.421 99.9182C115.397 99.8075 115.385 99.633 115.385 99.3932V97.3389H115.977V99.1777C115.977 99.4712 115.989 99.6694 116.013 99.7711C116.05 99.9188 116.129 100.036 116.25 100.121C116.37 100.204 116.519 100.246 116.697 100.246C116.875 100.246 117.041 100.203 117.197 100.118C117.352 100.03 117.462 99.913 117.525 99.7647C117.591 99.6151 117.624 99.3983 117.624 99.1157V97.3389H118.216V100.655H117.687ZM119.288 100.655V97.7762H118.765V97.3389H119.288V96.9866C119.288 96.7634 119.309 96.5985 119.35 96.4898C119.407 96.344 119.507 96.227 119.65 96.1375C119.794 96.0454 119.996 96 120.254 96C120.421 96 120.605 96.0185 120.807 96.0563L120.718 96.546C120.595 96.5256 120.479 96.5147 120.369 96.5147C120.19 96.5147 120.062 96.5511 119.988 96.624C119.913 96.6969 119.876 96.8331 119.876 97.0332V97.3389H120.557V97.7762H119.876V100.655H119.288ZM123.299 100.246C123.08 100.423 122.868 100.547 122.664 100.62C122.463 100.693 122.246 100.73 122.014 100.73C121.63 100.73 121.335 100.641 121.129 100.464C120.923 100.285 120.82 100.058 120.82 99.7807C120.82 99.6183 120.858 99.4706 120.935 99.337C121.014 99.202 121.116 99.094 121.241 99.0128C121.368 98.9316 121.51 98.8702 121.668 98.8286C121.784 98.7992 121.96 98.7711 122.194 98.7442C122.672 98.6899 123.024 98.6253 123.249 98.5505C123.252 98.4738 123.253 98.4246 123.253 98.4035C123.253 98.1746 123.197 98.0134 123.085 97.9201C122.934 97.7928 122.709 97.7295 122.411 97.7295C122.133 97.7295 121.927 97.7762 121.793 97.8702C121.662 97.9616 121.564 98.1247 121.501 98.36L120.922 98.2852C120.975 98.0499 121.061 97.8606 121.181 97.7167C121.302 97.571 121.476 97.4597 121.705 97.383C121.932 97.3037 122.196 97.2641 122.496 97.2641C122.795 97.2641 123.037 97.2973 123.223 97.3645C123.41 97.4309 123.547 97.5153 123.634 97.617C123.722 97.7167 123.783 97.844 123.818 97.9981C123.838 98.0933 123.848 98.2666 123.848 98.516V99.2653C123.848 99.7877 123.86 100.119 123.884 100.258C123.911 100.396 123.961 100.527 124.035 100.655H123.417C123.356 100.538 123.317 100.402 123.299 100.246ZM123.249 98.9904C123.035 99.0742 122.713 99.1445 122.283 99.2027C122.04 99.2366 121.868 99.2737 121.767 99.3152C121.666 99.3568 121.588 99.4182 121.534 99.4994C121.478 99.5786 121.451 99.6669 121.451 99.7647C121.451 99.915 121.51 100.04 121.629 100.139C121.749 100.24 121.925 100.29 122.154 100.29C122.383 100.29 122.585 100.242 122.763 100.149C122.94 100.053 123.071 99.9233 123.154 99.7589C123.218 99.6317 123.249 99.4444 123.249 99.1969V98.9904ZM127.047 99.4405L127.629 99.5121C127.566 99.8932 127.402 100.192 127.139 100.408C126.878 100.623 126.558 100.73 126.176 100.73C125.698 100.73 125.313 100.582 125.022 100.286C124.733 99.9885 124.588 99.5633 124.588 99.0096C124.588 98.6515 124.651 98.3382 124.775 98.0697C124.9 97.8012 125.09 97.6004 125.344 97.4674C125.601 97.3318 125.879 97.2641 126.179 97.2641C126.558 97.2641 126.869 97.3555 127.11 97.539C127.351 97.7199 127.505 97.9783 127.573 98.3133L126.998 98.3977C126.943 98.1746 126.846 98.007 126.705 97.8951C126.567 97.7826 126.399 97.7263 126.202 97.7263C125.904 97.7263 125.662 97.828 125.475 98.032C125.289 98.234 125.196 98.5543 125.196 98.9936C125.196 99.4393 125.286 99.7628 125.465 99.9648C125.645 100.167 125.88 100.268 126.169 100.268C126.401 100.268 126.596 100.2 126.751 100.065C126.907 99.9297 127.005 99.7212 127.047 99.4405ZM129.427 100.152L129.513 100.648C129.347 100.682 129.197 100.698 129.066 100.698C128.851 100.698 128.685 100.666 128.566 100.602C128.448 100.537 128.364 100.453 128.316 100.348C128.268 100.242 128.244 100.021 128.244 99.6835V97.7762H127.81V97.3389H128.244V96.5179L128.832 96.1809V97.3389H129.427V97.7762H128.832V99.7148C128.832 99.8753 128.842 99.9783 128.862 100.024C128.884 100.07 128.918 100.106 128.964 100.134C129.012 100.16 129.08 100.174 129.168 100.174C129.233 100.174 129.32 100.167 129.427 100.152ZM132.298 100.655V100.168C132.026 100.542 131.657 100.73 131.19 100.73C130.983 100.73 130.791 100.692 130.611 100.617C130.433 100.542 130.301 100.449 130.213 100.336C130.128 100.222 130.068 100.082 130.033 99.9182C130.008 99.8075 129.996 99.633 129.996 99.3932V97.3389H130.588V99.1777C130.588 99.4712 130.6 99.6694 130.625 99.7711C130.662 99.9188 130.74 100.036 130.861 100.121C130.981 100.204 131.131 100.246 131.308 100.246C131.486 100.246 131.652 100.203 131.808 100.118C131.964 100.03 132.073 99.913 132.137 99.7647C132.202 99.6151 132.235 99.3983 132.235 99.1157V97.3389H132.827V100.655H132.298ZM133.751 100.655V97.3389H134.284V97.8421C134.42 97.6068 134.545 97.4514 134.659 97.3766C134.774 97.3018 134.902 97.2641 135.04 97.2641C135.239 97.2641 135.442 97.3248 135.648 97.445L135.444 97.9668C135.3 97.8856 135.155 97.8446 135.01 97.8446C134.881 97.8446 134.765 97.8824 134.662 97.9572C134.559 98.0301 134.486 98.1323 134.442 98.2634C134.376 98.4629 134.343 98.6816 134.343 98.9188V100.655H133.751ZM138.39 99.587L139.002 99.6586C138.905 99.9981 138.726 100.262 138.466 100.449C138.205 100.636 137.872 100.73 137.467 100.73C136.955 100.73 136.55 100.581 136.25 100.283C135.951 99.9834 135.803 99.5639 135.803 99.0249C135.803 98.4674 135.954 98.0345 136.257 97.7263C136.559 97.4182 136.951 97.2641 137.434 97.2641C137.9 97.2641 138.282 97.415 138.578 97.7167C138.874 98.0185 139.021 98.4431 139.021 98.9904C139.021 99.0243 139.021 99.0742 139.018 99.1407H136.414C136.436 99.5045 136.545 99.7839 136.74 99.977C136.935 100.171 137.178 100.268 137.47 100.268C137.687 100.268 137.872 100.214 138.025 100.106C138.179 99.9968 138.3 99.8242 138.39 99.587ZM136.447 98.6784H138.397C138.371 98.3996 138.296 98.1905 138.174 98.0511C137.985 97.8344 137.741 97.7263 137.44 97.7263C137.168 97.7263 136.939 97.8127 136.753 97.9853C136.569 98.1579 136.467 98.3894 136.447 98.6784ZM141.698 100.655V96.078H143.516C143.836 96.078 144.08 96.0927 144.249 96.1215C144.486 96.1592 144.684 96.2308 144.844 96.337C145.004 96.4412 145.133 96.5876 145.229 96.7775C145.328 96.9668 145.377 97.1746 145.377 97.4015C145.377 97.7909 145.246 98.1208 144.986 98.3913C144.725 98.6598 144.254 98.7941 143.572 98.7941H142.336V100.655H141.698ZM142.336 98.2538H143.582C143.994 98.2538 144.286 98.1809 144.459 98.0352C144.633 97.8894 144.719 97.6848 144.719 97.4201C144.719 97.2289 144.668 97.0652 144.565 96.9303C144.464 96.7928 144.33 96.702 144.164 96.6586C144.057 96.6317 143.858 96.6183 143.568 96.6183H142.336V98.2538ZM146.1 100.655V96.078H146.692V100.655H146.1ZM149.901 100.655V100.168C149.629 100.542 149.26 100.73 148.793 100.73C148.587 100.73 148.394 100.692 148.215 100.617C148.037 100.542 147.904 100.449 147.817 100.336C147.731 100.222 147.671 100.082 147.636 99.9182C147.611 99.8075 147.6 99.633 147.6 99.3932V97.3389H148.191V99.1777C148.191 99.4712 148.203 99.6694 148.227 99.7711C148.265 99.9188 148.344 100.036 148.464 100.121C148.585 100.204 148.734 100.246 148.912 100.246C149.089 100.246 149.256 100.203 149.411 100.118C149.567 100.03 149.676 99.913 149.74 99.7647C149.806 99.6151 149.839 99.3983 149.839 99.1157V97.3389H150.431V100.655H149.901ZM151.252 100.93L151.828 101.011C151.852 101.179 151.919 101.302 152.029 101.379C152.175 101.483 152.376 101.535 152.63 101.535C152.904 101.535 153.115 101.483 153.265 101.379C153.414 101.275 153.515 101.129 153.567 100.942C153.597 100.827 153.612 100.587 153.61 100.221C153.351 100.51 153.029 100.655 152.643 100.655C152.163 100.655 151.792 100.49 151.529 100.162C151.266 99.8325 151.134 99.438 151.134 98.9783C151.134 98.6618 151.194 98.3702 151.315 98.1042C151.435 97.8357 151.61 97.6285 151.838 97.4827C152.068 97.337 152.338 97.2641 152.647 97.2641C153.059 97.2641 153.398 97.4226 153.665 97.7385V97.3389H154.212V100.205C154.212 100.721 154.156 101.086 154.044 101.301C153.934 101.517 153.759 101.688 153.518 101.813C153.279 101.938 152.984 102 152.633 102C152.217 102 151.88 101.911 151.624 101.732C151.367 101.555 151.243 101.288 151.252 100.93ZM151.742 98.9373C151.742 99.3728 151.833 99.6899 152.015 99.89C152.197 100.09 152.425 100.189 152.699 100.189C152.971 100.189 153.199 100.091 153.383 99.8932C153.567 99.6931 153.659 99.3811 153.659 98.9565C153.659 98.5505 153.564 98.2442 153.373 98.0384C153.185 97.8325 152.956 97.7295 152.689 97.7295C152.426 97.7295 152.203 97.8312 152.018 98.0352C151.835 98.2372 151.742 98.5377 151.742 98.9373ZM158.436 100.655L156.569 96.078H157.259L158.512 99.4028C158.613 99.6694 158.697 99.9188 158.765 100.152C158.84 99.9022 158.926 99.6528 159.025 99.4028L160.327 96.078H160.978L159.091 100.655H158.436ZM163.253 100.246C163.034 100.423 162.822 100.547 162.618 100.62C162.417 100.693 162.2 100.73 161.967 100.73C161.584 100.73 161.289 100.641 161.083 100.464C160.877 100.285 160.774 100.058 160.774 99.7807C160.774 99.6183 160.812 99.4706 160.889 99.337C160.968 99.202 161.07 99.094 161.195 99.0128C161.322 98.9316 161.464 98.8702 161.623 98.8286C161.738 98.7992 161.914 98.7711 162.148 98.7442C162.626 98.6899 162.978 98.6253 163.204 98.5505C163.206 98.4738 163.207 98.4246 163.207 98.4035C163.207 98.1746 163.151 98.0134 163.039 97.9201C162.888 97.7928 162.664 97.7295 162.365 97.7295C162.087 97.7295 161.881 97.7762 161.747 97.8702C161.616 97.9616 161.518 98.1247 161.455 98.36L160.876 98.2852C160.928 98.0499 161.015 97.8606 161.136 97.7167C161.256 97.571 161.431 97.4597 161.658 97.383C161.886 97.3037 162.15 97.2641 162.451 97.2641C162.749 97.2641 162.991 97.2973 163.177 97.3645C163.364 97.4309 163.5 97.5153 163.589 97.617C163.676 97.7167 163.738 97.844 163.773 97.9981C163.792 98.0933 163.802 98.2666 163.802 98.516V99.2653C163.802 99.7877 163.814 100.119 163.839 100.258C163.865 100.396 163.915 100.527 163.989 100.655H163.371C163.31 100.538 163.271 100.402 163.253 100.246ZM163.204 98.9904C162.989 99.0742 162.667 99.1445 162.237 99.2027C161.994 99.2366 161.822 99.2737 161.721 99.3152C161.62 99.3568 161.542 99.4182 161.488 99.4994C161.433 99.5786 161.406 99.6669 161.406 99.7647C161.406 99.915 161.464 100.04 161.583 100.139C161.703 100.24 161.879 100.29 162.109 100.29C162.337 100.29 162.54 100.242 162.717 100.149C162.894 100.053 163.025 99.9233 163.109 99.7589C163.172 99.6317 163.204 99.4444 163.204 99.1969V98.9904ZM164.71 100.655V96.078H165.302V100.655H164.71ZM167.192 100.655L165.864 97.3389H166.488L167.238 99.3248C167.319 99.539 167.394 99.7621 167.462 99.993C167.514 99.8178 167.588 99.6081 167.682 99.3625L168.458 97.3389H169.066L167.745 100.655H167.192ZM171.979 99.587L172.591 99.6586C172.495 99.9981 172.315 100.262 172.055 100.449C171.794 100.636 171.461 100.73 171.056 100.73C170.544 100.73 170.139 100.581 169.839 100.283C169.54 99.9834 169.392 99.5639 169.392 99.0249C169.392 98.4674 169.543 98.0345 169.846 97.7263C170.148 97.4182 170.54 97.2641 171.023 97.2641C171.489 97.2641 171.87 97.415 172.167 97.7167C172.462 98.0185 172.61 98.4431 172.61 98.9904C172.61 99.0243 172.61 99.0742 172.607 99.1407H170.003C170.025 99.5045 170.134 99.7839 170.328 99.977C170.524 100.171 170.767 100.268 171.058 100.268C171.276 100.268 171.461 100.214 171.614 100.106C171.768 99.9968 171.889 99.8242 171.979 99.587ZM170.036 98.6784H171.985C171.959 98.3996 171.885 98.1905 171.762 98.0511C171.573 97.8344 171.329 97.7263 171.029 97.7263C170.757 97.7263 170.528 97.8127 170.342 97.9853C170.158 98.1579 170.056 98.3894 170.036 98.6784ZM173.101 99.665L173.686 99.5774C173.719 99.8005 173.81 99.9712 173.958 100.09C174.11 100.208 174.32 100.268 174.59 100.268C174.861 100.268 175.063 100.215 175.195 100.111C175.326 100.005 175.392 99.8817 175.392 99.7398C175.392 99.6132 175.334 99.5134 175.218 99.4405C175.137 99.39 174.935 99.3267 174.613 99.25C174.179 99.1458 173.878 99.0563 173.709 98.9815C173.542 98.9041 173.415 98.7992 173.327 98.6662C173.242 98.5307 173.199 98.3817 173.199 98.2193C173.199 98.0716 173.234 97.9354 173.304 97.8107C173.377 97.6835 173.474 97.5786 173.597 97.4955C173.689 97.4309 173.814 97.3766 173.972 97.3331C174.131 97.2871 174.302 97.2641 174.484 97.2641C174.758 97.2641 174.999 97.3018 175.205 97.3766C175.413 97.4514 175.566 97.5537 175.665 97.6829C175.764 97.8095 175.832 97.9802 175.869 98.1944L175.29 98.2698C175.264 98.0991 175.187 97.9655 175.06 97.8702C174.935 97.7743 174.758 97.7263 174.527 97.7263C174.255 97.7263 174.061 97.7692 173.946 97.8542C173.829 97.9399 173.771 98.0396 173.771 98.1541C173.771 98.227 173.795 98.2922 173.843 98.3504C173.892 98.4111 173.967 98.461 174.07 98.5006C174.129 98.5211 174.304 98.569 174.593 98.6439C175.012 98.75 175.303 98.8376 175.467 98.9067C175.634 98.9731 175.764 99.071 175.859 99.2001C175.953 99.3286 176 99.4891 176 99.6809C176 99.8683 175.942 100.045 175.826 100.212C175.712 100.376 175.546 100.504 175.329 100.595C175.113 100.685 174.867 100.73 174.593 100.73C174.14 100.73 173.793 100.64 173.554 100.461C173.317 100.282 173.166 100.017 173.101 99.665Z" fill="white"/>
<path d="M460.487 51C462.981 51 464.973 49.647 464.973 47.4712C464.973 45.9353 463.882 44.82 462.461 44.2897C463.674 43.7961 464.679 42.8636 464.679 41.3643C464.679 39.2799 462.704 38 460.487 38C458.339 38 456.312 39.225 456.312 41.3643C456.312 42.7904 457.23 43.7412 458.529 44.2897C457.109 44.8017 456 45.917 456 47.4712C456 49.6287 457.975 51 460.487 51ZM460.487 43.5949C459.43 43.5218 458.061 42.8636 458.061 41.5654C458.061 40.4501 459.118 39.6273 460.487 39.6273C461.855 39.6273 462.929 40.4501 462.929 41.5654C462.929 42.827 461.578 43.5218 460.487 43.5949ZM460.487 49.3727C458.962 49.3727 457.767 48.5317 457.767 47.3066C457.767 45.9719 459.326 45.1674 460.487 45.1308C461.664 45.1674 463.206 45.9719 463.206 47.3066C463.206 48.5317 462.011 49.3727 460.487 49.3727ZM470.972 51C473.553 51 475.372 49.3362 475.372 46.7947C475.372 44.2897 473.57 42.8636 471.44 42.8636C470.383 42.8636 469.586 43.2293 468.962 43.6681L469.066 39.9381H474.731V38.2194H467.403L467.23 44.7834L468.46 45.3685C469.17 44.8017 470.019 44.4543 471.006 44.4543C472.548 44.4543 473.605 45.4233 473.605 46.8678C473.605 48.2757 472.565 49.3727 471.024 49.3727C469.759 49.3727 468.651 48.7145 467.732 47.7089L466.641 49.0253C467.663 50.1955 469.084 51 470.972 51ZM478.602 51C479.226 51 479.728 50.4332 479.728 49.7567C479.728 49.135 479.226 48.5682 478.602 48.5682C477.944 48.5682 477.442 49.135 477.442 49.7567C477.442 50.4332 477.944 51 478.602 51ZM483.117 50.7806H485.127L490.133 39.609V38.2194H481.818V39.9381H488.071L483.117 50.7806ZM494.439 50.7806H496.206V38.2194H494.785L491.65 40.4684L492.377 41.8031L494.439 40.4135V50.7806Z" fill="#70A2FF"/>
<defs>
<filter id="filter0_d" x="0" y="0" width="559" height="191" filterUnits="userSpaceOnUse" color-interpolation-filters="sRGB">
<feFlood flood-opacity="0" result="BackgroundImageFix"/>
<feColorMatrix in="SourceAlpha" type="matrix" values="0 0 0 0 0 0 0 0 0 0 0 0 0 0 0 0 0 0 127 0"/>
<feOffset/>
<feGaussianBlur stdDeviation="7.5"/>
<feColorMatrix type="matrix" values="0 0 0 0 0 0 0 0 0 0 0 0 0 0 0 0 0 0 0.1 0"/>
<feBlend mode="normal" in2="BackgroundImageFix" result="effect1_dropShadow"/>
<feBlend mode="normal" in="SourceGraphic" in2="effect1_dropShadow" result="shape"/>
</filter>
</defs>
</svg>
