<svg width="277" height="128" viewBox="0 0 277 128" fill="none" xmlns="http://www.w3.org/2000/svg">
<g filter="url(#filter0_d)">
<rect x="40" y="40" width="196.465" height="48" rx="10" fill="white"/>
</g>
<path d="M188.469 66.7365C188.469 66.5899 188.505 66.5213 188.674 66.3428L191.164 63.7336C192.241 62.5993 192.525 62.1426 192.525 61.4762C192.523 61.2714 192.48 61.0689 192.398 60.8812C192.316 60.6934 192.197 60.5242 192.048 60.3838C191.898 60.2434 191.722 60.1347 191.53 60.0644C191.337 59.994 191.132 59.9634 190.928 59.9744C190.509 59.9583 190.099 60.0941 189.773 60.3566C189.446 60.6192 189.226 60.9908 189.152 61.4029C189.135 61.4827 189.089 61.5533 189.024 61.6015C188.958 61.6497 188.877 61.672 188.795 61.6641C188.714 61.6563 188.639 61.6189 188.584 61.5591C188.528 61.4992 188.497 61.4211 188.495 61.3396C188.496 61.2764 188.501 61.2133 188.511 61.1508C188.632 60.2737 189.488 59.3441 190.916 59.3441C192.261 59.3441 193.238 60.2265 193.238 61.4396C193.238 62.2537 192.855 62.8784 191.578 64.2021L189.487 66.3814V66.4023H193.149C193.192 66.4004 193.235 66.4073 193.276 66.4226C193.316 66.4379 193.353 66.4612 193.384 66.4911C193.416 66.521 193.44 66.557 193.457 66.5968C193.474 66.6366 193.483 66.6794 193.483 66.7227C193.483 66.766 193.474 66.8088 193.457 66.8486C193.44 66.8884 193.416 66.9243 193.384 66.9543C193.353 66.9842 193.316 67.0075 193.276 67.0228C193.235 67.038 193.192 67.045 193.149 67.0431H188.825C188.611 67.0411 188.469 66.9255 188.469 66.7365Z" fill="#DADADA"/>
<g filter="url(#filter1_d)">
<path d="M101.489 65.3764C101.489 59.3762 96.6237 54.5128 90.6216 54.5137C84.6195 54.5146 79.7539 59.3795 79.7539 65.3798C79.7539 71.38 84.6195 76.2434 90.6216 76.2425C96.6237 76.2415 101.489 71.3767 101.489 65.3764Z" fill="#C4E2FF"/>
</g>
<path d="M135.415 66.0598C135.325 65.8993 135.278 65.7185 135.279 65.5347C135.275 65.4898 135.28 65.4445 135.295 65.402C135.31 65.3595 135.334 65.3207 135.366 65.2883C135.397 65.2559 135.435 65.2306 135.477 65.2142C135.519 65.1978 135.564 65.1906 135.609 65.1931C135.777 65.1931 135.873 65.2876 135.946 65.5136C136.156 66.2383 136.812 66.732 137.826 66.732C138.924 66.732 139.686 66.0753 139.691 65.1826C139.697 64.1902 138.951 63.623 137.742 63.623H137.086C137.044 63.6269 137.001 63.6218 136.961 63.6082C136.922 63.5946 136.885 63.5726 136.854 63.5439C136.823 63.5151 136.799 63.4801 136.783 63.4413C136.767 63.4024 136.759 63.3605 136.76 63.3184C136.759 63.276 136.766 63.2338 136.783 63.1946C136.799 63.1555 136.823 63.1201 136.854 63.0909C136.884 63.0616 136.921 63.0392 136.961 63.025C137.001 63.0108 137.043 63.0052 137.086 63.0085H137.711C138.725 63.0085 139.424 62.4099 139.424 61.5694C139.424 60.7503 138.824 60.1727 137.8 60.1727C136.897 60.1727 136.308 60.6295 136.093 61.3855C136.019 61.6063 135.956 61.701 135.762 61.701C135.717 61.7048 135.673 61.6985 135.631 61.6827C135.589 61.6669 135.552 61.642 135.521 61.6097C135.49 61.5774 135.467 61.5387 135.453 61.4963C135.439 61.4539 135.435 61.4089 135.441 61.3647C135.442 61.1823 135.485 61.0024 135.567 60.8397C135.909 60.0411 136.739 59.5424 137.8 59.5424C139.245 59.5424 140.149 60.3985 140.149 61.4855C140.149 62.4257 139.503 63.0818 138.53 63.2765V63.2972C139.66 63.3867 140.422 64.085 140.422 65.1618C140.422 66.4482 139.307 67.3623 137.826 67.3623C136.665 67.3623 135.798 66.8791 135.415 66.0598Z" fill="#575756"/>
<path d="M143.456 66.9527V60.4445H143.44L141.832 61.521C141.764 61.5756 141.678 61.6053 141.591 61.6051C141.551 61.6067 141.512 61.6 141.476 61.5854C141.439 61.5708 141.406 61.5486 141.379 61.5203C141.352 61.4921 141.331 61.4583 141.317 61.4213C141.304 61.3844 141.299 61.345 141.302 61.3058C141.302 61.2384 141.32 61.1724 141.356 61.1149C141.391 61.0575 141.441 61.0108 141.501 60.9801L143.298 59.7565C143.425 59.6369 143.592 59.5694 143.767 59.5674C143.819 59.5635 143.872 59.5712 143.921 59.5898C143.97 59.6084 144.014 59.6375 144.051 59.6751C144.087 59.7126 144.115 59.7577 144.132 59.8072C144.15 59.8566 144.156 59.9092 144.151 59.9614V66.9527C144.154 67.0005 144.148 67.0485 144.132 67.0937C144.117 67.139 144.092 67.1805 144.059 67.2156C144.027 67.2508 143.987 67.2788 143.943 67.298C143.899 67.3172 143.852 67.3271 143.804 67.3271C143.756 67.3271 143.709 67.3172 143.665 67.298C143.621 67.2788 143.581 67.2508 143.549 67.2156C143.516 67.1805 143.491 67.139 143.475 67.0937C143.46 67.0485 143.453 67.0005 143.457 66.9527H143.456Z" fill="#575756"/>
<path d="M164.908 66.9527V60.4445H164.893L163.285 61.521C163.217 61.5756 163.131 61.6053 163.044 61.6052C163.004 61.6067 162.965 61.5999 162.929 61.5853C162.892 61.5707 162.859 61.5485 162.832 61.5202C162.805 61.492 162.784 61.4582 162.77 61.4213C162.757 61.3843 162.752 61.345 162.755 61.3058C162.755 61.2385 162.774 61.1725 162.809 61.115C162.844 61.0576 162.894 61.0109 162.954 60.9801L164.751 59.7565C164.878 59.6372 165.044 59.5697 165.218 59.5674C165.271 59.5635 165.323 59.5712 165.372 59.5898C165.421 59.6084 165.465 59.6375 165.502 59.6751C165.538 59.7126 165.566 59.7577 165.584 59.8072C165.601 59.8566 165.607 59.9093 165.602 59.9614V66.9527C165.605 67.0003 165.599 67.0481 165.583 67.0931C165.567 67.138 165.542 67.1793 165.509 67.2142C165.477 67.2491 165.437 67.2769 165.394 67.296C165.35 67.315 165.303 67.3249 165.255 67.3249C165.207 67.3249 165.16 67.315 165.116 67.296C165.073 67.2769 165.033 67.2491 165.001 67.2142C164.968 67.1793 164.943 67.138 164.927 67.0931C164.911 67.0481 164.905 67.0003 164.908 66.9527Z" fill="#E0E0E0"/>
<path d="M213.454 66.0576C213.365 65.8972 213.318 65.7164 213.318 65.5326C213.314 65.4876 213.319 65.4424 213.335 65.3999C213.35 65.3574 213.374 65.3186 213.405 65.2862C213.437 65.2538 213.475 65.2285 213.517 65.2121C213.559 65.1957 213.604 65.1885 213.649 65.191C213.817 65.191 213.913 65.2854 213.985 65.5114C214.195 66.2361 214.852 66.7298 215.865 66.7298C216.964 66.7298 217.725 66.0731 217.731 65.1805C217.736 64.1881 216.99 63.6208 215.782 63.6208H215.125C215.083 63.6248 215.041 63.6197 215.001 63.6061C214.961 63.5924 214.924 63.5705 214.894 63.5417C214.863 63.5129 214.839 63.478 214.822 63.4391C214.806 63.4002 214.798 63.3583 214.799 63.3162C214.798 63.2738 214.806 63.2317 214.822 63.1925C214.838 63.1533 214.862 63.118 214.893 63.0887C214.924 63.0595 214.96 63.0371 215 63.0229C215.04 63.0087 215.083 63.003 215.125 63.0064H215.75C216.764 63.0064 217.463 62.4077 217.463 61.5672C217.463 60.7481 216.864 60.1706 215.839 60.1706C214.936 60.1706 214.347 60.6273 214.132 61.3834C214.058 61.6041 213.995 61.6989 213.801 61.6989C213.757 61.7026 213.712 61.6964 213.67 61.6806C213.629 61.6648 213.591 61.6398 213.56 61.6076C213.53 61.5753 213.506 61.5365 213.493 61.4941C213.479 61.4517 213.475 61.4068 213.481 61.3626C213.481 61.1802 213.524 61.0003 213.607 60.8375C213.948 60.039 214.778 59.5403 215.839 59.5403C217.284 59.5403 218.188 60.3963 218.188 61.4834C218.188 62.4236 217.542 63.0797 216.57 63.2743V63.2951C217.699 63.3845 218.461 64.0829 218.461 65.1597C218.461 66.4461 217.346 67.3601 215.865 67.3601C214.705 67.3601 213.838 66.877 213.454 66.0576Z" fill="#DADADA"/>
<path d="M58.9766 66.8811C58.9766 66.7345 59.0132 66.6659 59.1818 66.4874L61.6719 63.8783C62.7488 62.7437 63.0324 62.287 63.0324 61.6209C63.0309 61.416 62.9878 61.2136 62.9058 61.0259C62.8238 60.8381 62.7046 60.669 62.5553 60.5286C62.406 60.3882 62.2299 60.2795 62.0374 60.2091C61.8449 60.1387 61.6402 60.1081 61.4355 60.119C61.0169 60.103 60.6067 60.2387 60.2803 60.5013C59.9539 60.7638 59.7335 61.1354 59.6596 61.5476C59.6423 61.627 59.5966 61.6974 59.5309 61.7453C59.4653 61.7932 59.3843 61.8154 59.3034 61.8076C59.2225 61.7998 59.1472 61.7627 59.0919 61.7031C59.0366 61.6436 59.005 61.5658 59.0032 61.4846C59.0036 61.4212 59.0088 61.358 59.0188 61.2955C59.1396 60.4183 59.9959 59.489 61.4236 59.489C62.7685 59.489 63.7453 60.3711 63.7453 61.5842C63.7453 62.3984 63.362 63.0234 62.0854 64.3467L59.9945 66.5261V66.5472H63.6561C63.6996 66.5449 63.7431 66.5515 63.784 66.5666C63.8248 66.5816 63.8622 66.6049 63.8938 66.6349C63.9254 66.6648 63.9506 66.7009 63.9677 66.7409C63.9849 66.7809 63.9938 66.8239 63.9938 66.8675C63.9938 66.911 63.9849 66.9541 63.9677 66.9941C63.9506 67.0341 63.9254 67.0702 63.8938 67.1001C63.8622 67.1301 63.8248 67.1533 63.784 67.1684C63.7431 67.1835 63.6996 67.19 63.6561 67.1878H59.3326C59.1185 67.186 58.9766 67.0687 58.9766 66.8811Z" fill="#575756"/>
<path d="M64.8828 65.1292C64.8918 64.6578 65.066 64.2044 65.3752 63.8484C65.6843 63.4923 66.1087 63.256 66.5743 63.1808V63.165C65.7075 62.9287 65.1558 62.2828 65.1558 61.4687C65.1558 60.3254 66.1752 59.489 67.5829 59.489C68.9961 59.489 70.0049 60.3239 70.0049 61.4687C70.0049 62.2723 69.4533 62.9181 68.5917 63.165V63.1808C69.057 63.2568 69.481 63.4932 69.79 63.8492C70.099 64.2051 70.2735 64.658 70.2832 65.1292C70.2832 66.4001 69.18 67.3086 67.5829 67.3086C65.9908 67.3086 64.8828 66.3948 64.8828 65.1292ZM69.553 65.0872C69.553 64.1784 68.7492 63.5335 67.5829 63.5335C66.4219 63.5335 65.613 64.1784 65.613 65.0872C65.613 66.001 66.4116 66.6782 67.5829 66.6782C68.7542 66.6782 69.5524 66.001 69.5524 65.0872H69.553ZM69.2956 61.5265C69.2956 60.7124 68.6076 60.1137 67.5829 60.1137C66.5638 60.1137 65.8705 60.7124 65.8705 61.5265C65.8705 62.3248 66.5796 62.892 67.5829 62.892C68.5806 62.892 69.2949 62.3248 69.2949 61.5265H69.2956Z" fill="#575756"/>
<path d="M85.0469 66.8811C85.0469 66.7345 85.0838 66.6659 85.2521 66.4874L87.7422 63.8783C88.8191 62.7437 89.103 62.287 89.103 61.6209C89.1015 61.416 89.0584 61.2136 88.9764 61.0258C88.8944 60.838 88.7751 60.6688 88.6258 60.5284C88.4765 60.388 88.3003 60.2794 88.1078 60.209C87.9153 60.1387 87.7106 60.108 87.5059 60.119C87.0873 60.103 86.677 60.2387 86.3507 60.5013C86.0244 60.7638 85.804 61.1354 85.7302 61.5476C85.7132 61.6273 85.6675 61.698 85.6018 61.7461C85.536 61.7943 85.4549 61.8166 85.3738 61.8088C85.2926 61.801 85.2172 61.7637 85.1618 61.7039C85.1065 61.6441 85.075 61.566 85.0735 61.4846C85.074 61.4212 85.0793 61.358 85.0894 61.2955C85.2099 60.4183 86.0665 59.489 87.4942 59.489C88.8391 59.489 89.8162 60.3711 89.8162 61.5842C89.8162 62.3984 89.4326 63.0234 88.156 64.3467L86.0654 66.5261V66.5472H89.7271C89.7706 66.5449 89.8141 66.5515 89.8549 66.5666C89.8958 66.5816 89.9331 66.6049 89.9647 66.6349C89.9963 66.6648 90.0214 66.7009 90.0386 66.7409C90.0558 66.7809 90.0647 66.8239 90.0647 66.8675C90.0647 66.911 90.0558 66.9541 90.0386 66.9941C90.0214 67.0341 89.9963 67.0702 89.9647 67.1001C89.9331 67.1301 89.8958 67.1533 89.8549 67.1684C89.8141 67.1835 89.7706 67.19 89.7271 67.1878H85.4032C85.1894 67.186 85.0469 67.0687 85.0469 66.8811Z" fill="#575756"/>
<path d="M91.1805 65.984C91.1156 65.8682 91.0797 65.7384 91.0755 65.6058C91.0733 65.5636 91.0801 65.5214 91.0956 65.4821C91.111 65.4427 91.1348 65.4072 91.1651 65.3778C91.1955 65.3484 91.2318 65.3259 91.2717 65.3118C91.3115 65.2977 91.3539 65.2922 91.396 65.2959C91.5588 65.2959 91.66 65.3748 91.7846 65.6216C91.9211 65.9499 92.1561 66.2277 92.4573 66.4168C92.7584 66.6058 93.1109 66.6968 93.4659 66.677C94.8317 66.677 95.5935 65.4378 95.6408 63.3581V63.1218H95.6252C95.448 63.5641 95.1383 63.9408 94.7385 64.2003C94.3388 64.4597 93.8686 64.5893 93.3923 64.5712C93.0612 64.5817 92.7315 64.5246 92.4232 64.4036C92.1149 64.2825 91.8345 64.1 91.599 63.8671C91.3636 63.6342 91.178 63.3558 91.0537 63.0489C90.9294 62.742 90.8688 62.413 90.8758 62.082C90.867 61.7357 90.9293 61.3914 91.059 61.0702C91.1886 60.749 91.3828 60.4579 91.6295 60.2147C91.8762 59.9716 92.1702 59.7816 92.4933 59.6565C92.8164 59.5315 93.1617 59.4741 93.5079 59.4878C93.9912 59.478 94.467 59.6082 94.878 59.8625C95.2891 60.1169 95.6178 60.4846 95.8247 60.9213C96.1941 61.6355 96.3699 62.4341 96.3344 63.2373C96.3344 65.7738 95.2677 67.3073 93.4604 67.3073C92.263 67.3064 91.4694 66.65 91.1805 65.984ZM95.4411 62.0978C95.4469 61.8414 95.4013 61.5864 95.3069 61.3479C95.2126 61.1094 95.0714 60.8921 94.8917 60.709C94.712 60.526 94.4974 60.3807 94.2607 60.2819C94.0239 60.1831 93.7697 60.1326 93.5132 60.1336C93.2601 60.1314 93.0092 60.1799 92.7751 60.2762C92.5411 60.3724 92.3287 60.5146 92.1505 60.6942C91.9723 60.8738 91.8318 61.0872 91.7374 61.322C91.643 61.5567 91.5965 61.8079 91.6008 62.0608C91.5959 62.3111 91.6421 62.5597 91.7366 62.7914C91.831 63.0232 91.9718 63.2333 92.1502 63.4089C92.3285 63.5845 92.5409 63.7218 92.7742 63.8127C93.0074 63.9035 93.2568 63.9458 93.507 63.9371C93.7554 63.9452 94.0029 63.9039 94.2351 63.8154C94.4673 63.727 94.6796 63.5932 94.8596 63.422C95.0396 63.2507 95.1837 63.0454 95.2836 62.8179C95.3834 62.5904 95.4369 62.3453 95.4411 62.0969V62.0978Z" fill="#575756"/>
<path d="M109.267 66.0063C109.177 65.8457 109.13 65.6649 109.13 65.481C109.126 65.436 109.132 65.3908 109.147 65.3483C109.162 65.3059 109.186 65.2671 109.218 65.2348C109.249 65.2024 109.287 65.1772 109.329 65.1608C109.371 65.1444 109.416 65.1372 109.461 65.1397C109.629 65.1397 109.725 65.2341 109.797 65.4601C110.008 66.1848 110.664 66.6782 111.678 66.6782C112.776 66.6782 113.538 66.0219 113.543 65.1292C113.548 64.1368 112.802 63.5692 111.594 63.5692H110.937C110.895 63.5732 110.853 63.5681 110.813 63.5545C110.773 63.5409 110.737 63.5189 110.706 63.4902C110.675 63.4614 110.651 63.4264 110.635 63.3875C110.618 63.3487 110.611 63.3068 110.612 63.2646C110.61 63.2223 110.618 63.1801 110.634 63.141C110.651 63.1018 110.675 63.0664 110.705 63.0372C110.736 63.008 110.773 62.9856 110.813 62.9715C110.853 62.9573 110.895 62.9517 110.937 62.9551H111.563C112.577 62.9551 113.275 62.3564 113.275 61.5162C113.275 60.6968 112.676 60.119 111.652 60.119C110.748 60.119 110.16 60.5761 109.944 61.3321C109.871 61.5529 109.808 61.6473 109.613 61.6473C109.569 61.651 109.524 61.6448 109.483 61.629C109.441 61.6132 109.403 61.5883 109.373 61.556C109.342 61.5238 109.319 61.4851 109.305 61.4427C109.291 61.4003 109.287 61.3554 109.293 61.3113C109.293 61.1288 109.337 60.9488 109.419 60.786C109.761 59.9877 110.592 59.489 111.652 59.489C113.096 59.489 114 60.3447 114 61.4321C114 62.3722 113.355 63.0286 112.382 63.2227V63.2438C113.511 63.3318 114.273 64.0316 114.273 65.1083C114.273 66.3947 113.159 67.3085 111.678 67.3085C110.517 67.3085 109.65 66.8254 109.267 66.0063Z" fill="#575756"/>
<path d="M115.258 63.3963C115.258 61.017 116.292 59.489 118.005 59.489C119.723 59.489 120.747 61.012 120.747 63.391C120.747 65.7855 119.728 67.3085 118.005 67.3085C116.282 67.3085 115.258 65.7908 115.258 63.3963ZM120.028 63.3963C120.028 61.4057 119.276 60.1243 118.004 60.1243C116.738 60.1243 115.981 61.4162 115.981 63.391C115.981 65.4021 116.721 66.6782 118.004 66.6782C119.287 66.6782 120.028 65.4021 120.028 63.3963Z" fill="#575756"/>
<circle cx="142.601" cy="71.0434" r="1.55803" fill="#FF5151"/>
<circle cx="86.5111" cy="71.0434" r="1.55803" fill="#51ABFF"/>
<circle cx="115.179" cy="71.0434" r="1.55803" fill="#FFBD12"/>
<circle cx="95.2377" cy="71.0434" r="1.55803" fill="#FF5151"/>
<circle cx="138.238" cy="71.0434" r="1.55803" fill="#FFBD12"/>
<circle cx="90.8744" cy="71.0434" r="1.55803" fill="#FF5151"/>
<defs>
<filter id="filter0_d" x="0" y="0" width="276.465" height="128" filterUnits="userSpaceOnUse" color-interpolation-filters="sRGB">
<feFlood flood-opacity="0" result="BackgroundImageFix"/>
<feColorMatrix in="SourceAlpha" type="matrix" values="0 0 0 0 0 0 0 0 0 0 0 0 0 0 0 0 0 0 127 0"/>
<feOffset/>
<feGaussianBlur stdDeviation="20"/>
<feColorMatrix type="matrix" values="0 0 0 0 0 0 0 0 0 0 0 0 0 0 0 0 0 0 0.1 0"/>
<feBlend mode="normal" in2="BackgroundImageFix" result="effect1_dropShadow"/>
<feBlend mode="normal" in="SourceGraphic" in2="effect1_dropShadow" result="shape"/>
</filter>
<filter id="filter1_d" x="75.7539" y="54.5137" width="29.7354" height="30.7287" filterUnits="userSpaceOnUse" color-interpolation-filters="sRGB">
<feFlood flood-opacity="0" result="BackgroundImageFix"/>
<feColorMatrix in="SourceAlpha" type="matrix" values="0 0 0 0 0 0 0 0 0 0 0 0 0 0 0 0 0 0 127 0"/>
<feOffset dy="5"/>
<feGaussianBlur stdDeviation="2"/>
<feColorMatrix type="matrix" values="0 0 0 0 0 0 0 0 0 0 0 0 0 0 0 0 0 0 0.1 0"/>
<feBlend mode="normal" in2="BackgroundImageFix" result="effect1_dropShadow"/>
<feBlend mode="normal" in="SourceGraphic" in2="effect1_dropShadow" result="shape"/>
</filter>
</defs>
</svg>
