<svg width="280" height="123" viewBox="0 0 280 123" fill="none" xmlns="http://www.w3.org/2000/svg">
<g filter="url(#filter0_d)">
<rect x="40" y="40" width="200" height="43" rx="10" fill="white"/>
</g>
<path d="M65.7737 58.3772H66.4173L64.1204 53.1742H63.4767L61.1797 58.3772H61.8234L62.3471 57.1957H65.2499L65.7737 58.3772ZM62.5932 56.6353L63.8048 53.9013L65.0037 56.6353H62.5932ZM69.0487 58.4681C69.5914 58.4681 70.0963 58.2409 70.4623 57.8698L70.071 57.4835C69.806 57.7789 69.44 57.9607 69.0487 57.9607C68.2662 57.9607 67.6163 57.2564 67.6163 56.4157C67.6163 55.5826 68.2662 54.8782 69.0487 54.8782C69.4337 54.8782 69.7934 55.0525 70.0458 55.3327L70.4434 54.9464C70.0711 54.5905 69.5788 54.3708 69.0487 54.3708C67.9507 54.3708 67.0168 55.3024 67.0168 56.4157C67.0168 57.529 67.9507 58.4681 69.0487 58.4681ZM73.0558 57.8016C72.9738 57.8925 72.8224 57.9607 72.6457 57.9607C72.4185 57.9607 72.2229 57.7562 72.2229 57.4684V54.9691H73.1821V54.4617H72.2229V53.3862H71.6549V54.4617H71.0428V54.9691H71.6549V57.4684C71.6549 58.0516 72.0462 58.4681 72.6078 58.4681C72.8728 58.4681 73.1316 58.3772 73.3335 58.2182L73.0558 57.8016ZM74.4189 53.7498C74.6208 53.7498 74.7912 53.5756 74.7912 53.3711C74.7912 53.1742 74.6208 53 74.4189 53C74.2043 53 74.0403 53.1742 74.0403 53.3711C74.0403 53.5756 74.2043 53.7498 74.4189 53.7498ZM74.1286 58.3772H74.6966V54.4617H74.1286V58.3772ZM77.6561 58.4681C78.7541 58.4681 79.6817 57.529 79.6817 56.4157C79.6817 55.3024 78.7541 54.3708 77.6561 54.3708C76.5581 54.3708 75.6305 55.3024 75.6305 56.4157C75.6305 57.529 76.5581 58.4681 77.6561 58.4681ZM77.6561 57.9607C76.8799 57.9607 76.2237 57.2564 76.2237 56.4157C76.2237 55.5826 76.8799 54.8782 77.6561 54.8782C78.4323 54.8782 79.0823 55.5826 79.0823 56.4157C79.0823 57.2564 78.4323 57.9607 77.6561 57.9607ZM82.4773 54.3708C81.9283 54.3708 81.4171 54.6738 81.1899 55.0903V54.4617H80.622V58.3772H81.1899V55.8855C81.1899 55.3402 81.7453 54.8782 82.4016 54.8782C82.9821 54.8782 83.3797 55.3251 83.3797 55.9613V58.3772H83.9476V55.8855C83.9476 54.9994 83.3418 54.3708 82.4773 54.3708ZM87.4309 58.3772H88.0241V54.1436L91.2487 58.3772H91.8356V53.1742H91.2487V57.4078L88.0241 53.1742H87.4309V58.3772ZM94.7132 54.3708C94.3345 54.3708 93.8613 54.4693 93.3059 54.7495L93.5331 55.2115C93.8865 55.0297 94.2777 54.8555 94.6752 54.8555C95.5208 54.8555 95.7354 55.4614 95.7354 55.9916V56.1355C95.3316 56.0067 94.8835 55.9158 94.4607 55.9158C93.6214 55.9158 92.9273 56.4384 92.9273 57.2185C92.9273 57.991 93.5331 58.4681 94.3534 58.4681C94.8709 58.4681 95.4515 58.2258 95.7354 57.7638V58.3772H96.3034V55.9916C96.3034 55.0449 95.7796 54.3708 94.7132 54.3708ZM94.4544 57.9682C93.8991 57.9682 93.4763 57.6804 93.4763 57.1957C93.4763 56.7262 93.9685 56.393 94.5554 56.393C94.9782 56.393 95.3757 56.4536 95.7354 56.552V57.1503C95.584 57.7032 94.9719 57.9682 94.4544 57.9682ZM101.692 54.3708C101.106 54.3708 100.588 54.6965 100.43 55.2039C100.216 54.6965 99.7551 54.3708 99.1682 54.3708C98.6508 54.3708 98.228 54.6283 98.0324 55.0373V54.4617H97.4645V58.3772H98.0324V55.8855C98.0324 55.2948 98.4678 54.8782 99.0925 54.8782C99.6226 54.8782 99.9886 55.3251 99.9886 55.9613V58.3772H100.557V55.8855C100.557 55.2948 100.998 54.8782 101.617 54.8782C102.147 54.8782 102.519 55.3251 102.519 55.9613V58.3772H103.087V55.8855C103.087 54.9994 102.513 54.3708 101.692 54.3708ZM106.002 57.9607C105.226 57.9607 104.69 57.4002 104.608 56.6353H107.814C107.814 55.2645 107.138 54.3708 105.958 54.3708C104.904 54.3708 104.027 55.2418 104.027 56.4081C104.027 57.6123 104.961 58.4681 106.009 58.4681C106.551 58.4681 107.246 58.2333 107.586 57.8622L107.233 57.4911C106.993 57.7562 106.463 57.9607 106.002 57.9607ZM105.977 54.8782C106.76 54.8782 107.176 55.4235 107.252 56.1279H104.614C104.721 55.3705 105.283 54.8782 105.977 54.8782Z" fill="#787878"/>
<path d="M55.5776 57.1151C56.4489 57.1151 57.1552 56.4087 57.1552 55.5373C57.1552 54.6659 56.4489 53.9595 55.5776 53.9595C54.7063 53.9595 54 54.6659 54 55.5373C54 56.4087 54.7063 57.1151 55.5776 57.1151Z" fill="#FF5151"/>
<path opacity="0.2" d="M222.802 60.2708H192.512C189.55 60.2708 187.148 62.6726 187.148 65.6354C187.148 68.5982 189.55 71 192.512 71H222.802C225.764 71 228.166 68.5982 228.166 65.6354C228.166 62.6726 225.764 60.2708 222.802 60.2708Z" fill="#FD688C"/>
<path d="M198.824 67.9336C200.124 67.9336 201.058 66.9869 201.058 65.6539V62.6396H200.288V65.6388C200.288 66.5703 199.682 67.2368 198.824 67.2368C197.959 67.2368 197.353 66.5703 197.353 65.6388V62.6396H196.59V65.6539C196.59 66.9869 197.511 67.9336 198.824 67.9336ZM202.989 64.6769V63.9272H202.238V67.8427H202.989V65.6161C203.058 64.9344 203.632 64.4876 204.44 64.4876V63.8363C203.771 63.8363 203.241 64.1619 202.989 64.6769ZM208.151 63.9272V64.5558C207.854 64.1165 207.355 63.8363 206.762 63.8363C205.734 63.8363 204.983 64.6012 204.983 65.6918C204.983 66.7824 205.734 67.5549 206.762 67.5549C207.355 67.5549 207.841 67.2898 208.151 66.843V67.411C208.151 68.0926 207.646 68.494 206.8 68.494C206.333 68.494 205.866 68.335 205.576 68.0623L205.279 68.6228C205.652 68.9257 206.257 69.1454 206.914 69.1454C208.075 69.1454 208.901 68.4334 208.901 67.4262V63.9272H208.151ZM206.952 66.9036C206.257 66.9036 205.765 66.4037 205.765 65.6918C205.765 64.9874 206.257 64.4876 206.952 64.4876C207.652 64.4876 208.151 64.9874 208.151 65.6918C208.151 66.4037 207.652 66.9036 206.952 66.9036ZM211.811 67.2671C211.142 67.2671 210.662 66.7975 210.561 66.1462H213.647C213.647 64.7451 212.959 63.8363 211.76 63.8363C210.675 63.8363 209.804 64.6997 209.804 65.8736C209.804 67.0778 210.731 67.9336 211.823 67.9336C212.372 67.9336 213.054 67.6988 213.401 67.3277L212.934 66.843C212.7 67.0853 212.221 67.2671 211.811 67.2671ZM211.792 64.5028C212.467 64.5028 212.833 64.942 212.921 65.5479H210.574C210.694 64.9117 211.186 64.5028 211.792 64.5028ZM216.505 63.8363C215.975 63.8363 215.496 64.1089 215.262 64.4952V63.9272H214.511V67.8427H215.262V65.3055C215.325 64.8435 215.792 64.4876 216.341 64.4876C216.871 64.4876 217.238 64.8966 217.238 65.4797V67.8427H217.976V65.351C217.976 64.4649 217.37 63.8363 216.505 63.8363ZM220.879 67.1384C220.797 67.2217 220.645 67.2822 220.481 67.2822C220.26 67.2822 220.077 67.0853 220.077 66.8127V64.5634H220.998V63.9272H220.077V62.8517H219.345V63.9272H218.752V64.5634H219.345V66.8657C219.345 67.4943 219.768 67.9336 220.374 67.9336C220.651 67.9336 220.942 67.8275 221.15 67.6534L220.879 67.1384Z" fill="#FD688C"/>
<path d="M102.945 68.4749H106.65V67.763H104.157L105.381 66.733C106.271 66.0059 106.605 65.4531 106.605 64.7563C106.605 63.8097 105.835 63.181 104.864 63.181C104.037 63.181 103.425 63.5597 102.971 64.1883L103.488 64.6427C103.848 64.1731 104.264 63.8702 104.832 63.8702C105.35 63.8702 105.816 64.2035 105.816 64.7715C105.816 65.241 105.551 65.6879 104.857 66.271L102.945 67.8463V68.4749ZM109.407 63.181C108.309 63.181 107.52 63.9308 107.52 64.9305C107.52 65.9605 108.315 66.5588 109.268 66.5588C109.843 66.5588 110.366 66.3013 110.682 65.8696C110.663 67.0208 110.063 67.8766 109.268 67.8766C108.789 67.8766 108.467 67.6721 108.139 67.3768L107.748 67.9675C108.145 68.3234 108.625 68.5658 109.262 68.5658C110.53 68.5658 111.464 67.3692 111.464 65.7939C111.464 64.3095 110.852 63.181 109.407 63.181ZM109.451 65.9151C108.814 65.9151 108.309 65.5288 108.309 64.8926C108.309 64.3701 108.732 63.8323 109.432 63.8323C110.114 63.8323 110.486 64.3322 110.625 65.0744C110.486 65.5818 110.026 65.9151 109.451 65.9151ZM112.89 68.5658C113.162 68.5658 113.383 68.331 113.383 68.0508C113.383 67.7933 113.162 67.5585 112.89 67.5585C112.6 67.5585 112.379 67.7933 112.379 68.0508C112.379 68.331 112.6 68.5658 112.89 68.5658ZM116.702 68.4749H117.465V64.7715L119.289 68.172L121.119 64.7715V68.4749H121.883V63.2719H121.119L119.289 66.6724L117.465 63.2719H116.702V68.4749ZM124.735 64.4685C124.3 64.4685 123.807 64.5821 123.246 64.8624L123.523 65.4152C123.864 65.241 124.243 65.0895 124.628 65.0895C125.404 65.0895 125.631 65.6121 125.631 66.1044V66.2256C125.253 66.0968 124.836 66.0135 124.451 66.0135C123.587 66.0135 122.886 66.5361 122.886 67.3162C122.886 68.0811 123.498 68.5658 124.331 68.5658C124.811 68.5658 125.347 68.3462 125.631 67.9372V68.4749H126.369V66.1044C126.369 65.135 125.783 64.4685 124.735 64.4685ZM124.476 67.9751C123.984 67.9751 123.606 67.7176 123.606 67.2934C123.606 66.8693 124.041 66.5739 124.565 66.5739C124.95 66.5739 125.316 66.627 125.631 66.7255V67.248C125.505 67.7327 124.962 67.9751 124.476 67.9751ZM128.237 65.3092V64.5594H127.493V68.4749H128.237V66.2483C128.307 65.5667 128.881 65.1199 129.695 65.1199V64.4685C129.02 64.4685 128.49 64.7942 128.237 65.3092ZM132.27 68.5658C132.857 68.5658 133.361 68.3235 133.74 67.9372L133.235 67.4752C132.989 67.7479 132.642 67.9145 132.282 67.9145C131.563 67.9145 130.97 67.2783 130.97 66.5134C130.97 65.756 131.563 65.1199 132.27 65.1199C132.636 65.1199 132.976 65.2789 133.21 65.544L133.721 65.0744C133.349 64.7033 132.838 64.4685 132.282 64.4685C131.159 64.4685 130.212 65.4001 130.212 66.5134C130.212 67.6267 131.159 68.5658 132.27 68.5658ZM136.536 64.4685C135.999 64.4685 135.52 64.7488 135.286 65.1426V63.181H134.541V68.4749H135.286V66.0438C135.286 65.5364 135.778 65.1199 136.371 65.1199C136.902 65.1199 137.267 65.5288 137.267 66.112V68.4749H138.006V65.9832C138.006 65.0971 137.4 64.4685 136.536 64.4685Z" fill="#1495F0"/>
<path d="M61.5977 68.4746H63.3961C65.0747 68.4746 66.2736 67.3915 66.2736 65.8692C66.2736 64.347 65.0747 63.2715 63.3961 63.2715H61.5977V68.4746ZM62.3675 67.7778V63.9683H63.4402C64.6455 63.9683 65.4848 64.7559 65.4848 65.8692C65.4848 66.9901 64.6455 67.7778 63.4402 67.7778H62.3675ZM69.9526 64.559V67.0962C69.8895 67.5581 69.4225 67.9141 68.8735 67.9141C68.3434 67.9141 67.9712 67.5051 67.9712 66.922V64.559H67.2391V67.0507C67.2391 67.9368 67.845 68.5654 68.7095 68.5654C69.2396 68.5654 69.7128 68.2928 69.9526 67.9065V68.4746H70.6972V64.559H69.9526ZM73.5811 67.899C72.9059 67.899 72.4326 67.4294 72.3317 66.7781H75.4174C75.4174 65.377 74.7232 64.4681 73.5306 64.4681C72.4452 64.4681 71.5744 65.3315 71.5744 66.5054C71.5744 67.7096 72.502 68.5654 73.5874 68.5654C74.1427 68.5654 74.8243 68.3307 75.1713 67.9596L74.7044 67.4749C74.4709 67.7172 73.9913 67.899 73.5811 67.899ZM73.5622 65.1346C74.2311 65.1346 74.6034 65.5739 74.6854 66.1798H72.338C72.4642 65.5436 72.9564 65.1346 73.5622 65.1346ZM78.5664 68.4746H80.3585C82.0371 68.4746 83.236 67.3915 83.236 65.8692C83.236 64.347 82.0371 63.2715 80.3585 63.2715H78.5664V68.4746ZM79.3299 67.7778V63.9683H80.4026C81.6079 63.9683 82.4472 64.7559 82.4472 65.8692C82.4472 66.9901 81.6079 67.7778 80.4026 67.7778H79.3299ZM85.8611 64.4681C85.432 64.4681 84.9398 64.5817 84.3782 64.862L84.6495 65.4148C84.9903 65.2406 85.3689 65.0892 85.7538 65.0892C86.5363 65.0892 86.7636 65.6118 86.7636 66.104V66.2252C86.3849 66.0964 85.9685 66.0131 85.5835 66.0131C84.719 66.0131 84.0122 66.5357 84.0122 67.3158C84.0122 68.0807 84.6306 68.5654 85.4636 68.5654C85.9369 68.5654 86.4733 68.3458 86.7636 67.9368V68.4746H87.4955V66.104C87.4955 65.1346 86.915 64.4681 85.8611 64.4681ZM85.6024 67.9747C85.1102 67.9747 84.7316 67.7172 84.7316 67.2931C84.7316 66.869 85.1733 66.5736 85.6971 66.5736C86.082 66.5736 86.448 66.6266 86.7636 66.7251V67.2477C86.6374 67.7324 86.0883 67.9747 85.6024 67.9747ZM90.4172 67.7702C90.3289 67.8535 90.1774 67.9141 90.0134 67.9141C89.7925 67.9141 89.6096 67.7172 89.6096 67.4445V65.1952H90.5372V64.559H89.6096V63.4835H88.8775V64.559H88.2843V65.1952H88.8775V67.4976C88.8775 68.1262 89.3003 68.5654 89.9061 68.5654C90.1901 68.5654 90.4741 68.4594 90.6886 68.2852L90.4172 67.7702ZM93.2443 67.899C92.5691 67.899 92.0958 67.4294 91.9948 66.7781H95.0806C95.0806 65.377 94.3865 64.4681 93.1938 64.4681C92.1084 64.4681 91.2376 65.3315 91.2376 66.5054C91.2376 67.7096 92.1652 68.5654 93.2506 68.5654C93.8059 68.5654 94.4874 68.3307 94.8345 67.9596L94.3676 67.4749C94.1341 67.7172 93.6545 67.899 93.2443 67.899ZM93.2254 65.1346C93.8943 65.1346 94.2666 65.5739 94.3486 66.1798H92.0012C92.1274 65.5436 92.6196 65.1346 93.2254 65.1346ZM96.4184 65.5587C96.6898 65.5587 96.9107 65.324 96.9107 65.0437C96.9107 64.7862 96.6898 64.5514 96.4184 64.5514C96.1282 64.5514 95.9073 64.7862 95.9073 65.0437C95.9073 65.324 96.1282 65.5587 96.4184 65.5587ZM96.4184 68.5654C96.6898 68.5654 96.9107 68.3307 96.9107 68.0504C96.9107 67.7929 96.6898 67.5581 96.4184 67.5581C96.1282 67.5581 95.9073 67.7929 95.9073 68.0504C95.9073 68.3307 96.1282 68.5654 96.4184 68.5654Z" fill="#6C6C6C"/>
<defs>
<filter id="filter0_d" x="0" y="0" width="280" height="123" filterUnits="userSpaceOnUse" color-interpolation-filters="sRGB">
<feFlood flood-opacity="0" result="BackgroundImageFix"/>
<feColorMatrix in="SourceAlpha" type="matrix" values="0 0 0 0 0 0 0 0 0 0 0 0 0 0 0 0 0 0 127 0"/>
<feOffset/>
<feGaussianBlur stdDeviation="20"/>
<feColorMatrix type="matrix" values="0 0 0 0 0 0 0 0 0 0 0 0 0 0 0 0 0 0 0.1 0"/>
<feBlend mode="normal" in2="BackgroundImageFix" result="effect1_dropShadow"/>
<feBlend mode="normal" in="SourceGraphic" in2="effect1_dropShadow" result="shape"/>
</filter>
</defs>
</svg>
