<svg width="491" height="171" viewBox="0 0 491 171" fill="none" xmlns="http://www.w3.org/2000/svg">
<g filter="url(#filter0_d)">
<rect x="30" y="30" width="431" height="111" rx="20" fill="white"/>
</g>
<path d="M60.96 53.884V52.756H54.9V61H56.124V57.412H60.492V56.284H56.124V53.884H60.96ZM62.8583 53.764C63.2423 53.764 63.5663 53.428 63.5663 53.044C63.5663 52.672 63.2423 52.336 62.8583 52.336C62.4503 52.336 62.1383 52.672 62.1383 53.044C62.1383 53.428 62.4503 53.764 62.8583 53.764ZM62.2583 61H63.4463V54.796H62.2583V61ZM65.1648 61H66.3408V52.612H65.1648V61ZM70.915 60.088C69.847 60.088 69.091 59.344 68.935 58.312H73.819C73.819 56.092 72.727 54.652 70.831 54.652C69.115 54.652 67.735 56.02 67.735 57.88C67.735 59.788 69.199 61.144 70.927 61.144C71.803 61.144 72.883 60.772 73.435 60.184L72.691 59.416C72.319 59.8 71.563 60.088 70.915 60.088ZM70.879 55.708C71.947 55.708 72.535 56.404 72.667 57.364H68.947C69.139 56.356 69.919 55.708 70.879 55.708ZM77.44 61.144C78.796 61.144 79.792 60.4 79.792 59.224C79.792 57.988 78.7 57.652 77.68 57.352C76.636 57.028 76.252 56.884 76.252 56.404C76.252 55.936 76.732 55.672 77.344 55.672C77.884 55.672 78.508 55.876 79.108 56.248L79.636 55.372C78.964 54.928 78.148 54.652 77.344 54.652C76.024 54.652 75.076 55.396 75.088 56.536C75.088 57.544 75.796 57.952 77.224 58.348C77.992 58.564 78.628 58.744 78.628 59.32C78.628 59.8 78.148 60.124 77.452 60.124C76.72 60.124 76.012 59.848 75.352 59.368L74.788 60.22C75.532 60.82 76.528 61.144 77.44 61.144ZM81.7726 62.644C82.5406 61.768 82.8166 61.252 82.8166 60.688C82.8166 60.028 82.4806 59.548 81.9526 59.548C81.4966 59.548 81.1486 59.92 81.1486 60.34C81.1486 60.784 81.4966 61.144 81.9286 61.144C81.8326 61.516 81.6166 61.9 81.2686 62.26L81.7726 62.644ZM94.4272 61H95.7712L92.2312 52.756H90.8872L87.3472 61H88.6912L89.4112 59.32H93.7072L94.4272 61ZM89.8792 58.228L91.5592 54.316L93.2392 58.228H89.8792ZM101.218 54.796V58.816C101.122 59.548 100.378 60.112 99.514 60.112C98.674 60.112 98.086 59.464 98.086 58.54V54.796H96.922V58.744C96.922 60.148 97.882 61.144 99.25 61.144C100.09 61.144 100.846 60.712 101.218 60.1V61H102.406V54.796H101.218ZM108.906 52.612V55.864C108.426 55.108 107.658 54.652 106.698 54.652C105.066 54.652 103.842 55.996 103.842 57.892C103.842 59.8 105.066 61.144 106.698 61.144C107.658 61.144 108.426 60.688 108.906 59.92V61H110.082V52.612H108.906ZM106.986 60.112C105.846 60.112 105.042 59.188 105.042 57.892C105.042 56.596 105.846 55.684 106.986 55.684C108.102 55.684 108.906 56.596 108.906 57.892C108.906 59.188 108.102 60.112 106.986 60.112ZM112.452 53.764C112.836 53.764 113.16 53.428 113.16 53.044C113.16 52.672 112.836 52.336 112.452 52.336C112.044 52.336 111.732 52.672 111.732 53.044C111.732 53.428 112.044 53.764 112.452 53.764ZM111.852 61H113.04V54.796H111.852V61ZM117.699 61.144C119.463 61.144 120.951 59.656 120.951 57.892C120.951 56.128 119.463 54.652 117.699 54.652C115.923 54.652 114.423 56.128 114.423 57.892C114.423 59.656 115.923 61.144 117.699 61.144ZM117.699 60.112C116.559 60.112 115.611 59.104 115.611 57.892C115.611 56.692 116.559 55.684 117.699 55.684C118.815 55.684 119.763 56.692 119.763 57.892C119.763 59.104 118.815 60.112 117.699 60.112ZM132.542 60.64L131.198 59.26C131.618 58.672 131.99 57.988 132.338 57.232L131.39 56.8C131.15 57.436 130.85 58.024 130.502 58.528C129.83 57.832 129.314 57.256 128.822 56.692C130.046 56.164 130.79 55.66 130.79 54.628C130.79 53.536 129.902 52.66 128.726 52.66C127.466 52.66 126.542 53.536 126.542 54.64C126.542 55.252 126.734 55.768 127.202 56.416C125.93 56.98 125.354 57.724 125.354 58.792C125.354 60.256 126.494 61.144 128.006 61.144C129.002 61.144 129.806 60.748 130.49 60.088C130.79 60.4 131.126 60.748 131.498 61.12L132.542 60.64ZM128.726 53.608C129.29 53.608 129.686 54.064 129.686 54.64C129.686 55.276 129.266 55.6 128.246 56.008C127.838 55.48 127.646 55.06 127.646 54.64C127.646 54.004 128.114 53.608 128.726 53.608ZM128.102 60.16C127.25 60.16 126.53 59.632 126.53 58.744C126.53 58.06 126.974 57.544 127.766 57.136C128.282 57.76 128.894 58.432 129.806 59.38C129.29 59.86 128.714 60.16 128.102 60.16ZM143.81 52.756L140.942 59.44L138.074 52.756H136.73L140.27 61H141.614L145.154 52.756H143.81ZM146.917 53.764C147.301 53.764 147.625 53.428 147.625 53.044C147.625 52.672 147.301 52.336 146.917 52.336C146.509 52.336 146.197 52.672 146.197 53.044C146.197 53.428 146.509 53.764 146.917 53.764ZM146.317 61H147.505V54.796H146.317V61ZM153.999 52.612V55.864C153.519 55.108 152.751 54.652 151.791 54.652C150.159 54.652 148.935 55.996 148.935 57.892C148.935 59.8 150.159 61.144 151.791 61.144C152.751 61.144 153.519 60.688 153.999 59.92V61H155.175V52.612H153.999ZM152.079 60.112C150.939 60.112 150.135 59.188 150.135 57.892C150.135 56.596 150.939 55.684 152.079 55.684C153.195 55.684 153.999 56.596 153.999 57.892C153.999 59.188 153.195 60.112 152.079 60.112ZM159.802 60.088C158.734 60.088 157.978 59.344 157.822 58.312H162.706C162.706 56.092 161.614 54.652 159.718 54.652C158.002 54.652 156.622 56.02 156.622 57.88C156.622 59.788 158.086 61.144 159.814 61.144C160.69 61.144 161.77 60.772 162.322 60.184L161.578 59.416C161.206 59.8 160.45 60.088 159.802 60.088ZM159.766 55.708C160.834 55.708 161.422 56.404 161.554 57.364H157.834C158.026 56.356 158.806 55.708 159.766 55.708ZM167.023 61.144C168.787 61.144 170.275 59.656 170.275 57.892C170.275 56.128 168.787 54.652 167.023 54.652C165.247 54.652 163.747 56.128 163.747 57.892C163.747 59.656 165.247 61.144 167.023 61.144ZM167.023 60.112C165.883 60.112 164.935 59.104 164.935 57.892C164.935 56.692 165.883 55.684 167.023 55.684C168.139 55.684 169.087 56.692 169.087 57.892C169.087 59.104 168.139 60.112 167.023 60.112ZM173.909 61.144C175.265 61.144 176.261 60.4 176.261 59.224C176.261 57.988 175.169 57.652 174.149 57.352C173.105 57.028 172.721 56.884 172.721 56.404C172.721 55.936 173.201 55.672 173.813 55.672C174.353 55.672 174.977 55.876 175.577 56.248L176.105 55.372C175.433 54.928 174.617 54.652 173.813 54.652C172.493 54.652 171.545 55.396 171.557 56.536C171.557 57.544 172.265 57.952 173.693 58.348C174.461 58.564 175.097 58.744 175.097 59.32C175.097 59.8 174.617 60.124 173.921 60.124C173.189 60.124 172.481 59.848 171.821 59.368L171.257 60.22C172.001 60.82 172.997 61.144 173.909 61.144Z" fill="black"/>
<path d="M30 54H35C36.6569 54 38 55.3431 38 57C38 58.6569 36.6569 60 35 60H30V54Z" fill="#1495F0"/>
<path d="M55.5714 87H68.9231L76 94.0495V110.571C76 111.44 75.296 112.143 74.4286 112.143H55.5714C54.704 112.143 54 111.44 54 110.571V88.5714C54 87.7032 54.704 87 55.5714 87Z" fill="#1495F0"/>
<path d="M75.9783 94.0713H70.5011C69.6337 94.0713 68.9297 93.3673 68.9297 92.4999V87.0156L75.9783 94.0713Z" fill="#006BB7"/>
<rect x="54" y="99" width="22" height="9" fill="#006BB7"/>
<path d="M60.29 101.107V103.004C60.01 102.563 59.562 102.297 59.002 102.297C58.05 102.297 57.336 103.081 57.336 104.187C57.336 105.3 58.05 106.084 59.002 106.084C59.562 106.084 60.01 105.818 60.29 105.37V106H60.976V101.107H60.29ZM59.17 105.482C58.505 105.482 58.036 104.943 58.036 104.187C58.036 103.431 58.505 102.899 59.17 102.899C59.821 102.899 60.29 103.431 60.29 104.187C60.29 104.943 59.821 105.482 59.17 105.482ZM63.7307 106.084C64.7597 106.084 65.6277 105.216 65.6277 104.187C65.6277 103.158 64.7597 102.297 63.7307 102.297C62.6947 102.297 61.8197 103.158 61.8197 104.187C61.8197 105.216 62.6947 106.084 63.7307 106.084ZM63.7307 105.482C63.0657 105.482 62.5127 104.894 62.5127 104.187C62.5127 103.487 63.0657 102.899 63.7307 102.899C64.3817 102.899 64.9347 103.487 64.9347 104.187C64.9347 104.894 64.3817 105.482 63.7307 105.482ZM68.1466 106.084C68.6856 106.084 69.1546 105.86 69.5046 105.503L69.0356 105.076C68.8116 105.328 68.4896 105.482 68.1536 105.482C67.4886 105.482 66.9426 104.894 66.9426 104.187C66.9426 103.487 67.4886 102.899 68.1466 102.899C68.4826 102.899 68.7976 103.046 69.0146 103.291L69.4836 102.857C69.1406 102.514 68.6716 102.297 68.1536 102.297C67.1176 102.297 66.2426 103.158 66.2426 104.187C66.2426 105.216 67.1176 106.084 68.1466 106.084Z" fill="white"/>
<path d="M85.87 97H88.24C90.46 97 92.04 95.57 92.04 93.56C92.04 91.55 90.46 90.13 88.24 90.13H85.87V97ZM86.88 96.08V91.05H88.3C89.89 91.05 91 92.09 91 93.56C91 95.04 89.89 96.08 88.3 96.08H86.88ZM95.7872 97.12C97.2572 97.12 98.4972 95.88 98.4972 94.41C98.4972 92.94 97.2572 91.71 95.7872 91.71C94.3072 91.71 93.0572 92.94 93.0572 94.41C93.0572 95.88 94.3072 97.12 95.7872 97.12ZM95.7872 96.26C94.8372 96.26 94.0472 95.42 94.0472 94.41C94.0472 93.41 94.8372 92.57 95.7872 92.57C96.7172 92.57 97.5072 93.41 97.5072 94.41C97.5072 95.42 96.7172 96.26 95.7872 96.26ZM102.096 97.12C102.866 97.12 103.536 96.8 104.036 96.29L103.366 95.68C103.046 96.04 102.586 96.26 102.106 96.26C101.156 96.26 100.376 95.42 100.376 94.41C100.376 93.41 101.156 92.57 102.096 92.57C102.576 92.57 103.026 92.78 103.336 93.13L104.006 92.51C103.516 92.02 102.846 91.71 102.106 91.71C100.626 91.71 99.3755 92.94 99.3755 94.41C99.3755 95.88 100.626 97.12 102.096 97.12ZM108.655 91.83V95.18C108.575 95.79 107.955 96.26 107.235 96.26C106.535 96.26 106.045 95.72 106.045 94.95V91.83H105.075V95.12C105.075 96.29 105.875 97.12 107.015 97.12C107.715 97.12 108.345 96.76 108.655 96.25V97H109.645V91.83H108.655ZM116.861 91.71C116.081 91.71 115.421 92.11 115.181 92.75C114.881 92.11 114.271 91.71 113.521 91.71C112.861 91.71 112.321 92.04 112.061 92.55V91.83H111.071V97H112.061V93.77C112.061 93.06 112.581 92.57 113.321 92.57C113.971 92.57 114.421 93.1 114.421 93.86V97H115.391V93.77C115.391 93.06 115.911 92.57 116.651 92.57C117.301 92.57 117.751 93.1 117.751 93.86V97H118.721V93.71C118.721 92.54 117.941 91.71 116.861 91.71ZM122.514 96.24C121.624 96.24 120.994 95.62 120.864 94.76H124.934C124.934 92.91 124.024 91.71 122.444 91.71C121.014 91.71 119.864 92.85 119.864 94.4C119.864 95.99 121.084 97.12 122.524 97.12C123.254 97.12 124.154 96.81 124.614 96.32L123.994 95.68C123.684 96 123.054 96.24 122.514 96.24ZM122.484 92.59C123.374 92.59 123.864 93.17 123.974 93.97H120.874C121.034 93.13 121.684 92.59 122.484 92.59ZM128.711 91.71C128.011 91.71 127.381 92.07 127.071 92.58V91.83H126.081V97H127.071V93.65C127.151 93.04 127.771 92.57 128.491 92.57C129.191 92.57 129.681 93.11 129.681 93.88V97H130.651V93.71C130.651 92.54 129.851 91.71 128.711 91.71ZM134.488 96.07C134.378 96.18 134.178 96.26 133.958 96.26C133.668 96.26 133.428 96 133.428 95.64V92.67H134.648V91.83H133.428V90.41H132.458V91.83H131.678V92.67H132.458V95.71C132.458 96.54 133.018 97.12 133.818 97.12C134.188 97.12 134.568 96.98 134.848 96.75L134.488 96.07ZM139.828 97H140.848V90.13H140.028L138.218 91.36L138.638 92.09L139.828 91.33V97Z" fill="black"/>
<path d="M87.94 110.12C89.43 110.12 90.42 109.28 90.42 108.12C90.42 107.16 89.67 106.64 88.95 106.48C89.67 106.26 90.27 105.73 90.27 104.88C90.27 103.78 89.3 103.01 87.91 103.01C86.79 103.01 86.01 103.53 85.48 104.22L86.11 104.84C86.59 104.28 87.12 103.92 87.84 103.92C88.64 103.92 89.24 104.38 89.24 105.02C89.24 105.71 88.63 106.09 87.76 106.09L87.01 106.08V106.98H87.76C88.79 106.97 89.38 107.34 89.38 108.05C89.38 108.74 88.81 109.21 87.92 109.21C87.13 109.21 86.46 108.84 86 108.28L85.35 108.95C85.88 109.61 86.77 110.12 87.94 110.12ZM91.3977 110H96.2877V109.06H92.9977L94.6077 107.7C95.7877 106.74 96.2277 106.01 96.2277 105.09C96.2277 103.84 95.2077 103.01 93.9277 103.01C92.8377 103.01 92.0277 103.51 91.4277 104.34L92.1077 104.94C92.5877 104.32 93.1377 103.92 93.8877 103.92C94.5677 103.92 95.1877 104.36 95.1877 105.11C95.1877 105.73 94.8377 106.32 93.9177 107.09L91.3977 109.17V110ZM100.755 110H101.765V108.42H102.755V107.53H101.765V103.13H100.565L97.2348 107.61L97.3448 108.42H100.755V110ZM98.3448 107.53L100.755 104.28V107.53H98.3448ZM111.475 104.83H110.275L107.745 107.47V103.01H106.765V110H107.745V108.67L108.575 107.83L110.195 110H111.375L109.245 107.17L111.475 104.83ZM112.442 110H115.832C117.062 110 117.942 109.23 117.942 108.13C117.942 107.37 117.482 106.75 116.682 106.36C117.302 106.01 117.662 105.56 117.662 104.84C117.662 103.84 116.852 103.13 115.702 103.13H112.442V110ZM113.452 105.99V104.02H115.452C116.142 104.02 116.632 104.44 116.632 105.01C116.632 105.58 116.142 105.99 115.452 105.99H113.452ZM113.452 109.11V106.85H115.602C116.372 106.85 116.912 107.32 116.912 107.98C116.912 108.64 116.372 109.11 115.602 109.11H113.452Z" fill="#868686"/>
<path d="M201.055 97H202.065V94.61H203.945C205.395 94.61 206.495 93.68 206.495 92.37C206.495 91.06 205.395 90.13 203.945 90.13H201.055V97ZM202.065 93.67V91.07H203.805C204.795 91.07 205.465 91.56 205.465 92.37C205.465 93.18 204.795 93.67 203.805 93.67H202.065ZM208.559 92.82V91.83H207.569V97H208.559V94.06C208.649 93.16 209.409 92.57 210.479 92.57V91.71C209.589 91.71 208.889 92.14 208.559 92.82ZM213.815 96.24C212.925 96.24 212.295 95.62 212.165 94.76H216.235C216.235 92.91 215.325 91.71 213.745 91.71C212.315 91.71 211.165 92.85 211.165 94.4C211.165 95.99 212.385 97.12 213.825 97.12C214.555 97.12 215.455 96.81 215.915 96.32L215.295 95.68C214.985 96 214.355 96.24 213.815 96.24ZM213.785 92.59C214.675 92.59 215.165 93.17 215.275 93.97H212.175C212.335 93.13 212.985 92.59 213.785 92.59ZM219.252 97.12C220.382 97.12 221.212 96.5 221.212 95.52C221.212 94.49 220.302 94.21 219.452 93.96C218.582 93.69 218.262 93.57 218.262 93.17C218.262 92.78 218.662 92.56 219.172 92.56C219.622 92.56 220.142 92.73 220.642 93.04L221.082 92.31C220.522 91.94 219.842 91.71 219.172 91.71C218.072 91.71 217.282 92.33 217.292 93.28C217.292 94.12 217.882 94.46 219.072 94.79C219.712 94.97 220.242 95.12 220.242 95.6C220.242 96 219.842 96.27 219.262 96.27C218.652 96.27 218.062 96.04 217.512 95.64L217.042 96.35C217.662 96.85 218.492 97.12 219.252 97.12ZM224.733 96.24C223.843 96.24 223.213 95.62 223.083 94.76H227.153C227.153 92.91 226.243 91.71 224.663 91.71C223.233 91.71 222.083 92.85 222.083 94.4C222.083 95.99 223.303 97.12 224.743 97.12C225.473 97.12 226.373 96.81 226.833 96.32L226.213 95.68C225.903 96 225.273 96.24 224.733 96.24ZM224.703 92.59C225.593 92.59 226.083 93.17 226.193 93.97H223.093C223.253 93.13 223.903 92.59 224.703 92.59ZM230.93 91.71C230.23 91.71 229.6 92.07 229.29 92.58V91.83H228.3V97H229.29V93.65C229.37 93.04 229.99 92.57 230.71 92.57C231.41 92.57 231.9 93.11 231.9 93.88V97H232.87V93.71C232.87 92.54 232.07 91.71 230.93 91.71ZM236.706 96.07C236.596 96.18 236.396 96.26 236.176 96.26C235.886 96.26 235.646 96 235.646 95.64V92.67H236.866V91.83H235.646V90.41H234.676V91.83H233.896V92.67H234.676V95.71C234.676 96.54 235.236 97.12 236.036 97.12C236.406 97.12 236.786 96.98 237.066 96.75L236.706 96.07ZM240.245 91.71C239.675 91.71 239.025 91.86 238.285 92.23L238.645 92.96C239.095 92.73 239.595 92.53 240.105 92.53C241.135 92.53 241.435 93.22 241.435 93.87V94.03C240.935 93.86 240.385 93.75 239.875 93.75C238.735 93.75 237.805 94.44 237.805 95.47C237.805 96.48 238.615 97.12 239.715 97.12C240.345 97.12 241.055 96.83 241.435 96.29V97H242.405V93.87C242.405 92.59 241.635 91.71 240.245 91.71ZM239.905 96.34C239.255 96.34 238.755 96 238.755 95.44C238.755 94.88 239.335 94.49 240.025 94.49C240.535 94.49 241.015 94.56 241.435 94.69V95.38C241.265 96.02 240.545 96.34 239.905 96.34ZM246.257 96.07C246.147 96.18 245.947 96.26 245.727 96.26C245.437 96.26 245.197 96 245.197 95.64V92.67H246.417V91.83H245.197V90.41H244.227V91.83H243.447V92.67H244.227V95.71C244.227 96.54 244.787 97.12 245.587 97.12C245.957 97.12 246.337 96.98 246.617 96.75L246.257 96.07ZM248.116 90.97C248.436 90.97 248.706 90.69 248.706 90.37C248.706 90.06 248.436 89.78 248.116 89.78C247.776 89.78 247.516 90.06 247.516 90.37C247.516 90.69 247.776 90.97 248.116 90.97ZM247.616 97H248.606V91.83H247.616V97ZM252.488 97.12C253.958 97.12 255.198 95.88 255.198 94.41C255.198 92.94 253.958 91.71 252.488 91.71C251.008 91.71 249.758 92.94 249.758 94.41C249.758 95.88 251.008 97.12 252.488 97.12ZM252.488 96.26C251.538 96.26 250.748 95.42 250.748 94.41C250.748 93.41 251.538 92.57 252.488 92.57C253.418 92.57 254.208 93.41 254.208 94.41C254.208 95.42 253.418 96.26 252.488 96.26ZM258.987 91.71C258.287 91.71 257.657 92.07 257.347 92.58V91.83H256.357V97H257.347V93.65C257.427 93.04 258.047 92.57 258.767 92.57C259.467 92.57 259.957 93.11 259.957 93.88V97H260.927V93.71C260.927 92.54 260.127 91.71 258.987 91.71ZM265.354 97H266.364V91.79L270.314 97H271.324V90.13H270.314V95.34L266.364 90.13H265.354V97ZM275.089 91.71C274.519 91.71 273.869 91.86 273.129 92.23L273.489 92.96C273.939 92.73 274.439 92.53 274.949 92.53C275.979 92.53 276.279 93.22 276.279 93.87V94.03C275.779 93.86 275.229 93.75 274.719 93.75C273.579 93.75 272.649 94.44 272.649 95.47C272.649 96.48 273.459 97.12 274.559 97.12C275.189 97.12 275.899 96.83 276.279 96.29V97H277.249V93.87C277.249 92.59 276.479 91.71 275.089 91.71ZM274.749 96.34C274.099 96.34 273.599 96 273.599 95.44C273.599 94.88 274.179 94.49 274.869 94.49C275.379 94.49 275.859 94.56 276.279 94.69V95.38C276.109 96.02 275.389 96.34 274.749 96.34ZM284.461 91.71C283.681 91.71 283.021 92.11 282.781 92.75C282.481 92.11 281.871 91.71 281.121 91.71C280.461 91.71 279.921 92.04 279.661 92.55V91.83H278.671V97H279.661V93.77C279.661 93.06 280.181 92.57 280.921 92.57C281.571 92.57 282.021 93.1 282.021 93.86V97H282.991V93.77C282.991 93.06 283.511 92.57 284.251 92.57C284.901 92.57 285.351 93.1 285.351 93.86V97H286.321V93.71C286.321 92.54 285.541 91.71 284.461 91.71ZM290.113 96.24C289.223 96.24 288.593 95.62 288.463 94.76H292.533C292.533 92.91 291.623 91.71 290.043 91.71C288.613 91.71 287.463 92.85 287.463 94.4C287.463 95.99 288.683 97.12 290.123 97.12C290.853 97.12 291.753 96.81 292.213 96.32L291.593 95.68C291.283 96 290.653 96.24 290.113 96.24ZM290.083 92.59C290.973 92.59 291.463 93.17 291.573 93.97H288.473C288.633 93.13 289.283 92.59 290.083 92.59Z" fill="black"/>
<path d="M203.245 110.12C204.735 110.12 205.725 109.28 205.725 108.12C205.725 107.16 204.975 106.64 204.255 106.48C204.975 106.26 205.575 105.73 205.575 104.88C205.575 103.78 204.605 103.01 203.215 103.01C202.095 103.01 201.315 103.53 200.785 104.22L201.415 104.84C201.895 104.28 202.425 103.92 203.145 103.92C203.945 103.92 204.545 104.38 204.545 105.02C204.545 105.71 203.935 106.09 203.065 106.09L202.315 106.08V106.98H203.065C204.095 106.97 204.685 107.34 204.685 108.05C204.685 108.74 204.115 109.21 203.225 109.21C202.435 109.21 201.765 108.84 201.305 108.28L200.655 108.95C201.185 109.61 202.075 110.12 203.245 110.12ZM209.712 110.12C211.422 110.12 212.642 108.65 212.642 106.56C212.642 104.48 211.422 103.01 209.712 103.01C207.982 103.01 206.772 104.48 206.772 106.56C206.772 108.65 207.982 110.12 209.712 110.12ZM209.712 109.19C208.592 109.19 207.802 108.1 207.802 106.56C207.802 105.02 208.592 103.94 209.712 103.94C210.822 103.94 211.602 105.02 211.602 106.56C211.602 108.1 210.822 109.19 209.712 109.19ZM216.666 110.12C218.376 110.12 219.596 108.65 219.596 106.56C219.596 104.48 218.376 103.01 216.666 103.01C214.936 103.01 213.726 104.48 213.726 106.56C213.726 108.65 214.936 110.12 216.666 110.12ZM216.666 109.19C215.546 109.19 214.756 108.1 214.756 106.56C214.756 105.02 215.546 103.94 216.666 103.94C217.776 103.94 218.556 105.02 218.556 106.56C218.556 108.1 217.776 109.19 216.666 109.19ZM223.86 110H224.87V107.99L225.87 106.92L228.32 110H229.59L226.58 106.22L229.4 103.13H228.11L224.87 106.71V103.13H223.86V110ZM233.319 104.71C232.519 104.71 231.879 105.09 231.479 105.72V103.01H230.499V110H231.479V109.1C231.879 109.74 232.519 110.12 233.319 110.12C234.679 110.12 235.699 109 235.699 107.41C235.699 105.83 234.679 104.71 233.319 104.71ZM233.079 109.26C232.149 109.26 231.479 108.49 231.479 107.41C231.479 106.33 232.149 105.57 233.079 105.57C234.029 105.57 234.699 106.33 234.699 107.41C234.699 108.49 234.029 109.26 233.079 109.26Z" fill="#868686"/>
<path d="M170.576 87H183.969L191.068 94.0495V110.571C191.068 111.44 190.362 112.143 189.492 112.143H170.576C169.706 112.143 169 111.44 169 110.571V88.5714C169 87.7032 169.706 87 170.576 87Z" fill="#FE993B"/>
<path d="M191.047 94.0712H185.553C184.683 94.0712 183.977 93.3673 183.977 92.4998V87.0155L191.047 94.0712Z" fill="#DD7311"/>
<rect x="169" y="99" width="22.0683" height="9" fill="#DD7311"/>
<path d="M174.521 102.297C173.961 102.297 173.513 102.563 173.233 103.004V102.381H172.547V107.204H173.233V105.37C173.513 105.818 173.961 106.084 174.521 106.084C175.473 106.084 176.187 105.3 176.187 104.187C176.187 103.081 175.473 102.297 174.521 102.297ZM174.353 105.482C173.702 105.482 173.233 104.943 173.233 104.187C173.233 103.431 173.702 102.899 174.353 102.899C175.018 102.899 175.487 103.431 175.487 104.187C175.487 104.943 175.018 105.482 174.353 105.482ZM179.033 102.297C178.473 102.297 178.025 102.563 177.745 103.004V102.381H177.059V107.204H177.745V105.37C178.025 105.818 178.473 106.084 179.033 106.084C179.985 106.084 180.699 105.3 180.699 104.187C180.699 103.081 179.985 102.297 179.033 102.297ZM178.865 105.482C178.214 105.482 177.745 104.943 177.745 104.187C177.745 103.431 178.214 102.899 178.865 102.899C179.53 102.899 179.999 103.431 179.999 104.187C179.999 104.943 179.53 105.482 178.865 105.482ZM183.229 105.349C183.152 105.426 183.012 105.482 182.858 105.482C182.655 105.482 182.487 105.3 182.487 105.048V102.969H183.341V102.381H182.487V101.387H181.808V102.381H181.262V102.969H181.808V105.097C181.808 105.678 182.2 106.084 182.76 106.084C183.019 106.084 183.285 105.986 183.481 105.825L183.229 105.349ZM187.394 106L186.015 104.145L187.331 102.381H186.561L185.63 103.627L184.706 102.381H183.922L185.245 104.152L183.866 106H184.636L185.63 104.67L186.617 106H187.394Z" fill="white"/>
<path d="M321.576 87H334.969L342.068 94.0495V110.571C342.068 111.44 341.362 112.143 340.492 112.143H321.576C320.706 112.143 320 111.44 320 110.571V88.5714C320 87.7032 320.706 87 321.576 87Z" fill="#FF5151"/>
<path d="M342.047 94.0712H336.553C335.683 94.0712 334.977 93.3673 334.977 92.4998V87.0155L342.047 94.0712Z" fill="#DA2121"/>
<rect x="320" y="99" width="22.0683" height="9" fill="#DA2121"/>
<path d="M325.521 102.297C324.961 102.297 324.513 102.563 324.233 103.004V102.381H323.547V107.204H324.233V105.37C324.513 105.818 324.961 106.084 325.521 106.084C326.473 106.084 327.187 105.3 327.187 104.187C327.187 103.081 326.473 102.297 325.521 102.297ZM325.353 105.482C324.702 105.482 324.233 104.943 324.233 104.187C324.233 103.431 324.702 102.899 325.353 102.899C326.018 102.899 326.487 103.431 326.487 104.187C326.487 104.943 326.018 105.482 325.353 105.482ZM330.81 101.107V103.004C330.53 102.563 330.082 102.297 329.522 102.297C328.57 102.297 327.856 103.081 327.856 104.187C327.856 105.3 328.57 106.084 329.522 106.084C330.082 106.084 330.53 105.818 330.81 105.37V106H331.496V101.107H330.81ZM329.69 105.482C329.025 105.482 328.556 104.943 328.556 104.187C328.556 103.431 329.025 102.899 329.69 102.899C330.341 102.899 330.81 103.431 330.81 104.187C330.81 104.943 330.341 105.482 329.69 105.482ZM333.487 101.982C333.487 101.73 333.655 101.548 333.858 101.548C334.012 101.548 334.152 101.604 334.229 101.681L334.481 101.219C334.285 101.058 334.019 100.96 333.76 100.96C333.2 100.96 332.808 101.366 332.808 101.947V102.381H332.262V102.969H332.808V106H333.487V102.969H334.341V102.381H333.487V101.982Z" fill="white"/>
<path d="M352.554 97H354.924C357.144 97 358.724 95.57 358.724 93.56C358.724 91.55 357.144 90.13 354.924 90.13H352.554V97ZM353.564 96.08V91.05H354.984C356.574 91.05 357.684 92.09 357.684 93.56C357.684 95.04 356.574 96.08 354.984 96.08H353.564ZM362.471 97.12C363.941 97.12 365.181 95.88 365.181 94.41C365.181 92.94 363.941 91.71 362.471 91.71C360.991 91.71 359.741 92.94 359.741 94.41C359.741 95.88 360.991 97.12 362.471 97.12ZM362.471 96.26C361.521 96.26 360.731 95.42 360.731 94.41C360.731 93.41 361.521 92.57 362.471 92.57C363.401 92.57 364.191 93.41 364.191 94.41C364.191 95.42 363.401 96.26 362.471 96.26ZM368.779 97.12C369.549 97.12 370.219 96.8 370.719 96.29L370.049 95.68C369.729 96.04 369.269 96.26 368.789 96.26C367.839 96.26 367.059 95.42 367.059 94.41C367.059 93.41 367.839 92.57 368.779 92.57C369.259 92.57 369.709 92.78 370.019 93.13L370.689 92.51C370.199 92.02 369.529 91.71 368.789 91.71C367.309 91.71 366.059 92.94 366.059 94.41C366.059 95.88 367.309 97.12 368.779 97.12ZM375.339 91.83V95.18C375.259 95.79 374.639 96.26 373.919 96.26C373.219 96.26 372.729 95.72 372.729 94.95V91.83H371.759V95.12C371.759 96.29 372.559 97.12 373.699 97.12C374.399 97.12 375.029 96.76 375.339 96.25V97H376.329V91.83H375.339ZM383.545 91.71C382.765 91.71 382.105 92.11 381.865 92.75C381.565 92.11 380.955 91.71 380.205 91.71C379.545 91.71 379.005 92.04 378.745 92.55V91.83H377.755V97H378.745V93.77C378.745 93.06 379.265 92.57 380.005 92.57C380.655 92.57 381.105 93.1 381.105 93.86V97H382.075V93.77C382.075 93.06 382.595 92.57 383.335 92.57C383.985 92.57 384.435 93.1 384.435 93.86V97H385.405V93.71C385.405 92.54 384.625 91.71 383.545 91.71ZM389.197 96.24C388.307 96.24 387.677 95.62 387.547 94.76H391.617C391.617 92.91 390.707 91.71 389.127 91.71C387.697 91.71 386.547 92.85 386.547 94.4C386.547 95.99 387.767 97.12 389.207 97.12C389.937 97.12 390.837 96.81 391.297 96.32L390.677 95.68C390.367 96 389.737 96.24 389.197 96.24ZM389.167 92.59C390.057 92.59 390.547 93.17 390.657 93.97H387.557C387.717 93.13 388.367 92.59 389.167 92.59ZM395.395 91.71C394.695 91.71 394.065 92.07 393.755 92.58V91.83H392.765V97H393.755V93.65C393.835 93.04 394.455 92.57 395.175 92.57C395.875 92.57 396.365 93.11 396.365 93.88V97H397.335V93.71C397.335 92.54 396.535 91.71 395.395 91.71ZM401.171 96.07C401.061 96.18 400.861 96.26 400.641 96.26C400.351 96.26 400.111 96 400.111 95.64V92.67H401.331V91.83H400.111V90.41H399.141V91.83H398.361V92.67H399.141V95.71C399.141 96.54 399.701 97.12 400.501 97.12C400.871 97.12 401.251 96.98 401.531 96.75L401.171 96.07ZM405.552 97H406.562V91.79L410.512 97H411.522V90.13H410.512V95.34L406.562 90.13H405.552V97ZM415.286 91.71C414.716 91.71 414.066 91.86 413.326 92.23L413.686 92.96C414.136 92.73 414.636 92.53 415.146 92.53C416.176 92.53 416.476 93.22 416.476 93.87V94.03C415.976 93.86 415.426 93.75 414.916 93.75C413.776 93.75 412.846 94.44 412.846 95.47C412.846 96.48 413.656 97.12 414.756 97.12C415.386 97.12 416.096 96.83 416.476 96.29V97H417.446V93.87C417.446 92.59 416.676 91.71 415.286 91.71ZM414.946 96.34C414.296 96.34 413.796 96 413.796 95.44C413.796 94.88 414.376 94.49 415.066 94.49C415.576 94.49 416.056 94.56 416.476 94.69V95.38C416.306 96.02 415.586 96.34 414.946 96.34ZM424.658 91.71C423.878 91.71 423.218 92.11 422.978 92.75C422.678 92.11 422.068 91.71 421.318 91.71C420.658 91.71 420.118 92.04 419.858 92.55V91.83H418.868V97H419.858V93.77C419.858 93.06 420.378 92.57 421.118 92.57C421.768 92.57 422.218 93.1 422.218 93.86V97H423.188V93.77C423.188 93.06 423.708 92.57 424.448 92.57C425.098 92.57 425.548 93.1 425.548 93.86V97H426.518V93.71C426.518 92.54 425.738 91.71 424.658 91.71ZM430.311 96.24C429.421 96.24 428.791 95.62 428.661 94.76H432.731C432.731 92.91 431.821 91.71 430.241 91.71C428.811 91.71 427.661 92.85 427.661 94.4C427.661 95.99 428.881 97.12 430.321 97.12C431.051 97.12 431.951 96.81 432.411 96.32L431.791 95.68C431.481 96 430.851 96.24 430.311 96.24ZM430.281 92.59C431.171 92.59 431.661 93.17 431.771 93.97H428.671C428.831 93.13 429.481 92.59 430.281 92.59Z" fill="black"/>
<path d="M354.624 110.12C356.114 110.12 357.104 109.28 357.104 108.12C357.104 107.16 356.354 106.64 355.634 106.48C356.354 106.26 356.954 105.73 356.954 104.88C356.954 103.78 355.984 103.01 354.594 103.01C353.474 103.01 352.694 103.53 352.164 104.22L352.794 104.84C353.274 104.28 353.804 103.92 354.524 103.92C355.324 103.92 355.924 104.38 355.924 105.02C355.924 105.71 355.314 106.09 354.444 106.09L353.694 106.08V106.98H354.444C355.474 106.97 356.064 107.34 356.064 108.05C356.064 108.74 355.494 109.21 354.604 109.21C353.814 109.21 353.144 108.84 352.684 108.28L352.034 108.95C352.564 109.61 353.454 110.12 354.624 110.12ZM361.091 110.12C362.801 110.12 364.021 108.65 364.021 106.56C364.021 104.48 362.801 103.01 361.091 103.01C359.361 103.01 358.151 104.48 358.151 106.56C358.151 108.65 359.361 110.12 361.091 110.12ZM361.091 109.19C359.971 109.19 359.181 108.1 359.181 106.56C359.181 105.02 359.971 103.94 361.091 103.94C362.201 103.94 362.981 105.02 362.981 106.56C362.981 108.1 362.201 109.19 361.091 109.19ZM368.044 110.12C369.754 110.12 370.974 108.65 370.974 106.56C370.974 104.48 369.754 103.01 368.044 103.01C366.314 103.01 365.104 104.48 365.104 106.56C365.104 108.65 366.314 110.12 368.044 110.12ZM368.044 109.19C366.924 109.19 366.134 108.1 366.134 106.56C366.134 105.02 366.924 103.94 368.044 103.94C369.154 103.94 369.934 105.02 369.934 106.56C369.934 108.1 369.154 109.19 368.044 109.19ZM375.239 110H376.249V107.99L377.249 106.92L379.699 110H380.969L377.959 106.22L380.779 103.13H379.489L376.249 106.71V103.13H375.239V110ZM384.697 104.71C383.897 104.71 383.257 105.09 382.857 105.72V103.01H381.877V110H382.857V109.1C383.257 109.74 383.897 110.12 384.697 110.12C386.057 110.12 387.077 109 387.077 107.41C387.077 105.83 386.057 104.71 384.697 104.71ZM384.457 109.26C383.527 109.26 382.857 108.49 382.857 107.41C382.857 106.33 383.527 105.57 384.457 105.57C385.407 105.57 386.077 106.33 386.077 107.41C386.077 108.49 385.407 109.26 384.457 109.26Z" fill="#868686"/>
<defs>
<filter id="filter0_d" x="0" y="0" width="491" height="171" filterUnits="userSpaceOnUse" color-interpolation-filters="sRGB">
<feFlood flood-opacity="0" result="BackgroundImageFix"/>
<feColorMatrix in="SourceAlpha" type="matrix" values="0 0 0 0 0 0 0 0 0 0 0 0 0 0 0 0 0 0 127 0"/>
<feOffset/>
<feGaussianBlur stdDeviation="15"/>
<feColorMatrix type="matrix" values="0 0 0 0 0 0 0 0 0 0 0 0 0 0 0 0 0 0 0.1 0"/>
<feBlend mode="normal" in2="BackgroundImageFix" result="effect1_dropShadow"/>
<feBlend mode="normal" in="SourceGraphic" in2="effect1_dropShadow" result="shape"/>
</filter>
</defs>
</svg>
