<svg width="312" height="329" viewBox="0 0 312 329" fill="none" xmlns="http://www.w3.org/2000/svg">
<g filter="url(#filter0_d)">
<rect x="30" y="30.0813" width="252" height="268.919" rx="20" fill="white"/>
</g>
<path d="M258.39 118.846C258.39 122.032 257.124 125.086 254.871 127.339C252.618 129.591 249.562 130.856 246.376 130.856H156.206C153.019 130.856 149.963 129.591 147.71 127.339C145.457 125.086 144.191 122.032 144.191 118.846C144.191 117.269 144.502 115.707 145.106 114.25C145.71 112.793 146.595 111.469 147.71 110.354C148.826 109.239 150.15 108.354 151.608 107.75C153.066 107.147 154.628 106.836 156.206 106.836H246.375C247.953 106.836 249.515 107.147 250.973 107.75C252.431 108.354 253.755 109.238 254.871 110.354C255.987 111.469 256.872 112.793 257.476 114.25C258.079 115.707 258.39 117.269 258.39 118.846Z" fill="#E0E0E0"/>
<path d="M75.7358 121.609C77.2603 115.153 73.2612 108.685 66.8034 107.161C60.3457 105.637 53.8748 109.635 52.3502 116.09C50.8257 122.546 54.8249 129.014 61.2826 130.538C67.7404 132.062 74.2113 128.064 75.7358 121.609Z" fill="#E0E0E0"/>
<path d="M257.939 191.725C259.463 185.269 255.464 178.801 249.007 177.277C242.549 175.753 236.078 179.75 234.553 186.206C233.029 192.662 237.028 199.13 243.486 200.654C249.943 202.178 256.414 198.18 257.939 191.725Z" fill="#F5F5F5"/>
<path d="M152.17 122.433C152.062 122.239 152.005 122.021 152.005 121.799C152.001 121.745 152.008 121.69 152.026 121.639C152.044 121.587 152.073 121.54 152.111 121.501C152.149 121.462 152.195 121.432 152.245 121.412C152.296 121.392 152.351 121.383 152.405 121.387C152.608 121.387 152.724 121.501 152.811 121.774C153.065 122.649 153.858 123.245 155.083 123.245C156.41 123.245 157.33 122.452 157.336 121.374C157.342 120.175 156.441 119.489 154.982 119.489H154.188C154.138 119.494 154.087 119.488 154.038 119.472C153.99 119.455 153.946 119.429 153.909 119.394C153.872 119.359 153.842 119.317 153.823 119.27C153.803 119.223 153.793 119.172 153.795 119.121C153.793 119.07 153.803 119.019 153.822 118.972C153.842 118.925 153.871 118.882 153.908 118.847C153.945 118.811 153.989 118.784 154.038 118.767C154.086 118.75 154.137 118.743 154.188 118.747H154.944C156.169 118.747 157.013 118.024 157.013 117.009C157.013 116.018 156.29 115.321 155.052 115.321C153.961 115.321 153.25 115.873 152.99 116.787C152.901 117.054 152.824 117.168 152.59 117.168C152.536 117.172 152.482 117.165 152.432 117.146C152.382 117.127 152.336 117.097 152.299 117.058C152.262 117.019 152.234 116.972 152.217 116.921C152.2 116.869 152.196 116.815 152.203 116.762C152.203 116.541 152.255 116.324 152.355 116.127C152.767 115.163 153.772 114.56 155.052 114.56C156.798 114.56 157.889 115.594 157.889 116.907C157.889 118.043 157.109 118.836 155.934 119.071V119.096C157.298 119.203 158.219 120.048 158.219 121.348C158.219 122.903 156.873 124.006 155.084 124.006C153.681 124.008 152.633 123.423 152.17 122.433Z" fill="#575756"/>
<path d="M186.021 123.518V121.792H181.864C181.797 121.797 181.729 121.788 181.665 121.765C181.602 121.741 181.544 121.705 181.496 121.657C181.448 121.61 181.41 121.552 181.386 121.489C181.362 121.426 181.352 121.358 181.357 121.291C181.36 121.057 181.433 120.83 181.566 120.637C182.467 119.165 183.793 117.25 185.183 115.302C185.558 114.763 185.786 114.598 186.161 114.598C186.254 114.584 186.349 114.593 186.439 114.622C186.529 114.651 186.611 114.7 186.679 114.765C186.747 114.831 186.799 114.911 186.831 114.999C186.863 115.088 186.875 115.183 186.865 115.277V121.024H187.874C187.927 121.02 187.979 121.026 188.029 121.043C188.079 121.061 188.124 121.088 188.162 121.124C188.201 121.16 188.231 121.204 188.251 121.252C188.272 121.3 188.281 121.353 188.28 121.405C188.282 121.458 188.272 121.51 188.252 121.559C188.231 121.608 188.201 121.652 188.163 121.688C188.125 121.725 188.079 121.753 188.03 121.771C187.98 121.788 187.927 121.796 187.874 121.792H186.865V123.518C186.869 123.575 186.861 123.634 186.842 123.688C186.823 123.743 186.792 123.793 186.753 123.836C186.713 123.878 186.665 123.912 186.612 123.935C186.559 123.958 186.501 123.97 186.443 123.97C186.385 123.97 186.328 123.958 186.274 123.935C186.221 123.912 186.173 123.878 186.134 123.836C186.094 123.793 186.064 123.743 186.044 123.688C186.025 123.634 186.017 123.575 186.021 123.518ZM186.021 115.478H186.008C184.352 117.78 183.165 119.494 182.245 120.998V121.023H186.021V115.478Z" fill="#575756"/>
<path d="M213.76 122.183C213.699 122.034 213.667 121.874 213.665 121.713C213.661 121.659 213.669 121.604 213.688 121.553C213.707 121.502 213.737 121.456 213.775 121.418C213.814 121.379 213.86 121.349 213.911 121.33C213.962 121.311 214.017 121.304 214.071 121.307C214.294 121.307 214.401 121.414 214.484 121.688C214.62 122.158 214.911 122.567 215.31 122.849C215.709 123.132 216.192 123.27 216.68 123.242C216.983 123.244 217.283 123.186 217.564 123.072C217.845 122.957 218.1 122.789 218.315 122.576C218.531 122.363 218.702 122.11 218.819 121.831C218.937 121.551 218.998 121.252 219 120.949C219.002 120.646 218.944 120.346 218.829 120.066C218.715 119.785 218.546 119.53 218.333 119.315C218.12 119.099 217.867 118.928 217.588 118.811C217.308 118.693 217.009 118.632 216.706 118.63C216.353 118.625 216.003 118.697 215.681 118.843C215.36 118.989 215.074 119.205 214.846 119.474C214.527 119.817 214.453 119.867 214.224 119.867C214.165 119.87 214.106 119.86 214.051 119.838C213.996 119.815 213.946 119.781 213.906 119.738C213.865 119.694 213.835 119.642 213.817 119.586C213.798 119.529 213.792 119.47 213.799 119.411V119.309L214.187 115.376C214.231 114.9 214.453 114.71 214.955 114.71H218.965C219.018 114.707 219.07 114.715 219.12 114.733C219.169 114.751 219.214 114.779 219.252 114.816C219.29 114.852 219.321 114.895 219.342 114.944C219.362 114.992 219.373 115.044 219.373 115.097C219.373 115.149 219.362 115.201 219.342 115.25C219.321 115.298 219.29 115.341 219.252 115.378C219.214 115.414 219.169 115.442 219.12 115.46C219.07 115.478 219.018 115.486 218.965 115.484H214.965L214.616 118.883H214.635C214.899 118.554 215.238 118.291 215.622 118.117C216.007 117.943 216.428 117.862 216.85 117.881C217.25 117.866 217.649 117.934 218.023 118.08C218.396 118.226 218.735 118.447 219.019 118.73C219.303 119.012 219.526 119.35 219.673 119.723C219.821 120.095 219.89 120.494 219.877 120.894C219.877 122.715 218.531 124.011 216.659 124.011C215.263 124.011 214.14 123.274 213.76 122.183Z" fill="#575756"/>
<path d="M244.023 122.273C243.578 121.41 243.365 120.446 243.408 119.475C243.408 116.405 244.715 114.559 246.885 114.559C247.436 114.532 247.984 114.664 248.462 114.94C248.94 115.216 249.329 115.623 249.582 116.113C249.67 116.257 249.719 116.421 249.724 116.589C249.724 116.64 249.714 116.691 249.693 116.738C249.673 116.785 249.643 116.828 249.605 116.863C249.568 116.898 249.523 116.925 249.475 116.942C249.427 116.96 249.375 116.967 249.324 116.963C249.134 116.963 249.019 116.862 248.86 116.57C248.691 116.189 248.412 115.868 248.06 115.647C247.707 115.425 247.297 115.314 246.88 115.326C245.237 115.326 244.285 116.83 244.247 119.444V119.602H244.266C244.482 119.07 244.856 118.617 245.339 118.306C245.822 117.995 246.389 117.84 246.963 117.864C247.364 117.853 247.762 117.923 248.135 118.071C248.508 118.218 248.846 118.44 249.131 118.722C249.415 119.005 249.639 119.342 249.789 119.714C249.939 120.085 250.012 120.483 250.003 120.884C249.994 121.591 249.749 122.274 249.306 122.825C248.863 123.376 248.248 123.763 247.559 123.923C246.87 124.083 246.148 124.007 245.507 123.708C244.866 123.409 244.344 122.904 244.025 122.273H244.023ZM249.119 120.915C249.127 120.612 249.074 120.31 248.961 120.029C248.848 119.747 248.679 119.491 248.464 119.277C248.249 119.063 247.992 118.896 247.71 118.785C247.427 118.674 247.125 118.621 246.822 118.632C246.522 118.621 246.223 118.67 245.943 118.777C245.663 118.883 245.406 119.045 245.189 119.252C244.972 119.458 244.799 119.707 244.679 119.981C244.56 120.256 244.496 120.552 244.493 120.852C244.485 121.162 244.54 121.47 244.653 121.758C244.767 122.046 244.937 122.309 245.153 122.53C245.369 122.752 245.628 122.928 245.913 123.049C246.199 123.169 246.505 123.231 246.815 123.231C247.119 123.233 247.421 123.174 247.702 123.058C247.983 122.942 248.238 122.772 248.453 122.556C248.667 122.34 248.837 122.084 248.951 121.803C249.065 121.521 249.123 121.219 249.119 120.915Z" fill="#575756"/>
<path d="M57.1172 122.968C57.1172 122.791 57.1615 122.708 57.3652 122.492L60.3732 119.341C61.6741 117.97 62.0167 117.418 62.0167 116.614C62.0148 116.366 61.9628 116.122 61.8637 115.895C61.7646 115.668 61.6206 115.464 61.4403 115.294C61.26 115.125 61.0472 114.993 60.8147 114.908C60.5822 114.823 60.3349 114.786 60.0877 114.799C59.582 114.78 59.0864 114.944 58.6921 115.261C58.2978 115.578 58.0315 116.027 57.9423 116.525C57.9214 116.621 57.8661 116.706 57.7868 116.764C57.7075 116.822 57.6097 116.849 57.512 116.839C57.4142 116.83 57.3234 116.785 57.2565 116.713C57.1897 116.641 57.1516 116.547 57.1494 116.449C57.1498 116.372 57.1561 116.296 57.1682 116.221C57.3141 115.161 58.3486 114.038 60.0732 114.038C61.6978 114.038 62.8779 115.104 62.8779 116.569C62.8779 117.553 62.4149 118.308 60.8727 119.906L58.3468 122.539V122.565H62.7702C62.8227 122.562 62.8752 122.57 62.9246 122.588C62.9739 122.606 63.0191 122.634 63.0572 122.671C63.0954 122.707 63.1258 122.75 63.1466 122.799C63.1673 122.847 63.1781 122.899 63.1781 122.952C63.1781 123.004 63.1673 123.056 63.1466 123.105C63.1258 123.153 63.0954 123.196 63.0572 123.233C63.0191 123.269 62.9739 123.297 62.9246 123.315C62.8752 123.333 62.8227 123.341 62.7702 123.338H57.5473C57.2886 123.336 57.1172 123.195 57.1172 122.968Z" fill="white"/>
<path d="M64.25 120.851C64.2608 120.281 64.4713 119.734 64.8448 119.303C65.2182 118.873 65.7309 118.588 66.2934 118.497V118.478C65.2462 118.192 64.5798 117.412 64.5798 116.429C64.5798 115.048 65.8113 114.037 67.5117 114.037C69.2189 114.037 70.4376 115.046 70.4376 116.429C70.4376 117.399 69.7712 118.18 68.7304 118.478V118.497C69.2924 118.589 69.8046 118.874 70.1779 119.304C70.5512 119.734 70.762 120.281 70.7738 120.851C70.7738 122.386 69.4411 123.483 67.5117 123.483C65.5884 123.483 64.25 122.379 64.25 120.851ZM69.8916 120.8C69.8916 119.702 68.9206 118.923 67.5117 118.923C66.1092 118.923 65.1321 119.702 65.1321 120.8C65.1321 121.904 66.0968 122.722 67.5117 122.722C68.9267 122.722 69.891 121.904 69.891 120.8H69.8916ZM69.5806 116.499C69.5806 115.515 68.7495 114.792 67.5117 114.792C66.2807 114.792 65.4431 115.515 65.4431 116.499C65.4431 117.463 66.2998 118.148 67.5117 118.148C68.7169 118.148 69.5799 117.463 69.5799 116.499H69.5806Z" fill="white"/>
<path d="M95.6773 123.453V115.591H95.6581L93.7161 116.892C93.6332 116.958 93.5304 116.994 93.4245 116.993C93.3771 116.995 93.3297 116.987 93.2856 116.969C93.2415 116.952 93.2017 116.925 93.1687 116.891C93.1357 116.857 93.1103 116.816 93.0942 116.771C93.0781 116.727 93.0716 116.679 93.0752 116.632C93.0755 116.55 93.0982 116.471 93.1408 116.401C93.1833 116.332 93.2441 116.276 93.3164 116.239L95.4867 114.76C95.6397 114.616 95.8414 114.535 96.0517 114.532C96.1148 114.527 96.1782 114.537 96.2374 114.559C96.2966 114.581 96.3501 114.617 96.3943 114.662C96.4384 114.707 96.4721 114.762 96.493 114.821C96.5139 114.881 96.5214 114.945 96.5151 115.008V123.452C96.5196 123.51 96.512 123.568 96.493 123.622C96.4739 123.677 96.4438 123.727 96.4044 123.769C96.3651 123.812 96.3174 123.846 96.2644 123.869C96.2113 123.892 96.1541 123.904 96.0962 123.904C96.0383 123.904 95.981 123.892 95.928 123.869C95.8749 123.846 95.8272 123.812 95.7879 123.769C95.7486 123.727 95.7184 123.677 95.6994 123.622C95.6803 123.568 95.6728 123.51 95.6773 123.452V123.453Z" fill="#575756"/>
<path d="M121.762 123.431C121.762 123.254 121.806 123.171 122.01 122.955L125.018 119.803C126.319 118.433 126.661 117.881 126.661 117.076C126.659 116.829 126.607 116.584 126.508 116.357C126.409 116.131 126.265 115.926 126.085 115.757C125.905 115.587 125.692 115.456 125.459 115.371C125.227 115.286 124.979 115.249 124.732 115.262C124.227 115.243 123.731 115.407 123.337 115.724C122.943 116.041 122.676 116.49 122.587 116.988C122.567 117.084 122.511 117.169 122.432 117.228C122.353 117.286 122.254 117.313 122.156 117.303C122.058 117.294 121.967 117.249 121.9 117.176C121.834 117.104 121.796 117.01 121.794 116.911C121.794 116.835 121.801 116.759 121.813 116.683C121.959 115.624 122.993 114.501 124.718 114.501C126.342 114.501 127.523 115.567 127.523 117.032C127.523 118.015 127.06 118.77 125.518 120.369L122.992 123.002V123.027H127.415C127.467 123.025 127.52 123.033 127.568 123.052C127.617 123.07 127.662 123.098 127.7 123.134C127.738 123.17 127.768 123.214 127.788 123.262C127.809 123.31 127.819 123.362 127.819 123.414C127.819 123.466 127.809 123.518 127.788 123.566C127.768 123.614 127.738 123.658 127.7 123.694C127.662 123.73 127.617 123.758 127.568 123.777C127.52 123.795 127.467 123.803 127.415 123.801H122.192C121.933 123.799 121.762 123.659 121.762 123.431Z" fill="#575756"/>
<path d="M213.543 262.036C213.543 261.858 213.587 261.776 213.791 261.56L216.799 258.408C218.1 257.038 218.442 256.486 218.442 255.681C218.441 255.434 218.389 255.189 218.29 254.962C218.191 254.735 218.047 254.531 217.866 254.362C217.686 254.192 217.473 254.061 217.241 253.976C217.008 253.891 216.761 253.854 216.513 253.867C216.008 253.848 215.512 254.012 215.118 254.329C214.724 254.646 214.458 255.095 214.368 255.593C214.348 255.689 214.293 255.774 214.213 255.832C214.134 255.891 214.036 255.918 213.938 255.908C213.84 255.899 213.749 255.854 213.682 255.781C213.615 255.709 213.577 255.615 213.575 255.516C213.576 255.44 213.582 255.363 213.594 255.288C213.74 254.228 214.774 253.105 216.499 253.105C218.124 253.105 219.304 254.171 219.304 255.637C219.304 256.62 218.841 257.375 217.299 258.974L214.773 261.607V261.632H219.196C219.249 261.63 219.301 261.638 219.35 261.656C219.399 261.675 219.443 261.703 219.481 261.739C219.519 261.775 219.549 261.819 219.569 261.867C219.59 261.915 219.6 261.967 219.6 262.019C219.6 262.071 219.59 262.123 219.569 262.171C219.549 262.219 219.519 262.263 219.481 262.299C219.443 262.335 219.399 262.363 219.35 262.381C219.301 262.4 219.249 262.408 219.196 262.406H213.973C213.714 262.404 213.543 262.264 213.543 262.036Z" fill="#DADADA"/>
<g filter="url(#filter1_d)">
<path d="M108.475 260.394C108.475 253.146 102.598 247.271 95.347 247.272C88.0965 247.273 82.2187 253.15 82.2187 260.399C82.2187 267.647 88.0965 273.522 95.347 273.521C102.598 273.52 108.475 267.643 108.475 260.394Z" fill="#C4E2FF"/>
</g>
<path d="M151.568 158.214V150.352H151.549L149.607 151.653C149.524 151.719 149.421 151.754 149.315 151.754C149.268 151.756 149.22 151.748 149.176 151.73C149.132 151.713 149.092 151.686 149.059 151.652C149.026 151.617 149.001 151.577 148.985 151.532C148.969 151.487 148.962 151.44 148.966 151.393C148.966 151.311 148.989 151.231 149.031 151.162C149.074 151.093 149.135 151.036 149.207 150.999L151.377 149.521C151.53 149.377 151.732 149.296 151.942 149.293C152.005 149.288 152.068 149.297 152.128 149.32C152.187 149.342 152.24 149.377 152.285 149.423C152.329 149.468 152.363 149.522 152.383 149.582C152.404 149.642 152.412 149.705 152.406 149.768V158.213C152.41 158.27 152.403 158.328 152.384 158.383C152.365 158.438 152.334 158.488 152.295 158.53C152.256 158.573 152.208 158.607 152.155 158.63C152.102 158.653 152.045 158.665 151.987 158.665C151.929 158.665 151.872 158.653 151.819 158.63C151.766 158.607 151.718 158.573 151.678 158.53C151.639 158.488 151.609 158.438 151.59 158.383C151.571 158.328 151.563 158.27 151.568 158.213V158.214Z" fill="#575756"/>
<path d="M154.508 153.976C154.508 151.102 155.758 149.256 157.827 149.256C159.902 149.256 161.14 151.098 161.14 153.97C161.14 156.863 159.909 158.703 157.827 158.703C155.745 158.703 154.508 156.869 154.508 153.976ZM160.27 153.976C160.27 151.572 159.363 150.024 157.826 150.024C156.297 150.024 155.381 151.584 155.381 153.97C155.381 156.4 156.276 157.941 157.826 157.941C159.375 157.941 160.27 156.4 160.27 153.976Z" fill="#575756"/>
<path d="M151.927 192.91V185.048H151.908L149.966 186.348C149.883 186.414 149.78 186.45 149.674 186.449C149.627 186.451 149.579 186.443 149.535 186.425C149.491 186.408 149.452 186.381 149.419 186.347C149.386 186.313 149.36 186.272 149.344 186.227C149.328 186.183 149.322 186.135 149.325 186.088C149.325 186.006 149.348 185.927 149.391 185.857C149.433 185.788 149.494 185.732 149.566 185.695L151.737 184.216C151.89 184.072 152.091 183.991 152.301 183.988C152.365 183.983 152.428 183.993 152.487 184.015C152.546 184.037 152.6 184.073 152.644 184.118C152.688 184.163 152.722 184.218 152.743 184.278C152.764 184.337 152.771 184.401 152.765 184.464V192.908C152.769 192.966 152.762 193.023 152.743 193.078C152.724 193.133 152.693 193.183 152.654 193.225C152.615 193.268 152.567 193.302 152.514 193.325C152.461 193.348 152.404 193.36 152.346 193.36C152.288 193.36 152.231 193.348 152.178 193.325C152.125 193.302 152.077 193.268 152.038 193.225C151.998 193.183 151.968 193.133 151.949 193.078C151.93 193.023 151.922 192.966 151.927 192.908V192.91Z" fill="#575756"/>
<path d="M155.835 193.002C155.835 192.903 155.862 192.807 155.912 192.722L159.935 184.9V184.875H155.207C155.152 184.881 155.097 184.876 155.045 184.859C154.993 184.842 154.944 184.815 154.904 184.778C154.863 184.742 154.83 184.697 154.807 184.647C154.785 184.597 154.773 184.543 154.773 184.488C154.773 184.433 154.785 184.379 154.807 184.329C154.83 184.279 154.863 184.234 154.904 184.197C154.944 184.161 154.993 184.133 155.045 184.117C155.097 184.1 155.152 184.095 155.207 184.101H160.29C160.364 184.092 160.438 184.1 160.508 184.123C160.578 184.146 160.642 184.185 160.695 184.236C160.748 184.287 160.79 184.349 160.817 184.418C160.843 184.486 160.854 184.56 160.849 184.634C160.834 184.831 160.768 185.021 160.658 185.185L156.635 193.109C156.604 193.187 156.549 193.253 156.478 193.299C156.408 193.344 156.325 193.367 156.241 193.363C156.19 193.369 156.139 193.365 156.09 193.349C156.041 193.334 155.995 193.308 155.957 193.274C155.919 193.24 155.888 193.198 155.867 193.151C155.846 193.104 155.835 193.053 155.835 193.002Z" fill="#575756"/>
<path d="M148.531 227.582C148.531 227.405 148.576 227.322 148.779 227.106L151.787 223.954C153.088 222.583 153.431 222.032 153.431 221.227C153.429 220.98 153.377 220.735 153.278 220.508C153.179 220.281 153.035 220.077 152.855 219.907C152.674 219.738 152.461 219.607 152.229 219.522C151.996 219.437 151.749 219.4 151.502 219.413C150.996 219.393 150.501 219.557 150.106 219.874C149.712 220.192 149.446 220.64 149.357 221.138C149.344 221.232 149.297 221.317 149.224 221.376C149.15 221.435 149.057 221.464 148.963 221.457C148.91 221.461 148.857 221.454 148.807 221.436C148.757 221.417 148.712 221.389 148.674 221.351C148.636 221.314 148.606 221.269 148.587 221.219C148.568 221.17 148.56 221.117 148.563 221.063C148.564 220.987 148.57 220.911 148.583 220.835C148.729 219.776 149.763 218.653 151.488 218.653C153.113 218.653 154.293 219.719 154.293 221.184C154.293 222.167 153.829 222.922 152.287 224.521L149.761 227.154V227.179H154.185C154.237 227.177 154.289 227.185 154.338 227.204C154.387 227.222 154.432 227.25 154.47 227.287C154.507 227.323 154.537 227.366 154.558 227.414C154.579 227.462 154.589 227.514 154.589 227.566C154.589 227.619 154.579 227.67 154.558 227.718C154.537 227.766 154.507 227.81 154.47 227.846C154.432 227.882 154.387 227.91 154.338 227.929C154.289 227.947 154.237 227.956 154.185 227.953H148.962C148.703 227.95 148.531 227.81 148.531 227.582Z" fill="#575756"/>
<path d="M159.841 227.606V225.88H155.685C155.617 225.885 155.549 225.876 155.486 225.853C155.422 225.83 155.364 225.793 155.316 225.746C155.268 225.698 155.23 225.641 155.206 225.577C155.182 225.514 155.172 225.447 155.177 225.379C155.181 225.145 155.254 224.918 155.386 224.726C156.287 223.253 157.614 221.338 159.004 219.39C159.378 218.851 159.606 218.686 159.981 218.686C160.074 218.672 160.17 218.681 160.259 218.71C160.349 218.739 160.431 218.788 160.499 218.853C160.567 218.919 160.619 218.999 160.651 219.087C160.683 219.176 160.695 219.271 160.685 219.365V225.112H161.695C161.747 225.108 161.8 225.114 161.849 225.132C161.899 225.149 161.944 225.176 161.983 225.212C162.021 225.248 162.051 225.292 162.072 225.34C162.092 225.388 162.102 225.441 162.101 225.493C162.102 225.546 162.092 225.598 162.072 225.647C162.052 225.696 162.022 225.74 161.983 225.777C161.945 225.813 161.9 225.841 161.85 225.859C161.8 225.877 161.747 225.884 161.695 225.88H160.686V227.606C160.69 227.663 160.683 227.722 160.663 227.776C160.644 227.831 160.614 227.881 160.574 227.924C160.534 227.966 160.486 228 160.433 228.023C160.38 228.046 160.323 228.058 160.264 228.058C160.206 228.058 160.149 228.046 160.096 228.023C160.042 228 159.995 227.966 159.955 227.924C159.915 227.881 159.885 227.831 159.866 227.776C159.846 227.722 159.838 227.663 159.843 227.606H159.841ZM159.841 219.566H159.829C158.173 221.868 156.985 223.582 156.065 225.086V225.111H159.841V219.566Z" fill="#575756"/>
<path d="M149.451 261.22C149.343 261.026 149.286 260.808 149.287 260.586C149.282 260.531 149.289 260.477 149.307 260.425C149.325 260.374 149.354 260.327 149.392 260.288C149.43 260.249 149.476 260.218 149.527 260.199C149.577 260.179 149.632 260.17 149.686 260.173C149.889 260.173 150.005 260.287 150.093 260.56C150.346 261.436 151.139 262.032 152.364 262.032C153.691 262.032 154.611 261.239 154.617 260.16C154.624 258.962 153.722 258.276 152.263 258.276H151.47C151.419 258.281 151.368 258.275 151.32 258.258C151.271 258.242 151.227 258.215 151.19 258.181C151.153 258.146 151.124 258.104 151.104 258.057C151.084 258.01 151.075 257.959 151.076 257.908C151.075 257.857 151.084 257.806 151.103 257.759C151.123 257.711 151.152 257.669 151.189 257.633C151.226 257.598 151.271 257.571 151.319 257.554C151.367 257.537 151.419 257.53 151.47 257.534H152.225C153.45 257.534 154.294 256.811 154.294 255.795C154.294 254.806 153.57 254.108 152.333 254.108C151.241 254.108 150.53 254.66 150.27 255.573C150.181 255.84 150.105 255.954 149.87 255.954C149.817 255.959 149.763 255.951 149.712 255.932C149.662 255.913 149.617 255.883 149.579 255.844C149.542 255.805 149.514 255.758 149.498 255.707C149.481 255.656 149.476 255.602 149.483 255.548C149.484 255.328 149.536 255.111 149.636 254.914C150.048 253.949 151.051 253.347 152.333 253.347C154.078 253.347 155.17 254.381 155.17 255.694C155.17 256.83 154.39 257.623 153.215 257.858V257.883C154.579 257.991 155.499 258.834 155.499 260.135C155.499 261.689 154.153 262.793 152.364 262.793C150.961 262.793 149.914 262.21 149.451 261.22Z" fill="#575756"/>
<path d="M159.166 262.298V254.436H159.146L157.204 255.736C157.122 255.802 157.019 255.838 156.913 255.838C156.865 255.84 156.818 255.831 156.774 255.814C156.73 255.796 156.69 255.769 156.657 255.735C156.624 255.701 156.599 255.66 156.582 255.616C156.566 255.571 156.56 255.523 156.563 255.476C156.564 255.395 156.586 255.315 156.629 255.246C156.671 255.176 156.732 255.12 156.805 255.083L158.975 253.604C159.129 253.46 159.331 253.378 159.542 253.376C159.605 253.371 159.668 253.381 159.728 253.403C159.787 253.426 159.84 253.461 159.884 253.506C159.929 253.552 159.962 253.606 159.983 253.666C160.004 253.725 160.011 253.789 160.005 253.852V262.298C160.01 262.355 160.002 262.413 159.983 262.468C159.964 262.523 159.934 262.573 159.895 262.615C159.855 262.658 159.807 262.692 159.754 262.715C159.701 262.738 159.644 262.75 159.586 262.75C159.528 262.75 159.471 262.738 159.418 262.715C159.365 262.692 159.317 262.658 159.278 262.615C159.239 262.573 159.208 262.523 159.189 262.468C159.17 262.413 159.163 262.355 159.167 262.298H159.166Z" fill="#575756"/>
<path d="M182.341 158.214V150.352H182.322L180.38 151.653C180.297 151.719 180.195 151.754 180.089 151.754C180.041 151.756 179.994 151.748 179.95 151.73C179.906 151.713 179.866 151.686 179.833 151.652C179.8 151.617 179.774 151.577 179.758 151.532C179.742 151.487 179.736 151.44 179.739 151.392C179.74 151.311 179.762 151.231 179.805 151.162C179.847 151.093 179.908 151.036 179.981 150.999L182.151 149.521C182.304 149.377 182.506 149.295 182.716 149.293C182.779 149.288 182.842 149.297 182.901 149.32C182.961 149.342 183.014 149.377 183.058 149.423C183.102 149.468 183.136 149.522 183.157 149.582C183.178 149.642 183.185 149.705 183.179 149.768V158.213C183.184 158.27 183.176 158.328 183.157 158.383C183.138 158.438 183.108 158.488 183.069 158.53C183.029 158.573 182.982 158.607 182.928 158.63C182.875 158.653 182.818 158.665 182.76 158.665C182.702 158.665 182.645 158.653 182.592 158.63C182.539 158.607 182.491 158.573 182.452 158.53C182.413 158.488 182.382 158.438 182.363 158.383C182.344 158.328 182.337 158.27 182.341 158.213V158.214Z" fill="#575756"/>
<path d="M187.821 158.214V150.352H187.803L185.861 151.653C185.778 151.719 185.675 151.754 185.569 151.754C185.521 151.756 185.474 151.748 185.43 151.73C185.386 151.712 185.346 151.686 185.313 151.651C185.28 151.617 185.255 151.577 185.239 151.532C185.223 151.487 185.216 151.44 185.22 151.392C185.22 151.311 185.243 151.231 185.285 151.162C185.328 151.093 185.388 151.036 185.461 150.999L187.631 149.521C187.784 149.377 187.986 149.296 188.196 149.293C188.259 149.288 188.322 149.297 188.382 149.32C188.441 149.342 188.494 149.377 188.538 149.423C188.583 149.468 188.616 149.522 188.637 149.582C188.658 149.642 188.666 149.705 188.659 149.768V158.213C188.664 158.27 188.656 158.328 188.637 158.383C188.618 158.438 188.588 158.488 188.549 158.53C188.509 158.573 188.462 158.607 188.409 158.63C188.356 158.653 188.298 158.665 188.24 158.665C188.182 158.665 188.125 158.653 188.072 158.63C188.019 158.607 187.971 158.573 187.932 158.53C187.893 158.488 187.863 158.438 187.844 158.383C187.825 158.328 187.817 158.27 187.821 158.213V158.214Z" fill="#575756"/>
<path d="M181.267 192.91V185.048H181.248L179.306 186.348C179.223 186.414 179.12 186.45 179.014 186.449C178.967 186.451 178.92 186.443 178.875 186.425C178.831 186.408 178.792 186.381 178.759 186.347C178.726 186.313 178.7 186.272 178.684 186.227C178.668 186.183 178.661 186.135 178.665 186.088C178.665 186.006 178.688 185.927 178.73 185.857C178.773 185.788 178.834 185.732 178.906 185.695L181.077 184.216C181.23 184.072 181.431 183.991 181.642 183.988C181.705 183.983 181.768 183.993 181.827 184.015C181.887 184.037 181.94 184.073 181.984 184.118C182.028 184.163 182.062 184.218 182.083 184.278C182.104 184.337 182.111 184.401 182.105 184.464V192.908C182.109 192.966 182.102 193.023 182.083 193.078C182.064 193.133 182.034 193.183 181.994 193.225C181.955 193.268 181.907 193.302 181.854 193.325C181.801 193.348 181.744 193.36 181.686 193.36C181.628 193.36 181.571 193.348 181.518 193.325C181.465 193.302 181.417 193.268 181.378 193.225C181.338 193.183 181.308 193.133 181.289 193.078C181.27 193.023 181.263 192.966 181.267 192.908V192.91Z" fill="#575756"/>
<path d="M184.191 190.765C184.202 190.196 184.413 189.648 184.786 189.218C185.159 188.788 185.672 188.502 186.235 188.412V188.393C185.188 188.107 184.521 187.327 184.521 186.344C184.521 184.961 185.753 183.952 187.453 183.952C189.16 183.952 190.379 184.961 190.379 186.344C190.379 187.314 189.713 188.094 188.672 188.393V188.412C189.234 188.503 189.746 188.789 190.119 189.219C190.493 189.649 190.704 190.196 190.715 190.765C190.715 192.301 189.382 193.398 187.453 193.398C185.53 193.398 184.191 192.294 184.191 190.765ZM189.833 190.715C189.833 189.617 188.862 188.838 187.453 188.838C186.051 188.838 185.074 189.617 185.074 190.715C185.074 191.819 186.038 192.637 187.453 192.637C188.868 192.637 189.833 191.819 189.833 190.715ZM189.522 186.413C189.522 185.43 188.691 184.707 187.453 184.707C186.222 184.707 185.385 185.43 185.385 186.413C185.385 187.378 186.241 188.063 187.453 188.063C188.659 188.063 189.522 187.378 189.522 186.413Z" fill="#575756"/>
<path d="M178.125 227.581C178.125 227.404 178.169 227.32 178.373 227.105L181.381 223.953C182.682 222.582 183.024 222.031 183.024 221.226C183.023 220.978 182.971 220.734 182.872 220.507C182.773 220.28 182.629 220.076 182.448 219.906C182.268 219.737 182.055 219.605 181.823 219.52C181.59 219.435 181.343 219.398 181.096 219.412C180.59 219.392 180.094 219.556 179.7 219.873C179.306 220.19 179.039 220.639 178.95 221.137C178.938 221.23 178.89 221.316 178.817 221.375C178.744 221.434 178.651 221.463 178.557 221.456C178.504 221.46 178.451 221.453 178.401 221.435C178.351 221.416 178.305 221.388 178.267 221.35C178.229 221.313 178.2 221.268 178.181 221.218C178.162 221.169 178.154 221.115 178.157 221.062C178.158 220.986 178.164 220.91 178.176 220.834C178.322 219.775 179.356 218.652 181.081 218.652C182.706 218.652 183.886 219.718 183.886 221.183C183.886 222.166 183.423 222.921 181.881 224.52L179.355 227.153V227.178H183.778C183.83 227.176 183.882 227.184 183.931 227.203C183.98 227.221 184.025 227.249 184.063 227.285C184.1 227.322 184.131 227.365 184.151 227.413C184.172 227.461 184.182 227.513 184.182 227.565C184.182 227.617 184.172 227.669 184.151 227.717C184.131 227.765 184.1 227.809 184.063 227.845C184.025 227.881 183.98 227.909 183.931 227.928C183.882 227.946 183.83 227.954 183.778 227.952H178.555C178.296 227.949 178.125 227.809 178.125 227.581Z" fill="#575756"/>
<path d="M185.53 226.269C185.469 226.12 185.436 225.96 185.435 225.799C185.431 225.745 185.438 225.69 185.458 225.639C185.477 225.588 185.506 225.542 185.545 225.503C185.583 225.465 185.63 225.435 185.681 225.416C185.732 225.397 185.787 225.389 185.841 225.393C186.063 225.393 186.171 225.499 186.253 225.774C186.389 226.243 186.681 226.652 187.08 226.935C187.479 227.217 187.962 227.356 188.45 227.328C188.755 227.333 189.058 227.277 189.341 227.165C189.625 227.052 189.883 226.884 190.101 226.671C190.319 226.457 190.493 226.203 190.612 225.922C190.731 225.641 190.793 225.34 190.795 225.035C190.797 224.73 190.738 224.427 190.622 224.145C190.506 223.863 190.335 223.607 190.119 223.391C189.903 223.175 189.647 223.005 189.365 222.889C189.082 222.773 188.78 222.714 188.475 222.716C188.122 222.71 187.772 222.783 187.45 222.929C187.129 223.075 186.844 223.29 186.615 223.559C186.298 223.902 186.222 223.953 185.994 223.953C185.934 223.956 185.875 223.946 185.82 223.923C185.765 223.901 185.715 223.867 185.675 223.823C185.634 223.78 185.604 223.728 185.586 223.671C185.567 223.615 185.561 223.555 185.568 223.496V223.394L185.955 219.461C186 218.986 186.222 218.795 186.723 218.795H190.734C190.786 218.793 190.838 218.801 190.887 218.82C190.936 218.838 190.981 218.866 191.019 218.902C191.056 218.939 191.087 218.982 191.107 219.03C191.128 219.078 191.138 219.13 191.138 219.182C191.138 219.235 191.128 219.286 191.107 219.334C191.087 219.382 191.056 219.426 191.019 219.462C190.981 219.498 190.936 219.526 190.887 219.545C190.838 219.563 190.786 219.572 190.734 219.569H186.736L186.387 222.969H186.406C186.67 222.64 187.008 222.377 187.393 222.203C187.778 222.029 188.199 221.948 188.621 221.967C189.021 221.952 189.42 222.02 189.794 222.166C190.167 222.312 190.506 222.533 190.79 222.816C191.074 223.098 191.296 223.436 191.444 223.809C191.592 224.181 191.661 224.58 191.648 224.98C191.648 226.801 190.302 228.097 188.431 228.097C187.034 228.096 185.911 227.36 185.53 226.269Z" fill="#575756"/>
<path d="M185.083 262.298V254.436H185.064L183.122 255.736C183.039 255.802 182.936 255.838 182.83 255.838C182.783 255.84 182.736 255.831 182.692 255.814C182.648 255.796 182.608 255.769 182.575 255.735C182.542 255.701 182.516 255.66 182.5 255.616C182.484 255.571 182.478 255.523 182.481 255.476C182.482 255.395 182.504 255.315 182.547 255.246C182.589 255.176 182.65 255.12 182.722 255.083L184.893 253.604C185.046 253.46 185.247 253.379 185.458 253.376C185.521 253.371 185.584 253.381 185.643 253.403C185.702 253.426 185.756 253.461 185.8 253.506C185.844 253.552 185.878 253.606 185.899 253.666C185.92 253.725 185.927 253.789 185.921 253.852V262.298C185.925 262.355 185.917 262.413 185.898 262.467C185.879 262.521 185.848 262.571 185.809 262.613C185.77 262.656 185.722 262.689 185.669 262.712C185.617 262.735 185.56 262.747 185.502 262.747C185.444 262.747 185.387 262.735 185.334 262.712C185.282 262.689 185.234 262.656 185.195 262.613C185.155 262.571 185.125 262.521 185.106 262.467C185.087 262.413 185.079 262.355 185.083 262.298Z" fill="#E0E0E0"/>
<path d="M213.298 158.214V150.352H213.279L211.337 151.653C211.254 151.719 211.151 151.754 211.046 151.754C210.998 151.756 210.951 151.748 210.907 151.73C210.863 151.713 210.823 151.686 210.79 151.652C210.757 151.617 210.731 151.577 210.715 151.532C210.699 151.487 210.693 151.44 210.696 151.392C210.697 151.311 210.719 151.231 210.762 151.162C210.804 151.093 210.865 151.036 210.938 150.999L213.108 149.521C213.261 149.377 213.462 149.296 213.673 149.293C213.736 149.288 213.799 149.297 213.858 149.32C213.918 149.342 213.971 149.377 214.015 149.423C214.059 149.468 214.093 149.522 214.114 149.582C214.135 149.642 214.142 149.705 214.136 149.768V158.213C214.14 158.27 214.132 158.328 214.113 158.382C214.094 158.436 214.064 158.486 214.024 158.528C213.985 158.571 213.937 158.604 213.885 158.627C213.832 158.65 213.775 158.662 213.717 158.662C213.659 158.662 213.602 158.65 213.55 158.627C213.497 158.604 213.449 158.571 213.41 158.528C213.371 158.486 213.34 158.436 213.321 158.382C213.302 158.328 213.294 158.27 213.298 158.213V158.214Z" fill="#575756"/>
<path d="M216.379 158.189C216.379 158.012 216.424 157.929 216.627 157.713L219.635 154.561C220.936 153.191 221.279 152.639 221.279 151.834C221.277 151.587 221.225 151.342 221.126 151.116C221.027 150.889 220.883 150.684 220.702 150.515C220.522 150.345 220.309 150.214 220.077 150.129C219.844 150.044 219.597 150.007 219.349 150.02C218.844 150.001 218.348 150.165 217.954 150.482C217.56 150.799 217.293 151.248 217.204 151.746C217.184 151.842 217.129 151.928 217.049 151.986C216.97 152.044 216.872 152.071 216.774 152.061C216.676 152.052 216.584 152.007 216.518 151.935C216.451 151.862 216.413 151.768 216.411 151.669C216.412 151.593 216.418 151.517 216.43 151.441C216.576 150.382 217.61 149.259 219.335 149.259C220.96 149.259 222.14 150.325 222.14 151.79C222.14 152.773 221.677 153.528 220.135 155.127L217.609 157.76V157.785H222.033C222.085 157.783 222.137 157.791 222.186 157.81C222.235 157.828 222.28 157.856 222.317 157.892C222.355 157.929 222.385 157.972 222.406 158.02C222.426 158.068 222.437 158.12 222.437 158.172C222.437 158.224 222.426 158.276 222.406 158.324C222.385 158.372 222.355 158.416 222.317 158.452C222.28 158.488 222.235 158.516 222.186 158.535C222.137 158.553 222.085 158.562 222.033 158.559H216.81C216.55 158.557 216.379 158.417 216.379 158.189Z" fill="#575756"/>
<path d="M213.091 192.91V185.048H213.072L211.13 186.348C211.047 186.414 210.944 186.45 210.838 186.449C210.791 186.451 210.743 186.443 210.699 186.425C210.655 186.408 210.616 186.381 210.583 186.347C210.55 186.313 210.524 186.272 210.508 186.227C210.492 186.183 210.486 186.135 210.489 186.088C210.49 186.006 210.512 185.927 210.555 185.857C210.597 185.788 210.658 185.732 210.73 185.695L212.901 184.216C213.054 184.072 213.255 183.991 213.465 183.988C213.529 183.983 213.592 183.993 213.651 184.015C213.71 184.037 213.764 184.073 213.808 184.118C213.852 184.163 213.886 184.218 213.907 184.278C213.928 184.337 213.935 184.401 213.929 184.464V192.908C213.933 192.966 213.926 193.023 213.907 193.078C213.888 193.133 213.858 193.183 213.818 193.225C213.779 193.268 213.731 193.302 213.678 193.325C213.625 193.348 213.568 193.36 213.51 193.36C213.452 193.36 213.395 193.348 213.342 193.325C213.289 193.302 213.241 193.268 213.202 193.225C213.162 193.183 213.132 193.133 213.113 193.078C213.094 193.023 213.087 192.966 213.091 192.908V192.91Z" fill="#575756"/>
<path d="M216.345 191.8C216.267 191.66 216.223 191.503 216.218 191.343C216.215 191.292 216.224 191.241 216.242 191.193C216.261 191.146 216.29 191.103 216.326 191.067C216.363 191.032 216.407 191.005 216.455 190.988C216.503 190.971 216.554 190.964 216.605 190.968C216.802 190.968 216.924 191.064 217.075 191.362C217.24 191.758 217.524 192.094 217.887 192.322C218.251 192.551 218.677 192.661 219.106 192.637C220.756 192.637 221.676 191.14 221.733 188.628V188.342H221.714C221.5 188.876 221.126 189.331 220.643 189.645C220.16 189.958 219.592 190.115 219.017 190.093C218.617 190.106 218.219 190.037 217.847 189.89C217.474 189.744 217.135 189.524 216.851 189.242C216.567 188.961 216.342 188.625 216.192 188.254C216.042 187.883 215.969 187.486 215.977 187.086C215.983 186.378 216.226 185.692 216.668 185.139C217.11 184.586 217.725 184.197 218.415 184.035C219.104 183.873 219.828 183.948 220.471 184.247C221.113 184.546 221.636 185.052 221.955 185.684C222.402 186.547 222.614 187.511 222.571 188.482C222.571 191.546 221.283 193.398 219.099 193.398C217.653 193.398 216.694 192.605 216.345 191.8ZM221.492 187.105C221.499 186.795 221.444 186.487 221.33 186.199C221.216 185.911 221.045 185.649 220.828 185.428C220.611 185.206 220.352 185.031 220.066 184.912C219.78 184.792 219.473 184.731 219.163 184.732C218.857 184.73 218.554 184.788 218.272 184.905C217.989 185.021 217.732 185.193 217.517 185.41C217.302 185.627 217.132 185.884 217.018 186.168C216.904 186.451 216.848 186.755 216.853 187.06C216.847 187.363 216.903 187.663 217.017 187.943C217.131 188.223 217.301 188.477 217.516 188.689C217.732 188.901 217.988 189.067 218.27 189.177C218.552 189.287 218.853 189.338 219.156 189.327C219.456 189.337 219.755 189.287 220.035 189.18C220.315 189.074 220.572 188.912 220.789 188.705C221.007 188.498 221.181 188.25 221.302 187.976C221.422 187.701 221.487 187.405 221.492 187.105Z" fill="#575756"/>
<path d="M209.852 227.582C209.852 227.405 209.896 227.322 210.1 227.106L213.108 223.954C214.409 222.583 214.751 222.032 214.751 221.227C214.75 220.98 214.698 220.735 214.598 220.508C214.499 220.281 214.355 220.077 214.175 219.907C213.995 219.738 213.782 219.607 213.549 219.522C213.317 219.437 213.069 219.4 212.822 219.413C212.316 219.393 211.821 219.557 211.427 219.874C211.033 220.192 210.766 220.64 210.677 221.138C210.665 221.232 210.617 221.317 210.544 221.376C210.471 221.435 210.378 221.464 210.284 221.457C210.231 221.461 210.177 221.454 210.127 221.436C210.077 221.417 210.032 221.389 209.994 221.351C209.956 221.314 209.927 221.269 209.908 221.219C209.889 221.17 209.881 221.117 209.884 221.063C209.884 220.987 209.891 220.911 209.903 220.835C210.049 219.776 211.083 218.653 212.808 218.653C214.433 218.653 215.613 219.719 215.613 221.184C215.613 222.167 215.15 222.922 213.607 224.521L211.082 227.154V227.179H215.505C215.558 227.177 215.61 227.185 215.659 227.204C215.708 227.222 215.752 227.25 215.79 227.287C215.828 227.323 215.858 227.366 215.878 227.414C215.899 227.462 215.909 227.514 215.909 227.566C215.909 227.619 215.899 227.67 215.878 227.718C215.858 227.766 215.828 227.81 215.79 227.846C215.752 227.882 215.708 227.91 215.659 227.929C215.61 227.947 215.558 227.956 215.505 227.953H210.282C210.023 227.95 209.852 227.81 209.852 227.582Z" fill="#575756"/>
<path d="M217.601 226.362C217.156 225.499 216.944 224.535 216.986 223.564C216.986 220.494 218.293 218.648 220.464 218.648C221.015 218.621 221.562 218.753 222.04 219.029C222.519 219.305 222.907 219.712 223.161 220.202C223.248 220.346 223.296 220.51 223.3 220.678C223.3 220.729 223.29 220.78 223.27 220.827C223.249 220.874 223.219 220.917 223.182 220.952C223.144 220.987 223.1 221.014 223.051 221.032C223.003 221.049 222.951 221.056 222.9 221.052C222.71 221.052 222.596 220.951 222.437 220.659C222.268 220.279 221.989 219.957 221.637 219.736C221.284 219.514 220.873 219.403 220.457 219.416C218.813 219.416 217.861 220.919 217.823 223.532V223.691H217.842C218.058 223.159 218.433 222.707 218.916 222.395C219.399 222.084 219.966 221.93 220.54 221.953C220.94 221.942 221.339 222.012 221.712 222.16C222.084 222.307 222.423 222.529 222.707 222.811C222.991 223.094 223.215 223.431 223.365 223.803C223.515 224.174 223.588 224.572 223.579 224.973C223.571 225.68 223.326 226.364 222.883 226.915C222.44 227.466 221.824 227.852 221.136 228.013C220.447 228.173 219.724 228.097 219.083 227.798C218.442 227.499 217.92 226.993 217.601 226.362ZM222.697 225.005C222.706 224.701 222.652 224.4 222.539 224.118C222.426 223.836 222.257 223.58 222.042 223.366C221.827 223.153 221.57 222.985 221.288 222.874C221.005 222.763 220.703 222.711 220.4 222.721C220.1 222.71 219.801 222.759 219.521 222.866C219.241 222.972 218.985 223.134 218.768 223.341C218.551 223.548 218.377 223.796 218.257 224.071C218.138 224.345 218.074 224.642 218.071 224.941C218.063 225.251 218.118 225.559 218.232 225.847C218.345 226.135 218.515 226.398 218.731 226.619C218.948 226.841 219.206 227.017 219.492 227.138C219.777 227.258 220.084 227.32 220.394 227.32C220.698 227.322 220.999 227.263 221.28 227.147C221.561 227.031 221.817 226.861 222.031 226.645C222.246 226.43 222.415 226.173 222.529 225.892C222.644 225.61 222.701 225.309 222.697 225.005Z" fill="#575756"/>
<path d="M243.24 158.214V150.352H243.221L241.279 151.653C241.196 151.719 241.093 151.754 240.987 151.754C240.94 151.756 240.892 151.748 240.848 151.73C240.804 151.713 240.764 151.686 240.731 151.652C240.698 151.617 240.673 151.577 240.657 151.532C240.641 151.487 240.634 151.44 240.638 151.392C240.638 151.311 240.661 151.231 240.703 151.162C240.746 151.093 240.807 151.036 240.879 150.999L243.049 149.521C243.202 149.377 243.404 149.295 243.614 149.293C243.677 149.288 243.741 149.297 243.8 149.32C243.859 149.342 243.913 149.377 243.957 149.423C244.001 149.468 244.035 149.522 244.056 149.582C244.076 149.642 244.084 149.705 244.078 149.768V158.213C244.082 158.27 244.075 158.328 244.055 158.383C244.036 158.438 244.006 158.488 243.967 158.53C243.928 158.573 243.88 158.607 243.827 158.63C243.774 158.653 243.717 158.665 243.659 158.665C243.601 158.665 243.544 158.653 243.49 158.63C243.437 158.607 243.39 158.573 243.35 158.53C243.311 158.488 243.281 158.438 243.262 158.383C243.243 158.328 243.235 158.27 243.24 158.213V158.214Z" fill="#575756"/>
<path d="M246.456 157.129C246.347 156.936 246.29 156.717 246.291 156.495C246.286 156.441 246.293 156.386 246.311 156.335C246.329 156.283 246.358 156.237 246.396 156.198C246.434 156.158 246.48 156.128 246.531 156.108C246.582 156.088 246.636 156.08 246.69 156.083C246.893 156.083 247.008 156.197 247.096 156.47C247.35 157.345 248.144 157.941 249.368 157.941C250.695 157.941 251.615 157.148 251.621 156.07C251.628 154.871 250.727 154.186 249.267 154.186H248.473C248.423 154.19 248.372 154.184 248.324 154.168C248.275 154.151 248.231 154.125 248.194 154.09C248.157 154.055 248.128 154.013 248.108 153.966C248.088 153.919 248.079 153.869 248.08 153.818C248.079 153.767 248.088 153.716 248.108 153.668C248.127 153.621 248.156 153.578 248.193 153.543C248.23 153.508 248.275 153.48 248.323 153.463C248.371 153.446 248.422 153.439 248.473 153.443H249.229C250.453 153.443 251.298 152.72 251.298 151.705C251.298 150.715 250.574 150.018 249.337 150.018C248.245 150.018 247.534 150.569 247.274 151.483C247.185 151.75 247.109 151.864 246.874 151.864C246.821 151.868 246.767 151.861 246.716 151.842C246.666 151.823 246.62 151.793 246.583 151.754C246.546 151.715 246.518 151.668 246.502 151.617C246.485 151.565 246.48 151.511 246.487 151.458C246.488 151.237 246.54 151.02 246.639 150.823C247.052 149.859 248.055 149.256 249.337 149.256C251.082 149.256 252.173 150.29 252.173 151.604C252.173 152.739 251.394 153.532 250.219 153.767V153.793C251.583 153.899 252.504 154.744 252.504 156.045C252.504 157.599 251.157 158.703 249.368 158.703C247.966 158.703 246.919 158.119 246.456 157.129Z" fill="#575756"/>
<path d="M239.871 192.884C239.871 192.707 239.915 192.624 240.119 192.409L243.127 189.257C244.428 187.887 244.771 187.335 244.771 186.53C244.769 186.282 244.717 186.038 244.618 185.811C244.519 185.584 244.375 185.38 244.194 185.21C244.014 185.041 243.801 184.909 243.569 184.824C243.336 184.739 243.089 184.702 242.842 184.716C242.336 184.696 241.84 184.86 241.446 185.177C241.052 185.494 240.786 185.943 240.697 186.441C240.676 186.538 240.621 186.623 240.541 186.681C240.462 186.739 240.364 186.766 240.266 186.757C240.168 186.747 240.077 186.702 240.01 186.63C239.943 186.558 239.905 186.463 239.903 186.365C239.904 186.288 239.91 186.212 239.922 186.137C240.068 185.077 241.103 183.954 242.827 183.954C244.452 183.954 245.632 185.02 245.632 186.486C245.632 187.469 245.169 188.224 243.627 189.823L241.101 192.455V192.481H245.526C245.578 192.478 245.631 192.486 245.68 192.504C245.729 192.522 245.774 192.551 245.813 192.587C245.851 192.623 245.881 192.666 245.902 192.715C245.923 192.763 245.933 192.815 245.933 192.868C245.933 192.92 245.923 192.972 245.902 193.021C245.881 193.069 245.851 193.113 245.813 193.149C245.774 193.185 245.729 193.213 245.68 193.231C245.631 193.249 245.578 193.257 245.526 193.255H240.303C240.043 193.252 239.871 193.113 239.871 192.884Z" fill="#575756"/>
<path d="M246.988 188.672C246.988 185.798 248.238 183.952 250.307 183.952C252.383 183.952 253.62 185.793 253.62 188.665C253.62 191.558 252.389 193.398 250.307 193.398C248.226 193.398 246.988 191.565 246.988 188.672ZM252.751 188.672C252.751 186.267 251.843 184.719 250.306 184.719C248.777 184.719 247.862 186.28 247.862 188.665C247.862 191.095 248.757 192.637 250.306 192.637C251.856 192.637 252.752 191.095 252.752 188.672H252.751Z" fill="#575756"/>
<path d="M240.277 227.582C240.277 227.405 240.322 227.322 240.525 227.106L243.533 223.954C244.834 222.583 245.177 222.032 245.177 221.227C245.175 220.98 245.123 220.735 245.024 220.508C244.925 220.281 244.781 220.077 244.601 219.907C244.42 219.738 244.207 219.607 243.975 219.522C243.742 219.437 243.495 219.4 243.248 219.413C242.742 219.393 242.247 219.557 241.852 219.874C241.458 220.192 241.192 220.64 241.102 221.138C241.09 221.232 241.043 221.317 240.969 221.376C240.896 221.435 240.803 221.464 240.709 221.457C240.656 221.461 240.603 221.454 240.553 221.436C240.503 221.417 240.457 221.389 240.42 221.351C240.382 221.314 240.352 221.269 240.333 221.219C240.314 221.17 240.306 221.117 240.31 221.063C240.31 220.987 240.316 220.911 240.328 220.835C240.474 219.776 241.509 218.653 243.233 218.653C244.858 218.653 246.038 219.719 246.038 221.184C246.038 222.167 245.575 222.922 244.033 224.521L241.507 227.154V227.179H245.93C245.983 227.177 246.035 227.185 246.084 227.204C246.133 227.222 246.177 227.25 246.215 227.287C246.253 227.323 246.283 227.366 246.303 227.414C246.324 227.462 246.334 227.514 246.334 227.566C246.334 227.619 246.324 227.67 246.303 227.718C246.283 227.766 246.253 227.81 246.215 227.846C246.177 227.882 246.133 227.91 246.084 227.929C246.035 227.947 245.983 227.956 245.93 227.953H240.707C240.449 227.95 240.277 227.81 240.277 227.582Z" fill="#575756"/>
<path d="M248.269 227.697C248.269 227.598 248.295 227.502 248.345 227.418L252.368 219.595V219.57H247.641C247.586 219.576 247.531 219.571 247.479 219.554C247.426 219.538 247.378 219.51 247.337 219.474C247.296 219.437 247.263 219.392 247.241 219.342C247.219 219.292 247.207 219.238 247.207 219.183C247.207 219.128 247.219 219.074 247.241 219.024C247.263 218.974 247.296 218.929 247.337 218.892C247.378 218.856 247.426 218.828 247.479 218.812C247.531 218.795 247.586 218.79 247.641 218.796H252.724C252.797 218.787 252.871 218.795 252.941 218.818C253.011 218.842 253.075 218.88 253.129 218.931C253.182 218.982 253.223 219.044 253.25 219.113C253.276 219.182 253.288 219.255 253.282 219.329C253.267 219.526 253.201 219.716 253.092 219.881L249.068 227.805C249.037 227.882 248.982 227.948 248.912 227.994C248.841 228.039 248.759 228.062 248.675 228.058C248.624 228.064 248.572 228.06 248.523 228.044C248.474 228.029 248.429 228.003 248.39 227.969C248.352 227.935 248.321 227.893 248.3 227.846C248.279 227.799 248.269 227.748 248.269 227.697Z" fill="#575756"/>
<path d="M243.725 261.217C243.617 261.024 243.56 260.805 243.56 260.583C243.555 260.529 243.562 260.474 243.581 260.423C243.599 260.372 243.628 260.325 243.666 260.286C243.704 260.246 243.75 260.216 243.8 260.196C243.851 260.176 243.906 260.168 243.96 260.171C244.163 260.171 244.279 260.285 244.366 260.558C244.62 261.433 245.413 262.03 246.638 262.03C247.965 262.03 248.885 261.236 248.891 260.158C248.897 258.959 247.996 258.274 246.537 258.274H245.743C245.693 258.279 245.642 258.272 245.593 258.256C245.545 258.24 245.501 258.213 245.464 258.178C245.427 258.143 245.397 258.101 245.378 258.054C245.358 258.007 245.348 257.957 245.35 257.906C245.348 257.855 245.358 257.804 245.377 257.756C245.397 257.709 245.426 257.666 245.463 257.631C245.5 257.596 245.544 257.569 245.593 257.551C245.641 257.534 245.692 257.528 245.743 257.532H246.498C247.723 257.532 248.567 256.808 248.567 255.793C248.567 254.804 247.844 254.106 246.606 254.106C245.515 254.106 244.804 254.658 244.544 255.571C244.455 255.838 244.379 255.952 244.144 255.952C244.091 255.957 244.037 255.949 243.986 255.93C243.936 255.911 243.89 255.881 243.853 255.842C243.816 255.803 243.788 255.756 243.771 255.705C243.755 255.654 243.75 255.599 243.757 255.546C243.757 255.325 243.809 255.108 243.909 254.912C244.322 253.947 245.324 253.344 246.606 253.344C248.351 253.344 249.443 254.379 249.443 255.692C249.443 256.828 248.664 257.62 247.488 257.855V257.88C248.853 257.988 249.773 258.832 249.773 260.133C249.773 261.687 248.427 262.791 246.638 262.791C245.236 262.791 244.189 262.207 243.725 261.217Z" fill="#DADADA"/>
<path d="M61.8585 158.238C61.8584 158.14 61.8848 158.044 61.9347 157.959L65.9581 150.137V150.112H61.2305C61.1759 150.118 61.1207 150.112 61.0684 150.096C61.0161 150.079 60.9679 150.052 60.927 150.015C60.8861 149.979 60.8533 149.934 60.8309 149.884C60.8084 149.834 60.7969 149.779 60.7969 149.725C60.7969 149.67 60.8084 149.616 60.8309 149.565C60.8533 149.515 60.8861 149.471 60.927 149.434C60.9679 149.398 61.0161 149.37 61.0684 149.353C61.1207 149.337 61.1759 149.331 61.2305 149.338H66.3138C66.387 149.329 66.4613 149.337 66.5312 149.36C66.6012 149.383 66.6651 149.422 66.7184 149.473C66.7717 149.524 66.8132 149.586 66.8397 149.654C66.8663 149.723 66.8774 149.797 66.8721 149.871C66.8569 150.068 66.7912 150.258 66.6815 150.422L62.6581 158.346C62.6266 158.424 62.5719 158.49 62.5015 158.535C62.431 158.581 62.3483 158.603 62.2645 158.6C62.2135 158.606 62.1618 158.601 62.1127 158.586C62.0637 158.57 62.0185 158.545 61.9802 158.51C61.9418 158.476 61.9111 158.434 61.8901 158.387C61.8692 158.34 61.8584 158.29 61.8585 158.238Z" fill="#575756"/>
<path d="M60.4156 192.845V184.984H60.3968L58.4547 186.285C58.3717 186.351 58.2688 186.387 58.1628 186.387C58.1153 186.388 58.068 186.38 58.0239 186.363C57.9798 186.345 57.9399 186.318 57.907 186.284C57.874 186.25 57.8486 186.209 57.8325 186.164C57.8164 186.12 57.8099 186.072 57.8135 186.025C57.8137 185.944 57.8364 185.864 57.879 185.794C57.9215 185.725 57.9823 185.669 58.0547 185.631L60.2253 184.153C60.3783 184.009 60.5798 183.928 60.79 183.925C60.8532 183.92 60.9165 183.93 60.9757 183.952C61.0349 183.974 61.0884 184.01 61.1326 184.055C61.1767 184.1 61.2104 184.155 61.2313 184.215C61.2522 184.274 61.2597 184.338 61.2534 184.401V192.845C61.2578 192.902 61.2503 192.96 61.2313 193.015C61.2122 193.07 61.1821 193.12 61.1428 193.162C61.1034 193.205 61.0557 193.239 61.0027 193.262C60.9496 193.285 60.8924 193.297 60.8345 193.297C60.7766 193.297 60.7193 193.285 60.6663 193.262C60.6132 193.239 60.5655 193.205 60.5262 193.162C60.4868 193.12 60.4567 193.07 60.4377 193.015C60.4186 192.96 60.4111 192.902 60.4156 192.845Z" fill="#575756"/>
<path d="M67.7984 192.847V191.122H63.6418C63.5743 191.127 63.5065 191.118 63.4429 191.095C63.3793 191.072 63.3214 191.035 63.2732 190.987C63.2251 190.94 63.1877 190.882 63.1636 190.819C63.1396 190.756 63.1294 190.688 63.1338 190.621C63.1377 190.387 63.2106 190.159 63.3435 189.967C64.2448 188.495 65.5708 186.579 66.9609 184.632C67.3354 184.092 67.5632 183.927 67.938 183.927C68.0314 183.914 68.1266 183.922 68.2164 183.951C68.3062 183.98 68.3881 184.03 68.4561 184.095C68.524 184.16 68.5761 184.241 68.6084 184.329C68.6407 184.418 68.6524 184.513 68.6426 184.606V190.354H69.6516C69.7039 190.349 69.7567 190.356 69.8063 190.373C69.856 190.39 69.9015 190.418 69.9398 190.454C69.9782 190.49 70.0085 190.533 70.0289 190.582C70.0492 190.63 70.0591 190.682 70.0579 190.735C70.0592 190.788 70.0495 190.84 70.0293 190.889C70.0091 190.938 69.9789 190.982 69.9406 191.018C69.9023 191.055 69.8568 191.083 69.807 191.101C69.7573 191.119 69.7043 191.126 69.6516 191.122H68.6412V192.847C68.645 192.905 68.6368 192.963 68.6173 193.017C68.5978 193.072 68.5673 193.122 68.5277 193.164C68.4882 193.206 68.4404 193.24 68.3873 193.263C68.3342 193.286 68.277 193.297 68.2191 193.297C68.1613 193.297 68.104 193.286 68.0509 193.263C67.9979 193.24 67.95 193.206 67.9105 193.164C67.8709 193.122 67.8404 193.072 67.8209 193.017C67.8014 192.963 67.7933 192.905 67.797 192.847H67.7984ZM67.7984 184.808H67.7857C66.1295 187.11 64.9427 188.824 64.0226 190.328V190.353H67.7984V184.808Z" fill="#575756"/>
<path d="M58.2188 227.517C58.2188 227.34 58.263 227.256 58.4667 227.041L61.4752 223.889C62.776 222.518 63.1186 221.967 63.1186 221.162C63.1168 220.914 63.0648 220.67 62.9658 220.443C62.8667 220.216 62.7226 220.012 62.5423 219.842C62.3619 219.672 62.149 219.541 61.9164 219.456C61.6839 219.371 61.4365 219.334 61.1893 219.348C60.6837 219.328 60.1882 219.492 59.794 219.809C59.3999 220.126 59.1336 220.575 59.0445 221.073C59.0237 221.169 58.9684 221.254 58.889 221.312C58.8096 221.37 58.7118 221.397 58.6139 221.387C58.5161 221.378 58.4251 221.333 58.3582 221.261C58.2913 221.189 58.2531 221.095 58.251 220.997C58.2515 220.92 58.2579 220.844 58.2701 220.768C58.4161 219.709 59.4505 218.586 61.1751 218.586C62.7998 218.586 63.9802 219.652 63.9802 221.117C63.9802 222.101 63.5172 222.856 61.975 224.454L59.4491 227.087V227.113H63.8725C63.9247 227.11 63.9769 227.119 64.0258 227.137C64.0747 227.156 64.1194 227.184 64.1572 227.22C64.1949 227.256 64.225 227.299 64.2455 227.348C64.266 227.396 64.2766 227.447 64.2766 227.5C64.2766 227.552 64.266 227.604 64.2455 227.652C64.225 227.7 64.1949 227.743 64.1572 227.779C64.1194 227.816 64.0747 227.844 64.0258 227.862C63.9769 227.881 63.9247 227.889 63.8725 227.887H58.6495C58.3902 227.885 58.2188 227.745 58.2188 227.517Z" fill="#575756"/>
<path d="M67.853 227.542V219.68H67.8339L65.8918 220.98C65.809 221.046 65.706 221.082 65.5999 221.082C65.5525 221.084 65.5052 221.075 65.4612 221.058C65.4171 221.04 65.3773 221.013 65.3443 220.979C65.3114 220.945 65.286 220.904 65.2699 220.86C65.2539 220.815 65.2474 220.767 65.251 220.72C65.2512 220.639 65.2738 220.559 65.3164 220.49C65.3589 220.42 65.4198 220.364 65.4922 220.327L67.6624 218.848C67.8155 218.704 68.017 218.623 68.2271 218.62C68.2903 218.615 68.3537 218.625 68.4129 218.647C68.4721 218.67 68.5257 218.705 68.5698 218.75C68.614 218.795 68.6477 218.85 68.6685 218.91C68.6894 218.969 68.6969 219.033 68.6905 219.096V227.54C68.6946 227.597 68.6868 227.655 68.6676 227.709C68.6484 227.764 68.6183 227.814 68.579 227.856C68.5397 227.898 68.4921 227.932 68.4393 227.955C68.3864 227.977 68.3294 227.989 68.2718 227.989C68.2141 227.989 68.1571 227.977 68.1042 227.955C68.0514 227.932 68.0038 227.898 67.9645 227.856C67.9253 227.814 67.8951 227.764 67.8759 227.709C67.8567 227.655 67.8489 227.597 67.853 227.54V227.542Z" fill="#575756"/>
<path d="M57.1172 262.211C57.1172 262.034 57.1615 261.951 57.3652 261.735L60.3732 258.584C61.6741 257.213 62.0167 256.661 62.0167 255.857C62.0148 255.609 61.9628 255.365 61.8637 255.138C61.7646 254.911 61.6206 254.707 61.4403 254.537C61.26 254.368 61.0472 254.236 60.8147 254.151C60.5822 254.066 60.3349 254.029 60.0877 254.042C59.582 254.023 59.0864 254.187 58.6921 254.504C58.2978 254.821 58.0315 255.27 57.9423 255.768C57.9214 255.864 57.8661 255.949 57.7868 256.007C57.7075 256.065 57.6097 256.092 57.512 256.082C57.4142 256.073 57.3234 256.028 57.2565 255.956C57.1897 255.884 57.1516 255.79 57.1494 255.692C57.1498 255.616 57.1561 255.539 57.1682 255.464C57.3141 254.404 58.3486 253.281 60.0732 253.281C61.6978 253.281 62.8779 254.347 62.8779 255.812C62.8779 256.796 62.4149 257.551 60.8727 259.15L58.3468 261.782V261.808H62.7702C62.8227 261.805 62.8752 261.813 62.9246 261.831C62.9739 261.849 63.0191 261.877 63.0572 261.914C63.0954 261.95 63.1258 261.993 63.1466 262.042C63.1673 262.09 63.1781 262.142 63.1781 262.195C63.1781 262.247 63.1673 262.299 63.1466 262.348C63.1258 262.396 63.0954 262.439 63.0572 262.476C63.0191 262.512 62.9739 262.54 62.9246 262.558C62.8752 262.576 62.8227 262.584 62.7702 262.582H57.5473C57.2886 262.579 57.1172 262.438 57.1172 262.211Z" fill="#575756"/>
<path d="M64.25 260.095C64.2608 259.525 64.4713 258.978 64.8448 258.547C65.2182 258.117 65.7309 257.832 66.2934 257.741V257.722C65.2462 257.437 64.5798 256.656 64.5798 255.673C64.5798 254.292 65.8113 253.281 67.5117 253.281C69.2189 253.281 70.4376 254.29 70.4376 255.673C70.4376 256.644 69.7712 257.424 68.7304 257.722V257.741C69.2924 257.833 69.8046 258.119 70.1779 258.548C70.5512 258.978 70.762 259.526 70.7738 260.095C70.7738 261.63 69.4411 262.727 67.5117 262.727C65.5884 262.727 64.25 261.624 64.25 260.095ZM69.8916 260.044C69.8916 258.946 68.9206 258.167 67.5117 258.167C66.1092 258.167 65.1321 258.946 65.1321 260.044C65.1321 261.148 66.0968 261.966 67.5117 261.966C68.9267 261.966 69.891 261.148 69.891 260.044H69.8916ZM69.5806 255.743C69.5806 254.759 68.7495 254.036 67.5117 254.036C66.2807 254.036 65.4431 254.759 65.4431 255.743C65.4431 256.707 66.2998 257.392 67.5117 257.392C68.7169 257.392 69.5799 256.707 69.5799 255.743H69.5806Z" fill="#575756"/>
<path d="M92.0781 156.006C92.0888 155.436 92.2993 154.889 92.6727 154.458C93.0462 154.028 93.559 153.743 94.1215 153.652V153.633C93.0747 153.347 92.4079 152.567 92.4079 151.584C92.4079 150.202 93.6394 149.192 95.3402 149.192C97.0474 149.192 98.2657 150.201 98.2657 151.584C98.2657 152.555 97.5993 153.335 96.5585 153.633V153.652C97.1207 153.743 97.6329 154.029 98.0062 154.459C98.3795 154.889 98.5903 155.436 98.6019 156.006C98.6019 157.541 97.2695 158.638 95.3402 158.638C93.4173 158.639 92.0781 157.535 92.0781 156.006ZM97.7201 155.955C97.7201 154.857 96.7491 154.078 95.3402 154.078C93.9377 154.078 92.9602 154.857 92.9602 155.955C92.9602 157.059 93.9249 157.877 95.3402 157.877C96.7555 157.877 97.7201 157.059 97.7201 155.955ZM97.4091 151.654C97.4091 150.67 96.5777 149.947 95.3402 149.947C94.1091 149.947 93.2713 150.67 93.2713 151.654C93.2713 152.618 94.1279 153.303 95.3402 153.303C96.5461 153.303 97.4091 152.619 97.4091 151.654Z" fill="#575756"/>
<path d="M91.9507 192.847V184.987H91.9316L89.9895 186.287C89.9066 186.353 89.8036 186.389 89.6976 186.389C89.6501 186.391 89.6029 186.383 89.5588 186.365C89.5148 186.347 89.475 186.321 89.442 186.286C89.4091 186.252 89.3837 186.212 89.3676 186.167C89.3515 186.122 89.345 186.075 89.3486 186.027C89.3488 185.946 89.3714 185.866 89.414 185.797C89.4566 185.727 89.5174 185.671 89.5899 185.634L91.7601 184.156C91.9132 184.012 92.1146 183.93 92.3248 183.927C92.388 183.923 92.4514 183.932 92.5106 183.954C92.5698 183.977 92.6234 184.012 92.6675 184.057C92.7117 184.103 92.7454 184.157 92.7662 184.217C92.7871 184.277 92.7946 184.34 92.7882 184.403V192.847C92.7923 192.905 92.7845 192.962 92.7653 193.017C92.7461 193.071 92.716 193.121 92.6767 193.163C92.6374 193.205 92.5898 193.239 92.537 193.262C92.4841 193.285 92.4271 193.297 92.3694 193.297C92.3118 193.297 92.2548 193.285 92.2019 193.262C92.149 193.239 92.1015 193.205 92.0622 193.163C92.0229 193.121 91.9927 193.071 91.9736 193.017C91.9544 192.962 91.9466 192.905 91.9507 192.847Z" fill="#575756"/>
<path d="M95.2134 191.509C95.1521 191.36 95.1198 191.201 95.1182 191.04C95.1143 190.985 95.1221 190.931 95.1411 190.88C95.1602 190.829 95.19 190.782 95.2285 190.744C95.2671 190.705 95.3134 190.675 95.3645 190.656C95.4156 190.637 95.4701 190.63 95.5245 190.633C95.7466 190.633 95.8547 190.74 95.9369 191.014C96.0728 191.484 96.3641 191.893 96.7631 192.175C97.1621 192.458 97.6452 192.596 98.1333 192.569C98.4384 192.574 98.7414 192.518 99.0249 192.405C99.3084 192.292 99.5666 192.125 99.7848 191.911C100.003 191.698 100.177 191.444 100.296 191.163C100.415 190.882 100.477 190.58 100.479 190.275C100.48 189.97 100.421 189.668 100.305 189.386C100.189 189.104 100.019 188.848 99.8029 188.632C99.5871 188.416 99.3308 188.246 99.0486 188.13C98.7663 188.014 98.4639 187.955 98.1588 187.957C97.8058 187.951 97.4558 188.024 97.1343 188.17C96.8128 188.315 96.5276 188.531 96.2993 188.8C95.9804 189.143 95.9057 189.194 95.6772 189.194C95.6178 189.196 95.5586 189.186 95.5035 189.164C95.4485 189.141 95.399 189.107 95.3585 189.064C95.318 189.02 95.2875 188.968 95.2691 188.912C95.2507 188.855 95.2449 188.796 95.252 188.737V188.635L95.6393 184.702C95.6836 184.226 95.9057 184.036 96.407 184.036H100.418C100.47 184.033 100.523 184.041 100.572 184.059C100.622 184.077 100.667 184.105 100.705 184.142C100.743 184.178 100.774 184.221 100.794 184.27C100.815 184.318 100.826 184.37 100.826 184.423C100.826 184.475 100.815 184.527 100.794 184.576C100.774 184.624 100.743 184.668 100.705 184.704C100.667 184.74 100.622 184.768 100.572 184.786C100.523 184.804 100.47 184.812 100.418 184.81H96.4197L96.0708 188.209H96.0899C96.354 187.88 96.6923 187.617 97.0772 187.443C97.4621 187.269 97.8827 187.188 98.3048 187.207C98.7052 187.192 99.1044 187.26 99.4775 187.406C99.8506 187.552 100.19 187.773 100.474 188.056C100.757 188.339 100.98 188.677 101.128 189.049C101.275 189.421 101.345 189.82 101.332 190.221C101.332 192.041 99.9854 193.337 98.1142 193.337C96.7177 193.336 95.5943 192.6 95.2134 191.509Z" fill="#575756"/>
<path d="M88.7812 227.517C88.7812 227.34 88.8255 227.256 89.0292 227.041L92.0377 223.889C93.3385 222.518 93.6811 221.967 93.6811 221.162C93.6793 220.914 93.6272 220.67 93.5281 220.443C93.429 220.216 93.285 220.012 93.1047 219.842C92.9243 219.673 92.7114 219.541 92.4789 219.456C92.2464 219.371 91.999 219.334 91.7518 219.348C91.2462 219.328 90.7507 219.492 90.3565 219.809C89.9623 220.126 89.6962 220.575 89.6071 221.073C89.5862 221.169 89.5309 221.254 89.4515 221.312C89.3721 221.37 89.2743 221.397 89.1764 221.387C89.0786 221.378 88.9876 221.333 88.9207 221.261C88.8538 221.189 88.8156 221.095 88.8135 220.997C88.814 220.92 88.8204 220.844 88.8326 220.768C88.9786 219.709 90.013 218.586 91.7376 218.586C93.3622 218.586 94.5427 219.652 94.5427 221.117C94.5427 222.101 94.0797 222.856 92.5375 224.454L90.0116 227.087V227.113H94.435C94.4872 227.11 94.5394 227.119 94.5883 227.137C94.6372 227.156 94.6819 227.184 94.7197 227.22C94.7574 227.256 94.7875 227.299 94.808 227.348C94.8285 227.396 94.8391 227.447 94.8391 227.5C94.8391 227.552 94.8285 227.604 94.808 227.652C94.7875 227.7 94.7574 227.743 94.7197 227.779C94.6819 227.816 94.6372 227.844 94.5883 227.862C94.5394 227.881 94.4872 227.889 94.435 227.887H89.212C88.9516 227.885 88.7812 227.745 88.7812 227.517Z" fill="#575756"/>
<path d="M96.0898 227.517C96.0898 227.34 96.1342 227.256 96.3379 227.041L99.3459 223.889C100.647 222.518 100.99 221.967 100.99 221.162C100.988 220.914 100.936 220.67 100.837 220.443C100.738 220.216 100.594 220.012 100.413 219.842C100.233 219.673 100.02 219.541 99.7875 219.456C99.555 219.371 99.3076 219.334 99.0604 219.348C98.5548 219.328 98.0592 219.492 97.665 219.809C97.2708 220.126 97.0045 220.575 96.9153 221.073C96.8948 221.169 96.8396 221.255 96.7602 221.313C96.6808 221.371 96.5827 221.398 96.4847 221.389C96.3867 221.379 96.2956 221.334 96.2287 221.262C96.1618 221.19 96.1239 221.095 96.1221 220.997C96.1225 220.92 96.1288 220.844 96.1409 220.768C96.2868 219.709 97.3213 218.586 99.0458 218.586C100.67 218.586 101.851 219.652 101.851 221.117C101.851 222.101 101.388 222.856 99.8454 224.454L97.3195 227.087V227.113H101.743C101.795 227.11 101.847 227.119 101.896 227.137C101.945 227.156 101.99 227.184 102.028 227.22C102.065 227.256 102.095 227.299 102.116 227.348C102.136 227.396 102.147 227.447 102.147 227.5C102.147 227.552 102.136 227.604 102.116 227.652C102.095 227.7 102.065 227.743 102.028 227.779C101.99 227.816 101.945 227.844 101.896 227.862C101.847 227.881 101.795 227.889 101.743 227.887H96.5199C96.2613 227.885 96.0898 227.745 96.0898 227.517Z" fill="#575756"/>
<path d="M88.6094 262.211C88.6094 262.034 88.654 261.951 88.8573 261.735L91.8654 258.584C93.1663 257.213 93.5092 256.661 93.5092 255.857C93.5074 255.609 93.4553 255.365 93.3562 255.138C93.2572 254.911 93.1131 254.707 92.9327 254.537C92.7524 254.367 92.5396 254.236 92.307 254.151C92.0745 254.066 91.8271 254.029 91.5799 254.042C91.0743 254.023 90.5786 254.187 90.1844 254.504C89.7902 254.821 89.524 255.27 89.4348 255.768C89.4143 255.864 89.3591 255.95 89.2797 256.008C89.2003 256.066 89.1023 256.093 89.0042 256.084C88.9062 256.074 88.8151 256.029 88.7482 255.957C88.6814 255.885 88.6434 255.79 88.6416 255.692C88.6421 255.616 88.6486 255.539 88.6608 255.464C88.8064 254.404 89.8411 253.281 91.5657 253.281C93.1904 253.281 94.3708 254.347 94.3708 255.812C94.3708 256.796 93.9074 257.551 92.3653 259.15L89.8397 261.782V261.808H94.2631C94.3156 261.805 94.3682 261.813 94.4175 261.831C94.4669 261.849 94.512 261.877 94.5502 261.914C94.5883 261.95 94.6187 261.993 94.6395 262.042C94.6602 262.09 94.6709 262.142 94.6709 262.195C94.6709 262.247 94.6602 262.299 94.6395 262.348C94.6187 262.396 94.5883 262.439 94.5502 262.476C94.512 262.512 94.4669 262.54 94.4175 262.558C94.3682 262.576 94.3156 262.584 94.2631 262.582H89.0398C88.7815 262.579 88.6094 262.438 88.6094 262.211Z" fill="#575756"/>
<path d="M96.0175 261.129C95.9391 260.989 95.8957 260.832 95.8907 260.672C95.888 260.621 95.8962 260.57 95.9149 260.522C95.9335 260.475 95.9622 260.432 95.9989 260.397C96.0356 260.361 96.0795 260.334 96.1276 260.317C96.1758 260.3 96.227 260.293 96.2779 260.298C96.4745 260.298 96.5967 260.393 96.7473 260.691C96.9121 261.088 97.196 261.423 97.5598 261.652C97.9236 261.88 98.3494 261.99 98.7783 261.966C100.428 261.966 101.348 260.469 101.406 257.957V257.671H101.387C101.173 258.206 100.799 258.661 100.316 258.974C99.8327 259.288 99.2647 259.444 98.6894 259.422C98.2894 259.435 97.8911 259.366 97.5187 259.22C97.1463 259.073 96.8075 258.853 96.5231 258.572C96.2386 258.29 96.0145 257.954 95.8643 257.583C95.7141 257.212 95.641 256.815 95.6494 256.415C95.6388 255.997 95.7141 255.581 95.8707 255.193C96.0273 254.805 96.2618 254.453 96.5599 254.16C96.8579 253.866 97.213 253.636 97.6033 253.485C97.9936 253.334 98.4108 253.265 98.829 253.281C99.4128 253.27 99.9876 253.427 100.484 253.734C100.981 254.041 101.378 254.485 101.628 255.013C102.074 255.876 102.286 256.84 102.243 257.811C102.243 260.875 100.955 262.727 98.7716 262.727C97.3251 262.726 96.3664 261.933 96.0175 261.129ZM101.164 256.434C101.171 256.125 101.116 255.816 101.002 255.528C100.888 255.24 100.718 254.978 100.501 254.757C100.284 254.535 100.024 254.36 99.7384 254.241C99.4523 254.121 99.1453 254.06 98.8354 254.062C98.5297 254.059 98.2265 254.117 97.9438 254.234C97.6611 254.35 97.4045 254.522 97.1892 254.739C96.9739 254.956 96.8043 255.214 96.6902 255.497C96.5762 255.781 96.5201 256.084 96.5252 256.39C96.5193 256.692 96.5751 256.992 96.6892 257.272C96.8033 257.552 96.9733 257.806 97.1888 258.018C97.4043 258.23 97.6608 258.396 97.9426 258.506C98.2244 258.616 98.5257 258.667 98.8279 258.656C99.1279 258.666 99.4269 258.616 99.7074 258.509C99.988 258.402 100.244 258.241 100.462 258.034C100.679 257.827 100.853 257.579 100.974 257.304C101.095 257.029 101.159 256.733 101.164 256.433V256.434Z" fill="#575756"/>
<path d="M121.693 157.039C121.615 156.899 121.571 156.742 121.566 156.582C121.563 156.531 121.572 156.48 121.59 156.433C121.609 156.385 121.638 156.342 121.674 156.307C121.711 156.271 121.755 156.244 121.803 156.227C121.851 156.21 121.902 156.203 121.953 156.208C122.15 156.208 122.272 156.303 122.423 156.601C122.588 156.998 122.872 157.333 123.235 157.562C123.599 157.79 124.025 157.9 124.454 157.876C126.104 157.876 127.024 156.379 127.081 153.867V153.581H127.062C126.848 154.115 126.474 154.57 125.991 154.884C125.508 155.197 124.941 155.354 124.365 155.332C123.965 155.345 123.567 155.276 123.195 155.129C122.822 154.983 122.483 154.763 122.199 154.481C121.915 154.2 121.69 153.864 121.54 153.493C121.39 153.122 121.317 152.725 121.325 152.325C121.315 151.907 121.39 151.491 121.546 151.103C121.703 150.715 121.938 150.363 122.236 150.069C122.534 149.775 122.889 149.546 123.279 149.395C123.669 149.244 124.087 149.174 124.505 149.191C125.089 149.179 125.663 149.336 126.16 149.644C126.657 149.951 127.054 150.395 127.303 150.923C127.75 151.786 127.962 152.75 127.919 153.721C127.919 156.785 126.631 158.637 124.447 158.637C123.001 158.639 122.042 157.845 121.693 157.039ZM126.84 152.344C126.847 152.034 126.792 151.726 126.678 151.438C126.564 151.15 126.393 150.888 126.176 150.666C125.959 150.445 125.7 150.27 125.414 150.15C125.128 150.031 124.821 149.97 124.511 149.971C124.205 149.969 123.902 150.027 123.619 150.144C123.337 150.26 123.08 150.432 122.865 150.649C122.65 150.866 122.48 151.123 122.366 151.407C122.252 151.691 122.196 151.994 122.201 152.3C122.195 152.602 122.251 152.902 122.366 153.182C122.48 153.461 122.65 153.715 122.865 153.927C123.081 154.139 123.337 154.305 123.619 154.414C123.901 154.524 124.202 154.575 124.504 154.564C124.803 154.574 125.102 154.524 125.383 154.418C125.663 154.311 125.919 154.15 126.137 153.943C126.354 153.736 126.528 153.489 126.649 153.214C126.77 152.94 126.835 152.644 126.84 152.344Z" fill="#575756"/>
<path d="M121.185 192.847V184.987H121.166L119.224 186.287C119.141 186.353 119.038 186.389 118.932 186.389C118.885 186.391 118.838 186.383 118.793 186.365C118.749 186.347 118.709 186.321 118.676 186.287C118.643 186.252 118.618 186.212 118.602 186.167C118.586 186.122 118.579 186.075 118.583 186.027C118.583 185.946 118.606 185.866 118.648 185.797C118.691 185.727 118.752 185.671 118.824 185.634L120.994 184.156C121.148 184.012 121.349 183.93 121.559 183.927C121.622 183.923 121.686 183.932 121.745 183.954C121.804 183.977 121.858 184.012 121.902 184.057C121.946 184.103 121.98 184.157 122.001 184.217C122.021 184.277 122.029 184.34 122.023 184.403V192.847C122.027 192.905 122.019 192.962 122 193.017C121.98 193.071 121.95 193.121 121.911 193.163C121.872 193.205 121.824 193.239 121.771 193.262C121.718 193.285 121.661 193.297 121.604 193.297C121.546 193.297 121.489 193.285 121.436 193.262C121.383 193.239 121.336 193.205 121.297 193.163C121.257 193.121 121.227 193.071 121.208 193.017C121.189 192.962 121.181 192.905 121.185 192.847Z" fill="#575756"/>
<path d="M124.765 191.6C124.32 190.737 124.108 189.773 124.15 188.802C124.15 185.732 125.457 183.886 127.627 183.886C128.179 183.859 128.726 183.991 129.204 184.267C129.683 184.543 130.071 184.95 130.325 185.44C130.412 185.584 130.46 185.748 130.464 185.916C130.464 185.967 130.454 186.018 130.434 186.065C130.413 186.112 130.383 186.155 130.346 186.19C130.308 186.225 130.264 186.252 130.216 186.269C130.167 186.287 130.116 186.294 130.064 186.29C129.874 186.29 129.76 186.189 129.601 185.897C129.432 185.516 129.153 185.195 128.8 184.974C128.448 184.752 128.037 184.641 127.621 184.653C125.977 184.653 125.025 186.157 124.987 188.771V188.929H125.006C125.222 188.397 125.597 187.944 126.08 187.633C126.563 187.322 127.13 187.168 127.704 187.191C128.104 187.18 128.503 187.25 128.876 187.398C129.248 187.545 129.587 187.767 129.871 188.049C130.156 188.332 130.379 188.669 130.529 189.041C130.679 189.412 130.752 189.81 130.743 190.211C130.735 190.918 130.49 191.602 130.047 192.153C129.604 192.704 128.989 193.091 128.3 193.251C127.611 193.411 126.888 193.335 126.247 193.036C125.606 192.737 125.084 192.231 124.765 191.6ZM129.861 190.242C129.87 189.939 129.816 189.637 129.703 189.356C129.591 189.074 129.421 188.818 129.206 188.604C128.991 188.39 128.734 188.223 128.452 188.112C128.169 188 127.867 187.948 127.564 187.958C127.264 187.948 126.965 187.997 126.685 188.104C126.405 188.21 126.149 188.372 125.932 188.578C125.715 188.785 125.541 189.033 125.422 189.308C125.302 189.583 125.238 189.879 125.235 190.179C125.228 190.489 125.282 190.797 125.396 191.085C125.509 191.373 125.679 191.636 125.895 191.857C126.112 192.079 126.37 192.255 126.656 192.375C126.941 192.496 127.248 192.558 127.557 192.558C127.862 192.56 128.163 192.501 128.444 192.385C128.725 192.269 128.98 192.098 129.195 191.883C129.409 191.667 129.578 191.411 129.693 191.13C129.807 190.848 129.864 190.546 129.861 190.242H129.861Z" fill="#575756"/>
<path d="M118.008 227.517C118.008 227.34 118.052 227.256 118.256 227.041L121.264 223.889C122.565 222.518 122.908 221.967 122.908 221.162C122.906 220.914 122.854 220.67 122.755 220.443C122.656 220.216 122.512 220.012 122.331 219.842C122.151 219.673 121.938 219.541 121.705 219.456C121.473 219.371 121.226 219.334 120.978 219.348C120.473 219.328 119.977 219.492 119.583 219.809C119.189 220.126 118.923 220.575 118.833 221.073C118.813 221.169 118.758 221.255 118.678 221.313C118.599 221.371 118.501 221.398 118.403 221.389C118.305 221.379 118.214 221.334 118.147 221.262C118.08 221.19 118.042 221.095 118.04 220.997C118.04 220.92 118.047 220.844 118.059 220.768C118.205 219.709 119.24 218.586 120.964 218.586C122.589 218.586 123.769 219.652 123.769 221.117C123.769 222.101 123.306 222.856 121.764 224.454L119.238 227.087V227.113H123.663C123.716 227.11 123.768 227.119 123.817 227.137C123.866 227.156 123.91 227.184 123.948 227.22C123.986 227.256 124.016 227.299 124.036 227.348C124.057 227.396 124.067 227.447 124.067 227.5C124.067 227.552 124.057 227.604 124.036 227.652C124.016 227.7 123.986 227.743 123.948 227.779C123.91 227.816 123.866 227.844 123.817 227.862C123.768 227.881 123.716 227.889 123.663 227.887H118.44C118.179 227.885 118.008 227.745 118.008 227.517Z" fill="#575756"/>
<path d="M125.393 226.458C125.284 226.264 125.228 226.046 125.228 225.824C125.223 225.769 125.23 225.715 125.248 225.663C125.267 225.612 125.296 225.565 125.334 225.526C125.372 225.487 125.417 225.456 125.468 225.437C125.519 225.417 125.573 225.408 125.628 225.411C125.831 225.411 125.946 225.525 126.034 225.798C126.288 226.674 127.081 227.27 128.306 227.27C129.632 227.27 130.552 226.477 130.559 225.398C130.565 224.2 129.664 223.514 128.204 223.514H127.411C127.36 223.519 127.309 223.513 127.261 223.496C127.213 223.48 127.169 223.453 127.131 223.419C127.094 223.384 127.065 223.342 127.045 223.295C127.026 223.248 127.016 223.197 127.017 223.146C127.016 223.095 127.025 223.044 127.045 222.997C127.064 222.949 127.094 222.907 127.131 222.871C127.168 222.836 127.212 222.809 127.26 222.792C127.309 222.775 127.36 222.768 127.411 222.772H128.166C129.391 222.772 130.235 222.049 130.235 221.034C130.235 220.042 129.512 219.346 128.274 219.346C127.182 219.346 126.472 219.898 126.211 220.811C126.123 221.078 126.047 221.192 125.812 221.192C125.758 221.197 125.704 221.19 125.654 221.17C125.603 221.151 125.558 221.121 125.521 221.082C125.484 221.043 125.456 220.996 125.439 220.945C125.422 220.894 125.418 220.84 125.425 220.786C125.425 220.566 125.477 220.349 125.577 220.152C125.989 219.188 126.992 218.585 128.274 218.585C130.019 218.585 131.111 219.619 131.111 220.932C131.111 222.068 130.332 222.861 129.156 223.096V223.121C130.521 223.229 131.441 224.072 131.441 225.373C131.441 226.928 130.095 228.031 128.306 228.031C126.903 228.03 125.856 227.447 125.393 226.458Z" fill="#575756"/>
<path d="M117.866 261.154C117.757 260.96 117.701 260.742 117.701 260.52C117.696 260.465 117.703 260.411 117.721 260.359C117.739 260.308 117.769 260.261 117.807 260.222C117.844 260.183 117.89 260.153 117.941 260.133C117.992 260.113 118.046 260.104 118.101 260.107C118.304 260.107 118.419 260.221 118.507 260.495C118.761 261.37 119.554 261.966 120.779 261.966C122.105 261.966 123.025 261.173 123.032 260.095C123.038 258.896 122.137 258.21 120.677 258.21H119.884C119.833 258.215 119.782 258.209 119.734 258.193C119.686 258.176 119.642 258.15 119.604 258.115C119.567 258.08 119.538 258.038 119.518 257.991C119.499 257.944 119.489 257.893 119.49 257.842C119.489 257.791 119.498 257.74 119.518 257.693C119.537 257.646 119.567 257.603 119.604 257.568C119.641 257.532 119.685 257.505 119.733 257.488C119.782 257.471 119.833 257.464 119.884 257.468H120.639C121.864 257.468 122.708 256.745 122.708 255.73C122.708 254.74 121.984 254.042 120.747 254.042C119.655 254.042 118.944 254.595 118.684 255.508C118.596 255.775 118.519 255.889 118.284 255.889C118.231 255.893 118.177 255.886 118.127 255.867C118.076 255.847 118.031 255.817 117.994 255.778C117.957 255.739 117.929 255.693 117.912 255.641C117.895 255.59 117.89 255.536 117.898 255.483C117.898 255.262 117.95 255.045 118.05 254.848C118.462 253.884 119.467 253.281 120.747 253.281C122.492 253.281 123.584 254.315 123.584 255.629C123.584 256.764 122.804 257.557 121.629 257.792V257.817C122.993 257.923 123.914 258.769 123.914 260.07C123.914 261.624 122.568 262.727 120.779 262.727C119.376 262.727 118.329 262.144 117.866 261.154Z" fill="#575756"/>
<path d="M125.102 258.001C125.102 255.127 126.351 253.281 128.42 253.281C130.496 253.281 131.733 255.121 131.733 257.995C131.733 260.888 130.502 262.727 128.42 262.727C126.339 262.727 125.102 260.894 125.102 258.001ZM130.864 258.001C130.864 255.597 129.956 254.049 128.419 254.049C126.89 254.049 125.975 255.609 125.975 257.995C125.975 260.424 126.87 261.966 128.419 261.966C129.969 261.966 130.864 260.424 130.864 258.001Z" fill="#575756"/>
<path d="M58.17 93.11C59.77 93.11 60.59 92.22 60.59 91.13C60.59 89.92 59.65 89.45 58.34 89.14C57.17 88.86 56.49 88.61 56.49 87.9C56.49 87.27 57.11 86.71 57.96 86.71C58.68 86.71 59.36 87.04 59.93 87.59L60.41 86.98C59.78 86.4 59.02 86 58 86C56.68 86 55.7 86.86 55.7 87.96C55.7 89.15 56.57 89.58 57.95 89.9C59.15 90.18 59.8 90.47 59.8 91.2C59.8 91.82 59.26 92.4 58.2 92.4C57.24 92.4 56.53 91.99 55.95 91.41L55.46 92.02C56.15 92.7 57.04 93.11 58.17 93.11ZM65.5328 87.83V91.12C65.5328 91.84 64.8028 92.45 63.9328 92.45C63.1728 92.45 62.6428 91.86 62.6428 91.02V87.83H61.8928V91.12C61.8928 92.29 62.6928 93.12 63.8328 93.12C64.5628 93.12 65.2328 92.72 65.5328 92.17V93H66.2828V87.83H65.5328ZM70.2708 87.71C69.5408 87.71 68.8708 88.11 68.5708 88.66V87.83H67.8208V93H68.5708V89.71C68.5708 88.99 69.3008 88.38 70.1708 88.38C70.9308 88.38 71.4608 88.97 71.4608 89.81V93H72.2108V89.71C72.2108 88.54 71.4108 87.71 70.2708 87.71Z" fill="#575756"/>
<path d="M88.1588 92.3993H88.9388V87.2093L91.4888 91.9993L94.0388 87.2093V92.3993H94.8188V85.5293H94.0388L91.4888 90.3193L88.9388 85.5293H88.1588V92.3993ZM98.9139 92.5193C100.364 92.5193 101.584 91.2793 101.584 89.8093C101.584 88.3393 100.364 87.1093 98.9139 87.1093C97.4639 87.1093 96.2339 88.3393 96.2339 89.8093C96.2339 91.2793 97.4639 92.5193 98.9139 92.5193ZM98.9139 91.8493C97.8839 91.8493 97.0239 90.9193 97.0239 89.8093C97.0239 88.7093 97.8839 87.7793 98.9139 87.7793C99.9339 87.7793 100.794 88.7093 100.794 89.8093C100.794 90.9193 99.9339 91.8493 98.9139 91.8493ZM105.283 87.1093C104.553 87.1093 103.883 87.5093 103.583 88.0593V87.2293H102.833V92.3993H103.583V89.1093C103.583 88.3893 104.313 87.7793 105.183 87.7793C105.943 87.7793 106.473 88.3693 106.473 89.2093V92.3993H107.223V89.1093C107.223 87.9393 106.423 87.1093 105.283 87.1093Z" fill="#575756"/>
<path d="M120.022 92.8639H120.802V86.7339H123.112V85.9939H117.712V86.7339H120.022V92.8639ZM127.961 87.6939V90.9839C127.961 91.7039 127.231 92.3139 126.361 92.3139C125.601 92.3139 125.071 91.7239 125.071 90.8839V87.6939H124.321V90.9839C124.321 92.1539 125.121 92.9839 126.261 92.9839C126.991 92.9839 127.661 92.5839 127.961 92.0339V92.8639H128.711V87.6939H127.961ZM132.569 92.3139C131.549 92.3139 130.839 91.5739 130.729 90.5639H134.959C134.959 88.7539 134.069 87.5739 132.509 87.5739C131.119 87.5739 129.959 88.7239 129.959 90.2639C129.959 91.8539 131.199 92.9839 132.579 92.9839C133.299 92.9839 134.209 92.6739 134.659 92.1839L134.199 91.6939C133.879 92.0439 133.179 92.3139 132.569 92.3139ZM132.539 88.2439C133.569 88.2439 134.119 88.9639 134.219 89.8939H130.739C130.879 88.8939 131.619 88.2439 132.539 88.2439Z" fill="#575756"/>
<path d="M148.033 92.8639H148.803L150.723 87.0139L152.633 92.8639H153.403L155.753 85.9939H154.873L152.973 91.5539L151.153 85.9939H150.283L148.463 91.5539L146.562 85.9939H145.683L148.033 92.8639ZM158.666 92.3139C157.646 92.3139 156.936 91.5739 156.826 90.5639H161.056C161.056 88.7539 160.166 87.5739 158.606 87.5739C157.216 87.5739 156.056 88.7239 156.056 90.2639C156.056 91.8539 157.296 92.9839 158.676 92.9839C159.396 92.9839 160.306 92.6739 160.756 92.1839L160.296 91.6939C159.976 92.0439 159.276 92.3139 158.666 92.3139ZM158.636 88.2439C159.666 88.2439 160.216 88.9639 160.316 89.8939H156.836C156.976 88.8939 157.716 88.2439 158.636 88.2439ZM166.323 85.8739V88.6639C165.933 87.9839 165.273 87.5739 164.443 87.5739C163.083 87.5739 162.063 88.6939 162.063 90.2739C162.063 91.8639 163.083 92.9839 164.443 92.9839C165.273 92.9839 165.933 92.5739 166.323 91.8939V92.8639H167.073V85.8739H166.323ZM164.583 92.3139C163.573 92.3139 162.853 91.4639 162.853 90.2739C162.853 89.0839 163.573 88.2439 164.583 88.2439C165.603 88.2439 166.323 89.0839 166.323 90.2739C166.323 91.4639 165.603 92.3139 164.583 92.3139Z" fill="#575756"/>
<path d="M180.795 92.8639H181.575V86.7339H183.885V85.9939H178.485V86.7339H180.795V92.8639ZM187.554 87.5739C186.824 87.5739 186.154 87.9739 185.854 88.5239V85.8739H185.104V92.8639H185.854V89.5739C185.854 88.8539 186.584 88.2439 187.454 88.2439C188.214 88.2439 188.744 88.8339 188.744 89.6739V92.8639H189.494V89.5739C189.494 88.4039 188.694 87.5739 187.554 87.5739ZM194.652 87.6939V90.9839C194.652 91.7039 193.922 92.3139 193.052 92.3139C192.292 92.3139 191.762 91.7239 191.762 90.8839V87.6939H191.012V90.9839C191.012 92.1539 191.812 92.9839 192.952 92.9839C193.682 92.9839 194.352 92.5839 194.652 92.0339V92.8639H195.402V87.6939H194.652Z" fill="#575756"/>
<path d="M218.72 86.87V86.13H213.79V93H214.58V89.87H218.31V89.13H214.58V86.87H218.72ZM220.674 88.84V87.83H219.924V93H220.674V90.11C220.674 89.1 221.504 88.38 222.674 88.38V87.71C221.724 87.71 220.984 88.15 220.674 88.84ZM224.081 86.89C224.351 86.89 224.571 86.66 224.571 86.39C224.571 86.13 224.351 85.9 224.081 85.9C223.801 85.9 223.581 86.13 223.581 86.39C223.581 86.66 223.801 86.89 224.081 86.89ZM223.701 93H224.451V87.83H223.701V93Z" fill="#575756"/>
<path d="M244.295 92.6184C245.895 92.6184 246.715 91.7284 246.715 90.6384C246.715 89.4284 245.775 88.9584 244.465 88.6484C243.295 88.3684 242.615 88.1184 242.615 87.4084C242.615 86.7784 243.235 86.2184 244.085 86.2184C244.805 86.2184 245.485 86.5484 246.055 87.0984L246.535 86.4884C245.905 85.9084 245.145 85.5084 244.125 85.5084C242.805 85.5084 241.825 86.3684 241.825 87.4684C241.825 88.6584 242.695 89.0884 244.075 89.4084C245.275 89.6884 245.925 89.9784 245.925 90.7084C245.925 91.3284 245.385 91.9084 244.325 91.9084C243.365 91.9084 242.655 91.4984 242.075 90.9184L241.585 91.5284C242.275 92.2084 243.165 92.6184 244.295 92.6184ZM250.118 87.2184C249.618 87.2184 248.998 87.3484 248.258 87.7184L248.558 88.3284C249.028 88.0884 249.548 87.8584 250.068 87.8584C251.188 87.8584 251.468 88.6584 251.468 89.3584V89.5484C250.938 89.3784 250.348 89.2584 249.788 89.2584C248.678 89.2584 247.758 89.9484 247.758 90.9784C247.758 91.9984 248.558 92.6284 249.648 92.6284C250.328 92.6284 251.098 92.3084 251.468 91.6984V92.5084H252.218V89.3584C252.218 88.1084 251.528 87.2184 250.118 87.2184ZM249.778 91.9684C249.048 91.9684 248.488 91.5884 248.488 90.9484C248.488 90.3284 249.138 89.8884 249.908 89.8884C250.468 89.8884 250.998 89.9684 251.468 90.0984V90.8884C251.268 91.6184 250.458 91.9684 249.778 91.9684ZM256.02 91.7484C255.91 91.8684 255.71 91.9584 255.48 91.9584C255.18 91.9584 254.92 91.6884 254.92 91.3084V88.0084H256.19V87.3384H254.92V85.9184H254.17V87.3384H253.36V88.0084H254.17V91.3084C254.17 92.0784 254.69 92.6284 255.43 92.6284C255.78 92.6284 256.12 92.5084 256.39 92.2984L256.02 91.7484Z" fill="#575756"/>
<circle cx="96.4016" cy="197.226" r="1.88211" fill="#FF5151"/>
<circle cx="121.995" cy="163.348" r="1.88211" fill="#FF5151"/>
<circle cx="127.265" cy="163.348" r="1.88211" fill="#FFBD12"/>
<circle cx="95.6477" cy="233.362" r="1.88211" fill="#51ABFF"/>
<circle cx="187.491" cy="163.348" r="1.88211" fill="#51ABFF"/>
<circle cx="219.116" cy="232.609" r="1.88211" fill="#7AD36C"/>
<circle cx="98.6595" cy="128.715" r="1.88211" fill="#7AD36C"/>
<circle cx="158.132" cy="267.24" r="1.88211" fill="#FF5151"/>
<circle cx="127.003" cy="232.609" r="1.88211" fill="#51ABFF"/>
<circle cx="90.3782" cy="267.24" r="1.88211" fill="#51ABFF"/>
<circle cx="155.874" cy="163.348" r="1.88211" fill="#7AD36C"/>
<circle cx="217.609" cy="163.348" r="1.88211" fill="#7AD36C"/>
<circle cx="184.48" cy="232.609" r="1.88211" fill="#7AD36C"/>
<circle cx="182.222" cy="163.348" r="1.88211" fill="#FF5151"/>
<circle cx="213.847" cy="232.609" r="1.88211" fill="#FFBD12"/>
<circle cx="93.386" cy="128.715" r="1.88211" fill="#FFBD12"/>
<circle cx="125.007" cy="267.24" r="1.88211" fill="#FFBD12"/>
<circle cx="100.917" cy="267.24" r="1.88211" fill="#FF5151"/>
<circle cx="152.863" cy="267.24" r="1.88211" fill="#FFBD12"/>
<circle cx="121.734" cy="232.609" r="1.88211" fill="#FF5151"/>
<circle cx="95.6477" cy="267.24" r="1.88211" fill="#FF5151"/>
<path d="M55.86 62.144C57.036 62.144 58.116 61.64 58.896 60.848L58.044 60.032C57.492 60.632 56.712 61.028 55.86 61.028C54.216 61.028 52.824 59.588 52.824 57.872C52.824 56.168 54.216 54.728 55.86 54.728C56.712 54.728 57.492 55.124 58.044 55.724L58.896 54.908C58.116 54.104 57.036 53.612 55.86 53.612C53.544 53.612 51.576 55.556 51.576 57.872C51.576 60.188 53.544 62.144 55.86 62.144ZM62.6828 55.652C61.9988 55.652 61.2188 55.832 60.3308 56.276L60.7628 57.152C61.3028 56.876 61.9028 56.636 62.5148 56.636C63.7508 56.636 64.1108 57.464 64.1108 58.244V58.436C63.5108 58.232 62.8508 58.1 62.2388 58.1C60.8708 58.1 59.7548 58.928 59.7548 60.164C59.7548 61.376 60.7268 62.144 62.0468 62.144C62.8028 62.144 63.6548 61.796 64.1108 61.148V62H65.2748V58.244C65.2748 56.708 64.3508 55.652 62.6828 55.652ZM62.2748 61.208C61.4948 61.208 60.8948 60.8 60.8948 60.128C60.8948 59.456 61.5908 58.988 62.4188 58.988C63.0308 58.988 63.6068 59.072 64.1108 59.228V60.056C63.9068 60.824 63.0428 61.208 62.2748 61.208ZM66.9929 62H68.1689V53.612H66.9929V62ZM72.7432 61.088C71.6752 61.088 70.9192 60.344 70.7632 59.312H75.6472C75.6472 57.092 74.5552 55.652 72.6592 55.652C70.9432 55.652 69.5632 57.02 69.5632 58.88C69.5632 60.788 71.0272 62.144 72.7552 62.144C73.6312 62.144 74.7112 61.772 75.2632 61.184L74.5192 60.416C74.1472 60.8 73.3912 61.088 72.7432 61.088ZM72.7072 56.708C73.7752 56.708 74.3632 57.404 74.4952 58.364H70.7752C70.9672 57.356 71.7472 56.708 72.7072 56.708ZM80.1802 55.652C79.3402 55.652 78.5842 56.084 78.2122 56.696V55.796H77.0242V62H78.2122V57.98C78.3082 57.248 79.0522 56.684 79.9162 56.684C80.7562 56.684 81.3442 57.332 81.3442 58.256V62H82.5082V58.052C82.5082 56.648 81.5482 55.652 80.1802 55.652ZM88.9838 53.612V56.864C88.5038 56.108 87.7358 55.652 86.7758 55.652C85.1438 55.652 83.9198 56.996 83.9198 58.892C83.9198 60.8 85.1438 62.144 86.7758 62.144C87.7358 62.144 88.5038 61.688 88.9838 60.92V62H90.1598V53.612H88.9838ZM87.0638 61.112C85.9238 61.112 85.1198 60.188 85.1198 58.892C85.1198 57.596 85.9238 56.684 87.0638 56.684C88.1798 56.684 88.9838 57.596 88.9838 58.892C88.9838 60.188 88.1798 61.112 87.0638 61.112ZM94.5461 55.652C93.8621 55.652 93.0821 55.832 92.1941 56.276L92.6261 57.152C93.1661 56.876 93.7661 56.636 94.3781 56.636C95.6141 56.636 95.9741 57.464 95.9741 58.244V58.436C95.3741 58.232 94.7141 58.1 94.1021 58.1C92.7341 58.1 91.6181 58.928 91.6181 60.164C91.6181 61.376 92.5901 62.144 93.9101 62.144C94.6661 62.144 95.5181 61.796 95.9741 61.148V62H97.1381V58.244C97.1381 56.708 96.2141 55.652 94.5461 55.652ZM94.1381 61.208C93.3581 61.208 92.7581 60.8 92.7581 60.128C92.7581 59.456 93.4541 58.988 94.2821 58.988C94.8941 58.988 95.4701 59.072 95.9741 59.228V60.056C95.7701 60.824 94.9061 61.208 94.1381 61.208ZM100.104 56.984V55.796H98.9162V62H100.104V58.472C100.212 57.392 101.124 56.684 102.408 56.684V55.652C101.34 55.652 100.5 56.168 100.104 56.984Z" fill="black"/>
<path d="M30 55.0142H34.4523C35.9277 55.0142 37.1237 56.2102 37.1237 57.6855C37.1237 59.1609 35.9277 60.3569 34.4523 60.3569H30V55.0142Z" fill="#1495F0"/>
<defs>
<filter id="filter0_d" x="0" y="0.0812988" width="312" height="328.919" filterUnits="userSpaceOnUse" color-interpolation-filters="sRGB">
<feFlood flood-opacity="0" result="BackgroundImageFix"/>
<feColorMatrix in="SourceAlpha" type="matrix" values="0 0 0 0 0 0 0 0 0 0 0 0 0 0 0 0 0 0 127 0"/>
<feOffset/>
<feGaussianBlur stdDeviation="15"/>
<feColorMatrix type="matrix" values="0 0 0 0 0 0 0 0 0 0 0 0 0 0 0 0 0 0 0.1 0"/>
<feBlend mode="normal" in2="BackgroundImageFix" result="effect1_dropShadow"/>
<feBlend mode="normal" in="SourceGraphic" in2="effect1_dropShadow" result="shape"/>
</filter>
<filter id="filter1_d" x="78.2188" y="247.272" width="34.2566" height="35.2485" filterUnits="userSpaceOnUse" color-interpolation-filters="sRGB">
<feFlood flood-opacity="0" result="BackgroundImageFix"/>
<feColorMatrix in="SourceAlpha" type="matrix" values="0 0 0 0 0 0 0 0 0 0 0 0 0 0 0 0 0 0 127 0"/>
<feOffset dy="5"/>
<feGaussianBlur stdDeviation="2"/>
<feColorMatrix type="matrix" values="0 0 0 0 0 0 0 0 0 0 0 0 0 0 0 0 0 0 0.1 0"/>
<feBlend mode="normal" in2="BackgroundImageFix" result="effect1_dropShadow"/>
<feBlend mode="normal" in="SourceGraphic" in2="effect1_dropShadow" result="shape"/>
</filter>
</defs>
</svg>
