<svg id="Layer_1" data-name="Layer 1" xmlns="http://www.w3.org/2000/svg" xmlns:xlink="http://www.w3.org/1999/xlink" viewBox="0 0 2524 1157.12"><defs><style>.cls-1,.cls-86,.cls-87{fill:none;}.cls-2{fill:url(#linear-gradient);}.cls-3{fill:url(#linear-gradient-2);}.cls-4{fill:#fff;}.cls-5{fill:url(#linear-gradient-3);}.cls-6{fill:url(#linear-gradient-4);}.cls-7{clip-path:url(#clip-path);}.cls-8{fill:url(#linear-gradient-5);}.cls-9{fill:url(#linear-gradient-6);}.cls-10{fill:url(#linear-gradient-7);}.cls-11{fill:url(#linear-gradient-8);}.cls-12{fill:url(#linear-gradient-9);}.cls-13{fill:url(#linear-gradient-10);}.cls-14{fill:url(#linear-gradient-11);}.cls-15{fill:url(#linear-gradient-12);}.cls-16{fill:url(#linear-gradient-13);}.cls-17{fill:url(#linear-gradient-14);}.cls-18{fill:url(#linear-gradient-15);}.cls-19{fill:url(#linear-gradient-16);}.cls-20{fill:url(#linear-gradient-17);}.cls-21{fill:url(#linear-gradient-18);}.cls-22{fill:url(#linear-gradient-19);}.cls-23{fill:url(#linear-gradient-20);}.cls-24{fill:url(#linear-gradient-21);}.cls-25{fill:url(#linear-gradient-22);}.cls-26{fill:url(#linear-gradient-23);}.cls-27{fill:#a5ffff;}.cls-28{fill:url(#linear-gradient-24);}.cls-29{fill:url(#linear-gradient-25);}.cls-30{fill:url(#linear-gradient-26);}.cls-31{fill:url(#linear-gradient-27);}.cls-32{fill:url(#linear-gradient-28);}.cls-33{fill:url(#linear-gradient-29);}.cls-34{fill:url(#linear-gradient-30);}.cls-35{fill:url(#linear-gradient-31);}.cls-36{fill:url(#linear-gradient-32);}.cls-37{fill:#fdf7fb;}.cls-38{fill:url(#linear-gradient-33);}.cls-39{fill:url(#linear-gradient-34);}.cls-40{fill:url(#linear-gradient-35);}.cls-41{fill:url(#linear-gradient-36);}.cls-42{fill:url(#linear-gradient-37);}.cls-43{fill:url(#linear-gradient-38);}.cls-44,.cls-57,.cls-64{opacity:0.56;}.cls-44,.cls-57,.cls-64,.cls-78{isolation:isolate;}.cls-44{fill:url(#linear-gradient-39);}.cls-45{fill:#102465;}.cls-46{fill:#00edf9;}.cls-47{fill:#1a6cbe;}.cls-48{fill:url(#linear-gradient-40);}.cls-49{fill:url(#linear-gradient-41);}.cls-50{fill:url(#linear-gradient-42);}.cls-51{fill:url(#linear-gradient-43);}.cls-52{fill:#ff65eb;}.cls-53{fill:url(#linear-gradient-44);}.cls-54{fill:url(#linear-gradient-45);}.cls-55{fill:url(#linear-gradient-46);}.cls-56{fill:url(#linear-gradient-47);}.cls-57{fill:url(#linear-gradient-48);}.cls-58{fill:url(#linear-gradient-49);}.cls-59{fill:url(#linear-gradient-50);}.cls-60{fill:url(#linear-gradient-51);}.cls-61{fill:#162a56;}.cls-62{fill:url(#linear-gradient-52);}.cls-63{fill:#165da4;}.cls-64{fill:url(#linear-gradient-53);}.cls-65{fill:url(#linear-gradient-54);}.cls-66{fill:url(#linear-gradient-55);}.cls-67{fill:url(#linear-gradient-56);}.cls-68{fill:url(#linear-gradient-57);}.cls-69{fill:url(#linear-gradient-58);}.cls-70{fill:url(#linear-gradient-59);}.cls-71{fill:url(#linear-gradient-60);}.cls-72{opacity:0.68;}.cls-73{fill:url(#linear-gradient-61);}.cls-74{fill:url(#linear-gradient-62);}.cls-75{fill:url(#linear-gradient-63);}.cls-76{fill:url(#linear-gradient-64);}.cls-77{fill:url(#linear-gradient-65);}.cls-78{opacity:0.94;fill:url(#linear-gradient-66);}.cls-79{fill:url(#linear-gradient-67);}.cls-80{fill:url(#linear-gradient-68);}.cls-81{fill:#54c9ff;}.cls-82{fill:#2069c7;}.cls-83{fill:#064280;}.cls-84{fill:#529dfa;}.cls-85{fill:#0182aa;}.cls-86{stroke:#01ffff;stroke-miterlimit:10;stroke-width:0.26px;}.cls-87{stroke:#15ff5f;stroke-linecap:round;stroke-linejoin:round;stroke-width:1.04px;}.cls-88{fill:#889fff;}.cls-89{fill:#239bd5;}.cls-90{fill:#5796ff;}.cls-91{fill:#89d1ff;}.cls-92{fill:url(#linear-gradient-69);}.cls-93{fill:url(#linear-gradient-70);}</style><linearGradient id="linear-gradient" x1="302.19" y1="1119.08" x2="302.19" y2="1118.08" gradientTransform="matrix(973.02, 0, 0, -469.09, -293548.72, 524945.24)" gradientUnits="userSpaceOnUse"><stop offset="0" stop-color="#007ee6"/><stop offset="1" stop-color="#06d3fe"/></linearGradient><linearGradient id="linear-gradient-2" x1="302.28" y1="1119.05" x2="302.28" y2="1118.05" gradientTransform="matrix(1370.66, 0, 0, -775.65, -412484.32, 868372.64)" xlink:href="#linear-gradient"/><linearGradient id="linear-gradient-3" x1="301.86" y1="1119.14" x2="301.86" y2="1118.14" gradientTransform="matrix(470.72, 0, 0, -287.13, -141347.47, 321516.65)" xlink:href="#linear-gradient"/><linearGradient id="linear-gradient-4" x1="302.16" y1="1119.07" x2="302.16" y2="1118.07" gradientTransform="matrix(888.58, 0, 0, -584, -266925.03, 653854.35)" xlink:href="#linear-gradient"/><clipPath id="clip-path" transform="translate(0)"><rect class="cls-1" x="1139.19" y="317" width="875" height="583"/></clipPath><linearGradient id="linear-gradient-5" x1="293.17" y1="1120.99" x2="293.01" y2="1120.21" gradientTransform="matrix(32.11, 0, 0, -18.6, -8001.46, 21353.38)" gradientUnits="userSpaceOnUse"><stop offset="0" stop-color="#89daf4"/><stop offset="1" stop-color="#008dd7"/></linearGradient><linearGradient id="linear-gradient-6" x1="283.15" y1="1118.62" x2="284.15" y2="1118.62" gradientTransform="matrix(16.02, 0, 0, -323.33, -3126.49, 362353.28)" gradientUnits="userSpaceOnUse"><stop offset="0" stop-color="#144188"/><stop offset="1" stop-color="#1a7cde"/></linearGradient><linearGradient id="linear-gradient-7" x1="283.23" y1="1118.62" x2="284.23" y2="1118.62" gradientTransform="matrix(16.09, 0, 0, -323.33, -3163.73, 362352.18)" gradientUnits="userSpaceOnUse"><stop offset="0" stop-color="#144188"/><stop offset="1" stop-color="#102465"/></linearGradient><linearGradient id="linear-gradient-8" x1="293.12" y1="1118.94" x2="293.08" y2="1118.39" gradientTransform="matrix(32.11, 0, 0, -332.63, -8001.16, 372749.6)" gradientUnits="userSpaceOnUse"><stop offset="0" stop-color="#0276ce" stop-opacity="0"/><stop offset="0.06" stop-color="#0276ce" stop-opacity="0.17"/><stop offset="0.15" stop-color="#0276ce" stop-opacity="0.38"/><stop offset="0.25" stop-color="#0276ce" stop-opacity="0.57"/><stop offset="0.35" stop-color="#0276ce" stop-opacity="0.73"/><stop offset="0.45" stop-color="#0276ce" stop-opacity="0.85"/><stop offset="0.56" stop-color="#0276ce" stop-opacity="0.93"/><stop offset="0.68" stop-color="#0276ce" stop-opacity="0.98"/><stop offset="0.81" stop-color="#0276ce"/></linearGradient><linearGradient id="linear-gradient-9" x1="288.52" y1="1122.02" x2="288.36" y2="1121.25" gradientTransform="matrix(21.48, 0, 0, -12.44, -4806.45, 14527.54)" xlink:href="#linear-gradient-5"/><linearGradient id="linear-gradient-10" x1="273.82" y1="1118.68" x2="274.82" y2="1118.68" gradientTransform="matrix(10.71, 0, 0, -216.28, -1545.57, 242635.21)" xlink:href="#linear-gradient-6"/><linearGradient id="linear-gradient-11" x1="273.94" y1="1118.68" x2="274.94" y2="1118.68" gradientTransform="matrix(10.76, 0, 0, -216.28, -1570.52, 242636.3)" xlink:href="#linear-gradient-7"/><linearGradient id="linear-gradient-12" x1="288.46" y1="1119" x2="288.42" y2="1118.45" gradientTransform="matrix(21.48, 0, 0, -222.5, -4806.76, 249590.26)" gradientUnits="userSpaceOnUse"><stop offset="0" stop-color="#006ac6" stop-opacity="0"/><stop offset="0.05" stop-color="#006ac6" stop-opacity="0.13"/><stop offset="0.14" stop-color="#006ac6" stop-opacity="0.36"/><stop offset="0.24" stop-color="#006bc6" stop-opacity="0.56"/><stop offset="0.34" stop-color="#006bc6" stop-opacity="0.72"/><stop offset="0.45" stop-color="#006bc6" stop-opacity="0.84"/><stop offset="0.56" stop-color="#006bc6" stop-opacity="0.93"/><stop offset="0.68" stop-color="#006bc6" stop-opacity="0.98"/><stop offset="0.82" stop-color="#006cc7"/></linearGradient><linearGradient id="linear-gradient-13" x1="293.17" y1="1120.99" x2="293.01" y2="1120.21" gradientTransform="matrix(32.11, 0, 0, -18.6, -8197.61, 21590.08)" xlink:href="#linear-gradient-5"/><linearGradient id="linear-gradient-14" x1="283.15" y1="1118.66" x2="284.15" y2="1118.66" gradientTransform="matrix(16.02, 0, 0, -237.18, -3322.64, 266193.77)" xlink:href="#linear-gradient-6"/><linearGradient id="linear-gradient-15" x1="283.23" y1="1118.66" x2="284.23" y2="1118.66" gradientTransform="matrix(16.09, 0, 0, -237.18, -3359.87, 266193.77)" xlink:href="#linear-gradient-7"/><linearGradient id="linear-gradient-16" x1="293.11" y1="1118.98" x2="293.08" y2="1118.43" gradientTransform="matrix(32.11, 0, 0, -246.48, -8197.3, 276587.84)" gradientUnits="userSpaceOnUse"><stop offset="0" stop-color="#0044ae" stop-opacity="0"/><stop offset="0" stop-color="#0044ae" stop-opacity="0.01"/><stop offset="0.1" stop-color="#0044ae" stop-opacity="0.27"/><stop offset="0.21" stop-color="#0044ae" stop-opacity="0.49"/><stop offset="0.32" stop-color="#0044ae" stop-opacity="0.68"/><stop offset="0.43" stop-color="#0044ae" stop-opacity="0.82"/><stop offset="0.54" stop-color="#0044ae" stop-opacity="0.92"/><stop offset="0.67" stop-color="#0044ae" stop-opacity="0.98"/><stop offset="0.81" stop-color="#0044ae"/></linearGradient><linearGradient id="linear-gradient-17" x1="287.6" y1="1122.23" x2="287.44" y2="1121.45" gradientTransform="matrix(20.16, 0, 0, -11.68, -4348.57, 13664.18)" xlink:href="#linear-gradient-5"/><linearGradient id="linear-gradient-18" x1="271.97" y1="1118.69" x2="272.97" y2="1118.69" gradientTransform="matrix(10.06, 0, 0, -203.01, -1287.66, 227768.29)" xlink:href="#linear-gradient-6"/><linearGradient id="linear-gradient-19" x1="272.1" y1="1118.69" x2="273.1" y2="1118.69" gradientTransform="matrix(10.1, 0, 0, -203.01, -1311.05, 227768.29)" xlink:href="#linear-gradient-7"/><linearGradient id="linear-gradient-20" x1="287.54" y1="1119.01" x2="287.5" y2="1118.46" gradientTransform="matrix(20.16, 0, 0, -208.85, -4348.57, 234296.3)" xlink:href="#linear-gradient-8"/><linearGradient id="linear-gradient-21" x1="301.86" y1="1119.05" x2="301.7" y2="1118.27" gradientTransform="matrix(420.59, 0, 0, -243.62, -125254.04, 273154.45)" xlink:href="#linear-gradient-5"/><linearGradient id="linear-gradient-22" x1="300.56" y1="1118.59" x2="301.56" y2="1118.59" gradientTransform="matrix(209.84, 0, 0, -426.8, -61396.19, 478247.98)" xlink:href="#linear-gradient-6"/><linearGradient id="linear-gradient-23" x1="300.57" y1="1118.59" x2="301.57" y2="1118.59" gradientTransform="matrix(210.75, 0, 0, -426.79, -61882.97, 478246.85)" xlink:href="#linear-gradient-7"/><linearGradient id="linear-gradient-24" x1="299" y1="1119.14" x2="298.61" y2="1118.63" gradientTransform="matrix(82.43, 0, 0, -91.2, -23025.89, 102836)" xlink:href="#linear-gradient-6"/><linearGradient id="linear-gradient-25" x1="294.99" y1="1119.55" x2="293.08" y2="1119.26" gradientTransform="matrix(37.68, 0, 0, -43.45, -9514.4, 49396.05)" gradientUnits="userSpaceOnUse"><stop offset="0.15" stop-color="#144188"/><stop offset="1" stop-color="#1a7cde"/></linearGradient><linearGradient id="linear-gradient-26" x1="299" y1="1119.14" x2="298.61" y2="1118.63" gradientTransform="matrix(82.43, 0, 0, -91.2, -23025.89, 102900.85)" xlink:href="#linear-gradient-6"/><linearGradient id="linear-gradient-27" x1="294.99" y1="1119.55" x2="293.08" y2="1119.26" gradientTransform="matrix(37.68, 0, 0, -43.45, -9513.5, 49460.93)" xlink:href="#linear-gradient-25"/><linearGradient id="linear-gradient-28" x1="299" y1="1119.14" x2="298.61" y2="1118.63" gradientTransform="matrix(82.43, 0, 0, -91.2, -23025.89, 102966.89)" xlink:href="#linear-gradient-6"/><linearGradient id="linear-gradient-29" x1="294.99" y1="1119.55" x2="293.08" y2="1119.26" gradientTransform="matrix(37.68, 0, 0, -43.44, -9514.4, 49525.77)" xlink:href="#linear-gradient-25"/><linearGradient id="linear-gradient-30" x1="300" y1="1119.46" x2="299.84" y2="1118.69" gradientTransform="matrix(116.98, 0, 0, -67.76, -33779.46, 76460.43)" xlink:href="#linear-gradient-5"/><linearGradient id="linear-gradient-31" x1="296.83" y1="1118.61" x2="297.83" y2="1118.61" gradientTransform="matrix(58.37, 0, 0, -342.19, -16017.9, 383582.63)" xlink:href="#linear-gradient-6"/><linearGradient id="linear-gradient-32" x1="296.85" y1="1118.61" x2="297.85" y2="1118.61" gradientTransform="matrix(58.62, 0, 0, -342.19, -16153.23, 383582.56)" xlink:href="#linear-gradient-7"/><linearGradient id="linear-gradient-33" x1="284.57" y1="1118.7" x2="283.35" y2="1118.71" gradientTransform="matrix(16.4, 0, 0, -189.9, -3383.22, 213210.55)" xlink:href="#linear-gradient-6"/><linearGradient id="linear-gradient-34" x1="284.93" y1="1120.55" x2="283.93" y2="1120.57" gradientTransform="matrix(16.4, 0, 0, -18.96, -3383.23, 22105.19)" xlink:href="#linear-gradient-6"/><linearGradient id="linear-gradient-35" x1="299.91" y1="1118.21" x2="299.92" y2="1118.81" gradientTransform="matrix(116.98, 0, 0, -287.89, -33779.46, 322869.58)" gradientUnits="userSpaceOnUse"><stop offset="0" stop-color="#0044ae"/><stop offset="0.18" stop-color="#0044ae" stop-opacity="0.76"/><stop offset="0.46" stop-color="#0044ae" stop-opacity="0.44"/><stop offset="0.7" stop-color="#0044ae" stop-opacity="0.2"/><stop offset="0.89" stop-color="#0044ae" stop-opacity="0.05"/><stop offset="1" stop-color="#0044ae" stop-opacity="0"/></linearGradient><linearGradient id="linear-gradient-36" x1="297.7" y1="1119.98" x2="297.54" y2="1119.2" gradientTransform="matrix(61.88, 0, 0, -35.84, -16491.57, 40620.26)" xlink:href="#linear-gradient-5"/><linearGradient id="linear-gradient-37" x1="292.22" y1="1118.63" x2="293.22" y2="1118.63" gradientTransform="matrix(30.88, 0, 0, -290.99, -7095.86, 326146.54)" xlink:href="#linear-gradient-6"/><linearGradient id="linear-gradient-38" x1="292.26" y1="1118.63" x2="293.26" y2="1118.63" gradientTransform="matrix(31.01, 0, 0, -290.99, -7167.32, 326145.44)" xlink:href="#linear-gradient-7"/><linearGradient id="linear-gradient-39" x1="297.32" y1="1119.47" x2="296.86" y2="1118.6" gradientTransform="matrix(56.66, 0, 0, -85.09, -14910.43, 95670.76)" gradientUnits="userSpaceOnUse"><stop offset="0.04" stop-color="#93fffd" stop-opacity="0"/><stop offset="0.14" stop-color="#95fefd" stop-opacity="0.07"/><stop offset="0.33" stop-color="#9afdfd" stop-opacity="0.25"/><stop offset="0.61" stop-color="#a3fcfe" stop-opacity="0.55"/><stop offset="0.95" stop-color="#b0fbfe" stop-opacity="0.94"/><stop offset="1" stop-color="#b2fbff"/></linearGradient><linearGradient id="linear-gradient-40" x1="297.6" y1="1118.26" x2="297.64" y2="1118.8" gradientTransform="matrix(61.88, 0, 0, -365.8, -16491.58, 409766.11)" gradientUnits="userSpaceOnUse"><stop offset="0" stop-color="#0091de"/><stop offset="0.09" stop-color="#0091de" stop-opacity="0.96"/><stop offset="0.24" stop-color="#0093df" stop-opacity="0.86"/><stop offset="0.42" stop-color="#0095e1" stop-opacity="0.7"/><stop offset="0.63" stop-color="#0098e3" stop-opacity="0.47"/><stop offset="0.86" stop-color="#009de6" stop-opacity="0.18"/><stop offset="1" stop-color="#00a0e8" stop-opacity="0"/></linearGradient><linearGradient id="linear-gradient-41" x1="301.4" y1="1119.15" x2="301.24" y2="1118.38" gradientTransform="matrix(255.47, 0, 0, -147.98, -74937.75, 166125.58)" xlink:href="#linear-gradient-5"/><linearGradient id="linear-gradient-42" x1="299.63" y1="1118.59" x2="300.63" y2="1118.59" gradientTransform="matrix(127.46, 0, 0, -420.59, -36150.12, 471252.36)" xlink:href="#linear-gradient-6"/><linearGradient id="linear-gradient-43" x1="299.64" y1="1118.59" x2="300.64" y2="1118.59" gradientTransform="matrix(128.02, 0, 0, -420.59, -36446.94, 471249.05)" xlink:href="#linear-gradient-7"/><linearGradient id="linear-gradient-44" x1="284.57" y1="1118.7" x2="283.35" y2="1118.71" gradientTransform="matrix(16.4, 0, 0, -189.9, -2711.02, 213160.09)" xlink:href="#linear-gradient-6"/><linearGradient id="linear-gradient-45" x1="284.93" y1="1120.55" x2="283.93" y2="1120.57" gradientTransform="matrix(16.4, 0, 0, -18.96, -2711.02, 22053.67)" xlink:href="#linear-gradient-6"/><linearGradient id="linear-gradient-46" x1="284.57" y1="1118.7" x2="283.35" y2="1118.71" gradientTransform="matrix(16.4, 0, 0, -189.9, -2682.87, 213176.12)" xlink:href="#linear-gradient-6"/><linearGradient id="linear-gradient-47" x1="284.93" y1="1120.55" x2="283.93" y2="1120.57" gradientTransform="matrix(16.4, 0, 0, -18.96, -2682.87, 22069.7)" xlink:href="#linear-gradient-6"/><linearGradient id="linear-gradient-48" x1="300.94" y1="1119.16" x2="300.48" y2="1118.29" gradientTransform="matrix(177.33, 0, 0, -266.32, -51300.1, 298393.31)" xlink:href="#linear-gradient-39"/><linearGradient id="linear-gradient-49" x1="301.4" y1="1119.15" x2="301.24" y2="1118.38" gradientTransform="matrix(255.47, 0, 0, -147.98, -75118.38, 166333.94)" xlink:href="#linear-gradient-5"/><linearGradient id="linear-gradient-50" x1="299.63" y1="1118.65" x2="300.63" y2="1118.65" gradientTransform="matrix(127.46, 0, 0, -256.97, -36330.73, 288374.48)" xlink:href="#linear-gradient-6"/><linearGradient id="linear-gradient-51" x1="299.64" y1="1118.65" x2="300.64" y2="1118.65" gradientTransform="matrix(128.01, 0, 0, -256.97, -36626.36, 288374.48)" xlink:href="#linear-gradient-7"/><linearGradient id="linear-gradient-52" x1="300.35" y1="1119.5" x2="299.95" y2="1118.09" gradientTransform="matrix(132.05, 0, 0, -76.57, -37788.9, 86459.31)" gradientUnits="userSpaceOnUse"><stop offset="0" stop-color="#cdeffb"/><stop offset="1" stop-color="#89daf4"/></linearGradient><linearGradient id="linear-gradient-53" x1="300.66" y1="1119.07" x2="300.67" y2="1118.35" gradientTransform="matrix(164.49, 0, 0, -228.06, -48035.13, 255854.33)" xlink:href="#linear-gradient-39"/><linearGradient id="linear-gradient-54" x1="300.74" y1="1119.3" x2="300.58" y2="1118.52" gradientTransform="matrix(164.49, 0, 0, -95.28, -48035.73, 107368.41)" xlink:href="#linear-gradient-5"/><linearGradient id="linear-gradient-55" x1="298.32" y1="1118.67" x2="299.32" y2="1118.67" gradientTransform="matrix(82.06, 0, 0, -228.06, -23058.84, 255992.4)" xlink:href="#linear-gradient-6"/><linearGradient id="linear-gradient-56" x1="298.34" y1="1118.67" x2="299.34" y2="1118.67" gradientTransform="matrix(82.43, 0, 0, -228.06, -23250.59, 255991.3)" xlink:href="#linear-gradient-7"/><linearGradient id="linear-gradient-57" x1="290.81" y1="1121.51" x2="290.66" y2="1120.74" gradientTransform="matrix(25.67, 0, 0, -14.87, -6214.45, 17495.96)" xlink:href="#linear-gradient-5"/><linearGradient id="linear-gradient-58" x1="278.42" y1="1118.71" x2="279.42" y2="1118.71" gradientTransform="matrix(12.81, 0, 0, -189.61, -2317.26, 213036.35)" xlink:href="#linear-gradient-6"/><linearGradient id="linear-gradient-59" x1="278.52" y1="1118.71" x2="279.52" y2="1118.71" gradientTransform="matrix(12.86, 0, 0, -189.61, -2347.04, 213039.7)" xlink:href="#linear-gradient-7"/><linearGradient id="linear-gradient-60" x1="290.75" y1="1119.02" x2="290.72" y2="1118.47" gradientTransform="matrix(25.67, 0, 0, -197.05, -6214.45, 221356.5)" xlink:href="#linear-gradient-16"/><linearGradient id="linear-gradient-61" x1="300.37" y1="1118.98" x2="301.4" y2="1118.73" gradientTransform="matrix(188.67, 0, 0, -110.89, -55104.49, 124698.49)" gradientUnits="userSpaceOnUse"><stop offset="0" stop-color="#f8f8f8"/><stop offset="1" stop-color="#497684"/><stop offset="1" stop-color="#010333"/></linearGradient><linearGradient id="linear-gradient-62" x1="300.35" y1="1119.16" x2="301.39" y2="1118.78" gradientTransform="matrix(188.65, 0, 0, -75.23, -55097.94, 84836.15)" gradientUnits="userSpaceOnUse"><stop offset="0.09" stop-color="#064280"/><stop offset="0.37" stop-color="#0d0730"/><stop offset="0.77" stop-color="#010333"/><stop offset="0.97" stop-color="#012060"/></linearGradient><linearGradient id="linear-gradient-63" x1="301.06" y1="1118.55" x2="301.07" y2="1118.53" gradientTransform="matrix(188.65, 0, 0, -75.23, -55097.94, 84836.15)" gradientUnits="userSpaceOnUse"><stop offset="0" stop-color="#010333" stop-opacity="0"/><stop offset="0.23" stop-color="#20f8fd"/><stop offset="0.78" stop-color="#010333" stop-opacity="0"/></linearGradient><linearGradient id="linear-gradient-64" x1="299.71" y1="1119.42" x2="300.76" y2="1118.61" gradientTransform="matrix(134.24, 0, 0, -77.44, -38630.91, 87283.71)" gradientUnits="userSpaceOnUse"><stop offset="0" stop-color="#0182aa"/><stop offset="0.61" stop-color="#0d0730"/><stop offset="1" stop-color="#010333"/></linearGradient><linearGradient id="linear-gradient-65" x1="297.52" y1="1119.73" x2="299.05" y2="1119.07" gradientTransform="matrix(68.32, 0, 0, -39.44, -18718.48, 44794.82)" xlink:href="#linear-gradient-64"/><linearGradient id="linear-gradient-66" x1="300.07" y1="1119.23" x2="300.85" y2="1118.11" gradientTransform="matrix(144.21, 0, 0, -157.3, -41611.88, 176550.72)" gradientUnits="userSpaceOnUse"><stop offset="0.09" stop-color="#064280"/><stop offset="0.63" stop-color="#0d0730"/><stop offset="1" stop-color="#010333"/></linearGradient><linearGradient id="linear-gradient-67" x1="299.96" y1="1119.21" x2="300.75" y2="1118.24" gradientTransform="matrix(138.7, 0, 0, -149.23, -39946.67, 167520.95)" gradientUnits="userSpaceOnUse"><stop offset="0" stop-color="#22b2df"/><stop offset="1" stop-color="#00447f" stop-opacity="0.98"/><stop offset="1" stop-color="#012060"/><stop offset="1" stop-color="#000c34"/><stop offset="1" stop-color="#00447f"/></linearGradient><linearGradient id="linear-gradient-68" x1="300.21" y1="1119.16" x2="298.94" y2="1119.16" gradientTransform="matrix(94.26, 0, 0, -59.48, -26500.46, 67101.79)" gradientUnits="userSpaceOnUse"><stop offset="0" stop-color="#7659ff"/><stop offset="1" stop-color="#748bff"/></linearGradient><linearGradient id="linear-gradient-69" x1="299.68" y1="1119.22" x2="300.31" y2="1118.71" gradientTransform="matrix(127.9, 0, 0, -157.93, -36669.03, 177249.11)" gradientUnits="userSpaceOnUse"><stop offset="0.08" stop-color="#00518b"/><stop offset="0.28" stop-color="#0182aa"/><stop offset="0.63" stop-color="#0d0730"/><stop offset="1" stop-color="#010333"/></linearGradient><linearGradient id="linear-gradient-70" x1="300.6" y1="1118.69" x2="300.61" y2="1118.69" gradientTransform="matrix(127.9, 0, 0, -157.93, -36669.03, 177249.11)" gradientUnits="userSpaceOnUse"><stop offset="0" stop-color="#010333" stop-opacity="0"/><stop offset="0.27" stop-color="#0182aa"/><stop offset="1" stop-color="#010333" stop-opacity="0"/></linearGradient></defs><g id="Group_9764" data-name="Group 9764"><path id="Path_2159" data-name="Path 2159" class="cls-2" d="M823.23,0c209.17,179.15,226.66,359.66-124.76,400.21-1.88.29-37.06,64.33-38.64,64.56C396.15,502,0,285.86,0,285.86V0Z" transform="translate(0)"/><path id="Path_2160" data-name="Path 2160" class="cls-3" d="M2524,1108.12c-355.49-117.6-787.85,176-1147.26-21-145.43-89.45-189.33-187.31-211.27-201.74-26.42-17.37-8.06,51.12,39.38-73.23,86.1-225.68,403.1-30,440.93-109.58S1621,512.07,1788,416.84c49.26-28.09,132.3-41.07,227-33,225,19.14,509,149.06,509,149.06S2523.58,555.79,2524,1108.12Z" transform="translate(0)"/><rect id="Rectangle_278-2" data-name="Rectangle 278-2" class="cls-4" x="508.19" y="176" width="1506" height="724" rx="20"/><path id="Path_2161" data-name="Path 2161" class="cls-5" d="M962.55,176s94,324-181.5,259.56S508.19,463,508.19,463l-.89-269s.49-5.89,6.3-11.8a22.53,22.53,0,0,1,13.53-6.34Z" transform="translate(0)"/><path id="Path_2162" data-name="Path 2162" class="cls-6" d="M1180.21,900c-.32-4.21-80.67-77.92-45.81-230.29C1168.44,520.9,1344.31,316,1344.31,316s240,157,397.59,101.89,272.32-35.47,272.32-35.47l0,501.94-5.57,9.5L1998.53,900Z" transform="translate(0)"/><g id="Group_4803" data-name="Group 4803"><g class="cls-7"><g id="Group_4802" data-name="Group 4802"><g id="Group_4694" data-name="Group 4694"><g id="Group_4693" data-name="Group 4693"><g id="Group_4692" data-name="Group 4692"><g id="Group_4691" data-name="Group 4691"><path id="Path_2232" data-name="Path 2232" class="cls-8" d="M1425.26,510.27l-16,9.3-16.09-9.3,16.09-9.3Z" transform="translate(0)"/></g><path id="Path_2233" data-name="Path 2233" class="cls-9" d="M1425.26,510.27v314l-16,9.3v-314Z" transform="translate(0)"/><path id="Path_2234" data-name="Path 2234" class="cls-10" d="M1409.24,519.57v314l-16.09-9.3v-314Z" transform="translate(0)"/></g></g><path id="Path_2235" data-name="Path 2235" class="cls-11" d="M1409.24,501l-16.08,9.3v314l16.08,9.3,16-9.3v-314Z" transform="translate(0)"/></g><g id="Group_4698" data-name="Group 4698"><g id="Group_4697" data-name="Group 4697"><g id="Group_4696" data-name="Group 4696"><g id="Group_4695" data-name="Group 4695"><path id="Path_2236" data-name="Path 2236" class="cls-12" d="M1399.08,574.4l-10.72,6.22-10.76-6.22,10.76-6.22Z" transform="translate(0)"/></g><path id="Path_2237" data-name="Path 2237" class="cls-13" d="M1399.07,574.4V784.46l-10.71,6.22V580.62Z" transform="translate(0)"/><path id="Path_2238" data-name="Path 2238" class="cls-14" d="M1388.36,580.62V790.68l-10.76-6.22V574.4Z" transform="translate(0)"/></g></g><path id="Path_2239" data-name="Path 2239" class="cls-15" d="M1388.36,568.18l-10.76,6.22V784.46l10.76,6.22,10.72-6.22V574.4Z" transform="translate(0)"/></g><g id="Group_4702" data-name="Group 4702"><g id="Group_4701" data-name="Group 4701"><g id="Group_4700" data-name="Group 4700"><g id="Group_4699" data-name="Group 4699"><path id="Path_2240" data-name="Path 2240" class="cls-16" d="M1229.12,747l-16,9.3L1197,747l16.09-9.3Z" transform="translate(0)"/></g><path id="Path_2241" data-name="Path 2241" class="cls-17" d="M1229.12,747V974.89l-16,9.3V756.31Z" transform="translate(0)"/><path id="Path_2242" data-name="Path 2242" class="cls-18" d="M1213.1,756.31V984.19l-16.09-9.3V747Z" transform="translate(0)"/></g></g><path id="Path_2243" data-name="Path 2243" class="cls-19" d="M1213.1,737.71,1197,747V974.89l16.09,9.3,16-9.3V747Z" transform="translate(0)"/></g><g id="Group_4706" data-name="Group 4706"><g id="Group_4705" data-name="Group 4705"><g id="Group_4704" data-name="Group 4704"><g id="Group_4703" data-name="Group 4703"><path id="Path_2244" data-name="Path 2244" class="cls-20" d="M1457.31,564.45l-10.06,5.84-10.1-5.83,10.1-5.84Z" transform="translate(0)"/></g><path id="Path_2245" data-name="Path 2245" class="cls-21" d="M1457.31,564.46V761.62l-10.06,5.84V570.29Z" transform="translate(0)"/><path id="Path_2246" data-name="Path 2246" class="cls-22" d="M1447.25,570.29V767.46l-10.1-5.84V564.46Z" transform="translate(0)"/></g></g><path id="Path_2247" data-name="Path 2247" class="cls-23" d="M1447.25,558.62l-10.1,5.84V761.62l10.1,5.84,10.06-5.84V564.45Z" transform="translate(0)"/></g><g id="Group_4737" data-name="Group 4737"><g id="Group_4710" data-name="Group 4710"><g id="Group_4709" data-name="Group 4709"><g id="Group_4708" data-name="Group 4708"><g id="Group_4707" data-name="Group 4707"><path id="Path_2249" data-name="Path 2249" class="cls-24" d="M1882.73,625.36,1672.89,747.17,1462.14,625.36l210.75-121.81Z" transform="translate(0)"/></g><path id="Path_2250" data-name="Path 2250" class="cls-25" d="M1882.73,625.36v305l-209.84,121.82v-305Z" transform="translate(0)"/><path id="Path_2251" data-name="Path 2251" class="cls-26" d="M1672.89,747.17v305L1462.14,930.35v-305Z" transform="translate(0)"/></g></g><path id="Path_2252" data-name="Path 2252" class="cls-4" d="M1672.89,770.23l209.84-121.81v-2.08L1672.89,768.15Z" transform="translate(0)"/><path id="Path_2253" data-name="Path 2253" class="cls-4" d="M1462.14,648.42l210.75,121.81v-2.08L1462.14,646.34Z" transform="translate(0)"/></g><g id="Group_4711" data-name="Group 4711"><path id="Path_2255" data-name="Path 2255" class="cls-27" d="M1664.39,521.89l8.81-5.12,8.86,5.12-8.8,5.12Z" transform="translate(0)"/><path id="Path_2257" data-name="Path 2257" class="cls-27" d="M1483.75,626l8.81-5.12,8.87,5.12-8.81,5.12Z" transform="translate(0)"/><path id="Path_2259" data-name="Path 2259" class="cls-27" d="M1848.13,626l8.81-5.12,8.86,5.12-8.81,5.12Z" transform="translate(0)"/><path id="Path_2261" data-name="Path 2261" class="cls-27" d="M1664.39,728l8.81-5.12,8.86,5.12-8.8,5.12Z" transform="translate(0)"/></g><g id="Group_4733" data-name="Group 4733"><g id="Group_4730" data-name="Group 4730"><path id="Path_2316" data-name="Path 2316" class="cls-28" d="M1646.89,833.17V789.61L1564.46,742v43.56Z" transform="translate(0)"/><path id="Path_2317" data-name="Path 2317" class="cls-29" d="M1564.67,742.08l-.2.12v43.33l37.68-21.78Z" transform="translate(0)"/></g><g id="Group_4731" data-name="Group 4731"><path id="Path_2318" data-name="Path 2318" class="cls-30" d="M1646.89,898.05V854.49l-82.43-47.64v43.56Z" transform="translate(0)"/><path id="Path_2319" data-name="Path 2319" class="cls-31" d="M1564.67,807l-.2.12v43.33l37.68-21.78Z" transform="translate(0)"/></g><g id="Group_4732" data-name="Group 4732"><path id="Path_2320" data-name="Path 2320" class="cls-32" d="M1646.89,962.93V919.37l-82.43-47.64v43.56Z" transform="translate(0)"/><path id="Path_2321" data-name="Path 2321" class="cls-33" d="M1564.67,871.84l-.2.12v43.33l37.68-21.78Z" transform="translate(0)"/></g></g></g><g id="Group_4747" data-name="Group 4747"><g id="Group_4740" data-name="Group 4740"><g id="Group_4739" data-name="Group 4739"><g id="Group_4738" data-name="Group 4738"><path id="Path_2332" data-name="Path 2332" class="cls-34" d="M1364.7,630.73l-58.37,33.89-58.62-33.88,58.62-33.89Z" transform="translate(0)"/></g><path id="Path_2333" data-name="Path 2333" class="cls-35" d="M1364.69,630.73V939l-58.36,33.9V664.64Z" transform="translate(0)"/><path id="Path_2334" data-name="Path 2334" class="cls-36" d="M1306.33,664.64V972.92L1247.71,939V630.73Z" transform="translate(0)"/></g></g><path id="Path_2335" data-name="Path 2335" class="cls-37" d="M1306.33,672.11l58.36-33.89v-1.41l-58.36,33.89Z" transform="translate(0)"/><path id="Path_2336" data-name="Path 2336" class="cls-37" d="M1247.71,638.22l58.62,33.88v-1.41l-58.62-33.88Z" transform="translate(0)"/><g id="Group_4741" data-name="Group 4741"><path id="Path_2338" data-name="Path 2338" class="cls-27" d="M1339.76,631l-33.48,19.43L1272.65,631l33.63-19.44Z" transform="translate(0)"/></g><g id="Group_4746" data-name="Group 4746"><path id="Path_2343" data-name="Path 2343" class="cls-38" d="M1284,686.29l-16.4-9.48V857.22l16.4,9.48Z" transform="translate(0)"/><path id="Path_2344" data-name="Path 2344" class="cls-39" d="M1267.58,857.22l16.4,9.48v-19Z" transform="translate(0)"/></g><path id="Path_2345" data-name="Path 2345" class="cls-40" d="M1306.33,713.56,1247.71,685V944.4l58.62,28.52,58.37-28.52V685Z" transform="translate(0)"/></g><g id="Group_4757" data-name="Group 4757"><g id="Group_4756" data-name="Group 4756"><g id="Group_4750" data-name="Group 4750"><g id="Group_4749" data-name="Group 4749"><g id="Group_4748" data-name="Group 4748"><path id="Path_2346" data-name="Path 2346" class="cls-41" d="M1957.27,489.74l-30.87,17.92-31-17.92,31-17.92Z" transform="translate(0)"/></g><path id="Path_2347" data-name="Path 2347" class="cls-42" d="M1957.27,489.74V762.8l-30.88,17.93V507.66Z" transform="translate(0)"/><path id="Path_2348" data-name="Path 2348" class="cls-43" d="M1926.4,507.66V780.73l-31-17.93V489.74Z" transform="translate(0)"/></g></g><path id="Path_2349" data-name="Path 2349" class="cls-4" d="M1926.4,511.49l30.87-17.92v-.75l-30.88,17.93Z" transform="translate(0)"/><path id="Path_2350" data-name="Path 2350" class="cls-4" d="M1895.39,493.57l31,17.92v-.74l-31-17.93Z" transform="translate(0)"/><path id="Path_2351" data-name="Path 2351" class="cls-44" d="M1898,414.93l10.58,74.81L1926.37,500l17.71-10.29,10.58-74.81Z" transform="translate(0)"/><g id="Group_4751" data-name="Group 4751"><path id="Path_2352" data-name="Path 2352" class="cls-27" d="M1944.08,489.74,1926.37,500l-17.79-10.28,17.79-10.29Z" transform="translate(0)"/></g><g id="Group_4755" data-name="Group 4755"><path id="Path_2353" data-name="Path 2353" class="cls-45" d="M1946.62,439.36l-.36.21-.82.48-.38.22-1,.52-.25.13c-.41.22-.82.43-1.24.63l-.32.16-1,.45-.43.19-1,.42-.38.16c-.44.19-.89.37-1.34.54l-.15.06-1.23.45-.44.16-1,.33-.44.15-1.58.48-.16,0q-.74.21-1.47.39l-.43.11-1.57.37-.09,0c-.55.12-1.11.23-1.67.33l-.41.07c-.64.12-1.28.22-1.93.31l-.15,0c-.62.09-1.25.16-1.87.23l-.39,0c-.52.05-1,.1-1.58.13h0l-1.55.08h-.56l-.91,0h-2.13l-.78,0-.65,0-.79-.05-.66-.05-.78-.08-.65-.06-.81-.1-.63-.09-1-.15-.52-.08-1.22-.24-.28,0a11.27,11.27,0,0,1-1.84-6.07l0,5a11.19,11.19,0,0,0,1.85,6.07h0l.25,0,1.21.23.53.08,1,.15.14,0,.5.07.8.1.65.06.79.08.21,0,.44,0,.79.06.65,0,.79,0h2.12l.91,0h.56l1.56-.08h0c.52,0,1-.08,1.58-.14h.15l.23,0c.62-.07,1.25-.14,1.87-.23l.15,0c.65-.09,1.29-.2,1.93-.31l.21,0,.2,0c.56-.1,1.12-.21,1.67-.33l.09,0,1.57-.37.43-.11,1.47-.39.16-.05c.53-.15,1.06-.31,1.58-.48l.17,0,.27-.09,1-.34.44-.15,1.23-.46.15-.05,1.34-.54.38-.17,1-.41.43-.19c.32-.15.65-.3,1-.46l.33-.15c.41-.21.82-.41,1.23-.63l.25-.13,1-.52.38-.22.82-.48.24-.14.12-.07,1.13-.71v-5C1947.38,438.89,1947,439.13,1946.62,439.36Z" transform="translate(0)"/><g id="Group_4752" data-name="Group 4752"><path id="Path_2354" data-name="Path 2354" class="cls-46" d="M1947.75,438.65a55,55,0,0,1-40,7.58c-5.44-8.7,1.82-17.4,13-23.19l17.13,5.7Z" transform="translate(0)"/></g><g id="Group_4753" data-name="Group 4753"><path id="Path_2355" data-name="Path 2355" class="cls-47" d="M1944.73,438.45a52.07,52.07,0,0,1-15.94,6.26,49,49,0,0,1-19.11.41c-2-3.58-1.76-7.3.63-11.08,2.1-3.31,5.8-6.49,10.75-9.25l15,5Z" transform="translate(0)"/></g><g id="Group_4754" data-name="Group 4754"><path id="Path_2356" data-name="Path 2356" class="cls-37" d="M1932.74,436.78v2.12h-14.94l0-5.69h3.66l0,3.57Z" transform="translate(0)"/></g></g></g><path id="Path_2357" data-name="Path 2357" class="cls-48" d="M1945.08,464.66l9.58-67.73H1898l9.58,67.76-12.2,7.05V744.8l31,17.93,30.88-17.93V471.74Z" transform="translate(0)"/></g><g id="Group_4764" data-name="Group 4764"><g id="Group_4760" data-name="Group 4760"><g id="Group_4759" data-name="Group 4759"><g id="Group_4758" data-name="Group 4758"><path id="Path_2358" data-name="Path 2358" class="cls-49" d="M2167.36,573.19l-127.46,74-128-74,128-74Z" transform="translate(0)"/></g><path id="Path_2359" data-name="Path 2359" class="cls-50" d="M2167.36,573.18v346.6l-127.46,74V647.17Z" transform="translate(0)"/><path id="Path_2360" data-name="Path 2360" class="cls-51" d="M2039.9,647.17v346.6l-128-74V573.19Z" transform="translate(0)"/></g></g><path id="Path_2361" data-name="Path 2361" class="cls-52" d="M2039.9,661.82l127.46-74v-1.91l-127.46,74Z" transform="translate(0)"/><path id="Path_2362" data-name="Path 2362" class="cls-4" d="M1911.89,587.84l128,74v-1.91l-128-74Z" transform="translate(0)"/><g id="Group_4761" data-name="Group 4761"><path id="Path_2363" data-name="Path 2363" class="cls-53" d="M1956.19,634.73l-16.4-9.48V805.67l16.4,9.48Z" transform="translate(0)"/><path id="Path_2364" data-name="Path 2364" class="cls-54" d="M1939.79,805.66l16.4,9.49v-19Z" transform="translate(0)"/></g><g id="Group_4762" data-name="Group 4762"><path id="Path_2365" data-name="Path 2365" class="cls-55" d="M1984.34,650.8l-16.4-9.48V821.73l16.4,9.49Z" transform="translate(0)"/><path id="Path_2366" data-name="Path 2366" class="cls-56" d="M1967.94,821.73l16.4,9.48v-19Z" transform="translate(0)"/></g><path id="Path_2367" data-name="Path 2367" class="cls-57" d="M1951,338.88,1984.07,573l55.67,32.17L2095.17,573l33.12-234.15Z" transform="translate(0)"/><g id="Group_4763" data-name="Group 4763"><path id="Path_2368" data-name="Path 2368" class="cls-27" d="M2095.17,573l-55.43,32.17L1984.07,573l55.67-32.19Z" transform="translate(0)"/></g></g><g id="Group_4781" data-name="Group 4781"><g id="Group_4768" data-name="Group 4768"><g id="Group_4767" data-name="Group 4767"><g id="Group_4766" data-name="Group 4766"><g id="Group_4765" data-name="Group 4765"><path id="Path_2369" data-name="Path 2369" class="cls-58" d="M1986.74,782.67l-127.46,74-128-74,128-74Z" transform="translate(0)"/></g><path id="Path_2370" data-name="Path 2370" class="cls-59" d="M1986.73,782.67v183l-127.45,74v-183Z" transform="translate(0)"/><path id="Path_2371" data-name="Path 2371" class="cls-60" d="M1859.28,856.66v183l-128-74v-183Z" transform="translate(0)"/></g></g><path id="Path_2372" data-name="Path 2372" class="cls-4" d="M1859.28,871.31l127.46-74v-1.91l-127.46,74Z" transform="translate(0)"/><path id="Path_2373" data-name="Path 2373" class="cls-4" d="M1731.27,797.32l128,74V869.4l-128-74Z" transform="translate(0)"/></g><g id="Group_4773" data-name="Group 4773"><g id="Group_4772" data-name="Group 4772"><path id="Path_2374" data-name="Path 2374" class="cls-61" d="M1921,763.36a2.58,2.58,0,0,1,0,.29l-.06.24c0,.07-.05.18-.08.27a1.45,1.45,0,0,1-.09.22,2.59,2.59,0,0,1-.14.29,2.25,2.25,0,0,1-.12.21l-.22.32c0,.06-.1.12-.14.19l-.4.42-.15.14a3.48,3.48,0,0,1-.28.24l-.26.2a3.15,3.15,0,0,1-.33.22c-.11.07-.22.15-.35.22l-77.8,45.22a14.34,14.34,0,0,1-13,0l-35.85-20.7c-1.82-1.05-2.72-2.42-2.72-3.8v4.75c0,1.37.9,2.75,2.71,3.8l35.85,20.7a14.36,14.36,0,0,0,13,0l77.8-45.21.11-.07.24-.16.33-.22.26-.2.28-.23,0-.05a.94.94,0,0,0,.1-.1,3.88,3.88,0,0,0,.39-.42l.09-.09.06-.09.22-.32.09-.14,0-.07c.05-.09.09-.19.14-.29l.07-.16,0-.06a2.29,2.29,0,0,0,.08-.28,1.21,1.21,0,0,0,0-.18.09.09,0,0,1,0-.05c0-.1,0-.2,0-.29a1.37,1.37,0,0,0,0-.19v-.08l0-4.75A2.6,2.6,0,0,1,1921,763.36Z" transform="translate(0)"/><g id="Group_4769" data-name="Group 4769"><path id="Path_2375" data-name="Path 2375" class="cls-62" d="M1918.31,759.3c3.6,2.08,3.62,5.46,0,7.54l-77.8,45.21a14.34,14.34,0,0,1-13,0l-35.85-20.7c-3.6-2.08-3.63-5.46,0-7.54l77.8-45.21a14.36,14.36,0,0,1,13,0ZM1838.69,811l77.8-45.21c2.55-1.49,2.53-3.9,0-5.39l-3.24-1.86-4.87.13-24.73-14.28.21-2.82-3.22-1.87a10.29,10.29,0,0,0-9.3,0l-77.8,45.22c-2.55,1.48-2.53,3.9,0,5.38L1829.4,811a10.27,10.27,0,0,0,9.29,0" transform="translate(0)"/></g><g id="Group_4770" data-name="Group 4770"><path id="Path_2376" data-name="Path 2376" class="cls-63" d="M1916.45,760.38c2.57,1.48,2.59,3.9,0,5.38L1838.68,811a10.27,10.27,0,0,1-9.29,0l-35.85-20.7c-2.57-1.48-2.58-3.9,0-5.38l77.8-45.22a10.27,10.27,0,0,1,9.29,0l3.23,1.87-.21,2.82,24.73,14.28,4.88-.13Z" transform="translate(0)"/></g><g id="Group_4771" data-name="Group 4771"><path id="Path_2377" data-name="Path 2377" class="cls-63" d="M1916.45,760.38c2.57,1.48,2.59,3.9,0,5.38L1838.68,811a10.27,10.27,0,0,1-9.29,0l-35.85-20.7c-2.57-1.48-2.58-3.9,0-5.38l77.8-45.22a10.27,10.27,0,0,1,9.29,0l3.23,1.87-.21,2.82,24.73,14.28,4.88-.13Z" transform="translate(0)"/></g></g></g></g><g id="Group_4797" data-name="Group 4797"><path id="Path_2408" data-name="Path 2408" class="cls-64" d="M1339.76,618.45V798.86l82.42,47.64,82.07-47.64V618.45Z" transform="translate(0)"/><g id="Group_4785" data-name="Group 4785"><g id="Group_4784" data-name="Group 4784"><g id="Group_4783" data-name="Group 4783"><g id="Group_4782" data-name="Group 4782"><path id="Path_2409" data-name="Path 2409" class="cls-65" d="M1504.25,757.64l-82.07,47.64-82.42-47.64L1422.18,710Z" transform="translate(0)"/></g><path id="Path_2410" data-name="Path 2410" class="cls-66" d="M1504.24,757.64V938.06l-82.06,47.64V805.28Z" transform="translate(0)"/><path id="Path_2411" data-name="Path 2411" class="cls-67" d="M1422.18,805.28V985.7l-82.42-47.64V757.64Z" transform="translate(0)"/></g></g><path id="Path_2412" data-name="Path 2412" class="cls-37" d="M1422.18,815.46l82.07-47.64v-2l-82.07,47.64Z" transform="translate(0)"/><path id="Path_2413" data-name="Path 2413" class="cls-37" d="M1339.76,767.82l82.42,47.64v-2l-82.42-47.64Z" transform="translate(0)"/></g></g><g id="Group_4801" data-name="Group 4801"><g id="Group_4800" data-name="Group 4800"><g id="Group_4799" data-name="Group 4799"><g id="Group_4798" data-name="Group 4798"><path id="Path_2453" data-name="Path 2453" class="cls-68" d="M1261,827.13l-12.81,7.43-12.86-7.43,12.86-7.44Z" transform="translate(0)"/></g><path id="Path_2454" data-name="Path 2454" class="cls-69" d="M1261,827.13V1009.3l-12.8,7.43V834.56Z" transform="translate(0)"/><path id="Path_2455" data-name="Path 2455" class="cls-70" d="M1248.15,834.56v182.18l-12.86-7.44V827.13Z" transform="translate(0)"/></g></g><path id="Path_2456" data-name="Path 2456" class="cls-71" d="M1248.15,819.69l-12.86,7.44V1009.3l12.86,7.44,12.8-7.43V827.13Z" transform="translate(0)"/></g></g></g></g><g id="Group_4685" data-name="Group 4685"><g id="Group_4684" data-name="Group 4684"><g id="Group_4679" data-name="Group 4679"><g id="Group_4675" data-name="Group 4675"><g id="Group_4670" data-name="Group 4670"><g id="Group_4669" data-name="Group 4669"><g id="Group_4668" data-name="Group 4668" class="cls-72"><g id="Group_4666" data-name="Group 4666"><path id="Path_2171" data-name="Path 2171" class="cls-73" d="M1573.14,616.7,1696,687.64a2,2,0,0,0,2,0l61.72-35.86a2,2,0,0,0,0-3.53l-122.87-70.94a2,2,0,0,0-2,0l-61.72,35.86a2,2,0,0,0-.74,2.79A1.91,1.91,0,0,0,1573.14,616.7Z" transform="translate(0)"/><g id="Group_4665" data-name="Group 4665"><path id="Path_2172" data-name="Path 2172" class="cls-74" d="M1572.12,614.94a2,2,0,0,0,1,1.76L1696,687.64a2,2,0,0,0,2,0l61.72-35.86a2,2,0,0,0,1-1.48h0v1.88a.88.88,0,0,1,0,.23v.14h0a2,2,0,0,1-1,1.47l-61.72,35.87a2.06,2.06,0,0,1-2,0L1573.14,619a2,2,0,0,1-1-1.44l0,0v-2.56Z" transform="translate(0)"/><path id="Path_2173" data-name="Path 2173" class="cls-75" d="M1572.12,614.94a2,2,0,0,0,1,1.76L1696,687.64a2,2,0,0,0,2,0l61.72-35.86a2,2,0,0,0,1-1.48h0v1.88a.88.88,0,0,1,0,.23v.14h0a2,2,0,0,1-1,1.47l-61.72,35.87a2.06,2.06,0,0,1-2,0L1573.14,619a2,2,0,0,1-1-1.44l0,0v-2.56Z" transform="translate(0)"/></g></g><g id="Group_4667" data-name="Group 4667"><path id="Path_2174" data-name="Path 2174" class="cls-76" d="M1695.67,631.2l-3.25-1.88a.46.46,0,0,1-.29-.59.42.42,0,0,1,.29-.29l3.25-1.88a1.65,1.65,0,0,1,1.53,0l3.25,1.87a.47.47,0,0,1,0,.89l-3.24,1.88A1.74,1.74,0,0,1,1695.67,631.2Zm7.17-3.76-3.92-2.26a.26.26,0,0,1-.17-.33.29.29,0,0,1,.17-.17l3.91-2.26a1,1,0,0,1,.87,0l3.92,2.26a.27.27,0,0,1,0,.5l-3.92,2.26a.93.93,0,0,1-.86,0Zm-13.66,7.9-3.93-2.27a.26.26,0,0,1-.16-.33.31.31,0,0,1,.16-.16l3.93-2.27a.91.91,0,0,1,.85,0l3.93,2.27a.26.26,0,0,1,.17.33.3.3,0,0,1-.17.16l-3.92,2.27a.93.93,0,0,1-.86,0Zm-7.18,3.74-3.22-1.85a.48.48,0,0,1-.3-.61.5.5,0,0,1,.3-.3l3.21-1.85a1.74,1.74,0,0,1,1.57,0l3.22,1.85a.49.49,0,0,1,.3.61.5.5,0,0,1-.3.3l-3.21,1.85a1.68,1.68,0,0,1-1.57,0Zm6.67-11.92-3.26-1.88a.47.47,0,0,1-.29-.59.44.44,0,0,1,.29-.29l3.25-1.88a1.67,1.67,0,0,1,1.54,0l3.25,1.87a.48.48,0,0,1,.29.6.52.52,0,0,1-.29.29l-3.25,1.88a1.72,1.72,0,0,1-1.53,0Zm-6.49,4.14-3.94-2.26a.26.26,0,0,1-.16-.33.3.3,0,0,1,.16-.17l3.93-2.27a1,1,0,0,1,.86,0l3.93,2.27a.26.26,0,0,1,.16.33.22.22,0,0,1-.16.16L1683,631.3a.91.91,0,0,1-.85,0ZM1675,635l-3.22-1.85a.48.48,0,0,1-.3-.61.5.5,0,0,1,.3-.3l3.22-1.85a1.72,1.72,0,0,1,1.56,0l3.22,1.85a.48.48,0,0,1,.3.61.5.5,0,0,1-.3.3l-3.21,1.85a1.74,1.74,0,0,1-1.57,0Zm14,8.08-3.22-1.85a.49.49,0,0,1-.3-.61.5.5,0,0,1,.3-.3l3.22-1.86a1.74,1.74,0,0,1,1.57,0l3.21,1.86a.47.47,0,0,1,.3.6.43.43,0,0,1-.3.3l-3.21,1.86a1.74,1.74,0,0,1-1.57,0Zm41.86.47-3.92-2.26a.26.26,0,0,1-.17-.33.29.29,0,0,1,.17-.17l3.91-2.26a1,1,0,0,1,.87,0l3.92,2.26a.28.28,0,0,1,.17.34.3.3,0,0,1-.17.16l-3.91,2.26a1,1,0,0,1-.87,0Zm-21-12.11-3.92-2.26a.26.26,0,0,1-.16-.34.25.25,0,0,1,.16-.16l3.91-2.26a1,1,0,0,1,.87,0l3.92,2.26a.27.27,0,0,1,0,.5l-3.92,2.26a.93.93,0,0,1-.86,0Zm1.94,27.14,3.17,1.83a.49.49,0,0,1,.31.62.48.48,0,0,1-.31.31l-3.16,1.83a1.78,1.78,0,0,1-1.62,0l-3.17-1.82a.5.5,0,0,1-.31-.63.53.53,0,0,1,.31-.31l3.17-1.83a1.81,1.81,0,0,1,1.62,0Zm26.09-11-3.92-2.26a.25.25,0,0,1-.17-.33.29.29,0,0,1,.17-.17l3.91-2.26a1,1,0,0,1,.87,0l3.92,2.26a.26.26,0,0,1,.16.34.28.28,0,0,1-.16.16l-3.92,2.26a1,1,0,0,1-.86,0Zm-35.19-12.4-3.25-1.87a.47.47,0,0,1-.29-.59.44.44,0,0,1,.29-.29l3.25-1.88a1.65,1.65,0,0,1,1.53,0l3.25,1.87a.48.48,0,0,1,.3.6.51.51,0,0,1-.3.29l-3.24,1.88a1.74,1.74,0,0,1-1.54,0Zm-6.85-11.83-3.92-2.26a.27.27,0,0,1,0-.5l3.92-2.26a.93.93,0,0,1,.86,0l3.92,2.26a.26.26,0,0,1,.17.33.29.29,0,0,1-.17.17l-3.91,2.26A1,1,0,0,1,1695.83,623.4Zm.36,16-3.93-2.26a.28.28,0,0,1-.17-.34.3.3,0,0,1,.17-.16l3.93-2.27a.91.91,0,0,1,.85,0l3.93,2.27a.26.26,0,0,1,.17.33.25.25,0,0,1-.17.16l-3.92,2.27a.93.93,0,0,1-.86,0ZM1654,622.93l-3.21-1.85a.48.48,0,0,1-.3-.61.45.45,0,0,1,.3-.3l3.21-1.86a1.74,1.74,0,0,1,1.57,0l3.22,1.86a.47.47,0,0,1,.3.6.5.5,0,0,1-.3.3l-3.22,1.86a1.74,1.74,0,0,1-1.57,0Zm13.68-7.89-3.25-1.87a.48.48,0,0,1-.3-.6.51.51,0,0,1,.3-.29l3.24-1.87a1.67,1.67,0,0,1,1.54,0l3.25,1.87a.46.46,0,0,1,.29.59.46.46,0,0,1-.29.3l-3.25,1.87a1.65,1.65,0,0,1-1.53,0Zm-6.49,4.15-3.93-2.27a.26.26,0,0,1-.17-.33.25.25,0,0,1,.17-.16l3.92-2.27a.93.93,0,0,1,.86,0l3.93,2.26a.27.27,0,0,1,.17.33.29.29,0,0,1-.17.17l-3.92,2.27a1,1,0,0,1-.86,0Zm13.65-7.9-3.92-2.26a.26.26,0,0,1-.16-.34.22.22,0,0,1,.16-.16l3.92-2.27a1,1,0,0,1,.86,0l3.92,2.26a.27.27,0,0,1,.17.34.25.25,0,0,1-.17.16l-3.91,2.27a1,1,0,0,1-.87,0Zm-28.18-8.36-3.25-1.88a.46.46,0,0,1-.29-.59.46.46,0,0,1,.29-.3l3.25-1.87a1.65,1.65,0,0,1,1.53,0l3.25,1.87a.47.47,0,0,1,.3.59.5.5,0,0,1-.3.3l-3.24,1.88A1.74,1.74,0,0,1,1646.63,602.93Zm-6.49,4.14-3.93-2.27a.25.25,0,0,1-.16-.33.25.25,0,0,1,.16-.16l3.93-2.27a.91.91,0,0,1,.85,0l3.93,2.27a.26.26,0,0,1,.17.33.3.3,0,0,1-.17.16l-3.92,2.27a.93.93,0,0,1-.86,0Zm13.65-7.9-3.92-2.26a.26.26,0,0,1-.16-.33.3.3,0,0,1,.16-.17l3.92-2.26a1,1,0,0,1,.87,0l3.92,2.26a.26.26,0,0,1,.16.33.3.3,0,0,1-.16.17l-3.92,2.26a1,1,0,0,1-.87,0Zm64.8,55.49,3.22,1.86a.47.47,0,0,1,.3.6.47.47,0,0,1-.3.3l-3.21,1.86a1.74,1.74,0,0,1-1.57,0l-3.22-1.85a.49.49,0,0,1-.3-.61.5.5,0,0,1,.3-.3l3.21-1.86a1.74,1.74,0,0,1,1.57,0Zm-43.42-27.4-3.93-2.26a.27.27,0,0,1-.16-.34.31.31,0,0,1,.16-.16l3.93-2.27a1,1,0,0,1,.86,0l3.93,2.27a.26.26,0,0,1,.16.33.25.25,0,0,1-.16.16l-3.93,2.27a.93.93,0,0,1-.86,0Zm6.49-4.14-3.25-1.88a.47.47,0,0,1-.29-.59.42.42,0,0,1,.29-.29l3.25-1.88a1.65,1.65,0,0,1,1.53,0l3.26,1.87a.47.47,0,0,1,.29.59.51.51,0,0,1-.29.3l-3.25,1.88a1.74,1.74,0,0,1-1.54,0ZM1668,631l-3.22-1.86a.48.48,0,0,1-.3-.61.5.5,0,0,1,.3-.3l3.21-1.85a1.74,1.74,0,0,1,1.57,0l3.22,1.85a.49.49,0,0,1,.3.61.5.5,0,0,1-.3.3l-3.21,1.86a1.76,1.76,0,0,1-1.58,0Zm20.84-11.65-3.92-2.26a.27.27,0,0,1-.17-.33.29.29,0,0,1,.17-.17l3.91-2.26a1,1,0,0,1,.87,0l3.92,2.26a.27.27,0,0,1,0,.5l-3.91,2.26a1,1,0,0,1-.88,0Zm-20.66,3.86-3.93-2.26a.28.28,0,0,1-.17-.34.3.3,0,0,1,.17-.16l3.92-2.27a1,1,0,0,1,.86,0l3.93,2.27a.25.25,0,0,1,.16.33.22.22,0,0,1-.16.16l-3.93,2.27a.94.94,0,0,1-.85,0ZM1661,627l-3.21-1.86a.47.47,0,0,1-.31-.6.45.45,0,0,1,.31-.3l3.21-1.86a1.74,1.74,0,0,1,1.57,0l3.21,1.85a.48.48,0,0,1,.3.61.45.45,0,0,1-.3.3l-3.21,1.86a1.74,1.74,0,0,1-1.57,0Zm13.68-7.89-3.25-1.88a.47.47,0,0,1-.3-.59.46.46,0,0,1,.3-.29l3.24-1.88a1.74,1.74,0,0,1,1.54,0l3.25,1.87a.47.47,0,0,1,.29.6.44.44,0,0,1-.29.29l-3.25,1.88a1.71,1.71,0,0,1-1.54,0Zm7.16-3.76-3.92-2.26a.26.26,0,0,1-.16-.33.25.25,0,0,1,.16-.17l3.92-2.26a.93.93,0,0,1,.86,0l3.92,2.26a.26.26,0,0,1,.17.33.29.29,0,0,1-.17.17l-3.91,2.26a1,1,0,0,1-.87,0Zm-13.15-13.1,3.92,2.26a.26.26,0,0,1,.16.34.25.25,0,0,1-.16.16l-3.91,2.27a1,1,0,0,1-.87,0l-3.92-2.26a.28.28,0,0,1-.17-.34.25.25,0,0,1,.17-.16l3.91-2.27a1,1,0,0,1,.87,0ZM1648,606.08l3.93,2.26a.26.26,0,0,1,.16.33.25.25,0,0,1-.16.17l-3.93,2.27a1,1,0,0,1-.85,0l-3.93-2.27a.26.26,0,0,1-.17-.33.25.25,0,0,1,.17-.16l3.92-2.27a.93.93,0,0,1,.86,0Zm-6.47,4.15,3.21,1.86a.47.47,0,0,1,.3.6.45.45,0,0,1-.3.3l-3.21,1.86a1.74,1.74,0,0,1-1.57,0l-3.21-1.85a.48.48,0,0,1,0-.91l3.21-1.86a1.72,1.72,0,0,1,1.56,0Zm13.64-7.9,3.25,1.87a.47.47,0,0,1,.29.59.44.44,0,0,1-.29.29l-3.25,1.88a1.65,1.65,0,0,1-1.53,0l-3.25-1.87a.48.48,0,0,1-.3-.6.51.51,0,0,1,.3-.29l3.24-1.87a1.67,1.67,0,0,1,1.54,0Zm7,4,3.26,1.88a.47.47,0,0,1,.29.59.51.51,0,0,1-.29.3l-3.25,1.87a1.67,1.67,0,0,1-1.54,0l-3.25-1.87a.47.47,0,0,1-.29-.59.48.48,0,0,1,.29-.3l3.25-1.87a1.68,1.68,0,0,1,1.53,0Zm-27.45,7.83,3.17,1.83a.49.49,0,0,1,0,.93l-3.17,1.83a1.78,1.78,0,0,1-1.62,0l-3.16-1.82a.5.5,0,0,1-.31-.63.5.5,0,0,1,.31-.31l3.16-1.83A1.78,1.78,0,0,1,1634.72,614.19Zm20.28-4.08,3.93,2.27a.25.25,0,0,1,.16.33.22.22,0,0,1-.16.16l-3.92,2.27a.93.93,0,0,1-.86,0l-3.93-2.26a.26.26,0,0,1-.16-.33.25.25,0,0,1,.16-.17l3.92-2.27a1,1,0,0,1,.86,0Zm6.66-11.93,3.92,2.26a.27.27,0,0,1,.17.33.29.29,0,0,1-.17.17l-3.91,2.26a1,1,0,0,1-.87,0l-3.92-2.26a.26.26,0,0,1-.17-.33.29.29,0,0,1,.17-.17l3.91-2.26a1,1,0,0,1,.87,0Zm-34,12,3.17,1.82a.5.5,0,0,1,.31.63.5.5,0,0,1-.31.31l-3.16,1.83a1.78,1.78,0,0,1-1.62,0l-3.17-1.83a.49.49,0,0,1-.31-.62.48.48,0,0,1,.31-.31l3.16-1.83A1.78,1.78,0,0,1,1627.71,610.16Zm97.35,40.35,3.94,2.26a.27.27,0,0,1,.16.33.3.3,0,0,1-.16.17l-3.93,2.27a1,1,0,0,1-.86,0l-3.93-2.27a.26.26,0,0,1-.16-.33.25.25,0,0,1,.16-.16l3.93-2.27a.91.91,0,0,1,.85,0Zm-84.42-64.44,11.08,6.38a.28.28,0,0,1,.17.34.27.27,0,0,1-.17.16l-3.91,2.27a1,1,0,0,1-.87,0l-11.08-6.39a.27.27,0,0,1,0-.5l3.92-2.26a.93.93,0,0,1,.86,0Zm-11.44,14.7a.27.27,0,0,1-.16-.34.31.31,0,0,1,.16-.16l3.93-2.27a1,1,0,0,1,.86,0l3.93,2.27a.26.26,0,0,1,0,.49L1634,603a.93.93,0,0,1-.86,0Zm-8.5,5.35,3.17,1.83a.49.49,0,0,1,0,.93l-3.16,1.83a1.78,1.78,0,0,1-1.62,0l-3.17-1.82a.5.5,0,0,1-.31-.63.5.5,0,0,1,.31-.31l3.17-1.83a1.78,1.78,0,0,1,1.62,0Zm27.83,8.15,3.22,1.86a.47.47,0,0,1,0,.9l-3.22,1.86a1.74,1.74,0,0,1-1.57,0l-3.21-1.85a.48.48,0,0,1,0-.91l3.21-1.86A1.74,1.74,0,0,1,1648.53,614.27Zm-28-16.15,17.1,9.85a.48.48,0,0,1,.29.61.46.46,0,0,1-.29.3l-3.22,1.86a1.74,1.74,0,0,1-1.57,0l-17.1-9.86a.49.49,0,0,1-.3-.61.5.5,0,0,1,.3-.3l3.22-1.85a1.74,1.74,0,0,1,1.57,0Zm-6.81,4,3.17,1.83a.48.48,0,0,1,.31.62.5.5,0,0,1-.31.31l-3.16,1.83a1.78,1.78,0,0,1-1.62,0l-3.17-1.83a.49.49,0,0,1,0-.93l3.16-1.83a1.78,1.78,0,0,1,1.62,0ZM1635,590.72l8.49,4.89a1,1,0,0,1,.63,1.28,1,1,0,0,1-.63.63l-1.48.86a3.69,3.69,0,0,1-3.3,0l-3.7-2.14a3.62,3.62,0,0,0-3.3,0l-3.54,2a3.69,3.69,0,0,1-3.3,0l-1.49-.86a1,1,0,0,1,0-1.9l8.33-4.82A3.63,3.63,0,0,1,1635,590.72Zm62.74,59.83,3.17,1.82a.5.5,0,0,1,.31.63.5.5,0,0,1-.31.31l-3.16,1.83a1.84,1.84,0,0,1-1.62,0l-3.17-1.83a.5.5,0,0,1-.31-.63.51.51,0,0,1,.31-.3l3.17-1.83a1.76,1.76,0,0,1,1.61,0Zm-56-32.27,45.12,26a.5.5,0,0,1,.31.63.5.5,0,0,1-.31.31l-3.16,1.82a1.78,1.78,0,0,1-1.62,0l-45.12-26a.5.5,0,0,1-.31-.63.49.49,0,0,1,.31-.3l3.17-1.83A1.79,1.79,0,0,1,1641.81,618.28Zm62.77,28.3,3.22,1.86a.48.48,0,0,1,.3.61.5.5,0,0,1-.3.3l-3.22,1.85a1.74,1.74,0,0,1-1.57,0l-3.21-1.85a.48.48,0,0,1-.3-.61.47.47,0,0,1,.3-.3l3.21-1.86a1.74,1.74,0,0,1,1.57,0Zm6.47-4.15,3.93,2.27a.25.25,0,0,1,.16.33.25.25,0,0,1-.16.16l-3.92,2.27a.93.93,0,0,1-.86,0l-3.93-2.27a.25.25,0,0,1-.16-.33.25.25,0,0,1,.16-.16l3.92-2.27a.93.93,0,0,1,.86,0Zm7,4,3.93,2.26a.27.27,0,0,1,.16.34.25.25,0,0,1-.16.16l-3.93,2.27a.91.91,0,0,1-.85,0l-3.93-2.27a.26.26,0,0,1-.17-.33.3.3,0,0,1,.17-.16l3.92-2.27a.93.93,0,0,1,.86,0Zm-13.28,8.12,3.17,1.82a.5.5,0,0,1,.31.63.53.53,0,0,1-.31.31l-3.17,1.83a1.76,1.76,0,0,1-1.61,0l-3.17-1.83a.49.49,0,0,1-.31-.62.48.48,0,0,1,.31-.31l3.16-1.83a1.81,1.81,0,0,1,1.62,0Zm6.81-4,3.21,1.86a.47.47,0,0,1,.3.6.49.49,0,0,1-.3.31l-3.21,1.85a1.74,1.74,0,0,1-1.57,0l-3.22-1.85a.49.49,0,0,1-.3-.61.5.5,0,0,1,.3-.3l3.22-1.86a1.72,1.72,0,0,1,1.56,0Zm13.58-7.94,10.32,6a.47.47,0,0,1,.29.59.51.51,0,0,1-.29.3l-3.25,1.87a1.67,1.67,0,0,1-1.54,0l-10.31-5.94a.47.47,0,0,1,0-.89l3.25-1.88a1.72,1.72,0,0,1,1.53,0Zm-14-8,3.26,1.87a.48.48,0,0,1,.29.6.52.52,0,0,1-.29.29l-3.25,1.88a1.74,1.74,0,0,1-1.54,0l-3.25-1.88a.47.47,0,0,1-.29-.59.46.46,0,0,1,.29-.3l3.25-1.87a1.65,1.65,0,0,1,1.53,0Zm-7.16,3.75,3.93,2.27a.26.26,0,0,1,0,.49l-3.93,2.27a.91.91,0,0,1-.85,0l-3.94-2.27a.26.26,0,0,1-.16-.33.31.31,0,0,1,.16-.16l3.93-2.27a1,1,0,0,1,.85,0Zm13.66-7.9,3.92,2.26a.26.26,0,0,1,.16.34.23.23,0,0,1-.16.16l-3.91,2.27a1,1,0,0,1-.87,0l-3.92-2.26a.28.28,0,0,1-.17-.34.25.25,0,0,1,.17-.16l3.91-2.27A1,1,0,0,1,1717.71,630.49Zm7,4,3.92,2.26a.27.27,0,0,1,.16.34.31.31,0,0,1-.16.16l-3.92,2.26a1,1,0,0,1-.87,0l-3.92-2.26a.26.26,0,0,1-.16-.33.3.3,0,0,1,.16-.17l3.92-2.26a1,1,0,0,1,.87,0Zm-27.15,8,3.22,1.86a.47.47,0,0,1,0,.9l-3.21,1.86a1.74,1.74,0,0,1-1.57,0l-3.22-1.85a.49.49,0,0,1-.3-.61.5.5,0,0,1,.3-.3l3.21-1.86a1.74,1.74,0,0,1,1.57,0Zm20.65-3.87,3.25,1.88a.47.47,0,0,1,.3.59.46.46,0,0,1-.3.29l-3.24,1.88a1.67,1.67,0,0,1-1.54,0l-3.25-1.87a.47.47,0,0,1,0-.89l3.24-1.88a1.71,1.71,0,0,1,1.54,0Zm-27.45,7.83,3.17,1.83a.5.5,0,0,1,.3.63.51.51,0,0,1-.3.31l-3.17,1.83a1.84,1.84,0,0,1-1.62,0l-3.17-1.83a.5.5,0,0,1-.3-.63.47.47,0,0,1,.3-.3l3.17-1.83a1.78,1.78,0,0,1,1.62,0Z" transform="translate(0)"/><path id="Path_2175" data-name="Path 2175" class="cls-77" d="M1610.94,632.59l48.87,28.22,19.45-11.23-48.87-28.22Z" transform="translate(0)"/></g></g></g></g><g id="Group_4674" data-name="Group 4674"><path id="Path_2176" data-name="Path 2176" class="cls-78" d="M1637.14,577.45l123.22,71.14a2,2,0,0,0,2.79-.74,2,2,0,0,0,.23-.61l16.91-82.08a2.06,2.06,0,0,0-1-2.18l-123.22-71.14a2,2,0,0,0-2.79.74,2,2,0,0,0-.23.61l-16.9,82.08A2,2,0,0,0,1637.14,577.45Z" transform="translate(0)"/><g id="Group_4672" data-name="Group 4672"><path id="Path_2177" data-name="Path 2177" class="cls-79" d="M1776.27,564l-117.82-68a2.63,2.63,0,0,0-3.87,1.74l-15.65,76a2.61,2.61,0,0,0,1.25,2.79l117.83,68a2.62,2.62,0,0,0,3.57-1,2.37,2.37,0,0,0,.29-.78l15.65-76A2.61,2.61,0,0,0,1776.27,564Z" transform="translate(0)"/><g id="Group_4671" data-name="Group 4671"><path id="Path_2178" data-name="Path 2178" class="cls-80" d="M1665,513.45l93.21,54.06,1-5.41L1666,508Z" transform="translate(0)"/><path id="Path_2179" data-name="Path 2179" class="cls-81" d="M1689.37,569.3l61.55,35.7,6.49-33.48-61.56-35.7Z" transform="translate(0)"/><path id="Path_2180" data-name="Path 2180" class="cls-82" d="M1684,566.17,1657.71,551l6.48-33.49,26.25,15.22Z" transform="translate(0)"/><path id="Path_2181" data-name="Path 2181" class="cls-83" d="M1704.9,608.78l40.72,23.62,4.05-20.93L1709,587.85Z" transform="translate(0)"/><path id="Path_2182" data-name="Path 2182" class="cls-84" d="M1652.56,578.53l47.9,27.78,4-20.93-47.9-27.78Z" transform="translate(0)"/><path id="Path_2183" data-name="Path 2183" class="cls-85" d="M1731.42,605.55l14.92,8.66-.19,1-14.92-8.65Z" transform="translate(0)"/><path id="Path_2184" data-name="Path 2184" class="cls-85" d="M1733.2,609.92l12.56,7.29-.19,1L1733,610.93Z" transform="translate(0)"/><path id="Path_2185" data-name="Path 2185" class="cls-85" d="M1729.69,611.22l15.5,9-.2,1-15.5-9Z" transform="translate(0)"/><path id="Path_2186" data-name="Path 2186" class="cls-85" d="M1731.12,615.39l13.48,7.82-.19,1-13.49-7.82Z" transform="translate(0)"/><path id="Path_2187" data-name="Path 2187" class="cls-85" d="M1734.93,620.94l9.09,5.27-.2,1-9.09-5.27Z" transform="translate(0)"/><path id="Path_2188" data-name="Path 2188" class="cls-85" d="M1710.29,593.29l17.43,10.12-.19,1-17.44-10.11Z" transform="translate(0)"/><path id="Path_2189" data-name="Path 2189" class="cls-85" d="M1712.84,598.11l14.3,8.3-.19,1-14.31-8.3Z" transform="translate(0)"/><path id="Path_2190" data-name="Path 2190" class="cls-85" d="M1717.51,604.17l9,5.24-.19,1-9-5.25Z" transform="translate(0)"/><path id="Path_2191" data-name="Path 2191" class="cls-85" d="M1708.54,602.3,1726,612.41l-.19,1-17.44-10.12Z" transform="translate(0)"/><path id="Path_2192" data-name="Path 2192" class="cls-85" d="M1711.41,607.3l14,8.11-.19,1-14-8.12Z" transform="translate(0)"/><path id="Path_2193" data-name="Path 2193" class="cls-86" d="M1654.49,577.84l44.66,25.9,3.42-17.68-44.66-25.9Z" transform="translate(0)"/><line id="Line_210" data-name="Line 210" class="cls-86" x1="1700.25" y1="598.05" x2="1655.59" y2="572.14"/><line id="Line_211" data-name="Line 211" class="cls-86" x1="1701.41" y1="592.04" x2="1656.75" y2="566.14"/><path id="Path_2194" data-name="Path 2194" class="cls-87" d="M1699.08,600.71l-3-7.86-5.37,2.44-5.21-17.86-6.94,6-3-7-7,7.76L1666.41,569l-4,8.37-1.69-9.45-2.48-1.44" transform="translate(0)"/><path id="Path_2195" data-name="Path 2195" class="cls-88" d="M1747.76,560.24l8.65,5,.62-3.14-8.66-5Z" transform="translate(0)"/><path id="Path_2196" data-name="Path 2196" class="cls-89" d="M1730.31,590.07l17.88,10.38,5.35-27.62-17.89-10.38Z" transform="translate(0)"/><path id="Path_2197" data-name="Path 2197" class="cls-89" d="M1698.29,545.51l30.54,17.71.83-4.25-30.55-17.72Z" transform="translate(0)"/><path id="Path_2198" data-name="Path 2198" class="cls-89" d="M1702.33,555.38,1727.52,570l.82-4.25-25.19-14.61Z" transform="translate(0)"/><path id="Path_2199" data-name="Path 2199" class="cls-89" d="M1695.67,559l30.54,17.71.83-4.25-30.55-17.72Z" transform="translate(0)"/><path id="Path_2200" data-name="Path 2200" class="cls-89" d="M1703.43,571.06l21.47,12.46.83-4.25-21.47-12.46Z" transform="translate(0)"/><path id="Path_2201" data-name="Path 2201" class="cls-81" d="M1682,537.84l4.6,2.67,1.14-5.88-4.61-2.67Z" transform="translate(0)"/><path id="Path_2202" data-name="Path 2202" class="cls-81" d="M1680.12,547.25l4.61,2.67,1.13-5.88-4.6-2.67Z" transform="translate(0)"/><path id="Path_2203" data-name="Path 2203" class="cls-81" d="M1678.3,556.66l4.61,2.67,1.13-5.88-4.6-2.67Z" transform="translate(0)"/><path id="Path_2204" data-name="Path 2204" class="cls-90" d="M1665,523.81l15.27,8.86.41-2.13-15.27-8.86Z" transform="translate(0)"/><path id="Path_2205" data-name="Path 2205" class="cls-90" d="M1664,528.62l15.27,8.86.41-2.13-15.27-8.85Z" transform="translate(0)"/><path id="Path_2206" data-name="Path 2206" class="cls-90" d="M1663.08,533.43l15.28,8.86.41-2.12-15.27-8.86Z" transform="translate(0)"/><path id="Path_2207" data-name="Path 2207" class="cls-90" d="M1662.15,538.25l15.28,8.85.41-2.12-15.28-8.86Z" transform="translate(0)"/><path id="Path_2208" data-name="Path 2208" class="cls-90" d="M1661.22,543.06l15.27,8.86.41-2.13-15.27-8.85Z" transform="translate(0)"/><path id="Path_2209" data-name="Path 2209" class="cls-90" d="M1660.29,547.87l15.27,8.86.41-2.12-15.27-8.86Z" transform="translate(0)"/><path id="Path_2210" data-name="Path 2210" class="cls-91" d="M1667.2,512.19l28.19,16.35.15-.76-28.19-16.36Z" transform="translate(0)"/></g></g><g id="Group_4673" data-name="Group 4673"><path id="Path_2211" data-name="Path 2211" class="cls-92" d="M1762.05,648.74l-.08,0h0ZM1653.9,491.94l0,0h0Zm1.56-.8a2,2,0,0,1,2.06,0l123.22,71.14a2.06,2.06,0,0,1,1,2.18l-16.91,82.08a2,2,0,0,1-1.37,1.51v0l-.9.44a2,2,0,0,0,.85-1.26l16.9-82.08a2,2,0,0,0-1-2.18l-123.22-71.14a2.06,2.06,0,0,0-1.73-.14l1.1-.56Z" transform="translate(0)"/><path id="Path_2212" data-name="Path 2212" class="cls-93" d="M1762.05,648.74l-.08,0h0ZM1653.9,491.94l0,0h0Zm1.56-.8a2,2,0,0,1,2.06,0l123.22,71.14a2.06,2.06,0,0,1,1,2.18l-16.91,82.08a2,2,0,0,1-1.37,1.51v0l-.9.44a2,2,0,0,0,.85-1.26l16.9-82.08a2,2,0,0,0-1-2.18l-123.22-71.14a2.06,2.06,0,0,0-1.73-.14l1.1-.56Z" transform="translate(0)"/></g></g></g></g></g></g></g></svg>