<svg id="Adnoc" xmlns="http://www.w3.org/2000/svg" width="181.258" height="64.375" viewBox="0 0 181.258 64.375">
  <g id="XMLID_198_" transform="translate(0 0)">
    <path id="XMLID_214_" d="M199.982,93.091c-5.865,0-10.523,4.938-10.523,11.089a10.533,10.533,0,1,0,21.046,0c0-6.064-4.658-11.089-10.523-11.089m0,19.059a7.865,7.865,0,0,1-7.59-7.97,7.641,7.641,0,1,1,7.59,7.97" transform="translate(-123.647 -51.682)" fill="#0963b0"/>
    <path id="XMLID_190_" d="M167.717,108.067,152.967,93.687v21.484h3.019V100.877l14.577,14.294V93.687h-2.846Z" transform="translate(-108.287 -51.931)" fill="#0963b0"/>
    <path id="XMLID_210_" d="M123.956,93.687h-7.332v21.484h7.332c5.865,0,10.178-4.851,10.178-10.655a10.365,10.365,0,0,0-10.178-10.829m0,18.452h-4.4V96.805h4.4a7.479,7.479,0,0,1,7.332,7.71,7.4,7.4,0,0,1-7.332,7.623" transform="translate(-92.991 -51.931)" fill="#0963b0"/>
    <path id="XMLID_187_" d="M241.9,112.15a7.979,7.979,0,0,1,0-15.94,7.079,7.079,0,0,1,5.175,2.166l1.553-2.686a9.677,9.677,0,0,0-6.642-2.6c-5.865,0-10.523,4.938-10.523,11.089a10.8,10.8,0,0,0,10.523,11,10.053,10.053,0,0,0,6.728-2.6l-1.466-2.686a7.35,7.35,0,0,1-5.348,2.252" transform="translate(-141.326 -51.682)" fill="#0963b0"/>
    <path id="XMLID_186_" d="M86.078,93.538,75.813,115.109H79l7.073-15.074,3.45,7.537H83.49l-.086.173h.086a11.234,11.234,0,0,1,9.143,6.411l.518.953h3.191Z" transform="translate(-75.813 -51.869)" fill="#0963b0"/>
    <rect id="XMLID_185_" width="3.019" height="21.484" transform="translate(102.815 9.616)" fill="#0963b0"/>
    <path id="XMLID_184_" d="M253.443,26.14a1.478,1.478,0,0,1-.69-1.386,1.337,1.337,0,0,1,1.208-1.386.84.84,0,0,1,.949.866l1.294-.693a2.422,2.422,0,0,0-2.243-1.646,2.852,2.852,0,0,0-2.76,3.032,4.671,4.671,0,0,0,.345,1.3H250.08v1.733H256.2V26.226h-2.76Z" transform="translate(-149.162 -21.895)" fill="#0963b0"/>
    <path id="XMLID_183_" d="M75.813,50.643v.087a9.172,9.172,0,0,0,8.97,9.1H99.1v-21.4H96.083V56.794H84.7a6.125,6.125,0,0,1-6.038-6.064v-.087Z" transform="translate(-75.813 -28.812)" fill="#0963b0"/>
    <path id="XMLID_182_" d="M220.29,61.343v3.032h15.7V58.051a8.475,8.475,0,0,0-8.367-8.75,7.9,7.9,0,0,0-3.536.866l1.466,2.772a5.907,5.907,0,0,1,2.07-.433,5.389,5.389,0,0,1,5.262,5.458v3.379Z" transform="translate(-136.624 -33.361)" fill="#0963b0"/>
    <path id="XMLID_181_" d="M90.88,51.7H97V49.971H94.072a1.478,1.478,0,0,1-.69-1.386A1.337,1.337,0,0,1,94.589,47.2a.84.84,0,0,1,.949.866l1.294-.693a2.422,2.422,0,0,0-2.243-1.646,2.852,2.852,0,0,0-2.76,3.032,4.67,4.67,0,0,0,.345,1.3H90.708C90.88,49.971,90.88,51.7,90.88,51.7Z" transform="translate(-82.082 -31.865)" fill="#0963b0"/>
    <rect id="XMLID_180_" width="3.019" height="3.032" transform="translate(77.284 11.868)" fill="#0963b0"/>
    <path id="XMLID_199_" d="M129.326,69.811h0l1.984,1.906a8.693,8.693,0,0,0,2.07-5.631V64.873h37.434c3.019,0,4.4-1.646,4.4-4.938V50.493h-3.019v8.23a6.308,6.308,0,0,1-.259,2.166,1.987,1.987,0,0,1-1.9.953H133.38V50.493h-5.089a7.107,7.107,0,0,0,0,14.207h2.243v1.473a5.3,5.3,0,0,1-1.208,3.638m1.208-7.97h-2.415a4.025,4.025,0,0,1-3.881-4.072,3.969,3.969,0,0,1,3.881-4.072h2.415Z" transform="translate(-94.997 -33.86)" fill="#0963b0"/>
  </g>
  <g id="XMLID_194_" transform="translate(119.203 0.087)">
    <path id="XMLID_177_" d="M360.774,94.736a22.086,22.086,0,0,1-5.693,10.655h15.181c2.846-16.46-7.5-33.959-24.41-37.771,3.45,1.04,18.286,8.23,14.922,27.115" transform="translate(-308.676 -41.113)" fill="#0963b0"/>
    <path id="XMLID_176_" d="M281.656,22.044V86.323h6.555c3.968,0,4.916.087,7.073-.26,9.4-1.386,18.027-9.356,18.89-16.46,1.38-8.316-3.019-15.68-11.386-17.5a1.09,1.09,0,0,0-.518-.087,27.906,27.906,0,0,1-7.5-.866,4.092,4.092,0,0,0-1.121,4.245,10.107,10.107,0,0,1-1.553-10.655s1.294-2.859,5.693-5.8l.086-.087a23.118,23.118,0,0,1,8.022-5.977,31.93,31.93,0,0,1,9.574-2.772c18.2-1.733,27.429,12.821,27.429,12.821V22.044Z" transform="translate(-281.656 -22.044)" fill="#0963b0"/>
    <path id="XMLID_175_" d="M342.761,48.029A29.762,29.762,0,0,0,320.68,53.4a26.738,26.738,0,0,1,4.4-1.992,4.841,4.841,0,0,0,3.709,3.638,4.611,4.611,0,0,0,5.52-3.465,5.1,5.1,0,0,0-.086-1.992c16.82-.52,25.359,12.908,25.359,12.908v-5.8a27.9,27.9,0,0,0-16.82-8.663" transform="translate(-298.081 -32.782)" fill="#0963b0"/>
  </g>
</svg>
