<svg id="Layer_1" data-name="Layer 1" xmlns="http://www.w3.org/2000/svg" viewBox="0 0 121.4 26.42"><defs><style>.cls-1{fill:#61c55f;}.cls-2{fill:#fff;}</style></defs><g id="Group_2" data-name="Group 2"><g id="Group_1" data-name="Group 1"><path id="Path_11" data-name="Path 11" class="cls-1" d="M-20.15-21.74a.48.48,0,0,1-.34-.14l-5.8-5.72h1.17A3.48,3.48,0,0,0-21.58-31,3.48,3.48,0,0,0-25-34.56h-8A.47.47,0,0,1-33.5-35a.47.47,0,0,1,.48-.48h7.9a4.44,4.44,0,0,1,4.45,4.44,4.45,4.45,0,0,1-3.4,4.32l4.25,4.2a.48.48,0,0,1,0,.68.49.49,0,0,1-.34.15Z" transform="translate(40.19 41.91)"/></g><path id="Path_12" data-name="Path 12" class="cls-1" d="M-22.65-22.56l-5.16-5.09a.49.49,0,0,0-.68,0h0a.48.48,0,0,0,0,.68h0l5.16,5.09a.47.47,0,0,0,.33.14.49.49,0,0,0,.49-.48.51.51,0,0,0-.15-.35Z" transform="translate(40.19 41.91)"/></g><g id="Group_4" data-name="Group 4"><path id="Path_13" data-name="Path 13" class="cls-2" d="M-15.56-25.39-17.11-22l-.2-.05-.35,0-.34-.31,6.18-13.3L-6-22.4-6.1-22l-.57.08L-6.86-22l-1.47-3.37Zm3.7-8-3.26,7h6.37Z" transform="translate(40.19 41.91)"/><path id="Path_14" data-name="Path 14" class="cls-2" d="M4.21-35.23,4-34.79l-.11.23H-1v12.13l-.24.2-.53,0-.2-.2V-34.56H-6.89l-.26-.24v-.42l.25-.3H3.88Z" transform="translate(40.19 41.91)"/><path id="Path_15" data-name="Path 15" class="cls-2" d="M17.7-21.79a6.77,6.77,0,0,1-3.45-.93,7,7,0,0,1-2.48-9.54,7,7,0,0,1,2.48-2.48,6.86,6.86,0,0,1,6.9,0,7,7,0,0,1,2.48,9.54,6.93,6.93,0,0,1-2.48,2.48A6.64,6.64,0,0,1,17.7-21.79Zm0-12.92a5.86,5.86,0,0,0-3,.8,6.1,6.1,0,0,0-2.16,2.18,6,6,0,0,0,0,6,6,6,0,0,0,2.16,2.17,5.9,5.9,0,0,0,5.94,0,6,6,0,0,0,2.15-2.17,6.06,6.06,0,0,0,0-6,6.07,6.07,0,0,0-2.15-2.18A5.86,5.86,0,0,0,17.7-34.71Z" transform="translate(40.19 41.91)"/><path id="Path_16" data-name="Path 16" class="cls-2" d="M53.7-21.94V-35.27h.19l.57-.05.18,0v12.41H61.8l.29.36,0,.29-.26.29Z" transform="translate(40.19 41.91)"/><path id="Path_17" data-name="Path 17" class="cls-2" d="M64.61-21.94V-35.52h4.66l.25.3.07.45-.32.22H65.56v11.63h7.36l.12.3,0,.42-.17.26Z" transform="translate(40.19 41.91)"/><path id="Path_18" data-name="Path 18" class="cls-2" d="M-17.08-22.22a.48.48,0,0,1-.48.48.48.48,0,0,1-.47-.48.47.47,0,0,1,.47-.47h0a.47.47,0,0,1,.48.47Z" transform="translate(40.19 41.91)"/><path id="Path_19" data-name="Path 19" class="cls-2" d="M-5.94-22.22a.48.48,0,0,1-.48.48.48.48,0,0,1-.47-.48.47.47,0,0,1,.48-.47.47.47,0,0,1,.47.47Z" transform="translate(40.19 41.91)"/><path id="Path_20" data-name="Path 20" class="cls-2" d="M-1-22.42a.48.48,0,0,1-.48.48A.48.48,0,0,1-2-22.42a.49.49,0,0,1,.49-.48.48.48,0,0,1,.48.48Z" transform="translate(40.19 41.91)"/><path id="Path_21" data-name="Path 21" class="cls-2" d="M62.27-22.41a.47.47,0,0,1-.47.47.47.47,0,0,1-.47-.46.47.47,0,0,1,.47-.47h0A.47.47,0,0,1,62.27-22.41Z" transform="translate(40.19 41.91)"/><path id="Path_22" data-name="Path 22" class="cls-2" d="M-6.4-35a.48.48,0,0,1-.48.48A.48.48,0,0,1-7.37-35a.49.49,0,0,1,.49-.48A.48.48,0,0,1-6.4-35Z" transform="translate(40.19 41.91)"/><path id="Path_23" data-name="Path 23" class="cls-2" d="M4.36-35a.47.47,0,0,1-.48.48A.47.47,0,0,1,3.4-35a.48.48,0,0,1,.48-.48.48.48,0,0,1,.48.48Z" transform="translate(40.19 41.91)"/><path id="Path_24" data-name="Path 24" class="cls-2" d="M54.64-35.27a.47.47,0,0,1-.47.47.47.47,0,0,1-.47-.47.47.47,0,0,1,.47-.47.47.47,0,0,1,.47.47Z" transform="translate(40.19 41.91)"/><path id="Path_25" data-name="Path 25" class="cls-2" d="M69.75-35a.48.48,0,0,1-.48.48.47.47,0,0,1-.48-.48.47.47,0,0,1,.48-.48.48.48,0,0,1,.48.48Z" transform="translate(40.19 41.91)"/><path id="Path_26" data-name="Path 26" class="cls-2" d="M73.42-22.43a.5.5,0,0,1-.5.49.49.49,0,0,1-.49-.49.49.49,0,0,1,.49-.49.49.49,0,0,1,.5.49Z" transform="translate(40.19 41.91)"/><path id="Path_27" data-name="Path 27" class="cls-2" d="M42-25.39,40.46-22l-.2-.05-.35,0-.34-.31,6.18-13.3L51.58-22.4l-.12.36-.57.08L50.71-22l-1.47-3.37Zm3.7-8-3.26,7h6.37Z" transform="translate(40.19 41.91)"/><path id="Path_28" data-name="Path 28" class="cls-2" d="M40.49-22.22a.49.49,0,0,1-.48.48.48.48,0,0,1-.47-.48.47.47,0,0,1,.47-.47.47.47,0,0,1,.48.47Z" transform="translate(40.19 41.91)"/><path id="Path_29" data-name="Path 29" class="cls-2" d="M51.62-22.22a.48.48,0,0,1-.47.48.49.49,0,0,1-.48-.48.48.48,0,0,1,.48-.47.47.47,0,0,1,.47.47Z" transform="translate(40.19 41.91)"/><path id="Path_30" data-name="Path 30" class="cls-2" d="M8.21-35.16a.47.47,0,0,0-.48-.48.49.49,0,0,0-.48.48h0v0h0v5.86h0v6.86h0v0a.48.48,0,0,0,.48.48.47.47,0,0,0,.48-.48h0v-5.72h0v-7h0Z" transform="translate(40.19 41.91)"/><path id="Path_31" data-name="Path 31" class="cls-2" d="M27.17-35.16a.49.49,0,0,0-.49-.48.49.49,0,0,0-.48.48v0h0v5.86h0v6.86h0s0,0,0,0a.49.49,0,0,0,.48.49.49.49,0,0,0,.49-.49h0v-5.72h0v-7h0Z" transform="translate(40.19 41.91)"/><path id="Path_32" data-name="Path 32" class="cls-2" d="M27.17-35a.49.49,0,0,0-.49-.49.49.49,0,0,0-.48.49h0v5.72h0v6.86h0s0,0,0,0a.49.49,0,0,0,.48.48.49.49,0,0,0,.49-.48h0v-5.72h0V-35h0Z" transform="translate(40.19 41.91)"/><path id="Path_33" data-name="Path 33" class="cls-2" d="M27-35.55a.49.49,0,0,0-.68,0,.48.48,0,0,0,0,.67h0l4.07,4h0l4.51,4.44h0v0a.48.48,0,0,0,.68,0,.48.48,0,0,0,0-.68h0l-3.69-3.65h0L27-35.53h0Z" transform="translate(40.19 41.91)"/><path id="Path_34" data-name="Path 34" class="cls-2" d="M36.37-22.58a.49.49,0,0,0,.46.5.48.48,0,0,0,.51-.46v-.06h0v-5.72h0v-6.86h0v0a.49.49,0,0,0-.51-.46.5.5,0,0,0-.46.46h0v5.72h0v6.86h0S36.37-22.59,36.37-22.58Z" transform="translate(40.19 41.91)"/><path id="Path_35" data-name="Path 35" class="cls-2" d="M36.52-22.07a.48.48,0,0,0,.68,0,.49.49,0,0,0,0-.68l0,0h0l-4.07-4h0L28.6-31.22h0a0,0,0,0,0,0,0,.48.48,0,0,0-.68,0,.48.48,0,0,0,0,.68h0l3.69,3.64h0l4.89,4.81h0S36.51-22.07,36.52-22.07Z" transform="translate(40.19 41.91)"/><path id="Path_36" data-name="Path 36" class="cls-2" d="M68.93-29.63a.47.47,0,0,0,.48-.48.48.48,0,0,0-.48-.48h-3.3a.49.49,0,0,0-.48.48.48.48,0,0,0,.48.48h3.3Z" transform="translate(40.19 41.91)"/><path id="Path_37" data-name="Path 37" class="cls-2" d="M70-27.7a.48.48,0,0,0,.46-.5.48.48,0,0,0-.46-.46h-3.3a.49.49,0,0,0-.46.5.48.48,0,0,0,.46.46H70Z" transform="translate(40.19 41.91)"/><g id="Group_3" data-name="Group 3"><path id="Path_38" data-name="Path 38" class="cls-2" d="M81.21-15.49H-40.19V-41.91H81.21ZM-38.85-16.82H79.88V-40.58H-38.85Z" transform="translate(40.19 41.91)"/></g></g></svg>