<svg id="Layer_1" data-name="Layer 1" xmlns="http://www.w3.org/2000/svg" viewBox="0 0 33.2 32.26"><defs><style>.cls-1{fill:#fff;}</style></defs><g id="Rationaletech-1"><g id="Group_2" data-name="Group 2"><g id="Group_1" data-name="Group 1"><path id="Path_11" data-name="Path 11" class="cls-1" d="M-306,1.35a.58.58,0,0,1-.41-.17l-7.08-7h1.43a4.25,4.25,0,0,0,4.25-4.25,4.25,4.25,0,0,0-4.25-4.25h-9.65a.58.58,0,0,1-.59-.59.59.59,0,0,1,.59-.59h9.65a5.43,5.43,0,0,1,5.42,5.43,5.42,5.42,0,0,1-4.14,5.27l5.2,5.13a.59.59,0,0,1,0,.83.58.58,0,0,1-.41.17Z" transform="translate(330.49 23.29)"/></g><path id="Path_12" data-name="Path 12" class="cls-1" d="M-309.09.34l-6.3-6.22a.59.59,0,0,0-.83,0h0a.6.6,0,0,0,0,.84h0l6.3,6.21a.58.58,0,0,0,.41.17.58.58,0,0,0,.59-.58.59.59,0,0,0-.17-.42Z" transform="translate(330.49 23.29)"/></g><g id="Group_5" data-name="Group 5"><g id="Group_4" data-name="Group 4"><g id="Group_3" data-name="Group 3"><path id="Path_38" data-name="Path 38" class="cls-1" d="M-297.29,9h-33.2V-23.29h33.2Zm-31.58-1.63h29.95v-29h-29.95Z" transform="translate(330.49 23.29)"/></g></g></g></g></svg>