<svg xmlns="http://www.w3.org/2000/svg" width="148.225" height="32.263" viewBox="0 0 148.225 32.263">
  <g id="Rationaletech-1" transform="translate(-50.91 -19.046)">
    <g id="Group_2" data-name="Group 2" transform="translate(59.066 26.845)">
      <g id="Group_1" data-name="Group 1">
        <path id="Path_11" data-name="Path 11" d="M76.228,44.5a.582.582,0,0,1-.413-.168L68.73,37.344h1.433a4.25,4.25,0,1,0,0-8.5H60.513a.588.588,0,0,1,0-1.177h9.649a5.427,5.427,0,0,1,1.279,10.7l5.2,5.124a.588.588,0,0,1-.412,1.007Z" transform="translate(-59.926 -27.667)" fill="#fff"/>
      </g>
      <path id="Path_12" data-name="Path 12" d="M73.8,44.486l-6.3-6.217a.585.585,0,0,0-.83.005.588.588,0,0,0,0,.833l6.3,6.217a.58.58,0,0,0,.412.168.588.588,0,0,0,.415-1.007Z" transform="translate(-60.553 -28.662)" fill="#fff"/>
    </g>
    <g id="Group_5" data-name="Group 5" transform="translate(50.91 19.046)">
      <g id="Group_4" data-name="Group 4">
        <path id="Path_13" data-name="Path 13" d="M83.835,40.023,81.94,44.1l-.243-.055-.428.024-.413-.39L88.4,27.443l7.125,16.221-.146.448-.69.1-.223-.081-1.8-4.106Zm4.517-9.748-3.981,8.6h7.784Z" transform="translate(-53.766 -19.847)" fill="#fff"/>
        <path id="Path_14" data-name="Path 14" d="M109.371,28.028l-.266.527-.14.289h-5.97V43.652l-.288.245-.643-.025-.243-.241V28.844H95.825l-.318-.3.006-.508.312-.37h13.139Z" transform="translate(-55.164 -19.869)" fill="#fff"/>
        <path id="Path_15" data-name="Path 15" d="M128.156,44.414a8.2,8.2,0,0,1-4.211-1.135,8.509,8.509,0,0,1,0-14.673,8.366,8.366,0,0,1,8.419,0,8.508,8.508,0,0,1,0,14.673A8.183,8.183,0,0,1,128.156,44.414Zm0-15.768a6.975,6.975,0,0,0-3.624.981,7.356,7.356,0,0,0-2.641,2.654,7.31,7.31,0,0,0,0,7.324,7.365,7.365,0,0,0,2.641,2.652,7.173,7.173,0,0,0,7.247,0,7.277,7.277,0,0,0,2.627-2.652,7.393,7.393,0,0,0,0-7.324,7.268,7.268,0,0,0-2.627-2.654A6.97,6.97,0,0,0,128.156,28.646Z" transform="translate(-57.478 -19.85)" fill="#fff"/>
        <path id="Path_16" data-name="Path 16" d="M177.636,44.281V28l.23.014.691-.062.229.018V43.134h8.741l.353.433-.043.358-.309.356Z" transform="translate(-62.998 -19.896)" fill="#fff"/>
        <path id="Path_17" data-name="Path 17" d="M192.365,44.254V27.669h5.684l.306.362.081.554-.387.26h-4.535V43.055h8.993l.151.367.056.509-.207.323Z" transform="translate(-64.403 -19.869)" fill="#fff"/>
        <path id="Path_18" data-name="Path 18" d="M81.973,45.563a.581.581,0,1,1-.581-.582A.58.58,0,0,1,81.973,45.563Z" transform="translate(-53.762 -21.52)" fill="#fff"/>
        <path id="Path_19" data-name="Path 19" d="M97.006,45.563a.58.58,0,1,1-.579-.582A.578.578,0,0,1,97.006,45.563Z" transform="translate(-55.196 -21.52)" fill="#fff"/>
        <path id="Path_20" data-name="Path 20" d="M103.662,45.292a.588.588,0,1,1-.588-.588A.587.587,0,0,1,103.662,45.292Z" transform="translate(-55.83 -21.494)" fill="#fff"/>
        <path id="Path_21" data-name="Path 21" d="M189.079,45.31a.572.572,0,1,1-.57-.569A.571.571,0,0,1,189.079,45.31Z" transform="translate(-63.981 -21.497)" fill="#fff"/>
        <path id="Path_22" data-name="Path 22" d="M96.385,28.257a.588.588,0,1,1-.588-.588A.587.587,0,0,1,96.385,28.257Z" transform="translate(-55.136 -19.869)" fill="#fff"/>
        <path id="Path_23" data-name="Path 23" d="M110.909,28.257a.588.588,0,1,1-.587-.588A.587.587,0,0,1,110.909,28.257Z" transform="translate(-56.521 -19.869)" fill="#fff"/>
        <path id="Path_24" data-name="Path 24" d="M178.786,27.944a.575.575,0,1,1-.575-.576A.575.575,0,0,1,178.786,27.944Z" transform="translate(-62.998 -19.84)" fill="#fff"/>
        <path id="Path_25" data-name="Path 25" d="M199.173,28.257a.587.587,0,1,1-.587-.588A.587.587,0,0,1,199.173,28.257Z" transform="translate(-64.941 -19.869)" fill="#fff"/>
        <path id="Path_26" data-name="Path 26" d="M204.113,45.278a.6.6,0,1,1-.6-.6A.6.6,0,0,1,204.113,45.278Z" transform="translate(-65.41 -21.491)" fill="#fff"/>
        <path id="Path_27" data-name="Path 27" d="M161.541,40.023l-1.9,4.073-.241-.055-.428.024-.413-.39,7.546-16.232,7.124,16.221-.145.448-.693.1-.223-.081-1.8-4.106Zm4.515-9.748-3.979,8.6h7.782Z" transform="translate(-61.179 -19.847)" fill="#fff"/>
        <path id="Path_28" data-name="Path 28" d="M159.677,45.563a.58.58,0,1,1-.579-.582A.579.579,0,0,1,159.677,45.563Z" transform="translate(-61.175 -21.52)" fill="#fff"/>
        <path id="Path_29" data-name="Path 29" d="M174.712,45.563a.58.58,0,1,1-.581-.582A.58.58,0,0,1,174.712,45.563Z" transform="translate(-62.609 -21.52)" fill="#fff"/>
        <path id="Path_30" data-name="Path 30" d="M116.108,28.1a.587.587,0,1,0-1.174,0c0,.005,0,.009,0,.014h0v7.164h0v8.376l.006.006a.217.217,0,0,0-.006.032.587.587,0,0,0,1.174,0c0-.005,0-.01,0-.014l0,0V36.692h0V28.133l-.005-.005C116.1,28.119,116.108,28.109,116.108,28.1Z" transform="translate(-57.017 -19.853)" fill="#fff"/>
        <path id="Path_31" data-name="Path 31" d="M141.695,28.1a.589.589,0,0,0-1.178,0c0,.005,0,.009,0,.014h0v7.164h0v8.376l.008.006c0,.012-.008.021-.008.032a.589.589,0,0,0,1.178,0c0-.005,0-.01,0-.014V36.692h0V28.133l-.009-.005A.153.153,0,0,0,141.695,28.1Z" transform="translate(-59.458 -19.853)" fill="#fff"/>
        <path id="Path_32" data-name="Path 32" d="M141.695,28.265a.589.589,0,0,0-1.178,0c0,.005,0,.011,0,.017h0v6.983h0v8.378l.008,0c0,.011-.008.02-.008.03a.589.589,0,1,0,1.178,0c0-.005,0-.009,0-.013h0V36.679h0V28.3l-.009-.005A.132.132,0,0,0,141.695,28.265Z" transform="translate(-59.458 -19.869)" fill="#fff"/>
        <path id="Path_33" data-name="Path 33" d="M141.519,27.611a.588.588,0,0,0-.825.839s.009,0,.011.008h0l4.977,4.9,0,0,5.5,5.425h.009c.005.007.009.017.016.026a.589.589,0,1,0,.825-.839s-.009,0-.014-.007v0l-4.507-4.447h0l-5.97-5.877h-.009C141.529,27.629,141.527,27.619,141.519,27.611Z" transform="translate(-59.458 -19.847)" fill="#fff"/>
        <path id="Path_34" data-name="Path 34" d="M154.248,43.443a.588.588,0,1,0,1.176,0l0-.014V36.445h0V28.067l-.006-.006c0-.011.006-.019.006-.03a.588.588,0,0,0-1.176,0c0,.005,0,.008,0,.014l0,0v6.983h0v8.377l.007.007C154.255,43.423,154.248,43.432,154.248,43.443Z" transform="translate(-60.767 -19.847)" fill="#fff"/>
        <path id="Path_35" data-name="Path 35" d="M153.315,44.629a.587.587,0,1,0,.823-.837l-.01-.008v0l-4.976-4.9h0l-5.5-5.427h-.009c-.007-.006-.009-.017-.018-.024a.588.588,0,0,0-.825.837s.009,0,.014.008v0l4.509,4.447h0l5.972,5.877h.007C153.3,44.613,153.307,44.621,153.315,44.629Z" transform="translate(-59.659 -20.402)" fill="#fff"/>
        <path id="Path_36" data-name="Path 36" d="M197.707,35.5a.588.588,0,1,0,0-1.175c-.006,0-.009,0-.014,0v0h-3.985l-.005.006c-.012,0-.02-.006-.033-.006a.588.588,0,0,0,0,1.175l.015,0,0,0h3.984l.005-.006A.185.185,0,0,0,197.707,35.5Z" transform="translate(-64.472 -20.504)" fill="#fff"/>
        <path id="Path_37" data-name="Path 37" d="M199.136,38.1a.588.588,0,0,0,0-1.176l-.014,0h-.372v0h-3.614l-.005.007a.189.189,0,0,0-.031-.007.588.588,0,0,0,0,1.176l.014,0h2.22v0H199.1l.005-.006C199.117,38.1,199.124,38.1,199.136,38.1Z" transform="translate(-64.608 -20.752)" fill="#fff"/>
        <g id="Group_3" data-name="Group 3">
          <path id="Path_38" data-name="Path 38" d="M199.135,51.309H50.91V19.046H199.135Zm-146.6-1.626H197.508V20.672H52.536Z" transform="translate(-50.91 -19.046)" fill="#fff"/>
        </g>
      </g>
    </g>
  </g>
</svg>
