<svg width="122" height="27" viewBox="0 0 122 27" fill="none" xmlns="http://www.w3.org/2000/svg">
<path d="M20.0326 20.7484C19.9698 20.7488 19.9075 20.7369 19.8493 20.7132C19.7912 20.6895 19.7382 20.6546 19.6936 20.6104L13.8936 14.8884H15.0656C15.5276 14.8962 15.9866 14.812 16.4157 14.6406C16.8449 14.4692 17.2356 14.2141 17.5651 13.8901C17.8946 13.5661 18.1563 13.1798 18.3349 12.7536C18.5136 12.3275 18.6056 11.87 18.6056 11.4079C18.6056 10.9458 18.5136 10.4883 18.3349 10.0621C18.1563 9.63598 17.8946 9.24964 17.5651 8.92567C17.2356 8.6017 16.8449 8.34658 16.4157 8.17518C15.9866 8.00379 15.5276 7.91955 15.0656 7.92738H7.16559C7.03776 7.92738 6.91516 7.8766 6.82477 7.78621C6.73438 7.69582 6.68359 7.57322 6.68359 7.44538C6.68359 7.31755 6.73438 7.19495 6.82477 7.10456C6.91516 7.01416 7.03776 6.96338 7.16559 6.96338H15.0656C16.1538 6.96202 17.2047 7.35999 18.019 8.08183C18.8333 8.80368 19.3545 9.79922 19.4837 10.8797C19.6129 11.9602 19.3412 13.0506 18.72 13.9441C18.0988 14.8376 17.1714 15.4721 16.1136 15.7274L20.3716 19.9274C20.4401 19.9943 20.487 20.0802 20.5064 20.1739C20.5258 20.2677 20.5168 20.3651 20.4805 20.4537C20.4442 20.5423 20.3823 20.6181 20.3027 20.6713C20.223 20.7245 20.1293 20.7527 20.0336 20.7524L20.0326 20.7484Z" fill="white"/>
<path d="M17.5321 19.923L12.3721 14.831C12.3276 14.7862 12.2746 14.7506 12.2163 14.7263C12.1579 14.702 12.0953 14.6895 12.0321 14.6895C11.9689 14.6895 11.9063 14.702 11.848 14.7263C11.7896 14.7506 11.7367 14.7862 11.6921 14.831C11.6473 14.8758 11.6118 14.929 11.5875 14.9875C11.5633 15.046 11.5508 15.1087 11.5508 15.172C11.5508 15.2354 11.5633 15.2981 11.5875 15.3566C11.6118 15.4151 11.6473 15.4683 11.6921 15.513L16.8521 20.605C16.8965 20.6491 16.9491 20.6839 17.0069 20.7076C17.0647 20.7313 17.1266 20.7433 17.1891 20.743C17.2848 20.7433 17.3785 20.7151 17.4581 20.662C17.5377 20.6088 17.5997 20.5332 17.6361 20.4447C17.6726 20.3562 17.6819 20.2589 17.6628 20.1651C17.6438 20.0713 17.5972 19.9853 17.5291 19.918L17.5321 19.923Z" fill="white"/>
<path d="M24.6285 17.1004L23.0765 20.4354L22.8765 20.3904L22.5265 20.4104L22.1875 20.0914L28.3675 6.79736L34.1985 20.0824L34.0795 20.4494L33.5145 20.5304L33.3285 20.4634L31.8515 17.1004H24.6285ZM28.3285 9.11636L25.0625 16.1544H31.4375L28.3285 9.11636Z" fill="white"/>
<path d="M44.3961 7.25926L44.1781 7.69126L44.0631 7.92726H39.1731V20.0553L38.9371 20.2553L38.4101 20.2343L38.2101 20.0343V7.92726H33.3001L33.0391 7.68426L33.0441 7.26826L33.3001 6.96826H44.0611L44.3961 7.25926Z" fill="white"/>
<path d="M57.8835 20.6943C56.671 20.7016 55.4791 20.3802 54.4345 19.7643C53.3876 19.1492 52.5196 18.2711 51.9165 17.2172C51.3134 16.1633 50.9961 14.9701 50.9961 13.7558C50.9961 12.5416 51.3134 11.3484 51.9165 10.2945C52.5196 9.24055 53.3876 8.36251 54.4345 7.74734C55.4818 7.13701 56.6723 6.81543 57.8845 6.81543C59.0967 6.81543 60.2872 7.13701 61.3345 7.74734C62.3817 8.36231 63.25 9.24028 63.8533 10.2942C64.4566 11.3481 64.7739 12.5415 64.7739 13.7558C64.7739 14.9702 64.4566 16.1635 63.8533 17.2175C63.25 18.2714 62.3817 19.1494 61.3345 19.7643C60.2896 20.3811 59.0969 20.7025 57.8835 20.6943ZM57.8835 7.78035C56.8397 7.77085 55.8132 8.04753 54.9155 8.58035C54.0191 9.10631 53.2739 9.85524 52.7525 10.7543C52.2246 11.666 51.9467 12.7009 51.9467 13.7543C51.9467 14.8078 52.2246 15.8427 52.7525 16.7543C53.2745 17.6525 54.0195 18.4007 54.9155 18.9263C55.8157 19.4532 56.84 19.7309 57.883 19.7309C58.9261 19.7309 59.9503 19.4532 60.8505 18.9263C61.7442 18.4017 62.4855 17.653 63.0015 16.7543C63.5228 15.8404 63.797 14.8065 63.797 13.7543C63.797 12.7022 63.5228 11.6683 63.0015 10.7543C62.4861 9.85473 61.7446 9.10533 60.8505 8.58035C59.9533 8.04747 58.9271 7.77077 57.8835 7.78035Z" fill="white"/>
<path d="M93.8867 20.5483V7.21427L94.0747 7.22627L94.6407 7.17627L94.8277 7.19127V19.6083H101.987L102.276 19.9633L102.24 20.2563L101.987 20.5473L93.8867 20.5483Z" fill="white"/>
<path d="M104.801 20.5483V6.96533H109.456L109.706 7.26533L109.773 7.71833L109.456 7.93133H105.742V19.5663H113.107L113.231 19.8663L113.277 20.2833L113.107 20.5473L104.801 20.5483Z" fill="white"/>
<path d="M23.1043 20.267C23.1043 20.3612 23.0764 20.4532 23.0241 20.5315C22.9718 20.6097 22.8975 20.6708 22.8105 20.7068C22.7235 20.7428 22.6278 20.7522 22.5355 20.7339C22.4431 20.7155 22.3583 20.6702 22.2918 20.6036C22.2252 20.537 22.1799 20.4522 22.1615 20.3599C22.1431 20.2675 22.1525 20.1718 22.1886 20.0849C22.2246 19.9979 22.2856 19.9235 22.3639 19.8712C22.4422 19.8189 22.5342 19.791 22.6283 19.791C22.6909 19.7909 22.7529 19.8031 22.8107 19.827C22.8685 19.8509 22.921 19.8859 22.9652 19.9301C23.0095 19.9744 23.0445 20.0269 23.0684 20.0847C23.0923 20.1425 23.1045 20.2045 23.1043 20.267Z" fill="white"/>
<path d="M34.2469 20.267C34.2467 20.361 34.2186 20.4527 34.1663 20.5307C34.1139 20.6087 34.0396 20.6695 33.9527 20.7052C33.8659 20.741 33.7703 20.7502 33.6782 20.7317C33.5861 20.7132 33.5016 20.6678 33.4353 20.6012C33.369 20.5346 33.3239 20.4499 33.3058 20.3577C33.2877 20.2655 33.2973 20.17 33.3334 20.0833C33.3696 19.9966 33.4306 19.9225 33.5088 19.8705C33.587 19.8185 33.6789 19.7908 33.7729 19.791C33.8353 19.7909 33.8972 19.8031 33.9549 19.827C34.0126 19.8509 34.065 19.886 34.1091 19.9303C34.1531 19.9745 34.188 20.0271 34.2116 20.0849C34.2353 20.1427 34.2473 20.2046 34.2469 20.267Z" fill="white"/>
<path d="M39.1749 20.067C39.1749 20.1623 39.1467 20.2555 39.0937 20.3348C39.0407 20.414 38.9655 20.4758 38.8774 20.5123C38.7893 20.5488 38.6924 20.5583 38.5989 20.5397C38.5054 20.5211 38.4195 20.4752 38.3521 20.4078C38.2847 20.3404 38.2388 20.2545 38.2202 20.161C38.2016 20.0675 38.2111 19.9706 38.2476 19.8825C38.2841 19.7944 38.3459 19.7192 38.4252 19.6662C38.5044 19.6132 38.5976 19.585 38.6929 19.585C38.7563 19.5847 38.8191 19.597 38.8777 19.6211C38.9363 19.6452 38.9895 19.6807 39.0344 19.7256C39.0792 19.7704 39.1147 19.8236 39.1388 19.8822C39.1629 19.9408 39.1752 20.0036 39.1749 20.067Z" fill="white"/>
<path d="M102.456 20.0793C102.456 20.172 102.429 20.2627 102.378 20.3399C102.326 20.4172 102.253 20.4775 102.168 20.5132C102.082 20.5489 101.988 20.5584 101.897 20.5405C101.806 20.5225 101.723 20.478 101.657 20.4126C101.591 20.3471 101.547 20.2636 101.529 20.1727C101.51 20.0818 101.52 19.9876 101.555 19.902C101.591 19.8163 101.651 19.7432 101.728 19.6918C101.805 19.6404 101.896 19.6131 101.989 19.6133C102.112 19.6135 102.231 19.6627 102.318 19.75C102.406 19.8373 102.455 19.9557 102.456 20.0793Z" fill="white"/>
<path d="M33.7843 7.44733C33.7843 7.54266 33.756 7.63585 33.7031 7.71512C33.6501 7.79438 33.5748 7.85616 33.4868 7.89264C33.3987 7.92912 33.3018 7.93867 33.2083 7.92007C33.1148 7.90147 33.0289 7.85557 32.9615 7.78816C32.8941 7.72075 32.8482 7.63486 32.8296 7.54137C32.811 7.44787 32.8205 7.35095 32.857 7.26288C32.8935 7.17481 32.9553 7.09953 33.0345 7.04656C33.1138 6.9936 33.207 6.96533 33.3023 6.96533C33.3656 6.9652 33.4284 6.97758 33.4869 7.00175C33.5455 7.02593 33.5986 7.06143 33.6434 7.10621C33.6882 7.151 33.7237 7.20418 33.7479 7.26272C33.7721 7.32126 33.7844 7.384 33.7843 7.44733Z" fill="white"/>
<path d="M44.5479 7.44733C44.5477 7.54242 44.5194 7.63532 44.4664 7.71429C44.4134 7.79326 44.3382 7.85475 44.2503 7.891C44.1624 7.92726 44.0657 7.93664 43.9725 7.91797C43.8792 7.89929 43.7936 7.85341 43.7265 7.7861C43.6593 7.71879 43.6136 7.63308 43.5951 7.5398C43.5766 7.44653 43.5862 7.34986 43.6226 7.26203C43.6591 7.1742 43.7207 7.09913 43.7998 7.04633C43.8789 6.99352 43.9718 6.96533 44.0669 6.96533C44.1302 6.96533 44.1928 6.97781 44.2512 7.00204C44.3097 7.02628 44.3627 7.06179 44.4074 7.10657C44.4521 7.15134 44.4875 7.20448 44.5116 7.26295C44.5357 7.32143 44.5481 7.38408 44.5479 7.44733Z" fill="white"/>
<path d="M94.8287 7.21419C94.8285 7.3073 94.8007 7.39826 94.7489 7.47559C94.697 7.55291 94.6233 7.61313 94.5373 7.64862C94.4512 7.68412 94.3565 7.6933 94.2652 7.67501C94.1739 7.65673 94.0901 7.61179 94.0243 7.54588C93.9586 7.47997 93.9138 7.39605 93.8957 7.30471C93.8776 7.21337 93.887 7.11872 93.9227 7.03271C93.9584 6.94671 94.0187 6.87321 94.0961 6.8215C94.1736 6.76979 94.2646 6.74219 94.3577 6.74219C94.4197 6.74219 94.481 6.7544 94.5382 6.77814C94.5954 6.80187 94.6474 6.83665 94.6911 6.88049C94.7349 6.92434 94.7695 6.97638 94.7932 7.03364C94.8168 7.0909 94.8289 7.15225 94.8287 7.21419Z" fill="white"/>
<path d="M109.935 7.44733C109.934 7.54242 109.906 7.63532 109.853 7.71429C109.8 7.79326 109.725 7.85475 109.637 7.891C109.549 7.92726 109.452 7.93664 109.359 7.91797C109.266 7.89929 109.18 7.85341 109.113 7.7861C109.046 7.71879 109 7.63308 108.982 7.5398C108.963 7.44653 108.973 7.34986 109.009 7.26203C109.046 7.1742 109.107 7.09913 109.187 7.04633C109.266 6.99352 109.359 6.96533 109.454 6.96533C109.517 6.96533 109.58 6.97781 109.638 7.00204C109.696 7.02628 109.749 7.06179 109.794 7.10657C109.839 7.15134 109.874 7.20448 109.898 7.26295C109.922 7.32143 109.935 7.38408 109.935 7.44733Z" fill="white"/>
<path d="M113.599 20.0569C113.599 20.154 113.57 20.2488 113.516 20.3295C113.462 20.4101 113.385 20.4728 113.295 20.5099C113.206 20.5469 113.107 20.5564 113.012 20.5374C112.917 20.5183 112.829 20.4715 112.761 20.4028C112.692 20.3341 112.645 20.2466 112.627 20.1514C112.608 20.0562 112.617 19.9575 112.655 19.8678C112.692 19.7782 112.755 19.7015 112.836 19.6476C112.916 19.5937 113.011 19.5649 113.108 19.5649C113.173 19.5648 113.237 19.5775 113.296 19.6021C113.356 19.6268 113.41 19.6631 113.456 19.7088C113.502 19.7545 113.538 19.8088 113.562 19.8686C113.587 19.9283 113.599 19.9923 113.599 20.0569Z" fill="white"/>
<path d="M82.1969 17.1004L80.6429 20.4354L80.4429 20.3904L80.0929 20.4104L79.7539 20.0914L85.9339 6.79736L91.7679 20.0824L91.6489 20.4494L91.0819 20.5304L90.8999 20.4634L89.4239 17.1004H82.1969ZM85.8969 9.11636L82.6369 16.1544H89.0109L85.8969 9.11636Z" fill="white"/>
<path d="M80.6726 20.267C80.6724 20.361 80.6444 20.4527 80.592 20.5307C80.5397 20.6087 80.4654 20.6695 80.3785 20.7052C80.2916 20.741 80.1961 20.7502 80.104 20.7317C80.0119 20.7132 79.9274 20.6678 79.8611 20.6012C79.7948 20.5346 79.7497 20.4499 79.7316 20.3577C79.7135 20.2655 79.7231 20.17 79.7592 20.0833C79.7953 19.9966 79.8564 19.9225 79.9346 19.8705C80.0128 19.8185 80.1047 19.7908 80.1986 19.791C80.2611 19.791 80.3229 19.8033 80.3805 19.8273C80.4381 19.8512 80.4905 19.8863 80.5345 19.9306C80.5786 19.9748 80.6134 20.0273 80.6371 20.085C80.6608 20.1428 80.6729 20.2046 80.6726 20.267Z" fill="white"/>
<path d="M91.8094 20.267C91.8092 20.3609 91.7812 20.4526 91.7289 20.5305C91.6766 20.6085 91.6024 20.6692 91.5157 20.7051C91.4289 20.7409 91.3335 20.7502 91.2415 20.7318C91.1494 20.7135 91.0649 20.6683 90.9985 20.6019C90.9321 20.5355 90.8869 20.451 90.8685 20.3589C90.8502 20.2669 90.8595 20.1715 90.8953 20.0847C90.9312 19.998 90.9919 19.9238 91.0699 19.8715C91.1478 19.8192 91.2395 19.7912 91.3334 19.791C91.3959 19.7909 91.4579 19.8031 91.5157 19.827C91.5735 19.8509 91.626 19.8859 91.6702 19.9301C91.7145 19.9744 91.7495 20.0269 91.7734 20.0847C91.7973 20.1425 91.8095 20.2045 91.8094 20.267Z" fill="white"/>
<path d="M48.3995 7.32915C48.3995 7.20158 48.3488 7.07923 48.2586 6.98903C48.1684 6.89882 48.0461 6.84814 47.9185 6.84814C47.7909 6.84814 47.6686 6.89882 47.5784 6.98903C47.4882 7.07923 47.4375 7.20158 47.4375 7.32915C47.4375 7.32915 47.4375 7.33614 47.4375 7.34114V13.2081V20.0681L47.4425 20.0731C47.4402 20.0817 47.4385 20.0904 47.4375 20.0991C47.4375 20.2267 47.4882 20.3491 47.5784 20.4393C47.6686 20.5295 47.7909 20.5801 47.9185 20.5801C48.0461 20.5801 48.1684 20.5295 48.2586 20.4393C48.3488 20.3491 48.3995 20.2267 48.3995 20.0991C48.3995 20.0991 48.3995 20.0911 48.3995 20.0871V14.3661V7.35715C48.3905 7.34515 48.3995 7.33615 48.3995 7.32915Z" fill="white"/>
<path d="M67.3517 7.32918C67.3517 7.20121 67.3009 7.07849 67.2104 6.988C67.1199 6.89751 66.9972 6.84668 66.8692 6.84668C66.7412 6.84668 66.6185 6.89751 66.528 6.988C66.4376 7.07849 66.3867 7.20121 66.3867 7.32918C66.3867 7.32918 66.3867 7.33618 66.3867 7.34118V13.2082V20.0682L66.3937 20.0732C66.3937 20.0832 66.3867 20.0902 66.3867 20.0992C66.3867 20.2271 66.4376 20.3499 66.528 20.4404C66.6185 20.5308 66.7412 20.5817 66.8692 20.5817C66.9972 20.5817 67.1199 20.5308 67.2104 20.4404C67.3009 20.3499 67.3517 20.2271 67.3517 20.0992C67.3517 20.0992 67.3517 20.0912 67.3517 20.0872V14.3662V7.35718H67.3447C67.3481 7.34815 67.3505 7.33875 67.3517 7.32918Z" fill="white"/>
<path d="M67.3517 7.45223C67.3517 7.32426 67.3009 7.20153 67.2104 7.11105C67.1199 7.02056 66.9972 6.96973 66.8692 6.96973C66.7412 6.96973 66.6185 7.02056 66.528 7.11105C66.4376 7.20153 66.3867 7.32426 66.3867 7.45223C66.3867 7.45223 66.3867 7.46123 66.3867 7.46623V13.1852V20.0472H66.3937C66.3937 20.0562 66.3867 20.0632 66.3867 20.0712C66.3867 20.1992 66.4376 20.3219 66.528 20.4124C66.6185 20.5029 66.7412 20.5537 66.8692 20.5537C66.9972 20.5537 67.1199 20.5029 67.2104 20.4124C67.3009 20.3219 67.3517 20.1992 67.3517 20.0712C67.3517 20.0712 67.3517 20.0642 67.3517 20.0612V14.3432V7.48323H67.3447C67.3486 7.4733 67.3509 7.46285 67.3517 7.45223Z" fill="white"/>
<path d="M67.2079 6.93515C67.1162 6.84839 66.9942 6.80105 66.868 6.8033C66.7418 6.80554 66.6215 6.8572 66.533 6.94716C66.4445 7.03712 66.3947 7.15822 66.3945 7.28443C66.3943 7.41064 66.4436 7.5319 66.5319 7.62215C66.5319 7.62215 66.5389 7.62215 66.5409 7.62915L70.6169 11.6422L75.1239 16.0852H75.1309C75.1309 16.0912 75.1379 16.0992 75.1439 16.1062C75.189 16.1505 75.2425 16.1856 75.3012 16.2093C75.3599 16.233 75.4228 16.245 75.4861 16.2444C75.5494 16.2438 75.612 16.2308 75.6703 16.2061C75.7286 16.1813 75.7815 16.1453 75.8259 16.1002C75.8702 16.055 75.9053 16.0015 75.929 15.9428C75.9527 15.8841 75.9647 15.8212 75.9641 15.7579C75.9636 15.6946 75.9505 15.632 75.9258 15.5737C75.901 15.5154 75.865 15.4625 75.8199 15.4182C75.8199 15.4182 75.8129 15.4182 75.8089 15.4122L72.1179 11.7702L67.2279 6.95715H67.2209C67.2159 6.95415 67.2139 6.94215 67.2079 6.93515Z" fill="white"/>
<path d="M76.5591 19.9014C76.5561 19.9665 76.5664 20.0315 76.5892 20.0925C76.6121 20.1535 76.6471 20.2092 76.6921 20.2563C76.7371 20.3034 76.7912 20.3409 76.8511 20.3665C76.911 20.3921 76.9755 20.4053 77.0406 20.4053C77.1057 20.4053 77.1702 20.3921 77.2301 20.3665C77.29 20.3409 77.3441 20.3034 77.3891 20.2563C77.4341 20.2092 77.4691 20.1535 77.4919 20.0925C77.5148 20.0315 77.5251 19.9665 77.5221 19.9014V19.8894V14.1694V7.30839L77.5171 7.30339C77.5171 7.29439 77.5221 7.28739 77.5221 7.27939C77.5164 7.15548 77.4632 7.03852 77.3736 6.95284C77.2839 6.86715 77.1646 6.81934 77.0406 6.81934C76.9166 6.81934 76.7973 6.86715 76.7076 6.95284C76.6179 7.03852 76.5647 7.15548 76.5591 7.27939C76.5591 7.27939 76.5591 7.28639 76.5591 7.29039V13.0094V19.8694L76.5651 19.8754C76.5651 19.8844 76.5591 19.8924 76.5591 19.9014Z" fill="white"/>
<path d="M76.7035 20.418C76.7477 20.4657 76.8011 20.5039 76.8605 20.5304C76.9199 20.5568 76.9841 20.5709 77.0491 20.5719C77.1141 20.5729 77.1786 20.5606 77.2388 20.536C77.299 20.5113 77.3535 20.4747 77.3991 20.4283C77.4447 20.382 77.4804 20.3268 77.5041 20.2663C77.5278 20.2058 77.539 20.141 77.537 20.076C77.535 20.0111 77.5198 19.9471 77.4924 19.8882C77.465 19.8292 77.4259 19.7764 77.3775 19.733L77.3695 19.726L73.2935 15.714L68.7865 11.27H68.7795C68.7735 11.265 68.7725 11.256 68.7645 11.251C68.6737 11.1614 68.551 11.1115 68.4233 11.1123C68.2957 11.1132 68.1737 11.1647 68.084 11.2555C67.9944 11.3463 67.9445 11.4691 67.9453 11.5967C67.9462 11.7243 67.9977 11.8464 68.0885 11.936C68.0885 11.936 68.0955 11.936 68.1005 11.943L71.7935 15.585L76.6845 20.398H76.6905C76.6945 20.405 76.6975 20.411 76.7035 20.418Z" fill="white"/>
<path d="M109.12 12.86C109.248 12.86 109.37 12.8093 109.46 12.7191C109.55 12.6289 109.601 12.5065 109.601 12.3789C109.601 12.2514 109.55 12.129 109.46 12.0388C109.37 11.9486 109.248 11.8979 109.12 11.8979H109.108H105.844V11.903C105.834 11.903 105.828 11.8979 105.817 11.8979C105.689 11.8979 105.567 11.9486 105.477 12.0388C105.387 12.129 105.336 12.2514 105.336 12.3789C105.336 12.5065 105.387 12.6289 105.477 12.7191C105.567 12.8093 105.689 12.86 105.817 12.86H105.83H109.094V12.8549C109.102 12.8574 109.111 12.859 109.12 12.86Z" fill="white"/>
<path d="M110.179 14.7872C110.303 14.7816 110.42 14.7284 110.506 14.6387C110.591 14.549 110.639 14.4298 110.639 14.3057C110.639 14.1817 110.591 14.0624 110.506 13.9727C110.42 13.8831 110.303 13.8299 110.179 13.8242H110.167H106.903V13.8302C106.895 13.8275 106.886 13.8255 106.878 13.8242C106.754 13.8299 106.637 13.8831 106.551 13.9727C106.466 14.0624 106.418 14.1817 106.418 14.3057C106.418 14.4298 106.466 14.549 106.551 14.6387C106.637 14.7284 106.754 14.7816 106.878 14.7872H106.89H110.154V14.7822C110.162 14.7832 110.168 14.7872 110.179 14.7872Z" fill="white"/>
<path d="M121.395 26.9992H0V0.576172H121.4L121.395 26.9992ZM1.332 25.6682H120.063V1.90717H1.332V25.6682Z" fill="white"/>
</svg>
