<svg xmlns="http://www.w3.org/2000/svg" width="33" height="32" viewBox="0 0 33 32">
  <g id="Rationaletech-2" transform="translate(17309 8257)">
    <g id="Group_9913" data-name="Group 9913">
      <g id="Rationaletech-1" transform="translate(-17309 -8257)">
        <g id="Group_2" data-name="Group 2">
          <g id="Group_1" data-name="Group 1">
            <path id="Path_11" data-name="Path 11" d="M-306,1.35a.58.58,0,0,1-.41-.17l-7.08-7h1.43a4.25,4.25,0,0,0,4.25-4.25,4.25,4.25,0,0,0-4.25-4.25h-9.65a.58.58,0,0,1-.42-.17.58.58,0,0,1-.17-.42.59.59,0,0,1,.59-.59h9.65a5.43,5.43,0,0,1,5.42,5.43,5.42,5.42,0,0,1-4.14,5.27l5.2,5.13a.59.59,0,0,1,0,.83.58.58,0,0,1-.41.17Z" transform="translate(330.49 23.29)" fill="#fff"/>
          </g>
          <path id="Path_12" data-name="Path 12" d="M-309.09.34l-6.3-6.22a.59.59,0,0,0-.83,0h0a.6.6,0,0,0,0,.84h0l6.3,6.21a.58.58,0,0,0,.41.17.58.58,0,0,0,.417-.166A.58.58,0,0,0-308.92.76a.59.59,0,0,0-.17-.42Z" transform="translate(330.49 23.29)" fill="#fff"/>
        </g>
      </g>
      <g id="Rectangle_4029" data-name="Rectangle 4029" transform="translate(-17309 -8257)" fill="none" stroke="#fff" stroke-width="1.3">
        <rect width="33" height="32" rx="3" stroke="none"/>
        <rect x="0.65" y="0.65" width="31.7" height="30.7" rx="2.35" fill="none"/>
      </g>
    </g>
  </g>
</svg>
