<svg xmlns="http://www.w3.org/2000/svg" width="121" height="26" viewBox="0 0 121 26">
  <g id="Rationaletech-0" transform="translate(17348 8368)">
    <g id="Rationaletech" transform="translate(-17398.592 -8387.217)">
      <g id="Group_2" data-name="Group 2" transform="translate(57.59 25.433)">
        <g id="Group_1" data-name="Group 1">
          <path id="Path_11" data-name="Path 11" d="M73.277,41.452a.477.477,0,0,1-.339-.138l-5.8-5.722H68.31a3.481,3.481,0,1,0,0-6.962h-7.9a.482.482,0,1,1,0-.964h7.9a4.444,4.444,0,0,1,1.048,8.764l4.258,4.2a.481.481,0,0,1-.338.825Z" transform="translate(-59.926 -27.667)" fill="#61c55f"/>
        </g>
        <path id="Path_12" data-name="Path 12" d="M72.481,43.33l-5.16-5.092a.482.482,0,0,0-.68.682l5.16,5.092a.475.475,0,0,0,.337.138.482.482,0,0,0,.34-.825Z" transform="translate(-61.63 -30.37)" fill="#61c55f"/>
      </g>
      <g id="Group_5" data-name="Group 5" transform="translate(50.91 19.046)">
        <g id="Group_4" data-name="Group 4">
          <path id="Path_13" data-name="Path 13" d="M83.3,37.746l-1.552,3.335-.2-.045-.35.02-.339-.319,6.18-13.294L92.87,40.728l-.119.367-.565.081L92,41.109l-1.477-3.363ZM87,29.762,83.734,36.8h6.375Z" transform="translate(-58.67 -21.222)" fill="#0187e9"/>
          <path id="Path_14" data-name="Path 14" d="M106.862,27.963l-.218.432-.115.236h-4.89V40.759l-.236.2-.527-.021-.2-.2V28.631h-4.91l-.261-.243,0-.416.256-.3h10.761Z" transform="translate(-62.466 -21.28)" fill="#0187e9"/>
          <path id="Path_15" data-name="Path 15" d="M126.636,41.347a6.712,6.712,0,0,1-3.449-.93,6.969,6.969,0,0,1,0-12.017,6.852,6.852,0,0,1,6.9,0,6.968,6.968,0,0,1,0,12.017A6.7,6.7,0,0,1,126.636,41.347Zm0-12.914a5.713,5.713,0,0,0-2.968.8,5.991,5.991,0,0,0,0,10.346,5.875,5.875,0,0,0,5.935,0,5.96,5.96,0,0,0,2.151-2.172,6.055,6.055,0,0,0,0-6,5.953,5.953,0,0,0-2.151-2.174,5.708,5.708,0,0,0-2.967-.8Z" transform="translate(-68.751 -21.229)" fill="#0187e9"/>
          <path id="Path_16" data-name="Path 16" d="M177.636,41.326V27.992l.188.012.566-.05.187.015V40.386h7.159l.289.355-.036.293-.253.291Z" transform="translate(-83.748 -21.354)" fill="#0187e9"/>
          <path id="Path_17" data-name="Path 17" d="M192.365,41.252V27.669h4.655l.25.3.067.453-.317.213h-3.714V40.27h7.365l.124.3.046.417-.17.264Z" transform="translate(-87.565 -21.28)" fill="#0187e9"/>
          <path id="Path_18" data-name="Path 18" d="M81.762,45.457a.475.475,0,1,1-.139-.337A.476.476,0,0,1,81.762,45.457Z" transform="translate(-58.658 -25.766)" fill="#0187e9"/>
          <path id="Path_19" data-name="Path 19" d="M96.8,45.457a.473.473,0,1,1-.138-.337.475.475,0,0,1,.138.337Z" transform="translate(-62.554 -25.766)" fill="#0187e9"/>
          <path id="Path_20" data-name="Path 20" d="M103.449,45.186a.48.48,0,1,1-.141-.341.482.482,0,0,1,.141.341Z" transform="translate(-64.275 -25.695)" fill="#0187e9"/>
          <path id="Path_21" data-name="Path 21" d="M188.872,45.207a.468.468,0,1,1-.467-.466A.468.468,0,0,1,188.872,45.207Z" transform="translate(-86.417 -25.704)" fill="#0187e9"/>
          <path id="Path_22" data-name="Path 22" d="M96.172,28.151a.481.481,0,1,1-.141-.341A.482.482,0,0,1,96.172,28.151Z" transform="translate(-62.389 -21.28)" fill="#0187e9"/>
          <path id="Path_23" data-name="Path 23" d="M110.7,28.151a.481.481,0,1,1-.141-.341.481.481,0,0,1,.141.341Z" transform="translate(-66.153 -21.28)" fill="#0187e9"/>
          <path id="Path_24" data-name="Path 24" d="M178.578,27.84a.471.471,0,1,1-.138-.334A.471.471,0,0,1,178.578,27.84Z" transform="translate(-83.748 -21.202)" fill="#0187e9"/>
          <path id="Path_25" data-name="Path 25" d="M198.961,28.151a.481.481,0,1,1-.141-.341.481.481,0,0,1,.141.341Z" transform="translate(-89.025 -21.28)" fill="#0187e9"/>
          <path id="Path_26" data-name="Path 26" d="M203.9,45.169a.49.49,0,1,1-.143-.348.491.491,0,0,1,.143.348Z" transform="translate(-90.299 -25.688)" fill="#0187e9"/>
          <path id="Path_27" data-name="Path 27" d="M161,37.746l-1.554,3.335-.2-.045-.35.02-.339-.319,6.18-13.294,5.834,13.285-.119.367-.567.081-.182-.067-1.476-3.363Zm3.7-7.984L161.44,36.8h6.374Z" transform="translate(-78.805 -21.222)" fill="#0187e9"/>
          <path id="Path_28" data-name="Path 28" d="M159.467,45.457a.474.474,0,1,1-.138-.336.475.475,0,0,1,.138.336Z" transform="translate(-78.794 -25.766)" fill="#0187e9"/>
          <path id="Path_29" data-name="Path 29" d="M174.5,45.457a.475.475,0,1,1-.139-.337.475.475,0,0,1,.139.337Z" transform="translate(-82.69 -25.766)" fill="#0187e9"/>
          <path id="Path_30" data-name="Path 30" d="M115.9,27.993a.481.481,0,1,0-.962,0s0,.007,0,.012h0v5.867h0v6.86l0,.005a.179.179,0,0,0,0,.026.481.481,0,0,0,.962,0s0-.008,0-.012h0V35.03h0V28.021h0C115.891,28.009,115.9,28,115.9,27.993Z" transform="translate(-67.5 -21.24)" fill="#0187e9"/>
          <path id="Path_31" data-name="Path 31" d="M141.482,27.993a.482.482,0,0,0-.965,0V28h0v5.867h0v6.86l.007.005c0,.01-.007.017-.007.026a.482.482,0,0,0,.965,0v-.012h0V35.03h0V28.021h-.007a.125.125,0,0,0,.007-.028Z" transform="translate(-74.13 -21.24)" fill="#0187e9"/>
          <path id="Path_32" data-name="Path 32" d="M141.482,28.159a.482.482,0,1,0-.965,0v.014h0v5.719h0v6.862h.007c0,.009-.007.016-.007.024a.482.482,0,0,0,.965,0v-.01h0V35.05h0V28.19h-.007A.108.108,0,0,0,141.482,28.159Z" transform="translate(-74.13 -21.283)" fill="#0187e9"/>
          <path id="Path_33" data-name="Path 33" d="M141.338,27.581a.482.482,0,1,0-.676.687.009.009,0,0,1,.009.007h0l4.076,4.013h0l4.507,4.443h.007c0,.006.007.014.013.021a.482.482,0,0,0,.676-.688.014.014,0,0,1-.011-.006h0l-3.691-3.642h0l-4.89-4.813h-.007C141.346,27.6,141.344,27.588,141.338,27.581Z" transform="translate(-74.13 -21.222)" fill="#0187e9"/>
          <path id="Path_34" data-name="Path 34" d="M154.248,40.547a.482.482,0,1,0,.963,0v-.012h0v-5.72h0V27.954l-.005,0c0-.009.005-.016.005-.024a.482.482,0,0,0-.963,0v.011h0v5.719h0v6.86l.006.006C154.254,40.53,154.248,40.538,154.248,40.547Z" transform="translate(-77.688 -21.222)" fill="#0187e9"/>
          <path id="Path_35" data-name="Path 35" d="M151.38,42.572a.481.481,0,1,0,.674-.685l-.008-.007h0l-4.076-4.012h0l-4.507-4.444h-.007c-.006-.005-.007-.014-.015-.019a.481.481,0,0,0-.676.685.016.016,0,0,1,.012.007h0l3.693,3.642h0l4.891,4.813h.006A.113.113,0,0,0,151.38,42.572Z" transform="translate(-74.676 -22.73)" fill="#0187e9"/>
          <path id="Path_36" data-name="Path 36" d="M196.87,35.29a.481.481,0,1,0,0-.962h-3.276v.005c-.01,0-.016-.005-.027-.005a.481.481,0,1,0,0,.962h3.277v-.005l.026.005Z" transform="translate(-87.751 -23.006)" fill="#0187e9"/>
          <path id="Path_37" data-name="Path 37" d="M198.3,37.89a.482.482,0,0,0,0-.963h-3.276v.006L195,36.927a.482.482,0,0,0,0,.963h3.276v-.005A.137.137,0,0,0,198.3,37.89Z" transform="translate(-88.122 -23.679)" fill="#0187e9"/>
        </g>
      </g>
    </g>
    <g id="Rectangle_4028" data-name="Rectangle 4028" transform="translate(-17348 -8368)" fill="none" stroke="#0187e9" stroke-width="1.3">
      <rect width="121" height="26" rx="3" stroke="none"/>
      <rect x="0.65" y="0.65" width="119.7" height="24.7" rx="2.35" fill="none"/>
    </g>
  </g>
</svg>
