<svg width="274" height="242" viewBox="0 0 274 242" fill="none" xmlns="http://www.w3.org/2000/svg">
<rect width="274" height="241.225" fill="white" fill-opacity="0.01"/>
<path d="M24.7421 21.7616C26.1241 21.7616 26.8749 21.0153 26.8749 20.0316C26.8749 18.9885 26.0644 18.5984 24.8957 18.3271C23.9316 18.0981 23.4283 17.9115 23.4283 17.3688C23.4283 16.9023 23.889 16.4868 24.5459 16.4868C25.1431 16.4868 25.7317 16.7497 26.2265 17.1992L26.7213 16.5547C26.1583 16.0628 25.4843 15.7321 24.58 15.7321C23.4027 15.7321 22.5496 16.4698 22.5496 17.4451C22.5496 18.4967 23.343 18.8528 24.5374 19.1327C25.5184 19.3532 26.0047 19.5652 26.0047 20.1164C26.0047 20.5828 25.5867 21.0068 24.7762 21.0068C23.9828 21.0068 23.3686 20.6846 22.8482 20.1927L22.3278 20.8288C22.9506 21.4224 23.761 21.7616 24.7421 21.7616ZM27.9338 21.6683H28.7954V19.6415H30.3993C31.6363 19.6415 32.5747 18.8528 32.5747 17.7419C32.5747 16.631 31.6363 15.8423 30.3993 15.8423H27.9338V21.6683ZM28.7954 18.8444V16.6395H30.2798C31.1244 16.6395 31.696 17.055 31.696 17.7419C31.696 18.4288 31.1244 18.8444 30.2798 18.8444H28.7954ZM37.3567 21.6683H38.1501L40.0099 17.284H39.097L37.7491 20.6931L36.3756 17.284H35.4628L37.3567 21.6683ZM42.4085 21.7701C43.3725 21.7701 44.0806 21.2443 44.0806 20.4132C44.0806 19.5397 43.3043 19.3023 42.5791 19.0903C41.8369 18.8613 41.5639 18.7596 41.5639 18.4203C41.5639 18.0896 41.9052 17.903 42.3403 17.903C42.7242 17.903 43.1678 18.0472 43.5943 18.3101L43.9697 17.691C43.492 17.3772 42.9118 17.1822 42.3403 17.1822C41.4018 17.1822 40.7279 17.708 40.7364 18.5136C40.7364 19.226 41.2398 19.5143 42.255 19.7942C42.8009 19.9468 43.2531 20.074 43.2531 20.4811C43.2531 20.8203 42.9118 21.0492 42.417 21.0492C41.8966 21.0492 41.3933 20.8542 40.9241 20.515L40.5231 21.1171C41.0521 21.5411 41.7602 21.7701 42.4085 21.7701ZM45.5909 21.7701C45.8981 21.7701 46.1455 21.5072 46.1455 21.1934C46.1455 20.9051 45.8981 20.6422 45.5909 20.6422C45.2668 20.6422 45.0194 20.9051 45.0194 21.1934C45.0194 21.5072 45.2668 21.7701 45.5909 21.7701ZM49.8885 21.6683H50.7501V17.5214L52.8061 21.3291L54.8621 17.5214V21.6683H55.7237V15.8423H54.8621L52.8061 19.65L50.7501 15.8423H49.8885V21.6683ZM61.4175 16.6395V15.8423H57.1093V21.6683H57.9795V19.1327H61.0848V18.3355H57.9795V16.6395H61.4175ZM70.6595 18.7511C70.6595 17.1144 69.2774 15.7405 67.631 15.7405C65.9845 15.7405 64.5854 17.1144 64.5854 18.7511C64.5854 20.3878 65.9845 21.7701 67.631 21.7701C68.3305 21.7701 68.9874 21.5157 69.5078 21.1001L70.1647 21.6683L70.6595 21.0917L70.0367 20.5574C70.4291 20.0486 70.6595 19.421 70.6595 18.7511ZM67.631 20.9814C66.4622 20.9814 65.4726 19.9638 65.4726 18.7511C65.4726 17.5469 66.4622 16.5292 67.631 16.5292C68.7997 16.5292 69.7808 17.5469 69.7808 18.7511C69.7808 19.209 69.6358 19.6415 69.3969 20.0062L68.5352 19.2599L68.0404 19.8366L68.8765 20.5574C68.5267 20.8203 68.0916 20.9814 67.631 20.9814ZM74.7252 17.284V20.1249C74.657 20.6422 74.1281 21.0408 73.5138 21.0408C72.9167 21.0408 72.4986 20.5828 72.4986 19.9298V17.284H71.6711V20.074C71.6711 21.0662 72.3536 21.7701 73.3261 21.7701C73.9233 21.7701 74.4608 21.4648 74.7252 21.0323V21.6683H75.5698V17.284H74.7252ZM78.6463 17.1822C78.1601 17.1822 77.6055 17.3094 76.9742 17.6232L77.2814 18.2422C77.6653 18.0472 78.0918 17.8776 78.5269 17.8776C79.4056 17.8776 79.6615 18.4627 79.6615 19.014V19.1497C79.235 19.0055 78.7658 18.9122 78.3307 18.9122C77.3581 18.9122 76.5647 19.4973 76.5647 20.3708C76.5647 21.2273 77.2558 21.7701 78.1942 21.7701C78.7316 21.7701 79.3373 21.5242 79.6615 21.0662V21.6683H80.489V19.014C80.489 17.9285 79.8322 17.1822 78.6463 17.1822ZM78.3563 21.1086C77.8018 21.1086 77.3752 20.8203 77.3752 20.3454C77.3752 19.8705 77.87 19.5398 78.4586 19.5398C78.8937 19.5398 79.3032 19.5991 79.6615 19.7094V20.2945C79.5165 20.8372 78.9023 21.1086 78.3563 21.1086ZM82.5976 18.1235V17.284H81.7531V21.6683H82.5976V19.1751C82.6744 18.4119 83.3228 17.9115 84.2356 17.9115V17.1822C83.4763 17.1822 82.8792 17.5468 82.5976 18.1235ZM87.1241 20.8796C87.0302 20.9729 86.8596 21.0408 86.6719 21.0408C86.4245 21.0408 86.2198 20.8203 86.2198 20.515V17.9963H87.2606V17.284H86.2198V16.0797H85.3923V17.284H84.7268V17.9963H85.3923V20.5744C85.3923 21.2782 85.87 21.7701 86.5525 21.7701C86.8681 21.7701 87.1923 21.6514 87.4312 21.4563L87.1241 20.8796ZM90.314 21.0238C89.5547 21.0238 89.0173 20.498 88.9064 19.7687H92.3785C92.3785 18.1998 91.6022 17.1822 90.2543 17.1822C89.0343 17.1822 88.0533 18.149 88.0533 19.4634C88.0533 20.8118 89.094 21.7701 90.3225 21.7701C90.9453 21.7701 91.7131 21.5072 92.1055 21.0917L91.5766 20.5489C91.3121 20.8203 90.7747 21.0238 90.314 21.0238ZM90.2884 17.9285C91.0477 17.9285 91.4657 18.4203 91.5595 19.0988H88.9149C89.0514 18.3864 89.6059 17.9285 90.2884 17.9285ZM94.2447 18.1235V17.284H93.4001V21.6683H94.2447V19.1751C94.3214 18.4119 94.9698 17.9115 95.8826 17.9115V17.1822C95.1234 17.1822 94.5262 17.5468 94.2447 18.1235ZM96.7066 21.6683H97.5426V15.7405H96.7066V21.6683ZM99.5489 23.1948C100.18 23.1863 100.649 22.8556 100.965 22.0669L102.91 17.284H102.031L100.692 20.744L99.2759 17.284H98.3716L100.265 21.6938L100.044 22.1602C99.8986 22.4146 99.711 22.4994 99.438 22.4994C99.2673 22.4994 99.0711 22.457 98.9005 22.3637L98.7128 23.0082C98.9432 23.1269 99.2503 23.1948 99.5489 23.1948ZM110.936 21.6683H111.892L109.375 15.8423H108.42L105.903 21.6683H106.859L107.37 20.4811H110.425L110.936 21.6683ZM107.703 19.7094L108.897 16.9447L110.092 19.7094H107.703ZM114.195 21.6683H114.988L116.848 17.284H115.935L114.587 20.6931L113.213 17.284H112.301L114.195 21.6683ZM119.381 21.0238C118.622 21.0238 118.084 20.498 117.973 19.7687H121.446C121.446 18.1998 120.669 17.1822 119.321 17.1822C118.101 17.1822 117.12 18.149 117.12 19.4634C117.12 20.8118 118.161 21.7701 119.39 21.7701C120.012 21.7701 120.78 21.5072 121.173 21.0917L120.644 20.5489C120.379 20.8203 119.842 21.0238 119.381 21.0238ZM119.356 17.9285C120.115 17.9285 120.533 18.4203 120.627 19.0988H117.982C118.118 18.3864 118.673 17.9285 119.356 17.9285ZM123.312 18.1235V17.284H122.467V21.6683H123.312V19.1751C123.389 18.4119 124.037 17.9115 124.95 17.9115V17.1822C124.19 17.1822 123.593 17.5468 123.312 18.1235ZM127.625 17.1822C127.139 17.1822 126.584 17.3094 125.953 17.6232L126.26 18.2422C126.644 18.0472 127.07 17.8776 127.506 17.8776C128.384 17.8776 128.64 18.4627 128.64 19.014V19.1497C128.214 19.0055 127.744 18.9122 127.309 18.9122C126.337 18.9122 125.543 19.4973 125.543 20.3708C125.543 21.2273 126.234 21.7701 127.173 21.7701C127.71 21.7701 128.316 21.5242 128.64 21.0662V21.6683H129.468V19.014C129.468 17.9285 128.811 17.1822 127.625 17.1822ZM127.335 21.1086C126.78 21.1086 126.354 20.8203 126.354 20.3454C126.354 19.8705 126.849 19.5398 127.437 19.5398C127.872 19.5398 128.282 19.5991 128.64 19.7094V20.2945C128.495 20.8372 127.881 21.1086 127.335 21.1086ZM134.042 17.284V17.9878C133.709 17.496 133.146 17.1822 132.481 17.1822C131.32 17.1822 130.476 18.0387 130.476 19.2599C130.476 20.4811 131.32 21.3461 132.481 21.3461C133.146 21.3461 133.692 21.0493 134.042 20.5489V21.1849C134.042 21.9482 133.47 22.3976 132.523 22.3976C131.994 22.3976 131.465 22.2196 131.141 21.9143L130.808 22.5418C131.226 22.881 131.909 23.1269 132.651 23.1269C133.956 23.1269 134.886 22.3298 134.886 21.2019V17.284H134.042ZM132.694 20.6168C131.909 20.6168 131.354 20.057 131.354 19.2599C131.354 18.4712 131.909 17.9115 132.694 17.9115C133.479 17.9115 134.042 18.4712 134.042 19.2599C134.042 20.057 133.479 20.6168 132.694 20.6168ZM138.168 21.0238C137.409 21.0238 136.871 20.498 136.76 19.7687H140.232C140.232 18.1998 139.456 17.1822 138.108 17.1822C136.888 17.1822 135.907 18.149 135.907 19.4634C135.907 20.8118 136.948 21.7701 138.176 21.7701C138.799 21.7701 139.567 21.5072 139.959 21.0917L139.431 20.5489C139.166 20.8203 138.629 21.0238 138.168 21.0238ZM138.142 17.9285C138.902 17.9285 139.32 18.4203 139.413 19.0988H136.769C136.905 18.3864 137.46 17.9285 138.142 17.9285ZM143.686 21.6683H144.548V15.8423H143.686V21.6683ZM148.651 21.7701C149.487 21.7701 150.255 21.4139 150.809 20.8542L150.203 20.2775C149.811 20.7016 149.257 20.9814 148.651 20.9814C147.482 20.9814 146.492 19.9638 146.492 18.7511C146.492 17.5469 147.482 16.5292 148.651 16.5292C149.257 16.5292 149.811 16.8091 150.203 17.2331L150.809 16.6564C150.255 16.0882 149.487 15.7405 148.651 15.7405C147.004 15.7405 145.605 17.1144 145.605 18.7511C145.605 20.3878 147.004 21.7701 148.651 21.7701ZM156.291 15.8423L154.252 20.5659L152.213 15.8423H151.258L153.774 21.6683H154.73L157.247 15.8423H156.291ZM162.647 21.7616C164.029 21.7616 164.78 21.0153 164.78 20.0316C164.78 18.9885 163.969 18.5984 162.801 18.3271C161.837 18.0981 161.333 17.9115 161.333 17.3688C161.333 16.9023 161.794 16.4868 162.451 16.4868C163.048 16.4868 163.637 16.7497 164.131 17.1992L164.626 16.5547C164.063 16.0628 163.389 15.7321 162.485 15.7321C161.308 15.7321 160.455 16.4698 160.455 17.4451C160.455 18.4967 161.248 18.8528 162.442 19.1327C163.423 19.3532 163.91 19.5652 163.91 20.1164C163.91 20.5828 163.492 21.0068 162.681 21.0068C161.888 21.0068 161.274 20.6846 160.753 20.1927L160.233 20.8288C160.856 21.4224 161.666 21.7616 162.647 21.7616ZM167.895 21.7701C168.552 21.7701 169.123 21.4987 169.55 21.0662L168.978 20.5489C168.705 20.8542 168.313 21.0408 167.903 21.0408C167.093 21.0408 166.427 20.3284 166.427 19.4719C166.427 18.6239 167.093 17.9115 167.895 17.9115C168.304 17.9115 168.688 18.0896 168.953 18.3864L169.524 17.8606C169.106 17.4451 168.535 17.1822 167.903 17.1822C166.641 17.1822 165.574 18.2253 165.574 19.4719C165.574 20.7185 166.641 21.7701 167.895 21.7701ZM172.452 21.7701C173.706 21.7701 174.764 20.7185 174.764 19.4719C174.764 18.2253 173.706 17.1822 172.452 17.1822C171.19 17.1822 170.123 18.2253 170.123 19.4719C170.123 20.7185 171.19 21.7701 172.452 21.7701ZM172.452 21.0408C171.642 21.0408 170.968 20.3284 170.968 19.4719C170.968 18.6239 171.642 17.9115 172.452 17.9115C173.246 17.9115 173.919 18.6239 173.919 19.4719C173.919 20.3284 173.246 21.0408 172.452 21.0408ZM176.639 18.1235V17.284H175.795V21.6683H176.639V19.1751C176.716 18.4119 177.365 17.9115 178.277 17.9115V17.1822C177.518 17.1822 176.921 17.5468 176.639 18.1235ZM181.123 21.0238C180.364 21.0238 179.827 20.498 179.716 19.7687H183.188C183.188 18.1998 182.411 17.1822 181.064 17.1822C179.844 17.1822 178.863 18.149 178.863 19.4634C178.863 20.8118 179.903 21.7701 181.132 21.7701C181.755 21.7701 182.522 21.5072 182.915 21.0917L182.386 20.5489C182.121 20.8203 181.584 21.0238 181.123 21.0238ZM181.098 17.9285C181.857 17.9285 182.275 18.4203 182.369 19.0988H179.724C179.861 18.3864 180.415 17.9285 181.098 17.9285ZM188.263 21.6683H189.124V16.6395H191.052V15.8423H186.343V16.6395H188.263V21.6683ZM192.893 18.1235V17.284H192.049V21.6683H192.893V19.1751C192.97 18.4119 193.618 17.9115 194.531 17.9115V17.1822C193.772 17.1822 193.175 17.5468 192.893 18.1235ZM197.377 21.0238C196.618 21.0238 196.08 20.498 195.969 19.7687H199.442C199.442 18.1998 198.665 17.1822 197.317 17.1822C196.097 17.1822 195.116 18.149 195.116 19.4634C195.116 20.8118 196.157 21.7701 197.386 21.7701C198.008 21.7701 198.776 21.5072 199.169 21.0917L198.64 20.5489C198.375 20.8203 197.838 21.0238 197.377 21.0238ZM197.351 17.9285C198.111 17.9285 198.529 18.4203 198.623 19.0988H195.978C196.114 18.3864 196.669 17.9285 197.351 17.9285ZM202.664 17.1822C202.067 17.1822 201.53 17.4875 201.265 17.92V17.284H200.421V21.6683H201.265V18.8274C201.333 18.3101 201.862 17.9115 202.476 17.9115C203.074 17.9115 203.492 18.3694 203.492 19.0224V21.6683H204.319V18.8783C204.319 17.8861 203.637 17.1822 202.664 17.1822ZM208.923 15.7405V18.0387C208.582 17.5045 208.036 17.1822 207.353 17.1822C206.193 17.1822 205.323 18.132 205.323 19.4719C205.323 20.8203 206.193 21.7701 207.353 21.7701C208.036 21.7701 208.582 21.4478 208.923 20.9051V21.6683H209.759V15.7405H208.923ZM207.558 21.0408C206.747 21.0408 206.176 20.3878 206.176 19.4719C206.176 18.556 206.747 17.9115 207.558 17.9115C208.351 17.9115 208.923 18.556 208.923 19.4719C208.923 20.3878 208.351 21.0408 207.558 21.0408ZM23.7781 28.4611C23.7781 28.1558 23.9828 27.9353 24.2302 27.9353C24.4179 27.9353 24.5885 28.0032 24.6824 28.0965L24.9895 27.5368C24.7506 27.3417 24.4264 27.223 24.1108 27.223C23.4283 27.223 22.9506 27.7148 22.9506 28.4187V28.9445H22.2852V29.6569H22.9506V33.3289H23.7781V29.6569H24.8189V28.9445H23.7781V28.4611ZM27.782 33.4306C29.0361 33.4306 30.0939 32.3791 30.0939 31.1324C30.0939 29.8858 29.0361 28.8427 27.782 28.8427C26.5194 28.8427 25.453 29.8858 25.453 31.1324C25.453 32.3791 26.5194 33.4306 27.782 33.4306ZM27.782 32.7013C26.9715 32.7013 26.2976 31.989 26.2976 31.1324C26.2976 30.2844 26.9715 29.572 27.782 29.572C28.5754 29.572 29.2493 30.2844 29.2493 31.1324C29.2493 31.989 28.5754 32.7013 27.782 32.7013ZM31.9697 29.7841V28.9445H31.1251V33.3289H31.9697V30.8356C32.0465 30.0724 32.6948 29.572 33.6077 29.572V28.8427C32.8484 28.8427 32.2512 29.2074 31.9697 29.7841ZM41.2063 28.3V27.5028H36.8982V33.3289H37.7683V30.7932H40.8736V29.9961H37.7683V28.3H41.2063ZM43.9804 33.3289H44.8676V31.0476L47.1966 27.5028H46.1984L44.424 30.2335L42.6751 27.5028H41.6343L43.9804 31.0476V33.3289ZM50.1554 33.3289H54.3271V32.5317H51.5204L52.8939 31.3784C53.9006 30.5643 54.2759 29.9452 54.2759 29.165C54.2759 28.1049 53.4058 27.4011 52.3138 27.4011C51.3839 27.4011 50.6929 27.8251 50.181 28.529L50.7611 29.0378C51.1706 28.512 51.6398 28.1728 52.2797 28.1728C52.8598 28.1728 53.3887 28.5459 53.3887 29.182C53.3887 29.7077 53.0901 30.2081 52.3053 30.8611L50.1554 32.625V33.3289ZM57.8053 33.4306C59.2641 33.4306 60.3049 32.184 60.3049 30.4116C60.3049 28.6477 59.2641 27.4011 57.8053 27.4011C56.3294 27.4011 55.2972 28.6477 55.2972 30.4116C55.2972 32.184 56.3294 33.4306 57.8053 33.4306ZM57.8053 32.6419C56.8498 32.6419 56.1759 31.7176 56.1759 30.4116C56.1759 29.1056 56.8498 28.1897 57.8053 28.1897C58.7522 28.1897 59.4177 29.1056 59.4177 30.4116C59.4177 31.7176 58.7522 32.6419 57.8053 32.6419ZM61.1694 33.3289H65.3411V32.5317H62.5344L63.9079 31.3784C64.9145 30.5643 65.2899 29.9452 65.2899 29.165C65.2899 28.1049 64.4197 27.4011 63.3277 27.4011C62.3979 27.4011 61.7068 27.8251 61.195 28.529L61.7751 29.0378C62.1846 28.512 62.6538 28.1728 63.2936 28.1728C63.8737 28.1728 64.4027 28.5459 64.4027 29.182C64.4027 29.7077 64.1041 30.2081 63.3192 30.8611L61.1694 32.625V33.3289ZM67.4116 33.3289H68.2818V27.5028H67.5823L66.0381 28.5459L66.3964 29.165L67.4116 28.5205V33.3289ZM69.4847 31.3953H71.7369V30.6321H69.4847V31.3953ZM72.5914 33.3289H76.7631V32.5317H73.9564L75.3299 31.3784C76.3365 30.5643 76.7119 29.9452 76.7119 29.165C76.7119 28.1049 75.8417 27.4011 74.7498 27.4011C73.8199 27.4011 73.1289 27.8251 72.617 28.529L73.1971 29.0378C73.6066 28.512 74.0758 28.1728 74.7156 28.1728C75.2958 28.1728 75.8247 28.5459 75.8247 29.182C75.8247 29.7077 75.5261 30.2081 74.7412 30.8611L72.5914 32.625V33.3289ZM80.2409 33.4306C81.6997 33.4306 82.7405 32.184 82.7405 30.4116C82.7405 28.6477 81.6997 27.4011 80.2409 27.4011C78.7651 27.4011 77.7328 28.6477 77.7328 30.4116C77.7328 32.184 78.7651 33.4306 80.2409 33.4306ZM80.2409 32.6419C79.2855 32.6419 78.6115 31.7176 78.6115 30.4116C78.6115 29.1056 79.2855 28.1897 80.2409 28.1897C81.1879 28.1897 81.8533 29.1056 81.8533 30.4116C81.8533 31.7176 81.1879 32.6419 80.2409 32.6419ZM83.605 33.3289H87.7767V32.5317H84.97L86.3435 31.3784C87.3502 30.5643 87.7255 29.9452 87.7255 29.165C87.7255 28.1049 86.8554 27.4011 85.7634 27.4011C84.8335 27.4011 84.1425 27.8251 83.6306 28.529L84.2107 29.0378C84.6202 28.512 85.0894 28.1728 85.7292 28.1728C86.3094 28.1728 86.8383 28.5459 86.8383 29.182C86.8383 29.7077 86.5397 30.2081 85.7548 30.8611L83.605 32.625V33.3289ZM91.2549 33.4306C92.7137 33.4306 93.7545 32.184 93.7545 30.4116C93.7545 28.6477 92.7137 27.4011 91.2549 27.4011C89.779 27.4011 88.7468 28.6477 88.7468 30.4116C88.7468 32.184 89.779 33.4306 91.2549 33.4306ZM91.2549 32.6419C90.2994 32.6419 89.6255 31.7176 89.6255 30.4116C89.6255 29.1056 90.2994 28.1897 91.2549 28.1897C92.2018 28.1897 92.8673 29.1056 92.8673 30.4116C92.8673 31.7176 92.2018 32.6419 91.2549 32.6419Z" fill="black"/>
<path d="M26.7724 41.1394C26.7724 39.8742 25.7511 38.8123 24.532 38.8123C23.3192 38.8123 22.2852 39.8742 22.2852 41.1394C22.2852 42.4045 23.3192 43.473 24.532 43.473C25.0618 43.473 25.5533 43.2698 25.9426 42.9354L26.4532 43.3943L26.7724 43.0141L26.2809 42.5749C26.5873 42.1751 26.7724 41.6769 26.7724 41.1394ZM24.532 43.001C23.5873 43.001 22.7894 42.1488 22.7894 41.1394C22.7894 40.1364 23.5873 39.2843 24.532 39.2843C25.4767 39.2843 26.2681 40.1364 26.2681 41.1394C26.2681 41.5523 26.1341 41.9391 25.9171 42.2472L25.215 41.6244L24.8958 42.0046L25.5788 42.6143C25.2852 42.8568 24.9213 43.001 24.532 43.001ZM29.9106 40.0053V42.162C29.9106 42.6339 29.4446 43.0338 28.8893 43.0338C28.4042 43.0338 28.0659 42.647 28.0659 42.0964V40.0053H27.5871V42.162C27.5871 42.9289 28.0978 43.473 28.8254 43.473C29.2914 43.473 29.7191 43.2108 29.9106 42.8502V43.3943H30.3893V40.0053H29.9106ZM32.7049 39.9267C32.3858 39.9267 31.99 40.0119 31.5177 40.2544L31.7092 40.6543C32.0092 40.497 32.3411 40.3462 32.673 40.3462C33.3879 40.3462 33.5666 40.8706 33.5666 41.3295V41.454C33.2283 41.3426 32.8517 41.2639 32.4943 41.2639C31.7858 41.2639 31.1986 41.7162 31.1986 42.3914C31.1986 43.06 31.7092 43.473 32.4049 43.473C32.839 43.473 33.3305 43.2632 33.5666 42.8633V43.3943H34.0454V41.3295C34.0454 40.5101 33.6049 39.9267 32.7049 39.9267ZM32.4879 43.0403C32.022 43.0403 31.6645 42.7912 31.6645 42.3717C31.6645 41.9653 32.0794 41.6769 32.5709 41.6769C32.9283 41.6769 33.2666 41.7293 33.5666 41.8145V42.3324C33.439 42.8109 32.922 43.0403 32.4879 43.0403ZM35.5472 40.6674V40.0053H35.0685V43.3943H35.5472V41.4999C35.5472 40.8378 36.077 40.3659 36.8238 40.3659V39.9267C36.2174 39.9267 35.7451 40.2151 35.5472 40.6674ZM38.9347 42.8961C38.8645 42.9748 38.7369 43.0338 38.5901 43.0338C38.3986 43.0338 38.2326 42.8568 38.2326 42.6077V40.4445H39.0432V40.0053H38.2326V39.0745H37.7539V40.0053H37.2369V40.4445H37.7539V42.6077C37.7539 43.1124 38.0858 43.473 38.5581 43.473C38.7815 43.473 38.9986 43.3943 39.1709 43.2566L38.9347 42.8961ZM41.3357 43.0338C40.6846 43.0338 40.2314 42.5487 40.1612 41.8866H42.8612C42.8612 40.7002 42.2931 39.9267 41.2974 39.9267C40.4101 39.9267 39.6697 40.6805 39.6697 41.69C39.6697 42.7322 40.4612 43.473 41.342 43.473C41.8016 43.473 42.3825 43.2698 42.6697 42.9486L42.3761 42.6274C42.1718 42.8568 41.725 43.0338 41.3357 43.0338ZM41.3165 40.3659C41.974 40.3659 42.325 40.8378 42.3889 41.4475H40.1676C40.2569 40.792 40.7293 40.3659 41.3165 40.3659ZM44.1679 40.6674V40.0053H43.6892V43.3943H44.1679V41.4999C44.1679 40.8378 44.6977 40.3659 45.4445 40.3659V39.9267C44.8381 39.9267 44.3658 40.2151 44.1679 40.6674ZM46.1065 43.3943H46.5852V38.8123H46.1065V43.3943ZM48.0442 44.5742C48.4974 44.5676 48.8165 44.3513 49.0463 43.7745L50.5527 40.0053H50.0357L48.9442 42.824L47.7889 40.0053H47.2591L48.6952 43.4074L48.5038 43.8269C48.3761 44.0564 48.2357 44.1285 48.025 44.1285C47.8846 44.1285 47.7506 44.1022 47.6357 44.0432L47.5208 44.4628C47.674 44.5349 47.8527 44.5742 48.0442 44.5742ZM53.3024 43.3943H55.3896C56.1492 43.3943 56.6918 42.883 56.6918 42.162C56.6918 41.6703 56.3981 41.2639 55.8939 41.0017C56.2896 40.7657 56.5194 40.4904 56.5194 40.0119C56.5194 39.3564 56.0216 38.891 55.313 38.891H53.3024V43.3943ZM53.8003 40.7985V39.3564H55.1854C55.6705 39.3564 56.0152 39.6579 56.0152 40.0774C56.0152 40.497 55.6705 40.7985 55.1854 40.7985H53.8003ZM53.8003 42.9289V41.2639H55.262C55.8045 41.2639 56.1875 41.6113 56.1875 42.0964C56.1875 42.5815 55.8045 42.9289 55.262 42.9289H53.8003ZM58.0618 40.6674V40.0053H57.5831V43.3943H58.0618V41.4999C58.0618 40.8378 58.5916 40.3659 59.3384 40.3659V39.9267C58.732 39.9267 58.2597 40.2151 58.0618 40.6674ZM61.4881 43.0338C60.8371 43.0338 60.3839 42.5487 60.3137 41.8866H63.0137C63.0137 40.7002 62.4456 39.9267 61.4498 39.9267C60.5626 39.9267 59.8222 40.6805 59.8222 41.69C59.8222 42.7322 60.6137 43.473 61.4945 43.473C61.9541 43.473 62.5349 43.2698 62.8222 42.9486L62.5286 42.6274C62.3243 42.8568 61.8775 43.0338 61.4881 43.0338ZM61.469 40.3659C62.1264 40.3659 62.4775 40.8378 62.5413 41.4475H60.32C60.4094 40.792 60.8817 40.3659 61.469 40.3659ZM65.1374 39.9267C64.8182 39.9267 64.4225 40.0119 63.9501 40.2544L64.1416 40.6543C64.4416 40.497 64.7736 40.3462 65.1055 40.3462C65.8204 40.3462 65.9991 40.8706 65.9991 41.3295V41.454C65.6608 41.3426 65.2842 41.2639 64.9267 41.2639C64.2182 41.2639 63.631 41.7162 63.631 42.3914C63.631 43.06 64.1416 43.473 64.8374 43.473C65.2714 43.473 65.7629 43.2632 65.9991 42.8633V43.3943H66.4778V41.3295C66.4778 40.5101 66.0374 39.9267 65.1374 39.9267ZM64.9204 43.0403C64.4544 43.0403 64.097 42.7912 64.097 42.3717C64.097 41.9653 64.5118 41.6769 65.0033 41.6769C65.3608 41.6769 65.6991 41.7293 65.9991 41.8145V42.3324C65.8714 42.8109 65.3544 43.0403 64.9204 43.0403ZM70.3473 40.0053H69.7345L67.9281 41.8801V38.8123H67.4494V43.3943H67.9281V42.4963L68.5217 41.8932L69.6643 43.3943H70.2643L68.86 41.5589L70.3473 40.0053ZM73.5005 38.8123V40.6412C73.2515 40.1954 72.8303 39.9267 72.3005 39.9267C71.4324 39.9267 70.7813 40.6608 70.7813 41.6965C70.7813 42.7388 71.4324 43.473 72.3005 43.473C72.8303 43.473 73.2515 43.2042 73.5005 42.7585V43.3943H73.9792V38.8123H73.5005ZM72.3898 43.0338C71.7451 43.0338 71.2856 42.4766 71.2856 41.6965C71.2856 40.9165 71.7451 40.3659 72.3898 40.3659C73.0409 40.3659 73.5005 40.9165 73.5005 41.6965C73.5005 42.4766 73.0409 43.0338 72.3898 43.0338ZM76.5242 43.473C77.4497 43.473 78.2284 42.6601 78.2284 41.6965C78.2284 40.733 77.4497 39.9267 76.5242 39.9267C75.5986 39.9267 74.8135 40.733 74.8135 41.6965C74.8135 42.6601 75.5986 43.473 76.5242 43.473ZM76.5242 43.0338C75.8667 43.0338 75.3178 42.4242 75.3178 41.6965C75.3178 40.9755 75.8667 40.3659 76.5242 40.3659C77.1752 40.3659 77.7242 40.9755 77.7242 41.6965C77.7242 42.4242 77.1752 43.0338 76.5242 43.0338ZM79.7367 43.3943H80.1898L81.0771 40.6871L81.9516 43.3943H82.4047L83.5154 40.0053H83.0047L82.1813 42.7388L81.2813 40.0053H80.8664L79.9664 42.7388L79.143 40.0053H78.6324L79.7367 43.3943ZM85.7813 39.9267C85.3154 39.9267 84.8877 40.1889 84.6962 40.5494V40.0053H84.2175V43.3943H84.6962V41.2377C84.6962 40.7657 85.1622 40.3659 85.7175 40.3659C86.2026 40.3659 86.5409 40.7526 86.5409 41.3032V43.3943H87.0196V41.2377C87.0196 40.4708 86.509 39.9267 85.7813 39.9267ZM90.5868 39.5399C90.5868 39.2909 90.7528 39.1139 90.9443 39.1139C91.0911 39.1139 91.2187 39.1729 91.289 39.2515L91.5251 38.891C91.3528 38.7533 91.1358 38.6747 90.9124 38.6747C90.44 38.6747 90.1081 39.0352 90.1081 39.5399V40.0053H89.5911V40.4445H90.1081V43.3943H90.5868V40.4445H91.3975V40.0053H90.5868V39.5399ZM93.6096 43.473C94.5352 43.473 95.3139 42.6601 95.3139 41.6965C95.3139 40.733 94.5352 39.9267 93.6096 39.9267C92.6841 39.9267 91.899 40.733 91.899 41.6965C91.899 42.6601 92.6841 43.473 93.6096 43.473ZM93.6096 43.0338C92.9522 43.0338 92.4032 42.4242 92.4032 41.6965C92.4032 40.9755 92.9522 40.3659 93.6096 40.3659C94.2607 40.3659 94.8096 40.9755 94.8096 41.6965C94.8096 42.4242 94.2607 43.0338 93.6096 43.0338ZM96.6279 40.6674V40.0053H96.1491V43.3943H96.6279V41.4999C96.6279 40.8378 97.1577 40.3659 97.9045 40.3659V39.9267C97.2981 39.9267 96.8258 40.2151 96.6279 40.6674ZM100.246 43.3943H103.271V42.9092H101.044L102.192 41.8866C102.933 41.2311 103.227 40.7461 103.227 40.1364C103.227 39.3302 102.588 38.8123 101.829 38.8123C101.139 38.8123 100.648 39.1466 100.284 39.6776L100.635 39.9726C100.935 39.553 101.299 39.2712 101.809 39.2712C102.275 39.2712 102.722 39.5924 102.722 40.143C102.722 40.5887 102.467 41.0214 101.848 41.5654L100.246 42.9682V43.3943ZM105.894 43.473C106.96 43.473 107.713 42.5094 107.713 41.1394C107.713 39.7759 106.96 38.8123 105.894 38.8123C104.821 38.8123 104.068 39.7759 104.068 41.1394C104.068 42.5094 104.821 43.473 105.894 43.473ZM105.894 43.001C105.121 43.001 104.572 42.2275 104.572 41.1394C104.572 40.0512 105.121 39.2843 105.894 39.2843C106.666 39.2843 107.209 40.0512 107.209 41.1394C107.209 42.2275 106.666 43.001 105.894 43.001ZM108.405 43.3943H111.431V42.9092H109.203L110.352 41.8866C111.093 41.2311 111.386 40.7461 111.386 40.1364C111.386 39.3302 110.748 38.8123 109.988 38.8123C109.299 38.8123 108.808 39.1466 108.444 39.6776L108.795 39.9726C109.095 39.553 109.459 39.2712 109.969 39.2712C110.435 39.2712 110.882 39.5924 110.882 40.143C110.882 40.5887 110.627 41.0214 110.008 41.5654L108.405 42.9682V43.3943ZM113 43.3943H113.498V38.891H113.096L112.017 39.6448L112.234 40.025L113 39.5137V43.3943ZM114.459 41.8539H116.112V41.3753H114.459V41.8539ZM116.783 43.3943H119.809V42.9092H117.581L118.73 41.8866C119.47 41.2311 119.764 40.7461 119.764 40.1364C119.764 39.3302 119.126 38.8123 118.366 38.8123C117.677 38.8123 117.185 39.1466 116.821 39.6776L117.172 39.9726C117.472 39.553 117.836 39.2712 118.347 39.2712C118.813 39.2712 119.26 39.5924 119.26 40.143C119.26 40.5887 119.004 41.0214 118.385 41.5654L116.783 42.9682V43.3943ZM122.431 43.473C123.497 43.473 124.25 42.5094 124.25 41.1394C124.25 39.7759 123.497 38.8123 122.431 38.8123C121.359 38.8123 120.606 39.7759 120.606 41.1394C120.606 42.5094 121.359 43.473 122.431 43.473ZM122.431 43.001C121.659 43.001 121.11 42.2275 121.11 41.1394C121.11 40.0512 121.659 39.2843 122.431 39.2843C123.203 39.2843 123.746 40.0512 123.746 41.1394C123.746 42.2275 123.203 43.001 122.431 43.001ZM124.942 43.3943H127.968V42.9092H125.74L126.889 41.8866C127.63 41.2311 127.923 40.7461 127.923 40.1364C127.923 39.3302 127.285 38.8123 126.525 38.8123C125.836 38.8123 125.344 39.1466 124.981 39.6776L125.332 39.9726C125.632 39.553 125.996 39.2712 126.506 39.2712C126.972 39.2712 127.419 39.5924 127.419 40.143C127.419 40.5887 127.164 41.0214 126.545 41.5654L124.942 42.9682V43.3943ZM130.59 43.473C131.656 43.473 132.41 42.5094 132.41 41.1394C132.41 39.7759 131.656 38.8123 130.59 38.8123C129.518 38.8123 128.765 39.7759 128.765 41.1394C128.765 42.5094 129.518 43.473 130.59 43.473ZM130.59 43.001C129.818 43.001 129.269 42.2275 129.269 41.1394C129.269 40.0512 129.818 39.2843 130.59 39.2843C131.363 39.2843 131.905 40.0512 131.905 41.1394C131.905 42.2275 131.363 43.001 130.59 43.001Z" fill="#898989"/>
<path d="M146.832 225.438H147.224V223.114L148.506 225.259L149.788 223.114V225.438H150.181V222.362H149.788L148.506 224.508L147.224 222.362H146.832V225.438ZM152.089 223.069C151.837 223.069 151.526 223.13 151.154 223.293L151.304 223.568C151.541 223.459 151.802 223.357 152.064 223.357C152.627 223.357 152.768 223.715 152.768 224.028V224.115C152.501 224.038 152.204 223.984 151.923 223.984C151.365 223.984 150.902 224.294 150.902 224.754C150.902 225.211 151.304 225.493 151.852 225.493C152.194 225.493 152.581 225.349 152.768 225.077V225.438H153.145V224.028C153.145 223.469 152.798 223.069 152.089 223.069ZM151.918 225.195C151.551 225.195 151.269 225.026 151.269 224.741C151.269 224.463 151.596 224.265 151.983 224.265C152.265 224.265 152.531 224.3 152.768 224.361V224.713C152.667 225.039 152.26 225.195 151.918 225.195ZM155.152 223.069C154.785 223.069 154.448 223.248 154.297 223.494V223.123H153.92V225.438H154.297V223.964C154.297 223.645 154.664 223.37 155.102 223.37C155.484 223.37 155.751 223.635 155.751 224.009V225.438H156.128V223.964C156.128 223.443 155.725 223.069 155.152 223.069ZM158.721 223.123V224.598C158.721 224.92 158.354 225.192 157.917 225.192C157.534 225.192 157.268 224.927 157.268 224.553V223.123H156.891V224.598C156.891 225.122 157.293 225.493 157.866 225.493C158.233 225.493 158.57 225.314 158.721 225.068V225.438H159.098V223.123H158.721ZM160.455 222.807C160.455 222.637 160.585 222.516 160.736 222.516C160.852 222.516 160.952 222.554 161.008 222.609L161.194 222.362C161.058 222.27 160.887 222.215 160.711 222.215C160.339 222.215 160.077 222.462 160.077 222.807V223.123H159.67V223.424H160.077V225.438H160.455V223.424H161.093V223.123H160.455V222.807ZM162.685 223.069C162.433 223.069 162.122 223.13 161.75 223.293L161.9 223.568C162.137 223.459 162.398 223.357 162.66 223.357C163.223 223.357 163.364 223.715 163.364 224.028V224.115C163.097 224.038 162.8 223.984 162.519 223.984C161.961 223.984 161.498 224.294 161.498 224.754C161.498 225.211 161.9 225.493 162.448 225.493C162.79 225.493 163.178 225.349 163.364 225.077V225.438H163.741V224.028C163.741 223.469 163.394 223.069 162.685 223.069ZM162.514 225.195C162.147 225.195 161.865 225.026 161.865 224.741C161.865 224.463 162.192 224.265 162.579 224.265C162.861 224.265 163.127 224.3 163.364 224.361V224.713C163.263 225.039 162.856 225.195 162.514 225.195ZM165.718 225.493C166.08 225.493 166.412 225.359 166.658 225.138L166.397 224.911C166.221 225.084 165.98 225.192 165.718 225.192C165.2 225.192 164.768 224.777 164.768 224.278C164.768 223.785 165.2 223.37 165.718 223.37C165.975 223.37 166.211 223.472 166.382 223.638L166.643 223.411C166.397 223.2 166.07 223.069 165.718 223.069C164.989 223.069 164.371 223.622 164.371 224.278C164.371 224.936 164.989 225.493 165.718 225.493ZM169.066 223.123V224.598C169.066 224.92 168.699 225.192 168.262 225.192C167.88 225.192 167.613 224.927 167.613 224.553V223.123H167.236V224.598C167.236 225.122 167.638 225.493 168.212 225.493C168.579 225.493 168.916 225.314 169.066 225.068V225.438H169.443V223.123H169.066ZM170.624 223.578V223.123H170.247V225.438H170.624V224.143C170.624 223.693 171.042 223.37 171.63 223.37V223.069C171.152 223.069 170.78 223.267 170.624 223.578ZM173.323 225.192C172.81 225.192 172.453 224.86 172.398 224.409H174.525C174.525 223.6 174.077 223.069 173.293 223.069C172.594 223.069 172.011 223.584 172.011 224.275C172.011 224.988 172.634 225.493 173.328 225.493C173.69 225.493 174.147 225.352 174.374 225.135L174.142 224.914C173.982 225.071 173.63 225.192 173.323 225.192ZM173.308 223.37C173.826 223.37 174.102 223.693 174.152 224.108H172.403C172.473 223.661 172.845 223.37 173.308 223.37ZM175.554 223.578V223.123H175.177V225.438H175.554V224.143C175.554 223.693 175.971 223.37 176.559 223.37V223.069C176.082 223.069 175.71 223.267 175.554 223.578ZM178.001 225.493C178.539 225.493 178.952 225.218 178.952 224.793C178.952 224.355 178.519 224.23 178.102 224.115C177.619 223.974 177.428 223.913 177.428 223.712C177.428 223.488 177.67 223.37 177.961 223.37C178.192 223.37 178.449 223.443 178.71 223.59L178.891 223.331C178.615 223.168 178.283 223.069 177.961 223.069C177.443 223.069 177.051 223.331 177.051 223.75C177.051 224.083 177.292 224.249 177.921 224.409C178.273 224.498 178.575 224.578 178.575 224.831C178.575 225.048 178.343 225.192 178.001 225.192C177.715 225.192 177.418 225.093 177.121 224.901L176.925 225.148C177.237 225.371 177.639 225.493 178.001 225.493Z" fill="black"/>
<path d="M207.186 225.486C207.988 225.486 208.399 225.084 208.399 224.588C208.399 224.04 207.928 223.827 207.271 223.687C206.685 223.557 206.344 223.444 206.344 223.123C206.344 222.838 206.655 222.582 207.081 222.582C207.442 222.582 207.782 222.734 208.068 222.984L208.309 222.705C207.993 222.442 207.612 222.261 207.101 222.261C206.44 222.261 205.948 222.65 205.948 223.149C205.948 223.69 206.384 223.885 207.076 224.031C207.677 224.157 208.003 224.29 208.003 224.621C208.003 224.903 207.732 225.165 207.201 225.165C206.72 225.165 206.364 224.981 206.074 224.715L205.828 224.994C206.174 225.302 206.62 225.486 207.186 225.486ZM210.219 225.188C209.708 225.188 209.352 224.851 209.297 224.394H211.417C211.417 223.574 210.971 223.036 210.189 223.036C209.493 223.036 208.911 223.557 208.911 224.258C208.911 224.981 209.533 225.493 210.224 225.493C210.585 225.493 211.041 225.35 211.267 225.13L211.036 224.906C210.876 225.065 210.525 225.188 210.219 225.188ZM210.204 223.34C210.721 223.34 210.996 223.668 211.046 224.089H209.302C209.372 223.635 209.743 223.34 210.204 223.34ZM212.443 223.551V223.091H212.067V225.438H212.443V224.125C212.443 223.668 212.859 223.34 213.445 223.34V223.036C212.969 223.036 212.598 223.237 212.443 223.551ZM214.822 225.438H215.183L216.27 223.091H215.849L215.003 225.039L214.141 223.091H213.72L214.822 225.438ZM216.974 222.666C217.109 222.666 217.22 222.559 217.22 222.439C217.22 222.319 217.109 222.215 216.974 222.215C216.834 222.215 216.724 222.319 216.724 222.439C216.724 222.559 216.834 222.666 216.974 222.666ZM216.784 225.438H217.16V223.091H216.784V225.438ZM219.117 225.493C219.478 225.493 219.809 225.357 220.054 225.133L219.794 224.903C219.618 225.078 219.378 225.188 219.117 225.188C218.601 225.188 218.17 224.767 218.17 224.261C218.17 223.762 218.601 223.34 219.117 223.34C219.373 223.34 219.608 223.444 219.779 223.613L220.039 223.382C219.794 223.168 219.468 223.036 219.117 223.036C218.391 223.036 217.774 223.596 217.774 224.261C217.774 224.929 218.391 225.493 219.117 225.493ZM221.798 225.188C221.287 225.188 220.931 224.851 220.876 224.394H222.996C222.996 223.574 222.55 223.036 221.768 223.036C221.072 223.036 220.49 223.557 220.49 224.258C220.49 224.981 221.112 225.493 221.803 225.493C222.164 225.493 222.62 225.35 222.845 225.13L222.615 224.906C222.455 225.065 222.104 225.188 221.798 225.188ZM221.783 223.34C222.299 223.34 222.575 223.668 222.625 224.089H220.881C220.951 223.635 221.322 223.34 221.783 223.34ZM225.079 225.438H225.47V224.316H226.477C227.189 224.316 227.745 223.904 227.745 223.318C227.745 222.734 227.189 222.319 226.477 222.319H225.079V225.438ZM225.47 223.982V222.656H226.407C226.968 222.656 227.349 222.899 227.349 223.318C227.349 223.736 226.968 223.982 226.407 223.982H225.47ZM228.7 223.551V223.091H228.324V225.438H228.7V224.125C228.7 223.668 229.116 223.34 229.702 223.34V223.036C229.226 223.036 228.855 223.237 228.7 223.551ZM231.342 225.493C232.068 225.493 232.68 224.929 232.68 224.261C232.68 223.596 232.068 223.036 231.342 223.036C230.615 223.036 229.999 223.596 229.999 224.261C229.999 224.929 230.615 225.493 231.342 225.493ZM231.342 225.188C230.825 225.188 230.395 224.767 230.395 224.261C230.395 223.762 230.825 223.34 231.342 223.34C231.853 223.34 232.284 223.762 232.284 224.261C232.284 224.767 231.853 225.188 231.342 225.188ZM234.059 225.438H234.42L235.508 223.091H235.087L234.24 225.039L233.378 223.091H232.957L234.059 225.438ZM236.211 222.666C236.347 222.666 236.457 222.559 236.457 222.439C236.457 222.319 236.347 222.215 236.211 222.215C236.071 222.215 235.961 222.319 235.961 222.439C235.961 222.559 236.071 222.666 236.211 222.666ZM236.021 225.438H236.397V223.091H236.021V225.438ZM239.176 222.264V223.532C238.981 223.224 238.65 223.036 238.234 223.036C237.553 223.036 237.042 223.544 237.042 224.261C237.042 224.984 237.553 225.493 238.234 225.493C238.65 225.493 238.981 225.305 239.176 224.997V225.438H239.552V222.264H239.176ZM238.304 225.188C237.798 225.188 237.437 224.802 237.437 224.261C237.437 223.723 237.798 223.34 238.304 223.34C238.815 223.34 239.176 223.723 239.176 224.261C239.176 224.802 238.815 225.188 238.304 225.188ZM241.515 225.188C241.004 225.188 240.648 224.851 240.593 224.394H242.713C242.713 223.574 242.267 223.036 241.485 223.036C240.788 223.036 240.207 223.557 240.207 224.258C240.207 224.981 240.829 225.493 241.52 225.493C241.881 225.493 242.337 225.35 242.562 225.13L242.332 224.906C242.172 225.065 241.821 225.188 241.515 225.188ZM241.5 223.34C242.016 223.34 242.292 223.668 242.342 224.089H240.598C240.668 223.635 241.039 223.34 241.5 223.34ZM243.739 223.551V223.091H243.363V225.438H243.739V224.125C243.739 223.668 244.155 223.34 244.741 223.34V223.036C244.265 223.036 243.894 223.237 243.739 223.551ZM246.178 225.493C246.714 225.493 247.125 225.214 247.125 224.783C247.125 224.339 246.694 224.212 246.278 224.096C245.797 223.953 245.606 223.891 245.606 223.687C245.606 223.46 245.847 223.34 246.138 223.34C246.368 223.34 246.624 223.415 246.884 223.564L247.065 223.301C246.789 223.136 246.458 223.036 246.138 223.036C245.621 223.036 245.231 223.301 245.231 223.726C245.231 224.063 245.471 224.232 246.097 224.394C246.448 224.485 246.749 224.566 246.749 224.822C246.749 225.042 246.518 225.188 246.178 225.188C245.892 225.188 245.596 225.088 245.301 224.893L245.105 225.143C245.416 225.37 245.817 225.493 246.178 225.493Z" fill="black"/>
<path d="M100.355 66.2057C102.345 66.2057 103.747 65.0312 103.747 63.2371C103.747 61.4688 102.358 60.462 100.715 60.462C99.9006 60.462 99.2862 60.7201 98.8053 61.0299L98.8855 58.3969H103.253V57.1836H97.6033L97.4697 61.8173L98.418 62.2303C98.9656 61.8302 99.6201 61.5849 100.381 61.5849C101.57 61.5849 102.385 62.269 102.385 63.2887C102.385 64.2825 101.583 65.057 100.395 65.057C99.4197 65.057 98.5649 64.5923 97.8571 63.8824L97.0156 64.8117C97.8036 65.6378 98.8988 66.2057 100.355 66.2057ZM109.096 66.2057C111.38 66.2057 113.009 64.3084 113.009 61.6108C113.009 58.9261 111.38 57.0287 109.096 57.0287C106.785 57.0287 105.169 58.9261 105.169 61.6108C105.169 64.3084 106.785 66.2057 109.096 66.2057ZM109.096 65.0054C107.6 65.0054 106.545 63.5985 106.545 61.6108C106.545 59.623 107.6 58.2291 109.096 58.2291C110.578 58.2291 111.62 59.623 111.62 61.6108C111.62 63.5985 110.578 65.0054 109.096 65.0054ZM115.524 66.2057C116.005 66.2057 116.393 65.8056 116.393 65.328C116.393 64.8892 116.005 64.4891 115.524 64.4891C115.017 64.4891 114.63 64.8892 114.63 65.328C114.63 65.8056 115.017 66.2057 115.524 66.2057ZM121.864 60.4491C120.849 60.4491 119.927 60.8879 119.366 61.6237C119.406 59.6618 120.461 58.2033 121.864 58.2033C122.705 58.2033 123.279 58.5517 123.854 59.0551L124.548 58.0484C123.84 57.4417 122.999 57.0287 121.877 57.0287C119.633 57.0287 117.99 59.068 117.99 61.7527C117.99 64.2825 119.072 66.2057 121.623 66.2057C123.56 66.2057 124.949 64.9279 124.949 63.2242C124.949 61.4688 123.546 60.4491 121.864 60.4491ZM121.57 65.0957C120.368 65.0957 119.713 64.2438 119.473 62.9789C119.713 62.1141 120.528 61.5462 121.543 61.5462C122.665 61.5462 123.56 62.2045 123.56 63.2887C123.56 64.1793 122.812 65.0957 121.57 65.0957ZM129.676 66.2057C131.666 66.2057 133.068 65.0312 133.068 63.2371C133.068 61.4688 131.679 60.462 130.036 60.462C129.222 60.462 128.607 60.7201 128.126 61.0299L128.207 58.3969H132.574V57.1836H126.924L126.791 61.8173L127.739 62.2303C128.287 61.8302 128.941 61.5849 129.703 61.5849C130.891 61.5849 131.706 62.269 131.706 63.2887C131.706 64.2825 130.905 65.057 129.716 65.057C128.741 65.057 127.886 64.5923 127.178 63.8824L126.337 64.8117C127.125 65.6378 128.22 66.2057 129.676 66.2057Z" fill="#FF6868"/>
<path d="M100.598 73.8325H101.1L99.3092 70.2585H98.8067L97.0156 73.8325H97.5181L97.926 73.0209H100.19L100.598 73.8325ZM98.1151 72.636L99.0609 70.7579L100.001 72.636H98.1151ZM102.749 73.8325H103.174L104.457 71.1429H103.961L102.962 73.3747L101.945 71.1429H101.448L102.749 73.8325ZM107.445 71.1429V71.6059C107.209 71.2781 106.819 71.0804 106.334 71.0804C105.512 71.0804 104.927 71.6059 104.927 72.355C104.927 73.1042 105.512 73.6348 106.334 73.6348C106.819 73.6348 107.209 73.4371 107.445 73.1094V73.5464C107.445 74.0718 107.031 74.3787 106.328 74.3787C105.95 74.3787 105.583 74.2591 105.347 74.0614L105.152 74.3683C105.429 74.5764 105.891 74.7273 106.387 74.7273C107.268 74.7273 107.889 74.2383 107.889 73.5464V71.1429H107.445ZM106.417 73.2863C105.82 73.2863 105.394 72.9013 105.394 72.355C105.394 71.814 105.82 71.429 106.417 71.429C107.02 71.429 107.445 71.814 107.445 72.355C107.445 72.9013 107.02 73.2863 106.417 73.2863ZM109.134 73.8949C109.306 73.8949 109.447 73.7649 109.447 73.6088C109.447 73.4631 109.306 73.3331 109.134 73.3331C108.951 73.3331 108.809 73.4631 108.809 73.6088C108.809 73.7649 108.951 73.8949 109.134 73.8949ZM113.461 73.8897C114.407 73.8897 114.892 73.4267 114.892 72.8597C114.892 72.2302 114.336 71.9856 113.562 71.8244C112.87 71.6787 112.468 71.5486 112.468 71.1793C112.468 70.8515 112.835 70.5602 113.337 70.5602C113.763 70.5602 114.165 70.7319 114.502 71.018L114.785 70.7007C114.413 70.3989 113.964 70.1908 113.361 70.1908C112.58 70.1908 112.001 70.6382 112.001 71.2105C112.001 71.8296 112.515 72.0533 113.331 72.2197C114.04 72.3654 114.425 72.5163 114.425 72.8961C114.425 73.2186 114.106 73.5203 113.479 73.5203C112.911 73.5203 112.492 73.307 112.149 73.0053L111.859 73.3227C112.267 73.6764 112.793 73.8897 113.461 73.8897ZM117.039 73.5464C116.436 73.5464 116.017 73.1614 115.952 72.636H118.452C118.452 71.6943 117.926 71.0804 117.004 71.0804C116.182 71.0804 115.496 71.6787 115.496 72.4799C115.496 73.307 116.229 73.8949 117.045 73.8949C117.471 73.8949 118.009 73.7336 118.275 73.4787L118.003 73.2238C117.814 73.4059 117.4 73.5464 117.039 73.5464ZM117.021 71.429C117.63 71.429 117.955 71.8036 118.015 72.2874H115.957C116.04 71.7671 116.478 71.429 117.021 71.429ZM119.662 71.6683V71.1429H119.219V73.8325H119.662V72.329C119.662 71.8036 120.153 71.429 120.844 71.429V71.0804C120.283 71.0804 119.845 71.3093 119.662 71.6683ZM122.468 73.8325H122.894L124.177 71.1429H123.68L122.681 73.3747L121.664 71.1429H121.168L122.468 73.8325ZM125.007 70.6538C125.167 70.6538 125.297 70.5342 125.297 70.3937C125.297 70.2584 125.167 70.1388 125.007 70.1388C124.842 70.1388 124.712 70.2584 124.712 70.3937C124.712 70.5342 124.842 70.6538 125.007 70.6538ZM124.783 73.8325H125.226V71.1429H124.783V73.8325ZM127.535 73.8949C127.961 73.8949 128.351 73.7389 128.64 73.4839L128.333 73.2186C128.126 73.4215 127.842 73.5464 127.535 73.5464C126.926 73.5464 126.418 73.0625 126.418 72.4851C126.418 71.9128 126.926 71.429 127.535 71.429C127.837 71.429 128.114 71.5486 128.315 71.7411L128.623 71.4758C128.333 71.2313 127.949 71.0804 127.535 71.0804C126.678 71.0804 125.951 71.7203 125.951 72.4851C125.951 73.2498 126.678 73.8949 127.535 73.8949ZM130.698 73.5464C130.095 73.5464 129.675 73.1614 129.61 72.636H132.11C132.11 71.6943 131.584 71.0804 130.662 71.0804C129.84 71.0804 129.155 71.6787 129.155 72.4799C129.155 73.307 129.888 73.8949 130.703 73.8949C131.129 73.8949 131.667 73.7336 131.933 73.4787L131.661 73.2238C131.472 73.4059 131.058 73.5464 130.698 73.5464ZM130.68 71.429C131.289 71.429 131.614 71.8036 131.673 72.2874H129.616C129.699 71.7671 130.136 71.429 130.68 71.429ZM133.918 73.8949C134.55 73.8949 135.035 73.5776 135.035 73.0834C135.035 72.5735 134.526 72.4279 134.036 72.2926C133.468 72.1313 133.244 72.0585 133.244 71.8244C133.244 71.5643 133.527 71.429 133.87 71.429C134.142 71.429 134.444 71.5122 134.751 71.6839L134.964 71.3822C134.639 71.1949 134.249 71.0804 133.87 71.0804C133.261 71.0804 132.8 71.3822 132.8 71.8712C132.8 72.2562 133.084 72.4487 133.823 72.636C134.237 72.74 134.591 72.8336 134.591 73.125C134.591 73.3799 134.32 73.5464 133.918 73.5464C133.581 73.5464 133.232 73.4319 132.883 73.2082L132.653 73.4943C133.019 73.7545 133.492 73.8949 133.918 73.8949Z" fill="#898989"/>
<path d="M25.7731 66.8612C27.7797 66.8612 29.1129 65.777 29.1129 64.2798C29.1129 63.0407 28.1029 62.3695 27.1332 62.163C28.1029 61.879 28.9109 61.1949 28.9109 60.0978C28.9109 58.678 27.6046 57.6842 25.7327 57.6842C24.2244 57.6842 23.174 58.3554 22.4602 59.246L23.3086 60.0462C23.9551 59.3234 24.6688 58.8588 25.6384 58.8588C26.7158 58.8588 27.5238 59.4525 27.5238 60.2785C27.5238 61.1691 26.7023 61.6596 25.5307 61.6596L24.5207 61.6467V62.8084H25.5307C26.9178 62.7955 27.7123 63.273 27.7123 64.1894C27.7123 65.08 26.9447 65.6867 25.7462 65.6867C24.6823 65.6867 23.78 65.2091 23.1605 64.4863L22.2852 65.3511C22.9989 66.2029 24.1975 66.8612 25.7731 66.8612ZM34.4834 66.8612C36.7862 66.8612 38.4292 64.9639 38.4292 62.2663C38.4292 59.5816 36.7862 57.6842 34.4834 57.6842C32.1536 57.6842 30.5241 59.5816 30.5241 62.2663C30.5241 64.9639 32.1536 66.8612 34.4834 66.8612ZM34.4834 65.6609C32.9751 65.6609 31.9112 64.254 31.9112 62.2663C31.9112 60.2786 32.9751 58.8846 34.4834 58.8846C35.9782 58.8846 37.0286 60.2786 37.0286 62.2663C37.0286 64.254 35.9782 65.6609 34.4834 65.6609ZM40.9649 66.8612C41.4497 66.8612 41.8403 66.4611 41.8403 65.9835C41.8403 65.5447 41.4497 65.1446 40.9649 65.1446C40.4532 65.1446 40.0626 65.5447 40.0626 65.9835C40.0626 66.4611 40.4532 66.8612 40.9649 66.8612ZM45.189 66.7063H46.5627V57.8391H45.4584L43.0209 59.4267L43.5865 60.3689L45.189 59.388V66.7063ZM51.7205 66.8612C53.7271 66.8612 55.0603 65.777 55.0603 64.2798C55.0603 63.0407 54.0503 62.3695 53.0806 62.163C54.0503 61.879 54.8583 61.1949 54.8583 60.0978C54.8583 58.678 53.552 57.6842 51.6801 57.6842C50.1718 57.6842 49.1214 58.3554 48.4076 59.246L49.256 60.0462C49.9024 59.3234 50.6162 58.8588 51.5858 58.8588C52.6632 58.8588 53.4712 59.4525 53.4712 60.2785C53.4712 61.1691 52.6497 61.6596 51.4781 61.6596L50.4681 61.6467V62.8084H51.4781C52.8652 62.7955 53.6597 63.273 53.6597 64.1894C53.6597 65.08 52.8921 65.6867 51.6935 65.6867C50.6297 65.6867 49.7274 65.2091 49.1079 64.4863L48.2325 65.3511C48.9463 66.2029 50.1449 66.8612 51.7205 66.8612Z" fill="#70A2FF"/>
<path d="M25.7987 73.8425H26.2915L24.5347 70.3086H24.0419L22.2852 73.8425H22.778L23.178 73.04H25.3986L25.7987 73.8425ZM23.3636 72.6594L24.2912 70.8024L25.2131 72.6594H23.3636ZM27.9083 73.8425H28.3257L29.5839 71.1831H29.0968L28.117 73.3898L27.1198 71.1831H26.6327L27.9083 73.8425ZM32.5147 71.1831V71.6409C32.2828 71.3168 31.9001 71.1213 31.4247 71.1213C30.6188 71.1213 30.0448 71.6409 30.0448 72.3816C30.0448 73.1224 30.6188 73.6471 31.4247 73.6471C31.9001 73.6471 32.2828 73.4516 32.5147 73.1275V73.5596C32.5147 74.0791 32.1089 74.3826 31.4189 74.3826C31.0478 74.3826 30.6884 74.2643 30.4565 74.0689L30.2651 74.3724C30.5376 74.5781 30.9899 74.7273 31.4769 74.7273C32.3408 74.7273 32.9496 74.2438 32.9496 73.5596V71.1831H32.5147ZM31.5059 73.3024C30.9203 73.3024 30.5028 72.9217 30.5028 72.3816C30.5028 71.8466 30.9203 71.466 31.5059 71.466C32.0973 71.466 32.5147 71.8466 32.5147 72.3816C32.5147 72.9217 32.0973 73.3024 31.5059 73.3024ZM34.1712 73.9043C34.3394 73.9043 34.4785 73.7757 34.4785 73.6213C34.4785 73.4773 34.3394 73.3487 34.1712 73.3487C33.9915 73.3487 33.8524 73.4773 33.8524 73.6213C33.8524 73.7757 33.9915 73.9043 34.1712 73.9043ZM37.1224 73.8425H37.5746V71.1728L39.0531 73.6368L40.5315 71.1728V73.8425H40.9838V70.3086H40.5315L39.0531 72.7726L37.5746 70.3086H37.1224V73.8425ZM43.1841 71.1213C42.8942 71.1213 42.5347 71.1882 42.1057 71.3785L42.2796 71.6923C42.5521 71.5689 42.8536 71.4505 43.1551 71.4505C43.8044 71.4505 43.9668 71.8621 43.9668 72.2222V72.3199C43.6595 72.2324 43.3174 72.1707 42.9927 72.1707C42.3492 72.1707 41.8158 72.5256 41.8158 73.0555C41.8158 73.5802 42.2796 73.9043 42.9116 73.9043C43.3058 73.9043 43.7523 73.7397 43.9668 73.4259V73.8425H44.4016V72.2222C44.4016 71.5791 44.0016 71.1213 43.1841 71.1213ZM42.9869 73.5648C42.5637 73.5648 42.239 73.3693 42.239 73.04C42.239 72.7211 42.6159 72.4948 43.0623 72.4948C43.387 72.4948 43.6943 72.5359 43.9668 72.6028V73.0092C43.8508 73.3847 43.3812 73.5648 42.9869 73.5648ZM46.7166 71.1213C46.2934 71.1213 45.9049 71.3271 45.731 71.61V71.1831H45.2962V73.8425H45.731V72.1501C45.731 71.7797 46.1542 71.466 46.6587 71.466C47.0993 71.466 47.4066 71.7695 47.4066 72.2016V73.8425H47.8414V72.1501C47.8414 71.5483 47.3776 71.1213 46.7166 71.1213ZM50.8319 71.1831V72.8754C50.8319 73.2458 50.4087 73.5596 49.9042 73.5596C49.4636 73.5596 49.1563 73.2561 49.1563 72.824V71.1831H48.7215V72.8754C48.7215 73.4773 49.1853 73.9043 49.8463 73.9043C50.2695 73.9043 50.658 73.6985 50.8319 73.4156V73.8425H51.2667V71.1831H50.8319ZM52.8309 70.8178C52.8309 70.6223 52.9817 70.4834 53.1556 70.4834C53.289 70.4834 53.4049 70.5297 53.4687 70.5915L53.6832 70.3086C53.5267 70.2005 53.3295 70.1388 53.1266 70.1388C52.6976 70.1388 52.3961 70.4217 52.3961 70.8178V71.1831H51.9265V71.5277H52.3961V73.8425H52.8309V71.5277H53.5673V71.1831H52.8309V70.8178ZM55.4027 71.1213C55.1128 71.1213 54.7533 71.1882 54.3243 71.3785L54.4982 71.6923C54.7707 71.5689 55.0722 71.4505 55.3737 71.4505C56.0231 71.4505 56.1854 71.8621 56.1854 72.2222V72.3199C55.8781 72.2324 55.5361 72.1707 55.2114 72.1707C54.5678 72.1707 54.0344 72.5256 54.0344 73.0555C54.0344 73.5802 54.4982 73.9043 55.1302 73.9043C55.5245 73.9043 55.9709 73.7397 56.1854 73.4259V73.8425H56.6203V72.2222C56.6203 71.5791 56.2202 71.1213 55.4027 71.1213ZM55.2056 73.5648C54.7823 73.5648 54.4577 73.3693 54.4577 73.04C54.4577 72.7211 54.8345 72.4948 55.281 72.4948C55.6056 72.4948 55.9129 72.5359 56.1854 72.6028V73.0092C56.0695 73.3847 55.5998 73.5648 55.2056 73.5648ZM58.9005 73.9043C59.3179 73.9043 59.7006 73.7499 59.9847 73.4979L59.6832 73.2355C59.4803 73.4362 59.202 73.5596 58.9005 73.5596C58.3033 73.5596 57.8047 73.0812 57.8047 72.5102C57.8047 71.9444 58.3033 71.466 58.9005 71.466C59.1962 71.466 59.4687 71.5843 59.6658 71.7746L59.9673 71.5123C59.6832 71.2705 59.3063 71.1213 58.9005 71.1213C58.0598 71.1213 57.3467 71.754 57.3467 72.5102C57.3467 73.2664 58.0598 73.9043 58.9005 73.9043ZM61.9672 73.4516C61.9034 73.5133 61.7874 73.5596 61.6541 73.5596C61.4801 73.5596 61.3294 73.4207 61.3294 73.2252V71.5277H62.0657V71.1831H61.3294V70.4526H60.8946V71.1831H60.4249V71.5277H60.8946V73.2252C60.8946 73.6213 61.196 73.9043 61.6251 73.9043C61.828 73.9043 62.0251 73.8425 62.1817 73.7345L61.9672 73.4516ZM64.9075 71.1831V72.8754C64.9075 73.2458 64.4843 73.5596 63.9799 73.5596C63.5392 73.5596 63.2319 73.2561 63.2319 72.824V71.1831H62.7971V72.8754C62.7971 73.4773 63.2609 73.9043 63.9219 73.9043C64.3451 73.9043 64.7336 73.6985 64.9075 73.4156V73.8425H65.3424V71.1831H64.9075ZM66.7036 71.7026V71.1831H66.2688V73.8425H66.7036V72.3559C66.7036 71.8363 67.1849 71.466 67.8632 71.466V71.1213C67.3124 71.1213 66.8834 71.3477 66.7036 71.7026ZM69.8159 73.5596C69.2245 73.5596 68.8128 73.179 68.749 72.6594H71.2015C71.2015 71.7283 70.6855 71.1213 69.7811 71.1213C68.9752 71.1213 68.3026 71.7129 68.3026 72.5051C68.3026 73.323 69.0215 73.9043 69.8217 73.9043C70.2391 73.9043 70.7667 73.7448 71.0276 73.4927L70.7609 73.2407C70.5754 73.4207 70.1695 73.5596 69.8159 73.5596ZM69.7985 71.466C70.3956 71.466 70.7145 71.8363 70.7725 72.3147H68.7548C68.836 71.8003 69.2651 71.466 69.7985 71.466ZM72.974 73.9043C73.5944 73.9043 74.0698 73.5905 74.0698 73.1018C74.0698 72.5977 73.5712 72.4536 73.09 72.3199C72.5334 72.1604 72.3131 72.0884 72.3131 71.8569C72.3131 71.5997 72.5914 71.466 72.9277 71.466C73.1944 71.466 73.4901 71.5483 73.7915 71.718L74.0003 71.4197C73.6814 71.2345 73.2987 71.1213 72.9277 71.1213C72.3305 71.1213 71.8782 71.4197 71.8782 71.9032C71.8782 72.2839 72.1565 72.4742 72.8813 72.6594C73.2871 72.7623 73.635 72.8549 73.635 73.1429C73.635 73.395 73.3683 73.5596 72.974 73.5596C72.6436 73.5596 72.3015 73.4464 71.9594 73.2252L71.7333 73.5082C72.0928 73.7654 72.5566 73.9043 72.974 73.9043Z" fill="#898989"/>
<path d="M25.2752 203.206C25.8715 203.206 26.2929 202.664 26.2929 201.893C26.2929 201.126 25.8715 200.584 25.2752 200.584C24.6753 200.584 24.2539 201.126 24.2539 201.893C24.2539 202.664 24.6753 203.206 25.2752 203.206ZM25.2752 202.94C24.8431 202.94 24.536 202.505 24.536 201.893C24.536 201.281 24.8431 200.849 25.2752 200.849C25.7073 200.849 26.0108 201.281 26.0108 201.893C26.0108 202.505 25.7073 202.94 25.2752 202.94ZM26.9625 203.206C27.066 203.206 27.1517 203.114 27.1517 203.003C27.1517 202.9 27.066 202.807 26.9625 202.807C26.8518 202.807 26.7661 202.9 26.7661 203.003C26.7661 203.114 26.8518 203.206 26.9625 203.206ZM28.6404 203.206C29.2368 203.206 29.6581 202.664 29.6581 201.893C29.6581 201.126 29.2368 200.584 28.6404 200.584C28.0405 200.584 27.6191 201.126 27.6191 201.893C27.6191 202.664 28.0405 203.206 28.6404 203.206ZM28.6404 202.94C28.2083 202.94 27.9012 202.505 27.9012 201.893C27.9012 201.281 28.2083 200.849 28.6404 200.849C29.0725 200.849 29.376 201.281 29.376 201.893C29.376 202.505 29.0725 202.94 28.6404 202.94ZM31.1022 203.206C31.6986 203.206 32.1199 202.664 32.1199 201.893C32.1199 201.126 31.6986 200.584 31.1022 200.584C30.5023 200.584 30.0809 201.126 30.0809 201.893C30.0809 202.664 30.5023 203.206 31.1022 203.206ZM31.1022 202.94C30.6701 202.94 30.363 202.505 30.363 201.893C30.363 201.281 30.6701 200.849 31.1022 200.849C31.5343 200.849 31.8378 201.281 31.8378 201.893C31.8378 202.505 31.5343 202.94 31.1022 202.94Z" fill="#898989"/>
<path d="M45.1383 209.759C45.1383 209.047 44.5627 208.45 43.8756 208.45C43.1921 208.45 42.6094 209.047 42.6094 209.759C42.6094 210.471 43.1921 211.072 43.8756 211.072C44.1742 211.072 44.4512 210.957 44.6706 210.769L44.9584 211.027L45.1383 210.814L44.8613 210.566C45.034 210.342 45.1383 210.061 45.1383 209.759ZM43.8756 210.806C43.3432 210.806 42.8936 210.327 42.8936 209.759C42.8936 209.195 43.3432 208.715 43.8756 208.715C44.408 208.715 44.8541 209.195 44.8541 209.759C44.8541 209.991 44.7786 210.209 44.6562 210.382L44.2605 210.032L44.0807 210.246L44.4656 210.589C44.3001 210.725 44.0951 210.806 43.8756 210.806ZM45.9714 211.027H46.252V208.494H46.0254L45.4174 208.918L45.5397 209.132L45.9714 208.844V211.027ZM47.837 210.161H48.7687V209.892H47.837V210.161ZM50.1904 211.027H51.8955V210.755H50.64L51.2875 210.179C51.7048 209.811 51.8703 209.538 51.8703 209.195C51.8703 208.741 51.5106 208.45 51.0825 208.45C50.694 208.45 50.417 208.638 50.2119 208.936L50.4098 209.102C50.5789 208.866 50.7839 208.708 51.0717 208.708C51.3343 208.708 51.5861 208.889 51.5861 209.198C51.5861 209.449 51.4422 209.692 51.0933 209.999L50.1904 210.788V211.027ZM53.3733 211.072C53.974 211.072 54.3985 210.53 54.3985 209.759C54.3985 208.992 53.974 208.45 53.3733 208.45C52.7689 208.45 52.3444 208.992 52.3444 209.759C52.3444 210.53 52.7689 211.072 53.3733 211.072ZM53.3733 210.806C52.938 210.806 52.6286 210.371 52.6286 209.759C52.6286 209.147 52.938 208.715 53.3733 208.715C53.8085 208.715 54.1143 209.147 54.1143 209.759C54.1143 210.371 53.8085 210.806 53.3733 210.806ZM54.7888 211.027H56.4939V210.755H55.2385L55.886 210.179C56.3033 209.811 56.4687 209.538 56.4687 209.195C56.4687 208.741 56.109 208.45 55.6809 208.45C55.2924 208.45 55.0154 208.638 54.8104 208.936L55.0082 209.102C55.1773 208.866 55.3824 208.708 55.6701 208.708C55.9327 208.708 56.1846 208.889 56.1846 209.198C56.1846 209.449 56.0407 209.692 55.6917 209.999L54.7888 210.788V211.027ZM57.9717 211.072C58.5725 211.072 58.9969 210.53 58.9969 209.759C58.9969 208.992 58.5725 208.45 57.9717 208.45C57.3674 208.45 56.9429 208.992 56.9429 209.759C56.9429 210.53 57.3674 211.072 57.9717 211.072ZM57.9717 210.806C57.5364 210.806 57.2271 210.371 57.2271 209.759C57.2271 209.147 57.5364 208.715 57.9717 208.715C58.407 208.715 58.7127 209.147 58.7127 209.759C58.7127 210.371 58.407 210.806 57.9717 210.806Z" fill="#898989"/>
<path d="M149.26 209.759C149.26 209.047 148.707 208.45 148.048 208.45C147.391 208.45 146.832 209.047 146.832 209.759C146.832 210.471 147.391 211.072 148.048 211.072C148.334 211.072 148.6 210.957 148.811 210.769L149.087 211.027L149.26 210.814L148.994 210.566C149.16 210.342 149.26 210.061 149.26 209.759ZM148.048 210.806C147.537 210.806 147.105 210.327 147.105 209.759C147.105 209.195 147.537 208.715 148.048 208.715C148.559 208.715 148.987 209.195 148.987 209.759C148.987 209.991 148.914 210.209 148.797 210.382L148.417 210.032L148.244 210.246L148.614 210.589C148.455 210.725 148.258 210.806 148.048 210.806ZM150.06 211.027H150.329V208.494H150.111L149.528 208.918L149.645 209.132L150.06 208.844V211.027ZM151.851 210.161H152.745V209.892H151.851V210.161ZM154.11 211.027H155.747V210.755H154.541L155.163 210.179C155.564 209.811 155.723 209.538 155.723 209.195C155.723 208.741 155.377 208.45 154.966 208.45C154.593 208.45 154.327 208.638 154.13 208.936L154.32 209.102C154.483 208.866 154.68 208.708 154.956 208.708C155.208 208.708 155.45 208.889 155.45 209.198C155.45 209.449 155.312 209.692 154.977 209.999L154.11 210.788V211.027ZM157.165 211.072C157.742 211.072 158.15 210.53 158.15 209.759C158.15 208.992 157.742 208.45 157.165 208.45C156.585 208.45 156.178 208.992 156.178 209.759C156.178 210.53 156.585 211.072 157.165 211.072ZM157.165 210.806C156.747 210.806 156.451 210.371 156.451 209.759C156.451 209.147 156.747 208.715 157.165 208.715C157.583 208.715 157.877 209.147 157.877 209.759C157.877 210.371 157.583 210.806 157.165 210.806ZM158.524 211.027H160.161V210.755H158.956L159.578 210.179C159.978 209.811 160.137 209.538 160.137 209.195C160.137 208.741 159.792 208.45 159.381 208.45C159.008 208.45 158.742 208.638 158.545 208.936L158.735 209.102C158.897 208.866 159.094 208.708 159.37 208.708C159.622 208.708 159.864 208.889 159.864 209.198C159.864 209.449 159.726 209.692 159.391 209.999L158.524 210.788V211.027ZM161.58 211.072C162.157 211.072 162.564 210.53 162.564 209.759C162.564 208.992 162.157 208.45 161.58 208.45C161 208.45 160.592 208.992 160.592 209.759C160.592 210.53 161 211.072 161.58 211.072ZM161.58 210.806C161.162 210.806 160.865 210.371 160.865 209.759C160.865 209.147 161.162 208.715 161.58 208.715C161.998 208.715 162.291 209.147 162.291 209.759C162.291 210.371 161.998 210.806 161.58 210.806Z" fill="#898989"/>
<path d="M70.576 209.759C70.576 209.047 70.0289 208.45 69.3757 208.45C68.7259 208.45 68.1719 209.047 68.1719 209.759C68.1719 210.471 68.7259 211.072 69.3757 211.072C69.6595 211.072 69.9228 210.957 70.1315 210.769L70.405 211.027L70.576 210.814L70.3127 210.566C70.4769 210.342 70.576 210.061 70.576 209.759ZM69.3757 210.806C68.8695 210.806 68.442 210.327 68.442 209.759C68.442 209.195 68.8695 208.715 69.3757 208.715C69.8818 208.715 70.3059 209.195 70.3059 209.759C70.3059 209.991 70.234 210.209 70.1178 210.382L69.7416 210.032L69.5706 210.246L69.9365 210.589C69.7792 210.725 69.5843 210.806 69.3757 210.806ZM70.9201 211.027H72.5411V210.755H71.3475L71.9631 210.179C72.3598 209.811 72.5171 209.538 72.5171 209.195C72.5171 208.741 72.1752 208.45 71.7682 208.45C71.3988 208.45 71.1355 208.638 70.9406 208.936L71.1287 209.102C71.2894 208.866 71.4843 208.708 71.7579 208.708C72.0076 208.708 72.247 208.889 72.247 209.198C72.247 209.449 72.1102 209.692 71.7785 209.999L70.9201 210.788V211.027ZM73.9497 210.161H74.8354V209.892H73.9497V210.161ZM76.187 211.027H77.808V210.755H76.6145L77.23 210.179C77.6267 209.811 77.784 209.538 77.784 209.195C77.784 208.741 77.4421 208.45 77.0351 208.45C76.6658 208.45 76.4024 208.638 76.2075 208.936L76.3956 209.102C76.5563 208.866 76.7512 208.708 77.0248 208.708C77.2745 208.708 77.5139 208.889 77.5139 209.198C77.5139 209.449 77.3771 209.692 77.0454 209.999L76.187 210.788V211.027ZM79.2128 211.072C79.784 211.072 80.1875 210.53 80.1875 209.759C80.1875 208.992 79.784 208.45 79.2128 208.45C78.6383 208.45 78.2348 208.992 78.2348 209.759C78.2348 210.53 78.6383 211.072 79.2128 211.072ZM79.2128 210.806C78.799 210.806 78.5049 210.371 78.5049 209.759C78.5049 209.147 78.799 208.715 79.2128 208.715C79.6266 208.715 79.9173 209.147 79.9173 209.759C79.9173 210.371 79.6266 210.806 79.2128 210.806ZM80.5586 211.027H82.1796V210.755H80.986L81.6016 210.179C81.9983 209.811 82.1556 209.538 82.1556 209.195C82.1556 208.741 81.8136 208.45 81.4067 208.45C81.0373 208.45 80.774 208.638 80.5791 208.936L80.7672 209.102C80.9279 208.866 81.1228 208.708 81.3964 208.708C81.6461 208.708 81.8855 208.889 81.8855 209.198C81.8855 209.449 81.7487 209.692 81.4169 209.999L80.5586 210.788V211.027ZM83.5848 211.072C84.1559 211.072 84.5594 210.53 84.5594 209.759C84.5594 208.992 84.1559 208.45 83.5848 208.45C83.0102 208.45 82.6067 208.992 82.6067 209.759C82.6067 210.53 83.0102 211.072 83.5848 211.072ZM83.5848 210.806C83.171 210.806 82.8769 210.371 82.8769 209.759C82.8769 209.147 83.171 208.715 83.5848 208.715C83.9986 208.715 84.2893 209.147 84.2893 209.759C84.2893 210.371 83.9986 210.806 83.5848 210.806Z" fill="#898989"/>
<path d="M174.242 209.759C174.242 209.047 173.673 208.45 172.994 208.45C172.318 208.45 171.742 209.047 171.742 209.759C171.742 210.471 172.318 211.072 172.994 211.072C173.289 211.072 173.563 210.957 173.78 210.769L174.065 211.027L174.242 210.814L173.969 210.566C174.139 210.342 174.242 210.061 174.242 209.759ZM172.994 210.806C172.468 210.806 172.023 210.327 172.023 209.759C172.023 209.195 172.468 208.715 172.994 208.715C173.52 208.715 173.962 209.195 173.962 209.759C173.962 209.991 173.887 210.209 173.766 210.382L173.375 210.032L173.197 210.246L173.577 210.589C173.414 210.725 173.211 210.806 172.994 210.806ZM174.6 211.027H176.286V210.755H175.045L175.685 210.179C176.098 209.811 176.261 209.538 176.261 209.195C176.261 208.741 175.906 208.45 175.482 208.45C175.098 208.45 174.824 208.638 174.622 208.936L174.817 209.102C174.984 208.866 175.187 208.708 175.472 208.708C175.731 208.708 175.98 208.889 175.98 209.198C175.98 209.449 175.838 209.692 175.493 209.999L174.6 210.788V211.027ZM177.751 210.161H178.672V209.892H177.751V210.161ZM180.078 211.027H181.764V210.755H180.522L181.163 210.179C181.575 209.811 181.739 209.538 181.739 209.195C181.739 208.741 181.383 208.45 180.96 208.45C180.576 208.45 180.302 208.638 180.099 208.936L180.295 209.102C180.462 208.866 180.665 208.708 180.949 208.708C181.209 208.708 181.458 208.889 181.458 209.198C181.458 209.449 181.316 209.692 180.971 209.999L180.078 210.788V211.027ZM183.225 211.072C183.819 211.072 184.238 210.53 184.238 209.759C184.238 208.992 183.819 208.45 183.225 208.45C182.627 208.45 182.208 208.992 182.208 209.759C182.208 210.53 182.627 211.072 183.225 211.072ZM183.225 210.806C182.794 210.806 182.489 210.371 182.489 209.759C182.489 209.147 182.794 208.715 183.225 208.715C183.655 208.715 183.957 209.147 183.957 209.759C183.957 210.371 183.655 210.806 183.225 210.806ZM184.624 211.027H186.31V210.755H185.069L185.709 210.179C186.122 209.811 186.285 209.538 186.285 209.195C186.285 208.741 185.93 208.45 185.506 208.45C185.122 208.45 184.848 208.638 184.646 208.936L184.841 209.102C185.008 208.866 185.211 208.708 185.496 208.708C185.755 208.708 186.004 208.889 186.004 209.198C186.004 209.449 185.862 209.692 185.517 209.999L184.624 210.788V211.027ZM187.772 211.072C188.366 211.072 188.785 210.53 188.785 209.759C188.785 208.992 188.366 208.45 187.772 208.45C187.174 208.45 186.754 208.992 186.754 209.759C186.754 210.53 187.174 211.072 187.772 211.072ZM187.772 210.806C187.341 210.806 187.035 210.371 187.035 209.759C187.035 209.147 187.341 208.715 187.772 208.715C188.202 208.715 188.504 209.147 188.504 209.759C188.504 210.371 188.202 210.806 187.772 210.806Z" fill="#898989"/>
<path d="M96.8925 209.759C96.8925 209.047 96.3231 208.45 95.6434 208.45C94.9672 208.45 94.3906 209.047 94.3906 209.759C94.3906 210.471 94.9672 211.072 95.6434 211.072C95.9387 211.072 96.2128 210.957 96.4299 210.769L96.7146 211.027L96.8925 210.814L96.6185 210.566C96.7893 210.342 96.8925 210.061 96.8925 209.759ZM95.6434 210.806C95.1166 210.806 94.6718 210.327 94.6718 209.759C94.6718 209.195 95.1166 208.715 95.6434 208.715C96.1701 208.715 96.6114 209.195 96.6114 209.759C96.6114 209.991 96.5366 210.209 96.4156 210.382L96.0241 210.032L95.8462 210.246L96.227 210.589C96.0633 210.725 95.8604 210.806 95.6434 210.806ZM98.1082 211.072C98.6171 211.072 98.9588 210.766 98.9588 210.342C98.9588 209.976 98.6812 209.788 98.4321 209.729C98.6848 209.652 98.9054 209.46 98.9054 209.136C98.9054 208.73 98.5638 208.45 98.0975 208.45C97.7167 208.45 97.4463 208.641 97.2612 208.896L97.4463 209.069C97.6207 208.852 97.8128 208.712 98.0833 208.712C98.3894 208.712 98.6243 208.903 98.6243 209.169C98.6243 209.456 98.3787 209.619 98.0513 209.615L97.7879 209.611V209.877H98.0477C98.4321 209.877 98.6776 210.028 98.6776 210.327C98.6776 210.614 98.4499 210.81 98.1082 210.81C97.8093 210.81 97.5708 210.662 97.4107 210.448L97.2185 210.637C97.3964 210.88 97.7061 211.072 98.1082 211.072ZM100.393 210.161H101.315V209.892H100.393V210.161ZM102.721 211.027H104.408V210.755H103.166L103.807 210.179C104.22 209.811 104.383 209.538 104.383 209.195C104.383 208.741 104.027 208.45 103.604 208.45C103.219 208.45 102.945 208.638 102.743 208.936L102.938 209.102C103.106 208.866 103.308 208.708 103.593 208.708C103.853 208.708 104.102 208.889 104.102 209.198C104.102 209.449 103.96 209.692 103.614 209.999L102.721 210.788V211.027ZM105.87 211.072C106.464 211.072 106.884 210.53 106.884 209.759C106.884 208.992 106.464 208.45 105.87 208.45C105.272 208.45 104.852 208.992 104.852 209.759C104.852 210.53 105.272 211.072 105.87 211.072ZM105.87 210.806C105.439 210.806 105.133 210.371 105.133 209.759C105.133 209.147 105.439 208.715 105.87 208.715C106.301 208.715 106.603 209.147 106.603 209.759C106.603 210.371 106.301 210.806 105.87 210.806ZM107.271 211.027H108.957V210.755H107.715L108.356 210.179C108.769 209.811 108.933 209.538 108.933 209.195C108.933 208.741 108.577 208.45 108.153 208.45C107.769 208.45 107.495 208.638 107.292 208.936L107.488 209.102C107.655 208.866 107.858 208.708 108.142 208.708C108.402 208.708 108.651 208.889 108.651 209.198C108.651 209.449 108.509 209.692 108.164 209.999L107.271 210.788V211.027ZM110.419 211.072C111.014 211.072 111.434 210.53 111.434 209.759C111.434 208.992 111.014 208.45 110.419 208.45C109.822 208.45 109.402 208.992 109.402 209.759C109.402 210.53 109.822 211.072 110.419 211.072ZM110.419 210.806C109.989 210.806 109.683 210.371 109.683 209.759C109.683 209.147 109.989 208.715 110.419 208.715C110.85 208.715 111.153 209.147 111.153 209.759C111.153 210.371 110.85 210.806 110.419 210.806Z" fill="#898989"/>
<path d="M200.463 209.759C200.463 209.047 199.893 208.45 199.214 208.45C198.537 208.45 197.961 209.047 197.961 209.759C197.961 210.471 198.537 211.072 199.214 211.072C199.509 211.072 199.783 210.957 200 210.769L200.285 211.027L200.463 210.814L200.189 210.566C200.36 210.342 200.463 210.061 200.463 209.759ZM199.214 210.806C198.687 210.806 198.242 210.327 198.242 209.759C198.242 209.195 198.687 208.715 199.214 208.715C199.74 208.715 200.182 209.195 200.182 209.759C200.182 209.991 200.107 210.209 199.986 210.382L199.594 210.032L199.417 210.246L199.797 210.589C199.634 210.725 199.431 210.806 199.214 210.806ZM201.679 211.072C202.187 211.072 202.529 210.766 202.529 210.342C202.529 209.976 202.251 209.788 202.002 209.729C202.255 209.652 202.476 209.46 202.476 209.136C202.476 208.73 202.134 208.45 201.668 208.45C201.287 208.45 201.017 208.641 200.832 208.896L201.017 209.069C201.191 208.852 201.383 208.712 201.654 208.712C201.96 208.712 202.195 208.903 202.195 209.169C202.195 209.456 201.949 209.619 201.622 209.615L201.358 209.611V209.877H201.618C202.002 209.877 202.248 210.028 202.248 210.327C202.248 210.614 202.02 210.81 201.679 210.81C201.38 210.81 201.141 210.662 200.981 210.448L200.789 210.637C200.967 210.88 201.276 211.072 201.679 211.072ZM203.963 210.161H204.885V209.892H203.963V210.161ZM206.292 211.027H207.978V210.755H206.736L207.377 210.179C207.79 209.811 207.954 209.538 207.954 209.195C207.954 208.741 207.598 208.45 207.174 208.45C206.79 208.45 206.516 208.638 206.313 208.936L206.509 209.102C206.676 208.866 206.879 208.708 207.163 208.708C207.423 208.708 207.672 208.889 207.672 209.198C207.672 209.449 207.53 209.692 207.185 209.999L206.292 210.788V211.027ZM209.44 211.072C210.035 211.072 210.455 210.53 210.455 209.759C210.455 208.992 210.035 208.45 209.44 208.45C208.843 208.45 208.423 208.992 208.423 209.759C208.423 210.53 208.843 211.072 209.44 211.072ZM209.44 210.806C209.01 210.806 208.704 210.371 208.704 209.759C208.704 209.147 209.01 208.715 209.44 208.715C209.871 208.715 210.174 209.147 210.174 209.759C210.174 210.371 209.871 210.806 209.44 210.806ZM210.841 211.027H212.528V210.755H211.286L211.926 210.179C212.339 209.811 212.503 209.538 212.503 209.195C212.503 208.741 212.147 208.45 211.723 208.45C211.339 208.45 211.065 208.638 210.862 208.936L211.058 209.102C211.225 208.866 211.428 208.708 211.713 208.708C211.973 208.708 212.222 208.889 212.222 209.198C212.222 209.449 212.079 209.692 211.734 209.999L210.841 210.788V211.027ZM213.99 211.072C214.584 211.072 215.004 210.53 215.004 209.759C215.004 208.992 214.584 208.45 213.99 208.45C213.392 208.45 212.972 208.992 212.972 209.759C212.972 210.53 213.392 211.072 213.99 211.072ZM213.99 210.806C213.559 210.806 213.253 210.371 213.253 209.759C213.253 209.147 213.559 208.715 213.99 208.715C214.42 208.715 214.723 209.147 214.723 209.759C214.723 210.371 214.42 210.806 213.99 210.806Z" fill="#898989"/>
<path d="M123.096 209.759C123.096 209.047 122.531 208.45 121.856 208.45C121.185 208.45 120.613 209.047 120.613 209.759C120.613 210.471 121.185 211.072 121.856 211.072C122.149 211.072 122.421 210.957 122.637 210.769L122.919 211.027L123.096 210.814L122.824 210.566C122.994 210.342 123.096 210.061 123.096 209.759ZM121.856 210.806C121.334 210.806 120.892 210.327 120.892 209.759C120.892 209.195 121.334 208.715 121.856 208.715C122.379 208.715 122.817 209.195 122.817 209.759C122.817 209.991 122.743 210.209 122.623 210.382L122.234 210.032L122.058 210.246L122.436 210.589C122.273 210.725 122.072 210.806 121.856 210.806ZM124.666 211.027H124.942V210.412H125.305V210.15H124.942V208.494H124.624L123.419 210.172L123.455 210.412H124.666V211.027ZM123.734 210.15L124.666 208.841V210.15H123.734ZM126.701 210.161H127.615V209.892H126.701V210.161ZM129.011 211.027H130.685V210.755H129.452L130.088 210.179C130.498 209.811 130.66 209.538 130.66 209.195C130.66 208.741 130.307 208.45 129.887 208.45C129.505 208.45 129.233 208.638 129.032 208.936L129.226 209.102C129.392 208.866 129.594 208.708 129.876 208.708C130.134 208.708 130.381 208.889 130.381 209.198C130.381 209.449 130.24 209.692 129.897 209.999L129.011 210.788V211.027ZM132.136 211.072C132.725 211.072 133.142 210.53 133.142 209.759C133.142 208.992 132.725 208.45 132.136 208.45C131.542 208.45 131.126 208.992 131.126 209.759C131.126 210.53 131.542 211.072 132.136 211.072ZM132.136 210.806C131.708 210.806 131.405 210.371 131.405 209.759C131.405 209.147 131.708 208.715 132.136 208.715C132.563 208.715 132.863 209.147 132.863 209.759C132.863 210.371 132.563 210.806 132.136 210.806ZM133.525 211.027H135.199V210.755H133.967L134.602 210.179C135.012 209.811 135.174 209.538 135.174 209.195C135.174 208.741 134.821 208.45 134.401 208.45C134.02 208.45 133.748 208.638 133.546 208.936L133.741 209.102C133.907 208.866 134.108 208.708 134.39 208.708C134.648 208.708 134.895 208.889 134.895 209.198C134.895 209.449 134.754 209.692 134.412 209.999L133.525 210.788V211.027ZM136.65 211.072C137.24 211.072 137.656 210.53 137.656 209.759C137.656 208.992 137.24 208.45 136.65 208.45C136.057 208.45 135.64 208.992 135.64 209.759C135.64 210.53 136.057 211.072 136.65 211.072ZM136.65 210.806C136.223 210.806 135.919 210.371 135.919 209.759C135.919 209.147 136.223 208.715 136.65 208.715C137.077 208.715 137.377 209.147 137.377 209.759C137.377 210.371 137.077 210.806 136.65 210.806Z" fill="#898989"/>
<path d="M226.762 209.759C226.762 209.047 226.175 208.45 225.474 208.45C224.778 208.45 224.184 209.047 224.184 209.759C224.184 210.471 224.778 211.072 225.474 211.072C225.779 211.072 226.061 210.957 226.285 210.769L226.578 211.027L226.762 210.814L226.479 210.566C226.655 210.342 226.762 210.061 226.762 209.759ZM225.474 210.806C224.932 210.806 224.473 210.327 224.473 209.759C224.473 209.195 224.932 208.715 225.474 208.715C226.017 208.715 226.472 209.195 226.472 209.759C226.472 209.991 226.395 210.209 226.27 210.382L225.867 210.032L225.684 210.246L226.076 210.589C225.907 210.725 225.698 210.806 225.474 210.806ZM228.392 211.027H228.678V210.412H229.056V210.15H228.678V208.494H228.348L227.098 210.172L227.134 210.412H228.392V211.027ZM227.424 210.15L228.392 208.841V210.15H227.424ZM230.505 210.161H231.455V209.892H230.505V210.161ZM232.904 211.027H234.642V210.755H233.363L234.023 210.179C234.448 209.811 234.617 209.538 234.617 209.195C234.617 208.741 234.25 208.45 233.814 208.45C233.418 208.45 233.135 208.638 232.926 208.936L233.128 209.102C233.3 208.866 233.509 208.708 233.803 208.708C234.07 208.708 234.327 208.889 234.327 209.198C234.327 209.449 234.18 209.692 233.825 209.999L232.904 210.788V211.027ZM236.149 211.072C236.761 211.072 237.194 210.53 237.194 209.759C237.194 208.992 236.761 208.45 236.149 208.45C235.533 208.45 235.1 208.992 235.1 209.759C235.1 210.53 235.533 211.072 236.149 211.072ZM236.149 210.806C235.705 210.806 235.39 210.371 235.39 209.759C235.39 209.147 235.705 208.715 236.149 208.715C236.593 208.715 236.904 209.147 236.904 209.759C236.904 210.371 236.593 210.806 236.149 210.806ZM237.592 211.027H239.33V210.755H238.051L238.711 210.179C239.136 209.811 239.305 209.538 239.305 209.195C239.305 208.741 238.938 208.45 238.502 208.45C238.106 208.45 237.823 208.638 237.614 208.936L237.816 209.102C237.988 208.866 238.197 208.708 238.491 208.708C238.758 208.708 239.015 208.889 239.015 209.198C239.015 209.449 238.868 209.692 238.513 209.999L237.592 210.788V211.027ZM240.837 211.072C241.449 211.072 241.882 210.53 241.882 209.759C241.882 208.992 241.449 208.45 240.837 208.45C240.221 208.45 239.788 208.992 239.788 209.759C239.788 210.53 240.221 211.072 240.837 211.072ZM240.837 210.806C240.393 210.806 240.078 210.371 240.078 209.759C240.078 209.147 240.393 208.715 240.837 208.715C241.281 208.715 241.592 209.147 241.592 209.759C241.592 210.371 241.281 210.806 240.837 210.806Z" fill="#898989"/>
<path d="M24.1437 187.441H24.4202V185.54H24.1968L23.5977 185.858L23.7182 186.019L24.1437 185.803V187.441ZM25.9784 187.474C26.5705 187.474 26.9889 187.067 26.9889 186.489C26.9889 185.914 26.5705 185.507 25.9784 185.507C25.3828 185.507 24.9644 185.914 24.9644 186.489C24.9644 187.067 25.3828 187.474 25.9784 187.474ZM25.9784 187.275C25.5494 187.275 25.2445 186.948 25.2445 186.489C25.2445 186.03 25.5494 185.706 25.9784 185.706C26.4074 185.706 26.7088 186.03 26.7088 186.489C26.7088 186.948 26.4074 187.275 25.9784 187.275ZM27.6536 187.474C27.7565 187.474 27.8416 187.405 27.8416 187.322C27.8416 187.244 27.7565 187.175 27.6536 187.175C27.5437 187.175 27.4586 187.244 27.4586 187.322C27.4586 187.405 27.5437 187.474 27.6536 187.474ZM29.3197 187.474C29.9117 187.474 30.3301 187.067 30.3301 186.489C30.3301 185.914 29.9117 185.507 29.3197 185.507C28.724 185.507 28.3057 185.914 28.3057 186.489C28.3057 187.067 28.724 187.474 29.3197 187.474ZM29.3197 187.275C28.8907 187.275 28.5857 186.948 28.5857 186.489C28.5857 186.03 28.8907 185.706 29.3197 185.706C29.7487 185.706 30.05 186.03 30.05 186.489C30.05 186.948 29.7487 187.275 29.3197 187.275ZM31.7642 187.474C32.3563 187.474 32.7747 187.067 32.7747 186.489C32.7747 185.914 32.3563 185.507 31.7642 185.507C31.1686 185.507 30.7502 185.914 30.7502 186.489C30.7502 187.067 31.1686 187.474 31.7642 187.474ZM31.7642 187.275C31.3352 187.275 31.0303 186.948 31.0303 186.489C31.0303 186.03 31.3352 185.706 31.7642 185.706C32.1932 185.706 32.4946 186.03 32.4946 186.489C32.4946 186.948 32.1932 187.275 31.7642 187.275Z" fill="#898989"/>
<path d="M22.2852 172.353H23.9487V172.08H22.7238L23.3555 171.505C23.7626 171.136 23.9241 170.863 23.9241 170.52C23.9241 170.066 23.5731 169.775 23.1555 169.775C22.7765 169.775 22.5063 169.963 22.3062 170.262L22.4992 170.428C22.6642 170.192 22.8642 170.033 23.145 170.033C23.4012 170.033 23.6468 170.214 23.6468 170.524C23.6468 170.775 23.5065 171.018 23.166 171.324L22.2852 172.113V172.353ZM25.3907 172.397C25.9768 172.397 26.3909 171.855 26.3909 171.084C26.3909 170.317 25.9768 169.775 25.3907 169.775C24.8011 169.775 24.387 170.317 24.387 171.084C24.387 171.855 24.8011 172.397 25.3907 172.397ZM25.3907 172.132C24.9661 172.132 24.6642 171.696 24.6642 171.084C24.6642 170.472 24.9661 170.041 25.3907 170.041C25.8154 170.041 26.1137 170.472 26.1137 171.084C26.1137 171.696 25.8154 172.132 25.3907 172.132ZM27.0486 172.397C27.1504 172.397 27.2346 172.305 27.2346 172.194C27.2346 172.091 27.1504 171.999 27.0486 171.999C26.9398 171.999 26.8556 172.091 26.8556 172.194C26.8556 172.305 26.9398 172.397 27.0486 172.397ZM28.698 172.397C29.2841 172.397 29.6983 171.855 29.6983 171.084C29.6983 170.317 29.2841 169.775 28.698 169.775C28.1085 169.775 27.6943 170.317 27.6943 171.084C27.6943 171.855 28.1085 172.397 28.698 172.397ZM28.698 172.132C28.2734 172.132 27.9716 171.696 27.9716 171.084C27.9716 170.472 28.2734 170.041 28.698 170.041C29.1227 170.041 29.4207 170.472 29.4207 171.084C29.4207 171.696 29.1227 172.132 28.698 172.132ZM31.1175 172.397C31.7036 172.397 32.1177 171.855 32.1177 171.084C32.1177 170.317 31.7036 169.775 31.1175 169.775C30.5279 169.775 30.1138 170.317 30.1138 171.084C30.1138 171.855 30.5279 172.397 31.1175 172.397ZM31.1175 172.132C30.6928 172.132 30.391 171.696 30.391 171.084C30.391 170.472 30.6928 170.041 31.1175 170.041C31.5421 170.041 31.8404 170.472 31.8404 171.084C31.8404 171.696 31.5421 172.132 31.1175 172.132Z" fill="#898989"/>
<path d="M23.1606 156.665C23.6614 156.665 23.9976 156.359 23.9976 155.935C23.9976 155.57 23.7244 155.382 23.4793 155.323C23.7279 155.245 23.945 155.054 23.945 154.729C23.945 154.323 23.6089 154.043 23.1501 154.043C22.7754 154.043 22.5093 154.235 22.3272 154.489L22.5093 154.663C22.6809 154.445 22.87 154.305 23.1361 154.305C23.4373 154.305 23.6684 154.497 23.6684 154.762C23.6684 155.05 23.4268 155.212 23.1046 155.208L22.8455 155.205V155.47H23.1011C23.4793 155.47 23.7209 155.621 23.7209 155.92C23.7209 156.208 23.4968 156.403 23.1606 156.403C22.8665 156.403 22.6318 156.256 22.4743 156.042L22.2852 156.23C22.4602 156.473 22.7649 156.665 23.1606 156.665ZM25.405 156.665C25.9898 156.665 26.403 156.123 26.403 155.352C26.403 154.585 25.9898 154.043 25.405 154.043C24.8167 154.043 24.4034 154.585 24.4034 155.352C24.4034 156.123 24.8167 156.665 25.405 156.665ZM25.405 156.4C24.9812 156.4 24.6801 155.964 24.6801 155.352C24.6801 154.74 24.9812 154.309 25.405 154.309C25.8287 154.309 26.1264 154.74 26.1264 155.352C26.1264 155.964 25.8287 156.4 25.405 156.4ZM27.0596 156.665C27.1612 156.665 27.2452 156.573 27.2452 156.462C27.2452 156.359 27.1612 156.267 27.0596 156.267C26.951 156.267 26.867 156.359 26.867 156.462C26.867 156.573 26.951 156.665 27.0596 156.665ZM28.7051 156.665C29.2899 156.665 29.7032 156.123 29.7032 155.352C29.7032 154.585 29.2899 154.043 28.7051 154.043C28.1168 154.043 27.7036 154.585 27.7036 155.352C27.7036 156.123 28.1168 156.665 28.7051 156.665ZM28.7051 156.4C28.2814 156.4 27.9802 155.964 27.9802 155.352C27.9802 154.74 28.2814 154.309 28.7051 154.309C29.1289 154.309 29.4265 154.74 29.4265 155.352C29.4265 155.964 29.1289 156.4 28.7051 156.4ZM31.1197 156.665C31.7045 156.665 32.1177 156.123 32.1177 155.352C32.1177 154.585 31.7045 154.043 31.1197 154.043C30.5314 154.043 30.1181 154.585 30.1181 155.352C30.1181 156.123 30.5314 156.665 31.1197 156.665ZM31.1197 156.4C30.6959 156.4 30.3948 155.964 30.3948 155.352C30.3948 154.74 30.6959 154.309 31.1197 154.309C31.5434 154.309 31.841 154.74 31.841 155.352C31.841 155.964 31.5434 156.4 31.1197 156.4Z" fill="#898989"/>
<path d="M23.5865 140.889H23.8741V140.273H24.2538V140.011H23.8741V138.355H23.5423L22.2852 140.033L22.322 140.273H23.5865V140.889ZM22.6133 140.011L23.5865 138.702V140.011H22.6133ZM25.7063 140.933C26.322 140.933 26.757 140.391 26.757 139.62C26.757 138.853 26.322 138.311 25.7063 138.311C25.087 138.311 24.652 138.853 24.652 139.62C24.652 140.391 25.087 140.933 25.7063 140.933ZM25.7063 140.668C25.2602 140.668 24.9432 140.232 24.9432 139.62C24.9432 139.008 25.2602 138.577 25.7063 138.577C26.1524 138.577 26.4658 139.008 26.4658 139.62C26.4658 140.232 26.1524 140.668 25.7063 140.668ZM27.4483 140.933C27.5552 140.933 27.6436 140.841 27.6436 140.73C27.6436 140.627 27.5552 140.535 27.4483 140.535C27.334 140.535 27.2455 140.627 27.2455 140.73C27.2455 140.841 27.334 140.933 27.4483 140.933ZM29.1806 140.933C29.7963 140.933 30.2313 140.391 30.2313 139.62C30.2313 138.853 29.7963 138.311 29.1806 138.311C28.5612 138.311 28.1262 138.853 28.1262 139.62C28.1262 140.391 28.5612 140.933 29.1806 140.933ZM29.1806 140.668C28.7345 140.668 28.4175 140.232 28.4175 139.62C28.4175 139.008 28.7345 138.577 29.1806 138.577C29.6267 138.577 29.94 139.008 29.94 139.62C29.94 140.232 29.6267 140.668 29.1806 140.668ZM31.7225 140.933C32.3382 140.933 32.7732 140.391 32.7732 139.62C32.7732 138.853 32.3382 138.311 31.7225 138.311C31.1032 138.311 30.6681 138.853 30.6681 139.62C30.6681 140.391 31.1032 140.933 31.7225 140.933ZM31.7225 140.668C31.2764 140.668 30.9594 140.232 30.9594 139.62C30.9594 139.008 31.2764 138.577 31.7225 138.577C32.1686 138.577 32.482 139.008 32.482 139.62C32.482 140.232 32.1686 140.668 31.7225 140.668Z" fill="#898989"/>
<path d="M23.1336 125.201C23.6279 125.201 23.9891 124.869 23.9891 124.368C23.9891 123.866 23.6279 123.578 23.1932 123.578C22.9723 123.578 22.8075 123.656 22.6778 123.748L22.7024 122.896H23.8593V122.623H22.4359L22.4009 123.925L22.6007 124.028C22.7515 123.91 22.9303 123.833 23.1371 123.833C23.4737 123.833 23.7121 124.054 23.7121 124.379C23.7121 124.699 23.4772 124.943 23.1441 124.943C22.8777 124.943 22.6498 124.803 22.464 124.589L22.2852 124.799C22.4815 125.035 22.762 125.201 23.1336 125.201ZM25.3971 125.201C25.9826 125.201 26.3963 124.659 26.3963 123.888C26.3963 123.121 25.9826 122.579 25.3971 122.579C24.8081 122.579 24.3944 123.121 24.3944 123.888C24.3944 124.659 24.8081 125.201 25.3971 125.201ZM25.3971 124.935C24.9728 124.935 24.6713 124.5 24.6713 123.888C24.6713 123.276 24.9728 122.844 25.3971 122.844C25.8213 122.844 26.1193 123.276 26.1193 123.888C26.1193 124.5 25.8213 124.935 25.3971 124.935ZM27.0536 125.201C27.1553 125.201 27.2395 125.109 27.2395 124.998C27.2395 124.895 27.1553 124.803 27.0536 124.803C26.945 124.803 26.8608 124.895 26.8608 124.998C26.8608 125.109 26.945 125.201 27.0536 125.201ZM28.7011 125.201C29.2866 125.201 29.7003 124.659 29.7003 123.888C29.7003 123.121 29.2866 122.579 28.7011 122.579C28.1121 122.579 27.6984 123.121 27.6984 123.888C27.6984 124.659 28.1121 125.201 28.7011 125.201ZM28.7011 124.935C28.2769 124.935 27.9754 124.5 27.9754 123.888C27.9754 123.276 28.2769 122.844 28.7011 122.844C29.1253 122.844 29.4233 123.276 29.4233 123.888C29.4233 124.5 29.1253 124.935 28.7011 124.935ZM31.1185 125.201C31.704 125.201 32.1177 124.659 32.1177 123.888C32.1177 123.121 31.704 122.579 31.1185 122.579C30.5295 122.579 30.1158 123.121 30.1158 123.888C30.1158 124.659 30.5295 125.201 31.1185 125.201ZM31.1185 124.935C30.6943 124.935 30.3927 124.5 30.3927 123.888C30.3927 123.276 30.6943 122.844 31.1185 122.844C31.5427 122.844 31.8407 123.276 31.8407 123.888C31.8407 124.5 31.5427 124.935 31.1185 124.935Z" fill="#898989"/>
<path d="M23.2987 107.843C22.998 107.843 22.7344 107.986 22.5785 108.23V108.197C22.5785 107.588 22.9015 107.109 23.3099 107.109C23.5549 107.109 23.722 107.219 23.8816 107.374L24.0413 107.149C23.8519 106.969 23.6292 106.847 23.3173 106.847C22.7381 106.847 22.2852 107.441 22.2852 108.197C22.2852 108.912 22.5636 109.469 23.2542 109.469C23.7851 109.469 24.1527 109.1 24.1527 108.632C24.1527 108.13 23.7628 107.843 23.2987 107.843ZM23.2505 109.222C22.894 109.222 22.6861 108.945 22.6119 108.562C22.675 108.281 22.9237 108.09 23.2467 108.09C23.5883 108.09 23.8593 108.3 23.8593 108.647C23.8593 108.927 23.6329 109.222 23.2505 109.222ZM25.6563 109.469C26.2763 109.469 26.7144 108.927 26.7144 108.156C26.7144 107.389 26.2763 106.847 25.6563 106.847C25.0326 106.847 24.5945 107.389 24.5945 108.156C24.5945 108.927 25.0326 109.469 25.6563 109.469ZM25.6563 109.203C25.2071 109.203 24.8878 108.768 24.8878 108.156C24.8878 107.544 25.2071 107.112 25.6563 107.112C26.1055 107.112 26.4211 107.544 26.4211 108.156C26.4211 108.768 26.1055 109.203 25.6563 109.203ZM27.4106 109.469C27.5182 109.469 27.6073 109.377 27.6073 109.266C27.6073 109.163 27.5182 109.071 27.4106 109.071C27.2955 109.071 27.2064 109.163 27.2064 109.266C27.2064 109.377 27.2955 109.469 27.4106 109.469ZM29.1552 109.469C29.7752 109.469 30.2133 108.927 30.2133 108.156C30.2133 107.389 29.7752 106.847 29.1552 106.847C28.5314 106.847 28.0933 107.389 28.0933 108.156C28.0933 108.927 28.5314 109.469 29.1552 109.469ZM29.1552 109.203C28.7059 109.203 28.3866 108.768 28.3866 108.156C28.3866 107.544 28.7059 107.112 29.1552 107.112C29.6044 107.112 29.92 107.544 29.92 108.156C29.92 108.768 29.6044 109.203 29.1552 109.203ZM31.7151 109.469C32.3351 109.469 32.7732 108.927 32.7732 108.156C32.7732 107.389 32.3351 106.847 31.7151 106.847C31.0913 106.847 30.6532 107.389 30.6532 108.156C30.6532 108.927 31.0913 109.469 31.7151 109.469ZM31.7151 109.203C31.2658 109.203 30.9465 108.768 30.9465 108.156C30.9465 107.544 31.2658 107.112 31.7151 107.112C32.1643 107.112 32.4799 107.544 32.4799 108.156C32.4799 108.768 32.1643 109.203 31.7151 109.203Z" fill="#898989"/>
<path d="M22.5623 93.6926H22.8781L23.9167 91.3767V91.1591H22.2852V91.432H23.5904L22.5623 93.6926ZM25.3924 93.7369C25.9783 93.7369 26.3923 93.1948 26.3923 92.424C26.3923 91.657 25.9783 91.1149 25.3924 91.1149C24.8029 91.1149 24.3889 91.657 24.3889 92.424C24.3889 93.1948 24.8029 93.7369 25.3924 93.7369ZM25.3924 93.4714C24.9678 93.4714 24.6661 93.0362 24.6661 92.424C24.6661 91.8119 24.9678 91.3804 25.3924 91.3804C25.8169 91.3804 26.1152 91.8119 26.1152 92.424C26.1152 93.0362 25.8169 93.4714 25.3924 93.4714ZM27.0502 93.7369C27.152 93.7369 27.2362 93.6447 27.2362 93.5341C27.2362 93.4308 27.152 93.3386 27.0502 93.3386C26.9414 93.3386 26.8572 93.4308 26.8572 93.5341C26.8572 93.6447 26.9414 93.7369 27.0502 93.7369ZM28.6989 93.7369C29.2848 93.7369 29.6989 93.1948 29.6989 92.424C29.6989 91.657 29.2848 91.1149 28.6989 91.1149C28.1095 91.1149 27.6954 91.657 27.6954 92.424C27.6954 93.1948 28.1095 93.7369 28.6989 93.7369ZM28.6989 93.4714C28.2744 93.4714 27.9726 93.0362 27.9726 92.424C27.9726 91.8119 28.2744 91.3804 28.6989 91.3804C29.1234 91.3804 29.4217 91.8119 29.4217 92.424C29.4217 93.0362 29.1234 93.4714 28.6989 93.4714ZM31.1177 93.7369C31.7037 93.7369 32.1177 93.1948 32.1177 92.424C32.1177 91.657 31.7037 91.1149 31.1177 91.1149C30.5283 91.1149 30.1143 91.657 30.1143 92.424C30.1143 93.1948 30.5283 93.7369 31.1177 93.7369ZM31.1177 93.4714C30.6932 93.4714 30.3915 93.0362 30.3915 92.424C30.3915 91.8119 30.6932 91.3804 31.1177 91.3804C31.5423 91.3804 31.8405 91.8119 31.8405 92.424C31.8405 93.0362 31.5423 93.4714 31.1177 93.4714Z" fill="#898989"/>
<path d="M141.386 219.593H137.856C137.021 219.593 136.344 220.271 136.344 221.106V224.636C136.344 225.471 137.021 226.148 137.856 226.148H141.386C142.222 226.148 142.899 225.471 142.899 224.636V221.106C142.899 220.271 142.222 219.593 141.386 219.593Z" fill="#70A2FF"/>
<path d="M201.038 219.593H197.509C196.673 219.593 195.996 220.271 195.996 221.106V224.636C195.996 225.471 196.673 226.148 197.509 226.148H201.038C201.874 226.148 202.551 225.471 202.551 224.636V221.106C202.551 220.271 201.874 219.593 201.038 219.593Z" fill="#FF6868"/>
<path d="M38.6758 201.895H247.781" stroke="#ADADAD" stroke-width="0.5"/>
<path d="M38.6758 92.4258V201.895" stroke="#ADADAD" stroke-width="0.5"/>
<path d="M63.582 92.4258V201.895" stroke="#F2F2F2" stroke-width="0.5"/>
<path d="M89.8047 92.4258V201.895" stroke="#F2F2F2" stroke-width="0.5"/>
<path d="M116.023 92.4258V201.895" stroke="#F2F2F2" stroke-width="0.5"/>
<path d="M142.242 92.4258V201.895" stroke="#F2F2F2" stroke-width="0.5"/>
<path d="M247.781 186.818H38.6758" stroke="#E2E2E2" stroke-width="0.5" stroke-dasharray="5 5"/>
<path d="M247.781 171.086H38.6758" stroke="#E2E2E2" stroke-width="0.5" stroke-dasharray="5 5"/>
<path d="M247.781 155.354H38.6758" stroke="#E2E2E2" stroke-width="0.5" stroke-dasharray="5 5"/>
<path d="M247.781 139.622H38.6758" stroke="#E2E2E2" stroke-width="0.5" stroke-dasharray="5 5"/>
<path d="M247.781 123.89H38.6758" stroke="#E2E2E2" stroke-width="0.5" stroke-dasharray="5 5"/>
<path d="M247.781 108.158H38.6758" stroke="#E2E2E2" stroke-width="0.5" stroke-dasharray="5 5"/>
<path d="M247.781 93.0813H38.6758" stroke="#E2E2E2" stroke-width="0.5" stroke-dasharray="5 5"/>
<path d="M168.465 92.4258V201.895" stroke="#F2F2F2" stroke-width="0.5"/>
<path d="M194.684 92.4258V201.895" stroke="#F2F2F2" stroke-width="0.5"/>
<path d="M220.906 92.4258V201.895" stroke="#F2F2F2" stroke-width="0.5"/>
</svg>
