<svg width="274" height="242" viewBox="0 0 274 242" fill="none" xmlns="http://www.w3.org/2000/svg">
<rect width="274" height="241.225" fill="white" fill-opacity="0.01"/>
<path d="M50.7998 206.483C53.153 206.483 55.0606 204.576 55.0606 202.222C55.0606 199.869 53.153 197.962 50.7998 197.962C48.4467 197.962 46.5391 199.869 46.5391 202.222C46.5391 204.576 48.4467 206.483 50.7998 206.483Z" fill="#FF6868"/>
<path d="M77.0225 152.077C79.3756 152.077 81.2832 150.169 81.2832 147.816C81.2832 145.463 79.3756 143.555 77.0225 143.555C74.6693 143.555 72.7617 145.463 72.7617 147.816C72.7617 150.169 74.6693 152.077 77.0225 152.077Z" fill="#FF6868"/>
<path d="M128.151 168.464C130.505 168.464 132.412 166.557 132.412 164.203C132.412 161.85 130.505 159.943 128.151 159.943C125.798 159.943 123.891 161.85 123.891 164.203C123.891 166.557 125.798 168.464 128.151 168.464Z" fill="#FF6868"/>
<path d="M154.37 167.153C156.723 167.153 158.631 165.246 158.631 162.892C158.631 160.539 156.723 158.632 154.37 158.632C152.017 158.632 150.109 160.539 150.109 162.892C150.109 165.246 152.017 167.153 154.37 167.153Z" fill="#FF6868"/>
<path d="M77.0225 131.756C79.3756 131.756 81.2832 129.848 81.2832 127.495C81.2832 125.142 79.3756 123.234 77.0225 123.234C74.6693 123.234 72.7617 125.142 72.7617 127.495C72.7617 129.848 74.6693 131.756 77.0225 131.756Z" fill="#70A2FF"/>
<path d="M128.151 135.689C130.505 135.689 132.412 133.781 132.412 131.428C132.412 129.075 130.505 127.167 128.151 127.167C125.798 127.167 123.891 129.075 123.891 131.428C123.891 133.781 125.798 135.689 128.151 135.689Z" fill="#70A2FF"/>
<path d="M154.37 136.345C156.723 136.345 158.631 134.437 158.631 132.084C158.631 129.731 156.723 127.823 154.37 127.823C152.017 127.823 150.109 129.731 150.109 132.084C150.109 134.437 152.017 136.345 154.37 136.345Z" fill="#70A2FF"/>
<path d="M181.245 133.722C183.598 133.722 185.506 131.815 185.506 129.462C185.506 127.109 183.598 125.201 181.245 125.201C178.892 125.201 176.984 127.109 176.984 129.462C176.984 131.815 178.892 133.722 181.245 133.722Z" fill="#70A2FF"/>
<path d="M208.12 129.134C210.473 129.134 212.381 127.226 212.381 124.873C212.381 122.52 210.473 120.612 208.12 120.612C205.767 120.612 203.859 122.52 203.859 124.873C203.859 127.226 205.767 129.134 208.12 129.134Z" fill="#70A2FF"/>
<path d="M181.245 170.431C183.598 170.431 185.506 168.523 185.506 166.17C185.506 163.817 183.598 161.909 181.245 161.909C178.892 161.909 176.984 163.817 176.984 166.17C176.984 168.523 178.892 170.431 181.245 170.431Z" fill="#FF6868"/>
<path d="M208.12 163.876C210.473 163.876 212.381 161.968 212.381 159.615C212.381 157.262 210.473 155.354 208.12 155.354C205.767 155.354 203.859 157.262 203.859 159.615C203.859 161.968 205.767 163.876 208.12 163.876Z" fill="#FF6868"/>
<path d="M234.343 151.421C236.696 151.421 238.604 149.513 238.604 147.16C238.604 144.807 236.696 142.9 234.343 142.9C231.99 142.9 230.082 144.807 230.082 147.16C230.082 149.513 231.99 151.421 234.343 151.421Z" fill="#FF6868"/>
<path d="M234.343 112.746C236.696 112.746 238.604 110.839 238.604 108.486C238.604 106.132 236.696 104.225 234.343 104.225C231.99 104.225 230.082 106.132 230.082 108.486C230.082 110.839 231.99 112.746 234.343 112.746Z" fill="#70A2FF"/>
<path d="M102.585 137.656C104.938 137.656 106.846 135.748 106.846 133.395C106.846 131.042 104.938 129.134 102.585 129.134C100.232 129.134 98.3242 131.042 98.3242 133.395C98.3242 135.748 100.232 137.656 102.585 137.656Z" fill="#70A2FF"/>
<path d="M102.585 175.019C104.938 175.019 106.846 173.111 106.846 170.758C106.846 168.405 104.938 166.498 102.585 166.498C100.232 166.498 98.3242 168.405 98.3242 170.758C98.3242 173.111 100.232 175.019 102.585 175.019Z" fill="#FF6868"/>
<path d="M234.67 108.158L208.551 125.055L181.189 129.68L154.892 131.992L128.419 130.925L103.188 133.771L77.6028 127.901L51.1289 201.895" stroke="#70A2FF" stroke-width="3"/>
<path d="M234.67 147.488L208.348 160.03L181.493 166.566L154.993 163.033L128.671 164.093L103.417 170.982L77.6285 147.488L51.1289 201.895" stroke="#FF6868" stroke-width="3"/>
</svg>
