<svg width="171" height="73" viewBox="0 0 171 73" fill="none" xmlns="http://www.w3.org/2000/svg">
<rect width="171" height="72.048" rx="10" fill="white" fill-opacity="0.01"/>
<path d="M9.57812 13.9951H10.1792V9.79015H9.57812V13.9951ZM13.0415 14.0686C13.6247 14.0686 14.1604 13.8115 14.5472 13.4076L14.1247 12.9913C13.8509 13.2974 13.464 13.4994 13.0415 13.4994C12.2261 13.4994 11.5357 12.7649 11.5357 11.8896C11.5357 11.0204 12.2261 10.2859 13.0415 10.2859C13.464 10.2859 13.8509 10.4879 14.1247 10.794L14.5472 10.3778C14.1604 9.96766 13.6247 9.71671 13.0415 9.71671C11.8928 9.71671 10.9167 10.7083 10.9167 11.8896C10.9167 13.0709 11.8928 14.0686 13.0415 14.0686ZM18.3716 9.79015L16.9492 13.1994L15.5268 9.79015H14.8602L16.6159 13.9951H17.2825L19.0382 9.79015H18.3716ZM23.3058 14.0686C23.889 14.0686 24.4247 13.8115 24.8115 13.4076L24.3889 12.9913C24.1152 13.2974 23.7283 13.4994 23.3058 13.4994C22.4904 13.4994 21.8 12.7649 21.8 11.8896C21.8 11.0204 22.4904 10.2859 23.3058 10.2859C23.7283 10.2859 24.1152 10.4879 24.3889 10.794L24.8115 10.3778C24.4247 9.96766 23.889 9.71671 23.3058 9.71671C22.1571 9.71671 21.181 10.7083 21.181 11.8896C21.181 13.0709 22.1571 14.0686 23.3058 14.0686ZM26.8088 13.53C26.2791 13.53 25.9041 13.1505 25.8268 12.6241H28.2491C28.2491 11.4917 27.7075 10.7572 26.7671 10.7572C25.916 10.7572 25.2316 11.455 25.2316 12.4037C25.2316 13.3769 25.9577 14.0686 26.8147 14.0686C27.2492 14.0686 27.7848 13.8789 28.0586 13.5789L27.6896 13.1872C27.5051 13.3831 27.1302 13.53 26.8088 13.53ZM26.7909 11.2959C27.3206 11.2959 27.6122 11.6509 27.6777 12.1405H25.8327C25.9279 11.6264 26.3148 11.2959 26.7909 11.2959ZM29.551 11.4367V10.8307H28.9618V13.9951H29.551V12.1956C29.6045 11.6448 30.0569 11.2836 30.6937 11.2836V10.7572C30.164 10.7572 29.7474 11.0204 29.551 11.4367ZM32.7088 13.4259C32.6433 13.4932 32.5243 13.5422 32.3934 13.5422C32.2208 13.5422 32.0779 13.3831 32.0779 13.1627V11.3448H32.804V10.8307H32.0779V9.96154H31.5006V10.8307H31.0362V11.3448H31.5006V13.2056C31.5006 13.7136 31.8339 14.0686 32.31 14.0686C32.5303 14.0686 32.7564 13.9829 32.9231 13.8421L32.7088 13.4259ZM33.8151 10.3043C34.0055 10.3043 34.1662 10.1329 34.1662 9.93706C34.1662 9.74731 34.0055 9.57593 33.8151 9.57593C33.6127 9.57593 33.458 9.74731 33.458 9.93706C33.458 10.1329 33.6127 10.3043 33.8151 10.3043ZM33.5175 13.9951H34.1067V10.8307H33.5175V13.9951ZM35.7684 10.4818C35.7684 10.2615 35.9113 10.1023 36.0839 10.1023C36.2148 10.1023 36.3338 10.1513 36.3993 10.2186L36.6136 9.81464C36.4469 9.67386 36.2207 9.58817 36.0005 9.58817C35.5244 9.58817 35.1911 9.94318 35.1911 10.4512V10.8307H34.7269V11.3448H35.1911V13.9951H35.7684V11.3448H36.4945V10.8307H35.7684V10.4818ZM37.3954 10.3043C37.5859 10.3043 37.7466 10.1329 37.7466 9.93706C37.7466 9.74731 37.5859 9.57593 37.3954 9.57593C37.1931 9.57593 37.0383 9.74731 37.0383 9.93706C37.0383 10.1329 37.1931 10.3043 37.3954 10.3043ZM37.0979 13.9951H37.6871V10.8307H37.0979V13.9951ZM39.9916 14.0686C40.4499 14.0686 40.8486 13.8727 41.1462 13.5606L40.7474 13.1872C40.557 13.4076 40.2832 13.5422 39.9975 13.5422C39.4321 13.5422 38.9679 13.0281 38.9679 12.4099C38.9679 11.7978 39.4321 11.2836 39.9916 11.2836C40.2773 11.2836 40.5451 11.4122 40.7296 11.6264L41.1283 11.2469C40.8367 10.947 40.438 10.7572 39.9975 10.7572C39.1167 10.7572 38.3727 11.5101 38.3727 12.4099C38.3727 13.3096 39.1167 14.0686 39.9916 14.0686ZM43.0683 10.7572C42.7291 10.7572 42.3422 10.8491 41.9018 11.0755L42.1161 11.5223C42.3839 11.3816 42.6815 11.2592 42.985 11.2592C43.598 11.2592 43.7766 11.6815 43.7766 12.0793V12.1773C43.479 12.0732 43.1516 12.0059 42.8481 12.0059C42.1696 12.0059 41.6161 12.4282 41.6161 13.0587C41.6161 13.6769 42.0982 14.0686 42.7529 14.0686C43.1278 14.0686 43.5504 13.8911 43.7766 13.5606V13.9951H44.3536V12.0793C44.3536 11.2959 43.8956 10.7572 43.0683 10.7572ZM42.866 13.5912C42.4791 13.5912 42.1815 13.3831 42.1815 13.0403C42.1815 12.6975 42.5267 12.4588 42.9374 12.4588C43.2409 12.4588 43.5266 12.5017 43.7766 12.5812V13.0036C43.6754 13.3953 43.2469 13.5912 42.866 13.5912ZM46.6462 13.4259C46.5808 13.4932 46.4617 13.5422 46.3308 13.5422C46.1582 13.5422 46.0154 13.3831 46.0154 13.1627V11.3448H46.7415V10.8307H46.0154V9.96154H45.438V10.8307H44.9738V11.3448H45.438V13.2056C45.438 13.7136 45.7713 14.0686 46.2475 14.0686C46.4677 14.0686 46.6938 13.9829 46.8605 13.8421L46.6462 13.4259ZM48.8714 13.53C48.3417 13.53 47.9667 13.1505 47.8894 12.6241H50.3117C50.3117 11.4917 49.7701 10.7572 48.8297 10.7572C47.9786 10.7572 47.2942 11.455 47.2942 12.4037C47.2942 13.3769 48.0203 14.0686 48.8773 14.0686C49.3118 14.0686 49.8474 13.8789 50.1212 13.5789L49.7522 13.1872C49.5677 13.3831 49.1928 13.53 48.8714 13.53ZM48.8535 11.2959C49.3832 11.2959 49.6748 11.6509 49.7403 12.1405H47.8953C47.9905 11.6264 48.3774 11.2959 48.8535 11.2959ZM52.1076 14.0686C52.7801 14.0686 53.2741 13.6891 53.2741 13.0893C53.2741 12.4588 52.7325 12.2874 52.2266 12.1344C51.7088 11.9692 51.5184 11.8957 51.5184 11.6509C51.5184 11.4122 51.7564 11.2775 52.06 11.2775C52.3278 11.2775 52.6373 11.3816 52.9348 11.5713L53.1967 11.1245C52.8634 10.898 52.4587 10.7572 52.06 10.7572C51.4053 10.7572 50.9351 11.1367 50.9411 11.7182C50.9411 12.2324 51.2922 12.4405 52.0004 12.6425C52.3813 12.7526 52.6968 12.8444 52.6968 13.1382C52.6968 13.3831 52.4587 13.5483 52.1135 13.5483C51.7505 13.5483 51.3993 13.4075 51.072 13.1627L50.7923 13.5973C51.1613 13.9033 51.6553 14.0686 52.1076 14.0686ZM57.37 10.7572C56.8939 10.7572 56.513 10.9898 56.2749 11.3754V10.8307H55.6917V15.0479H56.2749V13.4443C56.513 13.836 56.8939 14.0686 57.37 14.0686C58.1794 14.0686 58.7865 13.3831 58.7865 12.4099C58.7865 11.4428 58.1794 10.7572 57.37 10.7572ZM57.2272 13.5422C56.6737 13.5422 56.2749 13.0709 56.2749 12.4099C56.2749 11.7488 56.6737 11.2836 57.2272 11.2836C57.7926 11.2836 58.1914 11.7488 58.1914 12.4099C58.1914 13.0709 57.7926 13.5422 57.2272 13.5422ZM60.9083 13.53C60.3786 13.53 60.0036 13.1505 59.9262 12.6241H62.3486C62.3486 11.4917 61.807 10.7572 60.8666 10.7572C60.0155 10.7572 59.3311 11.455 59.3311 12.4037C59.3311 13.3769 60.0572 14.0686 60.9142 14.0686C61.3487 14.0686 61.8843 13.8789 62.1581 13.5789L61.7891 13.1872C61.6046 13.3831 61.2297 13.53 60.9083 13.53ZM60.8904 11.2959C61.4201 11.2959 61.7117 11.6509 61.7772 12.1405H59.9322C60.0274 11.6264 60.4143 11.2959 60.8904 11.2959ZM63.6505 11.4367V10.8307H63.0613V13.9951H63.6505V12.1956C63.704 11.6448 64.1564 11.2836 64.7932 11.2836V10.7572C64.2635 10.7572 63.8469 11.0204 63.6505 11.4367ZM68.5531 14.0625C69.5173 14.0625 70.041 13.5238 70.041 12.8138C70.041 12.061 69.4756 11.7794 68.6602 11.5836C67.9877 11.4183 67.6366 11.2836 67.6366 10.8919C67.6366 10.5553 67.9579 10.2553 68.4162 10.2553C68.8328 10.2553 69.2435 10.4451 69.5887 10.7695L69.9339 10.3043C69.5411 9.9493 69.0709 9.71059 68.44 9.71059C67.6187 9.71059 67.0235 10.2431 67.0235 10.947C67.0235 11.706 67.577 11.963 68.4103 12.165C69.0947 12.3242 69.4339 12.4772 69.4339 12.875C69.4339 13.2117 69.1423 13.5177 68.5769 13.5177C68.0234 13.5177 67.5949 13.2851 67.2318 12.9301L66.8688 13.3892C67.3033 13.8176 67.8687 14.0625 68.5531 14.0625ZM72.2019 13.4259C72.1365 13.4932 72.0174 13.5422 71.8865 13.5422C71.7139 13.5422 71.5711 13.3831 71.5711 13.1627V11.3448H72.2972V10.8307H71.5711V9.96154H70.9938V10.8307H70.5295V11.3448H70.9938V13.2056C70.9938 13.7136 71.327 14.0686 71.8032 14.0686C72.0234 14.0686 72.2495 13.9829 72.4162 13.8421L72.2019 13.4259ZM74.3083 10.7572C73.9691 10.7572 73.5822 10.8491 73.1418 11.0755L73.3561 11.5223C73.6239 11.3816 73.9215 11.2592 74.225 11.2592C74.838 11.2592 75.0165 11.6815 75.0165 12.0793V12.1773C74.719 12.0732 74.3916 12.0059 74.0881 12.0059C73.4096 12.0059 72.8561 12.4282 72.8561 13.0587C72.8561 13.6769 73.3382 14.0686 73.9929 14.0686C74.3678 14.0686 74.7904 13.8911 75.0165 13.5606V13.9951H75.5939V12.0793C75.5939 11.2959 75.1356 10.7572 74.3083 10.7572ZM74.106 13.5912C73.7191 13.5912 73.4215 13.3831 73.4215 13.0403C73.4215 12.6975 73.7667 12.4588 74.1774 12.4588C74.4809 12.4588 74.7666 12.5017 75.0165 12.5812V13.0036C74.9154 13.3953 74.4869 13.5912 74.106 13.5912ZM77.8862 13.4259C77.8208 13.4932 77.7017 13.5422 77.5708 13.5422C77.3982 13.5422 77.2553 13.3831 77.2553 13.1627V11.3448H77.9814V10.8307H77.2553V9.96154H76.678V10.8307H76.2138V11.3448H76.678V13.2056C76.678 13.7136 77.0113 14.0686 77.4875 14.0686C77.7077 14.0686 77.9338 13.9829 78.1005 13.8421L77.8862 13.4259ZM80.8199 10.8307V12.8812C80.7723 13.2545 80.4033 13.5422 79.9747 13.5422C79.5581 13.5422 79.2665 13.2117 79.2665 12.7404V10.8307H78.6892V12.8444C78.6892 13.5606 79.1653 14.0686 79.8438 14.0686C80.2604 14.0686 80.6354 13.8482 80.8199 13.5361V13.9951H81.4091V10.8307H80.8199ZM83.3768 14.0686C84.0494 14.0686 84.5433 13.6891 84.5433 13.0893C84.5433 12.4588 84.0017 12.2874 83.4959 12.1344C82.9781 11.9692 82.7876 11.8957 82.7876 11.6509C82.7876 11.4122 83.0257 11.2775 83.3292 11.2775C83.597 11.2775 83.9065 11.3816 84.2041 11.5713L84.466 11.1245C84.1327 10.898 83.728 10.7572 83.3292 10.7572C82.6745 10.7572 82.2044 11.1367 82.2103 11.7182C82.2103 12.2324 82.5615 12.4405 83.2697 12.6425C83.6506 12.7526 83.966 12.8444 83.966 13.1382C83.966 13.3831 83.728 13.5483 83.3828 13.5483C83.0197 13.5483 82.6686 13.4075 82.3412 13.1627L82.0615 13.5973C82.4305 13.9033 82.9245 14.0686 83.3768 14.0686ZM88.2165 13.9951H88.8354V12.3487L90.4602 9.79015H89.7639L88.526 11.7611L87.3059 9.79015H86.5798L88.2165 12.3487V13.9951ZM92.1252 13.9951H92.7263V10.3655H94.0714V9.79015H90.7861V10.3655H92.1252V13.9951ZM94.826 13.9951H96.2365C97.5578 13.9951 98.4981 13.1199 98.4981 11.8896C98.4981 10.6593 97.5578 9.79015 96.2365 9.79015H94.826V13.9951ZM95.4271 13.432V10.3533H96.2722C97.2185 10.3533 97.8792 10.9898 97.8792 11.8896C97.8792 12.7955 97.2185 13.432 96.2722 13.432H95.4271Z" fill="black"/>
<path d="M10.9895 21.8823C11.8228 21.8823 12.2499 21.3833 12.2499 20.7722C12.2499 20.0938 11.7603 19.8303 11.078 19.6565C10.4687 19.4995 10.1146 19.3594 10.1146 18.9613C10.1146 18.6081 10.4375 18.2941 10.8801 18.2941C11.2551 18.2941 11.6093 18.4791 11.9061 18.7875L12.1561 18.4455C11.828 18.1203 11.4322 17.8961 10.901 17.8961C10.2135 17.8961 9.70312 18.3782 9.70312 18.995C9.70312 19.6621 10.1562 19.9032 10.8749 20.0826C11.4999 20.2396 11.8384 20.4022 11.8384 20.8115C11.8384 21.1591 11.5572 21.4843 11.0051 21.4843C10.5052 21.4843 10.1354 21.2544 9.83332 20.9292L9.57812 21.2712C9.93748 21.6525 10.401 21.8823 10.9895 21.8823ZM14.1106 21.3946C14.0533 21.4618 13.9492 21.5123 13.8294 21.5123C13.6731 21.5123 13.5377 21.3609 13.5377 21.1479V19.2977H14.1992V18.9221H13.5377V18.1259H13.1471V18.9221H12.7253V19.2977H13.1471V21.1479C13.1471 21.5796 13.4179 21.8879 13.8033 21.8879C13.9856 21.8879 14.1627 21.8207 14.3033 21.7029L14.1106 21.3946ZM15.9498 18.8548C15.6894 18.8548 15.3665 18.9277 14.9811 19.1351L15.1373 19.4771C15.3821 19.3426 15.6529 19.2136 15.9238 19.2136C16.5071 19.2136 16.6529 19.6621 16.6529 20.0546V20.1611C16.3769 20.0658 16.0696 19.9985 15.7779 19.9985C15.1998 19.9985 14.7207 20.3854 14.7207 20.9629C14.7207 21.5347 15.1373 21.8879 15.705 21.8879C16.0592 21.8879 16.4602 21.7085 16.6529 21.3665V21.8207H17.0435V20.0546C17.0435 19.3538 16.6841 18.8548 15.9498 18.8548ZM15.7727 21.5179C15.3925 21.5179 15.1009 21.3049 15.1009 20.946C15.1009 20.5984 15.4394 20.3517 15.8404 20.3517C16.1321 20.3517 16.4081 20.3966 16.6529 20.4695V20.9124C16.5487 21.3217 16.1269 21.5179 15.7727 21.5179ZM19.0237 21.3946C18.9664 21.4618 18.8622 21.5123 18.7424 21.5123C18.5862 21.5123 18.4508 21.3609 18.4508 21.1479V19.2977H19.1122V18.9221H18.4508V18.1259H18.0602V18.9221H17.6383V19.2977H18.0602V21.1479C18.0602 21.5796 18.331 21.8879 18.7164 21.8879C18.8987 21.8879 19.0757 21.8207 19.2164 21.7029L19.0237 21.3946ZM21.6649 18.9221V20.7666C21.6649 21.1703 21.2847 21.5123 20.8316 21.5123C20.4358 21.5123 20.1598 21.1815 20.1598 20.7106V18.9221H19.7692V20.7666C19.7692 21.4226 20.1858 21.8879 20.7795 21.8879C21.1597 21.8879 21.5087 21.6637 21.6649 21.3553V21.8207H22.0555V18.9221H21.6649ZM23.8043 21.8879C24.3616 21.8879 24.7886 21.5459 24.7886 21.0133C24.7886 20.4639 24.3407 20.3069 23.9084 20.1611C23.4085 19.9873 23.2106 19.9088 23.2106 19.6565C23.2106 19.3762 23.4606 19.2304 23.7626 19.2304C24.0022 19.2304 24.2678 19.3201 24.5386 19.5052L24.7261 19.18C24.4397 18.9781 24.0959 18.8548 23.7626 18.8548C23.2262 18.8548 22.82 19.18 22.82 19.707C22.82 20.1219 23.07 20.3293 23.721 20.5311C24.0855 20.6433 24.398 20.7442 24.398 21.0582C24.398 21.3329 24.1584 21.5123 23.8043 21.5123C23.5074 21.5123 23.2002 21.389 22.8929 21.1479L22.6898 21.4562C23.0127 21.7366 23.4293 21.8879 23.8043 21.8879ZM27.0392 21.8207H28.7423C29.362 21.8207 29.8047 21.3833 29.8047 20.7666C29.8047 20.3461 29.5651 19.9985 29.1537 19.7743C29.4766 19.5724 29.6641 19.337 29.6641 18.9277C29.6641 18.367 29.2579 17.969 28.6798 17.969H27.0392V21.8207ZM27.4455 19.6005V18.367H28.5756C28.9714 18.367 29.2527 18.6249 29.2527 18.9837C29.2527 19.3426 28.9714 19.6005 28.5756 19.6005H27.4455ZM27.4455 21.4226V19.9985H28.6381C29.0808 19.9985 29.3933 20.2957 29.3933 20.7106C29.3933 21.1254 29.0808 21.4226 28.6381 21.4226H27.4455ZM30.9226 19.4883V18.9221H30.532V21.8207H30.9226V20.2004C30.9226 19.6341 31.3548 19.2304 31.9642 19.2304V18.8548C31.4694 18.8548 31.084 19.1015 30.9226 19.4883ZM33.7178 21.5123C33.1866 21.5123 32.8168 21.0974 32.7595 20.5311H34.9625C34.9625 19.5164 34.499 18.8548 33.6866 18.8548C32.9626 18.8548 32.3585 19.4995 32.3585 20.363C32.3585 21.2544 33.0043 21.8879 33.723 21.8879C34.098 21.8879 34.5719 21.7141 34.8063 21.4394L34.5667 21.1647C34.4001 21.3609 34.0355 21.5123 33.7178 21.5123ZM33.7022 19.2304C34.2386 19.2304 34.5251 19.6341 34.5771 20.1555H32.7647C32.8377 19.5949 33.223 19.2304 33.7022 19.2304ZM36.6953 18.8548C36.4349 18.8548 36.112 18.9277 35.7266 19.1351L35.8829 19.4771C36.1277 19.3426 36.3985 19.2136 36.6693 19.2136C37.2526 19.2136 37.3984 19.6621 37.3984 20.0546V20.1611C37.1224 20.0658 36.8151 19.9985 36.5235 19.9985C35.9454 19.9985 35.4662 20.3854 35.4662 20.9629C35.4662 21.5347 35.8829 21.8879 36.4505 21.8879C36.8047 21.8879 37.2057 21.7085 37.3984 21.3665V21.8207H37.789V20.0546C37.789 19.3538 37.4297 18.8548 36.6953 18.8548ZM36.5183 21.5179C36.1381 21.5179 35.8464 21.3049 35.8464 20.946C35.8464 20.5984 36.1849 20.3517 36.586 20.3517C36.8776 20.3517 37.1536 20.3966 37.3984 20.4695V20.9124C37.2943 21.3217 36.8724 21.5179 36.5183 21.5179ZM40.9466 18.9221H40.4466L38.9727 20.5255V17.9017H38.5821V21.8207H38.9727V21.0526L39.4571 20.5368L40.3893 21.8207H40.8789L39.7331 20.2508L40.9466 18.9221ZM43.519 17.9017V19.4659C43.3159 19.0847 42.9721 18.8548 42.5399 18.8548C41.8316 18.8548 41.3004 19.4827 41.3004 20.3686C41.3004 21.26 41.8316 21.8879 42.5399 21.8879C42.9721 21.8879 43.3159 21.6581 43.519 21.2768V21.8207H43.9096V17.9017H43.519ZM42.6128 21.5123C42.0868 21.5123 41.7118 21.0357 41.7118 20.3686C41.7118 19.7014 42.0868 19.2304 42.6128 19.2304C43.144 19.2304 43.519 19.7014 43.519 20.3686C43.519 21.0357 43.144 21.5123 42.6128 21.5123ZM45.9861 21.8879C46.7413 21.8879 47.3767 21.1927 47.3767 20.3686C47.3767 19.5444 46.7413 18.8548 45.9861 18.8548C45.231 18.8548 44.5904 19.5444 44.5904 20.3686C44.5904 21.1927 45.231 21.8879 45.9861 21.8879ZM45.9861 21.5123C45.4497 21.5123 45.0018 20.9909 45.0018 20.3686C45.0018 19.7518 45.4497 19.2304 45.9861 19.2304C46.5173 19.2304 46.9652 19.7518 46.9652 20.3686C46.9652 20.9909 46.5173 21.5123 45.9861 21.5123ZM48.6073 21.8207H48.977L49.7009 19.5052L50.4145 21.8207H50.7842L51.6904 18.9221H51.2738L50.6019 21.26L49.8676 18.9221H49.5291L48.7947 21.26L48.1229 18.9221H47.7063L48.6073 21.8207ZM53.5397 18.8548C53.1595 18.8548 52.8105 19.079 52.6543 19.3874V18.9221H52.2637V21.8207H52.6543V19.9761C52.6543 19.5724 53.0345 19.2304 53.4876 19.2304C53.8834 19.2304 54.1594 19.5612 54.1594 20.0322V21.8207H54.55V19.9761C54.55 19.3201 54.1334 18.8548 53.5397 18.8548ZM57.4602 18.524C57.4602 18.311 57.5956 18.1596 57.7518 18.1596C57.8716 18.1596 57.9758 18.21 58.0331 18.2773L58.2258 17.969C58.0852 17.8512 57.9081 17.7839 57.7258 17.7839C57.3404 17.7839 57.0696 18.0923 57.0696 18.524V18.9221H56.6477V19.2977H57.0696V21.8207H57.4602V19.2977H58.1216V18.9221H57.4602V18.524ZM59.9266 21.8879C60.6818 21.8879 61.3171 21.1927 61.3171 20.3686C61.3171 19.5444 60.6818 18.8548 59.9266 18.8548C59.1714 18.8548 58.5308 19.5444 58.5308 20.3686C58.5308 21.1927 59.1714 21.8879 59.9266 21.8879ZM59.9266 21.5123C59.3902 21.5123 58.9423 20.9909 58.9423 20.3686C58.9423 19.7518 59.3902 19.2304 59.9266 19.2304C60.4578 19.2304 60.9057 19.7518 60.9057 20.3686C60.9057 20.9909 60.4578 21.5123 59.9266 21.5123ZM62.3892 19.4883V18.9221H61.9986V21.8207H62.3892V20.2004C62.3892 19.6341 62.8215 19.2304 63.4309 19.2304V18.8548C62.9361 18.8548 62.5507 19.1015 62.3892 19.4883ZM65.3411 21.8207H67.8097V21.4058H65.9921L66.9295 20.5311C67.5337 19.9705 67.7733 19.5556 67.7733 19.0342C67.7733 18.3446 67.2525 17.9017 66.6327 17.9017C66.0702 17.9017 65.6692 18.1876 65.3723 18.6417L65.6588 18.894C65.9036 18.5352 66.2004 18.2941 66.6171 18.2941C66.9973 18.2941 67.3618 18.5689 67.3618 19.0398C67.3618 19.4211 67.1535 19.7911 66.6483 20.2564L65.3411 21.4562V21.8207ZM69.9499 21.8879C70.8196 21.8879 71.4341 21.0638 71.4341 19.892C71.4341 18.7258 70.8196 17.9017 69.9499 17.9017C69.0749 17.9017 68.4603 18.7258 68.4603 19.892C68.4603 21.0638 69.0749 21.8879 69.9499 21.8879ZM69.9499 21.4843C69.3197 21.4843 68.8718 20.8227 68.8718 19.892C68.8718 18.9613 69.3197 18.3053 69.9499 18.3053C70.58 18.3053 71.0227 18.9613 71.0227 19.892C71.0227 20.8227 70.58 21.4843 69.9499 21.4843ZM71.9988 21.8207H74.4675V21.4058H72.6499L73.5873 20.5311C74.1914 19.9705 74.431 19.5556 74.431 19.0342C74.431 18.3446 73.9102 17.9017 73.2904 17.9017C72.728 17.9017 72.3269 18.1876 72.0301 18.6417L72.3165 18.894C72.5613 18.5352 72.8582 18.2941 73.2748 18.2941C73.655 18.2941 74.0196 18.5689 74.0196 19.0398C74.0196 19.4211 73.8112 19.7911 73.3061 20.2564L71.9988 21.4562V21.8207ZM75.7479 21.8207H76.1541V17.969H75.826L74.9459 18.6137L75.1229 18.9389L75.7479 18.5016V21.8207Z" fill="#898989"/>
<path d="M19.409 56.4596H19.7003L18.6618 54.3016H18.3705L17.332 56.4596H17.6233L17.8598 55.9696H19.1725L19.409 56.4596ZM17.9695 55.7371L18.5179 54.6032L19.0628 55.7371H17.9695ZM20.9953 54.7979C20.7108 54.7979 20.4846 54.9267 20.351 55.1403V54.8356H20.0939V56.9999H20.351V56.1549C20.4846 56.3685 20.7108 56.4973 20.9953 56.4973C21.4614 56.4973 21.811 56.1455 21.811 55.6461C21.811 55.1497 21.4614 54.7979 20.9953 54.7979ZM20.9473 56.2869C20.5977 56.2869 20.351 56.0199 20.351 55.6461C20.351 55.2722 20.5977 55.0084 20.9473 55.0084C21.2935 55.0084 21.5402 55.2722 21.5402 55.6461C21.5402 56.0199 21.2935 56.2869 20.9473 56.2869ZM23.1809 54.7979C22.8964 54.7979 22.6702 54.9267 22.5366 55.1403V54.8356H22.2795V56.9999H22.5366V56.1549C22.6702 56.3685 22.8964 56.4973 23.1809 56.4973C23.647 56.4973 23.9966 56.1455 23.9966 55.6461C23.9966 55.1497 23.647 54.7979 23.1809 54.7979ZM23.1329 56.2869C22.7833 56.2869 22.5366 56.0199 22.5366 55.6461C22.5366 55.2722 22.7833 55.0084 23.1329 55.0084C23.4791 55.0084 23.7258 55.2722 23.7258 55.6461C23.7258 56.0199 23.4791 56.2869 23.1329 56.2869ZM24.7222 55.1529V54.8356H24.4651V56.4596H24.7222V55.5518C24.7222 55.2346 25.0066 55.0084 25.4076 55.0084V54.7979C25.082 54.7979 24.8284 54.9361 24.7222 55.1529ZM26.5288 56.4973C27.0258 56.4973 27.4439 56.1078 27.4439 55.6461C27.4439 55.1843 27.0258 54.7979 26.5288 54.7979C26.0319 54.7979 25.6103 55.1843 25.6103 55.6461C25.6103 56.1078 26.0319 56.4973 26.5288 56.4973ZM26.5288 56.2869C26.1758 56.2869 25.8811 55.9947 25.8811 55.6461C25.8811 55.3005 26.1758 55.0084 26.5288 55.0084C26.8784 55.0084 27.1732 55.3005 27.1732 55.6461C27.1732 55.9947 26.8784 56.2869 26.5288 56.2869ZM28.3874 56.4596H28.6341L29.3779 54.8356H29.09L28.5108 56.1832L27.9213 54.8356H27.6334L28.3874 56.4596ZM30.4107 56.2869C30.0611 56.2869 29.8178 56.0544 29.7801 55.7371H31.2298C31.2298 55.1686 30.9248 54.7979 30.3901 54.7979C29.9137 54.7979 29.5162 55.1592 29.5162 55.6429C29.5162 56.1424 29.9412 56.4973 30.4141 56.4973C30.6609 56.4973 30.9728 56.3999 31.127 56.246L30.9693 56.0921C30.8597 56.202 30.6197 56.2869 30.4107 56.2869ZM30.4004 55.0084C30.7534 55.0084 30.9419 55.2346 30.9762 55.5267H29.7835C29.8315 55.2126 30.0851 55.0084 30.4004 55.0084ZM33.035 54.2639V55.1403C32.9013 54.9267 32.6751 54.7979 32.3907 54.7979C31.9246 54.7979 31.575 55.1497 31.575 55.6461C31.575 56.1455 31.9246 56.4973 32.3907 56.4973C32.6751 56.4973 32.9013 56.3685 33.035 56.1549V56.4596H33.292V54.2639H33.035ZM32.4386 56.2869C32.0925 56.2869 31.8457 56.0199 31.8457 55.6461C31.8457 55.2722 32.0925 55.0084 32.4386 55.0084C32.7882 55.0084 33.035 55.2722 33.035 55.6461C33.035 56.0199 32.7882 56.2869 32.4386 56.2869Z" fill="black"/>
<path d="M82.082 56.9551H82.9038C83.676 56.9551 84.2214 56.4206 84.2214 55.6693C84.2214 54.918 83.676 54.3873 82.9038 54.3873H82.082V56.9551ZM82.3583 56.6897V54.6526H82.9038C83.513 54.6526 83.9416 55.075 83.9416 55.6693C83.9416 56.2673 83.513 56.6897 82.9038 56.6897H82.3583ZM85.0068 55.4002V55.0227H84.7411V56.9551H85.0068V55.8749C85.0068 55.4974 85.3008 55.2282 85.7152 55.2282V54.9778C85.3787 54.9778 85.1166 55.1423 85.0068 55.4002ZM86.8264 54.9778C86.6493 54.9778 86.4297 55.0264 86.1676 55.1647L86.2738 55.3927C86.4403 55.303 86.6245 55.217 86.8087 55.217C87.2054 55.217 87.3046 55.516 87.3046 55.7777V55.8487C87.1168 55.7852 86.9079 55.7403 86.7095 55.7403C86.3163 55.7403 85.9905 55.9982 85.9905 56.3832C85.9905 56.7644 86.2738 56.9999 86.6599 56.9999C86.9008 56.9999 87.1735 56.8803 87.3046 56.6523V56.9551H87.5702V55.7777C87.5702 55.3105 87.3258 54.9778 86.8264 54.9778ZM86.706 56.7532C86.4474 56.7532 86.249 56.6112 86.249 56.372C86.249 56.1402 86.4793 55.9758 86.752 55.9758C86.9504 55.9758 87.1381 56.0057 87.3046 56.0543V56.3496C87.2337 56.6224 86.9468 56.7532 86.706 56.7532ZM88.5276 54.7573C88.5276 54.6153 88.6197 54.5143 88.7259 54.5143C88.8074 54.5143 88.8783 54.548 88.9172 54.5928L89.0483 54.3873C88.9526 54.3088 88.8322 54.2639 88.7082 54.2639C88.4461 54.2639 88.2619 54.4695 88.2619 54.7573V55.0227H87.975V55.2731H88.2619V56.9551H88.5276V55.2731H88.9774V55.0227H88.5276V54.7573ZM90.159 56.671C90.12 56.7159 90.0492 56.7495 89.9677 56.7495C89.8614 56.7495 89.7694 56.6486 89.7694 56.5065V55.2731H90.2192V55.0227H89.7694V54.4919H89.5037V55.0227H89.2168V55.2731H89.5037V56.5065C89.5037 56.7943 89.6879 56.9999 89.95 56.9999C90.074 56.9999 90.1944 56.9551 90.29 56.8766L90.159 56.671Z" fill="black"/>
<path d="M52.9241 56.5005C53.4766 56.5005 53.7598 56.2244 53.7598 55.8863C53.7598 55.5109 53.4352 55.3651 52.9828 55.269C52.5788 55.1821 52.344 55.1046 52.344 54.8843C52.344 54.6889 52.5581 54.5152 52.8516 54.5152C53.1002 54.5152 53.3351 54.6175 53.5319 54.7882L53.6977 54.5989C53.4801 54.419 53.2177 54.2949 52.8654 54.2949C52.4096 54.2949 52.0712 54.5617 52.0712 54.9029C52.0712 55.2721 52.3716 55.4055 52.8482 55.5047C53.2625 55.5916 53.487 55.6816 53.487 55.908C53.487 56.1003 53.3005 56.2802 52.9345 56.2802C52.603 56.2802 52.3578 56.1531 52.1575 55.9731L51.9883 56.1624C52.2266 56.3733 52.5339 56.5005 52.9241 56.5005ZM54.3375 54.571C54.4307 54.571 54.5067 54.4997 54.5067 54.4159C54.5067 54.3353 54.4307 54.2639 54.3375 54.2639C54.2408 54.2639 54.1648 54.3353 54.1648 54.4159C54.1648 54.4997 54.2408 54.571 54.3375 54.571ZM54.2063 56.4664H54.4653V54.8626H54.2063V56.4664ZM56.3735 54.8626V55.1387C56.2353 54.9433 56.0074 54.8254 55.7243 54.8254C55.2443 54.8254 54.9024 55.1387 54.9024 55.5854C54.9024 56.0321 55.2443 56.3485 55.7243 56.3485C56.0074 56.3485 56.2353 56.2306 56.3735 56.0352V56.2958C56.3735 56.6091 56.1317 56.7921 55.7208 56.7921C55.4998 56.7921 55.2857 56.7207 55.1476 56.6029L55.0336 56.7859C55.1959 56.91 55.4653 56.9999 55.7553 56.9999C56.2699 56.9999 56.6325 56.7083 56.6325 56.2958V54.8626H56.3735ZM55.7726 56.1407C55.4238 56.1407 55.1752 55.9111 55.1752 55.5854C55.1752 55.2628 55.4238 55.0332 55.7726 55.0332C56.1248 55.0332 56.3735 55.2628 56.3735 55.5854C56.3735 55.9111 56.1248 56.1407 55.7726 56.1407ZM58.0303 54.8254C57.7782 54.8254 57.5469 54.9495 57.4433 55.1201V54.8626H57.1843V56.4664H57.4433V55.4458C57.4433 55.2225 57.6954 55.0332 57.9958 55.0332C58.2582 55.0332 58.4413 55.2162 58.4413 55.4768V56.4664H58.7003V55.4458C58.7003 55.0829 58.424 54.8254 58.0303 54.8254ZM60.029 56.2958C59.6768 56.2958 59.4316 56.0662 59.3936 55.7529H60.8544C60.8544 55.1914 60.547 54.8254 60.0083 54.8254C59.5283 54.8254 59.1277 55.1821 59.1277 55.6598C59.1277 56.1531 59.5559 56.5036 60.0325 56.5036C60.2811 56.5036 60.5954 56.4074 60.7508 56.2554L60.5919 56.1034C60.4814 56.212 60.2397 56.2958 60.029 56.2958ZM60.0187 55.0332C60.3744 55.0332 60.5643 55.2566 60.5988 55.5451H59.3971C59.4454 55.2349 59.701 55.0332 60.0187 55.0332ZM62.6733 54.298V55.1635C62.5386 54.9526 62.3107 54.8254 62.0241 54.8254C61.5544 54.8254 61.2022 55.1728 61.2022 55.6629C61.2022 56.1562 61.5544 56.5036 62.0241 56.5036C62.3107 56.5036 62.5386 56.3764 62.6733 56.1655V56.4664H62.9323V54.298H62.6733ZM62.0724 56.2958C61.7236 56.2958 61.475 56.0321 61.475 55.6629C61.475 55.2938 61.7236 55.0332 62.0724 55.0332C62.4246 55.0332 62.6733 55.2938 62.6733 55.6629C62.6733 56.0321 62.4246 56.2958 62.0724 56.2958Z" fill="black"/>
<path d="M52.206 36.4799C53.3435 36.4799 54.2519 35.8629 54.2519 34.8707C54.2519 34.1704 53.7542 33.6618 53.1065 33.42C53.6595 33.1949 54.1176 32.7697 54.1176 32.086C54.1176 31.1355 53.2171 30.5519 52.206 30.5519C51.2265 30.5519 50.3023 31.1105 50.3023 32.086C50.3023 32.7363 50.721 33.1699 51.3134 33.42C50.6657 33.6534 50.1602 34.162 50.1602 34.8707C50.1602 35.8546 51.0607 36.4799 52.206 36.4799ZM52.206 33.1032C51.7242 33.0698 51.1002 32.7697 51.1002 32.1777C51.1002 31.6691 51.582 31.2939 52.206 31.2939C52.8301 31.2939 53.3198 31.6691 53.3198 32.1777C53.3198 32.753 52.7037 33.0698 52.206 33.1032ZM52.206 35.7378C51.5109 35.7378 50.9659 35.3543 50.9659 34.7957C50.9659 34.1871 51.6768 33.8202 52.206 33.8035C52.7432 33.8202 53.4462 34.1871 53.4462 34.7957C53.4462 35.3543 52.9011 35.7378 52.206 35.7378ZM56.9873 36.4799C58.1643 36.4799 58.9937 35.7212 58.9937 34.5622C58.9937 33.42 58.1722 32.7697 57.2006 32.7697C56.7187 32.7697 56.3554 32.9364 56.071 33.1365L56.1184 31.4357H58.7014V30.6519H55.3601L55.2811 33.6451L55.8419 33.9119C56.1658 33.6534 56.5528 33.495 57.0031 33.495C57.7061 33.495 58.188 33.9369 58.188 34.5956C58.188 35.2376 57.714 35.7378 57.011 35.7378C56.4344 35.7378 55.9288 35.4377 55.5102 34.9791L55.0125 35.5794C55.4786 36.113 56.1263 36.4799 56.9873 36.4799ZM60.4668 36.4799C60.7512 36.4799 60.9803 36.2214 60.9803 35.9129C60.9803 35.6295 60.7512 35.371 60.4668 35.371C60.1667 35.371 59.9376 35.6295 59.9376 35.9129C59.9376 36.2214 60.1667 36.4799 60.4668 36.4799ZM62.5256 36.3798H63.4418L65.7247 31.2856V30.6519H61.9331V31.4357H64.7847L62.5256 36.3798ZM67.6883 36.3798H68.494V30.6519H67.8463L66.4165 31.6775L66.7483 32.2861L67.6883 31.6524V36.3798ZM70.8325 33.4867C71.5908 33.4867 72.1279 32.8614 72.1279 32.0443C72.1279 31.2439 71.6145 30.6019 70.8404 30.6019C70.0741 30.6019 69.5449 31.2356 69.5449 32.061C69.5449 32.8447 70.0583 33.4867 70.8325 33.4867ZM70.2242 36.3798H70.8482L74.5845 30.6519H73.9526L70.2242 36.3798ZM70.8404 32.9531C70.4375 32.9531 70.1373 32.5696 70.1373 32.0526C70.1373 31.519 70.4217 31.1438 70.8325 31.1438C71.2353 31.1438 71.5355 31.5274 71.5355 32.0526C71.5355 32.5779 71.2432 32.9531 70.8404 32.9531ZM73.9447 36.4632C74.703 36.4632 75.2402 35.8379 75.2402 35.0125C75.2402 34.2287 74.7267 33.5784 73.9526 33.5784C73.1864 33.5784 72.6571 34.2287 72.6571 35.0208C72.6571 35.8379 73.1943 36.4632 73.9447 36.4632ZM73.9526 35.9213C73.5418 35.9213 73.2496 35.5377 73.2496 35.0125C73.2496 34.5039 73.5339 34.112 73.9447 34.112C74.3476 34.112 74.6477 34.4955 74.6477 35.0208C74.6477 35.5461 74.3633 35.9213 73.9526 35.9213Z" fill="#FFD178"/>
<path d="M50.6172 41.3127H50.8885V38.7599H50.6172V41.3127ZM52.2848 39.347C52.0309 39.347 51.7978 39.4956 51.6934 39.7V39.3916H51.4325V41.3127H51.6934V40.0902C51.6934 39.8227 51.9474 39.596 52.25 39.596C52.5144 39.596 52.6988 39.8152 52.6988 40.1274V41.3127H52.9597V40.0902C52.9597 39.6554 52.6814 39.347 52.2848 39.347ZM54.5071 41.3127H54.7785V40.3949H55.4777C55.9717 40.3949 56.3579 40.0568 56.3579 39.5774C56.3579 39.098 55.9717 38.7599 55.4777 38.7599H54.5071V41.3127ZM54.7785 40.1199V39.0349H55.429C55.8187 39.0349 56.0831 39.2355 56.0831 39.5774C56.0831 39.9193 55.8187 40.1199 55.429 40.1199H54.7785ZM57.0209 39.7669V39.3916H56.76V41.3127H57.0209V40.2388C57.0209 39.8635 57.3096 39.596 57.7167 39.596V39.347C57.3862 39.347 57.1287 39.5105 57.0209 39.7669ZM58.8548 41.3573C59.3592 41.3573 59.7837 40.8966 59.7837 40.3503C59.7837 39.8041 59.3592 39.347 58.8548 39.347C58.3503 39.347 57.9224 39.8041 57.9224 40.3503C57.9224 40.8966 58.3503 41.3573 58.8548 41.3573ZM58.8548 41.1084C58.4965 41.1084 58.1973 40.7628 58.1973 40.3503C58.1973 39.9416 58.4965 39.596 58.8548 39.596C59.2096 39.596 59.5088 39.9416 59.5088 40.3503C59.5088 40.7628 59.2096 41.1084 58.8548 41.1084ZM61.6131 39.3916V39.7223C61.4739 39.4882 61.2443 39.347 60.959 39.347C60.4755 39.347 60.1311 39.7223 60.1311 40.2574C60.1311 40.7925 60.4755 41.1715 60.959 41.1715C61.2443 41.1715 61.4739 41.0303 61.6131 40.7962V41.1084C61.6131 41.4837 61.3695 41.7029 60.9556 41.7029C60.7329 41.7029 60.5172 41.6175 60.3781 41.4762L60.2633 41.6955C60.4268 41.8441 60.6981 41.9519 60.9903 41.9519C61.5087 41.9519 61.874 41.6026 61.874 41.1084V39.3916H61.6131ZM61.0077 40.9226C60.6564 40.9226 60.4059 40.6476 60.4059 40.2574C60.4059 39.871 60.6564 39.596 61.0077 39.596C61.3626 39.596 61.6131 39.871 61.6131 40.2574C61.6131 40.6476 61.3626 40.9226 61.0077 40.9226ZM62.7114 39.7669V39.3916H62.4505V41.3127H62.7114V40.2388C62.7114 39.8635 63.0002 39.596 63.4072 39.596V39.347C63.0767 39.347 62.8193 39.5105 62.7114 39.7669ZM64.5789 41.1084C64.224 41.1084 63.977 40.8334 63.9387 40.4581H65.4103C65.4103 39.7855 65.1007 39.347 64.558 39.347C64.0744 39.347 63.6709 39.7743 63.6709 40.3466C63.6709 40.9374 64.1022 41.3573 64.5823 41.3573C64.8328 41.3573 65.1494 41.2421 65.306 41.0601L65.1459 40.878C65.0346 41.008 64.7911 41.1084 64.5789 41.1084ZM64.5684 39.596C64.9267 39.596 65.1181 39.8635 65.1529 40.2091H63.9422C63.9909 39.8375 64.2484 39.596 64.5684 39.596ZM66.4739 41.3573C66.8461 41.3573 67.1314 41.1307 67.1314 40.7777C67.1314 40.4135 66.8322 40.3094 66.5435 40.2128C66.2095 40.0976 66.0773 40.0456 66.0773 39.8784C66.0773 39.6926 66.2443 39.596 66.446 39.596C66.6061 39.596 66.7835 39.6554 66.9644 39.7781L67.0896 39.5625C66.8983 39.4288 66.6687 39.347 66.446 39.347C66.0877 39.347 65.8164 39.5625 65.8164 39.9118C65.8164 40.1868 65.9833 40.3243 66.4182 40.4581C66.6617 40.5324 66.8705 40.5993 66.8705 40.8074C66.8705 40.9895 66.7104 41.1084 66.4739 41.1084C66.2756 41.1084 66.0703 41.0266 65.8651 40.8668L65.7294 41.0712C65.9451 41.257 66.2234 41.3573 66.4739 41.3573ZM68.1997 41.3573C68.5719 41.3573 68.8572 41.1307 68.8572 40.7777C68.8572 40.4135 68.558 40.3094 68.2693 40.2128C67.9353 40.0976 67.8031 40.0456 67.8031 39.8784C67.8031 39.6926 67.9701 39.596 68.1718 39.596C68.3319 39.596 68.5093 39.6554 68.6902 39.7781L68.8154 39.5625C68.6241 39.4288 68.3945 39.347 68.1718 39.347C67.8135 39.347 67.5422 39.5625 67.5422 39.9118C67.5422 40.1868 67.7091 40.3243 68.144 40.4581C68.3875 40.5324 68.5963 40.5993 68.5963 40.8074C68.5963 40.9895 68.4362 41.1084 68.1997 41.1084C68.0014 41.1084 67.7961 41.0266 67.5909 40.8668L67.4552 41.0712C67.6709 41.257 67.9492 41.3573 68.1997 41.3573Z" fill="#898989"/>
<path d="M10.8478 35.9315H11.6522V30.6442H11.0055L9.57812 31.5909L9.90934 32.1527L10.8478 31.5678V35.9315ZM15.4062 35.9315H16.2027V34.7155H16.9835V34.0306H16.2027V30.6442H15.2564L12.6304 34.0921L12.7171 34.7155H15.4062V35.9315ZM13.5057 34.0306L15.4062 31.5293V34.0306H13.5057ZM18.3858 36.0239C18.6697 36.0239 18.8984 35.7853 18.8984 35.5005C18.8984 35.2389 18.6697 35.0003 18.3858 35.0003C18.0862 35.0003 17.8575 35.2389 17.8575 35.5005C17.8575 35.7853 18.0862 36.0239 18.3858 36.0239ZM19.7869 35.9315H23.6432V35.2081H21.0487L22.3184 34.1614C23.2489 33.4226 23.5959 32.8607 23.5959 32.1527C23.5959 31.1907 22.7915 30.5519 21.7821 30.5519C20.9225 30.5519 20.2838 30.9367 19.8106 31.5755L20.3468 32.0372C20.7254 31.5601 21.1591 31.2522 21.7506 31.2522C22.2868 31.2522 22.7757 31.5909 22.7757 32.1681C22.7757 32.6453 22.4997 33.0993 21.7742 33.6919L19.7869 35.2927V35.9315ZM26.5114 30.5519C25.368 30.5519 24.5478 31.3138 24.5478 32.3297C24.5478 33.3764 25.3758 33.9844 26.3695 33.9844C26.9688 33.9844 27.513 33.7227 27.8442 33.284C27.8205 34.4539 27.1975 35.3235 26.3695 35.3235C25.8727 35.3235 25.5336 35.1157 25.1945 34.8156L24.7844 35.4159C25.2024 35.7776 25.6992 36.0239 26.3616 36.0239C27.6865 36.0239 28.6564 34.8079 28.6564 33.2071C28.6564 31.6986 28.0177 30.5519 26.5114 30.5519ZM26.5587 33.3302C25.8963 33.3302 25.368 32.9377 25.368 32.2912C25.368 31.7602 25.8096 31.2138 26.543 31.2138C27.2527 31.2138 27.6391 31.7217 27.7811 32.4759C27.6391 32.9916 27.1581 33.3302 26.5587 33.3302ZM30.7137 33.2609C31.4708 33.2609 32.007 32.6837 32.007 31.9295C32.007 31.1907 31.4944 30.5981 30.7216 30.5981C29.9567 30.5981 29.4283 31.183 29.4283 31.9449C29.4283 32.6683 29.9409 33.2609 30.7137 33.2609ZM30.1065 35.9315H30.7295L34.4596 30.6442H33.8287L30.1065 35.9315ZM30.7216 32.7684C30.3194 32.7684 30.0197 32.4144 30.0197 31.9372C30.0197 31.4446 30.3036 31.0983 30.7137 31.0983C31.1159 31.0983 31.4156 31.4523 31.4156 31.9372C31.4156 32.4221 31.1238 32.7684 30.7216 32.7684ZM33.8208 36.0085C34.5779 36.0085 35.1141 35.4313 35.1141 34.6693C35.1141 33.9459 34.6015 33.3456 33.8287 33.3456C33.0638 33.3456 32.5354 33.9459 32.5354 34.677C32.5354 35.4313 33.0716 36.0085 33.8208 36.0085ZM33.8287 35.5082C33.4186 35.5082 33.1268 35.1542 33.1268 34.6693C33.1268 34.1999 33.4107 33.8382 33.8208 33.8382C34.223 33.8382 34.5227 34.1922 34.5227 34.677C34.5227 35.1619 34.2388 35.5082 33.8287 35.5082Z" fill="#70A2FF"/>
<path d="M11.655 41.3216H11.9464L10.9079 38.8039H10.6166L9.57812 41.3216H9.86944L10.1059 40.7499H11.4186L11.655 41.3216ZM10.2156 40.4787L10.764 39.1557L11.3089 40.4787H10.2156ZM13.2414 39.3829C12.9569 39.3829 12.7307 39.5331 12.597 39.7824V39.4269H12.34V41.9519H12.597V40.9661C12.7307 41.2153 12.9569 41.3655 13.2414 41.3655C13.7075 41.3655 14.0571 40.9551 14.0571 40.3724C14.0571 39.7933 13.7075 39.3829 13.2414 39.3829ZM13.1934 41.12C12.8438 41.12 12.597 40.8085 12.597 40.3724C12.597 39.9363 12.8438 39.6284 13.1934 39.6284C13.5395 39.6284 13.7863 39.9363 13.7863 40.3724C13.7863 40.8085 13.5395 41.12 13.1934 41.12ZM15.427 39.3829C15.1425 39.3829 14.9163 39.5331 14.7827 39.7824V39.4269H14.5256V41.9519H14.7827V40.9661C14.9163 41.2153 15.1425 41.3655 15.427 41.3655C15.8931 41.3655 16.2427 40.9551 16.2427 40.3724C16.2427 39.7933 15.8931 39.3829 15.427 39.3829ZM15.379 41.12C15.0294 41.12 14.7827 40.8085 14.7827 40.3724C14.7827 39.9363 15.0294 39.6284 15.379 39.6284C15.7252 39.6284 15.9719 39.9363 15.9719 40.3724C15.9719 40.8085 15.7252 41.12 15.379 41.12ZM16.9683 39.797V39.4269H16.7112V41.3216H16.9683V40.2624C16.9683 39.8923 17.2527 39.6284 17.6537 39.6284V39.3829C17.3281 39.3829 17.0745 39.5441 16.9683 39.797ZM18.7749 41.3655C19.2719 41.3655 19.69 40.9111 19.69 40.3724C19.69 39.8337 19.2719 39.3829 18.7749 39.3829C18.278 39.3829 17.8564 39.8337 17.8564 40.3724C17.8564 40.9111 18.278 41.3655 18.7749 41.3655ZM18.7749 41.12C18.4219 41.12 18.1272 40.7792 18.1272 40.3724C18.1272 39.9693 18.4219 39.6284 18.7749 39.6284C19.1245 39.6284 19.4192 39.9693 19.4192 40.3724C19.4192 40.7792 19.1245 41.12 18.7749 41.12ZM20.6335 41.3216H20.8802L21.624 39.4269H21.3361L20.7569 40.9991L20.1674 39.4269H19.8795L20.6335 41.3216ZM22.6568 41.12C22.3072 41.12 22.0639 40.8488 22.0262 40.4787H23.4759C23.4759 39.8153 23.1709 39.3829 22.6362 39.3829C22.1598 39.3829 21.7623 39.8043 21.7623 40.3687C21.7623 40.9514 22.1872 41.3655 22.6602 41.3655C22.907 41.3655 23.2188 41.2519 23.3731 41.0723L23.2154 40.8928C23.1058 41.021 22.8658 41.12 22.6568 41.12ZM22.6465 39.6284C22.9995 39.6284 23.188 39.8923 23.2223 40.2331H22.0296C22.0776 39.8666 22.3312 39.6284 22.6465 39.6284ZM25.2811 38.7599V39.7824C25.1474 39.5331 24.9212 39.3829 24.6368 39.3829C24.1706 39.3829 23.8211 39.7933 23.8211 40.3724C23.8211 40.9551 24.1706 41.3655 24.6368 41.3655C24.9212 41.3655 25.1474 41.2153 25.2811 40.9661V41.3216H25.5381V38.7599H25.2811ZM24.6847 41.12C24.3386 41.12 24.0918 40.8085 24.0918 40.3724C24.0918 39.9363 24.3386 39.6284 24.6847 39.6284C25.0343 39.6284 25.2811 39.9363 25.2811 40.3724C25.2811 40.8085 25.0343 41.12 24.6847 41.12Z" fill="#898989"/>
<path d="M138.171 10.9438C132.272 10.9438 126.542 12.933 121.893 16.595C117.243 20.2569 113.941 25.3817 112.511 31.1542C111.081 36.9267 111.606 43.0155 114.002 48.4527C116.397 53.8899 120.526 58.3631 125.732 61.1615C130.938 63.9596 136.922 64.9222 142.733 63.8961C148.543 62.8698 153.847 59.9135 157.8 55.4977C161.754 51.0816 164.13 45.4593 164.551 39.5245C164.972 33.59 163.414 27.6836 160.125 22.7446L148.922 30.3355C150.532 32.754 151.295 35.6464 151.089 38.5525C150.883 41.4589 149.719 44.2121 147.783 46.3745C145.847 48.5371 143.25 49.9846 140.405 50.4873C137.559 50.9898 134.629 50.5183 132.079 49.148C129.53 47.7778 127.508 45.5873 126.335 42.9247C125.162 40.262 124.905 37.2803 125.605 34.4536C126.305 31.6269 127.923 29.1174 130.199 27.324C132.476 25.5306 135.282 24.5566 138.171 24.5566V10.9438Z" fill="#FFD178"/>
<path d="M138.168 10.9438C141.64 10.9438 145.078 11.6281 148.286 12.9573C151.494 14.2864 154.409 16.2349 156.864 18.6909L147.287 28.2718C146.089 27.0741 144.667 26.1238 143.103 25.4755C141.538 24.8272 139.861 24.4935 138.168 24.4935V10.9438Z" fill="#70A2FF"/>
<path d="M156.935 18.6958C158.09 19.8432 159.137 21.094 160.061 22.4318L148.817 30.0958C148.367 29.4433 147.856 28.8333 147.293 28.2734L156.935 18.6958Z" fill="#FF6868"/>
<path d="M13.4366 52.8959H10.7357C10.0964 52.8959 9.57812 53.4141 9.57812 54.0534V56.7543C9.57812 57.3936 10.0964 57.9119 10.7357 57.9119H13.4366C14.0759 57.9119 14.5941 57.3936 14.5941 56.7543V54.0534C14.5941 53.4141 14.0759 52.8959 13.4366 52.8959Z" fill="#70A2FF"/>
<path d="M48.0928 52.8959H45.3919C44.7526 52.8959 44.2344 53.4141 44.2344 54.0534V56.7543C44.2344 57.3936 44.7526 57.9119 45.3919 57.9119H48.0928C48.7321 57.9119 49.2504 57.3936 49.2504 56.7543V54.0534C49.2504 53.4141 48.7321 52.8959 48.0928 52.8959Z" fill="#FF6868"/>
<path d="M78.1866 52.8959H75.4857C74.8464 52.8959 74.3281 53.4141 74.3281 54.0534V56.7543C74.3281 57.3936 74.8464 57.9119 75.4857 57.9119H78.1866C78.8259 57.9119 79.3441 57.3936 79.3441 56.7543V54.0534C79.3441 53.4141 78.8259 52.8959 78.1866 52.8959Z" fill="#FFD178"/>
</svg>
