<svg xmlns="http://www.w3.org/2000/svg" xmlns:xlink="http://www.w3.org/1999/xlink" width="586.43" height="400.677" viewBox="0 0 586.43 400.677">
  <defs>
    <linearGradient id="linear-gradient" x1="1.099" y1="-1.364" x2="0.464" y2="0.808" gradientUnits="objectBoundingBox">
      <stop offset="0" stop-color="#fff"/>
      <stop offset="0.356" stop-color="#cadaf7" stop-opacity="0.996"/>
      <stop offset="1" stop-color="#1d61dc" stop-opacity="0.988"/>
    </linearGradient>
    <linearGradient id="linear-gradient-2" x1="-1.372" y1="1.523" x2="6.546" y2="-1.952" gradientUnits="objectBoundingBox">
      <stop offset="0" stop-color="#dffeff"/>
      <stop offset="1" stop-color="#01b0f9"/>
    </linearGradient>
    <linearGradient id="linear-gradient-3" x1="0.593" y1="0.63" x2="1.04" y2="2.094" gradientUnits="objectBoundingBox">
      <stop offset="0" stop-color="#05d0fd"/>
      <stop offset="1" stop-color="#06d3fe"/>
    </linearGradient>
    <linearGradient id="linear-gradient-4" x1="0.628" y1="0.454" x2="7.654" y2="-1.536" xlink:href="#linear-gradient-2"/>
    <linearGradient id="linear-gradient-5" x1="0.537" y1="0.613" x2="0.718" y2="1.183" gradientUnits="objectBoundingBox">
      <stop offset="0.035" stop-color="#6b24d6"/>
      <stop offset="0.294" stop-color="#7733dc"/>
      <stop offset="0.794" stop-color="#965bec"/>
      <stop offset="1" stop-color="#a56ef4"/>
    </linearGradient>
    <linearGradient id="linear-gradient-6" x1="0.551" y1="0.887" x2="0.821" y2="2.708" xlink:href="#linear-gradient-5"/>
    <linearGradient id="linear-gradient-7" x1="-0.994" y1="1.062" x2="2.061" y2="-0.065" gradientUnits="objectBoundingBox">
      <stop offset="0" stop-color="#007ee6"/>
      <stop offset="1" stop-color="#06d3fe"/>
    </linearGradient>
    <linearGradient id="linear-gradient-8" x1="0.038" y1="0.5" x2="1.004" y2="0.5" xlink:href="#linear-gradient-2"/>
    <linearGradient id="linear-gradient-9" x1="0.506" y1="0.511" x2="0.561" y2="0.606" xlink:href="#linear-gradient-5"/>
    <linearGradient id="linear-gradient-10" x1="0.538" y1="0.625" x2="0.725" y2="1.248" xlink:href="#linear-gradient-5"/>
    <linearGradient id="linear-gradient-11" x1="-1.009" y1="6.575" x2="2.069" y2="-5.965" xlink:href="#linear-gradient-7"/>
    <linearGradient id="linear-gradient-12" x1="-0.908" y1="1.422" x2="1.971" y2="-0.463" xlink:href="#linear-gradient-7"/>
    <linearGradient id="linear-gradient-13" x1="-1.058" y1="4.042" x2="2.136" y2="-3.3" xlink:href="#linear-gradient-7"/>
    <linearGradient id="linear-gradient-14" x1="-0.916" y1="1.494" x2="1.979" y2="-0.539" xlink:href="#linear-gradient-7"/>
    <linearGradient id="linear-gradient-15" x1="-1.011" y1="7.189" x2="2.078" y2="-6.573" xlink:href="#linear-gradient-7"/>
    <linearGradient id="linear-gradient-16" x1="-1.203" y1="1.204" x2="2.289" y2="-0.218" xlink:href="#linear-gradient-7"/>
    <linearGradient id="linear-gradient-17" x1="-6.265" y1="0.577" x2="8.543" y2="0.421" xlink:href="#linear-gradient-7"/>
    <linearGradient id="linear-gradient-18" x1="0.06" y1="0.5" x2="0.967" y2="0.5" xlink:href="#linear-gradient-7"/>
    <radialGradient id="radial-gradient" cx="0.747" cy="0.535" r="0.504" gradientTransform="translate(0.008) scale(0.985 1)" gradientUnits="objectBoundingBox">
      <stop offset="0" stop-color="#fff"/>
      <stop offset="0.066" stop-color="#d8d8d8"/>
      <stop offset="0.162" stop-color="#a5a5a5"/>
      <stop offset="0.262" stop-color="#797979"/>
      <stop offset="0.366" stop-color="#545454"/>
      <stop offset="0.473" stop-color="#353535"/>
      <stop offset="0.585" stop-color="#1d1d1d"/>
      <stop offset="0.704" stop-color="#0d0d0d"/>
      <stop offset="0.835" stop-color="#030303"/>
      <stop offset="1"/>
    </radialGradient>
    <radialGradient id="radial-gradient-2" cx="0.818" cy="0.762" r="1.086" gradientTransform="translate(0.376) scale(0.248 1)" xlink:href="#radial-gradient"/>
    <radialGradient id="radial-gradient-3" cx="0.5" cy="0.5" r="1.08" gradientTransform="translate(0.327) scale(0.346 1)" xlink:href="#radial-gradient"/>
    <radialGradient id="radial-gradient-4" cx="0.5" cy="0.5" r="1.151" gradientTransform="translate(0.339) scale(0.323 1)" xlink:href="#radial-gradient"/>
    <radialGradient id="radial-gradient-5" cx="0.5" cy="0.5" r="0.5" gradientTransform="matrix(-0.046, 1, -0.999, -0.003, 906.623, 1342.188)" gradientUnits="objectBoundingBox">
      <stop offset="0" stop-color="#4916a1"/>
      <stop offset="0.07" stop-color="#3e128a"/>
      <stop offset="0.218" stop-color="#2b0d60"/>
      <stop offset="0.37" stop-color="#1b083d"/>
      <stop offset="0.522" stop-color="#0f0422"/>
      <stop offset="0.677" stop-color="#06020f"/>
      <stop offset="0.834" stop-color="#010003"/>
      <stop offset="1"/>
    </radialGradient>
    <radialGradient id="radial-gradient-6" cx="0.5" cy="0.5" r="0.5" gradientTransform="matrix(-0.046, 1, -0.999, -0.003, 927.011, 1347.412)" xlink:href="#radial-gradient-5"/>
    <linearGradient id="linear-gradient-19" x1="0.5" x2="0.5" y2="1" gradientUnits="objectBoundingBox">
      <stop offset="0" stop-color="#007ee6"/>
      <stop offset="1" stop-color="#03acf3"/>
    </linearGradient>
    <linearGradient id="linear-gradient-20" x1="1.746" y1="0.647" x2="6.396" y2="1.087" gradientUnits="objectBoundingBox">
      <stop offset="0.035" stop-color="#138bbd"/>
      <stop offset="0.226" stop-color="#169ac6"/>
      <stop offset="0.595" stop-color="#1ec2df"/>
      <stop offset="1" stop-color="#2af6ff"/>
    </linearGradient>
    <linearGradient id="linear-gradient-21" x1="0.004" y1="0.5" x2="1.007" y2="0.5" xlink:href="#linear-gradient-2"/>
    <linearGradient id="linear-gradient-22" x1="-0.93" y1="0.848" x2="1.993" y2="0.137" xlink:href="#linear-gradient-2"/>
    <linearGradient id="linear-gradient-23" x1="-445.159" y1="-259.906" x2="4348.81" y2="2538.483" xlink:href="#linear-gradient-2"/>
    <linearGradient id="linear-gradient-24" x1="1291.304" y1="753.722" x2="3237.907" y2="1890.015" xlink:href="#linear-gradient-2"/>
    <linearGradient id="linear-gradient-25" x1="0.207" y1="0.192" x2="1.443" y2="1.491" xlink:href="#linear-gradient-2"/>
    <linearGradient id="linear-gradient-26" x1="0.655" y1="0.663" x2="1.157" y2="1.19" xlink:href="#linear-gradient-2"/>
    <linearGradient id="linear-gradient-27" x1="-445.159" y1="-259.906" x2="4348.81" y2="2538.483" xlink:href="#linear-gradient-20"/>
    <linearGradient id="linear-gradient-28" x1="1291.304" y1="753.722" x2="3237.907" y2="1890.015" xlink:href="#linear-gradient-20"/>
    <radialGradient id="radial-gradient-7" cx="0.361" cy="0.419" r="1.191" gradientTransform="translate(0.277) scale(0.446 1)" xlink:href="#radial-gradient"/>
    <radialGradient id="radial-gradient-8" cx="0.5" cy="0.5" r="0.672" gradientTransform="translate(0.191) scale(0.618 1)" xlink:href="#radial-gradient"/>
    <radialGradient id="radial-gradient-9" cx="0.301" cy="0.229" r="1.387" gradientTransform="translate(0.368) scale(0.264 1)" xlink:href="#radial-gradient"/>
    <radialGradient id="radial-gradient-10" cx="0.5" cy="0.5" r="0.5" gradientTransform="matrix(-0.057, 1, -0.998, -0.002, 1048.764, 1515.815)" gradientUnits="objectBoundingBox">
      <stop offset="0" stop-color="#972a74"/>
      <stop offset="0.041" stop-color="#8a266a"/>
      <stop offset="0.194" stop-color="#601a49"/>
      <stop offset="0.35" stop-color="#3d112f"/>
      <stop offset="0.507" stop-color="#22091a"/>
      <stop offset="0.667" stop-color="#0f040b"/>
      <stop offset="0.829" stop-color="#030102"/>
      <stop offset="1"/>
    </radialGradient>
    <radialGradient id="radial-gradient-11" cx="0.5" cy="0.5" r="0.25" gradientTransform="matrix(2.001, 0, 0, 2.001, 43.099, -59.227)" xlink:href="#radial-gradient-10"/>
    <linearGradient id="linear-gradient-29" y1="0.5" x2="1" y2="0.5" gradientUnits="objectBoundingBox">
      <stop offset="0.035" stop-color="#9f19ab"/>
      <stop offset="0.244" stop-color="#ae24b0"/>
      <stop offset="0.645" stop-color="#d643bf"/>
      <stop offset="1" stop-color="#ff63ce"/>
    </linearGradient>
    <linearGradient id="linear-gradient-30" x1="1.097" y1="-1.425" x2="0.383" y2="0.881" gradientUnits="objectBoundingBox">
      <stop offset="0" stop-color="#01b0f9"/>
      <stop offset="1" stop-color="#1957c8"/>
    </linearGradient>
    <linearGradient id="linear-gradient-31" x1="1.647" y1="0.5" x2="-0.343" y2="0.5" xlink:href="#linear-gradient-30"/>
    <linearGradient id="linear-gradient-32" x1="0.374" y1="0.218" x2="0.751" y2="1.061" xlink:href="#linear-gradient-30"/>
    <linearGradient id="linear-gradient-33" x1="0.167" y1="0.608" x2="2.417" y2="-0.12" xlink:href="#linear-gradient-30"/>
    <linearGradient id="linear-gradient-34" x1="-1.154" y1="0.792" x2="2.114" y2="0.081" xlink:href="#linear-gradient-7"/>
    <linearGradient id="linear-gradient-35" x1="-0.321" y1="0.644" x2="1.509" y2="0.326" xlink:href="#linear-gradient-2"/>
    <linearGradient id="linear-gradient-36" x1="0.622" y1="0.639" x2="1.414" y2="2.328" xlink:href="#linear-gradient-29"/>
    <linearGradient id="linear-gradient-37" x1="1.124" y1="0.5" x2="-0.03" y2="0.5" xlink:href="#linear-gradient-7"/>
    <radialGradient id="radial-gradient-12" cx="0.693" cy="0.48" r="0.931" gradientTransform="translate(0.199) scale(0.602 1)" xlink:href="#radial-gradient"/>
    <radialGradient id="radial-gradient-13" cx="0.785" cy="0.176" r="1.034" gradientTransform="translate(0.181) scale(0.637 1)" xlink:href="#radial-gradient"/>
    <radialGradient id="radial-gradient-14" cx="0.5" cy="0.5" r="0.5" gradientTransform="matrix(-0.05, 1, -0.999, -0.003, 864.634, 1064.53)" gradientUnits="objectBoundingBox">
      <stop offset="0" stop-color="#ad3185"/>
      <stop offset="0.102" stop-color="#8a276a"/>
      <stop offset="0.245" stop-color="#601b4a"/>
      <stop offset="0.391" stop-color="#3d112f"/>
      <stop offset="0.538" stop-color="#22091a"/>
      <stop offset="0.688" stop-color="#0f040b"/>
      <stop offset="0.84" stop-color="#030102"/>
      <stop offset="1"/>
    </radialGradient>
    <radialGradient id="radial-gradient-15" cx="0.175" cy="0.936" r="2.019" gradientTransform="translate(0.358) scale(0.284 1)" xlink:href="#radial-gradient"/>
    <radialGradient id="radial-gradient-16" cx="0.657" cy="0.556" r="0.892" gradientTransform="translate(0.192) scale(0.616 1)" xlink:href="#radial-gradient"/>
    <linearGradient id="linear-gradient-38" x1="0.993" y1="-1.335" x2="0.381" y2="0.726" xlink:href="#linear-gradient-7"/>
    <linearGradient id="linear-gradient-39" x1="0.001" y1="0.5" x2="1.001" y2="0.5" xlink:href="#linear-gradient-7"/>
    <linearGradient id="linear-gradient-40" x1="1.026" y1="0.5" x2="-2.231" y2="0.5" xlink:href="#linear-gradient-7"/>
    <radialGradient id="radial-gradient-17" cx="0.507" cy="0.499" r="0.359" gradientTransform="translate(-2.509) scale(6.019 1)" xlink:href="#radial-gradient"/>
    <radialGradient id="radial-gradient-18" cx="0.5" cy="0.5" r="0.578" gradientTransform="translate(0.113) scale(0.774 1)" xlink:href="#radial-gradient"/>
    <radialGradient id="radial-gradient-19" cx="0.429" cy="0.593" r="0.776" gradientTransform="translate(0.244) scale(0.512 1)" xlink:href="#radial-gradient"/>
    <radialGradient id="radial-gradient-20" cx="0.346" cy="0.541" r="1.106" gradientTransform="translate(0.331) scale(0.337 1)" xlink:href="#radial-gradient"/>
    <radialGradient id="radial-gradient-21" cx="0.5" cy="0.5" r="0.5" gradientTransform="matrix(-0.08, 1, -0.997, -0.002, 1160.375, 1072.092)" xlink:href="#radial-gradient-10"/>
    <radialGradient id="radial-gradient-22" cx="0.5" cy="0.5" r="0.5" gradientTransform="matrix(-0.057, 1, -0.998, -0.002, 1291.159, 1867.713)" xlink:href="#radial-gradient-10"/>
    <radialGradient id="radial-gradient-23" cx="0.5" cy="0.5" r="0.402" gradientTransform="matrix(1.101, -0.38, 0.579, 1.184, 35.466, -1.973)" xlink:href="#radial-gradient-10"/>
  </defs>
  <g id="header_team" transform="translate(-280.054 -107.978)" opacity="0.5">
    <g id="Group_9413" data-name="Group 9413" transform="translate(426.601 107.978)">
      <path id="Path_10083" data-name="Path 10083" d="M429.19,204.3c8.671-8.5,28.135-11.041,42.517-5.289,11.561,4.621,16.007,14.648,9.7,21.855-3.577,4.088-9.529,6.948-16.345,8.362-3.223.669-3.586,3.219-.628,4.232l58.336,19.973L557.387,219.5c2.24-2.195,7.989-1.867,9.38.565,2.247,3.93,7.055,7.4,14.013,9.5,13.035,3.925,29.333,1.39,37.109-5.761,8.537-7.849,4.077-18.205-9.713-22.926a46.686,46.686,0,0,0-19.73-2.037c-4.359.465-7.649-2.282-5.4-4.486l34.621-33.938L467.8,109.1c-6.55-2.242-14.977-1.006-18.82,2.763l-87.937,86.2,58.414,20c2.917,1,6.585-.393,6.036-2.322C424.409,211.923,425.536,207.883,429.19,204.3Z" transform="translate(-361.043 -107.978)" fill="url(#linear-gradient)"/>
      <path id="Path_10084" data-name="Path 10084" d="M489.458,175.377a46.686,46.686,0,0,1,19.73,2.037,31.1,31.1,0,0,1,6.583,3.1l2.9-2.848V136.953l-34.621,33.938C481.809,173.1,485.1,175.842,489.458,175.377Z" transform="translate(-262.056 -84.524)" fill="url(#linear-gradient-2)"/>
      <path id="Path_10085" data-name="Path 10085" d="M622.014,177.645a12.724,12.724,0,0,1-4.126,6.811c-7.775,7.151-24.073,9.686-37.109,5.761-6.957-2.1-11.765-5.566-14.013-9.5-1.391-2.432-7.14-2.759-9.378-.565L522.768,214.1l-58.336-19.973c-2.958-1.013-2.595-3.563.628-4.232,6.816-1.413,12.768-4.274,16.345-8.362,6.308-7.207,1.862-17.233-9.7-21.855-14.382-5.752-33.846-3.212-42.517,5.289-3.653,3.581-4.781,7.622-3.7,11.44.548,1.929-3.12,3.32-6.036,2.322l-58.414-20v40.713l58.414,20c2.917,1,6.585-.393,6.036-2.322-1.084-3.818.043-7.859,3.7-11.439,6.93-6.795,20.751-9.766,33.365-7.755v34.34c-.373.939.2,2,1.878,2.575l58.336,19.973,34.621-33.939c2.238-2.195,7.987-1.867,9.378.565,2.247,3.93,7.055,7.4,14.013,9.5,13.035,3.925,29.333,1.39,37.109-5.761,3.581-3.291,4.848-7.023,4.126-10.6Z" transform="translate(-361.043 -68.64)" fill="url(#linear-gradient-3)"/>
      <path id="Path_10086" data-name="Path 10086" d="M490.256,209.548l-.013-40.75a6.9,6.9,0,0,0-5.2,1.461L450.42,204.2v40.713l34.621-33.939A6.918,6.918,0,0,1,490.256,209.548Z" transform="translate(-288.695 -58.742)" fill="url(#linear-gradient-4)"/>
      <g id="Group_9409" data-name="Group 9409" transform="translate(0.002 87.936)">
        <path id="Path_10087" data-name="Path 10087" d="M470.348,191.662c-.074.034-.161.052-.232.09C470.187,191.714,470.273,191.7,470.348,191.662Z" transform="translate(-272.753 -128.174)" fill="url(#linear-gradient-5)"/>
        <path id="Path_10088" data-name="Path 10088" d="M470.943,191.435c-.04.011-.081.013-.119.022C470.862,191.448,470.9,191.446,470.943,191.435Z" transform="translate(-272.18 -128.358)" fill="url(#linear-gradient-6)"/>
        <path id="Path_10089" data-name="Path 10089" d="M464.432,194.123c-2.958-1.013-2.595-3.563.628-4.232,6.816-1.413,12.769-4.274,16.345-8.362,6.308-7.207,1.862-17.232-9.7-21.857-14.382-5.751-33.844-3.21-42.517,5.291-3.652,3.581-4.781,7.622-3.7,11.44.548,1.931-3.118,3.32-6.036,2.322l-58.412-20v40.713l58.412,20c2.919,1,6.585-.391,6.036-2.322-1.084-3.818.045-7.859,3.7-11.439,6.93-6.795,20.751-9.766,33.365-7.755v34.34c-.371.939.2,2,1.878,2.575l58.336,19.973V214.1Z" transform="translate(-361.044 -156.576)" fill="url(#linear-gradient-7)"/>
        <path id="Path_10090" data-name="Path 10090" d="M533.1,205.148V168.22a12.724,12.724,0,0,1-4.126,6.811c-7.775,7.151-24.073,9.686-37.109,5.761-6.959-2.094-11.765-5.566-14.013-9.5-1.017-1.779-4.357-2.417-6.959-1.782a9.007,9.007,0,0,1,2.8-.206v40.713c1.811.148,3.494.818,4.164,1.989,2.247,3.93,7.053,7.4,14.013,9.5,13.035,3.925,29.333,1.39,37.109-5.761C532.551,212.453,533.818,208.721,533.1,205.148Z" transform="translate(-272.126 -147.15)" fill="url(#linear-gradient-8)"/>
        <path id="Path_10091" data-name="Path 10091" d="M470.573,169.212a4.243,4.243,0,0,0-1.021.717A4.159,4.159,0,0,1,470.573,169.212Z" transform="translate(-273.21 -146.347)" fill="url(#linear-gradient-9)"/>
        <path id="Path_10092" data-name="Path 10092" d="M471.293,168.947a6.343,6.343,0,0,0-1.05.389A6.343,6.343,0,0,1,471.293,168.947Z" transform="translate(-272.649 -146.562)" fill="url(#linear-gradient-10)"/>
      </g>
      <g id="Group_9411" data-name="Group 9411" transform="translate(0.001 87.936)">
        <path id="Path_10093" data-name="Path 10093" d="M393.957,168.964c.065.009.13,0,.2.011C394.087,168.968,394.022,168.973,393.957,168.964Z" transform="translate(-334.401 -146.548)" fill="url(#linear-gradient-11)"/>
        <path id="Path_10094" data-name="Path 10094" d="M415.215,176.311l-54.171-18.548h0Z" transform="translate(-361.044 -155.615)" fill="url(#linear-gradient-12)"/>
        <path id="Path_10095" data-name="Path 10095" d="M394.675,168.991c-.025,0-.049.005-.074.007C394.626,169,394.65,168.991,394.675,168.991Z" transform="translate(-333.88 -146.526)" fill="url(#linear-gradient-13)"/>
        <path id="Path_10096" data-name="Path 10096" d="M395.222,191.965l-4.241-1.451,4.241,1.451a6.246,6.246,0,0,0,1.144.268A6.246,6.246,0,0,1,395.222,191.965Z" transform="translate(-336.81 -129.104)" fill="url(#linear-gradient-14)"/>
        <path id="Path_10097" data-name="Path 10097" d="M394.066,191.47a6.968,6.968,0,0,0,.968.045A6.7,6.7,0,0,1,394.066,191.47Z" transform="translate(-334.313 -128.33)" fill="url(#linear-gradient-15)"/>
        <g id="Group_9410" data-name="Group 9410" transform="translate(62.756)">
          <path id="Path_10098" data-name="Path 10098" d="M395.8,191.259v-.013C395.716,191.291,395.685,191.307,395.8,191.259Z" transform="translate(-395.725 -128.511)" fill="url(#linear-gradient-16)"/>
          <path id="Path_10099" data-name="Path 10099" d="M417.113,198.559a1.423,1.423,0,0,0,0,.532Z" transform="translate(-378.433 -122.591)" fill="url(#linear-gradient-17)"/>
          <path id="Path_10100" data-name="Path 10100" d="M434.371,192.487c-.309-1.046.584-2.18,2.58-2.6,6.816-1.413,12.769-4.274,16.345-8.362,6.308-7.207,1.862-17.232-9.7-21.857-14.382-5.751-33.844-3.21-42.517,5.291-3.652,3.581-4.781,7.622-3.7,11.44.266.936-.469,1.735-1.616,2.208v40.7c.349-.183,1.938-1.059,1.616-2.195-1.084-3.818.045-7.859,3.7-11.439,6.918-6.78,20.7-9.751,33.291-7.764Z" transform="translate(-395.691 -156.576)" fill="url(#linear-gradient-18)"/>
        </g>
      </g>
      <g id="Group_9412" data-name="Group 9412" transform="translate(0.002 52.632)" style="mix-blend-mode: color-dodge;isolation: isolate">
        <path id="Path_10101" data-name="Path 10101" d="M483.908,171.877c.051-.056.089-.114.147-.172l34.621-33.939-2.05-.7-32.571,31.926A1.93,1.93,0,0,0,483.908,171.877Z" transform="translate(-262.057 -137.065)" fill="url(#radial-gradient)"/>
        <path id="Path_10102" data-name="Path 10102" d="M572.539,174.263c-7.775,7.151-24.073,9.686-37.109,5.761-6.959-2.094-11.765-5.566-14.013-9.5-1.391-2.432-7.138-2.761-9.38-.565L477.419,203.9l-58.336-19.973a3.876,3.876,0,0,1-1.259-.7c-1.3,1.046-.95,2.66,1.259,3.416l58.336,19.973,34.619-33.939c2.242-2.2,7.989-1.867,9.38.565,2.247,3.93,7.053,7.4,14.013,9.5,13.035,3.925,29.333,1.39,37.109-5.761,3.4-3.123,4.7-6.641,4.218-10.044A12.452,12.452,0,0,1,572.539,174.263Z" transform="translate(-315.695 -112.888)" fill="url(#radial-gradient-2)"/>
        <path id="Path_10103" data-name="Path 10103" d="M425.2,175.431c-.93,1.165-3.547,1.768-5.741,1.017l-56.362-19.3-2.05,2.01,58.412,20c2.919,1,6.585-.391,6.036-2.322A10.329,10.329,0,0,1,425.2,175.431Z" transform="translate(-361.044 -120.805)" fill="url(#radial-gradient-3)"/>
        <path id="Path_10104" data-name="Path 10104" d="M455.522,174.672c.836-6.062-3.827-12.541-12.473-16-14.382-5.751-33.844-3.21-42.517,5.291-3.214,3.15-4.469,6.655-3.988,10.052a12.7,12.7,0,0,1,3.988-7.337c8.673-8.5,28.135-11.041,42.517-5.291C450.412,164.332,454.873,169.468,455.522,174.672Z" transform="translate(-332.388 -122.081)" fill="url(#radial-gradient-4)"/>
      </g>
      <path id="Path_10105" data-name="Path 10105" d="M490.931,216.55c-3.494-.04-6.194-11.642-6.031-25.915s3.123-25.81,6.615-25.772,6.194,11.644,6.031,25.917S494.423,216.589,490.931,216.55Z" transform="translate(-260.789 -61.932)" fill="url(#radial-gradient-5)" style="mix-blend-mode: color-dodge;isolation: isolate"/>
      <path id="Path_10106" data-name="Path 10106" d="M415.681,194.55c-3.494-.04-6.194-11.642-6.031-25.915s3.123-25.81,6.615-25.772,6.194,11.644,6.031,25.917S419.173,194.589,415.681,194.55Z" transform="translate(-321.702 -79.741)" fill="url(#radial-gradient-6)" style="mix-blend-mode: color-dodge;isolation: isolate"/>
    </g>
    <g id="Group_9417" data-name="Group 9417" transform="translate(280.054 211.74)">
      <path id="Path_10107" data-name="Path 10107" d="M434.384,281.908c-12.156-7.017-11.687-18.549,1.453-25.123,10.564-5.287,28.461-5.215,39.019.15,5.988,3.042,9.341,7.1,10.057,11.273.34,1.972,4.529,2.826,6.947,1.429l47.676-27.526L491.013,214.1c-3.139-1.813-1.191-4.943,3.224-5.1,7.14-.255,14.132-2.057,19.336-5.414,9.75-6.288,9.455-16.048-.65-22.22-11.094-6.775-29.55-6.923-40.822-.414-5.061,2.921-7.8,6.679-8.211,10.511-.277,2.557-5.685,3.7-8.834,1.878l-48.525-28.016-122.48,70.714c-5.354,3.091-5.327,8.119.06,11.228l123.251,71.159L455.1,290.862c2.385-1.377.943-3.784-2.428-3.968A41.74,41.74,0,0,1,434.384,281.908Z" transform="translate(-280.054 -165.322)" fill="url(#linear-gradient-19)"/>
      <path id="Path_10108" data-name="Path 10108" d="M419.89,190.6c-5.2,3.357-12.2,5.159-19.336,5.414-4.415.157-6.364,3.288-3.224,5.1l29.523,17.043V181.364C426.283,184.7,423.983,187.958,419.89,190.6Z" transform="translate(-186.371 -152.336)" fill="#007ee1"/>
      <path id="Path_10109" data-name="Path 10109" d="M280.062,207.418h0v.029Z" transform="translate(-280.05 -131.246)" fill="url(#linear-gradient-20)"/>
      <g id="Group_9414" data-name="Group 9414" transform="translate(0.001 76.427)">
        <path id="Path_10110" data-name="Path 10110" d="M426.745,235.286c-2.417,1.4-6.606.543-6.945-1.429-.718-4.173-4.071-8.231-10.059-11.273-10.558-5.365-28.456-5.437-39.019-.15-13.142,6.574-13.609,18.106-1.455,25.123a41.748,41.748,0,0,0,18.292,4.985c2.07.114,3.4,1.064,3.576,2.1l.013,0v.033a1,1,0,0,1,0,.1v4.475c6.805.134,13.542,1.477,18.594,4.044,5.988,3.042,9.341,7.1,10.059,11.273.338,1.972,4.527,2.826,6.945,1.429l45.664-26.364,2.012-.423V207.76Z" transform="translate(-214.941 -207.396)" fill="url(#linear-gradient-21)"/>
        <path id="Path_10111" data-name="Path 10111" d="M284.112,213.074c-2.645-1.527-3.992-3.519-4.048-5.515v39.854l.052-.024c-.375,2.282.959,4.645,4,6.4l123.251,71.159V284.234Z" transform="translate(-280.055 -207.559)" fill="url(#linear-gradient-22)"/>
        <path id="Path_10112" data-name="Path 10112" d="M377.441,233.668l-.013,0c0,.011.011.022.013.031Z" transform="translate(-201.234 -186.424)" fill="url(#linear-gradient-23)"/>
        <path id="Path_10113" data-name="Path 10113" d="M377.441,233.668l-.013,0c0,.011.011.022.013.031Z" transform="translate(-201.234 -186.424)" fill="url(#linear-gradient-24)"/>
        <path id="Path_10114" data-name="Path 10114" d="M398.15,235.476l-47.739,27.562v40.713l47.739-27.562a2.008,2.008,0,0,0,1.135-1.493h.025v-.239a1,1,0,0,0,0-.1V233.744A1.906,1.906,0,0,1,398.15,235.476Z" transform="translate(-223.103 -186.363)" fill="url(#linear-gradient-25)"/>
        <path id="Path_10115" data-name="Path 10115" d="M398.15,235.476l-47.739,27.562v40.713l47.739-27.562a2.008,2.008,0,0,0,1.135-1.493h.025v-.239a1,1,0,0,0,0-.1V233.744A1.906,1.906,0,0,1,398.15,235.476Z" transform="translate(-223.103 -186.363)" fill="url(#linear-gradient-26)"/>
      </g>
      <g id="Group_9415" data-name="Group 9415" transform="translate(176.195 225.001)" opacity="0.2">
        <path id="Path_10116" data-name="Path 10116" d="M377.441,289.668l-.013,0c0,.011.011.022.013.031Z" transform="translate(-377.428 -289.668)" fill="url(#linear-gradient-27)"/>
        <path id="Path_10117" data-name="Path 10117" d="M377.441,289.668l-.013,0c0,.011.011.022.013.031Z" transform="translate(-377.428 -289.668)" fill="url(#linear-gradient-28)"/>
      </g>
      <g id="Group_9416" data-name="Group 9416" transform="translate(0.013 27.338)" style="mix-blend-mode: color-dodge;isolation: isolate">
        <path id="Path_10118" data-name="Path 10118" d="M454.814,255.081l-47.457,27.4L284.106,211.322a8.173,8.173,0,0,1-3.682-3.834c-1.046,2.589.172,5.427,3.682,7.453L407.357,286.1,455.1,258.539C456.88,257.507,456.52,255.9,454.814,255.081Z" transform="translate(-280.062 -158.527)" fill="url(#radial-gradient-7)"/>
        <path id="Path_10119" data-name="Path 10119" d="M419.886,189.544c-5.2,3.357-12.192,5.159-19.334,5.414-4.16.148-6.125,2.935-3.715,4.772a6.48,6.48,0,0,1,3.715-1.153c7.142-.255,14.132-2.057,19.334-5.414,5.521-3.559,7.815-8.231,6.939-12.733C426.221,183.729,423.932,186.935,419.886,189.544Z" transform="translate(-186.383 -180.43)" fill="url(#radial-gradient-8)"/>
        <path id="Path_10120" data-name="Path 10120" d="M426.731,233.476c-2.417,1.4-6.606.543-6.945-1.429-.718-4.173-4.071-8.231-10.059-11.273-10.558-5.365-28.456-5.437-39.019-.15-7.678,3.842-11,9.373-10.032,14.709.762-4.127,4.086-8.117,10.032-11.09,10.564-5.287,28.461-5.215,39.019.15,5.988,3.042,9.341,7.1,10.059,11.273.338,1.972,4.527,2.826,6.945,1.429l47.676-27.526-3.134-1.809Z" transform="translate(-214.939 -158.307)" fill="url(#radial-gradient-9)"/>
      </g>
      <path id="Path_10121" data-name="Path 10121" d="M378.506,254.721c-2.814-.031-4.962-11.8-4.8-26.292s2.579-26.208,5.392-26.176,4.962,11.8,4.8,26.292S381.32,254.753,378.506,254.721Z" transform="translate(-204.251 -135.427)" fill="url(#radial-gradient-10)" style="mix-blend-mode: color-dodge;isolation: isolate"/>
      <ellipse id="Ellipse_2470" data-name="Ellipse 2470" cx="15.995" cy="32" rx="15.995" ry="32" transform="translate(151.394 67.087) rotate(-22.34)" fill="url(#radial-gradient-11)" style="mix-blend-mode: color-dodge;isolation: isolate"/>
    </g>
    <g id="Group_9421" data-name="Group 9421" transform="translate(606.93 207.484)">
      <path id="Path_10122" data-name="Path 10122" d="M565.855,199.483c12.154,7.017,11.687,18.549-1.453,25.125-10.565,5.285-28.461,5.215-39.021-.152-5.988-3.042-9.341-7.1-10.057-11.271-.338-1.972-4.527-2.826-6.947-1.431L460.7,239.279l48.523,28.014c3.139,1.813,1.192,4.943-3.224,5.1-7.14.255-14.13,2.057-19.334,5.414-9.751,6.288-9.456,16.048.65,22.22,11.094,6.776,29.549,6.923,40.82.416,5.061-2.922,7.8-6.679,8.211-10.513.277-2.557,5.685-3.695,8.834-1.878L593.7,316.07l122.481-70.714c5.352-3.091,5.325-8.117-.062-11.228L592.876,162.97l-47.739,27.562c-2.385,1.377-.943,3.782,2.426,3.966A41.766,41.766,0,0,1,565.855,199.483Z" transform="translate(-460.701 -162.97)" fill="url(#linear-gradient-29)"/>
      <path id="Path_10123" data-name="Path 10123" d="M565.855,199.483c12.154,7.017,11.687,18.549-1.453,25.125-10.565,5.285-28.461,5.215-39.021-.152-5.988-3.042-9.341-7.1-10.057-11.271-.338-1.972-4.527-2.826-6.947-1.431L460.7,239.279l48.523,28.014c3.139,1.813,1.192,4.943-3.224,5.1-7.14.255-14.13,2.057-19.334,5.414-9.751,6.288-9.456,16.048.65,22.22,11.094,6.776,29.549,6.923,40.82.416,5.061-2.922,7.8-6.679,8.211-10.513.277-2.557,5.685-3.695,8.834-1.878L593.7,316.07l122.481-70.714c5.352-3.091,5.325-8.117-.062-11.228L592.876,162.97l-47.739,27.562c-2.385,1.377-.943,3.782,2.426,3.966A41.766,41.766,0,0,1,565.855,199.483Z" transform="translate(-460.701 -162.97)" fill="url(#linear-gradient-30)"/>
      <path id="Path_10124" data-name="Path 10124" d="M527.179,211.5c13.14-6.576,13.607-18.107,1.453-25.125a41.766,41.766,0,0,0-18.292-4.985c-2.155-.118-3.507-1.145-3.588-2.231l-.067.013v36.22C514.124,215.549,521.653,214.267,527.179,211.5Z" transform="translate(-423.478 -149.864)" fill="url(#linear-gradient-31)"/>
      <g id="Group_9418" data-name="Group 9418" transform="translate(133.005 76.582)">
        <path id="Path_10125" data-name="Path 10125" d="M660.666,246.019l.089-.013V205.293l-.089.027c.089,2.088-1.23,4.187-3.981,5.776L534.206,281.81v40.713l122.48-70.714C659.443,250.219,660.761,248.111,660.666,246.019Z" transform="translate(-534.206 -205.293)" fill="url(#linear-gradient-32)"/>
        <path id="Path_10126" data-name="Path 10126" d="M660.666,246.019l.089-.013V205.293l-.089.027c.089,2.088-1.23,4.187-3.981,5.776L534.206,281.81v40.713l122.48-70.714C659.443,250.219,660.761,248.111,660.666,246.019Z" transform="translate(-534.206 -205.293)" fill="url(#linear-gradient-33)"/>
      </g>
      <path id="Path_10127" data-name="Path 10127" d="M486.665,243.671c5.2-3.357,12.194-5.159,19.334-5.414,4.415-.157,6.364-3.288,3.224-5.1L460.7,205.142v40.713L479.6,256.764l.21-.058C478.767,252.111,481.023,247.31,486.665,243.671Z" transform="translate(-460.701 -128.833)" fill="url(#linear-gradient-34)"/>
      <path id="Path_10128" data-name="Path 10128" d="M509.812,232.494a8.074,8.074,0,0,0-5.419-.715v40.713a8.074,8.074,0,0,1,5.419.715l48.526,28.016V260.51Z" transform="translate(-425.333 -107.411)" fill="url(#linear-gradient-35)"/>
      <path id="Path_10129" data-name="Path 10129" d="M527.908,234.295c-.416,3.834-3.15,7.591-8.211,10.513-11.271,6.507-29.726,6.36-40.82-.416-4.258-2.6-6.751-5.839-7.509-9.185l-.21.058v37.691c-.36,4.354,2.209,8.783,7.719,12.149,11.094,6.776,29.549,6.923,40.82.416,5.061-2.922,7.8-6.679,8.211-10.513.141-1.3,1.6-2.224,3.414-2.593V231.7C529.51,232.071,528.05,233,527.908,234.295Z" transform="translate(-452.263 -107.333)" fill="url(#linear-gradient-36)"/>
      <path id="Path_10130" data-name="Path 10130" d="M527.908,234.295c-.416,3.834-3.15,7.591-8.211,10.513-11.271,6.507-29.726,6.36-40.82-.416-4.258-2.6-6.751-5.839-7.509-9.185l-.21.058v37.691c-.36,4.354,2.209,8.783,7.719,12.149,11.094,6.776,29.549,6.923,40.82.416,5.061-2.922,7.8-6.679,8.211-10.513.141-1.3,1.6-2.224,3.414-2.593V231.7C529.51,232.071,528.05,233,527.908,234.295Z" transform="translate(-452.263 -107.333)" fill="url(#linear-gradient-37)"/>
      <g id="Group_9419" data-name="Group 9419" transform="translate(0 29.209)" style="mix-blend-mode: color-dodge;isolation: isolate">
        <path id="Path_10131" data-name="Path 10131" d="M509.716,235.3c1.439-1.116,1.5-2.8-.492-3.948l-45.389-26.2-3.134,1.809,48.523,28.014A4.946,4.946,0,0,1,509.716,235.3Z" transform="translate(-460.701 -158.041)" fill="url(#radial-gradient-12)"/>
        <path id="Path_10132" data-name="Path 10132" d="M510.319,183.241a41.766,41.766,0,0,1,18.292,4.985c5.054,2.919,7.891,6.617,8.577,10.415.923-5-1.92-10.191-8.577-14.034a41.766,41.766,0,0,0-18.292-4.985,5.671,5.671,0,0,1-2.146-.51l-.28.163C505.506,180.652,506.949,183.057,510.319,183.241Z" transform="translate(-423.457 -179.112)" fill="url(#radial-gradient-13)"/>
      </g>
      <path id="Path_10133" data-name="Path 10133" d="M481.324,283.888c-3.686-.042-6.525-13.16-6.34-29.3s3.319-29.192,7-29.151,6.525,13.16,6.342,29.3S485.01,283.931,481.324,283.888Z" transform="translate(-449.146 -112.405)" fill="url(#radial-gradient-14)" style="mix-blend-mode: color-dodge;isolation: isolate"/>
      <g id="Group_9420" data-name="Group 9420" transform="translate(18.864 76.801)">
        <path id="Path_10134" data-name="Path 10134" d="M536.741,231.495c-3.147-1.817-8.557-.679-8.834,1.878-.416,3.834-3.15,7.591-8.211,10.513-11.271,6.507-29.726,6.36-40.82-.416-4.386-2.678-6.918-6.033-7.589-9.487-.852,4.656,1.676,9.494,7.589,13.106,11.094,6.776,29.549,6.923,40.82.416,5.061-2.922,7.8-6.679,8.211-10.513.277-2.557,5.687-3.695,8.834-1.878l48.186,27.819v-3.619Z" transform="translate(-471.126 -185.022)" fill="url(#radial-gradient-15)" style="mix-blend-mode: color-dodge;isolation: isolate"/>
        <path id="Path_10135" data-name="Path 10135" d="M656.838,212.807c3.467-2,4.663-4.813,3.621-7.393a8.044,8.044,0,0,1-3.621,3.775L534.358,279.9l-.34-.2v3.619l.34.2Z" transform="translate(-420.216 -205.414)" fill="url(#radial-gradient-16)" style="mix-blend-mode: color-dodge;isolation: isolate"/>
      </g>
    </g>
    <g id="Group_9423" data-name="Group 9423" transform="translate(453.676 317.766)">
      <path id="Path_10136" data-name="Path 10136" d="M568.6,276.053c-9.507,8.2-29.2,10.086-42.99,3.87-11.087-5-14.528-15.151-7.513-22.133,3.979-3.961,10.209-6.619,17.157-7.8,3.284-.561,3.9-3.092,1.046-4.2l-56.273-21.867-37.95,32.723c-2.455,2.117-8.164,1.6-9.312-.874-1.853-4-6.31-7.622-13.05-9.941-12.628-4.35-29.156-2.36-37.633,4.518-9.308,7.551-5.883,18.033,7.421,23.2a45.666,45.666,0,0,0,19.5,2.687c4.4-.32,7.413,2.531,4.951,4.654l-37.952,32.724,144.566,56.175c6.321,2.456,14.858,1.5,19.072-2.132l96.4-83.116-56.349-21.895c-2.814-1.095-6.615.172-6.259,2.115C574.134,268.606,572.605,272.6,568.6,276.053Z" transform="translate(-376.006 -223.917)" fill="url(#linear-gradient-38)"/>
      <path id="Path_10137" data-name="Path 10137" d="M539.644,340.535c-4.214,3.633-12.751,4.587-19.072,2.132L376.006,286.492V327.2L520.572,383.38c6.321,2.455,14.858,1.5,19.072-2.132l96.4-83.116V257.419Z" transform="translate(-376.006 -196.798)" fill="url(#linear-gradient-39)"/>
      <path id="Path_10138" data-name="Path 10138" d="M408.622,259.593a45.667,45.667,0,0,1-19.5-2.687c-7.553-2.935-11.912-7.582-12.574-12.433v38.3c-.4,3.414,1.057,6.847,4.183,9.787l32.842-28.318C416.035,262.124,413.023,259.273,408.622,259.593Z" transform="translate(-375.621 -207.277)" fill="#007ee1"/>
      <path id="Path_10139" data-name="Path 10139" d="M473.322,239.074c-6.948,1.185-13.178,3.843-17.157,7.8-7.015,6.983-3.574,17.136,7.513,22.134a42.651,42.651,0,0,0,12.362,3.3V237.4A3.368,3.368,0,0,1,473.322,239.074Z" transform="translate(-314.07 -213.004)" fill="url(#linear-gradient-40)"/>
      <g id="Group_9422" data-name="Group 9422" transform="translate(0 23.836)" style="mix-blend-mode: color-dodge;isolation: isolate">
        <path id="Path_10140" data-name="Path 10140" d="M485.212,247.056a1.33,1.33,0,0,0-.089.534C485.152,247.411,485.194,247.233,485.212,247.056Z" transform="translate(-287.679 -229.023)" fill="url(#radial-gradient-17)"/>
        <path id="Path_10141" data-name="Path 10141" d="M456.16,245.318a11.18,11.18,0,0,0-3.469,10.053,11.818,11.818,0,0,1,3.469-6.434c3.977-3.961,10.205-6.619,17.156-7.8,3.147-.537,3.809-2.872,1.35-4.042a5.315,5.315,0,0,1-1.35.423C466.365,238.7,460.137,241.357,456.16,245.318Z" transform="translate(-314.064 -237.09)" fill="url(#radial-gradient-18)"/>
        <path id="Path_10142" data-name="Path 10142" d="M389.134,259.314a45.666,45.666,0,0,0,19.5,2.687,7.07,7.07,0,0,1,4.775,1.187l.176-.152c2.463-2.123-.55-4.974-4.951-4.654a45.666,45.666,0,0,1-19.5-2.687c-7.308-2.839-11.613-7.283-12.485-11.962C375.483,249.65,379.954,255.746,389.134,259.314Z" transform="translate(-375.633 -231.713)" fill="url(#radial-gradient-19)"/>
        <path id="Path_10143" data-name="Path 10143" d="M539.644,338.419c-4.214,3.633-12.751,4.589-19.072,2.132L378.9,285.5l-2.893,2.5L520.572,344.17c6.321,2.457,14.858,1.5,19.072-2.132l96.4-83.116-2.893-1.124Z" transform="translate(-376.006 -220.327)" fill="url(#radial-gradient-20)"/>
      </g>
      <path id="Path_10144" data-name="Path 10144" d="M462.6,356.112c-2.294-.027-4-13.408-3.816-29.891s2.2-29.82,4.493-29.795,4,13.408,3.816,29.889S464.9,356.137,462.6,356.112Z" transform="translate(-309.007 -165.223)" fill="url(#radial-gradient-21)" style="mix-blend-mode: color-dodge;isolation: isolate"/>
      <path id="Path_10145" data-name="Path 10145" d="M384.085,283.6c-2.294-.027-4.046-9.565-3.914-21.3s2.1-21.236,4.4-21.209,4.046,9.563,3.914,21.3S386.379,283.621,384.085,283.6Z" transform="translate(-372.64 -210.022)" fill="url(#radial-gradient-22)" style="mix-blend-mode: color-dodge;isolation: isolate"/>
      <path id="Path_10146" data-name="Path 10146" d="M488.94,310.293c5.506,13.4,1.487,27.745-8.977,32.046s-23.409-3.076-28.915-16.475-1.487-27.745,8.977-32.044S483.434,296.894,488.94,310.293Z" transform="translate(-317.259 -168.325)" fill="url(#radial-gradient-23)" style="mix-blend-mode: color-dodge;isolation: isolate"/>
    </g>
  </g>
</svg>
