<svg xmlns="http://www.w3.org/2000/svg" xmlns:xlink="http://www.w3.org/1999/xlink" width="763.365" height="461.566" viewBox="0 0 763.365 461.566">
  <defs>
    <linearGradient id="linear-gradient" x1="0.5" x2="0.5" y2="1" gradientUnits="objectBoundingBox">
      <stop offset="0" stop-color="#3ac5ff"/>
      <stop offset="1" stop-color="#1957c8"/>
    </linearGradient>
    <linearGradient id="linear-gradient-2" x1="0.5" x2="0.5" y2="1" gradientUnits="objectBoundingBox">
      <stop offset="0" stop-color="#47c9ff"/>
      <stop offset="1" stop-color="#1957c8"/>
    </linearGradient>
    <linearGradient id="linear-gradient-3" x1="0.5" x2="0.5" y2="1" gradientUnits="objectBoundingBox">
      <stop offset="0" stop-color="#112c6f"/>
      <stop offset="1" stop-color="#184edc"/>
    </linearGradient>
    <linearGradient id="linear-gradient-4" x1="0.5" x2="0.5" y2="1" gradientUnits="objectBoundingBox">
      <stop offset="0" stop-color="#2cc1ff"/>
      <stop offset="1" stop-color="#185cd9"/>
    </linearGradient>
    <linearGradient id="linear-gradient-5" x1="0.5" x2="0.5" y2="1" gradientUnits="objectBoundingBox">
      <stop offset="0" stop-color="#dffeff"/>
      <stop offset="1" stop-color="#01b0f9"/>
    </linearGradient>
    <clipPath id="clip-path">
      <rect id="Rectangle_3766" data-name="Rectangle 3766" width="225.239" height="26.871" fill="none"/>
    </clipPath>
    <clipPath id="clip-path-2">
      <rect id="Rectangle_3765" data-name="Rectangle 3765" width="225.239" height="26.87" fill="none"/>
    </clipPath>
    <clipPath id="clip-path-4">
      <path id="Path_8577" data-name="Path 8577" d="M0,13.436c0,7.42,50.422,13.435,112.62,13.435s112.62-6.015,112.62-13.435S174.818,0,112.62,0,0,6.016,0,13.436" transform="translate(0)" fill="none"/>
    </clipPath>
  </defs>
  <g id="header_together" transform="translate(-973.031 -144.819)">
    <g id="Group_9189" data-name="Group 9189" transform="translate(374.594 -1274.387)">
      <path id="Path_8966" data-name="Path 8966" d="M-16763.562-4719.249h147.547l250.757-317.265h-148.315Z" transform="translate(17362 6600.021)" fill="url(#linear-gradient)"/>
      <path id="Path_8967" data-name="Path 8967" d="M-16622.752-4703.425h-51.883l251.023-317.258,131.228,165.774,159.688-205.825,24.879,32.571-184.566,239.3-130.276-166.922Z" transform="translate(17420.342 6584.197)" fill="url(#linear-gradient-2)"/>
      <path id="Path_8968" data-name="Path 8968" d="M-16362.18-4830.481l-148.092.906-57.014-73.609,74.742-94.129Z" transform="translate(17490.227 6625.868)" fill="url(#linear-gradient-3)"/>
      <path id="Path_8969" data-name="Path 8969" d="M-16488.281-4906.751l88.705-111.189h-49.4l206.412-105.854,41.166,105.854-53.4-1.276-159.826,205.613Z" transform="translate(17542.545 6543)" fill="url(#linear-gradient-4)"/>
      <path id="Path_8970" data-name="Path 8970" d="M-16464.041-5059.642l23.189,32.507,25.545-32.507Z" transform="translate(17557.67 6584.91)" fill="url(#linear-gradient-5)"/>
      <path id="Path_8971" data-name="Path 8971" d="M-16322.142-5028.388h49.258l-21.381-31.993-52.531-.214Z" transform="translate(17634.668 6584.401)" fill="url(#linear-gradient-5)"/>
      <path id="Path_8972" data-name="Path 8972" d="M-16339.264-5123.661l21.971,31.8,39.826,104.9-21.322-31.944Z" transform="translate(17639.27 6543.01)" fill="url(#linear-gradient-5)"/>
    </g>
    <g id="Group_8974" data-name="Group 8974" transform="translate(1299.488 532.129)" clip-path="url(#clip-path)">
      <g id="Group_8973" data-name="Group 8973" transform="translate(0 0)">
        <g id="Group_8972" data-name="Group 8972" clip-path="url(#clip-path-2)">
          <g id="Group_8971" data-name="Group 8971" transform="translate(0 0)" opacity="0.5" style="mix-blend-mode: multiply;isolation: isolate">
            <g id="Group_8970" data-name="Group 8970" transform="translate(0 0)">
              <g id="Group_8969" data-name="Group 8969" clip-path="url(#clip-path)">
                <g id="Group_8968" data-name="Group 8968" transform="translate(0 0)">
                  <g id="Group_8967" data-name="Group 8967" clip-path="url(#clip-path-4)">
                    <rect id="Rectangle_3763" data-name="Rectangle 3763" width="225.239" height="26.871" transform="translate(0 0)" fill="#fff"/>
                    <path id="Path_8322" data-name="Path 8322" d="M12.572,14.576C12.53,20.639,57.64,25.762,113.33,26.016S214.2,21.562,214.24,15.5,169.172,4.312,113.483,4.058,12.614,8.512,12.572,14.576" transform="translate(-0.52 -1.04)" fill="#fff"/>
                    <path id="Path_8323" data-name="Path 8323" d="M12.626,14.594c-.042,6.04,44.892,11.142,100.362,11.4S213.461,21.553,213.5,15.513,168.611,4.371,113.14,4.117,12.668,8.554,12.626,14.594" transform="translate(0.168 -1.055)" fill="#fff"/>
                    <path id="Path_8324" data-name="Path 8324" d="M12.682,14.613c-.042,6.017,44.715,11.1,99.966,11.351s100.078-4.419,100.119-10.436S168.053,4.43,112.8,4.178,12.723,8.6,12.682,14.613" transform="translate(0.852 -1.071)" fill="#fff"/>
                    <path id="Path_8325" data-name="Path 8325" d="M12.736,14.632c-.042,5.992,44.538,11.054,99.572,11.306s99.68-4.4,99.723-10.394S167.492,4.49,112.459,4.238,12.777,8.64,12.736,14.632" transform="translate(1.539 -1.086)" fill="#fff"/>
                    <path id="Path_8326" data-name="Path 8326" d="M12.791,14.65c-.041,5.969,44.362,11.01,99.177,11.261s99.285-4.384,99.328-10.353S166.934,4.548,112.119,4.3,12.833,8.682,12.791,14.65" transform="translate(2.224 -1.101)" fill="#fff"/>
                    <path id="Path_8327" data-name="Path 8327" d="M12.846,14.669c-.041,5.945,44.185,10.966,98.782,11.217s98.89-4.367,98.931-10.312S166.374,4.607,111.778,4.358,12.887,8.724,12.846,14.669" transform="translate(2.91 -1.117)" fill="#feffff"/>
                    <path id="Path_8328" data-name="Path 8328" d="M12.9,14.688c-.041,5.921,44.007,10.923,98.387,11.172s98.495-4.349,98.536-10.27S165.815,4.667,111.436,4.418,12.941,8.766,12.9,14.688" transform="translate(3.597 -1.132)" fill="#feffff"/>
                    <path id="Path_8329" data-name="Path 8329" d="M12.955,14.707c-.041,5.9,43.831,10.879,97.991,11.127s98.1-4.332,98.141-10.23S165.255,4.725,111.094,4.477,13,8.809,12.955,14.707" transform="translate(4.282 -1.147)" fill="#fefeff"/>
                    <path id="Path_8330" data-name="Path 8330" d="M13.01,14.725c-.041,5.874,43.655,10.835,97.6,11.082s97.7-4.315,97.743-10.188S164.7,4.784,110.754,4.537,13.05,8.852,13.01,14.725" transform="translate(4.969 -1.163)" fill="#fefeff"/>
                    <path id="Path_8331" data-name="Path 8331" d="M13.065,14.744c-.04,5.849,43.478,10.791,97.2,11.037s97.308-4.3,97.349-10.148S164.138,4.843,110.414,4.6s-97.308,4.3-97.349,10.147" transform="translate(5.653 -1.179)" fill="#fefeff"/>
                    <path id="Path_8332" data-name="Path 8332" d="M13.119,14.762c-.04,5.826,43.3,10.748,96.806,10.992s96.912-4.28,96.954-10.106S163.577,4.9,110.072,4.656,13.159,8.935,13.119,14.762" transform="translate(6.34 -1.193)" fill="#fdfeff"/>
                    <path id="Path_8333" data-name="Path 8333" d="M13.174,14.781c-.04,5.8,43.124,10.7,96.411,10.946s96.517-4.262,96.557-10.064-43.124-10.7-96.41-10.947S13.214,8.978,13.174,14.781" transform="translate(7.026 -1.209)" fill="#fdfefe"/>
                    <path id="Path_8334" data-name="Path 8334" d="M13.229,14.8c-.04,5.778,42.947,10.66,96.015,10.9s96.122-4.245,96.162-10.023-42.947-10.66-96.016-10.9S13.269,9.022,13.229,14.8" transform="translate(7.712 -1.225)" fill="#fdfefe"/>
                    <path id="Path_8335" data-name="Path 8335" d="M13.283,14.818c-.04,5.754,42.77,10.615,95.621,10.857s95.726-4.227,95.766-9.982S161.9,5.078,109.049,4.836,13.322,9.063,13.283,14.818" transform="translate(8.399 -1.24)" fill="#fdfefe"/>
                    <path id="Path_8336" data-name="Path 8336" d="M13.338,14.837c-.039,5.731,42.595,10.572,95.226,10.813s95.33-4.21,95.37-9.94S161.34,5.137,108.708,4.9s-95.33,4.21-95.37,9.941" transform="translate(9.083 -1.255)" fill="#fcfdfe"/>
                    <path id="Path_8337" data-name="Path 8337" d="M13.393,14.855c-.039,5.708,42.418,10.529,94.831,10.768s94.935-4.192,94.975-9.9S160.781,5.2,108.368,4.957s-94.934,4.191-94.975,9.9" transform="translate(9.77 -1.271)" fill="#fcfdfe"/>
                    <path id="Path_8338" data-name="Path 8338" d="M13.448,14.874c-.039,5.683,42.241,10.484,94.435,10.723s94.54-4.175,94.579-9.858S160.222,5.255,108.027,5.016,13.487,9.191,13.448,14.874" transform="translate(10.456 -1.286)" fill="#fcfdfe"/>
                    <path id="Path_8339" data-name="Path 8339" d="M13.5,14.893c-.039,5.66,42.064,10.441,94.041,10.678s94.143-4.157,94.182-9.817-42.063-10.44-94.04-10.678S13.542,9.234,13.5,14.893" transform="translate(11.141 -1.301)" fill="#fbfdfe"/>
                    <path id="Path_8340" data-name="Path 8340" d="M13.557,14.912c-.039,5.636,41.887,10.4,93.645,10.634s93.748-4.141,93.787-9.777S159.1,5.373,107.343,5.136,13.6,9.276,13.557,14.912" transform="translate(11.829 -1.317)" fill="#fbfdfe"/>
                    <path id="Path_8341" data-name="Path 8341" d="M13.612,14.929c-.038,5.612,41.71,10.353,93.25,10.589s93.353-4.123,93.392-9.735S158.544,5.431,107,5.195,13.651,9.317,13.612,14.929" transform="translate(12.513 -1.332)" fill="#fbfcfe"/>
                    <path id="Path_8342" data-name="Path 8342" d="M13.667,14.948c-.038,5.588,41.533,10.309,92.855,10.544s92.957-4.105,93-9.693S157.984,5.49,106.663,5.255s-92.957,4.1-93,9.693" transform="translate(13.199 -1.347)" fill="#fafcfe"/>
                    <path id="Path_8343" data-name="Path 8343" d="M13.721,14.967c-.038,5.565,41.358,10.265,92.459,10.5s92.562-4.088,92.6-9.652-41.357-10.265-92.46-10.5S13.759,9.4,13.721,14.967" transform="translate(13.886 -1.363)" fill="#fafcfd"/>
                    <path id="Path_8344" data-name="Path 8344" d="M13.776,14.986c-.038,5.54,41.18,10.221,92.065,10.453s92.166-4.069,92.2-9.61S156.865,5.607,105.981,5.375s-92.166,4.07-92.2,9.611" transform="translate(14.572 -1.378)" fill="#fafcfd"/>
                    <path id="Path_8345" data-name="Path 8345" d="M13.831,15c-.038,5.517,41,10.177,91.67,10.409s91.77-4.052,91.808-9.569-41-10.177-91.67-10.409S13.869,9.487,13.831,15" transform="translate(15.258 -1.394)" fill="#f9fcfd"/>
                    <path id="Path_8346" data-name="Path 8346" d="M13.886,15.023c-.038,5.494,40.827,10.134,91.274,10.365s91.375-4.035,91.413-9.528S155.746,5.725,105.3,5.495,13.924,9.529,13.886,15.023" transform="translate(15.943 -1.409)" fill="#f9fbfd"/>
                    <path id="Path_8347" data-name="Path 8347" d="M13.941,15.042c-.038,5.469,40.65,10.09,90.88,10.319s90.979-4.018,91.016-9.487S155.188,5.785,104.958,5.555,13.979,9.573,13.941,15.042" transform="translate(16.629 -1.425)" fill="#f8fbfd"/>
                    <path id="Path_8348" data-name="Path 8348" d="M14,15.06c-.038,5.446,40.473,10.046,90.484,10.275s90.584-4,90.621-9.446S154.627,5.844,104.616,5.615,14.033,9.615,14,15.06" transform="translate(17.316 -1.44)" fill="#f8fbfd"/>
                    <path id="Path_8349" data-name="Path 8349" d="M14.05,15.079c-.038,5.422,40.3,10,90.089,10.23s90.188-3.983,90.226-9.405-40.3-10-90.089-10.229-90.188,3.982-90.226,9.4" transform="translate(18.001 -1.455)" fill="#f8fafd"/>
                    <path id="Path_8350" data-name="Path 8350" d="M14.1,15.1c-.038,5.4,40.12,9.958,89.694,10.185s89.792-3.965,89.83-9.364S153.507,5.961,103.934,5.734,14.142,9.7,14.1,15.1" transform="translate(18.689 -1.471)" fill="#f7fafc"/>
                    <path id="Path_8351" data-name="Path 8351" d="M14.16,15.116c-.038,5.374,39.943,9.914,89.3,10.14s89.4-3.948,89.434-9.322-39.943-9.914-89.3-10.14S14.2,9.741,14.16,15.116" transform="translate(19.373 -1.486)" fill="#f7fafc"/>
                    <path id="Path_8352" data-name="Path 8352" d="M14.214,15.134c-.037,5.351,39.766,9.87,88.9,10.095s89-3.93,89.039-9.28-39.766-9.87-88.9-10.095-89,3.93-89.039,9.28" transform="translate(20.059 -1.501)" fill="#f6fafc"/>
                    <path id="Path_8353" data-name="Path 8353" d="M14.268,15.153c-.037,5.327,39.59,9.826,88.509,10.049s88.6-3.913,88.642-9.239S151.83,6.137,102.911,5.913s-88.606,3.913-88.643,9.24" transform="translate(20.746 -1.517)" fill="#f6f9fc"/>
                    <path id="Path_8354" data-name="Path 8354" d="M14.324,15.172c-.037,5.3,39.413,9.783,88.114,10.006s88.21-3.9,88.247-9.2-39.412-9.782-88.114-10-88.21,3.895-88.247,9.2" transform="translate(21.431 -1.532)" fill="#f5f9fc"/>
                    <path id="Path_8355" data-name="Path 8355" d="M14.378,15.191c-.037,5.279,39.236,9.738,87.718,9.959s87.815-3.877,87.852-9.156-39.236-9.739-87.718-9.96S14.415,9.912,14.378,15.191" transform="translate(22.118 -1.548)" fill="#f5f9fc"/>
                    <path id="Path_8356" data-name="Path 8356" d="M14.433,15.209c-.037,5.255,39.059,9.695,87.323,9.916s87.419-3.861,87.456-9.116-39.06-9.695-87.324-9.916S14.47,9.954,14.433,15.209" transform="translate(22.803 -1.563)" fill="#f4f9fc"/>
                    <path id="Path_8357" data-name="Path 8357" d="M14.487,15.228c-.036,5.231,38.884,9.65,86.928,9.87s87.024-3.843,87.061-9.075-38.883-9.65-86.928-9.87S14.524,10,14.487,15.228" transform="translate(23.49 -1.578)" fill="#f4f8fb"/>
                    <path id="Path_8358" data-name="Path 8358" d="M14.542,15.247c-.035,5.208,38.707,9.607,86.533,9.826s86.628-3.826,86.665-9.034-38.706-9.607-86.534-9.825S14.58,10.039,14.542,15.247" transform="translate(24.175 -1.594)" fill="#f3f8fb"/>
                    <path id="Path_8359" data-name="Path 8359" d="M14.6,15.265c-.036,5.185,38.529,9.563,86.138,9.781S186.967,21.238,187,16.054s-38.529-9.563-86.138-9.781S14.633,10.081,14.6,15.265" transform="translate(24.861 -1.609)" fill="#f3f8fb"/>
                    <path id="Path_8360" data-name="Path 8360" d="M14.652,15.284C14.616,20.444,53,24.8,100.394,25.02s85.837-3.791,85.873-8.95-38.352-9.52-85.742-9.737-85.837,3.791-85.873,8.951" transform="translate(25.547 -1.625)" fill="#f2f7fb"/>
                    <path id="Path_8361" data-name="Path 8361" d="M14.707,15.3c-.036,5.137,38.175,9.476,85.347,9.691s85.442-3.773,85.478-8.909-38.175-9.475-85.348-9.69S14.743,10.166,14.707,15.3" transform="translate(26.233 -1.64)" fill="#f2f7fb"/>
                    <path id="Path_8362" data-name="Path 8362" d="M14.761,15.321c-.035,5.113,38,9.431,84.954,9.646S184.76,21.212,184.8,16.1s-38-9.432-84.954-9.647S14.8,10.208,14.761,15.321" transform="translate(26.919 -1.655)" fill="#f1f7fb"/>
                    <path id="Path_8363" data-name="Path 8363" d="M14.816,15.339c-.035,5.089,37.822,9.388,84.558,9.6s84.65-3.738,84.685-8.827S146.237,6.726,99.5,6.512s-84.65,3.738-84.686,8.827" transform="translate(27.605 -1.671)" fill="#f1f6fa"/>
                    <path id="Path_8364" data-name="Path 8364" d="M14.871,15.358c-.035,5.064,37.646,9.343,84.162,9.556s84.255-3.72,84.29-8.785S145.677,6.785,99.161,6.572s-84.254,3.721-84.29,8.786" transform="translate(28.291 -1.686)" fill="#f0f6fa"/>
                    <path id="Path_8365" data-name="Path 8365" d="M14.925,15.377c-.035,5.041,37.469,9.3,83.767,9.512s83.859-3.7,83.894-8.745-37.469-9.3-83.768-9.511-83.859,3.7-83.893,8.744" transform="translate(28.978 -1.701)" fill="#f0f6fa"/>
                    <path id="Path_8366" data-name="Path 8366" d="M14.981,15.4c-.035,5.018,37.291,9.256,83.371,9.466s83.464-3.685,83.5-8.7S144.559,6.9,98.48,6.692s-83.464,3.686-83.5,8.7" transform="translate(29.662 -1.717)" fill="#eff5fa"/>
                    <path id="Path_8367" data-name="Path 8367" d="M15.035,15.414C15,20.408,52.15,24.626,98.012,24.836s83.067-3.669,83.1-8.663S144,6.963,98.137,6.752s-83.068,3.668-83.1,8.662" transform="translate(30.349 -1.732)" fill="#eef5fa"/>
                    <path id="Path_8368" data-name="Path 8368" d="M15.09,15.433C15.057,20.4,52.029,24.6,97.672,24.81s82.672-3.651,82.707-8.62S143.441,7.021,97.8,6.812,15.126,10.463,15.09,15.433" transform="translate(31.034 -1.748)" fill="#eef5fa"/>
                    <path id="Path_8369" data-name="Path 8369" d="M15.145,15.452c-.034,4.946,36.762,9.124,82.186,9.332s82.277-3.633,82.311-8.579S142.881,7.08,97.456,6.872,15.18,10.505,15.145,15.452" transform="translate(31.72 -1.763)" fill="#edf4f9"/>
                    <path id="Path_8370" data-name="Path 8370" d="M15.2,15.469c-.034,4.923,36.585,9.081,81.792,9.288s81.881-3.616,81.915-8.538S142.321,7.138,97.114,6.931,15.233,10.547,15.2,15.469" transform="translate(32.407 -1.778)" fill="#edf4f9"/>
                    <path id="Path_8371" data-name="Path 8371" d="M15.254,15.488c-.034,4.9,36.408,9.037,81.4,9.242s81.486-3.6,81.52-8.5S141.761,7.2,96.773,6.99s-81.486,3.6-81.519,8.5" transform="translate(33.093 -1.794)" fill="#ecf3f9"/>
                    <path id="Path_8372" data-name="Path 8372" d="M15.309,15.507c-.034,4.876,36.231,8.993,81,9.2s81.09-3.58,81.124-8.455-36.231-8.993-81-9.2-81.091,3.58-81.124,8.455" transform="translate(33.779 -1.809)" fill="#ebf3f9"/>
                    <path id="Path_8373" data-name="Path 8373" d="M15.363,15.526c-.033,4.85,36.055,8.949,80.607,9.152s80.694-3.563,80.728-8.415S140.642,7.315,96.091,7.111,15.4,10.675,15.363,15.526" transform="translate(34.465 -1.825)" fill="#ebf3f9"/>
                    <path id="Path_8374" data-name="Path 8374" d="M15.418,15.544c-.033,4.827,35.878,8.9,80.211,9.108s80.3-3.546,80.333-8.374-35.878-8.9-80.211-9.108-80.3,3.547-80.333,8.374" transform="translate(35.151 -1.84)" fill="#eaf2f8"/>
                    <path id="Path_8375" data-name="Path 8375" d="M15.473,15.563c-.033,4.8,35.7,8.861,79.815,9.063s79.9-3.528,79.937-8.332-35.7-8.86-79.815-9.063-79.9,3.528-79.937,8.332" transform="translate(35.837 -1.855)" fill="#eaf2f8"/>
                    <path id="Path_8376" data-name="Path 8376" d="M15.528,15.582C15.5,20.362,51.052,24.4,94.949,24.6s79.507-3.511,79.54-8.291-35.525-8.817-79.42-9.018S15.561,10.8,15.528,15.582" transform="translate(36.522 -1.871)" fill="#e9f2f8"/>
                    <path id="Path_8377" data-name="Path 8377" d="M15.582,15.6c-.033,4.755,35.347,8.773,79.025,8.973s79.112-3.493,79.145-8.249S138.4,7.551,94.727,7.35,15.615,10.845,15.582,15.6" transform="translate(37.209 -1.886)" fill="#e8f1f8"/>
                    <path id="Path_8378" data-name="Path 8378" d="M15.637,15.619c-.033,4.732,35.171,8.73,78.63,8.929s78.717-3.476,78.75-8.209S137.845,7.61,94.386,7.411s-78.717,3.476-78.749,8.208" transform="translate(37.896 -1.902)" fill="#e8f1f7"/>
                    <path id="Path_8379" data-name="Path 8379" d="M15.692,15.638c-.032,4.708,34.994,8.686,78.236,8.883s78.321-3.459,78.354-8.167S137.287,7.668,94.047,7.471,15.725,10.93,15.692,15.638" transform="translate(38.58 -1.917)" fill="#e7f0f7"/>
                    <path id="Path_8380" data-name="Path 8380" d="M15.746,15.656c-.032,4.685,34.817,8.642,77.84,8.839s77.926-3.441,77.959-8.126S136.727,7.726,93.7,7.529s-77.925,3.441-77.958,8.126" transform="translate(39.267 -1.932)" fill="#e6f0f7"/>
                    <path id="Path_8381" data-name="Path 8381" d="M15.8,15.675c-.032,4.66,34.641,8.6,77.445,8.794s77.53-3.424,77.562-8.085-34.641-8.6-77.445-8.794S15.834,11.014,15.8,15.675" transform="translate(39.952 -1.948)" fill="#e6eff7"/>
                    <path id="Path_8382" data-name="Path 8382" d="M15.856,15.693c-.032,4.637,34.464,8.554,77.05,8.748s77.134-3.406,77.166-8.043S135.609,7.844,93.022,7.65s-77.134,3.406-77.166,8.043" transform="translate(40.639 -1.963)" fill="#e5eff7"/>
                    <path id="Path_8383" data-name="Path 8383" d="M15.911,15.711c-.031,4.613,34.288,8.51,76.654,8.7s76.739-3.389,76.771-8-34.288-8.51-76.655-8.7-76.738,3.389-76.771,8" transform="translate(41.324 -1.978)" fill="#e4eff6"/>
                    <path id="Path_8384" data-name="Path 8384" d="M15.966,15.731c-.031,4.59,34.111,8.467,76.259,8.659s76.344-3.372,76.376-7.961S134.49,7.963,92.341,7.769,16,11.141,15.966,15.731" transform="translate(42.01 -1.994)" fill="#e4eef6"/>
                    <path id="Path_8385" data-name="Path 8385" d="M16.02,15.749c-.031,4.567,33.934,8.423,75.864,8.614s75.948-3.354,75.98-7.919S133.93,8.022,92,7.83s-75.948,3.353-75.98,7.919" transform="translate(42.697 -2.009)" fill="#e3eef6"/>
                    <path id="Path_8386" data-name="Path 8386" d="M16.075,15.768c-.031,4.541,33.757,8.378,75.469,8.569S167.1,21,167.128,16.459,133.371,8.08,91.659,7.889s-75.553,3.337-75.584,7.879" transform="translate(43.382 -2.025)" fill="#e2edf6"/>
                    <path id="Path_8387" data-name="Path 8387" d="M16.129,15.787C16.1,20.3,49.709,24.122,91.2,24.312s75.156-3.32,75.188-7.837S132.81,8.14,91.317,7.949,16.16,11.268,16.129,15.787" transform="translate(44.069 -2.04)" fill="#e1edf6"/>
                    <path id="Path_8388" data-name="Path 8388" d="M16.184,15.806c-.031,4.494,33.4,8.29,74.679,8.479s74.761-3.3,74.792-7.8S132.251,8.2,90.976,8.01s-74.761,3.3-74.792,7.8" transform="translate(44.756 -2.056)" fill="#e1ecf5"/>
                    <path id="Path_8389" data-name="Path 8389" d="M16.24,15.823c-.03,4.471,33.228,8.247,74.284,8.435s74.366-3.284,74.4-7.755S131.694,8.256,90.637,8.068s-74.365,3.284-74.4,7.755" transform="translate(45.439 -2.071)" fill="#e0ecf5"/>
                    <path id="Path_8390" data-name="Path 8390" d="M16.294,15.842c-.03,4.446,33.05,8.2,73.89,8.39s73.969-3.267,74-7.714-33.05-8.2-73.888-8.39-73.97,3.267-74,7.714" transform="translate(46.126 -2.086)" fill="#dfecf5"/>
                    <path id="Path_8391" data-name="Path 8391" d="M16.349,15.861c-.03,4.423,32.874,8.159,73.494,8.345s73.574-3.249,73.6-7.672S130.574,8.374,89.954,8.189s-73.575,3.249-73.6,7.672" transform="translate(46.812 -2.101)" fill="#dfebf5"/>
                    <path id="Path_8392" data-name="Path 8392" d="M16.4,15.879c-.03,4.4,32.7,8.116,73.1,8.3s73.179-3.232,73.21-7.631-32.7-8.116-73.1-8.3S16.433,11.48,16.4,15.879" transform="translate(47.499 -2.117)" fill="#deebf4"/>
                    <path id="Path_8393" data-name="Path 8393" d="M16.459,15.9c-.029,4.376,32.519,8.071,72.7,8.255s72.783-3.213,72.813-7.589-32.519-8.072-72.7-8.255S16.49,11.523,16.459,15.9" transform="translate(48.183 -2.132)" fill="#ddeaf4"/>
                    <path id="Path_8394" data-name="Path 8394" d="M16.513,15.917c-.029,4.352,32.344,8.028,72.308,8.211s72.388-3.2,72.418-7.548S128.9,8.551,88.931,8.369s-72.388,3.2-72.418,7.548" transform="translate(48.87 -2.148)" fill="#dceaf4"/>
                    <path id="Path_8395" data-name="Path 8395" d="M16.567,15.936c-.029,4.327,32.167,7.983,71.914,8.166s71.992-3.179,72.023-7.507S128.336,8.611,88.589,8.429,16.6,11.608,16.567,15.936" transform="translate(49.557 -2.163)" fill="#dce9f4"/>
                    <path id="Path_8396" data-name="Path 8396" d="M16.623,15.954c-.029,4.3,31.99,7.94,71.519,8.121s71.6-3.161,71.626-7.466-31.99-7.94-71.518-8.121-71.6,3.162-71.627,7.466" transform="translate(50.241 -2.179)" fill="#dbe9f3"/>
                    <path id="Path_8397" data-name="Path 8397" d="M16.677,15.973c-.029,4.28,31.813,7.9,71.123,8.076S159,20.9,159.031,16.624s-31.813-7.9-71.123-8.076-71.2,3.144-71.231,7.425" transform="translate(50.928 -2.194)" fill="#dae8f3"/>
                    <path id="Path_8398" data-name="Path 8398" d="M16.732,15.991c-.029,4.257,31.636,7.852,70.727,8.032s70.806-3.127,70.835-7.384S126.659,8.787,87.567,8.608s-70.806,3.127-70.835,7.384" transform="translate(51.615 -2.209)" fill="#d9e8f3"/>
                    <path id="Path_8399" data-name="Path 8399" d="M16.787,16.01C16.758,20.242,48.246,23.818,87.12,24s70.409-3.109,70.438-7.342S126.1,8.845,87.226,8.668,16.815,11.777,16.787,16.01" transform="translate(52.3 -2.225)" fill="#d8e7f3"/>
                    <path id="Path_8400" data-name="Path 8400" d="M16.841,16.028c-.028,4.209,31.283,7.764,69.938,7.942s70.014-3.093,70.043-7.3S125.54,8.9,86.884,8.728s-70.014,3.091-70.043,7.3" transform="translate(52.986 -2.24)" fill="#d8e7f2"/>
                    <path id="Path_8401" data-name="Path 8401" d="M16.9,16.047c-.028,4.185,31.106,7.72,69.542,7.9s69.619-3.074,69.649-7.26-31.107-7.72-69.542-7.9S16.925,11.862,16.9,16.047" transform="translate(53.672 -2.255)" fill="#d7e6f2"/>
                    <path id="Path_8402" data-name="Path 8402" d="M16.951,16.066c-.028,4.162,30.93,7.677,69.147,7.851S155.322,20.86,155.35,16.7,124.421,9.022,86.2,8.848,16.979,11.9,16.951,16.066" transform="translate(54.358 -2.271)" fill="#d6e6f2"/>
                    <path id="Path_8403" data-name="Path 8403" d="M17.006,16.085c-.028,4.137,30.752,7.633,68.752,7.807s68.829-3.039,68.857-7.177S123.862,9.081,85.862,8.908s-68.828,3.039-68.856,7.177" transform="translate(55.043 -2.286)" fill="#d5e5f2"/>
                    <path id="Path_8404" data-name="Path 8404" d="M17.06,16.1c-.028,4.114,30.575,7.589,68.357,7.761s68.432-3.022,68.461-7.135S123.3,9.14,85.52,8.967,17.088,11.989,17.06,16.1" transform="translate(55.73 -2.302)" fill="#d4e5f1"/>
                    <path id="Path_8405" data-name="Path 8405" d="M17.115,16.121c-.027,4.09,30.4,7.545,67.963,7.717s68.036-3,68.064-7.095S122.743,9.2,85.18,9.027s-68.037,3-68.065,7.095" transform="translate(56.416 -2.317)" fill="#d4e4f1"/>
                    <path id="Path_8406" data-name="Path 8406" d="M17.17,16.141c-.027,4.066,30.222,7.5,67.567,7.672s67.641-2.987,67.669-7.053-30.222-7.5-67.568-7.672S17.2,12.074,17.17,16.141" transform="translate(57.101 -2.333)" fill="#d3e4f1"/>
                    <path id="Path_8407" data-name="Path 8407" d="M17.224,16.159C17.2,20.2,47.27,23.616,84.4,23.786s67.245-2.97,67.274-7.012S121.623,9.317,84.5,9.147s-67.246,2.97-67.274,7.012" transform="translate(57.788 -2.348)" fill="#d2e3f0"/>
                    <path id="Path_8408" data-name="Path 8408" d="M17.279,16.177c-.027,4.018,29.869,7.414,66.776,7.582s66.85-2.952,66.879-6.971-29.87-7.413-66.777-7.582-66.85,2.952-66.878,6.971" transform="translate(58.474 -2.363)" fill="#d1e3f0"/>
                    <path id="Path_8409" data-name="Path 8409" d="M17.334,16.2c-.027,4,29.692,7.37,66.381,7.538S150.17,20.8,150.2,16.8s-29.692-7.37-66.381-7.537S17.361,12.2,17.334,16.2" transform="translate(59.16 -2.379)" fill="#d0e2f0"/>
                    <path id="Path_8410" data-name="Path 8410" d="M17.389,16.215c-.027,3.971,29.516,7.325,65.987,7.492s66.059-2.917,66.085-6.889S119.946,9.493,83.476,9.326s-66.06,2.918-66.087,6.889" transform="translate(59.845 -2.394)" fill="#cfe2f0"/>
                    <path id="Path_8411" data-name="Path 8411" d="M17.444,16.233c-.027,3.948,29.339,7.282,65.591,7.448s65.663-2.9,65.69-6.847S119.387,9.552,83.134,9.386s-65.663,2.9-65.69,6.847" transform="translate(60.531 -2.409)" fill="#cee1ef"/>
                    <path id="Path_8412" data-name="Path 8412" d="M17.5,16.252c-.027,3.923,29.162,7.237,65.2,7.4s65.268-2.882,65.3-6.806-29.162-7.238-65.2-7.4-65.268,2.883-65.3,6.806" transform="translate(61.218 -2.425)" fill="#cee1ef"/>
                    <path id="Path_8413" data-name="Path 8413" d="M17.553,16.271c-.027,3.9,28.985,7.194,64.8,7.358s64.871-2.864,64.9-6.764-28.985-7.194-64.8-7.359-64.872,2.865-64.9,6.765" transform="translate(61.903 -2.44)" fill="#cde0ef"/>
                    <path id="Path_8414" data-name="Path 8414" d="M17.608,16.29c-.027,3.876,28.808,7.15,64.406,7.313s64.476-2.848,64.5-6.724-28.809-7.15-64.406-7.313-64.476,2.848-64.5,6.724" transform="translate(62.589 -2.456)" fill="#cce0ef"/>
                    <path id="Path_8415" data-name="Path 8415" d="M17.662,16.308c-.026,3.852,28.632,7.107,64.011,7.268s64.081-2.829,64.108-6.682S117.149,9.788,81.77,9.626s-64.081,2.83-64.108,6.682" transform="translate(63.276 -2.471)" fill="#cbdfee"/>
                    <path id="Path_8416" data-name="Path 8416" d="M17.717,16.327c-.026,3.829,28.456,7.063,63.616,7.224s63.685-2.812,63.712-6.641S116.59,9.846,81.429,9.686,17.744,12.5,17.717,16.327" transform="translate(63.961 -2.486)" fill="#cadfee"/>
                    <path id="Path_8417" data-name="Path 8417" d="M17.771,16.346c-.026,3.8,28.278,7.018,63.22,7.179s63.291-2.8,63.317-6.6S116.029,9.906,81.087,9.746s-63.29,2.795-63.316,6.6" transform="translate(64.648 -2.502)" fill="#c9deee"/>
                    <path id="Path_8418" data-name="Path 8418" d="M17.827,16.363c-.026,3.781,28.1,6.975,62.825,7.134s62.894-2.778,62.921-6.559S115.471,9.964,80.748,9.8s-62.895,2.777-62.921,6.558" transform="translate(65.333 -2.517)" fill="#c8deed"/>
                    <path id="Path_8419" data-name="Path 8419" d="M17.882,16.382c-.026,3.757,27.925,6.93,62.43,7.089s62.5-2.76,62.524-6.517-27.924-6.932-62.429-7.09-62.5,2.76-62.525,6.517" transform="translate(66.019 -2.532)" fill="#c7dded"/>
                    <path id="Path_8420" data-name="Path 8420" d="M17.936,16.4c-.026,3.734,27.748,6.887,62.035,7.044s62.1-2.742,62.129-6.476-27.748-6.887-62.035-7.044-62.1,2.743-62.129,6.476" transform="translate(66.706 -2.548)" fill="#c6dced"/>
                    <path id="Path_8421" data-name="Path 8421" d="M17.991,16.42c-.025,3.709,27.572,6.843,61.64,7s61.708-2.725,61.734-6.434-27.571-6.844-61.64-7S18.017,12.71,17.991,16.42" transform="translate(67.39 -2.563)" fill="#c6dced"/>
                    <path id="Path_8422" data-name="Path 8422" d="M18.045,16.438c-.025,3.686,27.394,6.8,61.246,6.954S140.6,20.685,140.628,17s-27.395-6.8-61.246-6.955-61.312,2.708-61.337,6.394" transform="translate(68.078 -2.578)" fill="#c5dbec"/>
                    <path id="Path_8423" data-name="Path 8423" d="M18.1,16.457c-.025,3.662,27.218,6.755,60.85,6.909s60.916-2.689,60.941-6.352-27.217-6.756-60.849-6.91S18.126,12.8,18.1,16.457" transform="translate(68.762 -2.594)" fill="#c4dbec"/>
                    <path id="Path_8424" data-name="Path 8424" d="M18.155,16.476C18.13,20.114,45.2,23.187,78.609,23.34s60.521-2.672,60.547-6.311S112.114,10.318,78.7,10.165,18.18,12.837,18.155,16.476" transform="translate(69.449 -2.609)" fill="#c3daec"/>
                    <path id="Path_8425" data-name="Path 8425" d="M18.209,16.495c-.025,3.614,26.863,6.667,60.059,6.82s60.125-2.655,60.151-6.271-26.864-6.667-60.06-6.82-60.125,2.656-60.15,6.271" transform="translate(70.137 -2.625)" fill="#c2daeb"/>
                    <path id="Path_8426" data-name="Path 8426" d="M18.265,16.513c-.024,3.591,26.688,6.624,59.664,6.774s59.73-2.637,59.755-6.228S111,10.436,78.02,10.285s-59.73,2.637-59.755,6.228" transform="translate(70.82 -2.64)" fill="#c1d9eb"/>
                    <path id="Path_8427" data-name="Path 8427" d="M18.319,16.532c-.024,3.568,26.512,6.58,59.269,6.731s59.334-2.621,59.359-6.188-26.511-6.58-59.269-6.729-59.334,2.62-59.359,6.187" transform="translate(71.507 -2.656)" fill="#c0d8eb"/>
                    <path id="Path_8428" data-name="Path 8428" d="M18.374,16.549c-.024,3.543,26.334,6.536,58.874,6.685s58.939-2.6,58.963-6.146S109.877,10.552,77.338,10.4s-58.939,2.6-58.964,6.146" transform="translate(72.192 -2.671)" fill="#bfd8ea"/>
                    <path id="Path_8429" data-name="Path 8429" d="M18.429,16.568c-.024,3.519,26.157,6.492,58.479,6.641s58.544-2.585,58.567-6.1S109.318,10.611,77,10.464s-58.544,2.585-58.567,6.1" transform="translate(72.879 -2.686)" fill="#bed7ea"/>
                    <path id="Path_8430" data-name="Path 8430" d="M18.483,16.587c-.024,3.5,25.98,6.448,58.084,6.6s58.147-2.568,58.172-6.063-25.981-6.449-58.084-6.6-58.148,2.568-58.172,6.063" transform="translate(73.566 -2.702)" fill="#bdd7ea"/>
                    <path id="Path_8431" data-name="Path 8431" d="M18.538,16.605c-.025,3.472,25.8,6.4,57.688,6.551s57.752-2.55,57.777-6.022-25.8-6.4-57.689-6.551-57.752,2.55-57.776,6.022" transform="translate(74.251 -2.717)" fill="#bcd6e9"/>
                    <path id="Path_8432" data-name="Path 8432" d="M18.593,16.625c-.024,3.448,25.627,6.36,57.294,6.505s57.356-2.533,57.38-5.981-25.627-6.361-57.293-6.506-57.357,2.533-57.381,5.981" transform="translate(74.937 -2.732)" fill="#bbd5e9"/>
                    <path id="Path_8433" data-name="Path 8433" d="M18.648,16.643c-.024,3.424,25.451,6.317,56.9,6.461s56.96-2.515,56.984-5.94-25.451-6.317-56.9-6.46-56.96,2.516-56.984,5.939" transform="translate(75.622 -2.748)" fill="#bad5e9"/>
                    <path id="Path_8434" data-name="Path 8434" d="M18.7,16.662c-.024,3.4,25.274,6.272,56.5,6.415s56.565-2.5,56.589-5.9-25.274-6.273-56.5-6.415-56.566,2.5-56.589,5.9" transform="translate(76.309 -2.763)" fill="#b9d4e9"/>
                    <path id="Path_8435" data-name="Path 8435" d="M18.757,16.681c-.024,3.377,25.1,6.229,56.107,6.371s56.171-2.481,56.193-5.857-25.1-6.228-56.108-6.371S18.78,13.3,18.757,16.681" transform="translate(76.995 -2.779)" fill="#b8d4e8"/>
                    <path id="Path_8436" data-name="Path 8436" d="M18.812,16.7c-.023,3.353,24.919,6.185,55.713,6.326s55.774-2.463,55.8-5.816-24.92-6.186-55.713-6.326-55.774,2.462-55.8,5.816" transform="translate(77.681 -2.794)" fill="#b7d3e8"/>
                    <path id="Path_8437" data-name="Path 8437" d="M18.866,16.717C18.844,20.046,43.61,22.859,74.184,23s55.378-2.446,55.4-5.774-24.744-6.141-55.318-6.282-55.379,2.446-55.4,5.775" transform="translate(78.367 -2.809)" fill="#b6d2e8"/>
                    <path id="Path_8438" data-name="Path 8438" d="M18.921,16.735c-.022,3.305,24.566,6.1,54.923,6.237s54.983-2.429,55.007-5.733S104.283,11.142,73.927,11s-54.983,2.429-55.006,5.733" transform="translate(79.052 -2.825)" fill="#b5d2e7"/>
                    <path id="Path_8439" data-name="Path 8439" d="M18.976,16.755c-.022,3.282,24.39,6.054,54.528,6.192s54.587-2.411,54.61-5.692-24.39-6.054-54.527-6.192S19,13.473,18.976,16.755" transform="translate(79.739 -2.84)" fill="#b4d1e7"/>
                    <path id="Path_8440" data-name="Path 8440" d="M19.031,16.773c-.022,3.259,24.214,6.01,54.132,6.146s54.192-2.392,54.214-5.65-24.213-6.01-54.132-6.147-54.192,2.393-54.214,5.651" transform="translate(80.425 -2.856)" fill="#b3d1e7"/>
                    <path id="Path_8441" data-name="Path 8441" d="M19.086,16.792c-.022,3.234,24.036,5.966,53.737,6.1s53.8-2.376,53.819-5.61-24.036-5.966-53.737-6.1-53.8,2.376-53.819,5.61" transform="translate(81.11 -2.871)" fill="#b2d0e6"/>
                    <path id="Path_8442" data-name="Path 8442" d="M19.14,16.81c-.022,3.21,23.86,5.923,53.343,6.057s53.4-2.357,53.423-5.568-23.86-5.922-53.342-6.057S19.162,13.6,19.14,16.81" transform="translate(81.797 -2.886)" fill="#b1cfe6"/>
                    <path id="Path_8443" data-name="Path 8443" d="M19.2,16.83c-.022,3.187,23.683,5.878,52.947,6.012s53-2.341,53.028-5.527S101.486,11.436,72.223,11.3,19.217,13.643,19.2,16.83" transform="translate(82.482 -2.902)" fill="#b0cfe6"/>
                    <path id="Path_8444" data-name="Path 8444" d="M19.25,16.848c-.022,3.163,23.506,5.835,52.551,5.967s52.61-2.324,52.632-5.487S100.928,11.5,71.881,11.362,19.272,13.685,19.25,16.848" transform="translate(83.168 -2.917)" fill="#afcee5"/>
                    <path id="Path_8445" data-name="Path 8445" d="M19.3,16.867c-.022,3.139,23.329,5.791,52.157,5.922s52.213-2.306,52.235-5.444-23.329-5.791-52.156-5.923S19.325,13.727,19.3,16.867" transform="translate(83.855 -2.933)" fill="#aecde5"/>
                    <path id="Path_8446" data-name="Path 8446" d="M19.359,16.886C19.337,20,42.512,22.632,71.121,22.763s51.818-2.288,51.84-5.4S99.807,11.613,71.2,11.482s-51.818,2.289-51.839,5.4" transform="translate(84.541 -2.948)" fill="#adcde5"/>
                    <path id="Path_8447" data-name="Path 8447" d="M19.414,16.9c-.022,3.091,22.976,5.7,51.367,5.833s51.423-2.272,51.444-5.362-22.976-5.7-51.367-5.833S19.434,13.812,19.414,16.9" transform="translate(85.227 -2.963)" fill="#accce4"/>
                    <path id="Path_8448" data-name="Path 8448" d="M19.469,16.922c-.021,3.068,22.8,5.659,50.972,5.788s51.028-2.253,51.049-5.321S98.69,11.731,70.518,11.6,19.49,13.854,19.469,16.922" transform="translate(85.911 -2.979)" fill="#abcce4"/>
                    <path id="Path_8449" data-name="Path 8449" d="M19.524,16.941C19.5,19.985,42.146,22.556,70.1,22.684s50.632-2.236,50.653-5.28-22.622-5.615-50.576-5.743S19.545,13.9,19.524,16.941" transform="translate(86.598 -2.994)" fill="#aacbe4"/>
                    <path id="Path_8450" data-name="Path 8450" d="M19.578,16.96c-.021,3.019,22.445,5.571,50.182,5.7S120,20.44,120.016,17.419s-22.445-5.571-50.18-5.7S19.6,13.94,19.578,16.96" transform="translate(87.285 -3.01)" fill="#a9cae3"/>
                    <path id="Path_8451" data-name="Path 8451" d="M19.633,16.978c-.021,3,22.269,5.527,49.786,5.653s49.84-2.2,49.861-5.2-22.269-5.527-49.786-5.653-49.841,2.2-49.861,5.2" transform="translate(87.97 -3.025)" fill="#a8cae3"/>
                    <path id="Path_8452" data-name="Path 8452" d="M19.687,17c-.021,2.973,22.092,5.484,49.39,5.608s49.445-2.184,49.466-5.157-22.093-5.484-49.391-5.608S19.707,14.025,19.687,17" transform="translate(88.657 -3.04)" fill="#a7c9e3"/>
                    <path id="Path_8453" data-name="Path 8453" d="M19.743,17.016c-.02,2.949,21.916,5.44,49,5.563s49.049-2.165,49.07-5.114-21.916-5.44-49-5.563-49.05,2.165-49.071,5.114" transform="translate(89.341 -3.056)" fill="#a6c8e2"/>
                    <path id="Path_8454" data-name="Path 8454" d="M19.8,17.035c-.02,2.925,21.74,5.4,48.6,5.519s48.655-2.149,48.675-5.073-21.739-5.4-48.6-5.519S19.817,14.109,19.8,17.035" transform="translate(90.028 -3.071)" fill="#a4c8e2"/>
                    <path id="Path_8455" data-name="Path 8455" d="M19.852,17.053c-.019,2.9,21.563,5.352,48.206,5.474S116.316,20.4,116.337,17.5,94.775,12.143,68.13,12.021s-48.257,2.131-48.278,5.032" transform="translate(90.713 -3.087)" fill="#a3c7e2"/>
                    <path id="Path_8456" data-name="Path 8456" d="M19.907,17.071c-.02,2.877,21.385,5.308,47.811,5.429s47.862-2.113,47.882-4.991S94.215,12.2,67.79,12.079s-47.864,2.114-47.883,4.992" transform="translate(91.4 -3.102)" fill="#a2c6e1"/>
                    <path id="Path_8457" data-name="Path 8457" d="M19.961,17.09c-.02,2.854,21.207,5.264,47.415,5.384s47.467-2.1,47.487-4.949S93.655,12.26,67.447,12.14s-47.467,2.1-47.486,4.949" transform="translate(92.087 -3.117)" fill="#a1c6e1"/>
                    <path id="Path_8458" data-name="Path 8458" d="M20.016,17.109c-.019,2.83,21.032,5.22,47.02,5.339s47.072-2.079,47.092-4.909S93.1,12.319,67.107,12.2s-47.072,2.078-47.091,4.908" transform="translate(92.771 -3.133)" fill="#a0c5e0"/>
                    <path id="Path_8459" data-name="Path 8459" d="M20.07,17.127C20.051,19.933,40.926,22.3,66.7,22.421s46.675-2.061,46.7-4.868-20.856-5.176-46.626-5.294-46.676,2.062-46.7,4.868" transform="translate(93.459 -3.148)" fill="#9fc4e0"/>
                    <path id="Path_8460" data-name="Path 8460" d="M20.126,17.146c-.018,2.782,20.678,5.133,46.23,5.25s46.281-2.044,46.3-4.826S91.977,12.437,66.427,12.32s-46.281,2.044-46.3,4.825" transform="translate(94.143 -3.164)" fill="#9ec4e0"/>
                    <path id="Path_8461" data-name="Path 8461" d="M20.18,17.165c-.019,2.759,20.5,5.089,45.834,5.2s45.886-2.027,45.9-4.785-20.5-5.088-45.834-5.2S20.2,14.406,20.18,17.165" transform="translate(94.83 -3.179)" fill="#9dc3df"/>
                    <path id="Path_8462" data-name="Path 8462" d="M20.235,17.183c-.019,2.735,20.325,5.045,45.439,5.16s45.49-2.009,45.508-4.743-20.324-5.045-45.439-5.16-45.489,2.009-45.508,4.743" transform="translate(95.516 -3.194)" fill="#9cc2df"/>
                    <path id="Path_8463" data-name="Path 8463" d="M20.29,17.2c-.019,2.71,20.148,5,45.045,5.115s45.094-1.992,45.113-4.7S90.3,12.613,65.4,12.5,20.309,14.491,20.29,17.2" transform="translate(96.201 -3.21)" fill="#9ac2df"/>
                    <path id="Path_8464" data-name="Path 8464" d="M20.344,17.221c-.019,2.687,19.971,4.957,44.65,5.07s44.7-1.974,44.717-4.66-19.971-4.957-44.65-5.07-44.7,1.974-44.717,4.66" transform="translate(96.888 -3.225)" fill="#99c1de"/>
                    <path id="Path_8465" data-name="Path 8465" d="M20.4,17.24c-.018,2.663,19.8,4.913,44.256,5.025s44.3-1.957,44.32-4.62S89.181,12.732,64.722,12.62,20.42,14.576,20.4,17.24" transform="translate(97.572 -3.24)" fill="#98c0de"/>
                    <path id="Path_8466" data-name="Path 8466" d="M20.454,17.257c-.019,2.64,19.618,4.87,43.859,4.98s43.907-1.939,43.926-4.578-19.619-4.87-43.86-4.98-43.907,1.939-43.925,4.578" transform="translate(98.26 -3.256)" fill="#97bfde"/>
                    <path id="Path_8467" data-name="Path 8467" d="M20.508,17.276c-.019,2.616,19.441,4.825,43.464,4.935s43.512-1.921,43.53-4.538S88.06,12.849,64.038,12.74s-43.512,1.92-43.53,4.537" transform="translate(98.947 -3.271)" fill="#96bfdd"/>
                    <path id="Path_8468" data-name="Path 8468" d="M20.563,17.295c-.019,2.592,19.264,4.782,43.068,4.891s43.117-1.9,43.135-4.5S87.5,12.908,63.7,12.8s-43.115,1.9-43.133,4.5" transform="translate(99.632 -3.286)" fill="#95bedd"/>
                    <path id="Path_8469" data-name="Path 8469" d="M20.618,17.314c-.018,2.568,19.088,4.737,42.674,4.846s42.721-1.888,42.738-4.456-19.088-4.737-42.673-4.845-42.721,1.887-42.739,4.455" transform="translate(100.317 -3.302)" fill="#94bddc"/>
                    <path id="Path_8470" data-name="Path 8470" d="M20.674,17.332c-.017,2.544,18.911,4.694,42.28,4.8s42.323-1.869,42.341-4.413-18.91-4.694-42.277-4.8-42.324,1.868-42.343,4.413" transform="translate(101.002 -3.317)" fill="#92bddc"/>
                    <path id="Path_8471" data-name="Path 8471" d="M20.728,17.351C20.71,19.872,39.462,22,62.611,22.107s41.929-1.852,41.947-4.372-18.735-4.65-41.884-4.756S20.746,14.83,20.728,17.351" transform="translate(101.689 -3.333)" fill="#91bcdc"/>
                    <path id="Path_8472" data-name="Path 8472" d="M20.782,17.37c-.018,2.5,18.558,4.606,41.488,4.711s41.534-1.834,41.552-4.33-18.558-4.607-41.488-4.711S20.8,14.873,20.782,17.37" transform="translate(102.376 -3.348)" fill="#90bbdb"/>
                    <path id="Path_8473" data-name="Path 8473" d="M20.837,17.388c-.018,2.473,18.381,4.563,41.094,4.666s41.138-1.816,41.155-4.289S84.7,13.2,61.992,13.1s-41.138,1.817-41.155,4.289" transform="translate(103.062 -3.364)" fill="#8fbadb"/>
                    <path id="Path_8474" data-name="Path 8474" d="M20.892,17.407c-.017,2.449,18.2,4.518,40.7,4.622s40.743-1.8,40.759-4.249-18.2-4.518-40.7-4.621-40.743,1.8-40.76,4.249" transform="translate(103.747 -3.379)" fill="#8ebadb"/>
                    <path id="Path_8475" data-name="Path 8475" d="M20.947,17.426C20.93,19.852,38.975,21.9,61.25,22s40.348-1.781,40.364-4.207-18.027-4.474-40.3-4.576S20.965,15,20.947,17.426" transform="translate(104.432 -3.394)" fill="#8db9da"/>
                    <path id="Path_8476" data-name="Path 8476" d="M21,17.444c-.017,2.4,17.85,4.431,39.908,4.532s39.951-1.764,39.969-4.167S83.026,13.378,60.97,13.278,21.018,15.042,21,17.444" transform="translate(105.12 -3.41)" fill="#8bb8da"/>
                    <path id="Path_8477" data-name="Path 8477" d="M21.056,17.462c-.017,2.378,17.674,4.387,39.512,4.487s39.556-1.746,39.573-4.125-17.674-4.387-39.513-4.486-39.555,1.747-39.572,4.124" transform="translate(105.806 -3.425)" fill="#8ab8d9"/>
                    <path id="Path_8478" data-name="Path 8478" d="M21.111,17.481c-.017,2.354,17.5,4.343,39.117,4.442s39.16-1.73,39.177-4.084S81.908,13.5,60.288,13.4s-39.16,1.729-39.177,4.084" transform="translate(106.491 -3.44)" fill="#89b7d9"/>
                    <path id="Path_8479" data-name="Path 8479" d="M21.165,17.5c-.016,2.33,17.321,4.3,38.723,4.4s38.765-1.712,38.781-4.042-17.321-4.3-38.723-4.4S21.182,15.169,21.165,17.5" transform="translate(107.177 -3.456)" fill="#88b6d9"/>
                    <path id="Path_8480" data-name="Path 8480" d="M21.221,17.518c-.016,2.307,17.145,4.255,38.328,4.352s38.37-1.694,38.385-4-17.143-4.255-38.327-4.353-38.369,1.7-38.386,4" transform="translate(107.862 -3.471)" fill="#87b5d8"/>
                    <path id="Path_8481" data-name="Path 8481" d="M21.275,17.537c-.016,2.283,16.967,4.211,37.932,4.307s37.975-1.677,37.99-3.959S80.23,13.674,59.264,13.578s-37.973,1.677-37.989,3.959" transform="translate(108.549 -3.487)" fill="#85b5d8"/>
                    <path id="Path_8482" data-name="Path 8482" d="M21.329,17.556c-.016,2.258,16.79,4.167,37.537,4.262S96.444,20.159,96.46,17.9s-16.79-4.168-37.538-4.262S21.345,15.3,21.329,17.556" transform="translate(109.236 -3.502)" fill="#84b4d8"/>
                    <path id="Path_8483" data-name="Path 8483" d="M21.385,17.574C21.369,19.81,38,21.7,58.527,21.792s37.182-1.642,37.2-3.877S79.111,13.791,58.584,13.7s-37.183,1.642-37.2,3.878" transform="translate(109.921 -3.517)" fill="#83b3d7"/>
                    <path id="Path_8484" data-name="Path 8484" d="M21.439,17.594c-.016,2.212,16.436,4.079,36.746,4.172s36.787-1.624,36.8-3.836-16.437-4.079-36.747-4.172-36.786,1.624-36.8,3.836" transform="translate(110.608 -3.533)" fill="#82b2d7"/>
                    <path id="Path_8485" data-name="Path 8485" d="M21.493,17.611c-.016,2.187,16.261,4.036,36.352,4.128s36.392-1.607,36.408-3.8S77.992,13.909,57.9,13.817,21.51,15.423,21.493,17.611" transform="translate(111.293 -3.548)" fill="#81b2d6"/>
                    <path id="Path_8486" data-name="Path 8486" d="M21.549,17.629c-.016,2.164,16.084,3.992,35.956,4.083s36-1.59,36.011-3.754S77.434,13.967,57.56,13.876s-36,1.59-36.011,3.754" transform="translate(111.978 -3.563)" fill="#7fb1d6"/>
                    <path id="Path_8487" data-name="Path 8487" d="M21.6,17.649c-.016,2.14,15.906,3.948,35.562,4.038s35.6-1.572,35.615-3.713-15.907-3.948-35.561-4.037-35.6,1.572-35.615,3.712" transform="translate(112.666 -3.579)" fill="#7eb0d6"/>
                    <path id="Path_8488" data-name="Path 8488" d="M21.658,17.667c-.016,2.117,15.729,3.9,35.166,3.994s35.2-1.555,35.22-3.671S76.314,14.085,56.877,14s-35.2,1.554-35.219,3.67" transform="translate(113.351 -3.594)" fill="#7dafd5"/>
                    <path id="Path_8489" data-name="Path 8489" d="M21.712,17.686c-.016,2.092,15.553,3.86,34.771,3.948S91.292,20.1,91.307,18s-15.554-3.861-34.772-3.949-34.809,1.538-34.824,3.63" transform="translate(114.038 -3.61)" fill="#7cafd5"/>
                    <path id="Path_8490" data-name="Path 8490" d="M21.768,17.7c-.015,2.069,15.377,3.817,34.377,3.9s34.413-1.52,34.428-3.589S75.2,14.2,56.2,14.116,21.784,15.636,21.768,17.7" transform="translate(114.722 -3.625)" fill="#7aaed4"/>
                    <path id="Path_8491" data-name="Path 8491" d="M21.823,17.724c-.015,2.045,15.2,3.772,33.981,3.858s34.018-1.5,34.032-3.547-15.2-3.772-33.98-3.858-34.018,1.5-34.033,3.547" transform="translate(115.408 -3.641)" fill="#79add4"/>
                    <path id="Path_8492" data-name="Path 8492" d="M21.877,17.742c-.015,2.021,15.023,3.729,33.586,3.814S89.086,20.071,89.1,18.05s-15.023-3.729-33.586-3.814-33.622,1.485-33.636,3.506" transform="translate(116.095 -3.656)" fill="#78acd4"/>
                    <path id="Path_8493" data-name="Path 8493" d="M21.932,17.761c-.015,2,14.846,3.684,33.191,3.768s33.227-1.467,33.241-3.465S73.518,14.38,55.173,14.3s-33.227,1.468-33.241,3.465" transform="translate(116.781 -3.671)" fill="#77acd3"/>
                    <path id="Path_8494" data-name="Path 8494" d="M21.986,17.78c-.015,1.974,14.669,3.641,32.8,3.724s32.831-1.449,32.846-3.424-14.67-3.641-32.8-3.723S22,15.806,21.986,17.78" transform="translate(117.468 -3.687)" fill="#75abd3"/>
                    <path id="Path_8495" data-name="Path 8495" d="M22.042,17.8c-.014,1.95,14.492,3.6,32.4,3.679s32.436-1.433,32.449-3.383-14.492-3.6-32.4-3.679S22.058,15.848,22.042,17.8" transform="translate(118.151 -3.702)" fill="#74aad2"/>
                    <path id="Path_8496" data-name="Path 8496" d="M22.1,17.816c-.014,1.926,14.316,3.553,32.005,3.635s32.04-1.416,32.054-3.341S71.84,14.556,54.15,14.475,22.11,15.89,22.1,17.816" transform="translate(118.838 -3.717)" fill="#73a9d2"/>
                    <path id="Path_8497" data-name="Path 8497" d="M22.15,17.834c-.014,1.9,14.14,3.51,31.611,3.589s31.644-1.4,31.658-3.3-14.14-3.509-31.611-3.589-31.644,1.4-31.658,3.3" transform="translate(119.526 -3.733)" fill="#72a8d2"/>
                    <path id="Path_8498" data-name="Path 8498" d="M22.206,17.854c-.014,1.878,13.962,3.465,31.215,3.545s31.25-1.381,31.262-3.259-13.962-3.466-31.215-3.545-31.25,1.38-31.262,3.259" transform="translate(120.21 -3.748)" fill="#70a8d1"/>
                    <path id="Path_8499" data-name="Path 8499" d="M22.26,17.872c-.014,1.855,13.786,3.421,30.82,3.5s30.854-1.362,30.867-3.217-13.786-3.422-30.82-3.5S22.273,16.017,22.26,17.872" transform="translate(120.897 -3.764)" fill="#6fa7d1"/>
                    <path id="Path_8500" data-name="Path 8500" d="M22.316,17.891c-.014,1.831,13.609,3.378,30.425,3.454S83.2,20,83.211,18.17,69.6,14.792,52.787,14.715,22.329,16.06,22.316,17.891" transform="translate(121.582 -3.779)" fill="#6ea6d0"/>
                    <path id="Path_8501" data-name="Path 8501" d="M22.37,17.91c-.013,1.808,13.432,3.334,30.03,3.41s30.062-1.328,30.075-3.135-13.432-3.334-30.029-3.41S22.383,16.1,22.37,17.91" transform="translate(122.268 -3.794)" fill="#6ca5d0"/>
                    <path id="Path_8502" data-name="Path 8502" d="M22.424,17.929c-.013,1.783,13.255,3.29,29.635,3.364S81.726,19.983,81.738,18.2,68.483,14.91,52.1,14.835s-29.667,1.31-29.68,3.094" transform="translate(122.955 -3.81)" fill="#6ba5cf"/>
                    <path id="Path_8503" data-name="Path 8503" d="M22.479,17.947c-.013,1.76,13.079,3.246,29.239,3.32S80.99,19.975,81,18.215s-13.079-3.246-29.24-3.32-29.27,1.292-29.283,3.052" transform="translate(123.64 -3.825)" fill="#6aa4cf"/>
                    <path id="Path_8504" data-name="Path 8504" d="M22.534,17.965c-.013,1.736,12.9,3.2,28.843,3.275s28.876-1.275,28.888-3.011-12.9-3.2-28.844-3.276-28.876,1.276-28.887,3.012" transform="translate(124.327 -3.84)" fill="#68a3cf"/>
                    <path id="Path_8505" data-name="Path 8505" d="M22.589,17.984c-.013,1.712,12.725,3.158,28.449,3.23s28.481-1.258,28.493-2.97S66.8,15.086,51.081,15.014s-28.48,1.257-28.492,2.97" transform="translate(125.012 -3.856)" fill="#67a2ce"/>
                    <path id="Path_8506" data-name="Path 8506" d="M22.643,18c-.012,1.688,12.549,3.114,28.055,3.186s28.085-1.24,28.1-2.929S66.245,15.145,50.74,15.074,22.655,16.314,22.643,18" transform="translate(125.698 -3.871)" fill="#66a1ce"/>
                    <path id="Path_8507" data-name="Path 8507" d="M22.7,18.021c-.012,1.665,12.372,3.071,27.659,3.141s27.69-1.223,27.7-2.888S65.686,15.2,50.4,15.133,22.71,16.356,22.7,18.021" transform="translate(126.385 -3.886)" fill="#65a1cd"/>
                    <path id="Path_8508" data-name="Path 8508" d="M22.753,18.04c-.012,1.641,12.2,3.027,27.264,3.1S77.31,19.93,77.322,18.289s-12.2-3.026-27.264-3.1S22.765,16.4,22.753,18.04" transform="translate(127.07 -3.902)" fill="#63a0cd"/>
                    <path id="Path_8509" data-name="Path 8509" d="M22.807,18.059c-.012,1.617,12.017,2.983,26.869,3.051s26.9-1.188,26.909-2.8-12.018-2.983-26.869-3.051-26.9,1.188-26.909,2.8" transform="translate(127.757 -3.918)" fill="#629fcc"/>
                    <path id="Path_8510" data-name="Path 8510" d="M22.862,18.077c-.012,1.594,11.842,2.939,26.473,3.006s26.5-1.17,26.514-2.764-11.842-2.938-26.474-3.006-26.5,1.17-26.513,2.764" transform="translate(128.443 -3.933)" fill="#619ecc"/>
                    <path id="Path_8511" data-name="Path 8511" d="M22.917,18.1c-.011,1.569,11.665,2.9,26.078,2.961S75.1,19.9,75.114,18.335s-11.665-2.9-26.078-2.961S22.929,16.526,22.917,18.1" transform="translate(129.128 -3.948)" fill="#5f9dcc"/>
                    <path id="Path_8512" data-name="Path 8512" d="M22.972,18.115c-.011,1.546,11.488,2.851,25.683,2.917S74.367,19.9,74.377,18.349,62.889,15.5,48.695,15.434s-25.712,1.135-25.723,2.68" transform="translate(129.814 -3.964)" fill="#5e9ccb"/>
                    <path id="Path_8513" data-name="Path 8513" d="M23.027,18.134C23.016,19.655,34.339,20.94,48.315,21s25.316-1.118,25.326-2.639S62.33,15.557,48.354,15.493s-25.316,1.118-25.327,2.64" transform="translate(130.499 -3.979)" fill="#5d9ccb"/>
                    <path id="Path_8514" data-name="Path 8514" d="M23.081,18.151c-.011,1.5,11.134,2.764,24.893,2.827s24.921-1.1,24.931-2.6S61.77,15.615,48.011,15.552s-24.919,1.1-24.93,2.6" transform="translate(131.187 -3.994)" fill="#5b9bca"/>
                    <path id="Path_8515" data-name="Path 8515" d="M23.136,18.17c-.011,1.474,10.957,2.719,24.5,2.782s24.524-1.083,24.535-2.557-10.958-2.72-24.5-2.782S23.146,16.7,23.136,18.17" transform="translate(131.872 -4.01)" fill="#5a9aca"/>
                    <path id="Path_8516" data-name="Path 8516" d="M23.191,18.188c-.01,1.451,10.781,2.676,24.1,2.737s24.128-1.066,24.139-2.516-10.781-2.676-24.1-2.737S23.2,16.738,23.191,18.188" transform="translate(132.557 -4.025)" fill="#5899c9"/>
                    <path id="Path_8517" data-name="Path 8517" d="M23.245,18.208c-.01,1.427,10.6,2.631,23.708,2.692S70.686,19.851,70.7,18.425s-10.6-2.632-23.708-2.692S23.255,16.78,23.245,18.208" transform="translate(133.245 -4.04)" fill="#5798c9"/>
                    <path id="Path_8518" data-name="Path 8518" d="M23.3,18.226c-.01,1.4,10.428,2.588,23.312,2.648s23.339-1.031,23.349-2.435-10.428-2.588-23.313-2.646S23.31,16.823,23.3,18.226" transform="translate(133.93 -4.056)" fill="#5697c9"/>
                    <path id="Path_8519" data-name="Path 8519" d="M23.354,18.244c-.01,1.379,10.251,2.544,22.917,2.6s22.943-1.013,22.953-2.392-10.251-2.544-22.918-2.6-22.942,1.014-22.952,2.392" transform="translate(134.617 -4.071)" fill="#5497c8"/>
                    <path id="Path_8520" data-name="Path 8520" d="M23.41,18.264c-.01,1.355,10.074,2.5,22.522,2.557s22.546-1,22.556-2.351-10.074-2.5-22.522-2.557-22.547,1-22.556,2.351" transform="translate(135.301 -4.087)" fill="#5396c8"/>
                    <path id="Path_8521" data-name="Path 8521" d="M23.465,18.282c-.01,1.332,9.9,2.457,22.126,2.513s22.152-.978,22.16-2.31-9.9-2.456-22.126-2.513-22.151.978-22.16,2.31" transform="translate(135.988 -4.102)" fill="#5295c7"/>
                    <path id="Path_8522" data-name="Path 8522" d="M23.519,18.3c-.009,1.308,9.72,2.412,21.732,2.467s21.755-.961,21.765-2.268-9.72-2.413-21.732-2.468-21.755.961-21.765,2.269" transform="translate(136.674 -4.118)" fill="#5094c7"/>
                    <path id="Path_8523" data-name="Path 8523" d="M23.574,18.318c-.009,1.285,9.545,2.369,21.338,2.423s21.36-.944,21.369-2.228-9.544-2.369-21.337-2.423-21.36.943-21.37,2.227" transform="translate(137.359 -4.133)" fill="#4f93c6"/>
                    <path id="Path_8524" data-name="Path 8524" d="M23.628,18.338c-.009,1.26,9.367,2.325,20.942,2.377s20.965-.925,20.974-2.186S56.176,16.2,44.6,16.151s-20.965.926-20.974,2.186" transform="translate(138.047 -4.148)" fill="#4e92c6"/>
                    <path id="Path_8525" data-name="Path 8525" d="M23.684,18.356c-.009,1.237,9.19,2.281,20.547,2.333s20.569-.909,20.577-2.145-9.19-2.281-20.547-2.333-20.569.908-20.577,2.145" transform="translate(138.731 -4.164)" fill="#4c92c5"/>
                    <path id="Path_8526" data-name="Path 8526" d="M23.738,18.375c-.009,1.213,9.013,2.237,20.151,2.288s20.174-.891,20.182-2.1-9.013-2.238-20.152-2.288-20.173.891-20.181,2.1" transform="translate(139.418 -4.179)" fill="#4b91c5"/>
                    <path id="Path_8527" data-name="Path 8527" d="M23.792,18.394c-.008,1.189,8.837,2.193,19.756,2.244s19.778-.873,19.787-2.063S54.5,16.381,43.578,16.331,23.8,17.2,23.792,18.394" transform="translate(140.105 -4.194)" fill="#4990c5"/>
                    <path id="Path_8528" data-name="Path 8528" d="M23.848,18.412c-.008,1.165,8.66,2.15,19.361,2.2S62.592,19.755,62.6,18.59s-8.66-2.149-19.361-2.2-19.382.856-19.391,2.021" transform="translate(140.789 -4.21)" fill="#488fc4"/>
                    <path id="Path_8529" data-name="Path 8529" d="M23.9,18.431c-.008,1.141,8.484,2.105,18.966,2.154s18.986-.838,18.995-1.98S53.38,16.5,42.9,16.451,23.91,17.29,23.9,18.431" transform="translate(141.476 -4.225)" fill="#478ec4"/>
                    <path id="Path_8530" data-name="Path 8530" d="M23.957,18.45c-.008,1.117,8.307,2.061,18.571,2.108s18.591-.821,18.6-1.938-8.308-2.062-18.571-2.109-18.592.82-18.6,1.939" transform="translate(142.161 -4.241)" fill="#458dc3"/>
                    <path id="Path_8531" data-name="Path 8531" d="M24.012,18.468c-.008,1.094,8.13,2.018,18.176,2.064s18.2-.8,18.2-1.9-8.13-2.018-18.176-2.064-18.2.8-18.2,1.9" transform="translate(142.848 -4.256)" fill="#448cc3"/>
                    <path id="Path_8532" data-name="Path 8532" d="M24.066,18.487c-.007,1.07,7.954,1.974,17.781,2.019s17.8-.786,17.808-1.856S51.7,16.676,41.874,16.631s-17.8.786-17.808,1.856" transform="translate(143.534 -4.272)" fill="#428cc2"/>
                    <path id="Path_8533" data-name="Path 8533" d="M24.121,18.505c-.007,1.046,7.777,1.93,17.386,1.974s17.405-.768,17.412-1.815-7.777-1.93-17.386-1.974-17.405.768-17.412,1.815" transform="translate(144.219 -4.287)" fill="#418bc2"/>
                    <path id="Path_8534" data-name="Path 8534" d="M24.176,18.523c-.007,1.023,7.6,1.886,16.99,1.93s17.009-.751,17.017-1.774-7.6-1.886-16.99-1.93-17.009.751-17.017,1.774" transform="translate(144.906 -4.302)" fill="#3f8ac1"/>
                    <path id="Path_8535" data-name="Path 8535" d="M24.231,18.543c-.007,1,7.423,1.842,16.6,1.884s16.614-.733,16.621-1.732-7.423-1.842-16.6-1.884-16.613.733-16.621,1.732" transform="translate(145.591 -4.318)" fill="#3e89c1"/>
                    <path id="Path_8536" data-name="Path 8536" d="M24.285,18.561c-.006.975,7.247,1.8,16.2,1.84S56.7,19.685,56.71,18.71s-7.247-1.8-16.2-1.839-16.218.716-16.225,1.691" transform="translate(146.278 -4.333)" fill="#3d88c0"/>
                    <path id="Path_8537" data-name="Path 8537" d="M24.34,18.58c-.006.95,7.07,1.755,15.805,1.795s15.823-.7,15.829-1.651S48.9,16.97,40.169,16.929s-15.823.7-15.829,1.651" transform="translate(146.963 -4.348)" fill="#3b87c0"/>
                    <path id="Path_8538" data-name="Path 8538" d="M24.394,18.6c-.006.927,6.892,1.711,15.409,1.749s15.427-.681,15.434-1.608-6.893-1.711-15.41-1.75S24.4,17.671,24.394,18.6" transform="translate(147.651 -4.364)" fill="#3a86c0"/>
                    <path id="Path_8539" data-name="Path 8539" d="M24.449,18.618c-.006.9,6.716,1.666,15.015,1.7S54.5,19.658,54.5,18.755s-6.716-1.668-15.015-1.7-15.031.663-15.037,1.567" transform="translate(148.336 -4.379)" fill="#3885bf"/>
                    <path id="Path_8540" data-name="Path 8540" d="M24.5,18.636c-.006.88,6.539,1.624,14.62,1.659S53.76,19.65,53.766,18.77s-6.54-1.623-14.621-1.66S24.51,17.756,24.5,18.636" transform="translate(149.021 -4.394)" fill="#3784bf"/>
                    <path id="Path_8541" data-name="Path 8541" d="M24.559,18.654c-.006.856,6.362,1.58,14.224,1.616s14.24-.629,14.247-1.485S46.667,17.206,38.8,17.17s-14.24.629-14.246,1.485" transform="translate(149.708 -4.41)" fill="#3584be"/>
                    <path id="Path_8542" data-name="Path 8542" d="M24.614,18.673c-.006.832,6.186,1.535,13.83,1.57s13.845-.612,13.85-1.444-6.186-1.535-13.829-1.57-13.845.611-13.851,1.443" transform="translate(150.393 -4.425)" fill="#3483be"/>
                    <path id="Path_8543" data-name="Path 8543" d="M24.668,18.691c-.005.809,6.009,1.492,13.434,1.526s13.45-.594,13.455-1.4-6.009-1.491-13.434-1.526-13.45.594-13.455,1.4" transform="translate(151.08 -4.44)" fill="#3282bd"/>
                    <path id="Path_8544" data-name="Path 8544" d="M24.723,18.71c-.006.785,5.833,1.448,13.039,1.48s13.054-.576,13.059-1.361-5.832-1.447-13.039-1.48-13.054.577-13.059,1.361" transform="translate(151.765 -4.456)" fill="#3181bd"/>
                    <path id="Path_8545" data-name="Path 8545" d="M24.778,18.729c-.005.761,5.656,1.4,12.644,1.436s12.658-.56,12.663-1.321-5.656-1.4-12.644-1.435-12.658.559-12.663,1.319" transform="translate(152.451 -4.472)" fill="#2f80bc"/>
                    <path id="Path_8546" data-name="Path 8546" d="M24.833,18.748c-.005.737,5.478,1.36,12.249,1.39s12.262-.541,12.267-1.279S43.871,17.5,37.1,17.469s-12.263.542-12.268,1.279" transform="translate(153.137 -4.487)" fill="#2e7fbc"/>
                    <path id="Path_8547" data-name="Path 8547" d="M24.887,18.766c0,.713,5.3,1.316,11.854,1.347s11.866-.525,11.872-1.238-5.3-1.316-11.854-1.346-11.867.524-11.872,1.237" transform="translate(153.823 -4.502)" fill="#2c7ebb"/>
                    <path id="Path_8548" data-name="Path 8548" d="M24.942,18.785c0,.69,5.125,1.272,11.459,1.3s11.471-.507,11.476-1.2-5.125-1.272-11.459-1.3-11.471.506-11.476,1.2" transform="translate(154.51 -4.518)" fill="#2b7dbb"/>
                    <path id="Path_8549" data-name="Path 8549" d="M25,18.8c0,.666,4.949,1.228,11.064,1.256s11.076-.489,11.08-1.154-4.949-1.229-11.064-1.257S25,18.138,25,18.8" transform="translate(155.195 -4.533)" fill="#2a7cba"/>
                    <path id="Path_8550" data-name="Path 8550" d="M25.052,18.823c0,.641,4.772,1.185,10.669,1.211s10.68-.472,10.684-1.114-4.772-1.185-10.669-1.211-10.68.472-10.684,1.114" transform="translate(155.88 -4.548)" fill="#287bba"/>
                    <path id="Path_8551" data-name="Path 8551" d="M25.107,18.841c0,.618,4.595,1.141,10.273,1.166s10.285-.453,10.289-1.072S41.074,17.795,35.4,17.769s-10.285.454-10.289,1.072" transform="translate(156.567 -4.564)" fill="#277bb9"/>
                    <path id="Path_8552" data-name="Path 8552" d="M25.161,18.859c0,.595,4.419,1.1,9.878,1.121s9.889-.437,9.894-1.031-4.419-1.1-9.878-1.121-9.889.436-9.894,1.031" transform="translate(157.253 -4.579)" fill="#257ab9"/>
                    <path id="Path_8553" data-name="Path 8553" d="M25.216,18.878c0,.571,4.241,1.053,9.483,1.077s9.493-.419,9.5-.99-4.241-1.053-9.482-1.077-9.494.419-9.5.99" transform="translate(157.939 -4.594)" fill="#2479b8"/>
                    <path id="Path_8554" data-name="Path 8554" d="M25.271,18.9c0,.547,4.065,1.009,9.087,1.032s9.1-.4,9.1-.949-4.064-1.008-9.087-1.031-9.1.4-9.1.948" transform="translate(158.624 -4.61)" fill="#2278b8"/>
                    <path id="Path_8555" data-name="Path 8555" d="M25.326,18.915c0,.523,3.889.965,8.692.987s8.7-.384,8.706-.907-3.888-.965-8.692-.988-8.7.385-8.706.908" transform="translate(159.31 -4.625)" fill="#2177b7"/>
                    <path id="Path_8556" data-name="Path 8556" d="M25.38,18.933c0,.5,3.712.921,8.3.943s8.307-.368,8.31-.866-3.712-.921-8.3-.942-8.307.366-8.31.866" transform="translate(159.997 -4.641)" fill="#1f76b7"/>
                    <path id="Path_8557" data-name="Path 8557" d="M25.435,18.953c0,.476,3.535.878,7.9.9s7.912-.349,7.915-.825-3.535-.877-7.9-.9-7.911.349-7.915.825" transform="translate(160.682 -4.656)" fill="#1e75b6"/>
                    <path id="Path_8558" data-name="Path 8558" d="M25.489,18.971c0,.452,3.358.834,7.508.852s7.515-.331,7.519-.783-3.358-.833-7.508-.853-7.516.333-7.519.784" transform="translate(161.37 -4.671)" fill="#1c74b6"/>
                    <path id="Path_8559" data-name="Path 8559" d="M25.544,18.99c0,.427,3.181.789,7.112.808s7.12-.315,7.124-.743-3.182-.79-7.113-.807-7.12.314-7.123.742" transform="translate(162.055 -4.687)" fill="#1a73b6"/>
                    <path id="Path_8560" data-name="Path 8560" d="M25.6,19.009c0,.4,3,.746,6.718.762s6.723-.3,6.727-.7-3-.746-6.718-.762-6.724.3-6.727.7" transform="translate(162.74 -4.702)" fill="#1972b5"/>
                    <path id="Path_8561" data-name="Path 8561" d="M25.653,19.027c0,.38,2.828.7,6.322.718s6.329-.279,6.332-.661-2.828-.7-6.322-.718-6.329.279-6.332.661" transform="translate(163.427 -4.718)" fill="#1771b5"/>
                    <path id="Path_8562" data-name="Path 8562" d="M25.708,19.045c0,.357,2.651.658,5.927.673s5.933-.262,5.935-.618-2.651-.658-5.926-.673-5.935.263-5.936.619" transform="translate(164.114 -4.733)" fill="#1670b4"/>
                    <path id="Path_8563" data-name="Path 8563" d="M25.763,19.064c0,.332,2.475.614,5.532.628s5.538-.244,5.54-.578-2.474-.614-5.531-.627-5.539.244-5.541.577" transform="translate(164.799 -4.748)" fill="#146fb4"/>
                    <path id="Path_8564" data-name="Path 8564" d="M25.818,19.082c0,.309,2.3.571,5.136.583s5.142-.227,5.145-.537-2.3-.57-5.136-.583-5.143.227-5.145.537" transform="translate(165.484 -4.764)" fill="#136eb3"/>
                    <path id="Path_8565" data-name="Path 8565" d="M25.873,19.1c0,.286,2.121.527,4.742.539s4.747-.21,4.749-.495-2.121-.526-4.742-.539-4.747.21-4.749.495" transform="translate(166.17 -4.779)" fill="#116eb3"/>
                    <path id="Path_8566" data-name="Path 8566" d="M25.927,19.12c0,.262,1.944.482,4.347.493s4.351-.192,4.353-.453-1.944-.483-4.347-.493-4.351.191-4.353.453" transform="translate(166.857 -4.795)" fill="#106db2"/>
                    <path id="Path_8567" data-name="Path 8567" d="M25.982,19.138c0,.238,1.767.439,3.951.449s3.955-.175,3.957-.412-1.767-.438-3.951-.449-3.956.175-3.957.412" transform="translate(167.543 -4.81)" fill="#0e6cb2"/>
                    <path id="Path_8568" data-name="Path 8568" d="M26.036,19.157c0,.214,1.591.395,3.556.4s3.561-.157,3.562-.371-1.592-.395-3.557-.4-3.56.158-3.561.372" transform="translate(168.23 -4.825)" fill="#0d6bb1"/>
                    <path id="Path_8569" data-name="Path 8569" d="M26.092,19.176c0,.19,1.414.352,3.161.359s3.165-.14,3.166-.33-1.414-.351-3.161-.358-3.165.139-3.166.329" transform="translate(168.914 -4.841)" fill="#0b6ab1"/>
                    <path id="Path_8570" data-name="Path 8570" d="M26.146,19.195a6.61,6.61,0,0,0,2.766.314,6.617,6.617,0,0,0,2.77-.288,6.606,6.606,0,0,0-2.766-.314,6.607,6.607,0,0,0-2.77.289" transform="translate(169.601 -4.856)" fill="#0969b0"/>
                    <path id="Path_8571" data-name="Path 8571" d="M26.2,19.212a5.664,5.664,0,0,0,2.37.269,5.664,5.664,0,0,0,2.375-.247,5.668,5.668,0,0,0-2.37-.269,5.7,5.7,0,0,0-2.375.247" transform="translate(170.286 -4.871)" fill="#0868b0"/>
                    <path id="Path_8572" data-name="Path 8572" d="M26.257,19.232a4.736,4.736,0,0,0,1.975.224,4.713,4.713,0,0,0,1.978-.207,4.713,4.713,0,0,0-1.974-.224,4.746,4.746,0,0,0-1.98.207" transform="translate(170.971 -4.887)" fill="#0667af"/>
                    <path id="Path_8573" data-name="Path 8573" d="M26.311,19.25a3.773,3.773,0,0,0,1.581.179,3.793,3.793,0,0,0,1.582-.164,3.763,3.763,0,0,0-1.58-.18,3.774,3.774,0,0,0-1.583.165" transform="translate(171.658 -4.902)" fill="#0566af"/>
                    <path id="Path_8574" data-name="Path 8574" d="M26.366,19.268a2.816,2.816,0,0,0,1.186.135,2.829,2.829,0,0,0,1.187-.124,2.827,2.827,0,0,0-1.185-.135,2.843,2.843,0,0,0-1.187.123" transform="translate(172.343 -4.918)" fill="#0365ae"/>
                    <path id="Path_8575" data-name="Path 8575" d="M26.42,19.287a1.892,1.892,0,0,0,.79.09A1.916,1.916,0,0,0,28,19.295a1.874,1.874,0,0,0-.79-.09,1.9,1.9,0,0,0-.792.082" transform="translate(173.031 -4.933)" fill="#0264ae"/>
                    <path id="Path_8576" data-name="Path 8576" d="M26.475,19.306a1.82,1.82,0,0,0,.791,0,1.85,1.85,0,0,0-.791,0" transform="translate(173.716 -4.948)" fill="#0063ad"/>
                  </g>
                </g>
              </g>
            </g>
          </g>
        </g>
      </g>
    </g>
  </g>
</svg>
