<svg xmlns="http://www.w3.org/2000/svg" xmlns:xlink="http://www.w3.org/1999/xlink" width="3115" height="567" viewBox="0 0 3115 567">
  <defs>
    <clipPath id="clip-path">
      <rect id="Rectangle_4042" data-name="Rectangle 4042" width="3115" height="567" transform="translate(16815 -1317)" fill="#fff" stroke="#707070" stroke-width="1"/>
    </clipPath>
    <linearGradient id="linear-gradient" x1="0.5" x2="0.5" y2="1" gradientUnits="objectBoundingBox">
      <stop offset="0" stop-color="#3ac5ff"/>
      <stop offset="1" stop-color="#1957c8"/>
    </linearGradient>
    <linearGradient id="linear-gradient-2" x1="0.5" x2="0.5" y2="1" gradientUnits="objectBoundingBox">
      <stop offset="0" stop-color="#47c9ff"/>
      <stop offset="1" stop-color="#1957c8"/>
    </linearGradient>
    <linearGradient id="linear-gradient-3" x1="0.5" x2="0.5" y2="1" gradientUnits="objectBoundingBox">
      <stop offset="0" stop-color="#2cc1ff"/>
      <stop offset="1" stop-color="#185cd9"/>
    </linearGradient>
    <linearGradient id="linear-gradient-4" x1="0.5" x2="0.5" y2="1" gradientUnits="objectBoundingBox">
      <stop offset="0" stop-color="#dffeff"/>
      <stop offset="1" stop-color="#01b0f9"/>
    </linearGradient>
    <linearGradient id="linear-gradient-7" x1="0.5" x2="0.5" y2="1" gradientUnits="objectBoundingBox">
      <stop offset="0" stop-color="#112c6f"/>
      <stop offset="1" stop-color="#184edc"/>
    </linearGradient>
    <filter id="senka" x="548.004" y="394.995" width="215" height="52" filterUnits="userSpaceOnUse">
      <feOffset dx="54" dy="29" input="SourceAlpha"/>
      <feGaussianBlur stdDeviation="3" result="blur"/>
      <feFlood flood-color="#0065c3" flood-opacity="0.522"/>
      <feComposite operator="in" in2="blur"/>
      <feComposite in="SourceGraphic"/>
    </filter>
    <filter id="Path_12148" x="12.84" y="230.832" width="3141.625" height="349.855" filterUnits="userSpaceOnUse">
      <feOffset dy="-24" input="SourceAlpha"/>
      <feGaussianBlur stdDeviation="12" result="blur-2"/>
      <feFlood flood-opacity="0.122"/>
      <feComposite operator="in" in2="blur-2"/>
      <feComposite in="SourceGraphic"/>
    </filter>
  </defs>
  <g id="strelica4" transform="translate(-16815 1317)" clip-path="url(#clip-path)">
    <g id="Group_9946" data-name="Group 9946">
      <g id="Group_9926" data-name="Group 9926" transform="translate(15139 -2228)">
        <g id="strelica" transform="translate(1295.594 -471.245)">
          <path id="Path_8966" data-name="Path 8966" d="M-16763.6-4721.41h146.541l249.052-315.1h-147.306Z" transform="translate(17362 6599.038)" fill="url(#linear-gradient)"/>
          <path id="Path_8967" data-name="Path 8967" d="M-16623.1-4705.86h-51.529l249.314-315.1,130.334,164.646,158.6-204.423,24.711,32.349-183.311,237.671-129.389-165.786Z" transform="translate(17419.338 6583.487)" fill="url(#linear-gradient-2)"/>
          <path id="Path_8969" data-name="Path 8969" d="M-16488.3-4908.23l88.1-110.433h-49.064l205.008-105.134,40.887,105.134-53.042-1.268-158.737,204.213Z" transform="translate(17539.439 6543)" fill="url(#linear-gradient-3)"/>
          <path id="Path_8970" data-name="Path 8970" d="M-16464-5059.64l23.033,32.286,25.369-32.286Z" transform="translate(17554.299 6584.188)" fill="url(#linear-gradient-4)"/>
          <path id="Path_8971" data-name="Path 8971" d="M-16322.3-5028.61h48.925l-21.236-31.775-52.175-.213Z" transform="translate(17629.977 6583.689)" fill="url(#linear-gradient-4)"/>
          <path id="Path_8972" data-name="Path 8972" d="M-16339.3-5123.66l21.82,31.58,39.557,104.191-21.179-31.727Z" transform="translate(17634.492 6543.009)" fill="url(#linear-gradient-4)"/>
          <path id="Path_8968" data-name="Path 8968" d="M-16363.6-4831.62l-147.082.9-56.625-73.108,74.232-93.488Z" transform="translate(17488.016 6624.443)" fill="url(#linear-gradient-7)"/>
          <g transform="matrix(1, 0, 0, 1, 380.41, 1382.24)" filter="url(#senka)">
            <ellipse id="senka-2" data-name="senka" cx="76" cy="7" rx="76" ry="7" transform="translate(548 394.99)" fill="#0194ec" opacity="0.92"/>
          </g>
          <path id="Path_12134" data-name="Path 12134" d="M963.531,1775.9l13.264,17.006,146.338-.988-12.74-15.668-131.16-.312Z" transform="translate(0.588 0.881)" fill="#174bd3"/>
        </g>
      </g>
      <g id="Group_9945" data-name="Group 9945">
        <path id="Path_12147" data-name="Path 12147" d="M16814.84-748.646l3118.148.041s-307.053-264.028-840.936-345.271-1073.545,261.36-1357,297.071,361.41-11.155,276.762,0c-575.842,75.886-633.711-96.177-821.654-102.272S16814.84-748.646,16814.84-748.646Z" fill="#47baff"/>
        <g transform="matrix(1, 0, 0, 1, 16815, -1317)" filter="url(#Path_12148)">
          <path id="Path_12148-2" data-name="Path 12148" d="M16863.84-786.638l3069.625.325s-317.191-167.447-747.955-256.724S18260.758-913.61,17841.52-852.75s-520.211-37.209-689.867-40.257S16863.84-786.638,16863.84-786.638Z" transform="translate(-16815 1355)" fill="#fff"/>
        </g>
      </g>
    </g>
  </g>
</svg>
