<svg xmlns="http://www.w3.org/2000/svg" width="3072" height="1633" viewBox="0 0 3072 1633">
  <g id="pozadina" transform="translate(227 909.281)">
    <path id="Path_8271" data-name="Path 8271" d="M0,0H3072V1633H0Z" transform="translate(-227 -909.281)" fill="#0194ec"/>
    <path id="Path_8272" data-name="Path 8272" d="M297.685-.257,721.912.06S623.8,287.031,376.447,477.745,193.685,996.44,193.685,996.44l-918.549,2.034s123.809-325.349,561.984-505.64S297.685-.257,297.685-.257Z" transform="translate(1311.304 -275.085)" fill="#008ae9"/>
    <path id="Path_8273" data-name="Path 8273" d="M328.135-2.07C568.747-76.4,657.2,149.766,657.2,337.064S509.875,676.2,328.135,676.2,36.643,546.036-.934,337.064,87.524,72.265,328.135-2.07Z" transform="translate(1622 -347.81)" fill="#fff" opacity="0.05"/>
    <path id="Path_12135" data-name="Path 12135" d="M328.135-2.07C568.747-76.4,657.2,149.766,657.2,337.064S509.875,676.2,328.135,676.2,36.643,546.036-.934,337.064,87.524,72.265,328.135-2.07Z" transform="translate(2165 -875.81)" fill="#fff" opacity="0.05"/>
    <path id="Path_8274" data-name="Path 8274" d="M465-2.191C746.928,260.847,930,206.571,930,464.093S721.812,930.376,465,930.376,0,721.614,0,464.093,183.072-265.229,465-2.191Z" transform="translate(212 -560.786)" fill="#fff" opacity="0.06"/>
  </g>
</svg>
