<svg width="716" height="1090" viewBox="0 0 716 1090" fill="none" xmlns="http://www.w3.org/2000/svg">
<g opacity="0.31">
<path opacity="0.31" d="M186.816 1068.52C200.076 1079.94 219.895 1078.67 231.085 1065.67C242.274 1052.68 240.596 1032.89 227.336 1021.47C214.077 1010.05 194.257 1011.33 183.068 1024.32C171.879 1037.31 173.557 1057.1 186.816 1068.52Z" fill="url(#paint0_linear)"/>
</g>
<path opacity="0.3" d="M361.321 328.506C383.53 349.418 401.315 374.573 413.623 402.481C425.931 430.389 432.511 460.483 432.974 490.979C433.436 521.475 427.772 551.755 416.317 580.023C404.861 608.291 387.847 633.974 366.282 655.55C275.423 747.102 81.5005 777.5 -30.8544 723.749C-143.209 669.998 17.7788 504.246 47.1879 363.225C83.0002 191.501 267.67 239.434 361.321 328.506Z" fill="#1A98EA"/>
<path d="M410.026 405.512C424.772 429.378 434.58 455.962 438.867 483.687C443.154 511.413 441.834 539.717 434.985 566.924C428.135 594.13 415.896 619.685 398.991 642.076C382.087 664.466 360.861 683.237 336.571 697.275C234.076 756.997 29.5807 764.787 -32.3913 663.358C-94.3634 561.929 63.0251 462.598 122.756 361.602C206.149 220.401 348.053 304.083 410.026 405.512Z" fill="url(#paint1_linear)"/>
<defs>
<linearGradient id="paint0_linear" x1="227.336" y1="1021.47" x2="186.816" y2="1068.52" gradientUnits="userSpaceOnUse">
<stop stop-color="#1A98EA"/>
<stop offset="1" stop-color="#0E8BE6"/>
</linearGradient>
<linearGradient id="paint1_linear" x1="149.632" y1="722.785" x2="250.074" y2="302.858" gradientUnits="userSpaceOnUse">
<stop stop-color="#0181E7"/>
<stop offset="1" stop-color="#04B0F4"/>
</linearGradient>
</defs>
</svg>
