<svg width="479" height="659" viewBox="0 0 479 659" fill="none" xmlns="http://www.w3.org/2000/svg">
<path opacity="0.3" d="M526.307 190.246C542.347 216.194 553.015 245.095 557.681 275.238C562.346 305.381 560.913 336.152 553.467 365.729C546.021 395.305 532.713 423.087 514.331 447.427C495.95 471.767 472.868 492.171 446.454 507.431C334.995 572.347 139.813 551.518 45.1983 470.519C-49.4163 389.52 148.986 271.083 213.892 142.479C292.929 -14.1252 458.901 79.9711 526.307 190.246Z" fill="#1A98EA"/>
<path d="M553.425 277.235C561.493 304.104 564.086 332.32 561.051 360.211C558.016 388.102 549.415 415.1 535.757 439.606C522.1 464.113 503.663 485.63 481.54 502.882C459.416 520.134 434.055 532.771 406.96 540.045C292.5 571.204 92.9566 525.801 59.3479 411.789C25.7392 297.777 203.474 242.565 287.309 160.47C404.406 45.6642 519.817 163.222 553.425 277.235Z" fill="url(#paint0_linear)"/>
<defs>
<linearGradient id="paint0_linear" x1="219.788" y1="516.301" x2="425.493" y2="136.68" gradientUnits="userSpaceOnUse">
<stop stop-color="#0181E7"/>
<stop offset="1" stop-color="#04B0F4"/>
</linearGradient>
</defs>
</svg>
