<svg xmlns="http://www.w3.org/2000/svg" xmlns:xlink="http://www.w3.org/1999/xlink" width="3840" height="1345" viewBox="0 0 3840 1345">
  <defs>
    <clipPath id="clip-path">
      <rect id="Rectangle_4135" data-name="Rectangle 4135" width="3840" height="1345" transform="translate(3432 -10948)" fill="#fff" stroke="#707070" stroke-width="1"/>
    </clipPath>
    <filter id="Path_35108" x="-34" y="477.707" width="3907.137" height="580.026" filterUnits="userSpaceOnUse">
      <feOffset dy="-20" input="SourceAlpha"/>
      <feGaussianBlur stdDeviation="10" result="blur"/>
      <feFlood flood-opacity="0.031"/>
      <feComposite operator="in" in2="blur"/>
      <feComposite in="SourceGraphic"/>
    </filter>
    <filter id="Path_35109" x="-49" y="540.477" width="3937.137" height="533.203" filterUnits="userSpaceOnUse">
      <feOffset dy="-15" input="SourceAlpha"/>
      <feGaussianBlur stdDeviation="15" result="blur-2"/>
      <feFlood flood-opacity="0.059"/>
      <feComposite operator="in" in2="blur-2"/>
      <feComposite in="SourceGraphic"/>
    </filter>
  </defs>
  <g id="wave100" transform="translate(-3432 10948)" clip-path="url(#clip-path)">
    <g id="Group_10278" data-name="Group 10278" transform="translate(-4)">
      <path id="Path_35107" data-name="Path 35107" d="M3428-8508.179,7275.137-8485.9V-9239.98s-166.852,81.639-413.406,44.565-364.344-110.384-555.065-116.808-413.693,165.453-757.821,121.5-642.484-278.917-1065.1-265.229S3428-9195.415,3428-9195.415Z" transform="translate(4 -1482)" fill="#008ae9"/>
      <g transform="matrix(1, 0, 0, 1, 3436, -10948)" filter="url(#Path_35108)">
        <path id="Path_35108-2" data-name="Path 35108" d="M3428-8936.5H7275.137v-244.874s-166.852,103.735-413.406,56.628-351.287-148.627-555.065-148.422-413.693,210.233-757.821,154.387-642.484-354.407-1065.1-337.015S3428-9124.745,3428-9124.745Z" transform="translate(-3432 9984.23)" fill="#47baff"/>
      </g>
      <g transform="matrix(1, 0, 0, 1, 3436, -10948)" filter="url(#Path_35109)">
        <path id="Path_35109-2" data-name="Path 35109" d="M3428-9013.32H7275.137v-226.66s-166.852,81.639-413.406,44.565-347.415-141.044-555.065-116.808-413.693,165.453-757.821,121.5-642.484-278.917-1065.1-265.229S3428-9195.415,3428-9195.415Z" transform="translate(-3432 10057)" fill="#109aed"/>
      </g>
      <path id="Path_35110" data-name="Path 35110" d="M7275.137-9103.033H3428v274.383s166.853-81.639,413.406-44.565,330.653,82.405,543.337,81.134,425.422-129.779,769.55-85.828,636.51,229.5,1059.125,215.812,1061.72-211.117,1061.72-211.117Z" transform="translate(4 -953)" fill="#109aed"/>
    </g>
  </g>
</svg>
