<svg id="Layer_1" data-name="Layer 1" xmlns="http://www.w3.org/2000/svg" viewBox="0 0 5876.73 1298.39"><defs><style>.cls-1{fill:#47baff;}.cls-2{fill:#008ae9;}.cls-3{fill:#109aed;}</style></defs><rect class="cls-1" x="3837.77" y="599.57" width="177.7" height="214.47"/><rect class="cls-1" x="1905.17" y="574.78" width="114.38" height="40.45"/><rect class="cls-2" x="1830.96" y="223.74" width="245.11" height="364.19"/><path id="Union_21" data-name="Union 21" class="cls-2" d="M-3733.55-720.92v-927.81a908.39,908.39,0,0,1,119.51-4.51c170.5,4.5,344.11,38.82,504.24,97.08,83.57,30.4,166.33,62.91,250.51,91.67,141.33,48.27,287.15,87.32,437.75,81,197.66-8.24,382.12-91.54,576.23-121.39q15.91-2.45,31.76-4v787.91Z" transform="translate(5711.92 1663.71)"/><path id="Union_22-2" data-name="Union 22-2" class="cls-1" d="M-3733.55-586.58v-226h1920v226Zm0-226.11v-291a910.17,910.17,0,0,1,119.51-4.5c170.5,4.5,344.11,38.77,504.24,97,83.57,30.37,166.33,62.85,250.51,91.57,141.33,48.21,287.15,87.22,437.75,81C-2223.89-847-2039.42-930.2-1845.3-960q15.88-2.43,31.75-4v151.31Z" transform="translate(5711.92 1663.71)"/><path id="Union_23-2" data-name="Union 23-2" class="cls-3" d="M-1933.06-367c-170.5-3.6-344.12-31-504.25-77.52-83.57-24.28-166.33-50.24-250.51-73.2-141.32-38.55-305.13-44.88-455.73-39.86-197.66,6.58-364.13,48.24-558.25,72.08-10.6,1.3-21.18-24.17-31.75-23.35V-815.92h1920v445.36q-46.8,4-93.9,3.87Q-1920.24-366.69-1933.06-367ZM-3733.55-816v-232.7A1137.51,1137.51,0,0,1-3614-1052.3c170.5,3.6,344.11,31,504.24,77.52,83.57,24.28,166.33,50.24,250.51,73.2,141.33,38.55,287.15,69.74,437.75,64.72,197.65-6.58,382.12-73.1,576.24-96.94q15.88-2,31.75-3.18v121Z" transform="translate(5711.92 1663.71)"/><g id="Wave"><path id="Union_21-2" data-name="Union 21" class="cls-2" d="M-1755.19-720.92v-787.91q15.86,1.55,31.75,4c194.12,29.85,378.58,113.15,576.24,121.39,150.6,6.28,296.42-32.77,437.75-81,84.17-28.76,166.94-61.27,250.51-91.67,160.13-58.26,333.74-92.58,504.24-97.08a908.45,908.45,0,0,1,119.51,4.51v927.81Z" transform="translate(5711.92 1663.71)"/><path id="Union_22-2-2" data-name="Union 22-2" class="cls-1" d="M-1755.19-586.58v-226h1920v226Zm0-226.11V-964q15.86,1.54,31.75,4c194.12,29.82,378.58,113,576.24,121.26,150.6,6.27,296.42-32.74,437.75-81,84.17-28.72,166.93-61.2,250.51-91.57,160.13-58.19,333.74-92.46,504.24-97a910.17,910.17,0,0,1,119.51,4.5v291Z" transform="translate(5711.92 1663.71)"/><path id="Union_23-2-2" data-name="Union 23-2" class="cls-3" d="M-1661.29-366.69q-47.12.09-93.9-3.87V-815.92h1920v333.64q-15.85-1.23-31.75-3.18C-61.06-509.3-227.53-551-425.19-557.54c-150.6-5-314.41,1.31-455.74,39.86-84.17,23-166.93,48.92-250.51,73.2C-1291.57-398-1465.18-370.56-1635.68-367Q-1648.49-366.69-1661.29-366.69ZM-1755.19-816V-937q15.86,1.23,31.75,3.18c194.12,23.84,378.58,90.36,576.24,96.94,150.6,5,296.42-26.17,437.75-64.72,84.17-23,166.93-48.92,250.51-73.2,160.13-46.52,333.74-73.92,504.24-77.52a1137.59,1137.59,0,0,1,119.51,3.59V-816Z" transform="translate(5711.92 1663.71)"/></g><g id="Wave-2" data-name="Wave"><path id="Union_21-3" data-name="Union 21" class="cls-2" d="M-5711.92-720.92v-787.91q15.85,1.55,31.76,4c194.11,29.85,378.58,113.15,576.23,121.39,150.6,6.28,296.43-32.77,437.75-81,84.18-28.76,166.94-61.27,250.51-91.67,160.13-58.26,333.75-92.58,504.25-97.08a908.52,908.52,0,0,1,119.51,4.51v927.81Z" transform="translate(5711.92 1663.71)"/><path id="Union_22-2-3" data-name="Union 22-2" class="cls-1" d="M-5711.91-586.58v-226h1920v226Zm0-226.11V-964q15.85,1.54,31.74,4c194.13,29.82,378.59,113,576.24,121.26,150.6,6.27,296.42-32.74,437.75-81,84.18-28.72,166.94-61.2,250.51-91.57,160.13-58.19,333.75-92.46,504.24-97a910.33,910.33,0,0,1,119.52,4.5v291Z" transform="translate(5711.92 1663.71)"/><path id="Union_23-2-3" data-name="Union 23-2" class="cls-3" d="M-5618-366.69q-47.1.09-93.89-3.87V-815.92h1920v318.21c-10.58-.82-21.16,13.55-31.75,12.25-194.12-23.84-360.6-65.5-558.25-72.08-150.6-5-314.41,1.31-455.74,39.86-84.18,23-166.94,48.92-250.51,73.2C-5248.29-398-5421.9-370.56-5592.4-367Q-5605.21-366.69-5618-366.69ZM-5711.91-816V-937q15.85,1.23,31.74,3.18c194.13,23.84,378.59,90.36,576.24,96.94,150.6,5,296.42-26.17,437.75-64.72,84.18-23,166.94-48.92,250.51-73.2,160.13-46.52,333.74-73.92,504.24-77.52a1137.7,1137.7,0,0,1,119.52,3.59V-816Z" transform="translate(5711.92 1663.71)"/></g><path class="cls-2" d="M-1837.89-961.24s55.66-9.19,100.08-.89c8.17-22.28,7-29.62,7-29.62l-98-.76-6.77,23.61Z" transform="translate(5711.92 1663.71)"/><path class="cls-3" d="M-1834.32-934.94s39.26-6.45,94.72-.64c25.66,29.11,16.09,93.07,16.09,93.07l-171.58,6.63Z" transform="translate(5711.92 1663.71)"/><path class="cls-3" d="M-1920.11-366.68s140.95,4.32,342.14-2.39C-1493-470-1686.23-515.2-1686.23-515.2L-1868-482Z" transform="translate(5711.92 1663.71)"/><path class="cls-2" d="M-4116-1635.19s320.65-61.83,683.49-3.39c67.95,140.32-152.27,272.15-152.27,272.15H-4041.3Z" transform="translate(5711.92 1663.71)"/><path class="cls-1" d="M-3974.69-1105.22s172.39-11.48,353.15-3.2-6.91,42-6.91,42l-335.49-22.49Z" transform="translate(5711.92 1663.71)"/><path class="cls-3" d="M-3901.4-1052.48s164.6-6.73,324.67,1.34c111.05,123-71.25,156.67-71.25,156.67l-316.34-5.36Z" transform="translate(5711.92 1663.71)"/><rect class="cls-3" x="1830.96" y="740.51" width="216.51" height="392.17"/><rect class="cls-1" x="1908.75" y="580.85" width="39.15" height="10.55"/><rect class="cls-2" x="3886.28" y="321.79" width="100.6" height="365.04"/><rect class="cls-3" x="3848.15" y="776.77" width="142" height="423.32"/><path class="cls-2" d="M-1747.35-1508s-43.25-4.93-74.88.09a154.78,154.78,0,0,0-29.79,45.15l156.93,25.19Z" transform="translate(5711.92 1663.71)"/><rect class="cls-2" x="3877.56" y="203.77" width="109.32" height="142.27"/><path class="cls-3" d="M-3891.56-494.59s102.71,23.34,231,3.75c23.14-70.82-43.25-92.53-44.78-93.29s-101.1-7.17-101.1-7.17L-3871.26-531Z" transform="translate(5711.92 1663.71)"/></svg>