<svg xmlns="http://www.w3.org/2000/svg" xmlns:xlink="http://www.w3.org/1999/xlink" width="209.646" height="199.318" viewBox="0 0 209.646 199.318">
  <defs>
    <linearGradient id="linear-gradient" x1="-0.033" y1="0.368" x2="1.003" y2="0.624" gradientUnits="objectBoundingBox">
      <stop offset="0" stop-color="#f8f8f8"/>
      <stop offset="1" stop-color="#497684"/>
      <stop offset="1" stop-color="#010333"/>
    </linearGradient>
    <linearGradient id="linear-gradient-2" x1="-0.051" y1="0.361" x2="0.986" y2="0.739" gradientUnits="objectBoundingBox">
      <stop offset="0.089" stop-color="#064280"/>
      <stop offset="0.371" stop-color="#0d0730"/>
      <stop offset="0.766" stop-color="#010333"/>
      <stop offset="0.971" stop-color="#012060"/>
    </linearGradient>
    <linearGradient id="linear-gradient-3" x1="0.666" y1="0.97" x2="0.671" y2="0.992" gradientUnits="objectBoundingBox">
      <stop offset="0" stop-color="#010333" stop-opacity="0"/>
      <stop offset="0.229" stop-color="#20f8fd"/>
      <stop offset="0.78" stop-color="#010333" stop-opacity="0"/>
    </linearGradient>
    <linearGradient id="linear-gradient-4" x1="-0.041" y1="0.084" x2="1.014" y2="0.898" gradientUnits="objectBoundingBox">
      <stop offset="0" stop-color="#0182aa"/>
      <stop offset="0.611" stop-color="#0d0730"/>
      <stop offset="1" stop-color="#010333"/>
    </linearGradient>
    <linearGradient id="linear-gradient-5" x1="-0.061" y1="0.256" x2="1.472" y2="0.922" xlink:href="#linear-gradient-4"/>
    <linearGradient id="linear-gradient-6" x1="0.16" y1="0.014" x2="0.947" y2="1.138" gradientUnits="objectBoundingBox">
      <stop offset="0.089" stop-color="#064280"/>
      <stop offset="0.625" stop-color="#0d0730"/>
      <stop offset="1" stop-color="#010333"/>
    </linearGradient>
    <linearGradient id="linear-gradient-7" x1="0.136" y1="0.056" x2="0.93" y2="1.024" gradientUnits="objectBoundingBox">
      <stop offset="0" stop-color="#22b2df"/>
      <stop offset="1" stop-color="#00447f" stop-opacity="0.98"/>
      <stop offset="1" stop-color="#012060"/>
      <stop offset="1" stop-color="#000c34"/>
      <stop offset="1" stop-color="#00447f"/>
    </linearGradient>
    <linearGradient id="linear-gradient-8" x1="1.411" y1="-1.028" x2="0.145" y2="-1.028" gradientUnits="objectBoundingBox">
      <stop offset="0" stop-color="#7659ff"/>
      <stop offset="1" stop-color="#748bff"/>
    </linearGradient>
    <linearGradient id="linear-gradient-9" x1="0.04" y1="0.03" x2="0.676" y2="0.534" gradientUnits="objectBoundingBox">
      <stop offset="0.079" stop-color="#00518b"/>
      <stop offset="0.284" stop-color="#0182aa"/>
      <stop offset="0.625" stop-color="#0d0730"/>
      <stop offset="1" stop-color="#010333"/>
    </linearGradient>
    <linearGradient id="linear-gradient-10" x1="0.959" y1="0.59" x2="0.969" y2="0.591" gradientUnits="objectBoundingBox">
      <stop offset="0" stop-color="#010333" stop-opacity="0"/>
      <stop offset="0.272" stop-color="#0182aa"/>
      <stop offset="1" stop-color="#010333" stop-opacity="0"/>
    </linearGradient>
  </defs>
  <g id="Group_4685" data-name="Group 4685" transform="translate(-13.692 -133.293)">
    <g id="Group_4684" data-name="Group 4684" transform="translate(0 133.29)">
      <g id="Group_4679" data-name="Group 4679" transform="translate(13.695)">
        <g id="Group_4675" data-name="Group 4675">
          <g id="Group_4670" data-name="Group 4670" transform="translate(0 86.182)">
            <g id="Group_4669" data-name="Group 4669">
              <g id="Group_4668" data-name="Group 4668" opacity="0.68">
                <g id="Group_4666" data-name="Group 4666">
                  <path id="Path_2171" data-name="Path 2171" d="M151.923,277.29l122.87,70.939a2.04,2.04,0,0,0,2.046,0l61.716-35.862a2.041,2.041,0,0,0-.005-3.532L215.68,237.892a2.041,2.041,0,0,0-2.046,0l-61.716,35.863a2.041,2.041,0,0,0,0,3.535Z" transform="translate(-150.903 -237.619)" fill="url(#linear-gradient)"/>
                  <g id="Group_4665" data-name="Group 4665" transform="translate(0 37.909)">
                    <path id="Path_2172" data-name="Path 2172" d="M150.93,296.419a2.021,2.021,0,0,0,1.021,1.761L274.82,369.119a2.039,2.039,0,0,0,2.045,0l61.716-35.862a2,2,0,0,0,.979-1.476l.016-.008v1.882a2.066,2.066,0,0,1,0,.228v.143l-.016.01a1.983,1.983,0,0,1-.979,1.474l-61.716,35.863a2.039,2.039,0,0,1-2.045,0l-122.869-70.94a1.981,1.981,0,0,1-.979-1.435l-.041-.024v-2.556Z" transform="translate(-150.93 -296.418)" fill="url(#linear-gradient-2)"/>
                    <path id="Path_2173" data-name="Path 2173" d="M150.93,296.419a2.021,2.021,0,0,0,1.021,1.761L274.82,369.119a2.039,2.039,0,0,0,2.045,0l61.716-35.862a2,2,0,0,0,.979-1.476l.016-.008v1.882a2.066,2.066,0,0,1,0,.228v.143l-.016.01a1.983,1.983,0,0,1-.979,1.474l-61.716,35.863a2.039,2.039,0,0,1-2.045,0l-122.869-70.94a1.981,1.981,0,0,1-.979-1.435l-.041-.024v-2.556Z" transform="translate(-150.93 -296.418)" fill="url(#linear-gradient-3)"/>
                  </g>
                </g>
                <g id="Group_4667" data-name="Group 4667" transform="translate(36.468 8.931)">
                  <path id="Path_2174" data-name="Path 2174" d="M265.842,296.7l-3.252-1.874a.468.468,0,0,1,0-.887l3.246-1.877a1.7,1.7,0,0,1,1.536,0l3.251,1.875a.468.468,0,0,1,0,.886l-3.246,1.877a1.7,1.7,0,0,1-1.535,0Zm7.163-3.756-3.92-2.26a.264.264,0,0,1,0-.5L273,287.925a.958.958,0,0,1,.867,0l3.92,2.26a.264.264,0,0,1,0,.5l-3.914,2.263a.958.958,0,0,1-.868,0Zm-13.653,7.9-3.931-2.266a.261.261,0,0,1,0-.494l3.925-2.27a.945.945,0,0,1,.856,0l3.931,2.266a.261.261,0,0,1,0,.494l-3.926,2.27a.944.944,0,0,1-.855,0Zm-7.187,3.743-3.217-1.854a.478.478,0,0,1,0-.906l3.213-1.857a1.735,1.735,0,0,1,1.569,0l3.217,1.855a.478.478,0,0,1,0,.906l-3.213,1.857a1.733,1.733,0,0,1-1.569,0Zm6.67-11.927-3.252-1.875a.467.467,0,0,1,0-.886l3.246-1.877a1.7,1.7,0,0,1,1.536,0l3.251,1.874a.468.468,0,0,1,0,.886l-3.247,1.877a1.7,1.7,0,0,1-1.533,0Zm-6.49,4.145-3.931-2.266a.261.261,0,0,1,0-.495l3.925-2.269a.947.947,0,0,1,.856,0l3.932,2.266a.261.261,0,0,1,0,.495L253.2,296.81a.946.946,0,0,1-.855,0Zm-7.187,3.743-3.217-1.855a.478.478,0,0,1,0-.906l3.213-1.858a1.737,1.737,0,0,1,1.569,0l3.217,1.855a.478.478,0,0,1,0,.906l-3.213,1.857a1.734,1.734,0,0,1-1.568,0Zm14.012,8.078-3.217-1.855a.478.478,0,0,1,0-.906l3.213-1.857a1.733,1.733,0,0,1,1.569,0l3.217,1.854a.478.478,0,0,1,0,.906l-3.213,1.857a1.735,1.735,0,0,1-1.567,0Zm41.858.472-3.92-2.26a.264.264,0,0,1,0-.5l3.914-2.264a.958.958,0,0,1,.867,0l3.92,2.26a.264.264,0,0,1,0,.5L301.9,309.1a.958.958,0,0,1-.87,0ZM280.01,296.987l-3.92-2.26a.264.264,0,0,1,0-.5l3.91-2.262a.958.958,0,0,1,.867,0l3.92,2.26a.264.264,0,0,1,0,.5l-3.914,2.263a.958.958,0,0,1-.862,0Zm1.943,27.144,3.169,1.827a.493.493,0,0,1,0,.934l-3.164,1.83a1.789,1.789,0,0,1-1.618,0l-3.169-1.827a.493.493,0,0,1,0-.934l3.164-1.83a1.786,1.786,0,0,1,1.619,0Zm26.082-10.989-3.92-2.26a.264.264,0,0,1,0-.5l3.914-2.263a.958.958,0,0,1,.867,0l3.92,2.26a.264.264,0,0,1,0,.5l-3.914,2.263a.958.958,0,0,1-.866,0Zm-35.188-12.4L269.6,298.87a.468.468,0,0,1,0-.886l3.246-1.877a1.7,1.7,0,0,1,1.535,0l3.252,1.874a.468.468,0,0,1,0,.887l-3.247,1.877a1.7,1.7,0,0,1-1.538,0ZM266,288.91l-3.92-2.26a.264.264,0,0,1,0-.5l3.914-2.264a.958.958,0,0,1,.867,0l3.92,2.26a.264.264,0,0,1,0,.5l-3.914,2.263a.956.956,0,0,1-.867,0Zm.359,15.979-3.931-2.266a.261.261,0,0,1,0-.495l3.926-2.269a.946.946,0,0,1,.856,0l3.931,2.266a.261.261,0,0,1,0,.5l-3.926,2.269a.944.944,0,0,1-.857,0Zm-42.217-16.451-3.217-1.855a.478.478,0,0,1,0-.906l3.212-1.857a1.734,1.734,0,0,1,1.57,0l3.217,1.854a.478.478,0,0,1,0,.906l-3.213,1.857a1.734,1.734,0,0,1-1.57,0Zm13.676-7.888-3.252-1.874a.468.468,0,0,1,0-.886l3.246-1.877a1.7,1.7,0,0,1,1.536,0l3.251,1.874a.468.468,0,0,1,0,.886l-3.247,1.877a1.7,1.7,0,0,1-1.535,0Zm-6.49,4.145-3.931-2.266a.261.261,0,0,1,0-.495l3.926-2.269a.946.946,0,0,1,.856,0l3.932,2.266a.261.261,0,0,1,0,.495l-3.926,2.27a.946.946,0,0,1-.858,0Zm13.653-7.9-3.92-2.26a.264.264,0,0,1,0-.5l3.914-2.263a.958.958,0,0,1,.867,0l3.92,2.26a.264.264,0,0,1,0,.5l-3.913,2.263A.959.959,0,0,1,244.981,276.8ZM216.8,268.433l-3.251-1.874a.468.468,0,0,1,0-.887l3.246-1.877a1.7,1.7,0,0,1,1.536,0l3.251,1.875a.467.467,0,0,1,0,.886l-3.247,1.877a1.7,1.7,0,0,1-1.535,0Zm-6.49,4.145-3.931-2.266a.261.261,0,0,1,0-.494l3.926-2.27a.946.946,0,0,1,.856,0l3.931,2.267a.261.261,0,0,1,0,.494l-3.926,2.27a.944.944,0,0,1-.857,0Zm13.653-7.9-3.92-2.26a.264.264,0,0,1,0-.5l3.914-2.263a.958.958,0,0,1,.867,0l3.92,2.26a.264.264,0,0,1,0,.5l-3.913,2.263a.959.959,0,0,1-.869,0Zm64.8,55.492,3.217,1.855a.478.478,0,0,1,0,.906l-3.213,1.857a1.732,1.732,0,0,1-1.569,0l-3.217-1.854a.478.478,0,0,1,0-.906l3.212-1.857a1.736,1.736,0,0,1,1.567,0Zm-43.42-27.4-3.931-2.266a.261.261,0,0,1,0-.494l3.926-2.27a.946.946,0,0,1,.856,0l3.931,2.267a.261.261,0,0,1,0,.494l-3.926,2.27a.944.944,0,0,1-.859,0Zm6.49-4.145-3.252-1.874a.468.468,0,0,1,0-.887l3.246-1.877a1.7,1.7,0,0,1,1.536,0l3.251,1.875a.467.467,0,0,1,0,.886l-3.247,1.877a1.7,1.7,0,0,1-1.538,0Zm-13.676,7.888-3.217-1.855a.478.478,0,0,1,0-.906l3.213-1.857a1.733,1.733,0,0,1,1.569,0l3.217,1.855a.478.478,0,0,1,0,.906l-3.213,1.857a1.732,1.732,0,0,1-1.573,0ZM259,284.869l-3.92-2.26a.264.264,0,0,1,0-.5l3.914-2.263a.958.958,0,0,1,.867,0l3.92,2.26a.264.264,0,0,1,0,.5l-3.914,2.263a.958.958,0,0,1-.871,0Zm-20.659,3.862-3.932-2.267a.261.261,0,0,1,0-.494l3.926-2.27a.946.946,0,0,1,.856,0l3.931,2.266a.261.261,0,0,1,0,.5L239.2,288.73a.946.946,0,0,1-.859,0Zm-7.187,3.743-3.217-1.855a.478.478,0,0,1,0-.906l3.213-1.857a1.735,1.735,0,0,1,1.569,0l3.217,1.855a.478.478,0,0,1,0,.906l-3.213,1.857a1.737,1.737,0,0,1-1.573,0Zm13.676-7.888-3.252-1.875a.468.468,0,0,1,0-.886l3.246-1.877a1.7,1.7,0,0,1,1.536,0l3.251,1.874a.468.468,0,0,1,0,.887l-3.247,1.877a1.7,1.7,0,0,1-1.538,0Zm7.163-3.757-3.92-2.26a.264.264,0,0,1,0-.5l3.914-2.264a.958.958,0,0,1,.867,0l3.92,2.26a.264.264,0,0,1,0,.5l-3.914,2.264a.958.958,0,0,1-.87,0Zm-13.152-13.1,3.92,2.26a.264.264,0,0,1,0,.5l-3.913,2.264a.961.961,0,0,1-.868,0l-3.92-2.26a.264.264,0,0,1,0-.5l3.914-2.263a.958.958,0,0,1,.864,0Zm-20.671,3.856,3.931,2.266a.261.261,0,0,1,0,.5l-3.925,2.269a.947.947,0,0,1-.856,0l-3.931-2.266a.261.261,0,0,1,0-.495l3.926-2.269a.946.946,0,0,1,.852,0Zm-6.47,4.155,3.217,1.855a.478.478,0,0,1,0,.906L211.7,280.36a1.735,1.735,0,0,1-1.569,0l-3.217-1.855a.478.478,0,0,1,0-.906l3.213-1.857a1.734,1.734,0,0,1,1.565,0Zm13.642-7.907,3.251,1.874a.468.468,0,0,1,0,.886l-3.247,1.877a1.7,1.7,0,0,1-1.535,0l-3.252-1.874a.468.468,0,0,1,0-.886l3.246-1.877a1.7,1.7,0,0,1,1.534,0Zm7.006,4.039,3.251,1.875a.468.468,0,0,1,0,.887l-3.247,1.877a1.7,1.7,0,0,1-1.535,0l-3.252-1.874a.468.468,0,0,1,0-.886l3.247-1.877a1.7,1.7,0,0,1,1.533,0ZM204.886,279.7l3.169,1.827a.493.493,0,0,1,0,.934l-3.164,1.829a1.787,1.787,0,0,1-1.618,0l-3.169-1.826a.493.493,0,0,1,0-.934l3.164-1.83a1.79,1.79,0,0,1,1.618,0Zm20.284-4.078,3.931,2.266a.261.261,0,0,1,0,.494l-3.925,2.27a.945.945,0,0,1-.856,0l-3.932-2.266a.261.261,0,0,1,0-.494l3.926-2.27a.944.944,0,0,1,.856,0Zm6.659-11.934,3.92,2.26a.264.264,0,0,1,0,.5l-3.914,2.263a.958.958,0,0,1-.867,0l-3.92-2.26a.264.264,0,0,1,0-.5l3.914-2.264a.96.96,0,0,1,.867,0ZM197.88,275.665l3.169,1.827a.493.493,0,0,1,0,.934l-3.164,1.83a1.789,1.789,0,0,1-1.618,0l-3.169-1.827a.493.493,0,0,1,0-.934l3.164-1.83a1.786,1.786,0,0,1,1.618,0Zm97.352,40.349,3.932,2.266a.261.261,0,0,1,0,.494l-3.926,2.27a.944.944,0,0,1-.856,0l-3.931-2.266a.261.261,0,0,1,0-.494l3.926-2.27a.944.944,0,0,1,.855,0Zm-84.421-64.44,11.078,6.386a.264.264,0,0,1,0,.5l-3.914,2.264a.958.958,0,0,1-.867,0L206.03,254.34a.264.264,0,0,1,0-.5l3.914-2.263a.958.958,0,0,1,.867,0Zm-11.439,14.7a.261.261,0,0,1,0-.494l3.926-2.27a.946.946,0,0,1,.856,0l3.931,2.266a.261.261,0,0,1,0,.495l-3.926,2.269a.946.946,0,0,1-.856,0Zm-8.5,5.354,3.169,1.827a.493.493,0,0,1,0,.934l-3.164,1.83a1.789,1.789,0,0,1-1.618,0l-3.169-1.826a.493.493,0,0,1,0-.934l3.164-1.83a1.788,1.788,0,0,1,1.62,0ZM218.7,279.78l3.217,1.855a.478.478,0,0,1,0,.906L218.7,284.4a1.732,1.732,0,0,1-1.569,0l-3.217-1.854a.478.478,0,0,1,0-.906l3.212-1.857a1.736,1.736,0,0,1,1.574,0Zm-28.025-16.155,17.1,9.856a.479.479,0,0,1,0,.906l-3.213,1.857a1.734,1.734,0,0,1-1.569,0l-17.1-9.857a.478.478,0,0,1,0-.906l3.213-1.857a1.732,1.732,0,0,1,1.568,0Zm-6.806,3.963,3.169,1.827a.493.493,0,0,1,0,.934l-3.164,1.83a1.791,1.791,0,0,1-1.618,0l-3.169-1.827a.493.493,0,0,1,0-.934l3.164-1.829a1.786,1.786,0,0,1,1.617,0ZM205.2,256.226l8.491,4.895a1.006,1.006,0,0,1,0,1.906l-1.483.857a3.65,3.65,0,0,1-3.3,0l-3.7-2.135a3.647,3.647,0,0,0-3.3,0l-3.541,2.048a3.651,3.651,0,0,1-3.3,0l-1.485-.856a1.006,1.006,0,0,1,0-1.906l8.323-4.812a3.647,3.647,0,0,1,3.3,0Zm62.743,59.829,3.169,1.826a.493.493,0,0,1,0,.934l-3.164,1.83a1.791,1.791,0,0,1-1.618,0l-3.169-1.827a.493.493,0,0,1,0-.934l3.164-1.829a1.786,1.786,0,0,1,1.617,0ZM211.98,283.793,257.1,309.8a.493.493,0,0,1,0,.934l-3.164,1.829a1.789,1.789,0,0,1-1.618,0L207.2,286.557a.493.493,0,0,1,0-.934l3.164-1.83A1.789,1.789,0,0,1,211.98,283.793Zm62.768,28.3,3.217,1.855a.478.478,0,0,1,0,.906l-3.213,1.857a1.734,1.734,0,0,1-1.569,0l-3.217-1.855a.478.478,0,0,1,0-.906l3.212-1.857a1.734,1.734,0,0,1,1.569,0Zm6.472-4.155,3.931,2.267a.261.261,0,0,1,0,.494l-3.926,2.27a.946.946,0,0,1-.855,0l-3.932-2.266a.261.261,0,0,1,0-.494l3.926-2.27a.946.946,0,0,1,.856,0Zm7.006,4.039,3.931,2.266a.261.261,0,0,1,0,.495l-3.926,2.269a.946.946,0,0,1-.856,0l-3.931-2.266a.261.261,0,0,1,0-.494l3.926-2.269a.944.944,0,0,1,.856,0ZM274.948,320.1l3.169,1.827a.493.493,0,0,1,0,.934l-3.164,1.83a1.787,1.787,0,0,1-1.618,0l-3.169-1.826a.493.493,0,0,1,0-.934l3.164-1.83a1.788,1.788,0,0,1,1.618,0Zm6.806-3.963,3.217,1.855a.478.478,0,0,1,0,.906l-3.213,1.857a1.735,1.735,0,0,1-1.569,0l-3.217-1.855a.478.478,0,0,1,0-.906l3.212-1.858a1.738,1.738,0,0,1,1.569,0Zm13.586-7.94,10.314,5.946a.468.468,0,0,1,0,.886l-3.247,1.877a1.7,1.7,0,0,1-1.535,0l-10.314-5.945a.468.468,0,0,1,0-.886L293.8,308.2a1.7,1.7,0,0,1,1.534,0Zm-13.957-8.045,3.252,1.874a.468.468,0,0,1,0,.887l-3.247,1.877a1.7,1.7,0,0,1-1.535,0l-3.253-1.88a.468.468,0,0,1,0-.887l3.247-1.877a1.7,1.7,0,0,1,1.535,0Zm-7.169,3.753,3.931,2.266a.261.261,0,0,1,0,.495l-3.925,2.269a.947.947,0,0,1-.856,0l-3.931-2.267a.261.261,0,0,1,0-.494l3.926-2.27a.946.946,0,0,1,.854,0Zm13.664-7.9,3.92,2.26a.264.264,0,0,1,0,.5l-3.914,2.264a.958.958,0,0,1-.867,0l-3.92-2.26a.264.264,0,0,1,0-.5L287.011,296a.956.956,0,0,1,.867,0Zm7.006,4.039,3.92,2.26a.264.264,0,0,1,0,.5l-3.913,2.263a.96.96,0,0,1-.868,0l-3.92-2.26a.264.264,0,0,1,0-.5l3.914-2.263a.958.958,0,0,1,.867,0Zm-27.143,8.011,3.217,1.855a.478.478,0,0,1,0,.906l-3.213,1.858a1.737,1.737,0,0,1-1.569,0l-3.217-1.855a.478.478,0,0,1,0-.906l3.212-1.857a1.736,1.736,0,0,1,1.57,0Zm20.648-3.869,3.251,1.874a.468.468,0,0,1,0,.887l-3.246,1.877a1.7,1.7,0,0,1-1.535,0l-3.252-1.874a.468.468,0,0,1,0-.886l3.246-1.877a1.7,1.7,0,0,1,1.536,0Zm-27.454,7.832,3.169,1.827a.493.493,0,0,1,0,.934l-3.164,1.83a1.789,1.789,0,0,1-1.618,0l-3.169-1.826a.493.493,0,0,1,0-.934l3.164-1.83a1.788,1.788,0,0,1,1.618,0Z" transform="translate(-178.752 -251.472)" fill="url(#linear-gradient-4)"/>
                  <path id="Path_2175" data-name="Path 2175" d="M277.356,317.607l48.869,28.214,19.447-11.228L296.8,306.38Z" transform="translate(-274.998 -270.979)" fill="url(#linear-gradient-5)"/>
                </g>
              </g>
            </g>
          </g>
          <g id="Group_4674" data-name="Group 4674" transform="translate(64.008)">
            <path id="Path_2176" data-name="Path 2176" d="M121.6,190.938l123.22,71.141a2.04,2.04,0,0,0,3.019-1.355l16.906-82.078a2.041,2.041,0,0,0-.978-2.179l-123.22-71.141a2.04,2.04,0,0,0-3.019,1.355l-16.9,82.079a2.04,2.04,0,0,0,.976,2.178Z" transform="translate(-120.582 -104.338)" opacity="0.94" fill="url(#linear-gradient-6)"/>
            <g id="Group_4672" data-name="Group 4672" transform="translate(2.754 4.749)">
              <path id="Path_2177" data-name="Path 2177" d="M262.246,179.689,144.422,111.663a2.613,2.613,0,0,0-3.866,1.736l-15.649,75.975a2.613,2.613,0,0,0,1.253,2.79L243.985,260.19a2.613,2.613,0,0,0,3.866-1.736L263.5,182.479A2.614,2.614,0,0,0,262.246,179.689Z" transform="translate(-124.854 -111.311)" fill="url(#linear-gradient-7)"/>
              <g id="Group_4671" data-name="Group 4671" transform="translate(13.675 12.433)">
                <path id="Path_2178" data-name="Path 2178" d="M153.31,136.013l93.214,54.064,1.049-5.418L154.359,130.6Z" transform="translate(-140.896 -130.595)" fill="url(#linear-gradient-8)"/>
                <path id="Path_2179" data-name="Path 2179" d="M156.139,207.177l61.555,35.7,6.483-33.487-61.555-35.7Z" transform="translate(-119.323 -145.906)" fill="#54c9ff"/>
                <path id="Path_2180" data-name="Path 2180" d="M286.257,193.919,260.01,178.7l6.483-33.487,26.247,15.223Z" transform="translate(-254.854 -135.787)" fill="#2069c7"/>
                <path id="Path_2181" data-name="Path 2181" d="M168.134,275.324l40.725,23.62,4.052-20.933-40.725-23.62Z" transform="translate(-115.79 -174.577)" fill="#064280"/>
                <path id="Path_2182" data-name="Path 2182" d="M238.2,228.4l47.9,27.781,4.052-20.933-47.9-27.78Z" transform="translate(-238.197 -157.908)" fill="#529dfa"/>
                <path id="Path_2183" data-name="Path 2183" d="M173.493,281.851l14.923,8.655-.2,1.006L173.3,282.857Z" transform="translate(-94.624 -184.333)" fill="#0182aa"/>
                <path id="Path_2184" data-name="Path 2184" d="M174.394,288.629l12.563,7.287-.2,1.006L174.2,289.635Z" transform="translate(-93.747 -186.742)" fill="#0182aa"/>
                <path id="Path_2185" data-name="Path 2185" d="M175.3,290.644l15.5,8.989-.2,1.006-15.5-8.989Z" transform="translate(-98.165 -187.458)" fill="#0182aa"/>
                <path id="Path_2186" data-name="Path 2186" d="M176.2,297.116l13.481,7.819-.2,1.006L176,298.122Z" transform="translate(-97.63 -189.757)" fill="#0182aa"/>
                <path id="Path_2187" data-name="Path 2187" d="M177.1,305.722l9.09,5.272-.2,1.006-9.09-5.272Z" transform="translate(-94.721 -192.814)" fill="#0182aa"/>
                <path id="Path_2188" data-name="Path 2188" d="M202.371,262.838l17.438,10.114-.2,1.006-17.438-10.114Z" transform="translate(-144.637 -177.579)" fill="#0182aa"/>
                <path id="Path_2189" data-name="Path 2189" d="M203.273,270.311l14.307,8.3-.2,1.006-14.307-8.3Z" transform="translate(-142.988 -180.234)" fill="#0182aa"/>
                <path id="Path_2190" data-name="Path 2190" d="M204.174,279.7l9.051,5.249-.2,1.006-9.05-5.249Z" transform="translate(-139.214 -183.568)" fill="#0182aa"/>
                <path id="Path_2191" data-name="Path 2191" d="M205.075,276.806l17.438,10.114-.2,1.006L204.88,277.812Z" transform="translate(-149.084 -182.541)" fill="#0182aa"/>
                <path id="Path_2192" data-name="Path 2192" d="M205.977,284.56l13.994,8.117-.2,1.006-13.994-8.117Z" transform="translate(-147.123 -185.296)" fill="#0182aa"/>
                <path id="Path_2193" data-name="Path 2193" d="M241.2,229.134l44.656,25.9,3.423-17.683-44.656-25.9Z" transform="translate(-239.263 -159.322)" fill="none" stroke="#01ffff" stroke-miterlimit="10" stroke-width="0.26"/>
                <line id="Line_210" data-name="Line 210" x1="44.656" y1="25.901" transform="translate(3.039 64.112)" fill="none" stroke="#01ffff" stroke-miterlimit="10" stroke-width="0.26"/>
                <line id="Line_211" data-name="Line 211" x1="44.656" y1="25.901" transform="translate(4.201 58.108)" fill="none" stroke="#01ffff" stroke-miterlimit="10" stroke-width="0.26"/>
                <path id="Path_2194" data-name="Path 2194" d="M287.449,255.458l-3-7.858-5.371,2.443-5.208-17.867-6.94,6-3.048-6.965-7.029,7.759-2.071-15.256-4.006,8.367-1.688-9.449-2.484-1.441" transform="translate(-240.921 -162.782)" fill="none" stroke="#15ff5f" stroke-linecap="round" stroke-linejoin="round" stroke-width="1.041"/>
                <path id="Path_2195" data-name="Path 2195" d="M156.735,209.839l8.654,5.019L166,211.72l-8.654-5.019Z" transform="translate(-61.527 -157.634)" fill="#889fff"/>
                <path id="Path_2196" data-name="Path 2196" d="M162.135,242.624,180.022,253l5.347-27.622L167.482,215Z" transform="translate(-84.382 -160.583)" fill="#239bd5"/>
                <path id="Path_2197" data-name="Path 2197" d="M199.184,186.376l30.546,17.717.823-4.251-30.546-17.717Z" transform="translate(-153.45 -148.903)" fill="#239bd5"/>
                <path id="Path_2198" data-name="Path 2198" d="M201.215,201.688,226.4,216.3l.823-4.251L202.034,197.44Z" transform="translate(-151.434 -154.343)" fill="#239bd5"/>
                <path id="Path_2199" data-name="Path 2199" d="M203.246,207.361l30.546,17.717.823-4.251L204.069,203.11Z" transform="translate(-160.132 -156.358)" fill="#239bd5"/>
                <path id="Path_2200" data-name="Path 2200" d="M205.277,226.017l21.471,12.453.823-4.251L206.1,221.766Z" transform="translate(-154.397 -162.986)" fill="#239bd5"/>
                <path id="Path_2201" data-name="Path 2201" d="M264.277,173.584l4.606,2.671,1.138-5.876-4.606-2.671Z" transform="translate(-234.884 -143.781)" fill="#54c9ff"/>
                <path id="Path_2202" data-name="Path 2202" d="M267.1,188.182l4.606,2.671,1.138-5.876-4.606-2.671Z" transform="translate(-239.532 -148.967)" fill="#54c9ff"/>
                <path id="Path_2203" data-name="Path 2203" d="M269.929,202.78l4.606,2.671,1.138-5.876-4.606-2.671Z" transform="translate(-244.18 -154.153)" fill="#54c9ff"/>
                <path id="Path_2204" data-name="Path 2204" d="M275.221,153.89l15.272,8.858.411-2.125-15.272-8.858Z" transform="translate(-262.825 -138.116)" fill="#5796ff"/>
                <path id="Path_2205" data-name="Path 2205" d="M276.666,161.356l15.272,8.858.411-2.125-15.273-8.858Z" transform="translate(-265.202 -140.769)" fill="#5796ff"/>
                <path id="Path_2206" data-name="Path 2206" d="M278.111,168.822l15.273,8.858.411-2.125L278.523,166.7Z" transform="translate(-267.579 -143.421)" fill="#5796ff"/>
                <path id="Path_2207" data-name="Path 2207" d="M279.557,176.288l15.273,8.858.411-2.125-15.273-8.858Z" transform="translate(-269.956 -146.074)" fill="#5796ff"/>
                <path id="Path_2208" data-name="Path 2208" d="M281,183.754l15.273,8.858.411-2.125-15.272-8.858Z" transform="translate(-272.333 -148.726)" fill="#5796ff"/>
                <path id="Path_2209" data-name="Path 2209" d="M282.447,191.22l15.272,8.858.411-2.125L282.858,189.1Z" transform="translate(-274.71 -151.379)" fill="#5796ff"/>
                <path id="Path_2210" data-name="Path 2210" d="M252.1,136.623l28.194,16.353.148-.766-28.2-16.353Z" transform="translate(-237.454 -132.465)" fill="#89d1ff"/>
              </g>
            </g>
            <g id="Group_4673" data-name="Group 4673" transform="translate(17.735)">
              <path id="Path_2211" data-name="Path 2211" d="M226.554,261.837l-.074.037v-.014Zm-108.141-156.8c-.014.01-.03.015-.043.026h0Zm1.552-.8a2.027,2.027,0,0,1,2.061-.015l123.22,71.141a2.041,2.041,0,0,1,.979,2.179L229.319,259.62a2,2,0,0,1-1.373,1.511v.021l-.9.446a2.009,2.009,0,0,0,.849-1.264l16.9-82.081a2.041,2.041,0,0,0-.978-2.179L120.6,104.933a2.016,2.016,0,0,0-1.73-.134l1.094-.566Z" transform="translate(-118.367 -103.945)" fill="url(#linear-gradient-9)"/>
              <path id="Path_2212" data-name="Path 2212" d="M226.554,261.837l-.074.037v-.014Zm-108.141-156.8c-.014.01-.03.015-.043.026h0Zm1.552-.8a2.027,2.027,0,0,1,2.061-.015l123.22,71.141a2.041,2.041,0,0,1,.979,2.179L229.319,259.62a2,2,0,0,1-1.373,1.511v.021l-.9.446a2.009,2.009,0,0,0,.849-1.264l16.9-82.081a2.041,2.041,0,0,0-.978-2.179L120.6,104.933a2.016,2.016,0,0,0-1.73-.134l1.094-.566Z" transform="translate(-118.367 -103.945)" fill="url(#linear-gradient-10)"/>
            </g>
          </g>
        </g>
      </g>
    </g>
  </g>
</svg>
