<svg xmlns="http://www.w3.org/2000/svg" xmlns:xlink="http://www.w3.org/1999/xlink" width="2524.117" height="1168.481" viewBox="0 0 2524.117 1168.481">
  <defs>
    <linearGradient id="linear-gradient" x1="0.5" x2="0.5" y2="1" gradientUnits="objectBoundingBox">
      <stop offset="0" stop-color="#007ee6"/>
      <stop offset="1" stop-color="#06d3fe"/>
    </linearGradient>
    <filter id="Rectangle_278" x="360.817" y="43.312" width="1803" height="1021" filterUnits="userSpaceOnUse">
      <feOffset input="SourceAlpha"/>
      <feGaussianBlur stdDeviation="49.5" result="blur"/>
      <feFlood flood-opacity="0.161"/>
      <feComposite operator="in" in2="blur"/>
      <feComposite in="SourceGraphic"/>
    </filter>
    <clipPath id="clip-path">
      <rect id="Rectangle_279" data-name="Rectangle 279" width="875" height="583" fill="none"/>
    </clipPath>
    <linearGradient id="linear-gradient-4" x1="0.58" y1="0.111" x2="0.421" y2="0.887" gradientUnits="objectBoundingBox">
      <stop offset="0" stop-color="#89daf4"/>
      <stop offset="1" stop-color="#008dd7"/>
    </linearGradient>
    <linearGradient id="linear-gradient-5" y1="0.5" x2="1" y2="0.5" gradientUnits="objectBoundingBox">
      <stop offset="0" stop-color="#144188"/>
      <stop offset="0.997" stop-color="#1a7cde"/>
    </linearGradient>
    <linearGradient id="linear-gradient-6" y1="0.5" x2="1" y2="0.5" gradientUnits="objectBoundingBox">
      <stop offset="0" stop-color="#144188"/>
      <stop offset="0.998" stop-color="#102465"/>
    </linearGradient>
    <linearGradient id="linear-gradient-7" x1="0.521" y1="0.177" x2="0.485" y2="0.729" gradientUnits="objectBoundingBox">
      <stop offset="0" stop-color="#0276ce" stop-opacity="0"/>
      <stop offset="0.061" stop-color="#0276ce" stop-opacity="0.165"/>
      <stop offset="0.154" stop-color="#0276ce" stop-opacity="0.384"/>
      <stop offset="0.251" stop-color="#0276ce" stop-opacity="0.573"/>
      <stop offset="0.351" stop-color="#0276ce" stop-opacity="0.729"/>
      <stop offset="0.453" stop-color="#0276ce" stop-opacity="0.847"/>
      <stop offset="0.561" stop-color="#0276ce" stop-opacity="0.933"/>
      <stop offset="0.676" stop-color="#0276ce" stop-opacity="0.984"/>
      <stop offset="0.812" stop-color="#0276ce"/>
    </linearGradient>
    <linearGradient id="linear-gradient-11" x1="0.521" y1="0.177" x2="0.485" y2="0.729" gradientUnits="objectBoundingBox">
      <stop offset="0" stop-color="#006ac6" stop-opacity="0"/>
      <stop offset="0.05" stop-color="#006ac6" stop-opacity="0.133"/>
      <stop offset="0.145" stop-color="#006ac6" stop-opacity="0.361"/>
      <stop offset="0.244" stop-color="#006bc6" stop-opacity="0.561"/>
      <stop offset="0.345" stop-color="#006bc6" stop-opacity="0.718"/>
      <stop offset="0.45" stop-color="#006bc6" stop-opacity="0.843"/>
      <stop offset="0.56" stop-color="#006bc6" stop-opacity="0.929"/>
      <stop offset="0.678" stop-color="#006bc6" stop-opacity="0.984"/>
      <stop offset="0.817" stop-color="#006cc7"/>
    </linearGradient>
    <linearGradient id="linear-gradient-15" x1="0.516" y1="0.177" x2="0.489" y2="0.729" gradientUnits="objectBoundingBox">
      <stop offset="0" stop-color="#0044ae" stop-opacity="0"/>
      <stop offset="0.004" stop-color="#0044ae" stop-opacity="0.012"/>
      <stop offset="0.104" stop-color="#0044ae" stop-opacity="0.271"/>
      <stop offset="0.208" stop-color="#0044ae" stop-opacity="0.494"/>
      <stop offset="0.316" stop-color="#0044ae" stop-opacity="0.678"/>
      <stop offset="0.426" stop-color="#0044ae" stop-opacity="0.82"/>
      <stop offset="0.542" stop-color="#0044ae" stop-opacity="0.922"/>
      <stop offset="0.666" stop-color="#0044ae" stop-opacity="0.98"/>
      <stop offset="0.812" stop-color="#0044ae"/>
    </linearGradient>
    <linearGradient id="linear-gradient-20" x1="0.503" y1="0.08" x2="0.496" y2="0.805" gradientUnits="objectBoundingBox">
      <stop offset="0.037" stop-color="#93fffd" stop-opacity="0"/>
      <stop offset="0.135" stop-color="#95fefd" stop-opacity="0.071"/>
      <stop offset="0.332" stop-color="#9afdfd" stop-opacity="0.251"/>
      <stop offset="0.608" stop-color="#a3fcfe" stop-opacity="0.545"/>
      <stop offset="0.951" stop-color="#b0fbfe" stop-opacity="0.941"/>
      <stop offset="1" stop-color="#b2fbff"/>
    </linearGradient>
    <linearGradient id="linear-gradient-24" x1="0.498" y1="0.128" x2="0.484" y2="0.887" xlink:href="#linear-gradient-20"/>
    <linearGradient id="linear-gradient-28" x1="0.66" y1="0.289" x2="0.276" y2="0.794" xlink:href="#linear-gradient-5"/>
    <linearGradient id="linear-gradient-29" x1="1.004" y1="0.352" x2="-0.907" y2="0.634" gradientUnits="objectBoundingBox">
      <stop offset="0.153" stop-color="#144188"/>
      <stop offset="0.997" stop-color="#1a7cde"/>
    </linearGradient>
    <linearGradient id="linear-gradient-37" x1="0.647" y1="-0.012" x2="0.186" y2="0.855" xlink:href="#linear-gradient-20"/>
    <linearGradient id="linear-gradient-38" x1="0.986" y1="0.501" x2="-0.233" y2="0.499" xlink:href="#linear-gradient-5"/>
    <linearGradient id="linear-gradient-39" x1="1.343" y1="0.506" x2="0.34" y2="0.489" xlink:href="#linear-gradient-5"/>
    <linearGradient id="linear-gradient-40" x1="0.49" y1="0.926" x2="0.503" y2="0.327" gradientUnits="objectBoundingBox">
      <stop offset="0" stop-color="#0044ae"/>
      <stop offset="0.183" stop-color="#0044ae" stop-opacity="0.765"/>
      <stop offset="0.461" stop-color="#0044ae" stop-opacity="0.435"/>
      <stop offset="0.7" stop-color="#0044ae" stop-opacity="0.2"/>
      <stop offset="0.887" stop-color="#0044ae" stop-opacity="0.055"/>
      <stop offset="1" stop-color="#0044ae" stop-opacity="0"/>
    </linearGradient>
    <linearGradient id="linear-gradient-45" x1="0.476" y1="0.85" x2="0.524" y2="0.308" gradientUnits="objectBoundingBox">
      <stop offset="0" stop-color="#0091de"/>
      <stop offset="0.094" stop-color="#0091de" stop-opacity="0.965"/>
      <stop offset="0.242" stop-color="#0093df" stop-opacity="0.863"/>
      <stop offset="0.424" stop-color="#0095e1" stop-opacity="0.698"/>
      <stop offset="0.634" stop-color="#0098e3" stop-opacity="0.475"/>
      <stop offset="0.863" stop-color="#009de6" stop-opacity="0.184"/>
      <stop offset="1" stop-color="#00a0e8" stop-opacity="0"/>
    </linearGradient>
    <linearGradient id="linear-gradient-57" x1="0.642" y1="0.005" x2="0.238" y2="1.418" gradientUnits="objectBoundingBox">
      <stop offset="0" stop-color="#cdeffb"/>
      <stop offset="1" stop-color="#89daf4"/>
    </linearGradient>
    <linearGradient id="linear-gradient-58" x1="0.493" y1="0.181" x2="0.467" y2="0.901" xlink:href="#linear-gradient-20"/>
    <linearGradient id="linear-gradient-59" x1="0.499" y1="0.097" x2="0.501" y2="0.818" xlink:href="#linear-gradient-20"/>
    <linearGradient id="linear-gradient-67" x1="-0.033" y1="0.368" x2="1.003" y2="0.624" gradientUnits="objectBoundingBox">
      <stop offset="0" stop-color="#f8f8f8"/>
      <stop offset="1" stop-color="#497684"/>
      <stop offset="1" stop-color="#010333"/>
    </linearGradient>
    <linearGradient id="linear-gradient-68" x1="-0.051" y1="0.361" x2="0.986" y2="0.739" gradientUnits="objectBoundingBox">
      <stop offset="0.089" stop-color="#064280"/>
      <stop offset="0.371" stop-color="#0d0730"/>
      <stop offset="0.766" stop-color="#010333"/>
      <stop offset="0.971" stop-color="#012060"/>
    </linearGradient>
    <linearGradient id="linear-gradient-69" x1="0.666" y1="0.97" x2="0.671" y2="0.992" gradientUnits="objectBoundingBox">
      <stop offset="0" stop-color="#010333" stop-opacity="0"/>
      <stop offset="0.229" stop-color="#20f8fd"/>
      <stop offset="0.78" stop-color="#010333" stop-opacity="0"/>
    </linearGradient>
    <linearGradient id="linear-gradient-70" x1="-0.041" y1="0.084" x2="1.014" y2="0.898" gradientUnits="objectBoundingBox">
      <stop offset="0" stop-color="#0182aa"/>
      <stop offset="0.611" stop-color="#0d0730"/>
      <stop offset="1" stop-color="#010333"/>
    </linearGradient>
    <linearGradient id="linear-gradient-71" x1="-0.061" y1="0.256" x2="1.472" y2="0.922" xlink:href="#linear-gradient-70"/>
    <linearGradient id="linear-gradient-72" x1="0.16" y1="0.014" x2="0.947" y2="1.138" gradientUnits="objectBoundingBox">
      <stop offset="0.089" stop-color="#064280"/>
      <stop offset="0.625" stop-color="#0d0730"/>
      <stop offset="1" stop-color="#010333"/>
    </linearGradient>
    <linearGradient id="linear-gradient-73" x1="0.136" y1="0.056" x2="0.93" y2="1.024" gradientUnits="objectBoundingBox">
      <stop offset="0" stop-color="#22b2df"/>
      <stop offset="1" stop-color="#00447f" stop-opacity="0.98"/>
      <stop offset="1" stop-color="#012060"/>
      <stop offset="1" stop-color="#000c34"/>
      <stop offset="1" stop-color="#00447f"/>
    </linearGradient>
    <linearGradient id="linear-gradient-74" x1="1.411" y1="-1.028" x2="0.145" y2="-1.028" gradientUnits="objectBoundingBox">
      <stop offset="0" stop-color="#7659ff"/>
      <stop offset="1" stop-color="#748bff"/>
    </linearGradient>
    <linearGradient id="linear-gradient-75" x1="0.04" y1="0.03" x2="0.676" y2="0.534" gradientUnits="objectBoundingBox">
      <stop offset="0.079" stop-color="#00518b"/>
      <stop offset="0.284" stop-color="#0182aa"/>
      <stop offset="0.625" stop-color="#0d0730"/>
      <stop offset="1" stop-color="#010333"/>
    </linearGradient>
    <linearGradient id="linear-gradient-76" x1="0.959" y1="0.59" x2="0.969" y2="0.591" gradientUnits="objectBoundingBox">
      <stop offset="0" stop-color="#010333" stop-opacity="0"/>
      <stop offset="0.272" stop-color="#0182aa"/>
      <stop offset="1" stop-color="#010333" stop-opacity="0"/>
    </linearGradient>
  </defs>
  <g id="Group_1" data-name="Group 1" transform="translate(-455 -424)">
    <rect id="Rectangle_3" data-name="Rectangle 3" width="183" height="268" transform="translate(455 560)" fill="#fff"/>
    <path id="Path_12138" data-name="Path 12138" d="M675.846,2.309C1022.65,2.747,1360.93,130.4,1357,416.14S1207.14,588.564,716.1,737.933,110.638,635.6-23.067,487.049,329.043,1.872,675.846,2.309Z" transform="translate(1622.083 808.813)" fill="url(#linear-gradient)"/>
    <path id="Path_12137" data-name="Path 12137" d="M345.949,21.823C529.155-96.431,884.64,91.518,873.755,206.588,862.771,322.7,777.538,334.467,494.513,402.662S2.02,357.716,15.536,214.443,162.743,140.076,345.949,21.823Z" transform="translate(459.083 439.813)" fill="url(#linear-gradient)"/>
    <g transform="matrix(1, 0, 0, 1, 455, 424)" filter="url(#Rectangle_278)">
      <rect id="Rectangle_278-2" data-name="Rectangle 278" width="1506" height="724" rx="20" transform="translate(509.32 191.81)" fill="#fff"/>
    </g>
    <path id="Path_2162" data-name="Path 2162" d="M-14344,898c-.317-4.214-80.672-77.924-45.812-230.292C-14355.7,518.9-14179.9,314-14179.9,314s239.953,157,397.582,101.892S-13510,380.42-13510,380.42l-.029,501.937-5.565,9.5-10.094,6.146Z" transform="translate(15980.316 441.813)" fill="url(#linear-gradient)"/>
    <g id="Group_4803" data-name="Group 4803" transform="translate(1595.317 756.813)">
      <g id="Group_4802" data-name="Group 4802" transform="translate(0.001)" clip-path="url(#clip-path)">
        <g id="Group_4694" data-name="Group 4694" transform="translate(253.968 183.976)">
          <g id="Group_4693" data-name="Group 4693">
            <g id="Group_4692" data-name="Group 4692">
              <g id="Group_4691" data-name="Group 4691">
                <path id="Path_2232" data-name="Path 2232" d="M240.709,196.208l-16.019,9.3-16.089-9.3,16.089-9.3Z" transform="translate(-208.602 -186.909)" fill="url(#linear-gradient-4)"/>
              </g>
              <path id="Path_2233" data-name="Path 2233" d="M238.419,194.884V508.912l-16.019,9.3V204.183Z" transform="translate(-206.311 -185.585)" fill="url(#linear-gradient-5)"/>
              <path id="Path_2234" data-name="Path 2234" d="M224.69,204.183V518.211l-16.089-9.3V194.884Z" transform="translate(-208.602 -185.585)" fill="url(#linear-gradient-6)"/>
            </g>
          </g>
          <path id="Path_2235" data-name="Path 2235" d="M224.69,186.909l-16.088,9.3V510.236l16.088,9.3,16.019-9.3V196.208Z" transform="translate(-208.602 -186.909)" fill="url(#linear-gradient-7)"/>
        </g>
        <g id="Group_4698" data-name="Group 4698" transform="translate(238.411 251.176)">
          <g id="Group_4697" data-name="Group 4697">
            <g id="Group_4696" data-name="Group 4696">
              <g id="Group_4695" data-name="Group 4695">
                <path id="Path_2236" data-name="Path 2236" d="M216.737,250.763l-10.715,6.22-10.762-6.22,10.762-6.22Z" transform="translate(-195.259 -244.542)" fill="url(#linear-gradient-4)"/>
              </g>
              <path id="Path_2237" data-name="Path 2237" d="M215.2,249.877V459.941l-10.715,6.22V256.1Z" transform="translate(-193.727 -243.657)" fill="url(#linear-gradient-5)"/>
              <path id="Path_2238" data-name="Path 2238" d="M206.022,256.1V466.162l-10.762-6.22V249.877Z" transform="translate(-195.259 -243.657)" fill="url(#linear-gradient-6)"/>
            </g>
          </g>
          <path id="Path_2239" data-name="Path 2239" d="M206.021,244.542l-10.762,6.22V460.827l10.762,6.22,10.716-6.22V250.763Z" transform="translate(-195.259 -244.542)" fill="url(#linear-gradient-11)"/>
        </g>
        <g id="Group_4702" data-name="Group 4702" transform="translate(57.821 420.712)">
          <g id="Group_4701" data-name="Group 4701">
            <g id="Group_4700" data-name="Group 4700">
              <g id="Group_4699" data-name="Group 4699">
                <path id="Path_2240" data-name="Path 2240" d="M72.487,399.241l-16.019,9.3-16.089-9.3,16.089-9.3Z" transform="translate(-40.379 -389.942)" fill="url(#linear-gradient-4)"/>
              </g>
              <path id="Path_2241" data-name="Path 2241" d="M70.2,397.917V625.8l-16.019,9.3V407.216Z" transform="translate(-38.089 -388.618)" fill="url(#linear-gradient-5)"/>
              <path id="Path_2242" data-name="Path 2242" d="M56.468,407.216V635.1l-16.089-9.3V397.917Z" transform="translate(-40.379 -388.618)" fill="url(#linear-gradient-6)"/>
            </g>
          </g>
          <path id="Path_2243" data-name="Path 2243" d="M56.468,389.942l-16.088,9.3v227.88l16.088,9.3,16.019-9.3V399.241Z" transform="translate(-40.379 -389.942)" fill="url(#linear-gradient-15)"/>
        </g>
        <g id="Group_4706" data-name="Group 4706" transform="translate(297.965 241.616)">
          <g id="Group_4705" data-name="Group 4705">
            <g id="Group_4704" data-name="Group 4704">
              <g id="Group_4703" data-name="Group 4703">
                <path id="Path_2244" data-name="Path 2244" d="M266.494,242.182l-10.058,5.839-10.1-5.838,10.1-5.839Z" transform="translate(-246.335 -236.344)" fill="url(#linear-gradient-4)"/>
              </g>
              <path id="Path_2245" data-name="Path 2245" d="M265.056,241.351V438.519L255,444.358V247.189Z" transform="translate(-244.897 -235.512)" fill="url(#linear-gradient-5)"/>
              <path id="Path_2246" data-name="Path 2246" d="M256.436,247.189V444.358l-10.1-5.838V241.351Z" transform="translate(-246.335 -235.512)" fill="url(#linear-gradient-6)"/>
            </g>
          </g>
          <path id="Path_2247" data-name="Path 2247" d="M256.436,236.344l-10.1,5.839V439.351l10.1,5.839,10.058-5.839V242.182Z" transform="translate(-246.335 -236.344)" fill="url(#linear-gradient-7)"/>
        </g>
        <g id="Group_4737" data-name="Group 4737" transform="translate(322.954 48.592)">
          <g id="Group_4710" data-name="Group 4710">
            <path id="Path_2248" data-name="Path 2248" d="M267.767,70.8V532.107l210.752,121.81L688.357,532.1V70.8Z" transform="translate(-267.767 -70.799)" opacity="0.561" fill="url(#linear-gradient-20)"/>
            <g id="Group_4709" data-name="Group 4709" transform="translate(0 137.958)">
              <g id="Group_4708" data-name="Group 4708">
                <g id="Group_4707" data-name="Group 4707">
                  <path id="Path_2249" data-name="Path 2249" d="M688.357,310.927,478.519,432.738,267.767,310.928,478.519,189.117Z" transform="translate(-267.767 -189.117)" fill="url(#linear-gradient-4)"/>
                </g>
                <path id="Path_2250" data-name="Path 2250" d="M658.353,293.585V598.569L448.515,720.38V415.4Z" transform="translate(-237.763 -171.775)" fill="url(#linear-gradient-5)"/>
                <path id="Path_2251" data-name="Path 2251" d="M478.519,415.4V720.38L267.767,598.57V293.586Z" transform="translate(-267.767 -171.775)" fill="url(#linear-gradient-6)"/>
              </g>
            </g>
            <path id="Path_2252" data-name="Path 2252" d="M448.515,435.467,658.353,313.656v-2.082L448.515,433.386Z" transform="translate(-237.763 -30.83)" fill="#fff"/>
            <path id="Path_2253" data-name="Path 2253" d="M267.767,313.657l210.752,121.81v-2.082L267.767,311.576Z" transform="translate(-267.767 -30.83)" fill="#fff"/>
          </g>
          <g id="Group_4711" data-name="Group 4711" transform="translate(13.281 97.047)">
            <path id="Path_2254" data-name="Path 2254" d="M434.077,154.03l8.329,59.255,8.867,5.119,8.809-5.119,7.309-59.255Z" transform="translate(-253.44 -154.03)" opacity="0.561" fill="url(#linear-gradient-24)"/>
            <path id="Path_2255" data-name="Path 2255" d="M441.22,205.578l8.809-5.12,8.867,5.119-8.809,5.119Z" transform="translate(-252.254 -146.323)" fill="#a5ffff"/>
            <path id="Path_2256" data-name="Path 2256" d="M279.157,243.316l8.329,59.255,8.867,5.119,8.809-5.119,7.31-59.255Z" transform="translate(-279.157 -139.209)" opacity="0.561" fill="url(#linear-gradient-24)"/>
            <path id="Path_2257" data-name="Path 2257" d="M286.3,294.864l8.809-5.12,8.867,5.119-8.809,5.119Z" transform="translate(-277.971 -131.502)" fill="#a5ffff"/>
            <path id="Path_2258" data-name="Path 2258" d="M591.658,243.316l8.329,59.255,8.867,5.119,8.809-5.119,7.31-59.255Z" transform="translate(-227.282 -139.209)" opacity="0.561" fill="url(#linear-gradient-24)"/>
            <path id="Path_2259" data-name="Path 2259" d="M598.8,294.864l8.809-5.12,8.867,5.119-8.809,5.119Z" transform="translate(-226.096 -131.502)" fill="#a5ffff"/>
            <path id="Path_2261" data-name="Path 2261" d="M441.22,382.364l8.809-5.119,8.867,5.119-8.809,5.119Z" transform="translate(-252.254 -116.976)" fill="#a5ffff"/>
            <path id="Path_2260" data-name="Path 2260" d="M434.077,330.816l8.329,59.255,8.867,5.119,8.809-5.119,7.309-59.255Z" transform="translate(-253.44 -124.684)" opacity="0.561" fill="url(#linear-gradient-24)"/>
          </g>
          <g id="Group_4726" data-name="Group 4726" transform="translate(70.993 59.097)">
            <g id="Group_4725" data-name="Group 4725">
              <g id="Group_4724" data-name="Group 4724">
                <path id="Path_2304" data-name="Path 2304" d="M374.75,147.011l5.638-6.429a4.781,4.781,0,0,1-.034-.48,7.192,7.192,0,0,1,3.26-5.646c1.8-1.041,3.275-.2,3.281,1.869a7.192,7.192,0,0,1-3.26,5.646,2.3,2.3,0,0,1-2.339.215l-5.638,6.425a3.484,3.484,0,0,1,.034.482,7.2,7.2,0,0,1-3.259,5.646,3.309,3.309,0,0,1-1.033.4l-7.479,15.923a2.587,2.587,0,0,1,.6,1.81,7.192,7.192,0,0,1-3.259,5.646c-1.8,1.041-3.275.2-3.281-1.869a5.824,5.824,0,0,1,.373-1.969l-6.942-4.24A5.852,5.852,0,0,1,350,171.63a3.07,3.07,0,0,1-1.414.443L341.694,184.3a2.878,2.878,0,0,1,.382,1.532,7.194,7.194,0,0,1-3.259,5.647c-1.8,1.041-3.275.2-3.281-1.87a7.19,7.19,0,0,1,3.259-5.646,3,3,0,0,1,1.415-.443l6.89-12.23a2.882,2.882,0,0,1-.382-1.527,7.192,7.192,0,0,1,3.26-5.646c1.8-1.042,3.274-.2,3.28,1.869a5.823,5.823,0,0,1-.372,1.964l6.941,4.245a5.736,5.736,0,0,1,1.413-1.2,3.454,3.454,0,0,1,1.032-.4l7.479-15.918a2.587,2.587,0,0,1-.6-1.814,7.191,7.191,0,0,1,3.259-5.641,2.288,2.288,0,0,1,2.339-.215m17.377-25.321L330.171,157.46a3.356,3.356,0,0,0-1.518,2.635l.122,43.271c0,.967.688,1.357,1.529.871l61.954-35.769a3.355,3.355,0,0,0,1.523-2.633l-.122-43.271c0-.967-.691-1.358-1.532-.873" transform="translate(-328.653 -121.483)" fill="#00edf9" opacity="0.6"/>
                <path id="Path_2305" data-name="Path 2305" d="M382.634,132.673a7.192,7.192,0,0,0-3.26,5.646,4.781,4.781,0,0,0,.034.48l-5.638,6.429a2.288,2.288,0,0,0-2.339.215,7.191,7.191,0,0,0-3.259,5.641,2.587,2.587,0,0,0,.6,1.814l-7.479,15.918a3.455,3.455,0,0,0-1.032.4,5.736,5.736,0,0,0-1.413,1.19l-6.941-4.245a5.823,5.823,0,0,0,.372-1.964c-.006-2.073-1.476-2.912-3.28-1.869a7.192,7.192,0,0,0-3.26,5.646,2.882,2.882,0,0,0,.382,1.527l-6.89,12.23a3,3,0,0,0-1.415.443,7.19,7.19,0,0,0-3.259,5.646c.006,2.073,1.477,2.912,3.281,1.87a7.194,7.194,0,0,0,3.259-5.647,2.878,2.878,0,0,0-.382-1.532L347.6,170.29a3.07,3.07,0,0,0,1.414-.443,5.852,5.852,0,0,0,1.412-1.189l6.942,4.24a5.823,5.823,0,0,0-.373,1.969c.006,2.072,1.477,2.91,3.281,1.869a7.192,7.192,0,0,0,3.259-5.646,2.587,2.587,0,0,0-.6-1.81l7.479-15.923a3.308,3.308,0,0,0,1.033-.4,7.2,7.2,0,0,0,3.259-5.646,3.494,3.494,0,0,0-.034-.482l5.638-6.425a2.3,2.3,0,0,0,2.339-.215,7.192,7.192,0,0,0,3.26-5.646c-.006-2.072-1.477-2.91-3.281-1.869" transform="translate(-327.673 -119.699)" fill="#a5ffff"/>
              </g>
            </g>
          </g>
          <g id="Group_4729" data-name="Group 4729" transform="translate(39.143 149.329)">
            <g id="Group_4728" data-name="Group 4728">
              <g id="Group_4727" data-name="Group 4727">
                <path id="Path_2306" data-name="Path 2306" d="M312.38,231.041c-.269.156-.49.031-.491-.28a1.079,1.079,0,0,1,.487-.844l2.063-1.19c.271-.155.49-.03.491.28a1.079,1.079,0,0,1-.487.844l-2.063,1.19m4.135-2.387c-.269.156-.49.03-.49-.28a1.073,1.073,0,0,1,.487-.844l2.065-1.193c.271-.156.49-.03.491.28a1.073,1.073,0,0,1-.487.844l-2.066,1.193m-4.145-1.543c-.271.156-.49.031-.491-.28a1.068,1.068,0,0,1,.487-.844l17.912-10.341c.269-.155.49-.035.49.28a1.073,1.073,0,0,1-.487.844L312.37,227.112m-.012-3.933c-.271.155-.49.03-.491-.28a1.079,1.079,0,0,1,.487-.844l10.054-5.806c.274-.157.493-.033.494.278a1.073,1.073,0,0,1-.491.847l-10.054,5.806m12.15-7.015c-.271.156-.49.03-.491-.28a1.073,1.073,0,0,1,.487-.844l1.256-.724c.269-.156.49-.031.49.279a1.071,1.071,0,0,1-.487.844l-1.255.725m3.448-1.992c-.269.156-.49.031-.49-.279a1.073,1.073,0,0,1,.487-.845l8.2-4.736c.269-.156.49-.03.49.28a1.075,1.075,0,0,1-.486.844l-8.2,4.736m-15.608,5.077c-.271.155-.49.03-.491-.28a1.066,1.066,0,0,1,.487-.844l17.083-9.863c.271-.156.49-.035.491.28a1.076,1.076,0,0,1-.487.844l-17.083,9.863m19.218-11.1c-.271.155-.49.03-.491-.28a1.066,1.066,0,0,1,.487-.844l4.584-2.647c.271-.156.49-.035.491.28a1.073,1.073,0,0,1-.487.844l-4.584,2.647m-25.55,16.25c-.788.455-1.433.087-1.435-.819a3.15,3.15,0,0,1,1.426-2.474c.792-.457,1.435-.09,1.439.821a3.154,3.154,0,0,1-1.429,2.472m33.028-25.374-36.6,21.13a2.44,2.44,0,0,0-1.11,1.922l.051,17.8c0,.705.5.993,1.116.637l36.6-21.129a2.444,2.444,0,0,0,1.11-1.922l-.05-17.806c0-.709-.5-.992-1.117-.637" transform="translate(-301.337 -198.868)" fill="#00edf9" opacity="0.6"/>
                <path id="Path_2307" data-name="Path 2307" d="M327.929,206.935,310.846,216.8a1.066,1.066,0,0,0-.487.844c0,.31.22.435.491.28l17.083-9.863a1.076,1.076,0,0,0,.487-.844c0-.315-.22-.436-.491-.28" transform="translate(-299.839 -197.541)" fill="#a5ffff"/>
                <path id="Path_2308" data-name="Path 2308" d="M320.91,213.785l-10.054,5.806a1.079,1.079,0,0,0-.487.844c0,.31.22.435.491.28l10.054-5.806a1.073,1.073,0,0,0,.491-.847c0-.31-.22-.435-.494-.278" transform="translate(-299.838 -196.404)" fill="#a5ffff"/>
                <path id="Path_2309" data-name="Path 2309" d="M328.777,213.268l-17.912,10.341a1.068,1.068,0,0,0-.487.844c0,.311.22.436.491.28l17.911-10.341a1.073,1.073,0,0,0,.487-.844c0-.315-.22-.435-.49-.28" transform="translate(-299.836 -196.489)" fill="#a5ffff"/>
                <path id="Path_2310" data-name="Path 2310" d="M312.937,224.486l-2.063,1.19a1.079,1.079,0,0,0-.487.844c0,.311.222.436.491.28l2.063-1.19a1.079,1.079,0,0,0,.487-.844c0-.31-.22-.435-.491-.28" transform="translate(-299.835 -194.627)" fill="#a5ffff"/>
                <path id="Path_2311" data-name="Path 2311" d="M322.531,212.127l-1.256.724a1.073,1.073,0,0,0-.487.844c0,.31.22.436.491.28l1.255-.725a1.071,1.071,0,0,0,.487-.844c0-.31-.22-.435-.49-.279" transform="translate(-298.108 -196.679)" fill="#a5ffff"/>
                <path id="Path_2312" data-name="Path 2312" d="M332.437,206.978l-8.2,4.736a1.073,1.073,0,0,0-.487.845c0,.31.22.435.49.279l8.2-4.736a1.075,1.075,0,0,0,.486-.844c0-.31-.22-.436-.49-.28" transform="translate(-297.617 -197.533)" fill="#a5ffff"/>
                <path id="Path_2313" data-name="Path 2313" d="M331.912,203.608l-4.584,2.647a1.066,1.066,0,0,0-.487.844c0,.31.22.435.491.28l4.584-2.647a1.073,1.073,0,0,0,.487-.844c0-.315-.22-.436-.491-.28" transform="translate(-297.103 -198.093)" fill="#a5ffff"/>
                <path id="Path_2314" data-name="Path 2314" d="M305.545,217.966a3.15,3.15,0,0,0-1.426,2.474c0,.906.647,1.273,1.435.819a3.154,3.154,0,0,0,1.429-2.472c0-.911-.647-1.278-1.439-.821" transform="translate(-300.875 -195.731)" fill="#a5ffff"/>
                <path id="Path_2315" data-name="Path 2315" d="M316.486,222.437l-2.065,1.193a1.073,1.073,0,0,0-.487.844c0,.31.22.436.49.28l2.066-1.193a1.073,1.073,0,0,0,.487-.844c0-.31-.22-.436-.491-.28" transform="translate(-299.246 -194.967)" fill="#a5ffff"/>
              </g>
            </g>
          </g>
          <g id="Group_4733" data-name="Group 4733" transform="translate(102.322 376.375)">
            <g id="Group_4730" data-name="Group 4730">
              <path id="Path_2316" data-name="Path 2316" d="M437.947,484.793V441.231l-82.425-47.64v43.562Z" transform="translate(-355.522 -393.591)" fill="url(#linear-gradient-28)"/>
              <path id="Path_2317" data-name="Path 2317" d="M355.725,393.691l-.2.117v43.328l37.685-21.781Z" transform="translate(-355.522 -393.574)" fill="url(#linear-gradient-29)"/>
            </g>
            <g id="Group_4731" data-name="Group 4731" transform="translate(0 64.88)">
              <path id="Path_2318" data-name="Path 2318" d="M437.947,540.436V496.874l-82.425-47.64V492.8Z" transform="translate(-355.522 -449.234)" fill="url(#linear-gradient-28)"/>
              <path id="Path_2319" data-name="Path 2319" d="M355.725,449.335l-.2.117V492.78L393.207,471Z" transform="translate(-355.522 -449.218)" fill="url(#linear-gradient-29)"/>
            </g>
            <g id="Group_4732" data-name="Group 4732" transform="translate(0 129.76)">
              <path id="Path_2320" data-name="Path 2320" d="M437.947,596.08V552.517l-82.425-47.64V548.44Z" transform="translate(-355.522 -504.877)" fill="url(#linear-gradient-28)"/>
              <path id="Path_2321" data-name="Path 2321" d="M355.725,504.978l-.2.117v43.328l37.685-21.781Z" transform="translate(-355.522 -504.861)" fill="url(#linear-gradient-29)"/>
            </g>
          </g>
          <g id="Group_4736" data-name="Group 4736" transform="translate(281.599 41.558)">
            <g id="Group_4735" data-name="Group 4735">
              <g id="Group_4734" data-name="Group 4734">
                <path id="Path_2322" data-name="Path 2322" d="M595.426,196.4,536,162.094l-.1,35.127,59.424,34.308.1-35.127" transform="translate(-487.365 -99.535)" fill="#a5ffff" opacity="0.561"/>
                <path id="Path_2323" data-name="Path 2323" d="M592.8,228.46l-36.868-21.286-.037,13.05,36.868,21.286.037-13.05" transform="translate(-484.046 -92.051)" fill="#a5ffff" opacity="0.561"/>
                <path id="Path_2324" data-name="Path 2324" d="M580.79,166.215l-11.357-6.557-.037,13.05,11.357,6.557.037-13.05" transform="translate(-481.806 -99.939)" fill="#a5ffff" opacity="0.561"/>
                <path id="Path_2325" data-name="Path 2325" d="M509.6,141.027s4.194-16.073,10.2-12.6,7.2,17.141,11.926,19.869,4.982-5.373,7.9-3.687,2.936,10.56,5.985,12.321,5.212-5.5,10.171-2.642c6.129,3.539,9.68,19,9.68,19L509.6,141.027m59.986,4.324-63.931-36.91-.108,38.118,63.931,36.91.108-38.118" transform="translate(-492.404 -108.441)" fill="#a5ffff" opacity="0.561"/>
                <path id="Path_2326" data-name="Path 2326" d="M519.228,125.649c-6.011-3.47-10.2,12.6-10.2,12.6L564.9,170.505s-3.552-15.46-9.68-19c-4.959-2.863-7.128,4.4-10.171,2.642s-3.071-10.639-5.985-12.321-3.178,6.414-7.9,3.687-5.915-16.4-11.926-19.869" transform="translate(-491.828 -105.666)" fill="#b4ffff"/>
                <path id="Path_2327" data-name="Path 2327" d="M517.946,182.35l.018-6.123.018-6.124,4.609,5.725,4.609,5.731-4.627.4-4.627.392M521.7,161.6c-8.031-4.637-14.569-.919-14.6,8.317s6.468,20.484,14.5,25.121,14.574.915,14.6-8.321-6.469-20.477-14.506-25.118" transform="translate(-492.147 -99.948)" fill="#a5ffff" opacity="0.561"/>
                <path id="Path_2328" data-name="Path 2328" d="M516.437,168.608l-.017,6.123-.017,6.123,4.627-.392,4.627-.4-4.609-5.731-4.609-5.725" transform="translate(-490.603 -98.453)" fill="#b8ffff" opacity="0.808"/>
                <path id="Path_2329" data-name="Path 2329" d="M508.021,202.42a7.173,7.173,0,0,1-3.251-5.629c.006-2.073,1.474-2.909,3.272-1.871a7.178,7.178,0,0,1,3.257,5.64c-.006,2.066-1.474,2.9-3.278,1.861m22.757-2.07L494.351,179.32l-.075,26.5L530.7,226.849l-36.427-21.031.01-4.071,6.762-3.847,6.846,11.858,13.823-7.87,9.013,15.61.048-17.148" transform="translate(-494.275 -96.675)" fill="#a5ffff" opacity="0.561"/>
                <path id="Path_2330" data-name="Path 2330" d="M521.717,199.242l-13.823,7.87-6.846-11.858-6.761,3.846-.012,4.071L530.7,224.2l.026-9.35-9.013-15.611" transform="translate(-494.276 -94.03)" fill="#b4ffff"/>
                <path id="Path_2331" data-name="Path 2331" d="M506.548,192.761c-1.8-1.038-3.266-.2-3.272,1.871a7.173,7.173,0,0,0,3.251,5.629c1.8,1.041,3.272.205,3.278-1.861a7.178,7.178,0,0,0-3.257-5.64" transform="translate(-492.781 -94.518)" fill="#b4ffff"/>
              </g>
            </g>
          </g>
        </g>
        <g id="Group_4747" data-name="Group 4747" transform="translate(108.525 172.56)">
          <g id="Group_4740" data-name="Group 4740" transform="translate(0 107.293)">
            <g id="Group_4739" data-name="Group 4739">
              <g id="Group_4738" data-name="Group 4738">
                <path id="Path_2332" data-name="Path 2332" d="M200.849,303.228l-58.365,33.881-58.619-33.88,58.619-33.881Z" transform="translate(-83.865 -269.347)" fill="url(#linear-gradient-4)"/>
              </g>
              <path id="Path_2333" data-name="Path 2333" d="M192.5,298.4V606.687l-58.365,33.905V332.31Z" transform="translate(-75.52 -264.524)" fill="url(#linear-gradient-5)"/>
              <path id="Path_2334" data-name="Path 2334" d="M142.484,332.31V640.592l-58.619-33.9V298.4Z" transform="translate(-83.865 -264.524)" fill="url(#linear-gradient-6)"/>
            </g>
          </g>
          <path id="Path_2335" data-name="Path 2335" d="M134.139,338.7,192.5,304.816v-1.408l-58.365,33.881Z" transform="translate(-75.52 -156.154)" fill="#fdf7fb"/>
          <path id="Path_2336" data-name="Path 2336" d="M83.865,304.816l58.619,33.88v-1.408l-58.619-33.88Z" transform="translate(-83.865 -156.154)" fill="#fdf7fb"/>
          <path id="Path_2337" data-name="Path 2337" d="M88.1,177.119l20,141.419,33.625,19.434L175.2,318.537l20-141.419Z" transform="translate(-83.162 -177.118)" opacity="0.561" fill="url(#linear-gradient-37)"/>
          <g id="Group_4741" data-name="Group 4741" transform="translate(24.94 121.985)">
            <path id="Path_2338" data-name="Path 2338" d="M172.359,301.171,138.88,320.606l-33.625-19.435,33.625-19.435Z" transform="translate(-105.254 -281.737)" fill="#a5ffff"/>
          </g>
          <g id="Group_4745" data-name="Group 4745" transform="translate(19.864 15.343)">
            <path id="Path_2339" data-name="Path 2339" d="M177.883,216.922c-.222.135-.448.269-.672.4q-.768.458-1.553.907l-.73.414q-.894.5-1.812.988c-.156.083-.309.168-.466.251q-1.151.6-2.334,1.185c-.2.1-.407.2-.611.293q-.9.436-1.815.857-.4.183-.806.365-.892.4-1.8.786c-.241.1-.482.208-.724.309q-1.256.523-2.537,1.023l-.279.1q-1.151.442-2.324.861c-.275.1-.553.194-.829.289q-.937.327-1.889.639c-.277.091-.555.182-.835.271-.986.314-1.98.619-2.985.907-.1.03-.209.057-.312.086q-1.373.39-2.769.744-.409.1-.821.206-1.475.364-2.97.693l-.163.037c-1.044.225-2.1.43-3.156.625-.26.048-.52.093-.781.139-1.207.213-2.421.413-3.645.584-.094.014-.191.024-.286.037-1.172.162-2.352.3-3.536.423-.24.024-.48.052-.721.076q-1.488.15-2.986.248h-.092q-1.455.1-2.92.148c-.352.014-.705.021-1.059.031-.573.015-1.146.028-1.722.034h-1.138q-.846,0-1.7-.017c-.393-.007-.786-.015-1.18-.027-.493-.015-.989-.036-1.483-.058-.412-.019-.822-.037-1.234-.062-.5-.029-1-.064-1.494-.1-.412-.03-.823-.059-1.235-.1-.5-.043-.993-.093-1.49-.145-.409-.042-.819-.082-1.228-.128-.507-.059-1.014-.127-1.523-.194-.4-.052-.8-.1-1.2-.16-.6-.087-1.2-.185-1.8-.285-.331-.055-.662-.1-.993-.162-.765-.134-1.531-.282-2.3-.436-.18-.036-.359-.066-.538-.1a21.3,21.3,0,0,1-3.488-11.475l-.027,9.417a21.3,21.3,0,0,0,3.488,11.475l.071.015c.155.033.311.057.466.089q1.147.231,2.3.437c.331.058.662.107.993.161.6.1,1.2.2,1.8.285.087.013.176.029.265.042.311.044.623.077.934.118.507.068,1.014.135,1.522.194.409.047.819.087,1.228.128.5.051.993.1,1.49.146.133.01.266.027.4.038.28.022.557.036.835.056.5.037,1,.072,1.5.1.412.024.822.043,1.234.062q.742.035,1.484.058c.177.006.356.016.533.021.216.006.43,0,.646.007q.852.016,1.7.016h1.137c.576-.006,1.15-.019,1.723-.034.245-.007.493-.006.738-.015.107,0,.212-.012.318-.015q1.475-.056,2.938-.149h.072c1-.066,2-.153,2.992-.248.1-.009.194-.015.29-.024.141-.014.281-.036.422-.05,1.187-.124,2.368-.262,3.541-.424l.286-.036c1.224-.173,2.438-.372,3.645-.584.134-.025.271-.041.4-.065s.251-.051.378-.075c1.059-.2,2.113-.4,3.156-.625l.164-.037c1-.217,1.986-.45,2.969-.693q.411-.1.822-.206,1.392-.355,2.766-.743l.316-.086q1.508-.434,2.984-.908c.107-.034.216-.063.322-.1.173-.056.34-.118.513-.174q.951-.311,1.889-.638c.276-.1.554-.192.829-.29q1.17-.418,2.319-.858l.285-.106q1.282-.5,2.536-1.023c.243-.1.483-.206.724-.309q.908-.387,1.8-.786c.269-.121.539-.243.806-.365q.916-.422,1.817-.857c.2-.1.408-.194.61-.293q1.182-.581,2.333-1.184c.159-.084.314-.169.471-.253q.915-.488,1.81-.986c.245-.138.486-.275.729-.414q.785-.449,1.553-.907c.146-.086.3-.17.441-.258.078-.048.153-.1.231-.145.724-.441,1.44-.886,2.137-1.339l.027-9.417C179.323,216.037,178.607,216.482,177.883,216.922Z" transform="translate(-100.901 -186.076)" fill="#102465"/>
            <g id="Group_4742" data-name="Group 4742" transform="translate(0.027)">
              <path id="Path_2340" data-name="Path 2340" d="M180.016,219.786c-18.851,12.223-47.19,20.234-75.6,14.334-10.283-16.442,3.454-32.884,24.5-43.843l32.4,10.781Z" transform="translate(-100.924 -190.277)" fill="#00edf9"/>
            </g>
            <g id="Group_4743" data-name="Group 4743" transform="translate(4.632 3.304)">
              <path id="Path_2341" data-name="Path 2341" d="M173.654,218.94a98.578,98.578,0,0,1-30.131,11.828,92.37,92.37,0,0,1-36.133.77c-3.718-6.769-3.316-13.8,1.206-20.934,3.971-6.26,10.962-12.276,20.321-17.492l28.357,9.436Z" transform="translate(-104.874 -193.111)" fill="#1a6cbe"/>
            </g>
            <g id="Group_4744" data-name="Group 4744" transform="translate(22.464 19.227)">
              <path id="Path_2342" data-name="Path 2342" d="M148.454,213.506l.019,4.014H120.228l-.061-10.753h6.925l.042,6.739Z" transform="translate(-120.167 -206.767)" fill="#fdf7fb"/>
            </g>
          </g>
          <g id="Group_4746" data-name="Group 4746" transform="translate(19.864 187.245)">
            <path id="Path_2343" data-name="Path 2343" d="M117.305,347.187l-16.4-9.481V518.122l16.4,9.481Z" transform="translate(-100.901 -337.706)" fill="url(#linear-gradient-38)"/>
            <path id="Path_2344" data-name="Path 2344" d="M100.9,493.787l16.4,9.481V484.306Z" transform="translate(-100.901 -313.37)" fill="url(#linear-gradient-39)"/>
          </g>
          <path id="Path_2345" data-name="Path 2345" d="M142.484,326.929,83.865,298.4V557.763l58.619,28.524,58.365-28.525V298.4Z" transform="translate(-83.865 -102.926)" fill="url(#linear-gradient-40)"/>
        </g>
        <g id="Group_4757" data-name="Group 4757" transform="translate(756.2 97.925)">
          <g id="Group_4756" data-name="Group 4756">
            <g id="Group_4750" data-name="Group 4750" transform="translate(0 56.888)">
              <g id="Group_4749" data-name="Group 4749">
                <g id="Group_4748" data-name="Group 4748">
                  <path id="Path_2346" data-name="Path 2346" d="M701.217,179.821l-30.875,17.923-31.009-17.923L670.342,161.9Z" transform="translate(-639.333 -161.898)" fill="url(#linear-gradient-4)"/>
                </g>
                <path id="Path_2347" data-name="Path 2347" d="M696.8,177.269V450.336l-30.875,17.923V195.192Z" transform="translate(-634.918 -159.346)" fill="url(#linear-gradient-5)"/>
                <path id="Path_2348" data-name="Path 2348" d="M670.342,195.192V468.258l-31.009-17.923V177.269Z" transform="translate(-639.333 -159.346)" fill="url(#linear-gradient-6)"/>
              </g>
            </g>
            <path id="Path_2349" data-name="Path 2349" d="M665.927,198.584,696.8,180.661v-.745l-30.875,17.923Z" transform="translate(-634.918 -102.019)" fill="#fff"/>
            <path id="Path_2350" data-name="Path 2350" d="M639.333,180.661l31.009,17.923v-.745l-31.009-17.923Z" transform="translate(-639.333 -102.019)" fill="#fff"/>
            <path id="Path_2351" data-name="Path 2351" d="M641.574,113.11l10.58,74.81,17.787,10.28,17.71-10.281,10.58-74.81Z" transform="translate(-638.961 -113.109)" opacity="0.561" fill="url(#linear-gradient-37)"/>
            <g id="Group_4751" data-name="Group 4751" transform="translate(13.193 64.529)">
              <path id="Path_2352" data-name="Path 2352" d="M686.146,178.733l-17.71,10.281-17.788-10.281,17.788-10.281Z" transform="translate(-650.648 -168.452)" fill="#a5ffff"/>
            </g>
            <g id="Group_4755" data-name="Group 4755" transform="translate(10.508 8.116)">
              <path id="Path_2353" data-name="Path 2353" d="M689.068,134.166l-.356.213c-.271.161-.545.322-.821.479-.128.073-.256.147-.386.219q-.474.266-.96.522l-.246.133q-.609.318-1.235.626c-.106.052-.216.1-.323.155q-.476.231-.961.454-.211.1-.426.192-.472.212-.953.416c-.127.055-.254.11-.382.163q-.665.278-1.342.541l-.148.055q-.609.234-1.229.456l-.438.153c-.331.115-.663.227-1,.338l-.442.143q-.781.249-1.579.479c-.055.016-.111.03-.166.045q-.726.206-1.464.394c-.145.036-.289.073-.435.108-.52.128-1.042.252-1.571.367l-.086.019q-.829.178-1.67.331c-.138.026-.275.049-.413.073-.639.113-1.281.218-1.929.309l-.152.02c-.619.085-1.244.159-1.87.224-.127.013-.254.028-.381.04-.525.051-1.051.1-1.58.132h-.049q-.77.051-1.544.079l-.56.015q-.455.014-.912.019h-.6q-.448,0-.9-.008c-.209,0-.416-.008-.625-.015-.261-.007-.522-.019-.785-.03-.217-.01-.435-.02-.652-.033-.263-.015-.527-.034-.79-.054-.218-.016-.435-.031-.653-.05-.262-.023-.526-.05-.788-.077-.217-.022-.434-.043-.649-.068-.268-.031-.538-.068-.806-.1-.211-.028-.422-.054-.634-.085-.317-.045-.634-.1-.953-.149-.175-.029-.35-.055-.525-.086-.406-.071-.81-.149-1.215-.231-.094-.019-.19-.035-.284-.055a11.264,11.264,0,0,1-1.845-6.07l-.014,4.981a11.265,11.265,0,0,0,1.845,6.07l.037.008c.083.017.164.03.247.047.4.082.809.161,1.214.231.176.031.351.057.526.086.318.052.635.1.953.15l.14.022c.166.023.33.041.494.062.268.036.538.071.8.1.217.024.434.045.649.068.263.027.526.055.789.077.07.006.14.015.211.021.147.012.294.019.442.029.264.02.527.038.791.054.217.013.435.023.652.033q.393.019.785.031c.094,0,.189.008.282.01h.343c.3.006.6.008.9.009h.6c.3,0,.607-.009.912-.017.129,0,.26,0,.391-.008.056,0,.112-.006.168-.008.52-.02,1.039-.044,1.554-.079h.039c.529-.035,1.056-.08,1.582-.132a1.4,1.4,0,0,0,.154-.013c.075-.007.148-.019.224-.026q.941-.1,1.873-.225l.152-.019c.647-.092,1.29-.2,1.929-.309.07-.013.142-.022.212-.035l.2-.04q.84-.15,1.67-.33l.086-.02c.528-.114,1.051-.238,1.571-.366l.435-.11c.491-.126.979-.255,1.463-.393l.167-.045c.532-.153,1.057-.315,1.579-.48l.17-.051.272-.092q.5-.164,1-.338c.146-.05.293-.1.438-.153q.619-.22,1.227-.455c.05-.019.1-.036.15-.056q.679-.262,1.341-.541l.384-.163q.481-.2.951-.415l.427-.194c.323-.148.644-.3.961-.452l.323-.155c.416-.205.829-.414,1.234-.627.084-.043.166-.089.25-.133.323-.171.641-.345.957-.522l.386-.218q.414-.238.821-.48c.077-.045.157-.09.233-.136.042-.024.082-.051.122-.077.382-.233.761-.468,1.131-.708l.014-4.981Q689.644,133.817,689.068,134.166Z" transform="translate(-648.345 -117.848)" fill="#102465"/>
              <g id="Group_4752" data-name="Group 4752" transform="translate(0.014)">
                <path id="Path_2354" data-name="Path 2354" d="M690.2,135.68a55.076,55.076,0,0,1-39.995,7.583c-5.439-8.7,1.827-17.4,12.958-23.193l17.138,5.7Z" transform="translate(-648.357 -120.07)" fill="#00edf9"/>
              </g>
              <g id="Group_4753" data-name="Group 4753" transform="translate(2.45 1.749)">
                <path id="Path_2355" data-name="Path 2355" d="M686.831,135.233a52.162,52.162,0,0,1-15.939,6.257,48.846,48.846,0,0,1-19.114.407c-1.967-3.581-1.755-7.3.638-11.075,2.1-3.311,5.8-6.493,10.749-9.252l15,4.992Z" transform="translate(-650.446 -121.57)" fill="#1a6cbe"/>
              </g>
              <g id="Group_4754" data-name="Group 4754" transform="translate(11.883 10.171)">
                <path id="Path_2356" data-name="Path 2356" d="M673.5,132.358l.01,2.123H658.568l-.032-5.688H662.2l.022,3.565Z" transform="translate(-658.536 -128.793)" fill="#fdf7fb"/>
              </g>
            </g>
          </g>
          <path id="Path_2357" data-name="Path 2357" d="M689.025,180.842l9.579-67.733H641.946l9.583,67.761-12.2,7.049V460.986l31.009,17.923,30.875-17.923V187.919Z" transform="translate(-639.333 -131.109)" fill="url(#linear-gradient-45)"/>
        </g>
        <g id="Group_4764" data-name="Group 4764" transform="translate(772.7 21.88)">
          <g id="Group_4760" data-name="Group 4760" transform="translate(0 160.317)">
            <g id="Group_4759" data-name="Group 4759">
              <g id="Group_4758" data-name="Group 4758">
                <path id="Path_2358" data-name="Path 2358" d="M908.953,259.372,781.5,333.361,653.484,259.373,781.5,185.383Z" transform="translate(-653.484 -185.383)" fill="url(#linear-gradient-4)"/>
              </g>
              <path id="Path_2359" data-name="Path 2359" d="M890.728,248.838v346.6l-127.457,73.99v-346.6Z" transform="translate(-635.259 -174.85)" fill="url(#linear-gradient-5)"/>
              <path id="Path_2360" data-name="Path 2360" d="M781.5,322.827v346.6L653.484,595.44V248.84Z" transform="translate(-653.484 -174.85)" fill="url(#linear-gradient-6)"/>
            </g>
          </g>
          <path id="Path_2361" data-name="Path 2361" d="M763.271,335.663l127.457-73.989v-1.909L763.271,333.754Z" transform="translate(-635.258 -12.719)" fill="#ff65eb"/>
          <path id="Path_2362" data-name="Path 2362" d="M653.483,261.675,781.5,335.663v-1.909L653.483,259.766Z" transform="translate(-653.483 -12.719)" fill="#fff"/>
          <g id="Group_4761" data-name="Group 4761" transform="translate(27.899 286.368)">
            <path id="Path_2363" data-name="Path 2363" d="M693.814,302.97l-16.4-9.481V473.906l16.4,9.481Z" transform="translate(-677.41 -293.489)" fill="url(#linear-gradient-38)"/>
            <path id="Path_2364" data-name="Path 2364" d="M677.41,449.57l16.4,9.481V440.089Z" transform="translate(-677.41 -269.154)" fill="url(#linear-gradient-39)"/>
          </g>
          <g id="Group_4762" data-name="Group 4762" transform="translate(56.048 302.438)">
            <path id="Path_2365" data-name="Path 2365" d="M717.955,316.752l-16.4-9.481V487.688l16.4,9.481Z" transform="translate(-701.552 -307.271)" fill="url(#linear-gradient-38)"/>
            <path id="Path_2366" data-name="Path 2366" d="M701.552,463.352l16.4,9.481V453.871Z" transform="translate(-701.552 -282.936)" fill="url(#linear-gradient-39)"/>
          </g>
          <path id="Path_2367" data-name="Path 2367" d="M686.992,47.891,720.1,282.036l55.672,32.177L831.2,282.035,864.32,47.89Z" transform="translate(-647.921 -47.89)" opacity="0.561" fill="url(#linear-gradient-37)"/>
          <g id="Group_4763" data-name="Group 4763" transform="translate(72.183 201.968)">
            <path id="Path_2368" data-name="Path 2368" d="M826.493,253.282l-55.43,32.178L715.39,253.283,771.063,221.1Z" transform="translate(-715.39 -221.105)" fill="#a5ffff"/>
          </g>
        </g>
        <g id="Group_4781" data-name="Group 4781" transform="translate(592.079 313.51)">
          <g id="Group_4768" data-name="Group 4768" transform="translate(0 78.174)">
            <g id="Group_4767" data-name="Group 4767">
              <g id="Group_4766" data-name="Group 4766">
                <g id="Group_4765" data-name="Group 4765">
                  <path id="Path_2369" data-name="Path 2369" d="M754.046,439.035,626.589,513.024,498.577,439.036l128.012-73.989Z" transform="translate(-498.577 -365.047)" fill="url(#linear-gradient-4)"/>
                </g>
                <path id="Path_2370" data-name="Path 2370" d="M735.821,428.5V611.484L608.364,685.473V502.491Z" transform="translate(-480.352 -354.513)" fill="url(#linear-gradient-5)"/>
                <path id="Path_2371" data-name="Path 2371" d="M626.589,502.49V685.473L498.577,611.485V428.5Z" transform="translate(-498.577 -354.513)" fill="url(#linear-gradient-6)"/>
              </g>
            </g>
            <path id="Path_2372" data-name="Path 2372" d="M608.364,515.327l127.457-73.989v-1.909L608.364,513.417Z" transform="translate(-480.352 -352.699)" fill="#fff"/>
            <path id="Path_2373" data-name="Path 2373" d="M498.577,441.338l128.012,73.988v-1.909L498.577,439.429Z" transform="translate(-498.577 -352.699)" fill="#fff"/>
          </g>
          <g id="Group_4773" data-name="Group 4773" transform="translate(57.692 106.527)">
            <g id="Group_4772" data-name="Group 4772">
              <path id="Path_2374" data-name="Path 2374" d="M680.1,411.978c-.009.1-.016.194-.034.29-.014.078-.038.156-.058.234s-.047.185-.079.276c-.027.075-.062.149-.095.223a3.125,3.125,0,0,1-.135.288c-.036.069-.081.136-.122.2-.068.107-.138.216-.217.321-.047.063-.1.125-.148.187a5.677,5.677,0,0,1-.391.42c-.051.049-.1.1-.152.148-.087.079-.185.155-.281.232s-.168.139-.259.2-.217.146-.328.218-.226.154-.352.226l-77.8,45.213a14.352,14.352,0,0,1-13.015,0l-35.852-20.7c-1.813-1.047-2.719-2.422-2.716-3.8l-.013,4.751c0,1.374.9,2.749,2.714,3.8l35.853,20.7a14.344,14.344,0,0,0,13.015,0l77.8-45.212.112-.067c.085-.051.157-.107.239-.16.111-.072.225-.143.328-.219s.174-.135.259-.2.193-.153.281-.232c.018-.015.04-.03.057-.047.035-.033.061-.069.1-.1a5.376,5.376,0,0,0,.389-.419c.026-.031.061-.061.085-.092s.041-.063.064-.094c.078-.106.148-.212.215-.321.029-.045.066-.089.092-.135.013-.023.02-.047.033-.07.051-.094.092-.19.134-.286.024-.056.057-.111.078-.168.007-.019.009-.039.016-.057.033-.092.055-.184.079-.276.016-.062.041-.122.054-.185a.136.136,0,0,1,.006-.049c.017-.1.024-.194.033-.292.006-.062.02-.125.021-.188v-.08l.013-4.753C680.123,411.8,680.108,411.889,680.1,411.978Z" transform="translate(-548.055 -385.654)" fill="#162a56"/>
              <g id="Group_4769" data-name="Group 4769" transform="translate(0.013)">
                <path id="Path_2375" data-name="Path 2375" d="M677.407,411.622c3.6,2.081,3.622,5.459.042,7.539l-77.8,45.213a14.352,14.352,0,0,1-13.015,0l-35.852-20.7c-3.6-2.08-3.623-5.458-.043-7.539l77.8-45.212a14.352,14.352,0,0,1,13.015,0Zm-79.626,51.672,77.8-45.212c2.551-1.483,2.537-3.9-.03-5.381l-3.231-1.866-4.875.133L642.714,396.69l.214-2.824L639.7,392a10.256,10.256,0,0,0-9.291,0l-77.8,45.213c-2.552,1.482-2.538,3.9.03,5.381l35.852,20.7a10.256,10.256,0,0,0,9.291,0" transform="translate(-548.066 -389.363)" fill="url(#linear-gradient-57)"/>
              </g>
              <g id="Group_4770" data-name="Group 4770" transform="translate(2.649 1.526)">
                <path id="Path_2376" data-name="Path 2376" d="M675.175,412.484c2.568,1.482,2.582,3.9.03,5.381l-77.8,45.212a10.256,10.256,0,0,1-9.291,0l-35.852-20.7c-2.569-1.483-2.583-3.9-.03-5.381l77.8-45.213a10.256,10.256,0,0,1,9.291,0l3.231,1.866-.214,2.824,24.731,14.278,4.875-.133Z" transform="translate(-550.327 -390.672)" fill="#165da4"/>
              </g>
              <g id="Group_4771" data-name="Group 4771" transform="translate(2.649 1.526)">
                <path id="Path_2377" data-name="Path 2377" d="M675.175,412.484c2.568,1.482,2.582,3.9.03,5.381l-77.8,45.212a10.256,10.256,0,0,1-9.291,0l-35.852-20.7c-2.569-1.483-2.583-3.9-.03-5.381l77.8-45.213a10.256,10.256,0,0,1,9.291,0l3.231,1.866-.214,2.824,24.731,14.278,4.875-.133Z" transform="translate(-550.327 -390.672)" fill="#165da4"/>
              </g>
            </g>
          </g>
          <path id="Path_2392" data-name="Path 2392" d="M530.5,293c.35,21.675,23.16,163.346,23.16,163.346l.034-.006a3.531,3.531,0,0,0,1.86,2.249l35.852,20.7a10.256,10.256,0,0,0,9.291,0l77.8-45.212a3.261,3.261,0,0,0,1.9-2.664h0S693.6,344.525,700.039,293Z" transform="translate(-492.111 -293.002)" opacity="0.561" fill="url(#linear-gradient-58)"/>
          <g id="Group_4780" data-name="Group 4780" transform="translate(113.336 49.277)">
            <g id="Group_4779" data-name="Group 4779">
              <g id="Group_4778" data-name="Group 4778">
                <path id="Path_2393" data-name="Path 2393" d="M626.542,427.69c-.5.292-.911.061-.912-.52a1.984,1.984,0,0,1,.906-1.569l4.445-2.568c.506-.292.911-.059.913.52a1.989,1.989,0,0,1-.907,1.571l-4.445,2.566m-22.385,8.518c-.5.292-.911.061-.912-.52a1.984,1.984,0,0,1,.906-1.557l7.409-4.277c.494-.286.9-.055.9.513a1.985,1.985,0,0,1-.9,1.564l-7.409,4.277m-.012-4.385c-.506.292-.911.061-.913-.52a1.985,1.985,0,0,1,.907-1.569l17.814-10.285c.494-.286.9-.055.9.526a1.985,1.985,0,0,1-.9,1.564l-17.814,10.285M625.484,419.5c-.5.293-.911.061-.912-.519a1.987,1.987,0,0,1,.906-1.571l5.478-3.162c.5-.292.911-.061.912.52a1.984,1.984,0,0,1-.906,1.569l-5.478,3.162m10.038,3-.043-15.234,10.731-6.2.043,15.233-10.731,6.2m-31.39,4.919c-.5.292-.911.061-.912-.507a1.988,1.988,0,0,1,.906-1.571l5.478-3.162c.5-.292.911-.061.912.52a1.981,1.981,0,0,1-.906,1.557l-5.478,3.163m9-5.2c-.5.292-.911.061-.912-.507a1.985,1.985,0,0,1,.906-1.569l17.814-10.285c.506-.292.911-.061.913.52a1.984,1.984,0,0,1-.907,1.557l-17.814,10.285m-9.027-3.587c-.506.292-.911.061-.913-.507a1.986,1.986,0,0,1,.907-1.569l8.5-4.907c.506-.292.911-.061.913.52a1.982,1.982,0,0,1-.907,1.557l-8.5,4.906m-.013-4.385c-.5.292-.911.061-.912-.52a1.981,1.981,0,0,1,.906-1.557L637.286,393c.506-.292.911-.061.913.507a1.986,1.986,0,0,1-.907,1.569l-33.2,19.171m36.729-21.206c-.493.286-.911.061-.912-.52a2,2,0,0,1,.906-1.557l4.445-2.566c.506-.292.911-.061.913.507a1.987,1.987,0,0,1-.906,1.569l-4.446,2.566m-36.742,16.821c-.5.291-.911.048-.912-.52a1.991,1.991,0,0,1,.906-1.571L630.1,392.755c.5-.292.911-.061.912.52a2.008,2.008,0,0,1-.906,1.571l-26.021,15.023m29.984-17.312c-.494.286-.9.042-.9-.526a1.985,1.985,0,0,1,.9-1.564l11.191-6.461c.5-.291.911-.061.912.52a2.009,2.009,0,0,1-.906,1.569l-11.191,6.461m-30,12.912c-.506.292-.911.061-.913-.519a1.984,1.984,0,0,1,.907-1.558l41.174-23.771c.5-.293.911-.061.912.506a1.988,1.988,0,0,1-.906,1.571l-41.174,23.771m-.559-6.383-.064-22.6,42.623-24.607.064,22.6-42.623,24.608m47.609-58.469-52.77,30.466a5.673,5.673,0,0,0-2.575,4.458l.21,73.91c0,1.638,1.165,2.3,2.591,1.476l52.77-30.468a5.672,5.672,0,0,0,2.57-4.459l-.21-73.91c0-1.638-1.164-2.3-2.59-1.476" transform="translate(-595.777 -340.263)" fill="#00edf9" opacity="0.6"/>
                <path id="Path_2394" data-name="Path 2394" d="M644.979,350.226l-42.622,24.608.064,22.6,42.622-24.608-.064-22.6" transform="translate(-594.685 -338.61)" fill="#a5ffff"/>
                <path id="Path_2395" data-name="Path 2395" d="M644.188,374.036l-41.174,23.771a1.984,1.984,0,0,0-.907,1.558c0,.58.407.81.913.519l41.174-23.771a1.988,1.988,0,0,0,.906-1.571c0-.567-.407-.8-.912-.506" transform="translate(-594.726 -334.678)" fill="#a5ffff"/>
                <path id="Path_2396" data-name="Path 2396" d="M629.044,385.3l-26.02,15.023a1.991,1.991,0,0,0-.906,1.571c0,.568.407.812.912.52l26.02-15.023a2.008,2.008,0,0,0,.906-1.571c0-.581-.407-.812-.912-.52" transform="translate(-594.724 -332.808)" fill="#a5ffff"/>
                <path id="Path_2397" data-name="Path 2397" d="M639.929,377.8l-11.191,6.461a1.985,1.985,0,0,0-.9,1.564c0,.568.407.812.9.526l11.191-6.461a2.009,2.009,0,0,0,.906-1.569c0-.581-.407-.812-.912-.52" transform="translate(-590.454 -334.054)" fill="#a5ffff"/>
                <path id="Path_2398" data-name="Path 2398" d="M636.239,385.515l-33.2,19.171a1.981,1.981,0,0,0-.906,1.557c0,.581.407.812.912.52l33.2-19.171a1.986,1.986,0,0,0,.907-1.569c0-.568-.407-.8-.913-.507" transform="translate(-594.722 -332.773)" fill="#a5ffff"/>
                <path id="Path_2399" data-name="Path 2399" d="M638.98,381.569l-4.445,2.566a2,2,0,0,0-.906,1.557c0,.581.419.806.912.52l4.446-2.566a1.987,1.987,0,0,0,.906-1.569c0-.568-.407-.8-.913-.507" transform="translate(-589.494 -333.428)" fill="#a5ffff"/>
                <path id="Path_2400" data-name="Path 2400" d="M611.543,401.51l-8.5,4.907a1.986,1.986,0,0,0-.907,1.569c0,.568.407.8.913.507l8.5-4.906a1.982,1.982,0,0,0,.907-1.557c0-.581-.407-.812-.913-.52" transform="translate(-594.721 -330.117)" fill="#a5ffff"/>
                <path id="Path_2401" data-name="Path 2401" d="M626.857,403.734l-5.478,3.162a1.986,1.986,0,0,0-.906,1.571c0,.58.407.812.912.519l5.478-3.162a1.984,1.984,0,0,0,.906-1.569c0-.581-.407-.812-.912-.52" transform="translate(-591.677 -329.748)" fill="#a5ffff"/>
                <path id="Path_2402" data-name="Path 2402" d="M620.892,408.191l-17.814,10.285a1.985,1.985,0,0,0-.907,1.569c0,.581.407.812.913.52L620.9,410.281a1.985,1.985,0,0,0,.9-1.564c0-.581-.407-.812-.9-.526" transform="translate(-594.716 -329.008)" fill="#a5ffff"/>
                <path id="Path_2403" data-name="Path 2403" d="M626.731,411.267l-4.445,2.568a1.984,1.984,0,0,0-.906,1.569c0,.581.407.812.912.52l4.445-2.566a1.99,1.99,0,0,0,.907-1.571c0-.579-.407-.812-.913-.52" transform="translate(-591.527 -328.498)" fill="#a5ffff"/>
                <path id="Path_2404" data-name="Path 2404" d="M610.5,417.116l-7.409,4.277a1.984,1.984,0,0,0-.906,1.557c0,.581.407.812.912.52l7.409-4.277a1.985,1.985,0,0,0,.9-1.564c0-.568-.407-.8-.9-.513" transform="translate(-594.714 -327.526)" fill="#a5ffff"/>
                <path id="Path_2405" data-name="Path 2405" d="M608.545,410.539l-5.478,3.162a1.988,1.988,0,0,0-.906,1.571c0,.568.407.8.912.507l5.478-3.163a1.981,1.981,0,0,0,.906-1.557c0-.581-.407-.812-.912-.52" transform="translate(-594.717 -328.619)" fill="#a5ffff"/>
                <path id="Path_2406" data-name="Path 2406" d="M628.6,399.973l-17.814,10.285a1.985,1.985,0,0,0-.906,1.569c0,.568.407.8.912.507l17.814-10.285a1.984,1.984,0,0,0,.907-1.557c0-.581-.407-.812-.913-.52" transform="translate(-593.436 -330.372)" fill="#a5ffff"/>
                <path id="Path_2407" data-name="Path 2407" d="M640.558,392.418l-10.731,6.2.043,15.233,10.731-6.2-.043-15.233" transform="translate(-590.125 -331.606)" fill="#a5ffff"/>
              </g>
            </g>
          </g>
        </g>
        <g id="Group_4797" data-name="Group 4797" transform="translate(200.569 301.447)">
          <path id="Path_2408" data-name="Path 2408" d="M162.8,287.657V468.074l82.425,47.64,82.068-47.64V287.656Z" transform="translate(-162.805 -287.656)" opacity="0.561" fill="url(#linear-gradient-59)"/>
          <g id="Group_4785" data-name="Group 4785" transform="translate(0 91.553)">
            <g id="Group_4784" data-name="Group 4784">
              <g id="Group_4783" data-name="Group 4783">
                <g id="Group_4782" data-name="Group 4782">
                  <path id="Path_2409" data-name="Path 2409" d="M327.3,413.815l-82.07,47.64-82.43-47.64,82.425-47.641Z" transform="translate(-162.805 -366.175)" fill="url(#linear-gradient-4)"/>
                </g>
                <path id="Path_2410" data-name="Path 2410" d="M315.563,407.032V587.449L233.5,635.089V454.673Z" transform="translate(-151.071 -359.393)" fill="url(#linear-gradient-5)"/>
                <path id="Path_2411" data-name="Path 2411" d="M245.23,454.673V635.089l-82.43-47.64V407.033Z" transform="translate(-162.805 -359.393)" fill="url(#linear-gradient-6)"/>
              </g>
            </g>
            <path id="Path_2412" data-name="Path 2412" d="M233.5,463.689l82.068-47.641v-1.98L233.5,461.708Z" transform="translate(-151.071 -358.225)" fill="#fdf7fb"/>
            <path id="Path_2413" data-name="Path 2413" d="M162.8,416.049l82.425,47.64v-1.98L162.8,414.069Z" transform="translate(-162.805 -358.225)" fill="#fdf7fb"/>
          </g>
          <g id="Group_4796" data-name="Group 4796" transform="translate(46.22 37.261)" opacity="0.6">
            <path id="Path_2436" data-name="Path 2436" d="M214.62,406.4l-.024-8.571,5.829-3.365.024,8.571L214.62,406.4m22.192-12.812-.037-12.9,5.829-3.365.037,12.9-5.829,3.366M214.6,397.826l-.015-5.3,5.829-3.366.015,5.3-5.829,3.365m11.124,2.163-.042-15.022,5.822-3.36.042,15.022-5.822,3.36M247.9,387.18l-.058-20.325,5.829-3.365.058,20.325L247.9,387.18m-11.129-6.5-.022-7.989,5.829-3.365.022,7.989-5.829,3.365m-11.1,4.283-.027-9.307,5.822-3.36.027,9.307-5.822,3.36m22.169-18.111-.035-12.583,5.829-3.365.035,12.583-5.829,3.365M210.3,414.417c-.26.15-.469.03-.47-.26l-.115-40.5a1.027,1.027,0,0,1,.468-.809c.253-.147.463-.027.464.272l.113,39.958,51-29.442c.26-.15.47-.031.47.268a1.021,1.021,0,0,1-.468.8L210.3,414.417m10.029-52.95c-.513.3-.932.058-.934-.532a2.046,2.046,0,0,1,.928-1.607l14.882-8.592c.513-.3.932-.058.934.533a2.047,2.047,0,0,1-.928,1.606l-14.882,8.592m18.031-10.41c-.514.3-.933.058-.934-.532a2.048,2.048,0,0,1,.927-1.607l3.433-1.981c.513-.3.932-.058.933.532a2.042,2.042,0,0,1-.927,1.607l-3.432,1.981m-28.19,16.465-.007-2.515,5.584-3.223.007,2.515-5.584,3.223m20.093-17.152a.676.676,0,0,1-.663.065.657.657,0,0,1-.271-.6l.022-.226.044-.223.089-.239.111-.227a1.9,1.9,0,0,1,.662-.677.7.7,0,0,1,.663-.087l.112.1.083.141.059.162.015.2a1.865,1.865,0,0,1-.266.907,1.956,1.956,0,0,1-.661.7m-9.946,5.741c-.514.3-.932.058-.934-.532a2.048,2.048,0,0,1,.928-1.607l7.206-4.16c.514-.3.932-.058.934.532a2.044,2.044,0,0,1-.928,1.607l-7.206,4.16m12.827-7.4c-.514.3-.932.058-.934-.532a2.046,2.046,0,0,1,.928-1.607l8.635-4.986c.513-.3.932-.058.933.532a2.04,2.04,0,0,1-.927,1.607l-8.635,4.986m-22.989,13.461-.007-2.515,5.584-3.224.007,2.515-5.584,3.224M265.745,320l-60.51,34.936a6.153,6.153,0,0,0-2.79,4.832l.182,64.184c.006,1.77,1.26,2.486,2.809,1.592L265.944,390.6a6.138,6.138,0,0,0,2.79-4.825l-.182-64.182c0-1.771-1.259-2.494-2.808-1.6" transform="translate(-202.445 -319.612)" fill="#00edf9"/>
            <path id="Path_2437" data-name="Path 2437" d="M209.15,365.281a1.027,1.027,0,0,0-.468.809l.115,40.5c0,.29.21.41.47.26l51.457-29.709a1.021,1.021,0,0,0,.468-.8c0-.3-.21-.419-.47-.268l-51,29.442-.113-39.958c0-.3-.211-.419-.464-.272" transform="translate(-201.41 -312.042)" fill="#a5ffff"/>
            <path id="Path_2438" data-name="Path 2438" d="M218.7,383.8l-5.829,3.365.024,8.571,5.829-3.365L218.7,383.8" transform="translate(-200.715 -308.956)" fill="#fdf7fb"/>
            <path id="Path_2439" data-name="Path 2439" d="M228.192,372.781l-5.822,3.361.043,15.021,5.822-3.361-.043-15.021" transform="translate(-199.137 -310.786)" fill="#fdf7fb"/>
            <path id="Path_2440" data-name="Path 2440" d="M237.717,369.1l-5.829,3.365.037,12.9L237.754,382l-.037-12.9" transform="translate(-197.557 -311.397)" fill="#fdf7fb"/>
            <path id="Path_2441" data-name="Path 2441" d="M247.212,357.244l-5.829,3.365.058,20.325,5.829-3.365-.058-20.325" transform="translate(-195.981 -313.366)" fill="#fdf7fb"/>
            <path id="Path_2442" data-name="Path 2442" d="M218.682,379.256l-5.829,3.365.015,5.3,5.829-3.365-.015-5.3" transform="translate(-200.717 -309.712)" fill="#a5ffff"/>
            <path id="Path_2443" data-name="Path 2443" d="M228.169,364.8l-5.822,3.361.026,9.307,5.822-3.361-.026-9.307" transform="translate(-199.141 -312.111)" fill="#a5ffff"/>
            <path id="Path_2444" data-name="Path 2444" d="M237.7,362.252l-5.829,3.365.023,7.99,5.829-3.365-.023-7.99" transform="translate(-197.561 -312.534)" fill="#a5ffff"/>
            <path id="Path_2445" data-name="Path 2445" d="M247.182,346.452l-5.829,3.365.036,12.583,5.829-3.365-.036-12.583" transform="translate(-195.986 -315.157)" fill="#a5ffff"/>
            <path id="Path_2446" data-name="Path 2446" d="M214.635,351.187l-5.583,3.224.007,2.515,5.583-3.224-.007-2.515" transform="translate(-201.348 -314.371)" fill="#fdf7fb"/>
            <path id="Path_2447" data-name="Path 2447" d="M214.648,355.78,209.064,359l.007,2.515,5.583-3.224-.007-2.515" transform="translate(-201.346 -313.609)" fill="#fdf7fb"/>
            <path id="Path_2448" data-name="Path 2448" d="M225.1,345.531l-7.206,4.16a2.048,2.048,0,0,0-.928,1.607c0,.59.42.829.934.532l7.206-4.16a2.044,2.044,0,0,0,.928-1.607c0-.59-.42-.828-.934-.532" transform="translate(-200.034 -315.331)" fill="#a5ffff"/>
            <path id="Path_2449" data-name="Path 2449" d="M226.429,344.188a1.9,1.9,0,0,0-.662.677l-.111.227-.089.239-.044.223-.022.226a.657.657,0,0,0,.271.6.676.676,0,0,0,.663-.065,1.956,1.956,0,0,0,.661-.7,1.865,1.865,0,0,0,.266-.907l-.015-.2-.059-.162-.083-.141-.112-.1a.7.7,0,0,0-.663.087" transform="translate(-198.618 -315.556)" fill="#a5ffff"/>
            <path id="Path_2450" data-name="Path 2450" d="M237.536,338.472l-8.635,4.986a2.046,2.046,0,0,0-.928,1.607c0,.59.42.828.934.532l8.635-4.986a2.04,2.04,0,0,0,.927-1.607c0-.59-.42-.828-.933-.532" transform="translate(-198.208 -316.503)" fill="#a5ffff"/>
            <path id="Path_2451" data-name="Path 2451" d="M232.794,346.323l-14.882,8.592a2.046,2.046,0,0,0-.928,1.607c0,.59.421.828.934.532l14.882-8.592a2.047,2.047,0,0,0,.928-1.606c0-.591-.421-.829-.934-.533" transform="translate(-200.032 -315.2)" fill="#a5ffff"/>
            <path id="Path_2452" data-name="Path 2452" d="M236.808,343.065l-3.433,1.981a2.048,2.048,0,0,0-.927,1.607c0,.59.42.829.934.532l3.432-1.981a2.042,2.042,0,0,0,.927-1.607c0-.59-.42-.829-.933-.532" transform="translate(-197.465 -315.74)" fill="#a5ffff"/>
          </g>
        </g>
        <g id="Group_4801" data-name="Group 4801" transform="translate(96.1 502.693)">
          <g id="Group_4800" data-name="Group 4800">
            <g id="Group_4799" data-name="Group 4799">
              <g id="Group_4798" data-name="Group 4798">
                <path id="Path_2453" data-name="Path 2453" d="M98.877,467.685l-12.806,7.434-12.862-7.434,12.862-7.434Z" transform="translate(-73.209 -460.251)" fill="url(#linear-gradient-4)"/>
              </g>
              <path id="Path_2454" data-name="Path 2454" d="M97.045,466.627V648.8l-12.806,7.434V474.06Z" transform="translate(-71.378 -459.193)" fill="url(#linear-gradient-5)"/>
              <path id="Path_2455" data-name="Path 2455" d="M86.071,474.06V656.237L73.209,648.8V466.627Z" transform="translate(-73.209 -459.193)" fill="url(#linear-gradient-6)"/>
            </g>
          </g>
          <path id="Path_2456" data-name="Path 2456" d="M86.07,460.251l-12.862,7.434V649.862L86.07,657.3l12.806-7.434V467.685Z" transform="translate(-73.209 -460.251)" fill="url(#linear-gradient-15)"/>
        </g>
      </g>
    </g>
    <g id="Group_4685" data-name="Group 4685" transform="translate(2014.551 797.374)">
      <g id="Group_4684" data-name="Group 4684" transform="translate(0 133.29)">
        <g id="Group_4679" data-name="Group 4679" transform="translate(13.695)">
          <g id="Group_4675" data-name="Group 4675">
            <g id="Group_4670" data-name="Group 4670" transform="translate(0 86.182)">
              <g id="Group_4669" data-name="Group 4669">
                <g id="Group_4668" data-name="Group 4668" opacity="0.68">
                  <g id="Group_4666" data-name="Group 4666">
                    <path id="Path_2171" data-name="Path 2171" d="M151.923,277.29l122.87,70.939a2.04,2.04,0,0,0,2.046,0l61.716-35.862a2.041,2.041,0,0,0-.005-3.532L215.68,237.892a2.041,2.041,0,0,0-2.046,0l-61.716,35.863a2.041,2.041,0,0,0,0,3.535Z" transform="translate(-150.903 -237.619)" fill="url(#linear-gradient-67)"/>
                    <g id="Group_4665" data-name="Group 4665" transform="translate(0 37.909)">
                      <path id="Path_2172" data-name="Path 2172" d="M150.93,296.419a2.021,2.021,0,0,0,1.021,1.761L274.82,369.119a2.039,2.039,0,0,0,2.045,0l61.716-35.862a2,2,0,0,0,.979-1.476l.016-.008v1.882a2.066,2.066,0,0,1,0,.228v.143l-.016.01a1.983,1.983,0,0,1-.979,1.474l-61.716,35.863a2.039,2.039,0,0,1-2.045,0l-122.869-70.94a1.981,1.981,0,0,1-.979-1.435l-.041-.024v-2.556Z" transform="translate(-150.93 -296.418)" fill="url(#linear-gradient-68)"/>
                      <path id="Path_2173" data-name="Path 2173" d="M150.93,296.419a2.021,2.021,0,0,0,1.021,1.761L274.82,369.119a2.039,2.039,0,0,0,2.045,0l61.716-35.862a2,2,0,0,0,.979-1.476l.016-.008v1.882a2.066,2.066,0,0,1,0,.228v.143l-.016.01a1.983,1.983,0,0,1-.979,1.474l-61.716,35.863a2.039,2.039,0,0,1-2.045,0l-122.869-70.94a1.981,1.981,0,0,1-.979-1.435l-.041-.024v-2.556Z" transform="translate(-150.93 -296.418)" fill="url(#linear-gradient-69)"/>
                    </g>
                  </g>
                  <g id="Group_4667" data-name="Group 4667" transform="translate(36.468 8.931)">
                    <path id="Path_2174" data-name="Path 2174" d="M265.842,296.7l-3.252-1.874a.468.468,0,0,1,0-.887l3.246-1.877a1.7,1.7,0,0,1,1.536,0l3.251,1.875a.468.468,0,0,1,0,.886l-3.246,1.877a1.7,1.7,0,0,1-1.535,0Zm7.163-3.756-3.92-2.26a.264.264,0,0,1,0-.5L273,287.925a.958.958,0,0,1,.867,0l3.92,2.26a.264.264,0,0,1,0,.5l-3.914,2.263a.958.958,0,0,1-.868,0Zm-13.653,7.9-3.931-2.266a.261.261,0,0,1,0-.494l3.925-2.27a.945.945,0,0,1,.856,0l3.931,2.266a.261.261,0,0,1,0,.494l-3.926,2.27a.944.944,0,0,1-.855,0Zm-7.187,3.743-3.217-1.854a.478.478,0,0,1,0-.906l3.213-1.857a1.735,1.735,0,0,1,1.569,0l3.217,1.855a.478.478,0,0,1,0,.906l-3.213,1.857a1.733,1.733,0,0,1-1.569,0Zm6.67-11.927-3.252-1.875a.467.467,0,0,1,0-.886l3.246-1.877a1.7,1.7,0,0,1,1.536,0l3.251,1.874a.468.468,0,0,1,0,.886l-3.247,1.877a1.7,1.7,0,0,1-1.533,0Zm-6.49,4.145-3.931-2.266a.261.261,0,0,1,0-.495l3.925-2.269a.947.947,0,0,1,.856,0l3.932,2.266a.261.261,0,0,1,0,.495L253.2,296.81a.946.946,0,0,1-.855,0Zm-7.187,3.743-3.217-1.855a.478.478,0,0,1,0-.906l3.213-1.858a1.737,1.737,0,0,1,1.569,0l3.217,1.855a.478.478,0,0,1,0,.906l-3.213,1.857a1.734,1.734,0,0,1-1.568,0Zm14.012,8.078-3.217-1.855a.478.478,0,0,1,0-.906l3.213-1.857a1.733,1.733,0,0,1,1.569,0l3.217,1.854a.478.478,0,0,1,0,.906l-3.213,1.857a1.735,1.735,0,0,1-1.567,0Zm41.858.472-3.92-2.26a.264.264,0,0,1,0-.5l3.914-2.264a.958.958,0,0,1,.867,0l3.92,2.26a.264.264,0,0,1,0,.5L301.9,309.1a.958.958,0,0,1-.87,0ZM280.01,296.987l-3.92-2.26a.264.264,0,0,1,0-.5l3.91-2.262a.958.958,0,0,1,.867,0l3.92,2.26a.264.264,0,0,1,0,.5l-3.914,2.263a.958.958,0,0,1-.862,0Zm1.943,27.144,3.169,1.827a.493.493,0,0,1,0,.934l-3.164,1.83a1.789,1.789,0,0,1-1.618,0l-3.169-1.827a.493.493,0,0,1,0-.934l3.164-1.83a1.786,1.786,0,0,1,1.619,0Zm26.082-10.989-3.92-2.26a.264.264,0,0,1,0-.5l3.914-2.263a.958.958,0,0,1,.867,0l3.92,2.26a.264.264,0,0,1,0,.5l-3.914,2.263a.958.958,0,0,1-.866,0Zm-35.188-12.4L269.6,298.87a.468.468,0,0,1,0-.886l3.246-1.877a1.7,1.7,0,0,1,1.535,0l3.252,1.874a.468.468,0,0,1,0,.887l-3.247,1.877a1.7,1.7,0,0,1-1.538,0ZM266,288.91l-3.92-2.26a.264.264,0,0,1,0-.5l3.914-2.264a.958.958,0,0,1,.867,0l3.92,2.26a.264.264,0,0,1,0,.5l-3.914,2.263a.956.956,0,0,1-.867,0Zm.359,15.979-3.931-2.266a.261.261,0,0,1,0-.495l3.926-2.269a.946.946,0,0,1,.856,0l3.931,2.266a.261.261,0,0,1,0,.5l-3.926,2.269a.944.944,0,0,1-.857,0Zm-42.217-16.451-3.217-1.855a.478.478,0,0,1,0-.906l3.212-1.857a1.734,1.734,0,0,1,1.57,0l3.217,1.854a.478.478,0,0,1,0,.906l-3.213,1.857a1.734,1.734,0,0,1-1.57,0Zm13.676-7.888-3.252-1.874a.468.468,0,0,1,0-.886l3.246-1.877a1.7,1.7,0,0,1,1.536,0l3.251,1.874a.468.468,0,0,1,0,.886l-3.247,1.877a1.7,1.7,0,0,1-1.535,0Zm-6.49,4.145-3.931-2.266a.261.261,0,0,1,0-.495l3.926-2.269a.946.946,0,0,1,.856,0l3.932,2.266a.261.261,0,0,1,0,.495l-3.926,2.27a.946.946,0,0,1-.858,0Zm13.653-7.9-3.92-2.26a.264.264,0,0,1,0-.5l3.914-2.263a.958.958,0,0,1,.867,0l3.92,2.26a.264.264,0,0,1,0,.5l-3.913,2.263A.959.959,0,0,1,244.981,276.8ZM216.8,268.433l-3.251-1.874a.468.468,0,0,1,0-.887l3.246-1.877a1.7,1.7,0,0,1,1.536,0l3.251,1.875a.467.467,0,0,1,0,.886l-3.247,1.877a1.7,1.7,0,0,1-1.535,0Zm-6.49,4.145-3.931-2.266a.261.261,0,0,1,0-.494l3.926-2.27a.946.946,0,0,1,.856,0l3.931,2.267a.261.261,0,0,1,0,.494l-3.926,2.27a.944.944,0,0,1-.857,0Zm13.653-7.9-3.92-2.26a.264.264,0,0,1,0-.5l3.914-2.263a.958.958,0,0,1,.867,0l3.92,2.26a.264.264,0,0,1,0,.5l-3.913,2.263a.959.959,0,0,1-.869,0Zm64.8,55.492,3.217,1.855a.478.478,0,0,1,0,.906l-3.213,1.857a1.732,1.732,0,0,1-1.569,0l-3.217-1.854a.478.478,0,0,1,0-.906l3.212-1.857a1.736,1.736,0,0,1,1.567,0Zm-43.42-27.4-3.931-2.266a.261.261,0,0,1,0-.494l3.926-2.27a.946.946,0,0,1,.856,0l3.931,2.267a.261.261,0,0,1,0,.494l-3.926,2.27a.944.944,0,0,1-.859,0Zm6.49-4.145-3.252-1.874a.468.468,0,0,1,0-.887l3.246-1.877a1.7,1.7,0,0,1,1.536,0l3.251,1.875a.467.467,0,0,1,0,.886l-3.247,1.877a1.7,1.7,0,0,1-1.538,0Zm-13.676,7.888-3.217-1.855a.478.478,0,0,1,0-.906l3.213-1.857a1.733,1.733,0,0,1,1.569,0l3.217,1.855a.478.478,0,0,1,0,.906l-3.213,1.857a1.732,1.732,0,0,1-1.573,0ZM259,284.869l-3.92-2.26a.264.264,0,0,1,0-.5l3.914-2.263a.958.958,0,0,1,.867,0l3.92,2.26a.264.264,0,0,1,0,.5l-3.914,2.263a.958.958,0,0,1-.871,0Zm-20.659,3.862-3.932-2.267a.261.261,0,0,1,0-.494l3.926-2.27a.946.946,0,0,1,.856,0l3.931,2.266a.261.261,0,0,1,0,.5L239.2,288.73a.946.946,0,0,1-.859,0Zm-7.187,3.743-3.217-1.855a.478.478,0,0,1,0-.906l3.213-1.857a1.735,1.735,0,0,1,1.569,0l3.217,1.855a.478.478,0,0,1,0,.906l-3.213,1.857a1.737,1.737,0,0,1-1.573,0Zm13.676-7.888-3.252-1.875a.468.468,0,0,1,0-.886l3.246-1.877a1.7,1.7,0,0,1,1.536,0l3.251,1.874a.468.468,0,0,1,0,.887l-3.247,1.877a1.7,1.7,0,0,1-1.538,0Zm7.163-3.757-3.92-2.26a.264.264,0,0,1,0-.5l3.914-2.264a.958.958,0,0,1,.867,0l3.92,2.26a.264.264,0,0,1,0,.5l-3.914,2.264a.958.958,0,0,1-.87,0Zm-13.152-13.1,3.92,2.26a.264.264,0,0,1,0,.5l-3.913,2.264a.961.961,0,0,1-.868,0l-3.92-2.26a.264.264,0,0,1,0-.5l3.914-2.263a.958.958,0,0,1,.864,0Zm-20.671,3.856,3.931,2.266a.261.261,0,0,1,0,.5l-3.925,2.269a.947.947,0,0,1-.856,0l-3.931-2.266a.261.261,0,0,1,0-.495l3.926-2.269a.946.946,0,0,1,.852,0Zm-6.47,4.155,3.217,1.855a.478.478,0,0,1,0,.906L211.7,280.36a1.735,1.735,0,0,1-1.569,0l-3.217-1.855a.478.478,0,0,1,0-.906l3.213-1.857a1.734,1.734,0,0,1,1.565,0Zm13.642-7.907,3.251,1.874a.468.468,0,0,1,0,.886l-3.247,1.877a1.7,1.7,0,0,1-1.535,0l-3.252-1.874a.468.468,0,0,1,0-.886l3.246-1.877a1.7,1.7,0,0,1,1.534,0Zm7.006,4.039,3.251,1.875a.468.468,0,0,1,0,.887l-3.247,1.877a1.7,1.7,0,0,1-1.535,0l-3.252-1.874a.468.468,0,0,1,0-.886l3.247-1.877a1.7,1.7,0,0,1,1.533,0ZM204.886,279.7l3.169,1.827a.493.493,0,0,1,0,.934l-3.164,1.829a1.787,1.787,0,0,1-1.618,0l-3.169-1.826a.493.493,0,0,1,0-.934l3.164-1.83a1.79,1.79,0,0,1,1.618,0Zm20.284-4.078,3.931,2.266a.261.261,0,0,1,0,.494l-3.925,2.27a.945.945,0,0,1-.856,0l-3.932-2.266a.261.261,0,0,1,0-.494l3.926-2.27a.944.944,0,0,1,.856,0Zm6.659-11.934,3.92,2.26a.264.264,0,0,1,0,.5l-3.914,2.263a.958.958,0,0,1-.867,0l-3.92-2.26a.264.264,0,0,1,0-.5l3.914-2.264a.96.96,0,0,1,.867,0ZM197.88,275.665l3.169,1.827a.493.493,0,0,1,0,.934l-3.164,1.83a1.789,1.789,0,0,1-1.618,0l-3.169-1.827a.493.493,0,0,1,0-.934l3.164-1.83a1.786,1.786,0,0,1,1.618,0Zm97.352,40.349,3.932,2.266a.261.261,0,0,1,0,.494l-3.926,2.27a.944.944,0,0,1-.856,0l-3.931-2.266a.261.261,0,0,1,0-.494l3.926-2.27a.944.944,0,0,1,.855,0Zm-84.421-64.44,11.078,6.386a.264.264,0,0,1,0,.5l-3.914,2.264a.958.958,0,0,1-.867,0L206.03,254.34a.264.264,0,0,1,0-.5l3.914-2.263a.958.958,0,0,1,.867,0Zm-11.439,14.7a.261.261,0,0,1,0-.494l3.926-2.27a.946.946,0,0,1,.856,0l3.931,2.266a.261.261,0,0,1,0,.495l-3.926,2.269a.946.946,0,0,1-.856,0Zm-8.5,5.354,3.169,1.827a.493.493,0,0,1,0,.934l-3.164,1.83a1.789,1.789,0,0,1-1.618,0l-3.169-1.826a.493.493,0,0,1,0-.934l3.164-1.83a1.788,1.788,0,0,1,1.62,0ZM218.7,279.78l3.217,1.855a.478.478,0,0,1,0,.906L218.7,284.4a1.732,1.732,0,0,1-1.569,0l-3.217-1.854a.478.478,0,0,1,0-.906l3.212-1.857a1.736,1.736,0,0,1,1.574,0Zm-28.025-16.155,17.1,9.856a.479.479,0,0,1,0,.906l-3.213,1.857a1.734,1.734,0,0,1-1.569,0l-17.1-9.857a.478.478,0,0,1,0-.906l3.213-1.857a1.732,1.732,0,0,1,1.568,0Zm-6.806,3.963,3.169,1.827a.493.493,0,0,1,0,.934l-3.164,1.83a1.791,1.791,0,0,1-1.618,0l-3.169-1.827a.493.493,0,0,1,0-.934l3.164-1.829a1.786,1.786,0,0,1,1.617,0ZM205.2,256.226l8.491,4.895a1.006,1.006,0,0,1,0,1.906l-1.483.857a3.65,3.65,0,0,1-3.3,0l-3.7-2.135a3.647,3.647,0,0,0-3.3,0l-3.541,2.048a3.651,3.651,0,0,1-3.3,0l-1.485-.856a1.006,1.006,0,0,1,0-1.906l8.323-4.812a3.647,3.647,0,0,1,3.3,0Zm62.743,59.829,3.169,1.826a.493.493,0,0,1,0,.934l-3.164,1.83a1.791,1.791,0,0,1-1.618,0l-3.169-1.827a.493.493,0,0,1,0-.934l3.164-1.829a1.786,1.786,0,0,1,1.617,0ZM211.98,283.793,257.1,309.8a.493.493,0,0,1,0,.934l-3.164,1.829a1.789,1.789,0,0,1-1.618,0L207.2,286.557a.493.493,0,0,1,0-.934l3.164-1.83A1.789,1.789,0,0,1,211.98,283.793Zm62.768,28.3,3.217,1.855a.478.478,0,0,1,0,.906l-3.213,1.857a1.734,1.734,0,0,1-1.569,0l-3.217-1.855a.478.478,0,0,1,0-.906l3.212-1.857a1.734,1.734,0,0,1,1.569,0Zm6.472-4.155,3.931,2.267a.261.261,0,0,1,0,.494l-3.926,2.27a.946.946,0,0,1-.855,0l-3.932-2.266a.261.261,0,0,1,0-.494l3.926-2.27a.946.946,0,0,1,.856,0Zm7.006,4.039,3.931,2.266a.261.261,0,0,1,0,.495l-3.926,2.269a.946.946,0,0,1-.856,0l-3.931-2.266a.261.261,0,0,1,0-.494l3.926-2.269a.944.944,0,0,1,.856,0ZM274.948,320.1l3.169,1.827a.493.493,0,0,1,0,.934l-3.164,1.83a1.787,1.787,0,0,1-1.618,0l-3.169-1.826a.493.493,0,0,1,0-.934l3.164-1.83a1.788,1.788,0,0,1,1.618,0Zm6.806-3.963,3.217,1.855a.478.478,0,0,1,0,.906l-3.213,1.857a1.735,1.735,0,0,1-1.569,0l-3.217-1.855a.478.478,0,0,1,0-.906l3.212-1.858a1.738,1.738,0,0,1,1.569,0Zm13.586-7.94,10.314,5.946a.468.468,0,0,1,0,.886l-3.247,1.877a1.7,1.7,0,0,1-1.535,0l-10.314-5.945a.468.468,0,0,1,0-.886L293.8,308.2a1.7,1.7,0,0,1,1.534,0Zm-13.957-8.045,3.252,1.874a.468.468,0,0,1,0,.887l-3.247,1.877a1.7,1.7,0,0,1-1.535,0l-3.253-1.88a.468.468,0,0,1,0-.887l3.247-1.877a1.7,1.7,0,0,1,1.535,0Zm-7.169,3.753,3.931,2.266a.261.261,0,0,1,0,.495l-3.925,2.269a.947.947,0,0,1-.856,0l-3.931-2.267a.261.261,0,0,1,0-.494l3.926-2.27a.946.946,0,0,1,.854,0Zm13.664-7.9,3.92,2.26a.264.264,0,0,1,0,.5l-3.914,2.264a.958.958,0,0,1-.867,0l-3.92-2.26a.264.264,0,0,1,0-.5L287.011,296a.956.956,0,0,1,.867,0Zm7.006,4.039,3.92,2.26a.264.264,0,0,1,0,.5l-3.913,2.263a.96.96,0,0,1-.868,0l-3.92-2.26a.264.264,0,0,1,0-.5l3.914-2.263a.958.958,0,0,1,.867,0Zm-27.143,8.011,3.217,1.855a.478.478,0,0,1,0,.906l-3.213,1.858a1.737,1.737,0,0,1-1.569,0l-3.217-1.855a.478.478,0,0,1,0-.906l3.212-1.857a1.736,1.736,0,0,1,1.57,0Zm20.648-3.869,3.251,1.874a.468.468,0,0,1,0,.887l-3.246,1.877a1.7,1.7,0,0,1-1.535,0l-3.252-1.874a.468.468,0,0,1,0-.886l3.246-1.877a1.7,1.7,0,0,1,1.536,0Zm-27.454,7.832,3.169,1.827a.493.493,0,0,1,0,.934l-3.164,1.83a1.789,1.789,0,0,1-1.618,0l-3.169-1.826a.493.493,0,0,1,0-.934l3.164-1.83a1.788,1.788,0,0,1,1.618,0Z" transform="translate(-178.752 -251.472)" fill="url(#linear-gradient-70)"/>
                    <path id="Path_2175" data-name="Path 2175" d="M277.356,317.607l48.869,28.214,19.447-11.228L296.8,306.38Z" transform="translate(-274.998 -270.979)" fill="url(#linear-gradient-71)"/>
                  </g>
                </g>
              </g>
            </g>
            <g id="Group_4674" data-name="Group 4674" transform="translate(64.008)">
              <path id="Path_2176" data-name="Path 2176" d="M121.6,190.938l123.22,71.141a2.04,2.04,0,0,0,3.019-1.355l16.906-82.078a2.041,2.041,0,0,0-.978-2.179l-123.22-71.141a2.04,2.04,0,0,0-3.019,1.355l-16.9,82.079a2.04,2.04,0,0,0,.976,2.178Z" transform="translate(-120.582 -104.338)" opacity="0.94" fill="url(#linear-gradient-72)"/>
              <g id="Group_4672" data-name="Group 4672" transform="translate(2.754 4.749)">
                <path id="Path_2177" data-name="Path 2177" d="M262.246,179.689,144.422,111.663a2.613,2.613,0,0,0-3.866,1.736l-15.649,75.975a2.613,2.613,0,0,0,1.253,2.79L243.985,260.19a2.613,2.613,0,0,0,3.866-1.736L263.5,182.479A2.614,2.614,0,0,0,262.246,179.689Z" transform="translate(-124.854 -111.311)" fill="url(#linear-gradient-73)"/>
                <g id="Group_4671" data-name="Group 4671" transform="translate(13.675 12.433)">
                  <path id="Path_2178" data-name="Path 2178" d="M153.31,136.013l93.214,54.064,1.049-5.418L154.359,130.6Z" transform="translate(-140.896 -130.595)" fill="url(#linear-gradient-74)"/>
                  <path id="Path_2179" data-name="Path 2179" d="M156.139,207.177l61.555,35.7,6.483-33.487-61.555-35.7Z" transform="translate(-119.323 -145.906)" fill="#54c9ff"/>
                  <path id="Path_2180" data-name="Path 2180" d="M286.257,193.919,260.01,178.7l6.483-33.487,26.247,15.223Z" transform="translate(-254.854 -135.787)" fill="#2069c7"/>
                  <path id="Path_2181" data-name="Path 2181" d="M168.134,275.324l40.725,23.62,4.052-20.933-40.725-23.62Z" transform="translate(-115.79 -174.577)" fill="#064280"/>
                  <path id="Path_2182" data-name="Path 2182" d="M238.2,228.4l47.9,27.781,4.052-20.933-47.9-27.78Z" transform="translate(-238.197 -157.908)" fill="#529dfa"/>
                  <path id="Path_2183" data-name="Path 2183" d="M173.493,281.851l14.923,8.655-.2,1.006L173.3,282.857Z" transform="translate(-94.624 -184.333)" fill="#0182aa"/>
                  <path id="Path_2184" data-name="Path 2184" d="M174.394,288.629l12.563,7.287-.2,1.006L174.2,289.635Z" transform="translate(-93.747 -186.742)" fill="#0182aa"/>
                  <path id="Path_2185" data-name="Path 2185" d="M175.3,290.644l15.5,8.989-.2,1.006-15.5-8.989Z" transform="translate(-98.165 -187.458)" fill="#0182aa"/>
                  <path id="Path_2186" data-name="Path 2186" d="M176.2,297.116l13.481,7.819-.2,1.006L176,298.122Z" transform="translate(-97.63 -189.757)" fill="#0182aa"/>
                  <path id="Path_2187" data-name="Path 2187" d="M177.1,305.722l9.09,5.272-.2,1.006-9.09-5.272Z" transform="translate(-94.721 -192.814)" fill="#0182aa"/>
                  <path id="Path_2188" data-name="Path 2188" d="M202.371,262.838l17.438,10.114-.2,1.006-17.438-10.114Z" transform="translate(-144.637 -177.579)" fill="#0182aa"/>
                  <path id="Path_2189" data-name="Path 2189" d="M203.273,270.311l14.307,8.3-.2,1.006-14.307-8.3Z" transform="translate(-142.988 -180.234)" fill="#0182aa"/>
                  <path id="Path_2190" data-name="Path 2190" d="M204.174,279.7l9.051,5.249-.2,1.006-9.05-5.249Z" transform="translate(-139.214 -183.568)" fill="#0182aa"/>
                  <path id="Path_2191" data-name="Path 2191" d="M205.075,276.806l17.438,10.114-.2,1.006L204.88,277.812Z" transform="translate(-149.084 -182.541)" fill="#0182aa"/>
                  <path id="Path_2192" data-name="Path 2192" d="M205.977,284.56l13.994,8.117-.2,1.006-13.994-8.117Z" transform="translate(-147.123 -185.296)" fill="#0182aa"/>
                  <path id="Path_2193" data-name="Path 2193" d="M241.2,229.134l44.656,25.9,3.423-17.683-44.656-25.9Z" transform="translate(-239.263 -159.322)" fill="none" stroke="#01ffff" stroke-miterlimit="10" stroke-width="0.26"/>
                  <line id="Line_210" data-name="Line 210" x1="44.656" y1="25.901" transform="translate(3.039 64.112)" fill="none" stroke="#01ffff" stroke-miterlimit="10" stroke-width="0.26"/>
                  <line id="Line_211" data-name="Line 211" x1="44.656" y1="25.901" transform="translate(4.201 58.108)" fill="none" stroke="#01ffff" stroke-miterlimit="10" stroke-width="0.26"/>
                  <path id="Path_2194" data-name="Path 2194" d="M287.449,255.458l-3-7.858-5.371,2.443-5.208-17.867-6.94,6-3.048-6.965-7.029,7.759-2.071-15.256-4.006,8.367-1.688-9.449-2.484-1.441" transform="translate(-240.921 -162.782)" fill="none" stroke="#15ff5f" stroke-linecap="round" stroke-linejoin="round" stroke-width="1.041"/>
                  <path id="Path_2195" data-name="Path 2195" d="M156.735,209.839l8.654,5.019L166,211.72l-8.654-5.019Z" transform="translate(-61.527 -157.634)" fill="#889fff"/>
                  <path id="Path_2196" data-name="Path 2196" d="M162.135,242.624,180.022,253l5.347-27.622L167.482,215Z" transform="translate(-84.382 -160.583)" fill="#239bd5"/>
                  <path id="Path_2197" data-name="Path 2197" d="M199.184,186.376l30.546,17.717.823-4.251-30.546-17.717Z" transform="translate(-153.45 -148.903)" fill="#239bd5"/>
                  <path id="Path_2198" data-name="Path 2198" d="M201.215,201.688,226.4,216.3l.823-4.251L202.034,197.44Z" transform="translate(-151.434 -154.343)" fill="#239bd5"/>
                  <path id="Path_2199" data-name="Path 2199" d="M203.246,207.361l30.546,17.717.823-4.251L204.069,203.11Z" transform="translate(-160.132 -156.358)" fill="#239bd5"/>
                  <path id="Path_2200" data-name="Path 2200" d="M205.277,226.017l21.471,12.453.823-4.251L206.1,221.766Z" transform="translate(-154.397 -162.986)" fill="#239bd5"/>
                  <path id="Path_2201" data-name="Path 2201" d="M264.277,173.584l4.606,2.671,1.138-5.876-4.606-2.671Z" transform="translate(-234.884 -143.781)" fill="#54c9ff"/>
                  <path id="Path_2202" data-name="Path 2202" d="M267.1,188.182l4.606,2.671,1.138-5.876-4.606-2.671Z" transform="translate(-239.532 -148.967)" fill="#54c9ff"/>
                  <path id="Path_2203" data-name="Path 2203" d="M269.929,202.78l4.606,2.671,1.138-5.876-4.606-2.671Z" transform="translate(-244.18 -154.153)" fill="#54c9ff"/>
                  <path id="Path_2204" data-name="Path 2204" d="M275.221,153.89l15.272,8.858.411-2.125-15.272-8.858Z" transform="translate(-262.825 -138.116)" fill="#5796ff"/>
                  <path id="Path_2205" data-name="Path 2205" d="M276.666,161.356l15.272,8.858.411-2.125-15.273-8.858Z" transform="translate(-265.202 -140.769)" fill="#5796ff"/>
                  <path id="Path_2206" data-name="Path 2206" d="M278.111,168.822l15.273,8.858.411-2.125L278.523,166.7Z" transform="translate(-267.579 -143.421)" fill="#5796ff"/>
                  <path id="Path_2207" data-name="Path 2207" d="M279.557,176.288l15.273,8.858.411-2.125-15.273-8.858Z" transform="translate(-269.956 -146.074)" fill="#5796ff"/>
                  <path id="Path_2208" data-name="Path 2208" d="M281,183.754l15.273,8.858.411-2.125-15.272-8.858Z" transform="translate(-272.333 -148.726)" fill="#5796ff"/>
                  <path id="Path_2209" data-name="Path 2209" d="M282.447,191.22l15.272,8.858.411-2.125L282.858,189.1Z" transform="translate(-274.71 -151.379)" fill="#5796ff"/>
                  <path id="Path_2210" data-name="Path 2210" d="M252.1,136.623l28.194,16.353.148-.766-28.2-16.353Z" transform="translate(-237.454 -132.465)" fill="#89d1ff"/>
                </g>
              </g>
              <g id="Group_4673" data-name="Group 4673" transform="translate(17.735)">
                <path id="Path_2211" data-name="Path 2211" d="M226.554,261.837l-.074.037v-.014Zm-108.141-156.8c-.014.01-.03.015-.043.026h0Zm1.552-.8a2.027,2.027,0,0,1,2.061-.015l123.22,71.141a2.041,2.041,0,0,1,.979,2.179L229.319,259.62a2,2,0,0,1-1.373,1.511v.021l-.9.446a2.009,2.009,0,0,0,.849-1.264l16.9-82.081a2.041,2.041,0,0,0-.978-2.179L120.6,104.933a2.016,2.016,0,0,0-1.73-.134l1.094-.566Z" transform="translate(-118.367 -103.945)" fill="url(#linear-gradient-75)"/>
                <path id="Path_2212" data-name="Path 2212" d="M226.554,261.837l-.074.037v-.014Zm-108.141-156.8c-.014.01-.03.015-.043.026h0Zm1.552-.8a2.027,2.027,0,0,1,2.061-.015l123.22,71.141a2.041,2.041,0,0,1,.979,2.179L229.319,259.62a2,2,0,0,1-1.373,1.511v.021l-.9.446a2.009,2.009,0,0,0,.849-1.264l16.9-82.081a2.041,2.041,0,0,0-.978-2.179L120.6,104.933a2.016,2.016,0,0,0-1.73-.134l1.094-.566Z" transform="translate(-118.367 -103.945)" fill="url(#linear-gradient-76)"/>
              </g>
            </g>
          </g>
        </g>
      </g>
    </g>
    <path id="Path_2161" data-name="Path 2161" d="M-14653.1,173.86s75.852,257.432-144.675,206.239-219.281,19.752-219.281,19.752l-.025-209.581s.6-6.7,5.25-11.4a18.131,18.131,0,0,1,10.833-5.035Z" transform="translate(15981.151 441.915)" fill="url(#linear-gradient)"/>
  </g>
</svg>
