<svg xmlns="http://www.w3.org/2000/svg" width="134.243" height="77.442" viewBox="0 0 134.243 77.442">
  <path id="keyboard" d="M265.842,296.7l-3.252-1.874a.468.468,0,0,1,0-.887l3.246-1.877a1.7,1.7,0,0,1,1.536,0l3.251,1.875a.468.468,0,0,1,0,.886l-3.246,1.877a1.7,1.7,0,0,1-1.535,0Zm7.163-3.756-3.92-2.26a.264.264,0,0,1,0-.5L273,287.925a.958.958,0,0,1,.867,0l3.92,2.26a.264.264,0,0,1,0,.5l-3.914,2.263a.958.958,0,0,1-.868,0Zm-13.653,7.9-3.931-2.266a.261.261,0,0,1,0-.494l3.925-2.27a.945.945,0,0,1,.856,0l3.931,2.266a.261.261,0,0,1,0,.494l-3.926,2.27a.944.944,0,0,1-.855,0Zm-7.187,3.743-3.217-1.854a.478.478,0,0,1,0-.906l3.213-1.857a1.735,1.735,0,0,1,1.569,0l3.217,1.855a.478.478,0,0,1,0,.906l-3.213,1.857a1.733,1.733,0,0,1-1.569,0Zm6.67-11.927-3.252-1.875a.467.467,0,0,1,0-.886l3.246-1.877a1.7,1.7,0,0,1,1.536,0l3.251,1.874a.468.468,0,0,1,0,.886l-3.247,1.877a1.7,1.7,0,0,1-1.533,0Zm-6.49,4.145-3.931-2.266a.261.261,0,0,1,0-.495l3.925-2.269a.947.947,0,0,1,.856,0l3.932,2.266a.261.261,0,0,1,0,.495L253.2,296.81a.946.946,0,0,1-.855,0Zm-7.187,3.743-3.217-1.855a.478.478,0,0,1,0-.906l3.213-1.858a1.737,1.737,0,0,1,1.569,0l3.217,1.855a.478.478,0,0,1,0,.906l-3.213,1.857a1.734,1.734,0,0,1-1.568,0Zm14.012,8.078-3.217-1.855a.478.478,0,0,1,0-.906l3.213-1.857a1.733,1.733,0,0,1,1.569,0l3.217,1.854a.478.478,0,0,1,0,.906l-3.213,1.857a1.735,1.735,0,0,1-1.567,0Zm41.858.472-3.92-2.26a.264.264,0,0,1,0-.5l3.914-2.264a.958.958,0,0,1,.867,0l3.92,2.26a.264.264,0,0,1,0,.5L301.9,309.1a.958.958,0,0,1-.87,0ZM280.01,296.987l-3.92-2.26a.264.264,0,0,1,0-.5l3.91-2.262a.958.958,0,0,1,.867,0l3.92,2.26a.264.264,0,0,1,0,.5l-3.914,2.263a.958.958,0,0,1-.862,0Zm1.943,27.144,3.169,1.827a.493.493,0,0,1,0,.934l-3.164,1.83a1.789,1.789,0,0,1-1.618,0l-3.169-1.827a.493.493,0,0,1,0-.934l3.164-1.83a1.786,1.786,0,0,1,1.619,0Zm26.082-10.989-3.92-2.26a.264.264,0,0,1,0-.5l3.914-2.263a.958.958,0,0,1,.867,0l3.92,2.26a.264.264,0,0,1,0,.5l-3.914,2.263a.958.958,0,0,1-.866,0Zm-35.188-12.4L269.6,298.87a.468.468,0,0,1,0-.886l3.246-1.877a1.7,1.7,0,0,1,1.535,0l3.252,1.874a.468.468,0,0,1,0,.887l-3.247,1.877a1.7,1.7,0,0,1-1.538,0ZM266,288.91l-3.92-2.26a.264.264,0,0,1,0-.5l3.914-2.264a.958.958,0,0,1,.867,0l3.92,2.26a.264.264,0,0,1,0,.5l-3.914,2.263a.956.956,0,0,1-.867,0Zm.359,15.979-3.931-2.266a.261.261,0,0,1,0-.495l3.926-2.269a.946.946,0,0,1,.856,0l3.931,2.266a.261.261,0,0,1,0,.5l-3.926,2.269a.944.944,0,0,1-.857,0Zm-42.217-16.451-3.217-1.855a.478.478,0,0,1,0-.906l3.212-1.857a1.734,1.734,0,0,1,1.57,0l3.217,1.854a.478.478,0,0,1,0,.906l-3.213,1.857a1.734,1.734,0,0,1-1.57,0Zm13.676-7.888-3.252-1.874a.468.468,0,0,1,0-.886l3.246-1.877a1.7,1.7,0,0,1,1.536,0l3.251,1.874a.468.468,0,0,1,0,.886l-3.247,1.877a1.7,1.7,0,0,1-1.535,0Zm-6.49,4.145-3.931-2.266a.261.261,0,0,1,0-.495l3.926-2.269a.946.946,0,0,1,.856,0l3.932,2.266a.261.261,0,0,1,0,.495l-3.926,2.27a.946.946,0,0,1-.858,0Zm13.653-7.9-3.92-2.26a.264.264,0,0,1,0-.5l3.914-2.263a.958.958,0,0,1,.867,0l3.92,2.26a.264.264,0,0,1,0,.5l-3.913,2.263A.959.959,0,0,1,244.981,276.8ZM216.8,268.433l-3.251-1.874a.468.468,0,0,1,0-.887l3.246-1.877a1.7,1.7,0,0,1,1.536,0l3.251,1.875a.467.467,0,0,1,0,.886l-3.247,1.877a1.7,1.7,0,0,1-1.535,0Zm-6.49,4.145-3.931-2.266a.261.261,0,0,1,0-.494l3.926-2.27a.946.946,0,0,1,.856,0l3.931,2.267a.261.261,0,0,1,0,.494l-3.926,2.27a.944.944,0,0,1-.857,0Zm13.653-7.9-3.92-2.26a.264.264,0,0,1,0-.5l3.914-2.263a.958.958,0,0,1,.867,0l3.92,2.26a.264.264,0,0,1,0,.5l-3.913,2.263a.959.959,0,0,1-.869,0Zm64.8,55.492,3.217,1.855a.478.478,0,0,1,0,.906l-3.213,1.857a1.732,1.732,0,0,1-1.569,0l-3.217-1.854a.478.478,0,0,1,0-.906l3.212-1.857a1.736,1.736,0,0,1,1.567,0Zm-43.42-27.4-3.931-2.266a.261.261,0,0,1,0-.494l3.926-2.27a.946.946,0,0,1,.856,0l3.931,2.267a.261.261,0,0,1,0,.494l-3.926,2.27a.944.944,0,0,1-.859,0Zm6.49-4.145-3.252-1.874a.468.468,0,0,1,0-.887l3.246-1.877a1.7,1.7,0,0,1,1.536,0l3.251,1.875a.467.467,0,0,1,0,.886l-3.247,1.877a1.7,1.7,0,0,1-1.538,0Zm-13.676,7.888-3.217-1.855a.478.478,0,0,1,0-.906l3.213-1.857a1.733,1.733,0,0,1,1.569,0l3.217,1.855a.478.478,0,0,1,0,.906l-3.213,1.857a1.732,1.732,0,0,1-1.573,0ZM259,284.869l-3.92-2.26a.264.264,0,0,1,0-.5l3.914-2.263a.958.958,0,0,1,.867,0l3.92,2.26a.264.264,0,0,1,0,.5l-3.914,2.263a.958.958,0,0,1-.871,0Zm-20.659,3.862-3.932-2.267a.261.261,0,0,1,0-.494l3.926-2.27a.946.946,0,0,1,.856,0l3.931,2.266a.261.261,0,0,1,0,.5L239.2,288.73a.946.946,0,0,1-.859,0Zm-7.187,3.743-3.217-1.855a.478.478,0,0,1,0-.906l3.213-1.857a1.735,1.735,0,0,1,1.569,0l3.217,1.855a.478.478,0,0,1,0,.906l-3.213,1.857a1.737,1.737,0,0,1-1.573,0Zm13.676-7.888-3.252-1.875a.468.468,0,0,1,0-.886l3.246-1.877a1.7,1.7,0,0,1,1.536,0l3.251,1.874a.468.468,0,0,1,0,.887l-3.247,1.877a1.7,1.7,0,0,1-1.538,0Zm7.163-3.757-3.92-2.26a.264.264,0,0,1,0-.5l3.914-2.264a.958.958,0,0,1,.867,0l3.92,2.26a.264.264,0,0,1,0,.5l-3.914,2.264a.958.958,0,0,1-.87,0Zm-13.152-13.1,3.92,2.26a.264.264,0,0,1,0,.5l-3.913,2.264a.961.961,0,0,1-.868,0l-3.92-2.26a.264.264,0,0,1,0-.5l3.914-2.263a.958.958,0,0,1,.864,0Zm-20.671,3.856,3.931,2.266a.261.261,0,0,1,0,.5l-3.925,2.269a.947.947,0,0,1-.856,0l-3.931-2.266a.261.261,0,0,1,0-.495l3.926-2.269a.946.946,0,0,1,.852,0Zm-6.47,4.155,3.217,1.855a.478.478,0,0,1,0,.906L211.7,280.36a1.735,1.735,0,0,1-1.569,0l-3.217-1.855a.478.478,0,0,1,0-.906l3.213-1.857a1.734,1.734,0,0,1,1.565,0Zm13.642-7.907,3.251,1.874a.468.468,0,0,1,0,.886l-3.247,1.877a1.7,1.7,0,0,1-1.535,0l-3.252-1.874a.468.468,0,0,1,0-.886l3.246-1.877a1.7,1.7,0,0,1,1.534,0Zm7.006,4.039,3.251,1.875a.468.468,0,0,1,0,.887l-3.247,1.877a1.7,1.7,0,0,1-1.535,0l-3.252-1.874a.468.468,0,0,1,0-.886l3.247-1.877a1.7,1.7,0,0,1,1.533,0ZM204.886,279.7l3.169,1.827a.493.493,0,0,1,0,.934l-3.164,1.829a1.787,1.787,0,0,1-1.618,0l-3.169-1.826a.493.493,0,0,1,0-.934l3.164-1.83a1.79,1.79,0,0,1,1.618,0Zm20.284-4.078,3.931,2.266a.261.261,0,0,1,0,.494l-3.925,2.27a.945.945,0,0,1-.856,0l-3.932-2.266a.261.261,0,0,1,0-.494l3.926-2.27a.944.944,0,0,1,.856,0Zm6.659-11.934,3.92,2.26a.264.264,0,0,1,0,.5l-3.914,2.263a.958.958,0,0,1-.867,0l-3.92-2.26a.264.264,0,0,1,0-.5l3.914-2.264a.96.96,0,0,1,.867,0ZM197.88,275.665l3.169,1.827a.493.493,0,0,1,0,.934l-3.164,1.83a1.789,1.789,0,0,1-1.618,0l-3.169-1.827a.493.493,0,0,1,0-.934l3.164-1.83a1.786,1.786,0,0,1,1.618,0Zm97.352,40.349,3.932,2.266a.261.261,0,0,1,0,.494l-3.926,2.27a.944.944,0,0,1-.856,0l-3.931-2.266a.261.261,0,0,1,0-.494l3.926-2.27a.944.944,0,0,1,.855,0Zm-84.421-64.44,11.078,6.386a.264.264,0,0,1,0,.5l-3.914,2.264a.958.958,0,0,1-.867,0L206.03,254.34a.264.264,0,0,1,0-.5l3.914-2.263a.958.958,0,0,1,.867,0Zm-11.439,14.7a.261.261,0,0,1,0-.494l3.926-2.27a.946.946,0,0,1,.856,0l3.931,2.266a.261.261,0,0,1,0,.495l-3.926,2.269a.946.946,0,0,1-.856,0Zm-8.5,5.354,3.169,1.827a.493.493,0,0,1,0,.934l-3.164,1.83a1.789,1.789,0,0,1-1.618,0l-3.169-1.826a.493.493,0,0,1,0-.934l3.164-1.83a1.788,1.788,0,0,1,1.62,0ZM218.7,279.78l3.217,1.855a.478.478,0,0,1,0,.906L218.7,284.4a1.732,1.732,0,0,1-1.569,0l-3.217-1.854a.478.478,0,0,1,0-.906l3.212-1.857a1.736,1.736,0,0,1,1.574,0Zm-28.025-16.155,17.1,9.856a.479.479,0,0,1,0,.906l-3.213,1.857a1.734,1.734,0,0,1-1.569,0l-17.1-9.857a.478.478,0,0,1,0-.906l3.213-1.857a1.732,1.732,0,0,1,1.568,0Zm-6.806,3.963,3.169,1.827a.493.493,0,0,1,0,.934l-3.164,1.83a1.791,1.791,0,0,1-1.618,0l-3.169-1.827a.493.493,0,0,1,0-.934l3.164-1.829a1.786,1.786,0,0,1,1.617,0ZM205.2,256.226l8.491,4.895a1.006,1.006,0,0,1,0,1.906l-1.483.857a3.65,3.65,0,0,1-3.3,0l-3.7-2.135a3.647,3.647,0,0,0-3.3,0l-3.541,2.048a3.651,3.651,0,0,1-3.3,0l-1.485-.856a1.006,1.006,0,0,1,0-1.906l8.323-4.812a3.647,3.647,0,0,1,3.3,0Zm62.743,59.829,3.169,1.826a.493.493,0,0,1,0,.934l-3.164,1.83a1.791,1.791,0,0,1-1.618,0l-3.169-1.827a.493.493,0,0,1,0-.934l3.164-1.829a1.786,1.786,0,0,1,1.617,0ZM211.98,283.793l19.031,10.969L257.1,309.8a.493.493,0,0,1,0,.934l-3.164,1.829a1.789,1.789,0,0,1-1.618,0L223.9,296.182l-16.7-9.625a.493.493,0,0,1,0-.934l3.164-1.83A1.789,1.789,0,0,1,211.98,283.793Zm62.768,28.3,3.217,1.855a.478.478,0,0,1,0,.906l-3.213,1.857a1.734,1.734,0,0,1-1.569,0l-3.217-1.855a.478.478,0,0,1,0-.906l3.212-1.857a1.734,1.734,0,0,1,1.569,0Zm6.472-4.155,3.931,2.267a.261.261,0,0,1,0,.494l-3.926,2.27a.946.946,0,0,1-.855,0l-3.932-2.266a.261.261,0,0,1,0-.494l3.926-2.27a.946.946,0,0,1,.856,0Zm7.006,4.039,3.931,2.266a.261.261,0,0,1,0,.495l-3.926,2.269a.946.946,0,0,1-.856,0l-3.931-2.266a.261.261,0,0,1,0-.494l3.926-2.269a.944.944,0,0,1,.856,0ZM274.948,320.1l3.169,1.827a.493.493,0,0,1,0,.934l-3.164,1.83a1.787,1.787,0,0,1-1.618,0l-3.169-1.826a.493.493,0,0,1,0-.934l3.164-1.83a1.788,1.788,0,0,1,1.618,0Zm6.806-3.963,3.217,1.855a.478.478,0,0,1,0,.906l-3.213,1.857a1.735,1.735,0,0,1-1.569,0l-3.217-1.855a.478.478,0,0,1,0-.906l3.212-1.858a1.738,1.738,0,0,1,1.569,0Zm13.586-7.94,10.314,5.946a.468.468,0,0,1,0,.886l-3.247,1.877a1.7,1.7,0,0,1-1.535,0l-10.314-5.945a.468.468,0,0,1,0-.886L293.8,308.2a1.7,1.7,0,0,1,1.534,0Zm-13.957-8.045,3.252,1.874a.468.468,0,0,1,0,.887l-3.247,1.877a1.7,1.7,0,0,1-1.535,0l-3.253-1.88a.468.468,0,0,1,0-.887l3.247-1.877a1.7,1.7,0,0,1,1.535,0Zm-7.169,3.753,3.931,2.266a.261.261,0,0,1,0,.495l-3.925,2.269a.947.947,0,0,1-.856,0l-3.931-2.267a.261.261,0,0,1,0-.494l3.926-2.27a.946.946,0,0,1,.854,0Zm13.664-7.9,3.92,2.26a.264.264,0,0,1,0,.5l-3.914,2.264a.958.958,0,0,1-.867,0l-3.92-2.26a.264.264,0,0,1,0-.5L287.011,296a.956.956,0,0,1,.867,0Zm7.006,4.039,3.92,2.26a.264.264,0,0,1,0,.5l-3.913,2.263a.96.96,0,0,1-.868,0l-3.92-2.26a.264.264,0,0,1,0-.5l3.914-2.263a.958.958,0,0,1,.867,0Zm-27.143,8.011,3.217,1.855a.478.478,0,0,1,0,.906l-3.213,1.858a1.737,1.737,0,0,1-1.569,0l-3.217-1.855a.478.478,0,0,1,0-.906l3.212-1.857a1.736,1.736,0,0,1,1.57,0Zm20.648-3.869,3.251,1.874a.468.468,0,0,1,0,.887l-3.246,1.877a1.7,1.7,0,0,1-1.535,0l-3.252-1.874a.468.468,0,0,1,0-.886l3.246-1.877a1.7,1.7,0,0,1,1.536,0Zm-27.454,7.832,3.169,1.827a.493.493,0,0,1,0,.934l-3.164,1.83a1.789,1.789,0,0,1-1.618,0l-3.169-1.826a.493.493,0,0,1,0-.934l3.164-1.83a1.788,1.788,0,0,1,1.618,0Z" transform="translate(-178.752 -251.473)" fill="#7579ff"/>
</svg>
