<svg xmlns="http://www.w3.org/2000/svg" width="64.039" height="75.028" viewBox="0 0 64.039 75.028">
  <g id="screen_right_1" transform="translate(-2150.014 -5428.962)">
    <path id="Path_2325" data-name="Path 2325" d="M509.6,141.027s4.194-16.073,10.2-12.6,7.2,17.141,11.926,19.869,4.982-5.373,7.9-3.687,2.936,10.56,5.985,12.321,5.212-5.5,10.171-2.642c6.129,3.539,9.68,19,9.68,19L509.6,141.027m59.986,4.324-63.931-36.91-.108,38.118,63.931,36.91.108-38.118" transform="translate(1644.467 5320.521)" fill="#a5ffff" opacity="0.561"/>
    <path id="Path_2326" data-name="Path 2326" d="M519.228,125.649c-6.011-3.47-10.2,12.6-10.2,12.6L564.9,170.505s-3.552-15.46-9.68-19c-4.959-2.863-7.128,4.4-10.171,2.642s-3.071-10.639-5.985-12.321-3.178,6.414-7.9,3.687-5.915-16.4-11.926-19.869" transform="translate(1645.043 5323.296)" fill="#b4ffff"/>
  </g>
</svg>
