<svg xmlns="http://www.w3.org/2000/svg" width="68.038" height="69.187" viewBox="0 0 68.038 69.187">
  <g id="screen_laptop_2" transform="translate(-2083.499 -5558.629)">
    <path id="Path_2179" data-name="Path 2179" d="M156.139,207.177l61.555,35.7,6.483-33.487-61.555-35.7Z" transform="translate(1927.36 5384.939)" fill="#54c9ff"/>
    <path id="Path_2196" data-name="Path 2196" d="M162.135,242.624,180.022,253l5.347-27.622L167.482,215Z" transform="translate(1962.301 5370.263)" fill="#239bd5"/>
    <path id="Path_2197" data-name="Path 2197" d="M199.184,186.376l30.546,17.717.823-4.251-30.546-17.717Z" transform="translate(1893.233 5381.943)" fill="#239bd5"/>
    <path id="Path_2198" data-name="Path 2198" d="M201.215,201.688,226.4,216.3l.823-4.251L202.034,197.44Z" transform="translate(1895.249 5376.503)" fill="#239bd5"/>
    <path id="Path_2199" data-name="Path 2199" d="M203.246,207.361l30.546,17.717.823-4.251L204.069,203.11Z" transform="translate(1886.551 5374.488)" fill="#239bd5"/>
    <path id="Path_2200" data-name="Path 2200" d="M205.277,226.017l21.471,12.453.823-4.251L206.1,221.766Z" transform="translate(1892.286 5367.86)" fill="#239bd5"/>
  </g>
</svg>
