<svg xmlns="http://www.w3.org/2000/svg" width="36.505" height="47.529" viewBox="0 0 36.505 47.529">
  <g id="screen_right_6" transform="translate(-2136.869 -5511.607)">
    <path id="Path_2329" data-name="Path 2329" d="M508.021,202.42a7.173,7.173,0,0,1-3.251-5.629c.006-2.073,1.474-2.909,3.272-1.871a7.178,7.178,0,0,1,3.257,5.64c-.006,2.066-1.474,2.9-3.278,1.861m22.757-2.07L494.351,179.32l-.075,26.5L530.7,226.849l-36.427-21.031.01-4.071,6.762-3.847,6.846,11.858,13.823-7.87,9.013,15.61.048-17.148" transform="translate(1642.596 5332.288)" fill="#a5ffff" opacity="0.561"/>
    <path id="Path_2330" data-name="Path 2330" d="M521.717,199.242l-13.823,7.87-6.846-11.858-6.761,3.846-.012,4.071L530.7,224.2l.026-9.35-9.013-15.611" transform="translate(1642.595 5334.933)" fill="#b4ffff"/>
    <path id="Path_2331" data-name="Path 2331" d="M506.548,192.761c-1.8-1.038-3.266-.2-3.272,1.871a7.173,7.173,0,0,0,3.251,5.629c1.8,1.041,3.272.205,3.278-1.861a7.178,7.178,0,0,0-3.257-5.64" transform="translate(1644.09 5334.444)" fill="#b4ffff"/>
  </g>
</svg>
