<svg xmlns="http://www.w3.org/2000/svg" width="44.777" height="44.553" viewBox="0 0 44.777 44.553">
  <g id="screen_laptop_4" transform="translate(-2098.027 -5609.66)">
    <path id="Path_2181" data-name="Path 2181" d="M168.134,275.324l40.725,23.62,4.052-20.933-40.725-23.62Z" transform="translate(1929.893 5355.269)" fill="#064280"/>
    <path id="Path_2183" data-name="Path 2183" d="M173.493,281.851l14.923,8.655-.2,1.006L173.3,282.857Z" transform="translate(1951.059 5345.513)" fill="#0182aa"/>
    <path id="Path_2184" data-name="Path 2184" d="M174.394,288.629l12.563,7.287-.2,1.006L174.2,289.635Z" transform="translate(1951.936 5343.104)" fill="#0182aa"/>
    <path id="Path_2185" data-name="Path 2185" d="M175.3,290.644l15.5,8.989-.2,1.006-15.5-8.989Z" transform="translate(1947.518 5342.388)" fill="#0182aa"/>
    <path id="Path_2186" data-name="Path 2186" d="M176.2,297.116l13.481,7.819-.2,1.006L176,298.122Z" transform="translate(1948.053 5340.089)" fill="#0182aa"/>
    <path id="Path_2187" data-name="Path 2187" d="M177.1,305.722l9.09,5.272-.2,1.006-9.09-5.272Z" transform="translate(1950.962 5337.032)" fill="#0182aa"/>
    <path id="Path_2188" data-name="Path 2188" d="M202.371,262.838l17.438,10.114-.2,1.006-17.438-10.114Z" transform="translate(1901.046 5352.267)" fill="#0182aa"/>
    <path id="Path_2189" data-name="Path 2189" d="M203.273,270.311l14.307,8.3-.2,1.006-14.307-8.3Z" transform="translate(1902.695 5349.612)" fill="#0182aa"/>
    <path id="Path_2190" data-name="Path 2190" d="M204.174,279.7l9.051,5.249-.2,1.006-9.05-5.249Z" transform="translate(1906.469 5346.278)" fill="#0182aa"/>
    <path id="Path_2191" data-name="Path 2191" d="M205.075,276.806l17.438,10.114-.2,1.006L204.88,277.812Z" transform="translate(1896.599 5347.305)" fill="#0182aa"/>
    <path id="Path_2192" data-name="Path 2192" d="M205.977,284.56l13.994,8.117-.2,1.006-13.994-8.117Z" transform="translate(1898.56 5344.55)" fill="#0182aa"/>
  </g>
</svg>
