<svg xmlns="http://www.w3.org/2000/svg" width="32.73" height="48.706" viewBox="0 0 32.73 48.706">
  <g id="screen_laptop_3" transform="translate(-2049.839 -5539.271)">
    <path id="Path_2180" data-name="Path 2180" d="M286.257,193.919,260.01,178.7l6.483-33.487,26.247,15.223Z" transform="translate(1789.829 5394.059)" fill="#2069c7"/>
    <path id="Path_2201" data-name="Path 2201" d="M264.277,173.584l4.606,2.671,1.138-5.876-4.606-2.671Z" transform="translate(1809.799 5386.064)" fill="#54c9ff"/>
    <path id="Path_2202" data-name="Path 2202" d="M267.1,188.182l4.606,2.671,1.138-5.876-4.606-2.671Z" transform="translate(1805.151 5380.879)" fill="#54c9ff"/>
    <path id="Path_2203" data-name="Path 2203" d="M269.929,202.78l4.606,2.671,1.138-5.876-4.606-2.671Z" transform="translate(1800.503 5375.693)" fill="#54c9ff"/>
    <path id="Path_2204" data-name="Path 2204" d="M275.221,153.89l15.272,8.858.411-2.125-15.272-8.858Z" transform="translate(1781.858 5391.729)" fill="#5796ff"/>
    <path id="Path_2205" data-name="Path 2205" d="M276.666,161.356l15.272,8.858.411-2.125-15.273-8.858Z" transform="translate(1779.481 5389.077)" fill="#5796ff"/>
    <path id="Path_2206" data-name="Path 2206" d="M278.111,168.822l15.273,8.858.411-2.125L278.523,166.7Z" transform="translate(1777.104 5386.425)" fill="#5796ff"/>
    <path id="Path_2207" data-name="Path 2207" d="M279.557,176.288l15.273,8.858.411-2.125-15.273-8.858Z" transform="translate(1774.727 5383.771)" fill="#5796ff"/>
    <path id="Path_2208" data-name="Path 2208" d="M281,183.754l15.273,8.858.411-2.125-15.272-8.858Z" transform="translate(1772.35 5381.12)" fill="#5796ff"/>
    <path id="Path_2209" data-name="Path 2209" d="M282.447,191.22l15.272,8.858.411-2.125L282.858,189.1Z" transform="translate(1769.973 5378.467)" fill="#5796ff"/>
  </g>
</svg>
