<svg xmlns="http://www.w3.org/2000/svg" width="38.877" height="41.8" viewBox="0 0 38.877 41.8">
  <g id="W_L_1" transform="translate(-1894.412 -5536.733)">
    <path id="W_L_2" d="M312.38,231.041c-.269.156-.49.031-.491-.28a1.079,1.079,0,0,1,.487-.844l2.063-1.19c.271-.155.49-.03.491.28a1.079,1.079,0,0,1-.487.844l-2.063,1.19m4.135-2.387c-.269.156-.49.03-.49-.28a1.073,1.073,0,0,1,.487-.844l2.065-1.193c.271-.156.49-.03.491.28a1.073,1.073,0,0,1-.487.844l-2.066,1.193m-4.145-1.543c-.271.156-.49.031-.491-.28a1.068,1.068,0,0,1,.487-.844l17.912-10.341c.269-.155.49-.035.49.28a1.073,1.073,0,0,1-.487.844L312.37,227.112m-.012-3.933c-.271.155-.49.03-.491-.28a1.079,1.079,0,0,1,.487-.844l10.054-5.806c.274-.157.493-.033.494.278a1.073,1.073,0,0,1-.491.847l-10.054,5.806m12.15-7.015c-.271.156-.49.03-.491-.28a1.073,1.073,0,0,1,.487-.844l1.256-.724c.269-.156.49-.031.49.279a1.071,1.071,0,0,1-.487.844l-1.255.725m3.448-1.992c-.269.156-.49.031-.49-.279a1.073,1.073,0,0,1,.487-.845l8.2-4.736c.269-.156.49-.03.49.28a1.075,1.075,0,0,1-.486.844l-8.2,4.736m-15.608,5.077c-.271.155-.49.03-.491-.28a1.066,1.066,0,0,1,.487-.844l17.083-9.863c.271-.156.49-.035.491.28a1.076,1.076,0,0,1-.487.844l-17.083,9.863m19.218-11.1c-.271.155-.49.03-.491-.28a1.066,1.066,0,0,1,.487-.844l4.584-2.647c.271-.156.49-.035.491.28a1.073,1.073,0,0,1-.487.844l-4.584,2.647m-25.55,16.25c-.788.455-1.433.087-1.435-.819a3.15,3.15,0,0,1,1.426-2.474c.792-.457,1.435-.09,1.439.821a3.154,3.154,0,0,1-1.429,2.472m33.028-25.374-36.6,21.13a2.44,2.44,0,0,0-1.11,1.922l.051,17.8c0,.705.5.993,1.116.637l36.6-21.129a2.444,2.444,0,0,0,1.11-1.922l-.05-17.806c0-.709-.5-.992-1.117-.637" transform="translate(1593.078 5337.865)" fill="#00edf9" opacity="0.6"/>
    <path id="Path_2307" data-name="Path 2307" d="M327.929,206.935,310.846,216.8a1.066,1.066,0,0,0-.487.844c0,.31.22.435.491.28l17.083-9.863a1.076,1.076,0,0,0,.487-.844c0-.315-.22-.436-.491-.28" transform="translate(1594.576 5339.192)" fill="#a5ffff"/>
    <path id="Path_2308" data-name="Path 2308" d="M320.91,213.785l-10.054,5.806a1.079,1.079,0,0,0-.487.844c0,.31.22.435.491.28l10.054-5.806a1.073,1.073,0,0,0,.491-.847c0-.31-.22-.435-.494-.278" transform="translate(1594.577 5340.33)" fill="#a5ffff"/>
    <path id="Path_2309" data-name="Path 2309" d="M328.777,213.268l-17.912,10.341a1.068,1.068,0,0,0-.487.844c0,.311.22.436.491.28l17.911-10.341a1.073,1.073,0,0,0,.487-.844c0-.315-.22-.435-.49-.28" transform="translate(1594.579 5340.245)" fill="#a5ffff"/>
    <path id="Path_2310" data-name="Path 2310" d="M312.937,224.486l-2.063,1.19a1.079,1.079,0,0,0-.487.844c0,.311.222.436.491.28l2.063-1.19a1.079,1.079,0,0,0,.487-.844c0-.31-.22-.435-.491-.28" transform="translate(1594.58 5342.106)" fill="#a5ffff"/>
    <path id="Path_2311" data-name="Path 2311" d="M322.531,212.127l-1.256.724a1.073,1.073,0,0,0-.487.844c0,.31.22.436.491.28l1.255-.725a1.071,1.071,0,0,0,.487-.844c0-.31-.22-.435-.49-.279" transform="translate(1596.307 5340.054)" fill="#a5ffff"/>
    <path id="Path_2312" data-name="Path 2312" d="M332.437,206.978l-8.2,4.736a1.073,1.073,0,0,0-.487.845c0,.31.22.435.49.279l8.2-4.736a1.075,1.075,0,0,0,.486-.844c0-.31-.22-.436-.49-.28" transform="translate(1596.798 5339.2)" fill="#a5ffff"/>
    <path id="Path_2313" data-name="Path 2313" d="M331.912,203.608l-4.584,2.647a1.066,1.066,0,0,0-.487.844c0,.31.22.435.491.28l4.584-2.647a1.073,1.073,0,0,0,.487-.844c0-.315-.22-.436-.491-.28" transform="translate(1597.312 5338.641)" fill="#a5ffff"/>
    <path id="Path_2314" data-name="Path 2314" d="M305.545,217.966a3.15,3.15,0,0,0-1.426,2.474c0,.906.647,1.273,1.435.819a3.154,3.154,0,0,0,1.429-2.472c0-.911-.647-1.278-1.439-.821" transform="translate(1593.54 5341.002)" fill="#a5ffff"/>
    <path id="Path_2315" data-name="Path 2315" d="M316.486,222.437l-2.065,1.193a1.073,1.073,0,0,0-.487.844c0,.31.22.436.49.28l2.066-1.193a1.073,1.073,0,0,0,.487-.844c0-.31-.22-.436-.491-.28" transform="translate(1595.169 5341.767)" fill="#a5ffff"/>
  </g>
</svg>
