<svg xmlns="http://www.w3.org/2000/svg" width="66.289" height="106.32" viewBox="0 0 66.289 106.32">
  <g id="W_L_4" transform="translate(-1784.107 -5684.518)">
    <path id="Path_2436" data-name="Path 2436" d="M214.62,406.4l-.024-8.571,5.829-3.365.024,8.571L214.62,406.4m22.192-12.812-.037-12.9,5.829-3.365.037,12.9-5.829,3.366M214.6,397.826l-.015-5.3,5.829-3.366.015,5.3-5.829,3.365m11.124,2.163-.042-15.022,5.822-3.36.042,15.022-5.822,3.36M247.9,387.18l-.058-20.325,5.829-3.365.058,20.325L247.9,387.18m-11.129-6.5-.022-7.989,5.829-3.365.022,7.989-5.829,3.365m-11.1,4.283-.027-9.307,5.822-3.36.027,9.307-5.822,3.36m22.169-18.111-.035-12.583,5.829-3.365.035,12.583-5.829,3.365M210.3,414.417c-.26.15-.469.03-.47-.26l-.115-40.5a1.027,1.027,0,0,1,.468-.809c.253-.147.463-.027.464.272l.113,39.958,51-29.442c.26-.15.47-.031.47.268a1.021,1.021,0,0,1-.468.8L210.3,414.417m10.029-52.95c-.513.3-.932.058-.934-.532a2.046,2.046,0,0,1,.928-1.607l14.882-8.592c.513-.3.932-.058.934.533a2.047,2.047,0,0,1-.928,1.606l-14.882,8.592m18.031-10.41c-.514.3-.933.058-.934-.532a2.048,2.048,0,0,1,.927-1.607l3.433-1.981c.513-.3.932-.058.933.532a2.042,2.042,0,0,1-.927,1.607l-3.432,1.981m-28.19,16.465-.007-2.515,5.584-3.223.007,2.515-5.584,3.223m20.093-17.152a.676.676,0,0,1-.663.065.657.657,0,0,1-.271-.6l.022-.226.044-.223.089-.239.111-.227a1.9,1.9,0,0,1,.662-.677.7.7,0,0,1,.663-.087l.112.1.083.141.059.162.015.2a1.865,1.865,0,0,1-.266.907,1.956,1.956,0,0,1-.661.7m-9.946,5.741c-.514.3-.932.058-.934-.532a2.048,2.048,0,0,1,.928-1.607l7.206-4.16c.514-.3.932-.058.934.532a2.044,2.044,0,0,1-.928,1.607l-7.206,4.16m12.827-7.4c-.514.3-.932.058-.934-.532a2.046,2.046,0,0,1,.928-1.607l8.635-4.986c.513-.3.932-.058.933.532a2.04,2.04,0,0,1-.927,1.607l-8.635,4.986m-22.989,13.461-.007-2.515,5.584-3.224.007,2.515-5.584,3.224M265.745,320l-60.51,34.936a6.153,6.153,0,0,0-2.79,4.832l.182,64.184c.006,1.77,1.26,2.486,2.809,1.592L265.944,390.6a6.138,6.138,0,0,0,2.79-4.825l-.182-64.182c0-1.771-1.259-2.494-2.808-1.6" transform="translate(1581.662 5364.909)" fill="#00edf9"/>
    <path id="Path_2437" data-name="Path 2437" d="M209.15,365.281a1.027,1.027,0,0,0-.468.809l.115,40.5c0,.29.21.41.47.26l51.457-29.709a1.021,1.021,0,0,0,.468-.8c0-.3-.21-.419-.47-.268l-51,29.442-.113-39.958c0-.3-.211-.419-.464-.272" transform="translate(1582.697 5372.479)" fill="#a5ffff"/>
    <path id="Path_2438" data-name="Path 2438" d="M218.7,383.8l-5.829,3.365.024,8.571,5.829-3.365L218.7,383.8" transform="translate(1583.392 5375.564)" fill="#fdf7fb"/>
    <path id="Path_2439" data-name="Path 2439" d="M228.192,372.781l-5.822,3.361.043,15.021,5.822-3.361-.043-15.021" transform="translate(1584.97 5373.734)" fill="#fdf7fb"/>
    <path id="Path_2440" data-name="Path 2440" d="M237.717,369.1l-5.829,3.365.037,12.9L237.754,382l-.037-12.9" transform="translate(1586.55 5373.124)" fill="#fdf7fb"/>
    <path id="Path_2441" data-name="Path 2441" d="M247.212,357.244l-5.829,3.365.058,20.325,5.829-3.365-.058-20.325" transform="translate(1588.126 5371.154)" fill="#fdf7fb"/>
    <path id="Path_2442" data-name="Path 2442" d="M218.682,379.256l-5.829,3.365.015,5.3,5.829-3.365-.015-5.3" transform="translate(1583.39 5374.809)" fill="#a5ffff"/>
    <path id="Path_2443" data-name="Path 2443" d="M228.169,364.8l-5.822,3.361.026,9.307,5.822-3.361-.026-9.307" transform="translate(1584.966 5372.41)" fill="#a5ffff"/>
    <path id="Path_2444" data-name="Path 2444" d="M237.7,362.252l-5.829,3.365.023,7.99,5.829-3.365-.023-7.99" transform="translate(1586.546 5371.986)" fill="#a5ffff"/>
    <path id="Path_2445" data-name="Path 2445" d="M247.182,346.452l-5.829,3.365.036,12.583,5.829-3.365-.036-12.583" transform="translate(1588.121 5369.363)" fill="#a5ffff"/>
    <path id="Path_2446" data-name="Path 2446" d="M214.635,351.187l-5.583,3.224.007,2.515,5.583-3.224-.007-2.515" transform="translate(1582.759 5370.149)" fill="#fdf7fb"/>
    <path id="Path_2447" data-name="Path 2447" d="M214.648,355.78,209.064,359l.007,2.515,5.583-3.224-.007-2.515" transform="translate(1582.761 5370.912)" fill="#fdf7fb"/>
    <path id="Path_2448" data-name="Path 2448" d="M225.1,345.531l-7.206,4.16a2.048,2.048,0,0,0-.928,1.607c0,.59.42.829.934.532l7.206-4.16a2.044,2.044,0,0,0,.928-1.607c0-.59-.42-.828-.934-.532" transform="translate(1584.073 5369.189)" fill="#a5ffff"/>
    <path id="Path_2449" data-name="Path 2449" d="M226.429,344.188a1.9,1.9,0,0,0-.662.677l-.111.227-.089.239-.044.223-.022.226a.657.657,0,0,0,.271.6.676.676,0,0,0,.663-.065,1.956,1.956,0,0,0,.661-.7,1.865,1.865,0,0,0,.266-.907l-.015-.2-.059-.162-.083-.141-.112-.1a.7.7,0,0,0-.663.087" transform="translate(1585.489 5368.964)" fill="#a5ffff"/>
    <path id="Path_2450" data-name="Path 2450" d="M237.536,338.472l-8.635,4.986a2.046,2.046,0,0,0-.928,1.607c0,.59.42.828.934.532l8.635-4.986a2.04,2.04,0,0,0,.927-1.607c0-.59-.42-.828-.933-.532" transform="translate(1585.899 5368.018)" fill="#a5ffff"/>
    <path id="Path_2451" data-name="Path 2451" d="M232.794,346.323l-14.882,8.592a2.046,2.046,0,0,0-.928,1.607c0,.59.421.828.934.532l14.882-8.592a2.047,2.047,0,0,0,.928-1.606c0-.591-.421-.829-.934-.533" transform="translate(1584.075 5369.32)" fill="#a5ffff"/>
    <path id="Path_2452" data-name="Path 2452" d="M236.808,343.065l-3.433,1.981a2.048,2.048,0,0,0-.927,1.607c0,.59.42.829.934.532l3.432-1.981a2.042,2.042,0,0,0,.927-1.607c0-.59-.42-.829-.933-.532" transform="translate(1586.642 5368.78)" fill="#a5ffff"/>
  </g>
</svg>
