<svg xmlns="http://www.w3.org/2000/svg" width="58.141" height="111.021" viewBox="0 0 58.141 111.021">
  <g id="W_L_5" transform="translate(-2229.735 -5699.596)">
    <path id="Path_2393" data-name="Path 2393" d="M626.542,427.69c-.5.292-.911.061-.912-.52a1.984,1.984,0,0,1,.906-1.569l4.445-2.568c.506-.292.911-.059.913.52a1.989,1.989,0,0,1-.907,1.571l-4.445,2.566m-22.385,8.518c-.5.292-.911.061-.912-.52a1.984,1.984,0,0,1,.906-1.557l7.409-4.277c.494-.286.9-.055.9.513a1.985,1.985,0,0,1-.9,1.564l-7.409,4.277m-.012-4.385c-.506.292-.911.061-.913-.52a1.985,1.985,0,0,1,.907-1.569l17.814-10.285c.494-.286.9-.055.9.526a1.985,1.985,0,0,1-.9,1.564l-17.814,10.285M625.484,419.5c-.5.293-.911.061-.912-.519a1.987,1.987,0,0,1,.906-1.571l5.478-3.162c.5-.292.911-.061.912.52a1.984,1.984,0,0,1-.906,1.569l-5.478,3.162m10.038,3-.043-15.234,10.731-6.2.043,15.233-10.731,6.2m-31.39,4.919c-.5.292-.911.061-.912-.507a1.988,1.988,0,0,1,.906-1.571l5.478-3.162c.5-.292.911-.061.912.52a1.981,1.981,0,0,1-.906,1.557l-5.478,3.163m9-5.2c-.5.292-.911.061-.912-.507a1.985,1.985,0,0,1,.906-1.569l17.814-10.285c.506-.292.911-.061.913.52a1.984,1.984,0,0,1-.907,1.557l-17.814,10.285m-9.027-3.587c-.506.292-.911.061-.913-.507a1.986,1.986,0,0,1,.907-1.569l8.5-4.907c.506-.292.911-.061.913.52a1.982,1.982,0,0,1-.907,1.557l-8.5,4.906m-.013-4.385c-.5.292-.911.061-.912-.52a1.981,1.981,0,0,1,.906-1.557L637.286,393c.506-.292.911-.061.913.507a1.986,1.986,0,0,1-.907,1.569l-33.2,19.171m36.729-21.206c-.493.286-.911.061-.912-.52a2,2,0,0,1,.906-1.557l4.445-2.566c.506-.292.911-.061.913.507a1.987,1.987,0,0,1-.906,1.569l-4.446,2.566m-36.742,16.821c-.5.291-.911.048-.912-.52a1.991,1.991,0,0,1,.906-1.571L630.1,392.755c.5-.292.911-.061.912.52a2.008,2.008,0,0,1-.906,1.571l-26.021,15.023m29.984-17.312c-.494.286-.9.042-.9-.526a1.985,1.985,0,0,1,.9-1.564l11.191-6.461c.5-.291.911-.061.912.52a2.009,2.009,0,0,1-.906,1.569l-11.191,6.461m-30,12.912c-.506.292-.911.061-.913-.519a1.984,1.984,0,0,1,.907-1.558l41.174-23.771c.5-.293.911-.061.912.506a1.988,1.988,0,0,1-.906,1.571l-41.174,23.771m-.559-6.383-.064-22.6,42.623-24.607.064,22.6-42.623,24.608m47.609-58.469-52.77,30.466a5.673,5.673,0,0,0-2.575,4.458l.21,73.91c0,1.638,1.165,2.3,2.591,1.476l52.77-30.468a5.672,5.672,0,0,0,2.57-4.459l-.21-73.91c0-1.638-1.164-2.3-2.59-1.476" transform="translate(1633.955 5359.336)" fill="#00edf9" opacity="0.6"/>
    <path id="Path_2394" data-name="Path 2394" d="M644.979,350.226l-42.622,24.608.064,22.6,42.622-24.608-.064-22.6" transform="translate(1635.047 5360.989)" fill="#a5ffff"/>
    <path id="Path_2395" data-name="Path 2395" d="M644.188,374.036l-41.174,23.771a1.984,1.984,0,0,0-.907,1.558c0,.58.407.81.913.519l41.174-23.771a1.988,1.988,0,0,0,.906-1.571c0-.567-.407-.8-.912-.506" transform="translate(1635.006 5364.921)" fill="#a5ffff"/>
    <path id="Path_2396" data-name="Path 2396" d="M629.044,385.3l-26.02,15.023a1.991,1.991,0,0,0-.906,1.571c0,.568.407.812.912.52l26.02-15.023a2.008,2.008,0,0,0,.906-1.571c0-.581-.407-.812-.912-.52" transform="translate(1635.008 5366.791)" fill="#a5ffff"/>
    <path id="Path_2397" data-name="Path 2397" d="M639.929,377.8l-11.191,6.461a1.985,1.985,0,0,0-.9,1.564c0,.568.407.812.9.526l11.191-6.461a2.009,2.009,0,0,0,.906-1.569c0-.581-.407-.812-.912-.52" transform="translate(1639.278 5365.545)" fill="#a5ffff"/>
    <path id="Path_2398" data-name="Path 2398" d="M636.239,385.515l-33.2,19.171a1.981,1.981,0,0,0-.906,1.557c0,.581.407.812.912.52l33.2-19.171a1.986,1.986,0,0,0,.907-1.569c0-.568-.407-.8-.913-.507" transform="translate(1635.01 5366.826)" fill="#a5ffff"/>
    <path id="Path_2399" data-name="Path 2399" d="M638.98,381.569l-4.445,2.566a2,2,0,0,0-.906,1.557c0,.581.419.806.912.52l4.446-2.566a1.987,1.987,0,0,0,.906-1.569c0-.568-.407-.8-.913-.507" transform="translate(1640.238 5366.171)" fill="#a5ffff"/>
    <path id="Path_2400" data-name="Path 2400" d="M611.543,401.51l-8.5,4.907a1.986,1.986,0,0,0-.907,1.569c0,.568.407.8.913.507l8.5-4.906a1.982,1.982,0,0,0,.907-1.557c0-.581-.407-.812-.913-.52" transform="translate(1635.011 5369.482)" fill="#a5ffff"/>
    <path id="Path_2401" data-name="Path 2401" d="M626.857,403.734l-5.478,3.162a1.986,1.986,0,0,0-.906,1.571c0,.58.407.812.912.519l5.478-3.162a1.984,1.984,0,0,0,.906-1.569c0-.581-.407-.812-.912-.52" transform="translate(1638.055 5369.851)" fill="#a5ffff"/>
    <path id="Path_2402" data-name="Path 2402" d="M620.892,408.191l-17.814,10.285a1.985,1.985,0,0,0-.907,1.569c0,.581.407.812.913.52L620.9,410.281a1.985,1.985,0,0,0,.9-1.564c0-.581-.407-.812-.9-.526" transform="translate(1635.016 5370.591)" fill="#a5ffff"/>
    <path id="Path_2403" data-name="Path 2403" d="M626.731,411.267l-4.445,2.568a1.984,1.984,0,0,0-.906,1.569c0,.581.407.812.912.52l4.445-2.566a1.99,1.99,0,0,0,.907-1.571c0-.579-.407-.812-.913-.52" transform="translate(1638.205 5371.101)" fill="#a5ffff"/>
    <path id="Path_2404" data-name="Path 2404" d="M610.5,417.116l-7.409,4.277a1.984,1.984,0,0,0-.906,1.557c0,.581.407.812.912.52l7.409-4.277a1.985,1.985,0,0,0,.9-1.564c0-.568-.407-.8-.9-.513" transform="translate(1635.018 5372.073)" fill="#a5ffff"/>
    <path id="Path_2405" data-name="Path 2405" d="M608.545,410.539l-5.478,3.162a1.988,1.988,0,0,0-.906,1.571c0,.568.407.8.912.507l5.478-3.163a1.981,1.981,0,0,0,.906-1.557c0-.581-.407-.812-.912-.52" transform="translate(1635.015 5370.98)" fill="#a5ffff"/>
    <path id="Path_2406" data-name="Path 2406" d="M628.6,399.973l-17.814,10.285a1.985,1.985,0,0,0-.906,1.569c0,.568.407.8.912.507l17.814-10.285a1.984,1.984,0,0,0,.907-1.557c0-.581-.407-.812-.913-.52" transform="translate(1636.296 5369.227)" fill="#a5ffff"/>
    <path id="Path_2407" data-name="Path 2407" d="M640.558,392.418l-10.731,6.2.043,15.233,10.731-6.2-.043-15.233" transform="translate(1639.607 5367.993)" fill="#a5ffff"/>
  </g>
</svg>
