<svg xmlns="http://www.w3.org/2000/svg" width="65.128" height="82.963" viewBox="0 0 65.128 82.963">
  <g id="W_L_2" transform="translate(-1926.265 -5446.501)">
    <path id="W_L_1" d="M374.75,147.011l5.638-6.429a4.781,4.781,0,0,1-.034-.48,7.192,7.192,0,0,1,3.26-5.646c1.8-1.041,3.275-.2,3.281,1.869a7.192,7.192,0,0,1-3.26,5.646,2.3,2.3,0,0,1-2.339.215l-5.638,6.425a3.484,3.484,0,0,1,.034.482,7.2,7.2,0,0,1-3.259,5.646,3.309,3.309,0,0,1-1.033.4l-7.479,15.923a2.587,2.587,0,0,1,.6,1.81,7.192,7.192,0,0,1-3.259,5.646c-1.8,1.041-3.275.2-3.281-1.869a5.824,5.824,0,0,1,.373-1.969l-6.942-4.24A5.852,5.852,0,0,1,350,171.63a3.07,3.07,0,0,1-1.414.443L341.694,184.3a2.878,2.878,0,0,1,.382,1.532,7.194,7.194,0,0,1-3.259,5.647c-1.8,1.041-3.275.2-3.281-1.87a7.19,7.19,0,0,1,3.259-5.646,3,3,0,0,1,1.415-.443l6.89-12.23a2.882,2.882,0,0,1-.382-1.527,7.192,7.192,0,0,1,3.26-5.646c1.8-1.042,3.274-.2,3.28,1.869a5.823,5.823,0,0,1-.372,1.964l6.941,4.245a5.736,5.736,0,0,1,1.413-1.2,3.454,3.454,0,0,1,1.032-.4l7.479-15.918a2.587,2.587,0,0,1-.6-1.814,7.191,7.191,0,0,1,3.259-5.641,2.288,2.288,0,0,1,2.339-.215m17.377-25.321L330.171,157.46a3.356,3.356,0,0,0-1.518,2.635l.122,43.271c0,.967.688,1.357,1.529.871l61.954-35.769a3.355,3.355,0,0,0,1.523-2.633l-.122-43.271c0-.967-.691-1.358-1.532-.873" transform="translate(1597.612 5325.019)" fill="#00edf9" opacity="0.6"/>
    <path id="Path_2305" data-name="Path 2305" d="M382.634,132.673a7.192,7.192,0,0,0-3.26,5.646,4.781,4.781,0,0,0,.034.48l-5.638,6.429a2.288,2.288,0,0,0-2.339.215,7.191,7.191,0,0,0-3.259,5.641,2.587,2.587,0,0,0,.6,1.814l-7.479,15.918a3.455,3.455,0,0,0-1.032.4,5.736,5.736,0,0,0-1.413,1.19l-6.941-4.245a5.823,5.823,0,0,0,.372-1.964c-.006-2.073-1.476-2.912-3.28-1.869a7.192,7.192,0,0,0-3.26,5.646,2.882,2.882,0,0,0,.382,1.527l-6.89,12.23a3,3,0,0,0-1.415.443,7.19,7.19,0,0,0-3.259,5.646c.006,2.073,1.477,2.912,3.281,1.87a7.194,7.194,0,0,0,3.259-5.647,2.878,2.878,0,0,0-.382-1.532L347.6,170.29a3.07,3.07,0,0,0,1.414-.443,5.852,5.852,0,0,0,1.412-1.189l6.942,4.24a5.823,5.823,0,0,0-.373,1.969c.006,2.072,1.477,2.91,3.281,1.869a7.192,7.192,0,0,0,3.259-5.646,2.587,2.587,0,0,0-.6-1.81l7.479-15.923a3.308,3.308,0,0,0,1.033-.4,7.2,7.2,0,0,0,3.259-5.646,3.494,3.494,0,0,0-.034-.482l5.638-6.425a2.3,2.3,0,0,0,2.339-.215,7.192,7.192,0,0,0,3.26-5.646c-.006-2.072-1.477-2.91-3.281-1.869" transform="translate(1598.592 5326.802)" fill="#a5ffff"/>
  </g>
</svg>
